<?xml version="1.0" encoding="UTF-8" standalone="no"?>
<!-- Created with PhysiCell (http://PhysiCell.MathCancer.org/) -->
<svg 
 xmlns:dc="http://purl.org/dc/elements/1.1/" 
 xmlns:cc="http://creativecommons.org/ns#" 
 xmlns:rdf="http://www.w3.org/1999/02/22-rdf-syntax-ns#" 
 xmlns:svg="http://www.w3.org/2000/svg" 
 xmlns="http://www.w3.org/2000/svg" 
 version="1.1" 
 width="400" 
 height="428" 
 id="svg2">
  <rect x="0" y="0" width="400" height="428" stroke-width="0.8" stroke="white" fill="white"/>
  <text x="5" y="12"
   font-family="Arial" font-size="10" fill="black" >
   Current time: 1 days, 15 hours, and 0.00 minutes, z = 0.00 &#956;m
  </text>
  <text x="5" y="23"
   font-family="Arial" font-size="9.5" fill="black" >
   978 agents
  </text>
 <g id="tissue" 
    transform="translate(0,428) scale(1,-1)">
  <g id="ECM">
  </g>
  <g id="cells">
   <g id="cell25">
  <circle cx="72.0984" cy="162.833" r="7.80499" stroke-width="0.5" stroke="black" fill="grey"/>
  <circle cx="72.0984" cy="162.833" r="3.95773" stroke-width="0.5" stroke="grey" fill="grey"/>
   </g>
   <g id="cell35">
  <circle cx="176.261" cy="132.918" r="5.27439" stroke-width="0.5" stroke="black" fill="grey"/>
   </g>
   <g id="cell82">
  <circle cx="121.578" cy="160.546" r="8.01737" stroke-width="0.5" stroke="black" fill="grey"/>
  <circle cx="121.578" cy="160.546" r="4.36163" stroke-width="0.5" stroke="grey" fill="grey"/>
   </g>
   <g id="cell93">
  <circle cx="60.8799" cy="249.363" r="7.74021" stroke-width="0.5" stroke="black" fill="grey"/>
  <circle cx="60.8799" cy="249.363" r="3.82839" stroke-width="0.5" stroke="grey" fill="grey"/>
   </g>
   <g id="cell120">
  <circle cx="188.213" cy="170.161" r="8.19054" stroke-width="0.5" stroke="black" fill="grey"/>
  <circle cx="188.213" cy="170.161" r="4.67233" stroke-width="0.5" stroke="grey" fill="grey"/>
   </g>
   <g id="cell135">
  <circle cx="79.0981" cy="187.301" r="2.75642" stroke-width="0.5" stroke="black" fill="grey"/>
   </g>
   <g id="cell145">
  <circle cx="110.813" cy="218.933" r="8.00374" stroke-width="0.5" stroke="black" fill="grey"/>
  <circle cx="110.813" cy="218.933" r="4.33654" stroke-width="0.5" stroke="grey" fill="grey"/>
   </g>
   <g id="cell170">
  <circle cx="68.9967" cy="262.424" r="6.19027" stroke-width="0.5" stroke="black" fill="grey"/>
   </g>
   <g id="cell174">
  <circle cx="161.761" cy="175.567" r="8.18796" stroke-width="0.5" stroke="black" fill="grey"/>
  <circle cx="161.761" cy="175.567" r="4.66779" stroke-width="0.5" stroke="grey" fill="grey"/>
   </g>
   <g id="cell178">
  <circle cx="102.136" cy="204.107" r="7.49353" stroke-width="0.5" stroke="black" fill="grey"/>
  <circle cx="102.136" cy="204.107" r="3.30131" stroke-width="0.5" stroke="grey" fill="grey"/>
   </g>
   <g id="cell181">
  <circle cx="132.051" cy="90.3851" r="4.75734" stroke-width="0.5" stroke="black" fill="grey"/>
   </g>
   <g id="cell182">
  <circle cx="174.371" cy="182.3" r="5.21447" stroke-width="0.5" stroke="black" fill="grey"/>
   </g>
   <g id="cell201">
  <circle cx="49.7689" cy="202.748" r="4.74519" stroke-width="0.5" stroke="black" fill="grey"/>
   </g>
   <g id="cell203">
  <circle cx="72.9309" cy="278.631" r="6.77067" stroke-width="0.5" stroke="black" fill="grey"/>
  <circle cx="72.9309" cy="278.631" r="0.766542" stroke-width="0.5" stroke="grey" fill="grey"/>
   </g>
   <g id="cell211">
  <circle cx="69.9837" cy="136.739" r="6.5167" stroke-width="0.5" stroke="black" fill="grey"/>
   </g>
   <g id="cell220">
  <circle cx="87.4527" cy="168.32" r="7.94779" stroke-width="0.5" stroke="black" fill="grey"/>
  <circle cx="87.4527" cy="168.32" r="4.23237" stroke-width="0.5" stroke="grey" fill="grey"/>
   </g>
   <g id="cell229">
  <circle cx="78.9534" cy="115.154" r="2.60283" stroke-width="0.5" stroke="black" fill="grey"/>
   </g>
   <g id="cell230">
  <circle cx="94.2118" cy="144.655" r="1.76118" stroke-width="0.5" stroke="black" fill="grey"/>
   </g>
   <g id="cell245">
  <circle cx="189.336" cy="194.519" r="8.21821" stroke-width="0.5" stroke="black" fill="grey"/>
  <circle cx="189.336" cy="194.519" r="4.72067" stroke-width="0.5" stroke="grey" fill="grey"/>
   </g>
   <g id="cell252">
  <circle cx="147.506" cy="232.398" r="4.2277" stroke-width="0.5" stroke="black" fill="grey"/>
   </g>
   <g id="cell261">
  <circle cx="196.485" cy="148.252" r="5.81905" stroke-width="0.5" stroke="black" fill="grey"/>
   </g>
   <g id="cell271">
  <circle cx="67.7596" cy="256.054" r="5.87946" stroke-width="0.5" stroke="black" fill="grey"/>
   </g>
   <g id="cell279">
  <circle cx="102.233" cy="170.523" r="8.39406" stroke-width="0.5" stroke="black" fill="grey"/>
  <circle cx="102.233" cy="170.523" r="5.02054" stroke-width="0.5" stroke="grey" fill="grey"/>
   </g>
   <g id="cell281">
  <circle cx="102.892" cy="139.125" r="6.18516" stroke-width="0.5" stroke="black" fill="grey"/>
   </g>
   <g id="cell288">
  <circle cx="74.1073" cy="138.47" r="2.51581" stroke-width="0.5" stroke="black" fill="grey"/>
   </g>
   <g id="cell292">
  <circle cx="114.646" cy="248.134" r="8.25186" stroke-width="0.5" stroke="black" fill="grey"/>
  <circle cx="114.646" cy="248.134" r="4.77901" stroke-width="0.5" stroke="grey" fill="grey"/>
   </g>
   <g id="cell300">
  <circle cx="134.826" cy="286.518" r="2.76932" stroke-width="0.5" stroke="black" fill="grey"/>
   </g>
   <g id="cell309">
  <circle cx="168.617" cy="197.271" r="8.19771" stroke-width="0.5" stroke="black" fill="grey"/>
  <circle cx="168.617" cy="197.271" r="4.68488" stroke-width="0.5" stroke="grey" fill="grey"/>
   </g>
   <g id="cell310">
  <circle cx="162.076" cy="335.273" r="8.3976" stroke-width="0.5" stroke="black" fill="grey"/>
  <circle cx="162.076" cy="335.273" r="5.02646" stroke-width="0.5" stroke="grey" fill="grey"/>
   </g>
   <g id="cell322">
  <circle cx="176" cy="215.609" r="4.43001" stroke-width="0.5" stroke="black" fill="grey"/>
   </g>
   <g id="cell323">
  <circle cx="152.552" cy="200.088" r="6.11198" stroke-width="0.5" stroke="black" fill="grey"/>
   </g>
   <g id="cell331">
  <circle cx="183.407" cy="239.008" r="6.1521" stroke-width="0.5" stroke="black" fill="grey"/>
   </g>
   <g id="cell354">
  <circle cx="144.954" cy="276.737" r="8.41229" stroke-width="0.5" stroke="black" fill="grey"/>
  <circle cx="144.954" cy="276.737" r="5.05096" stroke-width="0.5" stroke="grey" fill="grey"/>
   </g>
   <g id="cell359">
  <circle cx="130.248" cy="242.37" r="7.97924" stroke-width="0.5" stroke="black" fill="grey"/>
  <circle cx="130.248" cy="242.37" r="4.29116" stroke-width="0.5" stroke="grey" fill="grey"/>
   </g>
   <g id="cell375">
  <circle cx="140.644" cy="171.129" r="6.89425" stroke-width="0.5" stroke="black" fill="grey"/>
  <circle cx="140.644" cy="171.129" r="1.50876" stroke-width="0.5" stroke="grey" fill="grey"/>
   </g>
   <g id="cell421">
  <circle cx="108.318" cy="150.391" r="8.35669" stroke-width="0.5" stroke="black" fill="grey"/>
  <circle cx="108.318" cy="150.391" r="4.95781" stroke-width="0.5" stroke="grey" fill="grey"/>
   </g>
   <g id="cell437">
  <circle cx="131.215" cy="207.093" r="8.38526" stroke-width="0.5" stroke="black" fill="grey"/>
  <circle cx="131.215" cy="207.093" r="5.00582" stroke-width="0.5" stroke="grey" fill="grey"/>
   </g>
   <g id="cell481">
  <circle cx="243.568" cy="188.894" r="4.29795" stroke-width="0.5" stroke="black" fill="grey"/>
   </g>
   <g id="cell488">
  <circle cx="181.595" cy="281.083" r="6.2964" stroke-width="0.5" stroke="black" fill="grey"/>
   </g>
   <g id="cell536">
  <circle cx="209.155" cy="251.844" r="5.29224" stroke-width="0.5" stroke="black" fill="red"/>
   </g>
   <g id="cell538">
  <circle cx="270.061" cy="176.91" r="3.41783" stroke-width="0.5" stroke="black" fill="red"/>
   </g>
   <g id="cell558">
  <circle cx="239.727" cy="175.439" r="7.31375" stroke-width="0.5" stroke="black" fill="red"/>
  <circle cx="239.727" cy="175.439" r="2.86994" stroke-width="0.5" stroke="red" fill="red"/>
   </g>
   <g id="cell567">
  <circle cx="256.907" cy="266.172" r="4.91473" stroke-width="0.5" stroke="black" fill="red"/>
   </g>
   <g id="cell579">
  <circle cx="281.029" cy="192.608" r="4.92684" stroke-width="0.5" stroke="black" fill="red"/>
   </g>
   <g id="cell600">
  <circle cx="295.962" cy="137.149" r="8.40246" stroke-width="0.5" stroke="black" fill="red"/>
  <circle cx="295.962" cy="137.149" r="5.03459" stroke-width="0.5" stroke="red" fill="red"/>
   </g>
   <g id="cell603">
  <circle cx="326.316" cy="224.879" r="1.56972" stroke-width="0.5" stroke="black" fill="red"/>
   </g>
   <g id="cell606">
  <circle cx="334.416" cy="222.481" r="7.12042" stroke-width="0.5" stroke="black" fill="red"/>
  <circle cx="334.416" cy="222.481" r="2.33367" stroke-width="0.5" stroke="red" fill="red"/>
   </g>
   <g id="cell613">
  <circle cx="357.83" cy="213.827" r="7.83242" stroke-width="0.5" stroke="black" fill="red"/>
  <circle cx="357.83" cy="213.827" r="4.01155" stroke-width="0.5" stroke="red" fill="red"/>
   </g>
   <g id="cell626">
  <circle cx="229.121" cy="184.508" r="7.39552" stroke-width="0.5" stroke="black" fill="red"/>
  <circle cx="229.121" cy="184.508" r="3.07236" stroke-width="0.5" stroke="red" fill="red"/>
   </g>
   <g id="cell630">
  <circle cx="151.715" cy="115.109" r="8.39932" stroke-width="0.5" stroke="black" fill="red"/>
  <circle cx="151.715" cy="115.109" r="5.02934" stroke-width="0.5" stroke="red" fill="red"/>
   </g>
   <g id="cell635">
  <circle cx="221.397" cy="300.534" r="8.28666" stroke-width="0.5" stroke="black" fill="red"/>
  <circle cx="221.397" cy="300.534" r="4.83885" stroke-width="0.5" stroke="red" fill="red"/>
   </g>
   <g id="cell646">
  <circle cx="306.434" cy="182.78" r="3.63437" stroke-width="0.5" stroke="black" fill="red"/>
   </g>
   <g id="cell668">
  <circle cx="306.062" cy="249.637" r="3.92098" stroke-width="0.5" stroke="black" fill="red"/>
   </g>
   <g id="cell669">
  <circle cx="388.533" cy="122.92" r="7.81266" stroke-width="0.5" stroke="black" fill="red"/>
  <circle cx="388.533" cy="122.92" r="3.97283" stroke-width="0.5" stroke="red" fill="red"/>
   </g>
   <g id="cell677">
  <circle cx="353.296" cy="114.181" r="8.07642" stroke-width="0.5" stroke="black" fill="red"/>
  <circle cx="353.296" cy="114.181" r="4.46926" stroke-width="0.5" stroke="red" fill="red"/>
   </g>
   <g id="cell681">
  <circle cx="344.741" cy="294.718" r="8.24564" stroke-width="0.5" stroke="black" fill="red"/>
  <circle cx="344.741" cy="294.718" r="4.76825" stroke-width="0.5" stroke="red" fill="red"/>
   </g>
   <g id="cell685">
  <circle cx="204.211" cy="216.816" r="7.44225" stroke-width="0.5" stroke="black" fill="red"/>
  <circle cx="204.211" cy="216.816" r="3.18319" stroke-width="0.5" stroke="red" fill="red"/>
   </g>
   <g id="cell693">
  <circle cx="249.602" cy="61.6951" r="8.33607" stroke-width="0.5" stroke="black" fill="red"/>
  <circle cx="249.602" cy="61.6951" r="4.92298" stroke-width="0.5" stroke="red" fill="red"/>
   </g>
   <g id="cell702">
  <circle cx="242.413" cy="211.831" r="4.91766" stroke-width="0.5" stroke="black" fill="red"/>
   </g>
   <g id="cell704">
  <circle cx="225.85" cy="232.826" r="6.76318" stroke-width="0.5" stroke="black" fill="red"/>
  <circle cx="225.85" cy="232.826" r="0.697339" stroke-width="0.5" stroke="red" fill="red"/>
   </g>
   <g id="cell705">
  <circle cx="264.735" cy="212.513" r="6.91651" stroke-width="0.5" stroke="black" fill="red"/>
  <circle cx="264.735" cy="212.513" r="1.6074" stroke-width="0.5" stroke="red" fill="red"/>
   </g>
   <g id="cell706">
  <circle cx="211.453" cy="230.058" r="7.65308" stroke-width="0.5" stroke="black" fill="red"/>
  <circle cx="211.453" cy="230.058" r="3.64901" stroke-width="0.5" stroke="red" fill="red"/>
   </g>
   <g id="cell709">
  <circle cx="219.726" cy="119.004" r="8.1729" stroke-width="0.5" stroke="black" fill="red"/>
  <circle cx="219.726" cy="119.004" r="4.64133" stroke-width="0.5" stroke="red" fill="red"/>
   </g>
   <g id="cell725">
  <circle cx="272.045" cy="84.7042" r="7.7119" stroke-width="0.5" stroke="black" fill="red"/>
  <circle cx="272.045" cy="84.7042" r="3.77082" stroke-width="0.5" stroke="red" fill="red"/>
   </g>
   <g id="cell731">
  <circle cx="284.938" cy="272.832" r="4.70458" stroke-width="0.5" stroke="black" fill="red"/>
   </g>
   <g id="cell743">
  <circle cx="389.369" cy="185.871" r="8.31518" stroke-width="0.5" stroke="black" fill="red"/>
  <circle cx="389.369" cy="185.871" r="4.88753" stroke-width="0.5" stroke="red" fill="red"/>
   </g>
   <g id="cell745">
  <circle cx="342.581" cy="129.237" r="7.9887" stroke-width="0.5" stroke="black" fill="red"/>
  <circle cx="342.581" cy="129.237" r="4.30871" stroke-width="0.5" stroke="red" fill="red"/>
   </g>
   <g id="cell752">
  <circle cx="318.893" cy="249.555" r="7.53495" stroke-width="0.5" stroke="black" fill="red"/>
  <circle cx="318.893" cy="249.555" r="3.39428" stroke-width="0.5" stroke="red" fill="red"/>
   </g>
   <g id="cell756">
  <circle cx="203.909" cy="169.17" r="8.13352" stroke-width="0.5" stroke="black" fill="red"/>
  <circle cx="203.909" cy="169.17" r="4.57163" stroke-width="0.5" stroke="red" fill="red"/>
   </g>
   <g id="cell787">
  <circle cx="257.711" cy="146.726" r="7.97226" stroke-width="0.5" stroke="black" fill="red"/>
  <circle cx="257.711" cy="146.726" r="4.27816" stroke-width="0.5" stroke="red" fill="red"/>
   </g>
   <g id="cell802">
  <circle cx="317.575" cy="138.1" r="3.69068" stroke-width="0.5" stroke="black" fill="red"/>
   </g>
   <g id="cell812">
  <circle cx="384.641" cy="169.476" r="5.03954" stroke-width="0.5" stroke="black" fill="red"/>
   </g>
   <g id="cell819">
  <circle cx="373.157" cy="173.58" r="4.16616" stroke-width="0.5" stroke="black" fill="red"/>
   </g>
   <g id="cell821">
  <circle cx="385.199" cy="282.471" r="5.7186" stroke-width="0.5" stroke="black" fill="red"/>
   </g>
   <g id="cell825">
  <circle cx="252.394" cy="185.626" r="7.50413" stroke-width="0.5" stroke="black" fill="red"/>
  <circle cx="252.394" cy="185.626" r="3.32531" stroke-width="0.5" stroke="red" fill="red"/>
   </g>
   <g id="cell845">
  <circle cx="263.539" cy="120.394" r="6.62875" stroke-width="0.5" stroke="black" fill="red"/>
   </g>
   <g id="cell846">
  <circle cx="268.876" cy="159.88" r="8.40948" stroke-width="0.5" stroke="black" fill="red"/>
  <circle cx="268.876" cy="159.88" r="5.04629" stroke-width="0.5" stroke="red" fill="red"/>
   </g>
   <g id="cell867">
  <circle cx="273.684" cy="259.578" r="5.27692" stroke-width="0.5" stroke="black" fill="red"/>
   </g>
   <g id="cell870">
  <circle cx="326.715" cy="133.641" r="7.07429" stroke-width="0.5" stroke="black" fill="red"/>
  <circle cx="326.715" cy="133.641" r="2.18889" stroke-width="0.5" stroke="red" fill="red"/>
   </g>
   <g id="cell872">
  <circle cx="322.625" cy="164.212" r="8.38369" stroke-width="0.5" stroke="black" fill="red"/>
  <circle cx="322.625" cy="164.212" r="5.0032" stroke-width="0.5" stroke="red" fill="red"/>
   </g>
   <g id="cell899">
  <circle cx="212.223" cy="291.374" r="4.77448" stroke-width="0.5" stroke="black" fill="red"/>
   </g>
   <g id="cell907">
  <circle cx="238.813" cy="278.615" r="7.08699" stroke-width="0.5" stroke="black" fill="red"/>
  <circle cx="238.813" cy="278.615" r="2.22961" stroke-width="0.5" stroke="red" fill="red"/>
   </g>
   <g id="cell925">
  <circle cx="303.367" cy="169.626" r="8.31855" stroke-width="0.5" stroke="black" fill="red"/>
  <circle cx="303.367" cy="169.626" r="4.89326" stroke-width="0.5" stroke="red" fill="red"/>
   </g>
  </g>
 </g>
  <rect x="190" y="414" width="200" height="4" stroke-width="0.8" stroke="rgb(255,255,255)" fill="rgb(0,0,0)"/>
  <text x="192.5" y="411.5"
   font-family="Arial" font-size="10" fill="black" >
   200 &#956;m
  </text>
  <text x="10" y="418"
   font-family="Arial" font-size="7.5" fill="black" >
   0 days, 0 hours, 12 minutes, and 3.1749 seconds
  </text>
  <rect x="0" y="28" width="400" height="400" stroke-width="0.8" stroke="rgb(0,0,0)" fill="none"/>
</svg>
