<?xml version="1.0" encoding="UTF-8" standalone="no"?>
<!-- Created with PhysiCell (http://PhysiCell.MathCancer.org/) -->
<svg 
 xmlns:dc="http://purl.org/dc/elements/1.1/" 
 xmlns:cc="http://creativecommons.org/ns#" 
 xmlns:rdf="http://www.w3.org/1999/02/22-rdf-syntax-ns#" 
 xmlns:svg="http://www.w3.org/2000/svg" 
 xmlns="http://www.w3.org/2000/svg" 
 version="1.1" 
 width="400" 
 height="428" 
 id="svg2">
  <rect x="0" y="0" width="400" height="428" stroke-width="0.8" stroke="white" fill="white"/>
  <text x="5" y="12"
   font-family="Arial" font-size="10" fill="black" >
   Current time: 3 days, 6 hours, and 0.00 minutes, z = 0.00 &#956;m
  </text>
  <text x="5" y="23"
   font-family="Arial" font-size="9.5" fill="black" >
   978 agents
  </text>
 <g id="tissue" 
    transform="translate(0,428) scale(1,-1)">
  <g id="ECM">
  </g>
  <g id="cells">
   <g id="cell37">
  <circle cx="178.028" cy="155.946" r="8.01664" stroke-width="0.5" stroke="black" fill="grey"/>
  <circle cx="178.028" cy="155.946" r="4.3603" stroke-width="0.5" stroke="grey" fill="grey"/>
   </g>
   <g id="cell58">
  <circle cx="198.548" cy="289.247" r="7.17614" stroke-width="0.5" stroke="black" fill="grey"/>
  <circle cx="198.548" cy="289.247" r="2.49852" stroke-width="0.5" stroke="grey" fill="grey"/>
   </g>
   <g id="cell81">
  <circle cx="127.78" cy="89.1221" r="8.2505" stroke-width="0.5" stroke="black" fill="grey"/>
  <circle cx="127.78" cy="89.1221" r="4.77665" stroke-width="0.5" stroke="grey" fill="grey"/>
   </g>
   <g id="cell93">
  <circle cx="32.8359" cy="292.232" r="7.05692" stroke-width="0.5" stroke="black" fill="grey"/>
  <circle cx="32.8359" cy="292.232" r="2.1321" stroke-width="0.5" stroke="grey" fill="grey"/>
   </g>
   <g id="cell108">
  <circle cx="138.618" cy="269.692" r="6.57901" stroke-width="0.5" stroke="black" fill="grey"/>
   </g>
   <g id="cell139">
  <circle cx="39.5836" cy="268.459" r="8.00591" stroke-width="0.5" stroke="black" fill="grey"/>
  <circle cx="39.5836" cy="268.459" r="4.34054" stroke-width="0.5" stroke="grey" fill="grey"/>
   </g>
   <g id="cell159">
  <circle cx="64.4368" cy="252.66" r="7.61631" stroke-width="0.5" stroke="black" fill="grey"/>
  <circle cx="64.4368" cy="252.66" r="3.57126" stroke-width="0.5" stroke="grey" fill="grey"/>
   </g>
   <g id="cell171">
  <circle cx="51.9027" cy="354.643" r="8.38482" stroke-width="0.5" stroke="black" fill="grey"/>
  <circle cx="51.9027" cy="354.643" r="5.00509" stroke-width="0.5" stroke="grey" fill="grey"/>
   </g>
   <g id="cell175">
  <circle cx="160.656" cy="163.333" r="8.04736" stroke-width="0.5" stroke="black" fill="grey"/>
  <circle cx="160.656" cy="163.333" r="4.41652" stroke-width="0.5" stroke="grey" fill="grey"/>
   </g>
   <g id="cell178">
  <circle cx="93.8105" cy="147.621" r="8.38723" stroke-width="0.5" stroke="black" fill="grey"/>
  <circle cx="93.8105" cy="147.621" r="5.00912" stroke-width="0.5" stroke="grey" fill="grey"/>
   </g>
   <g id="cell179">
  <circle cx="128.207" cy="252.3" r="3.57493" stroke-width="0.5" stroke="black" fill="grey"/>
   </g>
   <g id="cell182">
  <circle cx="185.856" cy="198.441" r="8.32476" stroke-width="0.5" stroke="black" fill="grey"/>
  <circle cx="185.856" cy="198.441" r="4.9038" stroke-width="0.5" stroke="grey" fill="grey"/>
   </g>
   <g id="cell195">
  <circle cx="81.871" cy="131.688" r="7.00974" stroke-width="0.5" stroke="black" fill="grey"/>
  <circle cx="81.871" cy="131.688" r="1.97033" stroke-width="0.5" stroke="grey" fill="grey"/>
   </g>
   <g id="cell196">
  <circle cx="111.793" cy="210.677" r="8.25656" stroke-width="0.5" stroke="black" fill="grey"/>
  <circle cx="111.793" cy="210.677" r="4.78712" stroke-width="0.5" stroke="grey" fill="grey"/>
   </g>
   <g id="cell199">
  <circle cx="56.0836" cy="177.55" r="4.96038" stroke-width="0.5" stroke="black" fill="grey"/>
   </g>
   <g id="cell207">
  <circle cx="47.7406" cy="240.571" r="7.31946" stroke-width="0.5" stroke="black" fill="grey"/>
  <circle cx="47.7406" cy="240.571" r="2.88448" stroke-width="0.5" stroke="grey" fill="grey"/>
   </g>
   <g id="cell227">
  <circle cx="105.683" cy="344.504" r="7.30064" stroke-width="0.5" stroke="black" fill="grey"/>
  <circle cx="105.683" cy="344.504" r="2.83639" stroke-width="0.5" stroke="grey" fill="grey"/>
   </g>
   <g id="cell251">
  <circle cx="48.3437" cy="321.746" r="5.99107" stroke-width="0.5" stroke="black" fill="grey"/>
   </g>
   <g id="cell255">
  <circle cx="156.366" cy="136.605" r="7.93232" stroke-width="0.5" stroke="black" fill="grey"/>
  <circle cx="156.366" cy="136.605" r="4.20325" stroke-width="0.5" stroke="grey" fill="grey"/>
   </g>
   <g id="cell262">
  <circle cx="235.006" cy="158.723" r="3.26539" stroke-width="0.5" stroke="black" fill="grey"/>
   </g>
   <g id="cell264">
  <circle cx="209.394" cy="239.842" r="8.41255" stroke-width="0.5" stroke="black" fill="grey"/>
  <circle cx="209.394" cy="239.842" r="5.0514" stroke-width="0.5" stroke="grey" fill="grey"/>
   </g>
   <g id="cell271">
  <circle cx="19.1434" cy="252.26" r="7.85068" stroke-width="0.5" stroke="black" fill="grey"/>
  <circle cx="19.1434" cy="252.26" r="4.04708" stroke-width="0.5" stroke="grey" fill="grey"/>
   </g>
   <g id="cell286">
  <circle cx="123.386" cy="158.755" r="6.22392" stroke-width="0.5" stroke="black" fill="grey"/>
   </g>
   <g id="cell288">
  <circle cx="99.1543" cy="111.398" r="8.3521" stroke-width="0.5" stroke="black" fill="grey"/>
  <circle cx="99.1543" cy="111.398" r="4.95007" stroke-width="0.5" stroke="grey" fill="grey"/>
   </g>
   <g id="cell289">
  <circle cx="101.14" cy="218.895" r="7.35202" stroke-width="0.5" stroke="black" fill="grey"/>
  <circle cx="101.14" cy="218.895" r="2.96613" stroke-width="0.5" stroke="grey" fill="grey"/>
   </g>
   <g id="cell306">
  <circle cx="268.839" cy="225.741" r="8.41251" stroke-width="0.5" stroke="black" fill="grey"/>
  <circle cx="268.839" cy="225.741" r="5.05134" stroke-width="0.5" stroke="grey" fill="grey"/>
   </g>
   <g id="cell317">
  <circle cx="115.428" cy="387.589" r="7.647" stroke-width="0.5" stroke="black" fill="grey"/>
  <circle cx="115.428" cy="387.589" r="3.63625" stroke-width="0.5" stroke="grey" fill="grey"/>
   </g>
   <g id="cell339">
  <circle cx="107.084" cy="267.234" r="7.95528" stroke-width="0.5" stroke="black" fill="grey"/>
  <circle cx="107.084" cy="267.234" r="4.24643" stroke-width="0.5" stroke="grey" fill="grey"/>
   </g>
   <g id="cell369">
  <circle cx="81.1681" cy="315.135" r="4.74882" stroke-width="0.5" stroke="black" fill="grey"/>
   </g>
   <g id="cell382">
  <circle cx="133.777" cy="191.028" r="7.32298" stroke-width="0.5" stroke="black" fill="grey"/>
  <circle cx="133.777" cy="191.028" r="2.89339" stroke-width="0.5" stroke="grey" fill="grey"/>
   </g>
   <g id="cell445">
  <circle cx="94.5349" cy="171.568" r="7.03943" stroke-width="0.5" stroke="black" fill="grey"/>
  <circle cx="94.5349" cy="171.568" r="2.07345" stroke-width="0.5" stroke="grey" fill="grey"/>
   </g>
   <g id="cell511">
  <circle cx="265.581" cy="181.355" r="7.85877" stroke-width="0.5" stroke="black" fill="red"/>
  <circle cx="265.581" cy="181.355" r="4.06275" stroke-width="0.5" stroke="red" fill="red"/>
   </g>
   <g id="cell558">
  <circle cx="272.669" cy="242.407" r="6.97867" stroke-width="0.5" stroke="black" fill="red"/>
  <circle cx="272.669" cy="242.407" r="1.85674" stroke-width="0.5" stroke="red" fill="red"/>
   </g>
   <g id="cell562">
  <circle cx="170.737" cy="247.893" r="5.99482" stroke-width="0.5" stroke="black" fill="red"/>
   </g>
   <g id="cell566">
  <circle cx="184.421" cy="213.947" r="7.1596" stroke-width="0.5" stroke="black" fill="red"/>
  <circle cx="184.421" cy="213.947" r="2.45062" stroke-width="0.5" stroke="red" fill="red"/>
   </g>
   <g id="cell569">
  <circle cx="250.848" cy="117.193" r="8.4045" stroke-width="0.5" stroke="black" fill="red"/>
  <circle cx="250.848" cy="117.193" r="5.03799" stroke-width="0.5" stroke="red" fill="red"/>
   </g>
   <g id="cell605">
  <circle cx="354.722" cy="212.824" r="5.94087" stroke-width="0.5" stroke="black" fill="red"/>
   </g>
   <g id="cell606">
  <circle cx="323.463" cy="249.88" r="4.45853" stroke-width="0.5" stroke="black" fill="red"/>
   </g>
   <g id="cell616">
  <circle cx="318.134" cy="244.076" r="5.91268" stroke-width="0.5" stroke="black" fill="red"/>
   </g>
   <g id="cell619">
  <circle cx="170.605" cy="126.799" r="4.98505" stroke-width="0.5" stroke="black" fill="red"/>
   </g>
   <g id="cell624">
  <circle cx="274.331" cy="145.756" r="0.963756" stroke-width="0.5" stroke="black" fill="red"/>
   </g>
   <g id="cell633">
  <circle cx="243.775" cy="289.315" r="4.27937" stroke-width="0.5" stroke="black" fill="red"/>
   </g>
   <g id="cell642">
  <circle cx="285.961" cy="213.442" r="8.36363" stroke-width="0.5" stroke="black" fill="red"/>
  <circle cx="285.961" cy="213.442" r="4.9695" stroke-width="0.5" stroke="red" fill="red"/>
   </g>
   <g id="cell649">
  <circle cx="360.067" cy="168.33" r="6.27625" stroke-width="0.5" stroke="black" fill="red"/>
   </g>
   <g id="cell654">
  <circle cx="299.881" cy="76.0347" r="6.09118" stroke-width="0.5" stroke="black" fill="red"/>
   </g>
   <g id="cell655">
  <circle cx="287.291" cy="236.876" r="4.28989" stroke-width="0.5" stroke="black" fill="red"/>
   </g>
   <g id="cell657">
  <circle cx="307.137" cy="136.43" r="7.36777" stroke-width="0.5" stroke="black" fill="red"/>
  <circle cx="307.137" cy="136.43" r="3.00494" stroke-width="0.5" stroke="red" fill="red"/>
   </g>
   <g id="cell678">
  <circle cx="296.128" cy="148.926" r="7.97179" stroke-width="0.5" stroke="black" fill="red"/>
  <circle cx="296.128" cy="148.926" r="4.27728" stroke-width="0.5" stroke="red" fill="red"/>
   </g>
   <g id="cell687">
  <circle cx="229.908" cy="88.9328" r="3.76499" stroke-width="0.5" stroke="black" fill="red"/>
   </g>
   <g id="cell688">
  <circle cx="210.047" cy="215.871" r="7.31156" stroke-width="0.5" stroke="black" fill="red"/>
  <circle cx="210.047" cy="215.871" r="2.86438" stroke-width="0.5" stroke="red" fill="red"/>
   </g>
   <g id="cell689">
  <circle cx="196.954" cy="123.566" r="8.38194" stroke-width="0.5" stroke="black" fill="red"/>
  <circle cx="196.954" cy="123.566" r="5.00025" stroke-width="0.5" stroke="red" fill="red"/>
   </g>
   <g id="cell742">
  <circle cx="321.686" cy="112.31" r="6.25879" stroke-width="0.5" stroke="black" fill="red"/>
   </g>
   <g id="cell744">
  <circle cx="261.982" cy="109.099" r="4.6892" stroke-width="0.5" stroke="black" fill="red"/>
   </g>
   <g id="cell750">
  <circle cx="349.503" cy="82.4277" r="8.37563" stroke-width="0.5" stroke="black" fill="red"/>
  <circle cx="349.503" cy="82.4277" r="4.98967" stroke-width="0.5" stroke="red" fill="red"/>
   </g>
   <g id="cell767">
  <circle cx="235.045" cy="102.836" r="7.63074" stroke-width="0.5" stroke="black" fill="red"/>
  <circle cx="235.045" cy="102.836" r="3.60193" stroke-width="0.5" stroke="red" fill="red"/>
   </g>
   <g id="cell777">
  <circle cx="271.544" cy="256.874" r="6.20631" stroke-width="0.5" stroke="black" fill="red"/>
   </g>
   <g id="cell780">
  <circle cx="278.033" cy="238.752" r="1.71348" stroke-width="0.5" stroke="black" fill="red"/>
   </g>
   <g id="cell788">
  <circle cx="239.729" cy="145.752" r="6.17473" stroke-width="0.5" stroke="black" fill="red"/>
   </g>
   <g id="cell819">
  <circle cx="340.452" cy="210.046" r="8.19334" stroke-width="0.5" stroke="black" fill="red"/>
  <circle cx="340.452" cy="210.046" r="4.67723" stroke-width="0.5" stroke="red" fill="red"/>
   </g>
   <g id="cell821">
  <circle cx="383.716" cy="257.696" r="3.52563" stroke-width="0.5" stroke="black" fill="red"/>
   </g>
   <g id="cell822">
  <circle cx="384.401" cy="129.543" r="6.23241" stroke-width="0.5" stroke="black" fill="red"/>
   </g>
   <g id="cell834">
  <circle cx="196.145" cy="204.661" r="4.13847" stroke-width="0.5" stroke="black" fill="red"/>
   </g>
   <g id="cell838">
  <circle cx="278.086" cy="87.1306" r="7.49535" stroke-width="0.5" stroke="black" fill="red"/>
  <circle cx="278.086" cy="87.1306" r="3.30545" stroke-width="0.5" stroke="red" fill="red"/>
   </g>
   <g id="cell900">
  <circle cx="301.627" cy="286.158" r="3.88475" stroke-width="0.5" stroke="black" fill="red"/>
   </g>
   <g id="cell948">
  <circle cx="214.028" cy="166.26" r="8.1373" stroke-width="0.5" stroke="black" fill="red"/>
  <circle cx="214.028" cy="166.26" r="4.57836" stroke-width="0.5" stroke="red" fill="red"/>
   </g>
  </g>
 </g>
  <rect x="190" y="414" width="200" height="4" stroke-width="0.8" stroke="rgb(255,255,255)" fill="rgb(0,0,0)"/>
  <text x="192.5" y="411.5"
   font-family="Arial" font-size="10" fill="black" >
   200 &#956;m
  </text>
  <text x="10" y="418"
   font-family="Arial" font-size="7.5" fill="black" >
   0 days, 0 hours, 22 minutes, and 2.9358 seconds
  </text>
  <rect x="0" y="28" width="400" height="400" stroke-width="0.8" stroke="rgb(0,0,0)" fill="none"/>
</svg>
