<?xml version="1.0" encoding="UTF-8" standalone="no"?>
<!-- Created with PhysiCell (http://PhysiCell.MathCancer.org/) -->
<svg 
 xmlns:dc="http://purl.org/dc/elements/1.1/" 
 xmlns:cc="http://creativecommons.org/ns#" 
 xmlns:rdf="http://www.w3.org/1999/02/22-rdf-syntax-ns#" 
 xmlns:svg="http://www.w3.org/2000/svg" 
 xmlns="http://www.w3.org/2000/svg" 
 version="1.1" 
 width="400" 
 height="428" 
 id="svg2">
  <rect x="0" y="0" width="400" height="428" stroke-width="0.8" stroke="white" fill="white"/>
  <text x="5" y="12"
   font-family="Arial" font-size="10" fill="black" >
   Current time: 4 days, 14 hours, and 0.00 minutes, z = 0.00 &#956;m
  </text>
  <text x="5" y="23"
   font-family="Arial" font-size="9.5" fill="black" >
   978 agents
  </text>
 <g id="tissue" 
    transform="translate(0,428) scale(1,-1)">
  <g id="ECM">
  </g>
  <g id="cells">
   <g id="cell36">
  <circle cx="12.783" cy="215.336" r="8.10156" stroke-width="0.5" stroke="black" fill="grey"/>
  <circle cx="12.783" cy="215.336" r="4.51453" stroke-width="0.5" stroke="grey" fill="grey"/>
   </g>
   <g id="cell48">
  <circle cx="232.686" cy="109.84" r="1.79382" stroke-width="0.5" stroke="black" fill="grey"/>
   </g>
   <g id="cell81">
  <circle cx="96.8389" cy="30.5363" r="8.30715" stroke-width="0.5" stroke="black" fill="grey"/>
  <circle cx="96.8389" cy="30.5363" r="4.87384" stroke-width="0.5" stroke="grey" fill="grey"/>
   </g>
   <g id="cell90">
  <circle cx="102.616" cy="146.763" r="8.09399" stroke-width="0.5" stroke="black" fill="grey"/>
  <circle cx="102.616" cy="146.763" r="4.50092" stroke-width="0.5" stroke="grey" fill="grey"/>
   </g>
   <g id="cell93">
  <circle cx="32.4745" cy="235.859" r="6.62978" stroke-width="0.5" stroke="black" fill="grey"/>
   </g>
   <g id="cell129">
  <circle cx="104.845" cy="170.866" r="6.0855" stroke-width="0.5" stroke="black" fill="grey"/>
   </g>
   <g id="cell131">
  <circle cx="39.1138" cy="168.768" r="5.76734" stroke-width="0.5" stroke="black" fill="grey"/>
   </g>
   <g id="cell145">
  <circle cx="130.469" cy="201.277" r="5.07653" stroke-width="0.5" stroke="black" fill="grey"/>
   </g>
   <g id="cell163">
  <circle cx="112.584" cy="322.672" r="6.5648" stroke-width="0.5" stroke="black" fill="grey"/>
   </g>
   <g id="cell165">
  <circle cx="190.38" cy="168.944" r="2.68074" stroke-width="0.5" stroke="black" fill="grey"/>
   </g>
   <g id="cell178">
  <circle cx="108.32" cy="95.3787" r="8.1598" stroke-width="0.5" stroke="black" fill="grey"/>
  <circle cx="108.32" cy="95.3787" r="4.61823" stroke-width="0.5" stroke="grey" fill="grey"/>
   </g>
   <g id="cell181">
  <circle cx="171.893" cy="67.488" r="6.65737" stroke-width="0.5" stroke="black" fill="grey"/>
   </g>
   <g id="cell207">
  <circle cx="12.1719" cy="243.614" r="8.41224" stroke-width="0.5" stroke="black" fill="grey"/>
  <circle cx="12.1719" cy="243.614" r="5.05088" stroke-width="0.5" stroke="grey" fill="grey"/>
   </g>
   <g id="cell216">
  <circle cx="125.941" cy="224.778" r="7.52787" stroke-width="0.5" stroke="black" fill="grey"/>
  <circle cx="125.941" cy="224.778" r="3.37854" stroke-width="0.5" stroke="grey" fill="grey"/>
   </g>
   <g id="cell224">
  <circle cx="122.98" cy="278.236" r="6.30948" stroke-width="0.5" stroke="black" fill="grey"/>
   </g>
   <g id="cell236">
  <circle cx="187.731" cy="107.03" r="7.53512" stroke-width="0.5" stroke="black" fill="grey"/>
  <circle cx="187.731" cy="107.03" r="3.39465" stroke-width="0.5" stroke="grey" fill="grey"/>
   </g>
   <g id="cell259">
  <circle cx="208.497" cy="336.395" r="5.65207" stroke-width="0.5" stroke="black" fill="grey"/>
   </g>
   <g id="cell264">
  <circle cx="185.865" cy="245.008" r="6.44342" stroke-width="0.5" stroke="black" fill="grey"/>
   </g>
   <g id="cell279">
  <circle cx="88.8313" cy="185.262" r="6.52911" stroke-width="0.5" stroke="black" fill="grey"/>
   </g>
   <g id="cell286">
  <circle cx="85.8561" cy="126.679" r="5.4476" stroke-width="0.5" stroke="black" fill="grey"/>
   </g>
   <g id="cell287">
  <circle cx="25.2499" cy="142.628" r="8.19118" stroke-width="0.5" stroke="black" fill="grey"/>
  <circle cx="25.2499" cy="142.628" r="4.67345" stroke-width="0.5" stroke="grey" fill="grey"/>
   </g>
   <g id="cell306">
  <circle cx="251.308" cy="221.09" r="7.18294" stroke-width="0.5" stroke="black" fill="grey"/>
  <circle cx="251.308" cy="221.09" r="2.51798" stroke-width="0.5" stroke="grey" fill="grey"/>
   </g>
   <g id="cell309">
  <circle cx="170.102" cy="253.61" r="8.40858" stroke-width="0.5" stroke="black" fill="grey"/>
  <circle cx="170.102" cy="253.61" r="5.0448" stroke-width="0.5" stroke="grey" fill="grey"/>
   </g>
   <g id="cell322">
  <circle cx="166.468" cy="226.607" r="6.6348" stroke-width="0.5" stroke="black" fill="grey"/>
   </g>
   <g id="cell328">
  <circle cx="210.131" cy="194.744" r="4.91641" stroke-width="0.5" stroke="black" fill="grey"/>
   </g>
   <g id="cell329">
  <circle cx="134.892" cy="166.318" r="8.18323" stroke-width="0.5" stroke="black" fill="grey"/>
  <circle cx="134.892" cy="166.318" r="4.6595" stroke-width="0.5" stroke="grey" fill="grey"/>
   </g>
   <g id="cell341">
  <circle cx="60.624" cy="130.124" r="7.30784" stroke-width="0.5" stroke="black" fill="grey"/>
  <circle cx="60.624" cy="130.124" r="2.85487" stroke-width="0.5" stroke="grey" fill="grey"/>
   </g>
   <g id="cell347">
  <circle cx="132.87" cy="66.0628" r="6.14988" stroke-width="0.5" stroke="black" fill="grey"/>
   </g>
   <g id="cell363">
  <circle cx="78.0707" cy="345.717" r="6.41569" stroke-width="0.5" stroke="black" fill="grey"/>
   </g>
   <g id="cell382">
  <circle cx="159.447" cy="192.393" r="3.29903" stroke-width="0.5" stroke="black" fill="grey"/>
   </g>
   <g id="cell388">
  <circle cx="240.14" cy="83.0595" r="4.93505" stroke-width="0.5" stroke="black" fill="grey"/>
   </g>
   <g id="cell396">
  <circle cx="239.651" cy="123.97" r="6.71097" stroke-width="0.5" stroke="black" fill="grey"/>
   </g>
   <g id="cell397">
  <circle cx="137.099" cy="336.599" r="6.97056" stroke-width="0.5" stroke="black" fill="grey"/>
  <circle cx="137.099" cy="336.599" r="1.82604" stroke-width="0.5" stroke="grey" fill="grey"/>
   </g>
   <g id="cell402">
  <circle cx="23.9972" cy="258.554" r="7.57913" stroke-width="0.5" stroke="black" fill="grey"/>
  <circle cx="23.9972" cy="258.554" r="3.49127" stroke-width="0.5" stroke="grey" fill="grey"/>
   </g>
   <g id="cell459">
  <circle cx="132.924" cy="146.728" r="6.17746" stroke-width="0.5" stroke="black" fill="grey"/>
   </g>
   <g id="cell527">
  <circle cx="253.462" cy="166.635" r="6.38088" stroke-width="0.5" stroke="black" fill="red"/>
   </g>
   <g id="cell637">
  <circle cx="197.801" cy="150.197" r="4.52304" stroke-width="0.5" stroke="black" fill="red"/>
   </g>
   <g id="cell649">
  <circle cx="392.33" cy="175.697" r="7.2651" stroke-width="0.5" stroke="black" fill="red"/>
  <circle cx="392.33" cy="175.697" r="2.7436" stroke-width="0.5" stroke="red" fill="red"/>
   </g>
   <g id="cell699">
  <circle cx="233.749" cy="285.162" r="8.38759" stroke-width="0.5" stroke="black" fill="red"/>
  <circle cx="233.749" cy="285.162" r="5.00973" stroke-width="0.5" stroke="red" fill="red"/>
   </g>
   <g id="cell708">
  <circle cx="303.641" cy="192.225" r="8.20239" stroke-width="0.5" stroke="black" fill="red"/>
  <circle cx="303.641" cy="192.225" r="4.69308" stroke-width="0.5" stroke="red" fill="red"/>
   </g>
   <g id="cell726">
  <circle cx="273.024" cy="28.243" r="8.22871" stroke-width="0.5" stroke="black" fill="red"/>
  <circle cx="273.024" cy="28.243" r="4.73892" stroke-width="0.5" stroke="red" fill="red"/>
   </g>
   <g id="cell757">
  <circle cx="244.18" cy="191.695" r="8.11263" stroke-width="0.5" stroke="black" fill="red"/>
  <circle cx="244.18" cy="191.695" r="4.53437" stroke-width="0.5" stroke="red" fill="red"/>
   </g>
   <g id="cell767">
  <circle cx="236.366" cy="96.5199" r="8.40855" stroke-width="0.5" stroke="black" fill="red"/>
  <circle cx="236.366" cy="96.5199" r="5.04473" stroke-width="0.5" stroke="red" fill="red"/>
   </g>
   <g id="cell768">
  <circle cx="204.63" cy="216.23" r="8.39934" stroke-width="0.5" stroke="black" fill="red"/>
  <circle cx="204.63" cy="216.23" r="5.02938" stroke-width="0.5" stroke="red" fill="red"/>
   </g>
   <g id="cell800">
  <circle cx="329.489" cy="52.4764" r="7.75345" stroke-width="0.5" stroke="black" fill="red"/>
  <circle cx="329.489" cy="52.4764" r="3.85508" stroke-width="0.5" stroke="red" fill="red"/>
   </g>
   <g id="cell812">
  <circle cx="310.167" cy="138.155" r="8.12688" stroke-width="0.5" stroke="black" fill="red"/>
  <circle cx="310.167" cy="138.155" r="4.55981" stroke-width="0.5" stroke="red" fill="red"/>
   </g>
   <g id="cell821">
  <circle cx="383.927" cy="241.507" r="7.12472" stroke-width="0.5" stroke="black" fill="red"/>
  <circle cx="383.927" cy="241.507" r="2.34675" stroke-width="0.5" stroke="red" fill="red"/>
   </g>
   <g id="cell831">
  <circle cx="168.801" cy="215.861" r="6.18197" stroke-width="0.5" stroke="black" fill="red"/>
   </g>
   <g id="cell834">
  <circle cx="160.79" cy="174.593" r="7.59421" stroke-width="0.5" stroke="black" fill="red"/>
  <circle cx="160.79" cy="174.593" r="3.52387" stroke-width="0.5" stroke="red" fill="red"/>
   </g>
   <g id="cell835">
  <circle cx="203.886" cy="252.8" r="7.9955" stroke-width="0.5" stroke="black" fill="red"/>
  <circle cx="203.886" cy="252.8" r="4.3213" stroke-width="0.5" stroke="red" fill="red"/>
   </g>
   <g id="cell847">
  <circle cx="223.425" cy="235.915" r="4.31408" stroke-width="0.5" stroke="black" fill="red"/>
   </g>
   <g id="cell861">
  <circle cx="177.22" cy="135.699" r="7.30916" stroke-width="0.5" stroke="black" fill="red"/>
  <circle cx="177.22" cy="135.699" r="2.85824" stroke-width="0.5" stroke="red" fill="red"/>
   </g>
   <g id="cell894">
  <circle cx="188.696" cy="45.1945" r="5.37561" stroke-width="0.5" stroke="black" fill="red"/>
   </g>
   <g id="cell905">
  <circle cx="142.185" cy="273.462" r="6.45001" stroke-width="0.5" stroke="black" fill="red"/>
   </g>
   <g id="cell917">
  <circle cx="323.067" cy="136.831" r="3.15284" stroke-width="0.5" stroke="black" fill="red"/>
   </g>
   <g id="cell920">
  <circle cx="273.802" cy="191.825" r="8.36139" stroke-width="0.5" stroke="black" fill="red"/>
  <circle cx="273.802" cy="191.825" r="4.96574" stroke-width="0.5" stroke="red" fill="red"/>
   </g>
   <g id="cell923">
  <circle cx="278.528" cy="266.561" r="6.5623" stroke-width="0.5" stroke="black" fill="red"/>
   </g>
   <g id="cell944">
  <circle cx="324.407" cy="141.036" r="2.92746" stroke-width="0.5" stroke="black" fill="red"/>
   </g>
  </g>
 </g>
  <rect x="190" y="414" width="200" height="4" stroke-width="0.8" stroke="rgb(255,255,255)" fill="rgb(0,0,0)"/>
  <text x="192.5" y="411.5"
   font-family="Arial" font-size="10" fill="black" >
   200 &#956;m
  </text>
  <text x="10" y="418"
   font-family="Arial" font-size="7.5" fill="black" >
   0 days, 0 hours, 29 minutes, and 18.6076 seconds
  </text>
  <rect x="0" y="28" width="400" height="400" stroke-width="0.8" stroke="rgb(0,0,0)" fill="none"/>
</svg>
