<?xml version="1.0" encoding="UTF-8" standalone="no"?>
<!-- Created with PhysiCell (http://PhysiCell.MathCancer.org/) -->
<svg 
 xmlns:dc="http://purl.org/dc/elements/1.1/" 
 xmlns:cc="http://creativecommons.org/ns#" 
 xmlns:rdf="http://www.w3.org/1999/02/22-rdf-syntax-ns#" 
 xmlns:svg="http://www.w3.org/2000/svg" 
 xmlns="http://www.w3.org/2000/svg" 
 version="1.1" 
 width="400" 
 height="428" 
 id="svg2">
  <rect x="0" y="0" width="400" height="428" stroke-width="0.8" stroke="white" fill="white"/>
  <text x="5" y="12"
   font-family="Arial" font-size="10" fill="black" >
   Current time: 0 days, 9 hours, and 0.00 minutes, z = 0.00 &#956;m
  </text>
  <text x="5" y="23"
   font-family="Arial" font-size="9.5" fill="black" >
   978 agents
  </text>
 <g id="tissue" 
    transform="translate(0,428) scale(1,-1)">
  <g id="ECM">
  </g>
  <g id="cells">
   <g id="cell25">
  <circle cx="71.3514" cy="167.151" r="4.91381" stroke-width="0.5" stroke="black" fill="grey"/>
   </g>
   <g id="cell69">
  <circle cx="45.7333" cy="183.068" r="4.90242" stroke-width="0.5" stroke="black" fill="grey"/>
   </g>
   <g id="cell96">
  <circle cx="141.881" cy="97.3584" r="2.77106" stroke-width="0.5" stroke="black" fill="grey"/>
   </g>
   <g id="cell129">
  <circle cx="66.7461" cy="186.246" r="6.12242" stroke-width="0.5" stroke="black" fill="grey"/>
   </g>
   <g id="cell141">
  <circle cx="96.2939" cy="155.248" r="5.10192" stroke-width="0.5" stroke="black" fill="grey"/>
   </g>
   <g id="cell145">
  <circle cx="107.609" cy="232.768" r="6.5856" stroke-width="0.5" stroke="black" fill="grey"/>
   </g>
   <g id="cell149">
  <circle cx="129.014" cy="159.935" r="8.15324" stroke-width="0.5" stroke="black" fill="grey"/>
  <circle cx="129.014" cy="159.935" r="4.60663" stroke-width="0.5" stroke="grey" fill="grey"/>
   </g>
   <g id="cell150">
  <circle cx="114.834" cy="206.784" r="2.10532" stroke-width="0.5" stroke="black" fill="grey"/>
   </g>
   <g id="cell151">
  <circle cx="96.3502" cy="202.975" r="7.05476" stroke-width="0.5" stroke="black" fill="grey"/>
  <circle cx="96.3502" cy="202.975" r="2.12492" stroke-width="0.5" stroke="grey" fill="grey"/>
   </g>
   <g id="cell152">
  <circle cx="119.991" cy="228.355" r="8.28338" stroke-width="0.5" stroke="black" fill="grey"/>
  <circle cx="119.991" cy="228.355" r="4.83322" stroke-width="0.5" stroke="grey" fill="grey"/>
   </g>
   <g id="cell165">
  <circle cx="149.121" cy="146.643" r="6.94101" stroke-width="0.5" stroke="black" fill="grey"/>
  <circle cx="149.121" cy="146.643" r="1.70978" stroke-width="0.5" stroke="grey" fill="grey"/>
   </g>
   <g id="cell166">
  <circle cx="123.853" cy="131.934" r="2.77076" stroke-width="0.5" stroke="black" fill="grey"/>
   </g>
   <g id="cell172">
  <circle cx="114.196" cy="115.243" r="8.3745" stroke-width="0.5" stroke="black" fill="grey"/>
  <circle cx="114.196" cy="115.243" r="4.98779" stroke-width="0.5" stroke="grey" fill="grey"/>
   </g>
   <g id="cell174">
  <circle cx="152.991" cy="165.939" r="5.81523" stroke-width="0.5" stroke="black" fill="grey"/>
   </g>
   <g id="cell175">
  <circle cx="141.258" cy="172.956" r="6.33989" stroke-width="0.5" stroke="black" fill="grey"/>
   </g>
   <g id="cell184">
  <circle cx="174.842" cy="210.475" r="8.09894" stroke-width="0.5" stroke="black" fill="grey"/>
  <circle cx="174.842" cy="210.475" r="4.50983" stroke-width="0.5" stroke="grey" fill="grey"/>
   </g>
   <g id="cell189">
  <circle cx="167.69" cy="171.521" r="7.65696" stroke-width="0.5" stroke="black" fill="grey"/>
  <circle cx="167.69" cy="171.521" r="3.65715" stroke-width="0.5" stroke="grey" fill="grey"/>
   </g>
   <g id="cell202">
  <circle cx="50.9875" cy="228.248" r="7.6917" stroke-width="0.5" stroke="black" fill="grey"/>
  <circle cx="50.9875" cy="228.248" r="3.72933" stroke-width="0.5" stroke="grey" fill="grey"/>
   </g>
   <g id="cell203">
  <circle cx="49.4162" cy="243.73" r="7.34691" stroke-width="0.5" stroke="black" fill="grey"/>
  <circle cx="49.4162" cy="243.73" r="2.95343" stroke-width="0.5" stroke="grey" fill="grey"/>
   </g>
   <g id="cell204">
  <circle cx="69.6487" cy="139.292" r="8.08516" stroke-width="0.5" stroke="black" fill="grey"/>
  <circle cx="69.6487" cy="139.292" r="4.48503" stroke-width="0.5" stroke="grey" fill="grey"/>
   </g>
   <g id="cell209">
  <circle cx="66.6341" cy="242.253" r="8.39341" stroke-width="0.5" stroke="black" fill="grey"/>
  <circle cx="66.6341" cy="242.253" r="5.01946" stroke-width="0.5" stroke="grey" fill="grey"/>
   </g>
   <g id="cell215">
  <circle cx="82.0229" cy="184.283" r="7.33254" stroke-width="0.5" stroke="black" fill="grey"/>
  <circle cx="82.0229" cy="184.283" r="2.9175" stroke-width="0.5" stroke="grey" fill="grey"/>
   </g>
   <g id="cell216">
  <circle cx="99.5258" cy="219.036" r="3.86675" stroke-width="0.5" stroke="black" fill="grey"/>
   </g>
   <g id="cell217">
  <circle cx="91.1358" cy="230.188" r="6.88412" stroke-width="0.5" stroke="black" fill="grey"/>
  <circle cx="91.1358" cy="230.188" r="1.4618" stroke-width="0.5" stroke="grey" fill="grey"/>
   </g>
   <g id="cell218">
  <circle cx="84.4041" cy="251.94" r="6.19856" stroke-width="0.5" stroke="black" fill="grey"/>
   </g>
   <g id="cell222">
  <circle cx="119.498" cy="185.974" r="2.31658" stroke-width="0.5" stroke="black" fill="grey"/>
   </g>
   <g id="cell223">
  <circle cx="115.604" cy="203.391" r="4.34213" stroke-width="0.5" stroke="black" fill="grey"/>
   </g>
   <g id="cell227">
  <circle cx="97.2575" cy="298.021" r="3.37506" stroke-width="0.5" stroke="black" fill="grey"/>
   </g>
   <g id="cell232">
  <circle cx="143.284" cy="203.705" r="5.77102" stroke-width="0.5" stroke="black" fill="grey"/>
   </g>
   <g id="cell238">
  <circle cx="164.723" cy="140.691" r="0.450032" stroke-width="0.5" stroke="black" fill="grey"/>
   </g>
   <g id="cell239">
  <circle cx="147.088" cy="194.511" r="7.50866" stroke-width="0.5" stroke="black" fill="grey"/>
  <circle cx="147.088" cy="194.511" r="3.33551" stroke-width="0.5" stroke="grey" fill="grey"/>
   </g>
   <g id="cell241">
  <circle cx="148.957" cy="231.661" r="7.31016" stroke-width="0.5" stroke="black" fill="grey"/>
  <circle cx="148.957" cy="231.661" r="2.8608" stroke-width="0.5" stroke="grey" fill="grey"/>
   </g>
   <g id="cell243">
  <circle cx="169.865" cy="254.455" r="4.39888" stroke-width="0.5" stroke="black" fill="grey"/>
   </g>
   <g id="cell245">
  <circle cx="182.802" cy="165.926" r="7.673" stroke-width="0.5" stroke="black" fill="grey"/>
  <circle cx="182.802" cy="165.926" r="3.69061" stroke-width="0.5" stroke="grey" fill="grey"/>
   </g>
   <g id="cell249">
  <circle cx="172.605" cy="240.562" r="4.08024" stroke-width="0.5" stroke="black" fill="grey"/>
   </g>
   <g id="cell250">
  <circle cx="156.407" cy="245.006" r="7.23404" stroke-width="0.5" stroke="black" fill="grey"/>
  <circle cx="156.407" cy="245.006" r="2.66026" stroke-width="0.5" stroke="grey" fill="grey"/>
   </g>
   <g id="cell256">
  <circle cx="175.116" cy="195.462" r="6.17846" stroke-width="0.5" stroke="black" fill="grey"/>
   </g>
   <g id="cell257">
  <circle cx="171.774" cy="225.763" r="7.63305" stroke-width="0.5" stroke="black" fill="grey"/>
  <circle cx="171.774" cy="225.763" r="3.60682" stroke-width="0.5" stroke="grey" fill="grey"/>
   </g>
   <g id="cell261">
  <circle cx="198.164" cy="159.62" r="7.92053" stroke-width="0.5" stroke="black" fill="grey"/>
  <circle cx="198.164" cy="159.62" r="4.18097" stroke-width="0.5" stroke="grey" fill="grey"/>
   </g>
   <g id="cell269">
  <circle cx="75.8551" cy="197.981" r="7.42872" stroke-width="0.5" stroke="black" fill="grey"/>
  <circle cx="75.8551" cy="197.981" r="3.15143" stroke-width="0.5" stroke="grey" fill="grey"/>
   </g>
   <g id="cell277">
  <circle cx="71.927" cy="255.604" r="7.73243" stroke-width="0.5" stroke="black" fill="grey"/>
  <circle cx="71.927" cy="255.604" r="3.81263" stroke-width="0.5" stroke="grey" fill="grey"/>
   </g>
   <g id="cell279">
  <circle cx="79.7936" cy="158.041" r="8.40902" stroke-width="0.5" stroke="black" fill="grey"/>
  <circle cx="79.7936" cy="158.041" r="5.04552" stroke-width="0.5" stroke="grey" fill="grey"/>
   </g>
   <g id="cell281">
  <circle cx="114.912" cy="158.912" r="3.01535" stroke-width="0.5" stroke="black" fill="grey"/>
   </g>
   <g id="cell283">
  <circle cx="82.7181" cy="235.311" r="5.34154" stroke-width="0.5" stroke="black" fill="grey"/>
   </g>
   <g id="cell286">
  <circle cx="98.3128" cy="119.887" r="8.40906" stroke-width="0.5" stroke="black" fill="grey"/>
  <circle cx="98.3128" cy="119.887" r="5.04558" stroke-width="0.5" stroke="grey" fill="grey"/>
   </g>
   <g id="cell288">
  <circle cx="107.531" cy="174.618" r="8.4127" stroke-width="0.5" stroke="black" fill="grey"/>
  <circle cx="107.531" cy="174.618" r="5.05165" stroke-width="0.5" stroke="grey" fill="grey"/>
   </g>
   <g id="cell291">
  <circle cx="114.614" cy="246.232" r="8.27328" stroke-width="0.5" stroke="black" fill="grey"/>
  <circle cx="114.614" cy="246.232" r="4.81589" stroke-width="0.5" stroke="grey" fill="grey"/>
   </g>
   <g id="cell292">
  <circle cx="97.965" cy="261.356" r="8.39322" stroke-width="0.5" stroke="black" fill="grey"/>
  <circle cx="97.965" cy="261.356" r="5.01914" stroke-width="0.5" stroke="grey" fill="grey"/>
   </g>
   <g id="cell298">
  <circle cx="128.768" cy="210.186" r="7.06717" stroke-width="0.5" stroke="black" fill="grey"/>
  <circle cx="128.768" cy="210.186" r="2.16576" stroke-width="0.5" stroke="grey" fill="grey"/>
   </g>
   <g id="cell299">
  <circle cx="131.531" cy="231.245" r="6.83494" stroke-width="0.5" stroke="black" fill="grey"/>
  <circle cx="131.531" cy="231.245" r="1.20915" stroke-width="0.5" stroke="grey" fill="grey"/>
   </g>
   <g id="cell301">
  <circle cx="128.717" cy="265.888" r="8.22482" stroke-width="0.5" stroke="black" fill="grey"/>
  <circle cx="128.717" cy="265.888" r="4.73217" stroke-width="0.5" stroke="grey" fill="grey"/>
   </g>
   <g id="cell306">
  <circle cx="161.681" cy="194.672" r="7.69429" stroke-width="0.5" stroke="black" fill="grey"/>
  <circle cx="161.681" cy="194.672" r="3.73467" stroke-width="0.5" stroke="grey" fill="grey"/>
   </g>
   <g id="cell307">
  <circle cx="140.882" cy="222.904" r="8.08662" stroke-width="0.5" stroke="black" fill="grey"/>
  <circle cx="140.882" cy="222.904" r="4.48767" stroke-width="0.5" stroke="grey" fill="grey"/>
   </g>
   <g id="cell308">
  <circle cx="135.755" cy="242.921" r="7.30444" stroke-width="0.5" stroke="black" fill="grey"/>
  <circle cx="135.755" cy="242.921" r="2.84614" stroke-width="0.5" stroke="grey" fill="grey"/>
   </g>
   <g id="cell311">
  <circle cx="166.522" cy="119.485" r="6.6222" stroke-width="0.5" stroke="black" fill="grey"/>
   </g>
   <g id="cell315">
  <circle cx="153.094" cy="181.833" r="7.74543" stroke-width="0.5" stroke="black" fill="grey"/>
  <circle cx="153.094" cy="181.833" r="3.83892" stroke-width="0.5" stroke="grey" fill="grey"/>
   </g>
   <g id="cell316">
  <circle cx="160.392" cy="222.475" r="6.94339" stroke-width="0.5" stroke="black" fill="grey"/>
  <circle cx="160.392" cy="222.475" r="1.7194" stroke-width="0.5" stroke="grey" fill="grey"/>
   </g>
   <g id="cell318">
  <circle cx="143.189" cy="281.328" r="6.38622" stroke-width="0.5" stroke="black" fill="grey"/>
   </g>
   <g id="cell320">
  <circle cx="174.367" cy="129.628" r="8.40593" stroke-width="0.5" stroke="black" fill="grey"/>
  <circle cx="174.367" cy="129.628" r="5.04037" stroke-width="0.5" stroke="grey" fill="grey"/>
   </g>
   <g id="cell321">
  <circle cx="172.361" cy="152.727" r="7.26119" stroke-width="0.5" stroke="black" fill="grey"/>
  <circle cx="172.361" cy="152.727" r="2.73322" stroke-width="0.5" stroke="grey" fill="grey"/>
   </g>
   <g id="cell323">
  <circle cx="160.94" cy="210.439" r="7.38348" stroke-width="0.5" stroke="black" fill="grey"/>
  <circle cx="160.94" cy="210.439" r="3.04326" stroke-width="0.5" stroke="grey" fill="grey"/>
   </g>
   <g id="cell344">
  <circle cx="80.5901" cy="211.885" r="5.18003" stroke-width="0.5" stroke="black" fill="grey"/>
   </g>
   <g id="cell353">
  <circle cx="113.798" cy="261.893" r="7.18684" stroke-width="0.5" stroke="black" fill="grey"/>
  <circle cx="113.798" cy="261.893" r="2.52911" stroke-width="0.5" stroke="grey" fill="grey"/>
   </g>
   <g id="cell363">
  <circle cx="118.1" cy="277.854" r="8.37274" stroke-width="0.5" stroke="black" fill="grey"/>
  <circle cx="118.1" cy="277.854" r="4.98483" stroke-width="0.5" stroke="grey" fill="grey"/>
   </g>
   <g id="cell368">
  <circle cx="103.996" cy="189.781" r="8.03692" stroke-width="0.5" stroke="black" fill="grey"/>
  <circle cx="103.996" cy="189.781" r="4.39748" stroke-width="0.5" stroke="grey" fill="grey"/>
   </g>
   <g id="cell369">
  <circle cx="148.726" cy="249.296" r="2.95746" stroke-width="0.5" stroke="black" fill="grey"/>
   </g>
   <g id="cell388">
  <circle cx="179.861" cy="142.264" r="7.9756" stroke-width="0.5" stroke="black" fill="grey"/>
  <circle cx="179.861" cy="142.264" r="4.28437" stroke-width="0.5" stroke="grey" fill="grey"/>
   </g>
   <g id="cell390">
  <circle cx="179.655" cy="181.101" r="8.40775" stroke-width="0.5" stroke="black" fill="grey"/>
  <circle cx="179.655" cy="181.101" r="5.04341" stroke-width="0.5" stroke="grey" fill="grey"/>
   </g>
   <g id="cell419">
  <circle cx="93.8185" cy="277.06" r="7.87788" stroke-width="0.5" stroke="black" fill="grey"/>
  <circle cx="93.8185" cy="277.06" r="4.0996" stroke-width="0.5" stroke="grey" fill="grey"/>
   </g>
   <g id="cell537">
  <circle cx="294.347" cy="151.26" r="7.97334" stroke-width="0.5" stroke="black" fill="red"/>
  <circle cx="294.347" cy="151.26" r="4.28017" stroke-width="0.5" stroke="red" fill="red"/>
   </g>
   <g id="cell615">
  <circle cx="350.673" cy="184.581" r="8.13875" stroke-width="0.5" stroke="black" fill="red"/>
  <circle cx="350.673" cy="184.581" r="4.58093" stroke-width="0.5" stroke="red" fill="red"/>
   </g>
   <g id="cell625">
  <circle cx="201.237" cy="172.861" r="8.3107" stroke-width="0.5" stroke="black" fill="red"/>
  <circle cx="201.237" cy="172.861" r="4.8799" stroke-width="0.5" stroke="red" fill="red"/>
   </g>
   <g id="cell632">
  <circle cx="241.914" cy="178.172" r="8.22207" stroke-width="0.5" stroke="black" fill="red"/>
  <circle cx="241.914" cy="178.172" r="4.72738" stroke-width="0.5" stroke="red" fill="red"/>
   </g>
   <g id="cell635">
  <circle cx="238.944" cy="269.252" r="6.67676" stroke-width="0.5" stroke="black" fill="red"/>
   </g>
   <g id="cell646">
  <circle cx="295.311" cy="162.556" r="4.16345" stroke-width="0.5" stroke="black" fill="red"/>
   </g>
   <g id="cell647">
  <circle cx="282.143" cy="174.539" r="5.75111" stroke-width="0.5" stroke="black" fill="red"/>
   </g>
   <g id="cell648">
  <circle cx="285.89" cy="204.667" r="5.11832" stroke-width="0.5" stroke="black" fill="red"/>
   </g>
   <g id="cell649">
  <circle cx="267.871" cy="207.759" r="2.0911" stroke-width="0.5" stroke="black" fill="red"/>
   </g>
   <g id="cell656">
  <circle cx="293.626" cy="184.812" r="3.18051" stroke-width="0.5" stroke="black" fill="red"/>
   </g>
   <g id="cell669">
  <circle cx="332.818" cy="146.931" r="7.76364" stroke-width="0.5" stroke="black" fill="red"/>
  <circle cx="332.818" cy="146.931" r="3.87555" stroke-width="0.5" stroke="red" fill="red"/>
   </g>
   <g id="cell672">
  <circle cx="303.078" cy="185.869" r="5.85907" stroke-width="0.5" stroke="black" fill="red"/>
   </g>
   <g id="cell677">
  <circle cx="316.402" cy="136.773" r="6.82601" stroke-width="0.5" stroke="black" fill="red"/>
  <circle cx="316.402" cy="136.773" r="1.15764" stroke-width="0.5" stroke="red" fill="red"/>
   </g>
   <g id="cell685">
  <circle cx="201.787" cy="220.05" r="8.05636" stroke-width="0.5" stroke="black" fill="red"/>
  <circle cx="201.787" cy="220.05" r="4.43291" stroke-width="0.5" stroke="red" fill="red"/>
   </g>
   <g id="cell686">
  <circle cx="207.537" cy="248.93" r="8.3414" stroke-width="0.5" stroke="black" fill="red"/>
  <circle cx="207.537" cy="248.93" r="4.932" stroke-width="0.5" stroke="red" fill="red"/>
   </g>
   <g id="cell694">
  <circle cx="249.816" cy="155.075" r="8.41231" stroke-width="0.5" stroke="black" fill="red"/>
  <circle cx="249.816" cy="155.075" r="5.05101" stroke-width="0.5" stroke="red" fill="red"/>
   </g>
   <g id="cell695">
  <circle cx="253.339" cy="182.336" r="7.00884" stroke-width="0.5" stroke="black" fill="red"/>
  <circle cx="253.339" cy="182.336" r="1.96712" stroke-width="0.5" stroke="red" fill="red"/>
   </g>
   <g id="cell702">
  <circle cx="251.676" cy="197.588" r="7.81704" stroke-width="0.5" stroke="black" fill="red"/>
  <circle cx="251.676" cy="197.588" r="3.98142" stroke-width="0.5" stroke="red" fill="red"/>
   </g>
   <g id="cell703">
  <circle cx="216.134" cy="174.134" r="7.19875" stroke-width="0.5" stroke="black" fill="red"/>
  <circle cx="216.134" cy="174.134" r="2.56274" stroke-width="0.5" stroke="red" fill="red"/>
   </g>
   <g id="cell712">
  <circle cx="237.715" cy="216.426" r="6.86965" stroke-width="0.5" stroke="black" fill="red"/>
  <circle cx="237.715" cy="216.426" r="1.39205" stroke-width="0.5" stroke="red" fill="red"/>
   </g>
   <g id="cell717">
  <circle cx="259.344" cy="123.802" r="2.8059" stroke-width="0.5" stroke="black" fill="red"/>
   </g>
   <g id="cell720">
  <circle cx="279.928" cy="186.85" r="8.30738" stroke-width="0.5" stroke="black" fill="red"/>
  <circle cx="279.928" cy="186.85" r="4.87424" stroke-width="0.5" stroke="red" fill="red"/>
   </g>
   <g id="cell721">
  <circle cx="276.411" cy="223.337" r="8.23893" stroke-width="0.5" stroke="black" fill="red"/>
  <circle cx="276.411" cy="223.337" r="4.75664" stroke-width="0.5" stroke="red" fill="red"/>
   </g>
   <g id="cell724">
  <circle cx="269.21" cy="272.451" r="2.46898" stroke-width="0.5" stroke="black" fill="red"/>
   </g>
   <g id="cell725">
  <circle cx="273.137" cy="105.039" r="8.20869" stroke-width="0.5" stroke="black" fill="red"/>
  <circle cx="273.137" cy="105.039" r="4.70407" stroke-width="0.5" stroke="red" fill="red"/>
   </g>
   <g id="cell735">
  <circle cx="276.616" cy="136.062" r="4.99474" stroke-width="0.5" stroke="black" fill="red"/>
   </g>
   <g id="cell737">
  <circle cx="307.475" cy="217.391" r="5.60716" stroke-width="0.5" stroke="black" fill="red"/>
   </g>
   <g id="cell738">
  <circle cx="319.382" cy="199.784" r="7.40273" stroke-width="0.5" stroke="black" fill="red"/>
  <circle cx="319.382" cy="199.784" r="3.08968" stroke-width="0.5" stroke="red" fill="red"/>
   </g>
   <g id="cell739">
  <circle cx="324.541" cy="221.384" r="6.35018" stroke-width="0.5" stroke="black" fill="red"/>
   </g>
   <g id="cell740">
  <circle cx="300.105" cy="263.926" r="5.25207" stroke-width="0.5" stroke="black" fill="red"/>
   </g>
   <g id="cell744">
  <circle cx="331.466" cy="183.509" r="6.16971" stroke-width="0.5" stroke="black" fill="red"/>
   </g>
   <g id="cell746">
  <circle cx="338.979" cy="223.578" r="7.92318" stroke-width="0.5" stroke="black" fill="red"/>
  <circle cx="338.979" cy="223.578" r="4.18598" stroke-width="0.5" stroke="red" fill="red"/>
   </g>
   <g id="cell747">
  <circle cx="325.529" cy="244.176" r="2.17221" stroke-width="0.5" stroke="black" fill="red"/>
   </g>
   <g id="cell751">
  <circle cx="355.871" cy="200.145" r="8.20542" stroke-width="0.5" stroke="black" fill="red"/>
  <circle cx="355.871" cy="200.145" r="4.69836" stroke-width="0.5" stroke="red" fill="red"/>
   </g>
   <g id="cell753">
  <circle cx="368.904" cy="234.326" r="8.41139" stroke-width="0.5" stroke="black" fill="red"/>
  <circle cx="368.904" cy="234.326" r="5.04948" stroke-width="0.5" stroke="red" fill="red"/>
   </g>
   <g id="cell761">
  <circle cx="199.13" cy="137.369" r="8.39213" stroke-width="0.5" stroke="black" fill="red"/>
  <circle cx="199.13" cy="137.369" r="5.01733" stroke-width="0.5" stroke="red" fill="red"/>
   </g>
   <g id="cell762">
  <circle cx="222.458" cy="161.345" r="8.39872" stroke-width="0.5" stroke="black" fill="red"/>
  <circle cx="222.458" cy="161.345" r="5.02834" stroke-width="0.5" stroke="red" fill="red"/>
   </g>
   <g id="cell763">
  <circle cx="222.274" cy="202.742" r="8.27423" stroke-width="0.5" stroke="black" fill="red"/>
  <circle cx="222.274" cy="202.742" r="4.81753" stroke-width="0.5" stroke="red" fill="red"/>
   </g>
   <g id="cell764">
  <circle cx="225.471" cy="229.899" r="4.49382" stroke-width="0.5" stroke="black" fill="red"/>
   </g>
   <g id="cell766">
  <circle cx="222.655" cy="241.181" r="8.17138" stroke-width="0.5" stroke="black" fill="red"/>
  <circle cx="222.655" cy="241.181" r="4.63865" stroke-width="0.5" stroke="red" fill="red"/>
   </g>
   <g id="cell780">
  <circle cx="236.335" cy="238.178" r="2.66531" stroke-width="0.5" stroke="black" fill="red"/>
   </g>
   <g id="cell782">
  <circle cx="253.232" cy="268.671" r="5.61924" stroke-width="0.5" stroke="black" fill="red"/>
   </g>
   <g id="cell787">
  <circle cx="264.836" cy="171.73" r="7.61354" stroke-width="0.5" stroke="black" fill="red"/>
  <circle cx="264.836" cy="171.73" r="3.56534" stroke-width="0.5" stroke="red" fill="red"/>
   </g>
   <g id="cell788">
  <circle cx="258.105" cy="218.582" r="5.62571" stroke-width="0.5" stroke="black" fill="red"/>
   </g>
   <g id="cell789">
  <circle cx="252.667" cy="239.271" r="8.08434" stroke-width="0.5" stroke="black" fill="red"/>
  <circle cx="252.667" cy="239.271" r="4.48356" stroke-width="0.5" stroke="red" fill="red"/>
   </g>
   <g id="cell790">
  <circle cx="275.229" cy="280.668" r="4.9063" stroke-width="0.5" stroke="black" fill="red"/>
   </g>
   <g id="cell797">
  <circle cx="291.218" cy="232.02" r="5.353" stroke-width="0.5" stroke="black" fill="red"/>
   </g>
   <g id="cell805">
  <circle cx="306.952" cy="232.999" r="3.89457" stroke-width="0.5" stroke="black" fill="red"/>
   </g>
   <g id="cell807">
  <circle cx="296.237" cy="246.18" r="7.64479" stroke-width="0.5" stroke="black" fill="red"/>
  <circle cx="296.237" cy="246.18" r="3.63159" stroke-width="0.5" stroke="red" fill="red"/>
   </g>
   <g id="cell810">
  <circle cx="324.958" cy="156.802" r="3.88735" stroke-width="0.5" stroke="black" fill="red"/>
   </g>
   <g id="cell811">
  <circle cx="316.118" cy="180.994" r="8.30619" stroke-width="0.5" stroke="black" fill="red"/>
  <circle cx="316.118" cy="180.994" r="4.87221" stroke-width="0.5" stroke="red" fill="red"/>
   </g>
   <g id="cell814">
  <circle cx="308.257" cy="229.469" r="4.6927" stroke-width="0.5" stroke="black" fill="red"/>
   </g>
   <g id="cell817">
  <circle cx="332.466" cy="128.846" r="8.33856" stroke-width="0.5" stroke="black" fill="red"/>
  <circle cx="332.466" cy="128.846" r="4.9272" stroke-width="0.5" stroke="red" fill="red"/>
   </g>
   <g id="cell819">
  <circle cx="365.977" cy="169.335" r="7.42185" stroke-width="0.5" stroke="black" fill="red"/>
  <circle cx="365.977" cy="169.335" r="3.13521" stroke-width="0.5" stroke="red" fill="red"/>
   </g>
   <g id="cell820">
  <circle cx="329.184" cy="234.071" r="8.31578" stroke-width="0.5" stroke="black" fill="red"/>
  <circle cx="329.184" cy="234.071" r="4.88854" stroke-width="0.5" stroke="red" fill="red"/>
   </g>
   <g id="cell831">
  <circle cx="214.756" cy="189.26" r="8.01063" stroke-width="0.5" stroke="black" fill="red"/>
  <circle cx="214.756" cy="189.26" r="4.34923" stroke-width="0.5" stroke="red" fill="red"/>
   </g>
   <g id="cell834">
  <circle cx="238.107" cy="259.369" r="3.53185" stroke-width="0.5" stroke="black" fill="red"/>
   </g>
   <g id="cell861">
  <circle cx="289.502" cy="118.12" r="7.26784" stroke-width="0.5" stroke="black" fill="red"/>
  <circle cx="289.502" cy="118.12" r="2.75085" stroke-width="0.5" stroke="red" fill="red"/>
   </g>
   <g id="cell876">
  <circle cx="316.807" cy="256.145" r="6.43701" stroke-width="0.5" stroke="black" fill="red"/>
   </g>
   <g id="cell877">
  <circle cx="343.849" cy="110.328" r="6.5885" stroke-width="0.5" stroke="black" fill="red"/>
   </g>
  </g>
 </g>
  <rect x="190" y="414" width="200" height="4" stroke-width="0.8" stroke="rgb(255,255,255)" fill="rgb(0,0,0)"/>
  <text x="192.5" y="411.5"
   font-family="Arial" font-size="10" fill="black" >
   200 &#956;m
  </text>
  <text x="10" y="418"
   font-family="Arial" font-size="7.5" fill="black" >
   0 days, 0 hours, 2 minutes, and 0.2561 seconds
  </text>
  <rect x="0" y="28" width="400" height="400" stroke-width="0.8" stroke="rgb(0,0,0)" fill="none"/>
</svg>
