<?xml version="1.0" encoding="UTF-8" standalone="no"?>
<!-- Created with PhysiCell (http://PhysiCell.MathCancer.org/) -->
<svg 
 xmlns:dc="http://purl.org/dc/elements/1.1/" 
 xmlns:cc="http://creativecommons.org/ns#" 
 xmlns:rdf="http://www.w3.org/1999/02/22-rdf-syntax-ns#" 
 xmlns:svg="http://www.w3.org/2000/svg" 
 xmlns="http://www.w3.org/2000/svg" 
 version="1.1" 
 width="400" 
 height="428" 
 id="svg2">
  <rect x="0" y="0" width="400" height="428" stroke-width="0.8" stroke="white" fill="white"/>
  <text x="5" y="12"
   font-family="Arial" font-size="10" fill="black" >
   Current time: 3 days, 11 hours, and 0.00 minutes, z = 0.00 &#956;m
  </text>
  <text x="5" y="23"
   font-family="Arial" font-size="9.5" fill="black" >
   978 agents
  </text>
 <g id="tissue" 
    transform="translate(0,428) scale(1,-1)">
  <g id="ECM">
  </g>
  <g id="cells">
   <g id="cell4">
  <circle cx="111.93" cy="229.698" r="8.4072" stroke-width="0.5" stroke="black" fill="grey"/>
  <circle cx="111.93" cy="229.698" r="5.04248" stroke-width="0.5" stroke="grey" fill="grey"/>
   </g>
   <g id="cell6">
  <circle cx="115.807" cy="207.933" r="8.25299" stroke-width="0.5" stroke="black" fill="grey"/>
  <circle cx="115.807" cy="207.933" r="4.78095" stroke-width="0.5" stroke="grey" fill="grey"/>
   </g>
   <g id="cell7">
  <circle cx="77.9195" cy="158.321" r="7.75853" stroke-width="0.5" stroke="black" fill="grey"/>
  <circle cx="77.9195" cy="158.321" r="3.86529" stroke-width="0.5" stroke="grey" fill="grey"/>
   </g>
   <g id="cell37">
  <circle cx="205.809" cy="153.788" r="7.05505" stroke-width="0.5" stroke="black" fill="grey"/>
  <circle cx="205.809" cy="153.788" r="2.12588" stroke-width="0.5" stroke="grey" fill="grey"/>
   </g>
   <g id="cell41">
  <circle cx="58.4238" cy="130.877" r="8.2398" stroke-width="0.5" stroke="black" fill="grey"/>
  <circle cx="58.4238" cy="130.877" r="4.75815" stroke-width="0.5" stroke="grey" fill="grey"/>
   </g>
   <g id="cell58">
  <circle cx="201.398" cy="288.342" r="5.67011" stroke-width="0.5" stroke="black" fill="grey"/>
   </g>
   <g id="cell59">
  <circle cx="56.2812" cy="220.634" r="3.01021" stroke-width="0.5" stroke="black" fill="grey"/>
   </g>
   <g id="cell71">
  <circle cx="84.5651" cy="218.338" r="7.34232" stroke-width="0.5" stroke="black" fill="grey"/>
  <circle cx="84.5651" cy="218.338" r="2.94198" stroke-width="0.5" stroke="grey" fill="grey"/>
   </g>
   <g id="cell87">
  <circle cx="53.4685" cy="240.196" r="6.53293" stroke-width="0.5" stroke="black" fill="grey"/>
   </g>
   <g id="cell104">
  <circle cx="131.35" cy="174.106" r="8.04399" stroke-width="0.5" stroke="black" fill="grey"/>
  <circle cx="131.35" cy="174.106" r="4.41037" stroke-width="0.5" stroke="grey" fill="grey"/>
   </g>
   <g id="cell139">
  <circle cx="47.0812" cy="269.109" r="6.19812" stroke-width="0.5" stroke="black" fill="grey"/>
   </g>
   <g id="cell142">
  <circle cx="110.861" cy="149.768" r="8.03343" stroke-width="0.5" stroke="black" fill="grey"/>
  <circle cx="110.861" cy="149.768" r="4.3911" stroke-width="0.5" stroke="grey" fill="grey"/>
   </g>
   <g id="cell166">
  <circle cx="174.211" cy="124.238" r="7.84135" stroke-width="0.5" stroke="black" fill="grey"/>
  <circle cx="174.211" cy="124.238" r="4.02895" stroke-width="0.5" stroke="grey" fill="grey"/>
   </g>
   <g id="cell171">
  <circle cx="47.3507" cy="351.518" r="8.26982" stroke-width="0.5" stroke="black" fill="grey"/>
  <circle cx="47.3507" cy="351.518" r="4.80995" stroke-width="0.5" stroke="grey" fill="grey"/>
   </g>
   <g id="cell190">
  <circle cx="213.307" cy="81.261" r="4.74509" stroke-width="0.5" stroke="black" fill="grey"/>
   </g>
   <g id="cell195">
  <circle cx="74.0294" cy="143.265" r="8.38299" stroke-width="0.5" stroke="black" fill="grey"/>
  <circle cx="74.0294" cy="143.265" r="5.00202" stroke-width="0.5" stroke="grey" fill="grey"/>
   </g>
   <g id="cell246">
  <circle cx="128.23" cy="36.0421" r="7.43867" stroke-width="0.5" stroke="black" fill="grey"/>
  <circle cx="128.23" cy="36.0421" r="3.17483" stroke-width="0.5" stroke="grey" fill="grey"/>
   </g>
   <g id="cell275">
  <circle cx="19.1467" cy="179.574" r="3.42302" stroke-width="0.5" stroke="black" fill="grey"/>
   </g>
   <g id="cell279">
  <circle cx="108.018" cy="193.388" r="7.24482" stroke-width="0.5" stroke="black" fill="grey"/>
  <circle cx="108.018" cy="193.388" r="2.68945" stroke-width="0.5" stroke="grey" fill="grey"/>
   </g>
   <g id="cell289">
  <circle cx="101.092" cy="207.68" r="8.3989" stroke-width="0.5" stroke="black" fill="grey"/>
  <circle cx="101.092" cy="207.68" r="5.02865" stroke-width="0.5" stroke="grey" fill="grey"/>
   </g>
   <g id="cell310">
  <circle cx="182.122" cy="347.351" r="4.74378" stroke-width="0.5" stroke="black" fill="grey"/>
   </g>
   <g id="cell312">
  <circle cx="233.196" cy="160.576" r="7.43941" stroke-width="0.5" stroke="black" fill="grey"/>
  <circle cx="233.196" cy="160.576" r="3.17654" stroke-width="0.5" stroke="grey" fill="grey"/>
   </g>
   <g id="cell339">
  <circle cx="107.551" cy="281.474" r="5.18095" stroke-width="0.5" stroke="black" fill="grey"/>
   </g>
   <g id="cell359">
  <circle cx="160.932" cy="250.991" r="7.33529" stroke-width="0.5" stroke="black" fill="grey"/>
  <circle cx="160.932" cy="250.991" r="2.9244" stroke-width="0.5" stroke="grey" fill="grey"/>
   </g>
   <g id="cell375">
  <circle cx="157.351" cy="172.332" r="6.58486" stroke-width="0.5" stroke="black" fill="grey"/>
   </g>
   <g id="cell382">
  <circle cx="136.706" cy="196.241" r="8.32374" stroke-width="0.5" stroke="black" fill="grey"/>
  <circle cx="136.706" cy="196.241" r="4.90207" stroke-width="0.5" stroke="grey" fill="grey"/>
   </g>
   <g id="cell395">
  <circle cx="185.596" cy="195.249" r="7.76278" stroke-width="0.5" stroke="black" fill="grey"/>
  <circle cx="185.596" cy="195.249" r="3.87381" stroke-width="0.5" stroke="grey" fill="grey"/>
   </g>
   <g id="cell397">
  <circle cx="131.241" cy="256.504" r="7.88364" stroke-width="0.5" stroke="black" fill="grey"/>
  <circle cx="131.241" cy="256.504" r="4.11066" stroke-width="0.5" stroke="grey" fill="grey"/>
   </g>
   <g id="cell402">
  <circle cx="35.5685" cy="250.4" r="8.3333" stroke-width="0.5" stroke="black" fill="grey"/>
  <circle cx="35.5685" cy="250.4" r="4.9183" stroke-width="0.5" stroke="grey" fill="grey"/>
   </g>
   <g id="cell404">
  <circle cx="77.5856" cy="255.067" r="5.15434" stroke-width="0.5" stroke="black" fill="grey"/>
   </g>
   <g id="cell445">
  <circle cx="94.7898" cy="175.585" r="8.41186" stroke-width="0.5" stroke="black" fill="grey"/>
  <circle cx="94.7898" cy="175.585" r="5.05026" stroke-width="0.5" stroke="grey" fill="grey"/>
   </g>
   <g id="cell455">
  <circle cx="118.462" cy="183.726" r="7.74464" stroke-width="0.5" stroke="black" fill="grey"/>
  <circle cx="118.462" cy="183.726" r="3.83734" stroke-width="0.5" stroke="grey" fill="grey"/>
   </g>
   <g id="cell497">
  <circle cx="342.275" cy="188.417" r="8.33878" stroke-width="0.5" stroke="black" fill="red"/>
  <circle cx="342.275" cy="188.417" r="4.92758" stroke-width="0.5" stroke="red" fill="red"/>
   </g>
   <g id="cell550">
  <circle cx="360.829" cy="186.01" r="8.36269" stroke-width="0.5" stroke="black" fill="red"/>
  <circle cx="360.829" cy="186.01" r="4.96792" stroke-width="0.5" stroke="red" fill="red"/>
   </g>
   <g id="cell558">
  <circle cx="289.802" cy="279.498" r="7.42733" stroke-width="0.5" stroke="black" fill="red"/>
  <circle cx="289.802" cy="279.498" r="3.14817" stroke-width="0.5" stroke="red" fill="red"/>
   </g>
   <g id="cell562">
  <circle cx="178.09" cy="252.298" r="8.27554" stroke-width="0.5" stroke="black" fill="red"/>
  <circle cx="178.09" cy="252.298" r="4.81977" stroke-width="0.5" stroke="red" fill="red"/>
   </g>
   <g id="cell566">
  <circle cx="188.74" cy="218.912" r="8.29314" stroke-width="0.5" stroke="black" fill="red"/>
  <circle cx="188.74" cy="218.912" r="4.84993" stroke-width="0.5" stroke="red" fill="red"/>
   </g>
   <g id="cell569">
  <circle cx="237.409" cy="128.512" r="6.41121" stroke-width="0.5" stroke="black" fill="red"/>
   </g>
   <g id="cell601">
  <circle cx="343.518" cy="119.217" r="7.0457" stroke-width="0.5" stroke="black" fill="red"/>
  <circle cx="343.518" cy="119.217" r="2.09466" stroke-width="0.5" stroke="red" fill="red"/>
   </g>
   <g id="cell605">
  <circle cx="351.928" cy="208.498" r="8.16238" stroke-width="0.5" stroke="black" fill="red"/>
  <circle cx="351.928" cy="208.498" r="4.62279" stroke-width="0.5" stroke="red" fill="red"/>
   </g>
   <g id="cell626">
  <circle cx="203.293" cy="206.58" r="6.69972" stroke-width="0.5" stroke="black" fill="red"/>
   </g>
   <g id="cell633">
  <circle cx="258.612" cy="281.04" r="7.90332" stroke-width="0.5" stroke="black" fill="red"/>
  <circle cx="258.612" cy="281.04" r="4.14827" stroke-width="0.5" stroke="red" fill="red"/>
   </g>
   <g id="cell636">
  <circle cx="299.028" cy="73.5151" r="8.39918" stroke-width="0.5" stroke="black" fill="red"/>
  <circle cx="299.028" cy="73.5151" r="5.02911" stroke-width="0.5" stroke="red" fill="red"/>
   </g>
   <g id="cell643">
  <circle cx="290.243" cy="242.047" r="5.45824" stroke-width="0.5" stroke="black" fill="red"/>
   </g>
   <g id="cell652">
  <circle cx="215.495" cy="265.97" r="5.73703" stroke-width="0.5" stroke="black" fill="red"/>
   </g>
   <g id="cell678">
  <circle cx="312.171" cy="158.19" r="6.9501" stroke-width="0.5" stroke="black" fill="red"/>
  <circle cx="312.171" cy="158.19" r="1.7463" stroke-width="0.5" stroke="red" fill="red"/>
   </g>
   <g id="cell687">
  <circle cx="235.7" cy="89.9001" r="8.17097" stroke-width="0.5" stroke="black" fill="red"/>
  <circle cx="235.7" cy="89.9001" r="4.63794" stroke-width="0.5" stroke="red" fill="red"/>
   </g>
   <g id="cell702">
  <circle cx="157.361" cy="212.474" r="6.3271" stroke-width="0.5" stroke="black" fill="red"/>
   </g>
   <g id="cell711">
  <circle cx="286.355" cy="204.081" r="6.17774" stroke-width="0.5" stroke="black" fill="red"/>
   </g>
   <g id="cell728">
  <circle cx="312.05" cy="78.8181" r="8.39938" stroke-width="0.5" stroke="black" fill="red"/>
  <circle cx="312.05" cy="78.8181" r="5.02944" stroke-width="0.5" stroke="red" fill="red"/>
   </g>
   <g id="cell739">
  <circle cx="325.373" cy="217.474" r="3.51577" stroke-width="0.5" stroke="black" fill="red"/>
   </g>
   <g id="cell742">
  <circle cx="329.287" cy="99.3337" r="7.03085" stroke-width="0.5" stroke="black" fill="red"/>
  <circle cx="329.287" cy="99.3337" r="2.04414" stroke-width="0.5" stroke="red" fill="red"/>
   </g>
   <g id="cell744">
  <circle cx="264.91" cy="118.287" r="8.02331" stroke-width="0.5" stroke="black" fill="red"/>
  <circle cx="264.91" cy="118.287" r="4.37255" stroke-width="0.5" stroke="red" fill="red"/>
   </g>
   <g id="cell750">
  <circle cx="341.318" cy="90.4471" r="8.4024" stroke-width="0.5" stroke="black" fill="red"/>
  <circle cx="341.318" cy="90.4471" r="5.03448" stroke-width="0.5" stroke="red" fill="red"/>
   </g>
   <g id="cell767">
  <circle cx="213.754" cy="114.453" r="6.5619" stroke-width="0.5" stroke="black" fill="red"/>
   </g>
   <g id="cell778">
  <circle cx="259.646" cy="217.674" r="2.08111" stroke-width="0.5" stroke="black" fill="red"/>
   </g>
   <g id="cell780">
  <circle cx="269.171" cy="224.682" r="7.82922" stroke-width="0.5" stroke="black" fill="red"/>
  <circle cx="269.171" cy="224.682" r="4.0053" stroke-width="0.5" stroke="red" fill="red"/>
   </g>
   <g id="cell787">
  <circle cx="274.898" cy="216.101" r="2.38671" stroke-width="0.5" stroke="black" fill="red"/>
   </g>
   <g id="cell788">
  <circle cx="249.647" cy="139.528" r="8.30903" stroke-width="0.5" stroke="black" fill="red"/>
  <circle cx="249.647" cy="139.528" r="4.87705" stroke-width="0.5" stroke="red" fill="red"/>
   </g>
   <g id="cell817">
  <circle cx="336.726" cy="136.27" r="8.33104" stroke-width="0.5" stroke="black" fill="red"/>
  <circle cx="336.726" cy="136.27" r="4.91445" stroke-width="0.5" stroke="red" fill="red"/>
   </g>
   <g id="cell819">
  <circle cx="341.38" cy="218.172" r="7.41443" stroke-width="0.5" stroke="black" fill="red"/>
  <circle cx="341.38" cy="218.172" r="3.1176" stroke-width="0.5" stroke="red" fill="red"/>
   </g>
   <g id="cell898">
  <circle cx="246.85" cy="178.875" r="8.30016" stroke-width="0.5" stroke="black" fill="red"/>
  <circle cx="246.85" cy="178.875" r="4.86193" stroke-width="0.5" stroke="red" fill="red"/>
   </g>
   <g id="cell899">
  <circle cx="240.907" cy="325.867" r="7.04737" stroke-width="0.5" stroke="black" fill="red"/>
  <circle cx="240.907" cy="325.867" r="2.10027" stroke-width="0.5" stroke="red" fill="red"/>
   </g>
   <g id="cell944">
  <circle cx="277.754" cy="147.03" r="8.29514" stroke-width="0.5" stroke="black" fill="red"/>
  <circle cx="277.754" cy="147.03" r="4.85336" stroke-width="0.5" stroke="red" fill="red"/>
   </g>
   <g id="cell948">
  <circle cx="198.819" cy="168.786" r="7.1198" stroke-width="0.5" stroke="black" fill="red"/>
  <circle cx="198.819" cy="168.786" r="2.33178" stroke-width="0.5" stroke="red" fill="red"/>
   </g>
   <g id="cell967">
  <circle cx="219.011" cy="213.76" r="6.47274" stroke-width="0.5" stroke="black" fill="red"/>
   </g>
   <g id="cell971">
  <circle cx="253.092" cy="210.693" r="8.03976" stroke-width="0.5" stroke="black" fill="red"/>
  <circle cx="253.092" cy="210.693" r="4.40266" stroke-width="0.5" stroke="red" fill="red"/>
   </g>
  </g>
 </g>
  <rect x="190" y="414" width="200" height="4" stroke-width="0.8" stroke="rgb(255,255,255)" fill="rgb(0,0,0)"/>
  <text x="192.5" y="411.5"
   font-family="Arial" font-size="10" fill="black" >
   200 &#956;m
  </text>
  <text x="10" y="418"
   font-family="Arial" font-size="7.5" fill="black" >
   0 days, 0 hours, 23 minutes, and 2.8170 seconds
  </text>
  <rect x="0" y="28" width="400" height="400" stroke-width="0.8" stroke="rgb(0,0,0)" fill="none"/>
</svg>
