<?xml version="1.0" encoding="UTF-8" standalone="no"?>
<!-- Created with PhysiCell (http://PhysiCell.MathCancer.org/) -->
<svg 
 xmlns:dc="http://purl.org/dc/elements/1.1/" 
 xmlns:cc="http://creativecommons.org/ns#" 
 xmlns:rdf="http://www.w3.org/1999/02/22-rdf-syntax-ns#" 
 xmlns:svg="http://www.w3.org/2000/svg" 
 xmlns="http://www.w3.org/2000/svg" 
 version="1.1" 
 width="400" 
 height="428" 
 id="svg2">
  <rect x="0" y="0" width="400" height="428" stroke-width="0.8" stroke="white" fill="white"/>
  <text x="5" y="12"
   font-family="Arial" font-size="10" fill="black" >
   Current time: 2 days, 19 hours, and 0.00 minutes, z = 0.00 &#956;m
  </text>
  <text x="5" y="23"
   font-family="Arial" font-size="9.5" fill="black" >
   978 agents
  </text>
 <g id="tissue" 
    transform="translate(0,428) scale(1,-1)">
  <g id="ECM">
  </g>
  <g id="cells">
   <g id="cell4">
  <circle cx="136.046" cy="233.665" r="7.54833" stroke-width="0.5" stroke="black" fill="grey"/>
  <circle cx="136.046" cy="233.665" r="3.42389" stroke-width="0.5" stroke="grey" fill="grey"/>
   </g>
   <g id="cell35">
  <circle cx="171.441" cy="170.526" r="4.50252" stroke-width="0.5" stroke="black" fill="grey"/>
   </g>
   <g id="cell71">
  <circle cx="94.9396" cy="190.161" r="3.95201" stroke-width="0.5" stroke="black" fill="grey"/>
   </g>
   <g id="cell88">
  <circle cx="149.464" cy="71.1346" r="8.04393" stroke-width="0.5" stroke="black" fill="grey"/>
  <circle cx="149.464" cy="71.1346" r="4.41027" stroke-width="0.5" stroke="grey" fill="grey"/>
   </g>
   <g id="cell124">
  <circle cx="122.845" cy="276.232" r="8.39625" stroke-width="0.5" stroke="black" fill="grey"/>
  <circle cx="122.845" cy="276.232" r="5.02421" stroke-width="0.5" stroke="grey" fill="grey"/>
   </g>
   <g id="cell141">
  <circle cx="88.8398" cy="103.381" r="7.6298" stroke-width="0.5" stroke="black" fill="grey"/>
  <circle cx="88.8398" cy="103.381" r="3.59993" stroke-width="0.5" stroke="grey" fill="grey"/>
   </g>
   <g id="cell171">
  <circle cx="49.8088" cy="351.672" r="7.60658" stroke-width="0.5" stroke="black" fill="grey"/>
  <circle cx="49.8088" cy="351.672" r="3.55046" stroke-width="0.5" stroke="grey" fill="grey"/>
   </g>
   <g id="cell174">
  <circle cx="141.083" cy="202.263" r="8.35536" stroke-width="0.5" stroke="black" fill="grey"/>
  <circle cx="141.083" cy="202.263" r="4.95558" stroke-width="0.5" stroke="grey" fill="grey"/>
   </g>
   <g id="cell199">
  <circle cx="40.4018" cy="183.998" r="2.91462" stroke-width="0.5" stroke="black" fill="grey"/>
   </g>
   <g id="cell204">
  <circle cx="52.7977" cy="175.06" r="8.33485" stroke-width="0.5" stroke="black" fill="grey"/>
  <circle cx="52.7977" cy="175.06" r="4.92092" stroke-width="0.5" stroke="grey" fill="grey"/>
   </g>
   <g id="cell205">
  <circle cx="8.49017" cy="157.124" r="6.69889" stroke-width="0.5" stroke="black" fill="grey"/>
   </g>
   <g id="cell218">
  <circle cx="60.4644" cy="278.867" r="7.79205" stroke-width="0.5" stroke="black" fill="grey"/>
  <circle cx="60.4644" cy="278.867" r="3.93214" stroke-width="0.5" stroke="grey" fill="grey"/>
   </g>
   <g id="cell226">
  <circle cx="80.9352" cy="303.13" r="4.60209" stroke-width="0.5" stroke="black" fill="grey"/>
   </g>
   <g id="cell229">
  <circle cx="165.795" cy="97.0486" r="6.65084" stroke-width="0.5" stroke="black" fill="grey"/>
   </g>
   <g id="cell230">
  <circle cx="71.3822" cy="112.925" r="3.55052" stroke-width="0.5" stroke="black" fill="grey"/>
   </g>
   <g id="cell231">
  <circle cx="156.933" cy="193.312" r="5.18919" stroke-width="0.5" stroke="black" fill="grey"/>
   </g>
   <g id="cell232">
  <circle cx="105.18" cy="202.693" r="7.13387" stroke-width="0.5" stroke="black" fill="grey"/>
  <circle cx="105.18" cy="202.693" r="2.3744" stroke-width="0.5" stroke="grey" fill="grey"/>
   </g>
   <g id="cell242">
  <circle cx="47.5601" cy="218.224" r="7.09909" stroke-width="0.5" stroke="black" fill="grey"/>
  <circle cx="47.5601" cy="218.224" r="2.26776" stroke-width="0.5" stroke="grey" fill="grey"/>
   </g>
   <g id="cell255">
  <circle cx="149.102" cy="123.189" r="4.35573" stroke-width="0.5" stroke="black" fill="grey"/>
   </g>
   <g id="cell300">
  <circle cx="160.229" cy="270.182" r="8.26531" stroke-width="0.5" stroke="black" fill="grey"/>
  <circle cx="160.229" cy="270.182" r="4.8022" stroke-width="0.5" stroke="grey" fill="grey"/>
   </g>
   <g id="cell301">
  <circle cx="143.317" cy="251.004" r="8.34667" stroke-width="0.5" stroke="black" fill="grey"/>
  <circle cx="143.317" cy="251.004" r="4.94091" stroke-width="0.5" stroke="grey" fill="grey"/>
   </g>
   <g id="cell309">
  <circle cx="173.071" cy="202.162" r="8.0033" stroke-width="0.5" stroke="black" fill="grey"/>
  <circle cx="173.071" cy="202.162" r="4.33572" stroke-width="0.5" stroke="grey" fill="grey"/>
   </g>
   <g id="cell310">
  <circle cx="158.108" cy="328.939" r="8.19682" stroke-width="0.5" stroke="black" fill="grey"/>
  <circle cx="158.108" cy="328.939" r="4.68333" stroke-width="0.5" stroke="grey" fill="grey"/>
   </g>
   <g id="cell328">
  <circle cx="171.573" cy="137.216" r="4.97944" stroke-width="0.5" stroke="black" fill="grey"/>
   </g>
   <g id="cell346">
  <circle cx="47.5426" cy="288.483" r="7.55491" stroke-width="0.5" stroke="black" fill="grey"/>
  <circle cx="47.5426" cy="288.483" r="3.43836" stroke-width="0.5" stroke="grey" fill="grey"/>
   </g>
   <g id="cell359">
  <circle cx="172.232" cy="218.076" r="8.31275" stroke-width="0.5" stroke="black" fill="grey"/>
  <circle cx="172.232" cy="218.076" r="4.88339" stroke-width="0.5" stroke="grey" fill="grey"/>
   </g>
   <g id="cell375">
  <circle cx="156.891" cy="175.329" r="7.94325" stroke-width="0.5" stroke="black" fill="grey"/>
  <circle cx="156.891" cy="175.329" r="4.22384" stroke-width="0.5" stroke="grey" fill="grey"/>
   </g>
   <g id="cell378">
  <circle cx="143.06" cy="319.366" r="8.40059" stroke-width="0.5" stroke="black" fill="grey"/>
  <circle cx="143.06" cy="319.366" r="5.03145" stroke-width="0.5" stroke="grey" fill="grey"/>
   </g>
   <g id="cell389">
  <circle cx="242.49" cy="56.0817" r="7.59955" stroke-width="0.5" stroke="black" fill="grey"/>
  <circle cx="242.49" cy="56.0817" r="3.53537" stroke-width="0.5" stroke="grey" fill="grey"/>
   </g>
   <g id="cell405">
  <circle cx="122.471" cy="167.086" r="8.40981" stroke-width="0.5" stroke="black" fill="grey"/>
  <circle cx="122.471" cy="167.086" r="5.04684" stroke-width="0.5" stroke="grey" fill="grey"/>
   </g>
   <g id="cell423">
  <circle cx="74.3219" cy="241.273" r="8.34754" stroke-width="0.5" stroke="black" fill="grey"/>
  <circle cx="74.3219" cy="241.273" r="4.94238" stroke-width="0.5" stroke="grey" fill="grey"/>
   </g>
   <g id="cell453">
  <circle cx="99.2677" cy="215.478" r="5.16093" stroke-width="0.5" stroke="black" fill="grey"/>
   </g>
   <g id="cell468">
  <circle cx="64.9347" cy="309.223" r="5.38336" stroke-width="0.5" stroke="black" fill="grey"/>
   </g>
   <g id="cell486">
  <circle cx="121.567" cy="193.039" r="8.30376" stroke-width="0.5" stroke="black" fill="grey"/>
  <circle cx="121.567" cy="193.039" r="4.86807" stroke-width="0.5" stroke="grey" fill="grey"/>
   </g>
   <g id="cell523">
  <circle cx="206.995" cy="255.851" r="8.20538" stroke-width="0.5" stroke="black" fill="red"/>
  <circle cx="206.995" cy="255.851" r="4.6983" stroke-width="0.5" stroke="red" fill="red"/>
   </g>
   <g id="cell524">
  <circle cx="258.84" cy="149.517" r="6.40345" stroke-width="0.5" stroke="black" fill="red"/>
   </g>
   <g id="cell535">
  <circle cx="220.538" cy="292.82" r="6.28362" stroke-width="0.5" stroke="black" fill="red"/>
   </g>
   <g id="cell556">
  <circle cx="347.125" cy="182.308" r="8.16298" stroke-width="0.5" stroke="black" fill="red"/>
  <circle cx="347.125" cy="182.308" r="4.62384" stroke-width="0.5" stroke="red" fill="red"/>
   </g>
   <g id="cell569">
  <circle cx="282.38" cy="146.485" r="8.41029" stroke-width="0.5" stroke="black" fill="red"/>
  <circle cx="282.38" cy="146.485" r="5.04765" stroke-width="0.5" stroke="red" fill="red"/>
   </g>
   <g id="cell573">
  <circle cx="272.667" cy="254.171" r="8.35681" stroke-width="0.5" stroke="black" fill="red"/>
  <circle cx="272.667" cy="254.171" r="4.95803" stroke-width="0.5" stroke="red" fill="red"/>
   </g>
   <g id="cell579">
  <circle cx="299.987" cy="240.287" r="8.30518" stroke-width="0.5" stroke="black" fill="red"/>
  <circle cx="299.987" cy="240.287" r="4.8705" stroke-width="0.5" stroke="red" fill="red"/>
   </g>
   <g id="cell593">
  <circle cx="318.655" cy="135.954" r="7.10652" stroke-width="0.5" stroke="black" fill="red"/>
  <circle cx="318.655" cy="135.954" r="2.29091" stroke-width="0.5" stroke="red" fill="red"/>
   </g>
   <g id="cell626">
  <circle cx="213.605" cy="201.223" r="8.28999" stroke-width="0.5" stroke="black" fill="red"/>
  <circle cx="213.605" cy="201.223" r="4.84454" stroke-width="0.5" stroke="red" fill="red"/>
   </g>
   <g id="cell633">
  <circle cx="237.966" cy="279.858" r="4.13015" stroke-width="0.5" stroke="black" fill="red"/>
   </g>
   <g id="cell649">
  <circle cx="333.923" cy="137.258" r="8.41254" stroke-width="0.5" stroke="black" fill="red"/>
  <circle cx="333.923" cy="137.258" r="5.05138" stroke-width="0.5" stroke="red" fill="red"/>
   </g>
   <g id="cell651">
  <circle cx="228.901" cy="290.737" r="4.52785" stroke-width="0.5" stroke="black" fill="red"/>
   </g>
   <g id="cell653">
  <circle cx="254.821" cy="98.5833" r="4.02526" stroke-width="0.5" stroke="black" fill="red"/>
   </g>
   <g id="cell659">
  <circle cx="317.676" cy="249.874" r="8.34525" stroke-width="0.5" stroke="black" fill="red"/>
  <circle cx="317.676" cy="249.874" r="4.93851" stroke-width="0.5" stroke="red" fill="red"/>
   </g>
   <g id="cell669">
  <circle cx="368.313" cy="125.631" r="7.24222" stroke-width="0.5" stroke="black" fill="red"/>
  <circle cx="368.313" cy="125.631" r="2.68244" stroke-width="0.5" stroke="red" fill="red"/>
   </g>
   <g id="cell678">
  <circle cx="287.823" cy="157.135" r="6.75096" stroke-width="0.5" stroke="black" fill="red"/>
  <circle cx="287.823" cy="157.135" r="0.566674" stroke-width="0.5" stroke="red" fill="red"/>
   </g>
   <g id="cell681">
  <circle cx="372.413" cy="314.046" r="6.12495" stroke-width="0.5" stroke="black" fill="red"/>
   </g>
   <g id="cell683">
  <circle cx="351.658" cy="150.62" r="8.4113" stroke-width="0.5" stroke="black" fill="red"/>
  <circle cx="351.658" cy="150.62" r="5.04932" stroke-width="0.5" stroke="red" fill="red"/>
   </g>
   <g id="cell710">
  <circle cx="253.746" cy="193.444" r="8.40781" stroke-width="0.5" stroke="black" fill="red"/>
  <circle cx="253.746" cy="193.444" r="5.04351" stroke-width="0.5" stroke="red" fill="red"/>
   </g>
   <g id="cell714">
  <circle cx="312.235" cy="172.774" r="8.38182" stroke-width="0.5" stroke="black" fill="red"/>
  <circle cx="312.235" cy="172.774" r="5.00006" stroke-width="0.5" stroke="red" fill="red"/>
   </g>
   <g id="cell716">
  <circle cx="274.682" cy="353.094" r="6.13191" stroke-width="0.5" stroke="black" fill="red"/>
   </g>
   <g id="cell726">
  <circle cx="262.184" cy="41.149" r="7.35951" stroke-width="0.5" stroke="black" fill="red"/>
  <circle cx="262.184" cy="41.149" r="2.98465" stroke-width="0.5" stroke="red" fill="red"/>
   </g>
   <g id="cell741">
  <circle cx="271.291" cy="338.731" r="8.39485" stroke-width="0.5" stroke="black" fill="red"/>
  <circle cx="271.291" cy="338.731" r="5.02188" stroke-width="0.5" stroke="red" fill="red"/>
   </g>
   <g id="cell742">
  <circle cx="325.633" cy="104.183" r="8.38707" stroke-width="0.5" stroke="black" fill="red"/>
  <circle cx="325.633" cy="104.183" r="5.00885" stroke-width="0.5" stroke="red" fill="red"/>
   </g>
   <g id="cell743">
  <circle cx="391.904" cy="193.212" r="0.350206" stroke-width="0.5" stroke="black" fill="red"/>
   </g>
   <g id="cell745">
  <circle cx="335.12" cy="122.084" r="2.68665" stroke-width="0.5" stroke="black" fill="red"/>
   </g>
   <g id="cell777">
  <circle cx="285.961" cy="242.384" r="6.68821" stroke-width="0.5" stroke="black" fill="red"/>
   </g>
   <g id="cell778">
  <circle cx="253.852" cy="210.801" r="3.25216" stroke-width="0.5" stroke="black" fill="red"/>
   </g>
   <g id="cell812">
  <circle cx="365.736" cy="175.735" r="8.41253" stroke-width="0.5" stroke="black" fill="red"/>
  <circle cx="365.736" cy="175.735" r="5.05138" stroke-width="0.5" stroke="red" fill="red"/>
   </g>
   <g id="cell818">
  <circle cx="354.462" cy="166.491" r="8.07325" stroke-width="0.5" stroke="black" fill="red"/>
  <circle cx="354.462" cy="166.491" r="4.46352" stroke-width="0.5" stroke="red" fill="red"/>
   </g>
   <g id="cell821">
  <circle cx="344.149" cy="273.593" r="8.21752" stroke-width="0.5" stroke="black" fill="red"/>
  <circle cx="344.149" cy="273.593" r="4.71947" stroke-width="0.5" stroke="red" fill="red"/>
   </g>
   <g id="cell831">
  <circle cx="188.328" cy="193.879" r="6.85436" stroke-width="0.5" stroke="black" fill="red"/>
  <circle cx="188.328" cy="193.879" r="1.31449" stroke-width="0.5" stroke="red" fill="red"/>
   </g>
   <g id="cell836">
  <circle cx="267.533" cy="103.636" r="6.87295" stroke-width="0.5" stroke="black" fill="red"/>
  <circle cx="267.533" cy="103.636" r="1.40824" stroke-width="0.5" stroke="red" fill="red"/>
   </g>
   <g id="cell838">
  <circle cx="290.334" cy="90.5074" r="6.05939" stroke-width="0.5" stroke="black" fill="red"/>
   </g>
   <g id="cell849">
  <circle cx="227.551" cy="164.653" r="6.25725" stroke-width="0.5" stroke="black" fill="red"/>
   </g>
   <g id="cell867">
  <circle cx="264.467" cy="371.5" r="7.90549" stroke-width="0.5" stroke="black" fill="red"/>
  <circle cx="264.467" cy="371.5" r="4.15241" stroke-width="0.5" stroke="red" fill="red"/>
   </g>
   <g id="cell899">
  <circle cx="276.382" cy="293.589" r="7.6167" stroke-width="0.5" stroke="black" fill="red"/>
  <circle cx="276.382" cy="293.589" r="3.57209" stroke-width="0.5" stroke="red" fill="red"/>
   </g>
   <g id="cell900">
  <circle cx="276.477" cy="275.072" r="8.15889" stroke-width="0.5" stroke="black" fill="red"/>
  <circle cx="276.477" cy="275.072" r="4.61662" stroke-width="0.5" stroke="red" fill="red"/>
   </g>
   <g id="cell913">
  <circle cx="298.53" cy="188.622" r="3.20954" stroke-width="0.5" stroke="black" fill="red"/>
   </g>
   <g id="cell935">
  <circle cx="315.664" cy="288.119" r="8.35212" stroke-width="0.5" stroke="black" fill="red"/>
  <circle cx="315.664" cy="288.119" r="4.9501" stroke-width="0.5" stroke="red" fill="red"/>
   </g>
  </g>
 </g>
  <rect x="190" y="414" width="200" height="4" stroke-width="0.8" stroke="rgb(255,255,255)" fill="rgb(0,0,0)"/>
  <text x="192.5" y="411.5"
   font-family="Arial" font-size="10" fill="black" >
   200 &#956;m
  </text>
  <text x="10" y="418"
   font-family="Arial" font-size="7.5" fill="black" >
   0 days, 0 hours, 19 minutes, and 47.1993 seconds
  </text>
  <rect x="0" y="28" width="400" height="400" stroke-width="0.8" stroke="rgb(0,0,0)" fill="none"/>
</svg>
