<?xml version="1.0" encoding="UTF-8" standalone="no"?>
<!-- Created with PhysiCell (http://PhysiCell.MathCancer.org/) -->
<svg 
 xmlns:dc="http://purl.org/dc/elements/1.1/" 
 xmlns:cc="http://creativecommons.org/ns#" 
 xmlns:rdf="http://www.w3.org/1999/02/22-rdf-syntax-ns#" 
 xmlns:svg="http://www.w3.org/2000/svg" 
 xmlns="http://www.w3.org/2000/svg" 
 version="1.1" 
 width="400" 
 height="428" 
 id="svg2">
  <rect x="0" y="0" width="400" height="428" stroke-width="0.8" stroke="white" fill="white"/>
  <text x="5" y="12"
   font-family="Arial" font-size="10" fill="black" >
   Current time: 4 days, 9 hours, and 0.00 minutes, z = 0.00 &#956;m
  </text>
  <text x="5" y="23"
   font-family="Arial" font-size="9.5" fill="black" >
   978 agents
  </text>
 <g id="tissue" 
    transform="translate(0,428) scale(1,-1)">
  <g id="ECM">
  </g>
  <g id="cells">
   <g id="cell7">
  <circle cx="56.9941" cy="160.781" r="8.3673" stroke-width="0.5" stroke="black" fill="grey"/>
  <circle cx="56.9941" cy="160.781" r="4.97568" stroke-width="0.5" stroke="grey" fill="grey"/>
   </g>
   <g id="cell20">
  <circle cx="146.829" cy="292.302" r="8.40786" stroke-width="0.5" stroke="black" fill="grey"/>
  <circle cx="146.829" cy="292.302" r="5.04359" stroke-width="0.5" stroke="grey" fill="grey"/>
   </g>
   <g id="cell37">
  <circle cx="174.225" cy="149.292" r="6.28085" stroke-width="0.5" stroke="black" fill="grey"/>
   </g>
   <g id="cell81">
  <circle cx="91.0128" cy="36.883" r="7.05186" stroke-width="0.5" stroke="black" fill="grey"/>
  <circle cx="91.0128" cy="36.883" r="2.11529" stroke-width="0.5" stroke="grey" fill="grey"/>
   </g>
   <g id="cell87">
  <circle cx="28.9292" cy="217.707" r="5.84678" stroke-width="0.5" stroke="black" fill="grey"/>
   </g>
   <g id="cell105">
  <circle cx="91.7354" cy="109.81" r="3.52844" stroke-width="0.5" stroke="black" fill="grey"/>
   </g>
   <g id="cell129">
  <circle cx="98.5645" cy="173.053" r="5.30754" stroke-width="0.5" stroke="black" fill="grey"/>
   </g>
   <g id="cell135">
  <circle cx="62.705" cy="228.487" r="3.63798" stroke-width="0.5" stroke="black" fill="grey"/>
   </g>
   <g id="cell141">
  <circle cx="43.057" cy="120.716" r="4.74246" stroke-width="0.5" stroke="black" fill="grey"/>
   </g>
   <g id="cell145">
  <circle cx="141.045" cy="199.967" r="7.95836" stroke-width="0.5" stroke="black" fill="grey"/>
  <circle cx="141.045" cy="199.967" r="4.25219" stroke-width="0.5" stroke="grey" fill="grey"/>
   </g>
   <g id="cell171">
  <circle cx="62.978" cy="327.721" r="7.85321" stroke-width="0.5" stroke="black" fill="grey"/>
  <circle cx="62.978" cy="327.721" r="4.05199" stroke-width="0.5" stroke="grey" fill="grey"/>
   </g>
   <g id="cell178">
  <circle cx="134.084" cy="95.761" r="7.48768" stroke-width="0.5" stroke="black" fill="grey"/>
  <circle cx="134.084" cy="95.761" r="3.28801" stroke-width="0.5" stroke="grey" fill="grey"/>
   </g>
   <g id="cell216">
  <circle cx="113.729" cy="235.321" r="7.39117" stroke-width="0.5" stroke="black" fill="grey"/>
  <circle cx="113.729" cy="235.321" r="3.06187" stroke-width="0.5" stroke="grey" fill="grey"/>
   </g>
   <g id="cell224">
  <circle cx="114.808" cy="268.678" r="5.44417" stroke-width="0.5" stroke="black" fill="grey"/>
   </g>
   <g id="cell241">
  <circle cx="218.075" cy="185.024" r="8.16716" stroke-width="0.5" stroke="black" fill="grey"/>
  <circle cx="218.075" cy="185.024" r="4.63122" stroke-width="0.5" stroke="grey" fill="grey"/>
   </g>
   <g id="cell246">
  <circle cx="137.459" cy="27.3847" r="4.31405" stroke-width="0.5" stroke="black" fill="grey"/>
   </g>
   <g id="cell279">
  <circle cx="86.2486" cy="187.837" r="8.38221" stroke-width="0.5" stroke="black" fill="grey"/>
  <circle cx="86.2486" cy="187.837" r="5.00072" stroke-width="0.5" stroke="grey" fill="grey"/>
   </g>
   <g id="cell289">
  <circle cx="115.458" cy="162.978" r="7.10437" stroke-width="0.5" stroke="black" fill="grey"/>
  <circle cx="115.458" cy="162.978" r="2.28424" stroke-width="0.5" stroke="grey" fill="grey"/>
   </g>
   <g id="cell292">
  <circle cx="78.4797" cy="201.371" r="6.42702" stroke-width="0.5" stroke="black" fill="grey"/>
   </g>
   <g id="cell339">
  <circle cx="99.5552" cy="307.775" r="8.31956" stroke-width="0.5" stroke="black" fill="grey"/>
  <circle cx="99.5552" cy="307.775" r="4.89497" stroke-width="0.5" stroke="grey" fill="grey"/>
   </g>
   <g id="cell347">
  <circle cx="140.608" cy="40.8398" r="7.43065" stroke-width="0.5" stroke="black" fill="grey"/>
  <circle cx="140.608" cy="40.8398" r="3.156" stroke-width="0.5" stroke="grey" fill="grey"/>
   </g>
   <g id="cell387">
  <circle cx="148.961" cy="328.224" r="7.35099" stroke-width="0.5" stroke="black" fill="grey"/>
  <circle cx="148.961" cy="328.224" r="2.96358" stroke-width="0.5" stroke="grey" fill="grey"/>
   </g>
   <g id="cell394">
  <circle cx="173.463" cy="303.331" r="7.49288" stroke-width="0.5" stroke="black" fill="grey"/>
  <circle cx="173.463" cy="303.331" r="3.29984" stroke-width="0.5" stroke="grey" fill="grey"/>
   </g>
   <g id="cell396">
  <circle cx="268.567" cy="133.844" r="4.76615" stroke-width="0.5" stroke="black" fill="grey"/>
   </g>
   <g id="cell397">
  <circle cx="133.032" cy="311.351" r="6.3719" stroke-width="0.5" stroke="black" fill="grey"/>
   </g>
   <g id="cell402">
  <circle cx="8.20114" cy="271.784" r="5.36166" stroke-width="0.5" stroke="black" fill="grey"/>
   </g>
   <g id="cell416">
  <circle cx="67.2907" cy="205.322" r="5.41443" stroke-width="0.5" stroke="black" fill="grey"/>
   </g>
   <g id="cell468">
  <circle cx="23.5687" cy="282.089" r="8.26803" stroke-width="0.5" stroke="black" fill="grey"/>
  <circle cx="23.5687" cy="282.089" r="4.80688" stroke-width="0.5" stroke="grey" fill="grey"/>
   </g>
   <g id="cell531">
  <circle cx="264.621" cy="56.8314" r="4.88999" stroke-width="0.5" stroke="black" fill="red"/>
   </g>
   <g id="cell537">
  <circle cx="340.918" cy="117.898" r="6.18969" stroke-width="0.5" stroke="black" fill="red"/>
   </g>
   <g id="cell542">
  <circle cx="279.587" cy="296.603" r="7.22558" stroke-width="0.5" stroke="black" fill="red"/>
  <circle cx="279.587" cy="296.603" r="2.63717" stroke-width="0.5" stroke="red" fill="red"/>
   </g>
   <g id="cell556">
  <circle cx="348.603" cy="173.178" r="5.03056" stroke-width="0.5" stroke="black" fill="red"/>
   </g>
   <g id="cell637">
  <circle cx="201.152" cy="152.771" r="7.96451" stroke-width="0.5" stroke="black" fill="red"/>
  <circle cx="201.152" cy="152.771" r="4.26369" stroke-width="0.5" stroke="red" fill="red"/>
   </g>
   <g id="cell649">
  <circle cx="377.161" cy="186.109" r="8.31038" stroke-width="0.5" stroke="black" fill="red"/>
  <circle cx="377.161" cy="186.109" r="4.87935" stroke-width="0.5" stroke="red" fill="red"/>
   </g>
   <g id="cell657">
  <circle cx="342.881" cy="133.455" r="5.34795" stroke-width="0.5" stroke="black" fill="red"/>
   </g>
   <g id="cell680">
  <circle cx="303.614" cy="230.586" r="8.35127" stroke-width="0.5" stroke="black" fill="red"/>
  <circle cx="303.614" cy="230.586" r="4.94868" stroke-width="0.5" stroke="red" fill="red"/>
   </g>
   <g id="cell742">
  <circle cx="316.947" cy="71.7767" r="6.36906" stroke-width="0.5" stroke="black" fill="red"/>
   </g>
   <g id="cell743">
  <circle cx="365.499" cy="198.403" r="7.89615" stroke-width="0.5" stroke="black" fill="red"/>
  <circle cx="365.499" cy="198.403" r="4.13459" stroke-width="0.5" stroke="red" fill="red"/>
   </g>
   <g id="cell744">
  <circle cx="272.409" cy="154.038" r="7.67353" stroke-width="0.5" stroke="black" fill="red"/>
  <circle cx="272.409" cy="154.038" r="3.69171" stroke-width="0.5" stroke="red" fill="red"/>
   </g>
   <g id="cell800">
  <circle cx="332.917" cy="89.7728" r="7.86811" stroke-width="0.5" stroke="black" fill="red"/>
  <circle cx="332.917" cy="89.7728" r="4.08078" stroke-width="0.5" stroke="red" fill="red"/>
   </g>
   <g id="cell812">
  <circle cx="305.163" cy="148.776" r="7.02669" stroke-width="0.5" stroke="black" fill="red"/>
  <circle cx="305.163" cy="148.776" r="2.02978" stroke-width="0.5" stroke="red" fill="red"/>
   </g>
   <g id="cell831">
  <circle cx="149.765" cy="212.713" r="7.65067" stroke-width="0.5" stroke="black" fill="red"/>
  <circle cx="149.765" cy="212.713" r="3.64396" stroke-width="0.5" stroke="red" fill="red"/>
   </g>
   <g id="cell834">
  <circle cx="176.249" cy="178.606" r="7.70143" stroke-width="0.5" stroke="black" fill="red"/>
  <circle cx="176.249" cy="178.606" r="3.74936" stroke-width="0.5" stroke="red" fill="red"/>
   </g>
   <g id="cell835">
  <circle cx="194.511" cy="248.734" r="6.21724" stroke-width="0.5" stroke="black" fill="red"/>
   </g>
   <g id="cell894">
  <circle cx="192.331" cy="57.5388" r="7.1547" stroke-width="0.5" stroke="black" fill="red"/>
  <circle cx="192.331" cy="57.5388" r="2.43627" stroke-width="0.5" stroke="red" fill="red"/>
   </g>
   <g id="cell900">
  <circle cx="311.87" cy="274.84" r="2.75327" stroke-width="0.5" stroke="black" fill="red"/>
   </g>
   <g id="cell952">
  <circle cx="200.039" cy="283.69" r="8.27587" stroke-width="0.5" stroke="black" fill="red"/>
  <circle cx="200.039" cy="283.69" r="4.82035" stroke-width="0.5" stroke="red" fill="red"/>
   </g>
   <g id="cell974">
  <circle cx="275.372" cy="69.3467" r="7.83436" stroke-width="0.5" stroke="black" fill="red"/>
  <circle cx="275.372" cy="69.3467" r="4.01532" stroke-width="0.5" stroke="red" fill="red"/>
   </g>
  </g>
 </g>
  <rect x="190" y="414" width="200" height="4" stroke-width="0.8" stroke="rgb(255,255,255)" fill="rgb(0,0,0)"/>
  <text x="192.5" y="411.5"
   font-family="Arial" font-size="10" fill="black" >
   200 &#956;m
  </text>
  <text x="10" y="418"
   font-family="Arial" font-size="7.5" fill="black" >
   0 days, 0 hours, 27 minutes, and 30.3509 seconds
  </text>
  <rect x="0" y="28" width="400" height="400" stroke-width="0.8" stroke="rgb(0,0,0)" fill="none"/>
</svg>
