<?xml version="1.0" encoding="UTF-8" standalone="no"?>
<!-- Created with PhysiCell (http://PhysiCell.MathCancer.org/) -->
<svg 
 xmlns:dc="http://purl.org/dc/elements/1.1/" 
 xmlns:cc="http://creativecommons.org/ns#" 
 xmlns:rdf="http://www.w3.org/1999/02/22-rdf-syntax-ns#" 
 xmlns:svg="http://www.w3.org/2000/svg" 
 xmlns="http://www.w3.org/2000/svg" 
 version="1.1" 
 width="400" 
 height="428" 
 id="svg2">
  <rect x="0" y="0" width="400" height="428" stroke-width="0.8" stroke="white" fill="white"/>
  <text x="5" y="12"
   font-family="Arial" font-size="10" fill="black" >
   Current time: 3 days, 12 hours, and 0.00 minutes, z = 0.00 &#956;m
  </text>
  <text x="5" y="23"
   font-family="Arial" font-size="9.5" fill="black" >
   978 agents
  </text>
 <g id="tissue" 
    transform="translate(0,428) scale(1,-1)">
  <g id="ECM">
  </g>
  <g id="cells">
   <g id="cell4">
  <circle cx="106.426" cy="236.696" r="8.36864" stroke-width="0.5" stroke="black" fill="grey"/>
  <circle cx="106.426" cy="236.696" r="4.97793" stroke-width="0.5" stroke="grey" fill="grey"/>
   </g>
   <g id="cell6">
  <circle cx="120.196" cy="206.425" r="4.51764" stroke-width="0.5" stroke="black" fill="grey"/>
   </g>
   <g id="cell37">
  <circle cx="207.495" cy="157.424" r="7.44028" stroke-width="0.5" stroke="black" fill="grey"/>
  <circle cx="207.495" cy="157.424" r="3.17858" stroke-width="0.5" stroke="grey" fill="grey"/>
   </g>
   <g id="cell58">
  <circle cx="205.605" cy="274.274" r="7.04204" stroke-width="0.5" stroke="black" fill="grey"/>
  <circle cx="205.605" cy="274.274" r="2.08229" stroke-width="0.5" stroke="grey" fill="grey"/>
   </g>
   <g id="cell87">
  <circle cx="46.1506" cy="236.768" r="7.59591" stroke-width="0.5" stroke="black" fill="grey"/>
  <circle cx="46.1506" cy="236.768" r="3.52754" stroke-width="0.5" stroke="grey" fill="grey"/>
   </g>
   <g id="cell104">
  <circle cx="134.026" cy="168.936" r="8.40791" stroke-width="0.5" stroke="black" fill="grey"/>
  <circle cx="134.026" cy="168.936" r="5.04367" stroke-width="0.5" stroke="grey" fill="grey"/>
   </g>
   <g id="cell166">
  <circle cx="173.524" cy="118.399" r="6.81824" stroke-width="0.5" stroke="black" fill="grey"/>
  <circle cx="173.524" cy="118.399" r="1.11088" stroke-width="0.5" stroke="grey" fill="grey"/>
   </g>
   <g id="cell195">
  <circle cx="80.3909" cy="143.112" r="5.92265" stroke-width="0.5" stroke="black" fill="grey"/>
   </g>
   <g id="cell199">
  <circle cx="75.4342" cy="182.892" r="2.76408" stroke-width="0.5" stroke="black" fill="grey"/>
   </g>
   <g id="cell227">
  <circle cx="136.682" cy="331.539" r="8.37485" stroke-width="0.5" stroke="black" fill="grey"/>
  <circle cx="136.682" cy="331.539" r="4.98837" stroke-width="0.5" stroke="grey" fill="grey"/>
   </g>
   <g id="cell246">
  <circle cx="128.288" cy="42.1965" r="8.06339" stroke-width="0.5" stroke="black" fill="grey"/>
  <circle cx="128.288" cy="42.1965" r="4.44567" stroke-width="0.5" stroke="grey" fill="grey"/>
   </g>
   <g id="cell264">
  <circle cx="198.669" cy="250.314" r="8.03769" stroke-width="0.5" stroke="black" fill="grey"/>
  <circle cx="198.669" cy="250.314" r="4.39888" stroke-width="0.5" stroke="grey" fill="grey"/>
   </g>
   <g id="cell271">
  <circle cx="10.1507" cy="235.962" r="7.50084" stroke-width="0.5" stroke="black" fill="grey"/>
  <circle cx="10.1507" cy="235.962" r="3.31787" stroke-width="0.5" stroke="grey" fill="grey"/>
   </g>
   <g id="cell288">
  <circle cx="127.863" cy="110.003" r="7.71029" stroke-width="0.5" stroke="black" fill="grey"/>
  <circle cx="127.863" cy="110.003" r="3.76753" stroke-width="0.5" stroke="grey" fill="grey"/>
   </g>
   <g id="cell310">
  <circle cx="191.212" cy="347.224" r="7.7865" stroke-width="0.5" stroke="black" fill="grey"/>
  <circle cx="191.212" cy="347.224" r="3.92112" stroke-width="0.5" stroke="grey" fill="grey"/>
   </g>
   <g id="cell312">
  <circle cx="231.804" cy="158.289" r="4.98262" stroke-width="0.5" stroke="black" fill="grey"/>
   </g>
   <g id="cell317">
  <circle cx="120.625" cy="388.24" r="6.05998" stroke-width="0.5" stroke="black" fill="grey"/>
   </g>
   <g id="cell339">
  <circle cx="110.325" cy="280.158" r="7.25815" stroke-width="0.5" stroke="black" fill="grey"/>
  <circle cx="110.325" cy="280.158" r="2.72514" stroke-width="0.5" stroke="grey" fill="grey"/>
   </g>
   <g id="cell359">
  <circle cx="156.108" cy="256.184" r="8.15505" stroke-width="0.5" stroke="black" fill="grey"/>
  <circle cx="156.108" cy="256.184" r="4.60983" stroke-width="0.5" stroke="grey" fill="grey"/>
   </g>
   <g id="cell369">
  <circle cx="82.6249" cy="313.036" r="7.879" stroke-width="0.5" stroke="black" fill="grey"/>
  <circle cx="82.6249" cy="313.036" r="4.10174" stroke-width="0.5" stroke="grey" fill="grey"/>
   </g>
   <g id="cell375">
  <circle cx="150.331" cy="171.677" r="6.17008" stroke-width="0.5" stroke="black" fill="grey"/>
   </g>
   <g id="cell382">
  <circle cx="132.248" cy="186.347" r="7.02994" stroke-width="0.5" stroke="black" fill="grey"/>
  <circle cx="132.248" cy="186.347" r="2.041" stroke-width="0.5" stroke="grey" fill="grey"/>
   </g>
   <g id="cell388">
  <circle cx="244.53" cy="99.2165" r="7.37645" stroke-width="0.5" stroke="black" fill="grey"/>
  <circle cx="244.53" cy="99.2165" r="3.02616" stroke-width="0.5" stroke="grey" fill="grey"/>
   </g>
   <g id="cell395">
  <circle cx="180.175" cy="193.103" r="7.23226" stroke-width="0.5" stroke="black" fill="grey"/>
  <circle cx="180.175" cy="193.103" r="2.65541" stroke-width="0.5" stroke="grey" fill="grey"/>
   </g>
   <g id="cell397">
  <circle cx="132.873" cy="260.626" r="8.1583" stroke-width="0.5" stroke="black" fill="grey"/>
  <circle cx="132.873" cy="260.626" r="4.61558" stroke-width="0.5" stroke="grey" fill="grey"/>
   </g>
   <g id="cell402">
  <circle cx="35.6947" cy="247.378" r="8.32169" stroke-width="0.5" stroke="black" fill="grey"/>
  <circle cx="35.6947" cy="247.378" r="4.89859" stroke-width="0.5" stroke="grey" fill="grey"/>
   </g>
   <g id="cell403">
  <circle cx="32.6205" cy="163.818" r="6.3872" stroke-width="0.5" stroke="black" fill="grey"/>
   </g>
   <g id="cell423">
  <circle cx="68.7498" cy="187.592" r="6.41055" stroke-width="0.5" stroke="black" fill="grey"/>
   </g>
   <g id="cell455">
  <circle cx="122.662" cy="176.326" r="6.08639" stroke-width="0.5" stroke="black" fill="grey"/>
   </g>
   <g id="cell459">
  <circle cx="116.281" cy="125.556" r="3.91085" stroke-width="0.5" stroke="black" fill="grey"/>
   </g>
   <g id="cell468">
  <circle cx="56.3811" cy="294.753" r="8.18896" stroke-width="0.5" stroke="black" fill="grey"/>
  <circle cx="56.3811" cy="294.753" r="4.66956" stroke-width="0.5" stroke="grey" fill="grey"/>
   </g>
   <g id="cell476">
  <circle cx="193.886" cy="268.749" r="6.88071" stroke-width="0.5" stroke="black" fill="grey"/>
  <circle cx="193.886" cy="268.749" r="1.44561" stroke-width="0.5" stroke="grey" fill="grey"/>
   </g>
   <g id="cell497">
  <circle cx="339.062" cy="194.719" r="8.34786" stroke-width="0.5" stroke="black" fill="red"/>
  <circle cx="339.062" cy="194.719" r="4.94292" stroke-width="0.5" stroke="red" fill="red"/>
   </g>
   <g id="cell550">
  <circle cx="357.68" cy="181.668" r="8.29906" stroke-width="0.5" stroke="black" fill="red"/>
  <circle cx="357.68" cy="181.668" r="4.86005" stroke-width="0.5" stroke="red" fill="red"/>
   </g>
   <g id="cell558">
  <circle cx="277.058" cy="282.623" r="8.01482" stroke-width="0.5" stroke="black" fill="red"/>
  <circle cx="277.058" cy="282.623" r="4.35696" stroke-width="0.5" stroke="red" fill="red"/>
   </g>
   <g id="cell566">
  <circle cx="180.501" cy="216.607" r="8.23745" stroke-width="0.5" stroke="black" fill="red"/>
  <circle cx="180.501" cy="216.607" r="4.75409" stroke-width="0.5" stroke="red" fill="red"/>
   </g>
   <g id="cell581">
  <circle cx="277.246" cy="118.608" r="7.69199" stroke-width="0.5" stroke="black" fill="red"/>
  <circle cx="277.246" cy="118.608" r="3.72993" stroke-width="0.5" stroke="red" fill="red"/>
   </g>
   <g id="cell601">
  <circle cx="348.49" cy="127.162" r="8.25677" stroke-width="0.5" stroke="black" fill="red"/>
  <circle cx="348.49" cy="127.162" r="4.78748" stroke-width="0.5" stroke="red" fill="red"/>
   </g>
   <g id="cell605">
  <circle cx="360.173" cy="203.364" r="8.13716" stroke-width="0.5" stroke="black" fill="red"/>
  <circle cx="360.173" cy="203.364" r="4.5781" stroke-width="0.5" stroke="red" fill="red"/>
   </g>
   <g id="cell619">
  <circle cx="177.45" cy="140.838" r="7.83689" stroke-width="0.5" stroke="black" fill="red"/>
  <circle cx="177.45" cy="140.838" r="4.02026" stroke-width="0.5" stroke="red" fill="red"/>
   </g>
   <g id="cell626">
  <circle cx="199.38" cy="200.205" r="8.29952" stroke-width="0.5" stroke="black" fill="red"/>
  <circle cx="199.38" cy="200.205" r="4.86084" stroke-width="0.5" stroke="red" fill="red"/>
   </g>
   <g id="cell636">
  <circle cx="298.788" cy="72.7882" r="8.39758" stroke-width="0.5" stroke="black" fill="red"/>
  <circle cx="298.788" cy="72.7882" r="5.02644" stroke-width="0.5" stroke="red" fill="red"/>
   </g>
   <g id="cell643">
  <circle cx="285.125" cy="247.45" r="8.3499" stroke-width="0.5" stroke="black" fill="red"/>
  <circle cx="285.125" cy="247.45" r="4.94637" stroke-width="0.5" stroke="red" fill="red"/>
   </g>
   <g id="cell644">
  <circle cx="197.369" cy="100.442" r="7.41304" stroke-width="0.5" stroke="black" fill="red"/>
  <circle cx="197.369" cy="100.442" r="3.11429" stroke-width="0.5" stroke="red" fill="red"/>
   </g>
   <g id="cell650">
  <circle cx="275.681" cy="257.384" r="2.05689" stroke-width="0.5" stroke="black" fill="red"/>
   </g>
   <g id="cell655">
  <circle cx="280.398" cy="233.973" r="7.63507" stroke-width="0.5" stroke="black" fill="red"/>
  <circle cx="280.398" cy="233.973" r="3.61108" stroke-width="0.5" stroke="red" fill="red"/>
   </g>
   <g id="cell657">
  <circle cx="318.034" cy="125.307" r="2.90032" stroke-width="0.5" stroke="black" fill="red"/>
   </g>
   <g id="cell671">
  <circle cx="336.494" cy="213.303" r="7.6556" stroke-width="0.5" stroke="black" fill="red"/>
  <circle cx="336.494" cy="213.303" r="3.65429" stroke-width="0.5" stroke="red" fill="red"/>
   </g>
   <g id="cell683">
  <circle cx="383.474" cy="176.711" r="7.45889" stroke-width="0.5" stroke="black" fill="red"/>
  <circle cx="383.474" cy="176.711" r="3.22192" stroke-width="0.5" stroke="red" fill="red"/>
   </g>
   <g id="cell689">
  <circle cx="206.631" cy="121.367" r="7.81094" stroke-width="0.5" stroke="black" fill="red"/>
  <circle cx="206.631" cy="121.367" r="3.96944" stroke-width="0.5" stroke="red" fill="red"/>
   </g>
   <g id="cell711">
  <circle cx="294.337" cy="199.308" r="6.39969" stroke-width="0.5" stroke="black" fill="red"/>
   </g>
   <g id="cell726">
  <circle cx="263.718" cy="48.6041" r="8.34468" stroke-width="0.5" stroke="black" fill="red"/>
  <circle cx="263.718" cy="48.6041" r="4.93755" stroke-width="0.5" stroke="red" fill="red"/>
   </g>
   <g id="cell728">
  <circle cx="307.913" cy="85.5724" r="7.99173" stroke-width="0.5" stroke="black" fill="red"/>
  <circle cx="307.913" cy="85.5724" r="4.31434" stroke-width="0.5" stroke="red" fill="red"/>
   </g>
   <g id="cell744">
  <circle cx="257.346" cy="123.962" r="7.23918" stroke-width="0.5" stroke="black" fill="red"/>
  <circle cx="257.346" cy="123.962" r="2.6742" stroke-width="0.5" stroke="red" fill="red"/>
   </g>
   <g id="cell750">
  <circle cx="347.285" cy="88.5246" r="7.84804" stroke-width="0.5" stroke="black" fill="red"/>
  <circle cx="347.285" cy="88.5246" r="4.04196" stroke-width="0.5" stroke="red" fill="red"/>
   </g>
   <g id="cell766">
  <circle cx="247.383" cy="298.504" r="5.59458" stroke-width="0.5" stroke="black" fill="red"/>
   </g>
   <g id="cell767">
  <circle cx="216.249" cy="105.939" r="6.2231" stroke-width="0.5" stroke="black" fill="red"/>
   </g>
   <g id="cell769">
  <circle cx="324.591" cy="206.027" r="4.547" stroke-width="0.5" stroke="black" fill="red"/>
   </g>
   <g id="cell778">
  <circle cx="258.953" cy="216.232" r="7.27557" stroke-width="0.5" stroke="black" fill="red"/>
  <circle cx="258.953" cy="216.232" r="2.7712" stroke-width="0.5" stroke="red" fill="red"/>
   </g>
   <g id="cell786">
  <circle cx="231.441" cy="239.968" r="4.95573" stroke-width="0.5" stroke="black" fill="red"/>
   </g>
   <g id="cell819">
  <circle cx="346.239" cy="213.928" r="6.62064" stroke-width="0.5" stroke="black" fill="red"/>
   </g>
   <g id="cell898">
  <circle cx="246.584" cy="187.405" r="7.94217" stroke-width="0.5" stroke="black" fill="red"/>
  <circle cx="246.584" cy="187.405" r="4.22182" stroke-width="0.5" stroke="red" fill="red"/>
   </g>
   <g id="cell899">
  <circle cx="233.255" cy="323.546" r="8.28866" stroke-width="0.5" stroke="black" fill="red"/>
  <circle cx="233.255" cy="323.546" r="4.84227" stroke-width="0.5" stroke="red" fill="red"/>
   </g>
   <g id="cell923">
  <circle cx="257.343" cy="256.483" r="6.61565" stroke-width="0.5" stroke="black" fill="red"/>
   </g>
   <g id="cell944">
  <circle cx="277.293" cy="147.683" r="5.48252" stroke-width="0.5" stroke="black" fill="red"/>
   </g>
   <g id="cell948">
  <circle cx="199.315" cy="171.357" r="7.47922" stroke-width="0.5" stroke="black" fill="red"/>
  <circle cx="199.315" cy="171.357" r="3.26871" stroke-width="0.5" stroke="red" fill="red"/>
   </g>
   <g id="cell967">
  <circle cx="205.899" cy="214.897" r="8.31818" stroke-width="0.5" stroke="black" fill="red"/>
  <circle cx="205.899" cy="214.897" r="4.89263" stroke-width="0.5" stroke="red" fill="red"/>
   </g>
   <g id="cell971">
  <circle cx="247.544" cy="202.525" r="6.17085" stroke-width="0.5" stroke="black" fill="red"/>
   </g>
  </g>
 </g>
  <rect x="190" y="414" width="200" height="4" stroke-width="0.8" stroke="rgb(255,255,255)" fill="rgb(0,0,0)"/>
  <text x="192.5" y="411.5"
   font-family="Arial" font-size="10" fill="black" >
   200 &#956;m
  </text>
  <text x="10" y="418"
   font-family="Arial" font-size="7.5" fill="black" >
   0 days, 0 hours, 23 minutes, and 14.8453 seconds
  </text>
  <rect x="0" y="28" width="400" height="400" stroke-width="0.8" stroke="rgb(0,0,0)" fill="none"/>
</svg>
