<?xml version="1.0" encoding="UTF-8" standalone="no"?>
<!-- Created with PhysiCell (http://PhysiCell.MathCancer.org/) -->
<svg 
 xmlns:dc="http://purl.org/dc/elements/1.1/" 
 xmlns:cc="http://creativecommons.org/ns#" 
 xmlns:rdf="http://www.w3.org/1999/02/22-rdf-syntax-ns#" 
 xmlns:svg="http://www.w3.org/2000/svg" 
 xmlns="http://www.w3.org/2000/svg" 
 version="1.1" 
 width="400" 
 height="428" 
 id="svg2">
  <rect x="0" y="0" width="400" height="428" stroke-width="0.8" stroke="white" fill="white"/>
  <text x="5" y="12"
   font-family="Arial" font-size="10" fill="black" >
   Current time: 4 days, 12 hours, and 0.00 minutes, z = 0.00 &#956;m
  </text>
  <text x="5" y="23"
   font-family="Arial" font-size="9.5" fill="black" >
   978 agents
  </text>
 <g id="tissue" 
    transform="translate(0,428) scale(1,-1)">
  <g id="ECM">
  </g>
  <g id="cells">
   <g id="cell64">
  <circle cx="210.901" cy="226.075" r="8.18563" stroke-width="0.5" stroke="black" fill="grey"/>
  <circle cx="210.901" cy="226.075" r="4.66372" stroke-width="0.5" stroke="grey" fill="grey"/>
   </g>
   <g id="cell81">
  <circle cx="89.187" cy="44.0674" r="7.04624" stroke-width="0.5" stroke="black" fill="grey"/>
  <circle cx="89.187" cy="44.0674" r="2.09648" stroke-width="0.5" stroke="grey" fill="grey"/>
   </g>
   <g id="cell87">
  <circle cx="24.8682" cy="211.348" r="8.31976" stroke-width="0.5" stroke="black" fill="grey"/>
  <circle cx="24.8682" cy="211.348" r="4.89531" stroke-width="0.5" stroke="grey" fill="grey"/>
   </g>
   <g id="cell105">
  <circle cx="72.0668" cy="105.752" r="7.25875" stroke-width="0.5" stroke="black" fill="grey"/>
  <circle cx="72.0668" cy="105.752" r="2.72674" stroke-width="0.5" stroke="grey" fill="grey"/>
   </g>
   <g id="cell112">
  <circle cx="212.108" cy="145.105" r="2.88392" stroke-width="0.5" stroke="black" fill="grey"/>
   </g>
   <g id="cell124">
  <circle cx="164.58" cy="267.595" r="3.03201" stroke-width="0.5" stroke="black" fill="grey"/>
   </g>
   <g id="cell129">
  <circle cx="107.173" cy="171.799" r="6.61909" stroke-width="0.5" stroke="black" fill="grey"/>
   </g>
   <g id="cell131">
  <circle cx="34.3562" cy="181.569" r="8.19996" stroke-width="0.5" stroke="black" fill="grey"/>
  <circle cx="34.3562" cy="181.569" r="4.68882" stroke-width="0.5" stroke="grey" fill="grey"/>
   </g>
   <g id="cell133">
  <circle cx="79.0712" cy="274.35" r="8.3347" stroke-width="0.5" stroke="black" fill="grey"/>
  <circle cx="79.0712" cy="274.35" r="4.92065" stroke-width="0.5" stroke="grey" fill="grey"/>
   </g>
   <g id="cell145">
  <circle cx="130.895" cy="201.441" r="8.37004" stroke-width="0.5" stroke="black" fill="grey"/>
  <circle cx="130.895" cy="201.441" r="4.98028" stroke-width="0.5" stroke="grey" fill="grey"/>
   </g>
   <g id="cell160">
  <circle cx="129.916" cy="111.343" r="6.43855" stroke-width="0.5" stroke="black" fill="grey"/>
   </g>
   <g id="cell163">
  <circle cx="111.948" cy="308.193" r="8.21667" stroke-width="0.5" stroke="black" fill="grey"/>
  <circle cx="111.948" cy="308.193" r="4.71798" stroke-width="0.5" stroke="grey" fill="grey"/>
   </g>
   <g id="cell178">
  <circle cx="116.596" cy="105.051" r="7.89274" stroke-width="0.5" stroke="black" fill="grey"/>
  <circle cx="116.596" cy="105.051" r="4.12807" stroke-width="0.5" stroke="grey" fill="grey"/>
   </g>
   <g id="cell203">
  <circle cx="35.5625" cy="309.58" r="8.41197" stroke-width="0.5" stroke="black" fill="grey"/>
  <circle cx="35.5625" cy="309.58" r="5.05044" stroke-width="0.5" stroke="grey" fill="grey"/>
   </g>
   <g id="cell216">
  <circle cx="124.283" cy="218.152" r="7.66867" stroke-width="0.5" stroke="black" fill="grey"/>
  <circle cx="124.283" cy="218.152" r="3.68159" stroke-width="0.5" stroke="grey" fill="grey"/>
   </g>
   <g id="cell236">
  <circle cx="178.358" cy="111.131" r="5.10801" stroke-width="0.5" stroke="black" fill="grey"/>
   </g>
   <g id="cell241">
  <circle cx="209.835" cy="181.887" r="8.24588" stroke-width="0.5" stroke="black" fill="grey"/>
  <circle cx="209.835" cy="181.887" r="4.76866" stroke-width="0.5" stroke="grey" fill="grey"/>
   </g>
   <g id="cell259">
  <circle cx="203.091" cy="338.444" r="8.3839" stroke-width="0.5" stroke="black" fill="grey"/>
  <circle cx="203.091" cy="338.444" r="5.00354" stroke-width="0.5" stroke="grey" fill="grey"/>
   </g>
   <g id="cell279">
  <circle cx="82.9689" cy="195.574" r="7.61832" stroke-width="0.5" stroke="black" fill="grey"/>
  <circle cx="82.9689" cy="195.574" r="3.57555" stroke-width="0.5" stroke="grey" fill="grey"/>
   </g>
   <g id="cell287">
  <circle cx="33.4129" cy="136.511" r="8.24235" stroke-width="0.5" stroke="black" fill="grey"/>
  <circle cx="33.4129" cy="136.511" r="4.76257" stroke-width="0.5" stroke="grey" fill="grey"/>
   </g>
   <g id="cell306">
  <circle cx="240.729" cy="218.591" r="5.30408" stroke-width="0.5" stroke="black" fill="grey"/>
   </g>
   <g id="cell312">
  <circle cx="218.715" cy="204.526" r="8.32216" stroke-width="0.5" stroke="black" fill="grey"/>
  <circle cx="218.715" cy="204.526" r="4.89938" stroke-width="0.5" stroke="grey" fill="grey"/>
   </g>
   <g id="cell341">
  <circle cx="63.644" cy="128.864" r="8.09945" stroke-width="0.5" stroke="black" fill="grey"/>
  <circle cx="63.644" cy="128.864" r="4.51074" stroke-width="0.5" stroke="grey" fill="grey"/>
   </g>
   <g id="cell394">
  <circle cx="166.697" cy="307.962" r="7.57597" stroke-width="0.5" stroke="black" fill="grey"/>
  <circle cx="166.697" cy="307.962" r="3.48439" stroke-width="0.5" stroke="grey" fill="grey"/>
   </g>
   <g id="cell396">
  <circle cx="245.257" cy="126.954" r="2.27479" stroke-width="0.5" stroke="black" fill="grey"/>
   </g>
   <g id="cell397">
  <circle cx="134.162" cy="324.205" r="4.90191" stroke-width="0.5" stroke="black" fill="grey"/>
   </g>
   <g id="cell402">
  <circle cx="10.7561" cy="267.171" r="8.07119" stroke-width="0.5" stroke="black" fill="grey"/>
  <circle cx="10.7561" cy="267.171" r="4.4598" stroke-width="0.5" stroke="grey" fill="grey"/>
   </g>
   <g id="cell416">
  <circle cx="72.6818" cy="199.74" r="5.60136" stroke-width="0.5" stroke="black" fill="grey"/>
   </g>
   <g id="cell451">
  <circle cx="18.0964" cy="179.005" r="8.23662" stroke-width="0.5" stroke="black" fill="grey"/>
  <circle cx="18.0964" cy="179.005" r="4.75263" stroke-width="0.5" stroke="grey" fill="grey"/>
   </g>
   <g id="cell559">
  <circle cx="292.645" cy="223.07" r="4.74502" stroke-width="0.5" stroke="black" fill="red"/>
   </g>
   <g id="cell562">
  <circle cx="177.614" cy="241.399" r="8.19643" stroke-width="0.5" stroke="black" fill="red"/>
  <circle cx="177.614" cy="241.399" r="4.68265" stroke-width="0.5" stroke="red" fill="red"/>
   </g>
   <g id="cell649">
  <circle cx="386.608" cy="187.506" r="2.38717" stroke-width="0.5" stroke="black" fill="red"/>
   </g>
   <g id="cell657">
  <circle cx="345.117" cy="141.579" r="7.3113" stroke-width="0.5" stroke="black" fill="red"/>
  <circle cx="345.117" cy="141.579" r="2.8637" stroke-width="0.5" stroke="red" fill="red"/>
   </g>
   <g id="cell699">
  <circle cx="246.23" cy="285.145" r="1.06683" stroke-width="0.5" stroke="black" fill="red"/>
   </g>
   <g id="cell708">
  <circle cx="307.711" cy="199.384" r="7.72904" stroke-width="0.5" stroke="black" fill="red"/>
  <circle cx="307.711" cy="199.384" r="3.80576" stroke-width="0.5" stroke="red" fill="red"/>
   </g>
   <g id="cell741">
  <circle cx="243.134" cy="318.177" r="5.11696" stroke-width="0.5" stroke="black" fill="red"/>
   </g>
   <g id="cell742">
  <circle cx="310.575" cy="87.743" r="3.84526" stroke-width="0.5" stroke="black" fill="red"/>
   </g>
   <g id="cell767">
  <circle cx="239" cy="95.2037" r="8.02726" stroke-width="0.5" stroke="black" fill="red"/>
  <circle cx="239" cy="95.2037" r="4.3798" stroke-width="0.5" stroke="red" fill="red"/>
   </g>
   <g id="cell769">
  <circle cx="342.26" cy="219.589" r="8.31325" stroke-width="0.5" stroke="black" fill="red"/>
  <circle cx="342.26" cy="219.589" r="4.88424" stroke-width="0.5" stroke="red" fill="red"/>
   </g>
   <g id="cell800">
  <circle cx="335.062" cy="51.432" r="4.05338" stroke-width="0.5" stroke="black" fill="red"/>
   </g>
   <g id="cell812">
  <circle cx="308.372" cy="138.53" r="8.2484" stroke-width="0.5" stroke="black" fill="red"/>
  <circle cx="308.372" cy="138.53" r="4.77302" stroke-width="0.5" stroke="red" fill="red"/>
   </g>
   <g id="cell825">
  <circle cx="293.944" cy="194.643" r="7.17684" stroke-width="0.5" stroke="black" fill="red"/>
  <circle cx="293.944" cy="194.643" r="2.50054" stroke-width="0.5" stroke="red" fill="red"/>
   </g>
   <g id="cell831">
  <circle cx="158.929" cy="223.061" r="5.54996" stroke-width="0.5" stroke="black" fill="red"/>
   </g>
   <g id="cell834">
  <circle cx="161.905" cy="176.052" r="8.36139" stroke-width="0.5" stroke="black" fill="red"/>
  <circle cx="161.905" cy="176.052" r="4.96573" stroke-width="0.5" stroke="red" fill="red"/>
   </g>
   <g id="cell835">
  <circle cx="192.402" cy="258.776" r="7.33013" stroke-width="0.5" stroke="black" fill="red"/>
  <circle cx="192.402" cy="258.776" r="2.91143" stroke-width="0.5" stroke="red" fill="red"/>
   </g>
   <g id="cell841">
  <circle cx="241.037" cy="236.164" r="8.20084" stroke-width="0.5" stroke="black" fill="red"/>
  <circle cx="241.037" cy="236.164" r="4.69036" stroke-width="0.5" stroke="red" fill="red"/>
   </g>
   <g id="cell855">
  <circle cx="236.678" cy="139.001" r="5.1367" stroke-width="0.5" stroke="black" fill="red"/>
   </g>
   <g id="cell861">
  <circle cx="183.649" cy="125.37" r="5.5912" stroke-width="0.5" stroke="black" fill="red"/>
   </g>
   <g id="cell899">
  <circle cx="225.14" cy="309.952" r="7.73673" stroke-width="0.5" stroke="black" fill="red"/>
  <circle cx="225.14" cy="309.952" r="3.82134" stroke-width="0.5" stroke="red" fill="red"/>
   </g>
   <g id="cell905">
  <circle cx="147.44" cy="268.673" r="8.41041" stroke-width="0.5" stroke="black" fill="red"/>
  <circle cx="147.44" cy="268.673" r="5.04784" stroke-width="0.5" stroke="red" fill="red"/>
   </g>
   <g id="cell917">
  <circle cx="320.772" cy="144.765" r="5.21683" stroke-width="0.5" stroke="black" fill="red"/>
   </g>
   <g id="cell920">
  <circle cx="271.239" cy="186.353" r="7.10621" stroke-width="0.5" stroke="black" fill="red"/>
  <circle cx="271.239" cy="186.353" r="2.28996" stroke-width="0.5" stroke="red" fill="red"/>
   </g>
   <g id="cell959">
  <circle cx="231.702" cy="187.32" r="7.10133" stroke-width="0.5" stroke="black" fill="red"/>
  <circle cx="231.702" cy="187.32" r="2.27478" stroke-width="0.5" stroke="red" fill="red"/>
   </g>
  </g>
 </g>
  <rect x="190" y="414" width="200" height="4" stroke-width="0.8" stroke="rgb(255,255,255)" fill="rgb(0,0,0)"/>
  <text x="192.5" y="411.5"
   font-family="Arial" font-size="10" fill="black" >
   200 &#956;m
  </text>
  <text x="10" y="418"
   font-family="Arial" font-size="7.5" fill="black" >
   0 days, 0 hours, 28 minutes, and 13.0759 seconds
  </text>
  <rect x="0" y="28" width="400" height="400" stroke-width="0.8" stroke="rgb(0,0,0)" fill="none"/>
</svg>
