<?xml version="1.0" encoding="UTF-8" standalone="no"?>
<!-- Created with PhysiCell (http://PhysiCell.MathCancer.org/) -->
<svg 
 xmlns:dc="http://purl.org/dc/elements/1.1/" 
 xmlns:cc="http://creativecommons.org/ns#" 
 xmlns:rdf="http://www.w3.org/1999/02/22-rdf-syntax-ns#" 
 xmlns:svg="http://www.w3.org/2000/svg" 
 xmlns="http://www.w3.org/2000/svg" 
 version="1.1" 
 width="400" 
 height="428" 
 id="svg2">
  <rect x="0" y="0" width="400" height="428" stroke-width="0.8" stroke="white" fill="white"/>
  <text x="5" y="12"
   font-family="Arial" font-size="10" fill="black" >
   Current time: 3 days, 3 hours, and 0.00 minutes, z = 0.00 &#956;m
  </text>
  <text x="5" y="23"
   font-family="Arial" font-size="9.5" fill="black" >
   978 agents
  </text>
 <g id="tissue" 
    transform="translate(0,428) scale(1,-1)">
  <g id="ECM">
  </g>
  <g id="cells">
   <g id="cell4">
  <circle cx="139.061" cy="237.619" r="8.13232" stroke-width="0.5" stroke="black" fill="grey"/>
  <circle cx="139.061" cy="237.619" r="4.5695" stroke-width="0.5" stroke="grey" fill="grey"/>
   </g>
   <g id="cell30">
  <circle cx="110.337" cy="233.966" r="7.56441" stroke-width="0.5" stroke="black" fill="grey"/>
  <circle cx="110.337" cy="233.966" r="3.45918" stroke-width="0.5" stroke="grey" fill="grey"/>
   </g>
   <g id="cell35">
  <circle cx="187.571" cy="174.448" r="7.98374" stroke-width="0.5" stroke="black" fill="grey"/>
  <circle cx="187.571" cy="174.448" r="4.29951" stroke-width="0.5" stroke="grey" fill="grey"/>
   </g>
   <g id="cell54">
  <circle cx="216.565" cy="69.6323" r="8.40097" stroke-width="0.5" stroke="black" fill="grey"/>
  <circle cx="216.565" cy="69.6323" r="5.0321" stroke-width="0.5" stroke="grey" fill="grey"/>
   </g>
   <g id="cell58">
  <circle cx="186.266" cy="287.778" r="6.48827" stroke-width="0.5" stroke="black" fill="grey"/>
   </g>
   <g id="cell59">
  <circle cx="49.1705" cy="223.031" r="6.03279" stroke-width="0.5" stroke="black" fill="grey"/>
   </g>
   <g id="cell71">
  <circle cx="83.0643" cy="193.118" r="3.95074" stroke-width="0.5" stroke="black" fill="grey"/>
   </g>
   <g id="cell81">
  <circle cx="116.95" cy="96.3418" r="8.14207" stroke-width="0.5" stroke="black" fill="grey"/>
  <circle cx="116.95" cy="96.3418" r="4.58682" stroke-width="0.5" stroke="grey" fill="grey"/>
   </g>
   <g id="cell90">
  <circle cx="87.944" cy="182.092" r="8.13984" stroke-width="0.5" stroke="black" fill="grey"/>
  <circle cx="87.944" cy="182.092" r="4.58287" stroke-width="0.5" stroke="grey" fill="grey"/>
   </g>
   <g id="cell93">
  <circle cx="46.7228" cy="293.882" r="6.56459" stroke-width="0.5" stroke="black" fill="grey"/>
   </g>
   <g id="cell107">
  <circle cx="152.964" cy="297.861" r="6.93215" stroke-width="0.5" stroke="black" fill="grey"/>
  <circle cx="152.964" cy="297.861" r="1.67342" stroke-width="0.5" stroke="grey" fill="grey"/>
   </g>
   <g id="cell108">
  <circle cx="140.305" cy="277.917" r="4.36049" stroke-width="0.5" stroke="black" fill="grey"/>
   </g>
   <g id="cell129">
  <circle cx="77.6041" cy="208.608" r="3.60293" stroke-width="0.5" stroke="black" fill="grey"/>
   </g>
   <g id="cell159">
  <circle cx="83.4548" cy="244.425" r="6.4928" stroke-width="0.5" stroke="black" fill="grey"/>
   </g>
   <g id="cell160">
  <circle cx="158.414" cy="115.963" r="6.45159" stroke-width="0.5" stroke="black" fill="grey"/>
   </g>
   <g id="cell166">
  <circle cx="160.151" cy="111.206" r="1.03457" stroke-width="0.5" stroke="black" fill="grey"/>
   </g>
   <g id="cell171">
  <circle cx="45.8259" cy="362.116" r="7.86358" stroke-width="0.5" stroke="black" fill="grey"/>
  <circle cx="45.8259" cy="362.116" r="4.07205" stroke-width="0.5" stroke="grey" fill="grey"/>
   </g>
   <g id="cell174">
  <circle cx="146.603" cy="226.792" r="7.76099" stroke-width="0.5" stroke="black" fill="grey"/>
  <circle cx="146.603" cy="226.792" r="3.87022" stroke-width="0.5" stroke="grey" fill="grey"/>
   </g>
   <g id="cell175">
  <circle cx="149.757" cy="167.904" r="7.23906" stroke-width="0.5" stroke="black" fill="grey"/>
  <circle cx="149.757" cy="167.904" r="2.67388" stroke-width="0.5" stroke="grey" fill="grey"/>
   </g>
   <g id="cell179">
  <circle cx="133.342" cy="258.936" r="8.36194" stroke-width="0.5" stroke="black" fill="grey"/>
  <circle cx="133.342" cy="258.936" r="4.96666" stroke-width="0.5" stroke="grey" fill="grey"/>
   </g>
   <g id="cell182">
  <circle cx="182.797" cy="199.861" r="4.8945" stroke-width="0.5" stroke="black" fill="grey"/>
   </g>
   <g id="cell195">
  <circle cx="75.9328" cy="125.657" r="6.45413" stroke-width="0.5" stroke="black" fill="grey"/>
   </g>
   <g id="cell217">
  <circle cx="99.3424" cy="238.878" r="6.14107" stroke-width="0.5" stroke="black" fill="grey"/>
   </g>
   <g id="cell232">
  <circle cx="104.414" cy="189.069" r="8.37017" stroke-width="0.5" stroke="black" fill="grey"/>
  <circle cx="104.414" cy="189.069" r="4.98051" stroke-width="0.5" stroke="grey" fill="grey"/>
   </g>
   <g id="cell237">
  <circle cx="175.238" cy="34.7171" r="8.12088" stroke-width="0.5" stroke="black" fill="grey"/>
  <circle cx="175.238" cy="34.7171" r="4.54911" stroke-width="0.5" stroke="grey" fill="grey"/>
   </g>
   <g id="cell255">
  <circle cx="149.006" cy="129.899" r="6.44566" stroke-width="0.5" stroke="black" fill="grey"/>
   </g>
   <g id="cell262">
  <circle cx="232.341" cy="152.353" r="6.25965" stroke-width="0.5" stroke="black" fill="grey"/>
   </g>
   <g id="cell275">
  <circle cx="26.0169" cy="179.056" r="6.4044" stroke-width="0.5" stroke="black" fill="grey"/>
   </g>
   <g id="cell279">
  <circle cx="121.572" cy="225.643" r="8.3634" stroke-width="0.5" stroke="black" fill="grey"/>
  <circle cx="121.572" cy="225.643" r="4.96912" stroke-width="0.5" stroke="grey" fill="grey"/>
   </g>
   <g id="cell288">
  <circle cx="95.7176" cy="123.796" r="5.67423" stroke-width="0.5" stroke="black" fill="grey"/>
   </g>
   <g id="cell300">
  <circle cx="159.081" cy="278.711" r="1.98813" stroke-width="0.5" stroke="black" fill="grey"/>
   </g>
   <g id="cell306">
  <circle cx="272.141" cy="231.251" r="2.7523" stroke-width="0.5" stroke="black" fill="grey"/>
   </g>
   <g id="cell309">
  <circle cx="198.889" cy="223.594" r="8.39726" stroke-width="0.5" stroke="black" fill="grey"/>
  <circle cx="198.889" cy="223.594" r="5.0259" stroke-width="0.5" stroke="grey" fill="grey"/>
   </g>
   <g id="cell310">
  <circle cx="172.804" cy="340.875" r="6.8021" stroke-width="0.5" stroke="black" fill="grey"/>
  <circle cx="172.804" cy="340.875" r="1.0071" stroke-width="0.5" stroke="grey" fill="grey"/>
   </g>
   <g id="cell317">
  <circle cx="113.167" cy="379.064" r="7.04049" stroke-width="0.5" stroke="black" fill="grey"/>
  <circle cx="113.167" cy="379.064" r="2.07706" stroke-width="0.5" stroke="grey" fill="grey"/>
   </g>
   <g id="cell339">
  <circle cx="123.99" cy="247.275" r="2.58764" stroke-width="0.5" stroke="black" fill="grey"/>
   </g>
   <g id="cell355">
  <circle cx="77.0654" cy="82.1351" r="8.13798" stroke-width="0.5" stroke="black" fill="grey"/>
  <circle cx="77.0654" cy="82.1351" r="4.57956" stroke-width="0.5" stroke="grey" fill="grey"/>
   </g>
   <g id="cell359">
  <circle cx="165.804" cy="233.945" r="8.3923" stroke-width="0.5" stroke="black" fill="grey"/>
  <circle cx="165.804" cy="233.945" r="5.01761" stroke-width="0.5" stroke="grey" fill="grey"/>
   </g>
   <g id="cell382">
  <circle cx="141.062" cy="186.184" r="6.64595" stroke-width="0.5" stroke="black" fill="grey"/>
   </g>
   <g id="cell389">
  <circle cx="259.265" cy="30.4416" r="6.54591" stroke-width="0.5" stroke="black" fill="grey"/>
   </g>
   <g id="cell395">
  <circle cx="167.107" cy="178.608" r="7.36487" stroke-width="0.5" stroke="black" fill="grey"/>
  <circle cx="167.107" cy="178.608" r="2.99782" stroke-width="0.5" stroke="grey" fill="grey"/>
   </g>
   <g id="cell423">
  <circle cx="56.5826" cy="199.77" r="6.92734" stroke-width="0.5" stroke="black" fill="grey"/>
  <circle cx="56.5826" cy="199.77" r="1.65341" stroke-width="0.5" stroke="grey" fill="grey"/>
   </g>
   <g id="cell425">
  <circle cx="100.578" cy="307.216" r="5.34319" stroke-width="0.5" stroke="black" fill="grey"/>
   </g>
   <g id="cell435">
  <circle cx="225.399" cy="82.9327" r="7.58073" stroke-width="0.5" stroke="black" fill="grey"/>
  <circle cx="225.399" cy="82.9327" r="3.49472" stroke-width="0.5" stroke="grey" fill="grey"/>
   </g>
   <g id="cell445">
  <circle cx="99.7317" cy="170.463" r="8.37238" stroke-width="0.5" stroke="black" fill="grey"/>
  <circle cx="99.7317" cy="170.463" r="4.98421" stroke-width="0.5" stroke="grey" fill="grey"/>
   </g>
   <g id="cell459">
  <circle cx="122.213" cy="138.187" r="8.41217" stroke-width="0.5" stroke="black" fill="grey"/>
  <circle cx="122.213" cy="138.187" r="5.05077" stroke-width="0.5" stroke="grey" fill="grey"/>
   </g>
   <g id="cell468">
  <circle cx="83.1778" cy="289.438" r="8.39156" stroke-width="0.5" stroke="black" fill="grey"/>
  <circle cx="83.1778" cy="289.438" r="5.01637" stroke-width="0.5" stroke="grey" fill="grey"/>
   </g>
   <g id="cell508">
  <circle cx="272.1" cy="208.978" r="2.08366" stroke-width="0.5" stroke="black" fill="red"/>
   </g>
   <g id="cell511">
  <circle cx="269.418" cy="167.578" r="6.04966" stroke-width="0.5" stroke="black" fill="red"/>
   </g>
   <g id="cell550">
  <circle cx="351.649" cy="175.303" r="3.29847" stroke-width="0.5" stroke="black" fill="red"/>
   </g>
   <g id="cell562">
  <circle cx="175.443" cy="244.026" r="8.41231" stroke-width="0.5" stroke="black" fill="red"/>
  <circle cx="175.443" cy="244.026" r="5.051" stroke-width="0.5" stroke="red" fill="red"/>
   </g>
   <g id="cell566">
  <circle cx="193.143" cy="209.796" r="5.76885" stroke-width="0.5" stroke="black" fill="red"/>
   </g>
   <g id="cell569">
  <circle cx="254.62" cy="114.89" r="6.45732" stroke-width="0.5" stroke="black" fill="red"/>
   </g>
   <g id="cell581">
  <circle cx="271.195" cy="134.894" r="5.30314" stroke-width="0.5" stroke="black" fill="red"/>
   </g>
   <g id="cell605">
  <circle cx="356.962" cy="212.571" r="7.0492" stroke-width="0.5" stroke="black" fill="red"/>
  <circle cx="356.962" cy="212.571" r="2.10641" stroke-width="0.5" stroke="red" fill="red"/>
   </g>
   <g id="cell616">
  <circle cx="314.827" cy="221.181" r="8.17194" stroke-width="0.5" stroke="black" fill="red"/>
  <circle cx="314.827" cy="221.181" r="4.63965" stroke-width="0.5" stroke="red" fill="red"/>
   </g>
   <g id="cell619">
  <circle cx="170.26" cy="129.803" r="7.52552" stroke-width="0.5" stroke="black" fill="red"/>
  <circle cx="170.26" cy="129.803" r="3.3733" stroke-width="0.5" stroke="red" fill="red"/>
   </g>
   <g id="cell624">
  <circle cx="262.097" cy="147.69" r="6.85534" stroke-width="0.5" stroke="black" fill="red"/>
  <circle cx="262.097" cy="147.69" r="1.31962" stroke-width="0.5" stroke="red" fill="red"/>
   </g>
   <g id="cell650">
  <circle cx="298.812" cy="259.389" r="7.84381" stroke-width="0.5" stroke="black" fill="red"/>
  <circle cx="298.812" cy="259.389" r="4.03373" stroke-width="0.5" stroke="red" fill="red"/>
   </g>
   <g id="cell652">
  <circle cx="225.654" cy="270.595" r="7.41489" stroke-width="0.5" stroke="black" fill="red"/>
  <circle cx="225.654" cy="270.595" r="3.11871" stroke-width="0.5" stroke="red" fill="red"/>
   </g>
   <g id="cell654">
  <circle cx="297.066" cy="92.7451" r="7.87697" stroke-width="0.5" stroke="black" fill="red"/>
  <circle cx="297.066" cy="92.7451" r="4.09784" stroke-width="0.5" stroke="red" fill="red"/>
   </g>
   <g id="cell657">
  <circle cx="303.003" cy="133.991" r="8.31918" stroke-width="0.5" stroke="black" fill="red"/>
  <circle cx="303.003" cy="133.991" r="4.89432" stroke-width="0.5" stroke="red" fill="red"/>
   </g>
   <g id="cell687">
  <circle cx="235.378" cy="107.679" r="8.12001" stroke-width="0.5" stroke="black" fill="red"/>
  <circle cx="235.378" cy="107.679" r="4.54755" stroke-width="0.5" stroke="red" fill="red"/>
   </g>
   <g id="cell689">
  <circle cx="200.318" cy="118.608" r="5.35574" stroke-width="0.5" stroke="black" fill="red"/>
   </g>
   <g id="cell710">
  <circle cx="242.216" cy="200.012" r="4.40942" stroke-width="0.5" stroke="black" fill="red"/>
   </g>
   <g id="cell711">
  <circle cx="287.722" cy="189.459" r="7.06239" stroke-width="0.5" stroke="black" fill="red"/>
  <circle cx="287.722" cy="189.459" r="2.15011" stroke-width="0.5" stroke="red" fill="red"/>
   </g>
   <g id="cell743">
  <circle cx="383.159" cy="178.841" r="7.41254" stroke-width="0.5" stroke="black" fill="red"/>
  <circle cx="383.159" cy="178.841" r="3.1131" stroke-width="0.5" stroke="red" fill="red"/>
   </g>
   <g id="cell744">
  <circle cx="281.463" cy="100.997" r="8.27916" stroke-width="0.5" stroke="black" fill="red"/>
  <circle cx="281.463" cy="100.997" r="4.82599" stroke-width="0.5" stroke="red" fill="red"/>
   </g>
   <g id="cell750">
  <circle cx="363.886" cy="96.0218" r="7.99863" stroke-width="0.5" stroke="black" fill="red"/>
  <circle cx="363.886" cy="96.0218" r="4.32709" stroke-width="0.5" stroke="red" fill="red"/>
   </g>
   <g id="cell760">
  <circle cx="206.582" cy="307.532" r="8.20157" stroke-width="0.5" stroke="black" fill="red"/>
  <circle cx="206.582" cy="307.532" r="4.69164" stroke-width="0.5" stroke="red" fill="red"/>
   </g>
   <g id="cell767">
  <circle cx="249.747" cy="102.612" r="7.36716" stroke-width="0.5" stroke="black" fill="red"/>
  <circle cx="249.747" cy="102.612" r="3.00345" stroke-width="0.5" stroke="red" fill="red"/>
   </g>
   <g id="cell771">
  <circle cx="191.825" cy="159.825" r="8.16001" stroke-width="0.5" stroke="black" fill="red"/>
  <circle cx="191.825" cy="159.825" r="4.61859" stroke-width="0.5" stroke="red" fill="red"/>
   </g>
   <g id="cell777">
  <circle cx="275.092" cy="259.434" r="8.26953" stroke-width="0.5" stroke="black" fill="red"/>
  <circle cx="275.092" cy="259.434" r="4.80945" stroke-width="0.5" stroke="red" fill="red"/>
   </g>
   <g id="cell783">
  <circle cx="318.019" cy="44.5414" r="7.8853" stroke-width="0.5" stroke="black" fill="red"/>
  <circle cx="318.019" cy="44.5414" r="4.11383" stroke-width="0.5" stroke="red" fill="red"/>
   </g>
   <g id="cell802">
  <circle cx="294.073" cy="117.767" r="7.28592" stroke-width="0.5" stroke="black" fill="red"/>
  <circle cx="294.073" cy="117.767" r="2.79826" stroke-width="0.5" stroke="red" fill="red"/>
   </g>
   <g id="cell836">
  <circle cx="277.861" cy="82.8911" r="3.24826" stroke-width="0.5" stroke="black" fill="red"/>
   </g>
   <g id="cell845">
  <circle cx="255.108" cy="66.3677" r="7.27803" stroke-width="0.5" stroke="black" fill="red"/>
  <circle cx="255.108" cy="66.3677" r="2.77767" stroke-width="0.5" stroke="red" fill="red"/>
   </g>
   <g id="cell886">
  <circle cx="337.93" cy="254.341" r="6.28708" stroke-width="0.5" stroke="black" fill="red"/>
   </g>
   <g id="cell900">
  <circle cx="293.547" cy="300.486" r="4.24037" stroke-width="0.5" stroke="black" fill="red"/>
   </g>
   <g id="cell967">
  <circle cx="221.479" cy="202.745" r="3.0684" stroke-width="0.5" stroke="black" fill="red"/>
   </g>
  </g>
 </g>
  <rect x="190" y="414" width="200" height="4" stroke-width="0.8" stroke="rgb(255,255,255)" fill="rgb(0,0,0)"/>
  <text x="192.5" y="411.5"
   font-family="Arial" font-size="10" fill="black" >
   200 &#956;m
  </text>
  <text x="10" y="418"
   font-family="Arial" font-size="7.5" fill="black" >
   0 days, 0 hours, 21 minutes, and 27.0146 seconds
  </text>
  <rect x="0" y="28" width="400" height="400" stroke-width="0.8" stroke="rgb(0,0,0)" fill="none"/>
</svg>
