<?xml version="1.0" encoding="UTF-8" standalone="no"?>
<!-- Created with PhysiCell (http://PhysiCell.MathCancer.org/) -->
<svg 
 xmlns:dc="http://purl.org/dc/elements/1.1/" 
 xmlns:cc="http://creativecommons.org/ns#" 
 xmlns:rdf="http://www.w3.org/1999/02/22-rdf-syntax-ns#" 
 xmlns:svg="http://www.w3.org/2000/svg" 
 xmlns="http://www.w3.org/2000/svg" 
 version="1.1" 
 width="400" 
 height="428" 
 id="svg2">
  <rect x="0" y="0" width="400" height="428" stroke-width="0.8" stroke="white" fill="white"/>
  <text x="5" y="12"
   font-family="Arial" font-size="10" fill="black" >
   Current time: 1 days, 20 hours, and 0.00 minutes, z = 0.00 &#956;m
  </text>
  <text x="5" y="23"
   font-family="Arial" font-size="9.5" fill="black" >
   978 agents
  </text>
 <g id="tissue" 
    transform="translate(0,428) scale(1,-1)">
  <g id="ECM">
  </g>
  <g id="cells">
   <g id="cell20">
  <circle cx="131.269" cy="258.575" r="3.51128" stroke-width="0.5" stroke="black" fill="grey"/>
   </g>
   <g id="cell35">
  <circle cx="189.808" cy="135.992" r="7.36589" stroke-width="0.5" stroke="black" fill="grey"/>
  <circle cx="189.808" cy="135.992" r="3.00034" stroke-width="0.5" stroke="grey" fill="grey"/>
   </g>
   <g id="cell47">
  <circle cx="90.2421" cy="335.219" r="8.41206" stroke-width="0.5" stroke="black" fill="grey"/>
  <circle cx="90.2421" cy="335.219" r="5.05059" stroke-width="0.5" stroke="grey" fill="grey"/>
   </g>
   <g id="cell82">
  <circle cx="123.796" cy="183.975" r="2.89945" stroke-width="0.5" stroke="black" fill="grey"/>
   </g>
   <g id="cell92">
  <circle cx="108.701" cy="223.257" r="8.28189" stroke-width="0.5" stroke="black" fill="grey"/>
  <circle cx="108.701" cy="223.257" r="4.83068" stroke-width="0.5" stroke="grey" fill="grey"/>
   </g>
   <g id="cell104">
  <circle cx="135.795" cy="133.975" r="6.79544" stroke-width="0.5" stroke="black" fill="grey"/>
  <circle cx="135.795" cy="133.975" r="0.961112" stroke-width="0.5" stroke="grey" fill="grey"/>
   </g>
   <g id="cell135">
  <circle cx="82.4712" cy="186.988" r="7.9729" stroke-width="0.5" stroke="black" fill="grey"/>
  <circle cx="82.4712" cy="186.988" r="4.27935" stroke-width="0.5" stroke="grey" fill="grey"/>
   </g>
   <g id="cell144">
  <circle cx="110.044" cy="257.4" r="4.17699" stroke-width="0.5" stroke="black" fill="grey"/>
   </g>
   <g id="cell164">
  <circle cx="128.251" cy="173.475" r="7.9582" stroke-width="0.5" stroke="black" fill="grey"/>
  <circle cx="128.251" cy="173.475" r="4.25189" stroke-width="0.5" stroke="grey" fill="grey"/>
   </g>
   <g id="cell168">
  <circle cx="149.615" cy="239.175" r="8.29591" stroke-width="0.5" stroke="black" fill="grey"/>
  <circle cx="149.615" cy="239.175" r="4.85466" stroke-width="0.5" stroke="grey" fill="grey"/>
   </g>
   <g id="cell170">
  <circle cx="80.2651" cy="270.559" r="2.96617" stroke-width="0.5" stroke="black" fill="grey"/>
   </g>
   <g id="cell173">
  <circle cx="119.732" cy="104.744" r="8.39206" stroke-width="0.5" stroke="black" fill="grey"/>
  <circle cx="119.732" cy="104.744" r="5.0172" stroke-width="0.5" stroke="grey" fill="grey"/>
   </g>
   <g id="cell174">
  <circle cx="160.182" cy="178.73" r="7.06672" stroke-width="0.5" stroke="black" fill="grey"/>
  <circle cx="160.182" cy="178.73" r="2.16431" stroke-width="0.5" stroke="grey" fill="grey"/>
   </g>
   <g id="cell179">
  <circle cx="121.953" cy="265.745" r="8.18031" stroke-width="0.5" stroke="black" fill="grey"/>
  <circle cx="121.953" cy="265.745" r="4.65437" stroke-width="0.5" stroke="grey" fill="grey"/>
   </g>
   <g id="cell182">
  <circle cx="177.912" cy="169.244" r="7.91027" stroke-width="0.5" stroke="black" fill="grey"/>
  <circle cx="177.912" cy="169.244" r="4.1615" stroke-width="0.5" stroke="grey" fill="grey"/>
   </g>
   <g id="cell190">
  <circle cx="188.803" cy="150.622" r="4.19522" stroke-width="0.5" stroke="black" fill="grey"/>
   </g>
   <g id="cell191">
  <circle cx="192.937" cy="223.852" r="2.46338" stroke-width="0.5" stroke="black" fill="grey"/>
   </g>
   <g id="cell201">
  <circle cx="59.1953" cy="243.771" r="4.72802" stroke-width="0.5" stroke="black" fill="grey"/>
   </g>
   <g id="cell218">
  <circle cx="81.6271" cy="247.923" r="5.63009" stroke-width="0.5" stroke="black" fill="grey"/>
   </g>
   <g id="cell223">
  <circle cx="132.021" cy="203.855" r="8.34039" stroke-width="0.5" stroke="black" fill="grey"/>
  <circle cx="132.021" cy="203.855" r="4.9303" stroke-width="0.5" stroke="grey" fill="grey"/>
   </g>
   <g id="cell241">
  <circle cx="177.207" cy="210.439" r="8.23376" stroke-width="0.5" stroke="black" fill="grey"/>
  <circle cx="177.207" cy="210.439" r="4.74768" stroke-width="0.5" stroke="grey" fill="grey"/>
   </g>
   <g id="cell242">
  <circle cx="81.0534" cy="208.604" r="8.12373" stroke-width="0.5" stroke="black" fill="grey"/>
  <circle cx="81.0534" cy="208.604" r="4.55419" stroke-width="0.5" stroke="grey" fill="grey"/>
   </g>
   <g id="cell245">
  <circle cx="174.186" cy="196.806" r="6.11716" stroke-width="0.5" stroke="black" fill="grey"/>
   </g>
   <g id="cell255">
  <circle cx="155.76" cy="163.583" r="6.34621" stroke-width="0.5" stroke="black" fill="grey"/>
   </g>
   <g id="cell275">
  <circle cx="7.75701" cy="231.944" r="7.50962" stroke-width="0.5" stroke="black" fill="grey"/>
  <circle cx="7.75701" cy="231.944" r="3.33767" stroke-width="0.5" stroke="grey" fill="grey"/>
   </g>
   <g id="cell281">
  <circle cx="106.515" cy="145.298" r="8.41177" stroke-width="0.5" stroke="black" fill="grey"/>
  <circle cx="106.515" cy="145.298" r="5.0501" stroke-width="0.5" stroke="grey" fill="grey"/>
   </g>
   <g id="cell288">
  <circle cx="106.328" cy="126.078" r="8.24288" stroke-width="0.5" stroke="black" fill="grey"/>
  <circle cx="106.328" cy="126.078" r="4.76348" stroke-width="0.5" stroke="grey" fill="grey"/>
   </g>
   <g id="cell300">
  <circle cx="140.084" cy="275.662" r="6.52015" stroke-width="0.5" stroke="black" fill="grey"/>
   </g>
   <g id="cell309">
  <circle cx="173.672" cy="187.136" r="6.21813" stroke-width="0.5" stroke="black" fill="grey"/>
   </g>
   <g id="cell310">
  <circle cx="155.647" cy="344.002" r="7.2116" stroke-width="0.5" stroke="black" fill="grey"/>
  <circle cx="155.647" cy="344.002" r="2.59863" stroke-width="0.5" stroke="grey" fill="grey"/>
   </g>
   <g id="cell314">
  <circle cx="176.723" cy="228.447" r="8.24888" stroke-width="0.5" stroke="black" fill="grey"/>
  <circle cx="176.723" cy="228.447" r="4.77385" stroke-width="0.5" stroke="grey" fill="grey"/>
   </g>
   <g id="cell322">
  <circle cx="190.579" cy="198.926" r="8.41235" stroke-width="0.5" stroke="black" fill="grey"/>
  <circle cx="190.579" cy="198.926" r="5.05106" stroke-width="0.5" stroke="grey" fill="grey"/>
   </g>
   <g id="cell359">
  <circle cx="114.38" cy="237.669" r="5.79797" stroke-width="0.5" stroke="black" fill="grey"/>
   </g>
   <g id="cell396">
  <circle cx="238.136" cy="173.864" r="8.23793" stroke-width="0.5" stroke="black" fill="grey"/>
  <circle cx="238.136" cy="173.864" r="4.75491" stroke-width="0.5" stroke="grey" fill="grey"/>
   </g>
   <g id="cell423">
  <circle cx="131.793" cy="242.272" r="7.82625" stroke-width="0.5" stroke="black" fill="grey"/>
  <circle cx="131.793" cy="242.272" r="3.99949" stroke-width="0.5" stroke="grey" fill="grey"/>
   </g>
   <g id="cell435">
  <circle cx="190.847" cy="83.0493" r="6.41099" stroke-width="0.5" stroke="black" fill="grey"/>
   </g>
   <g id="cell437">
  <circle cx="135.647" cy="227.633" r="8.36126" stroke-width="0.5" stroke="black" fill="grey"/>
  <circle cx="135.647" cy="227.633" r="4.96552" stroke-width="0.5" stroke="grey" fill="grey"/>
   </g>
   <g id="cell464">
  <circle cx="124.42" cy="146.381" r="8.29342" stroke-width="0.5" stroke="black" fill="grey"/>
  <circle cx="124.42" cy="146.381" r="4.85042" stroke-width="0.5" stroke="grey" fill="grey"/>
   </g>
   <g id="cell481">
  <circle cx="246.441" cy="196.235" r="8.11229" stroke-width="0.5" stroke="black" fill="grey"/>
  <circle cx="246.441" cy="196.235" r="4.53375" stroke-width="0.5" stroke="grey" fill="grey"/>
   </g>
   <g id="cell527">
  <circle cx="270.349" cy="184.776" r="5.88169" stroke-width="0.5" stroke="black" fill="red"/>
   </g>
   <g id="cell536">
  <circle cx="211.73" cy="241.226" r="5.37229" stroke-width="0.5" stroke="black" fill="red"/>
   </g>
   <g id="cell543">
  <circle cx="297.738" cy="124.402" r="5.21263" stroke-width="0.5" stroke="black" fill="red"/>
   </g>
   <g id="cell573">
  <circle cx="240.96" cy="237.128" r="8.05855" stroke-width="0.5" stroke="black" fill="red"/>
  <circle cx="240.96" cy="237.128" r="4.43688" stroke-width="0.5" stroke="red" fill="red"/>
   </g>
   <g id="cell597">
  <circle cx="294.944" cy="252.129" r="8.31433" stroke-width="0.5" stroke="black" fill="red"/>
  <circle cx="294.944" cy="252.129" r="4.88609" stroke-width="0.5" stroke="red" fill="red"/>
   </g>
   <g id="cell617">
  <circle cx="362.101" cy="181.452" r="3.13893" stroke-width="0.5" stroke="black" fill="red"/>
   </g>
   <g id="cell625">
  <circle cx="222.313" cy="178.78" r="5.42079" stroke-width="0.5" stroke="black" fill="red"/>
   </g>
   <g id="cell626">
  <circle cx="232.266" cy="187.703" r="8.39353" stroke-width="0.5" stroke="black" fill="red"/>
  <circle cx="232.266" cy="187.703" r="5.01966" stroke-width="0.5" stroke="red" fill="red"/>
   </g>
   <g id="cell627">
  <circle cx="237.358" cy="289.986" r="8.32217" stroke-width="0.5" stroke="black" fill="red"/>
  <circle cx="237.358" cy="289.986" r="4.8994" stroke-width="0.5" stroke="red" fill="red"/>
   </g>
   <g id="cell636">
  <circle cx="253.433" cy="100.883" r="1.00283" stroke-width="0.5" stroke="black" fill="red"/>
   </g>
   <g id="cell648">
  <circle cx="310.474" cy="217.188" r="2.90986" stroke-width="0.5" stroke="black" fill="red"/>
   </g>
   <g id="cell656">
  <circle cx="290.587" cy="193.589" r="4.90752" stroke-width="0.5" stroke="black" fill="red"/>
   </g>
   <g id="cell667">
  <circle cx="336.612" cy="240.764" r="3.83627" stroke-width="0.5" stroke="black" fill="red"/>
   </g>
   <g id="cell668">
  <circle cx="306.909" cy="234.276" r="8.10283" stroke-width="0.5" stroke="black" fill="red"/>
  <circle cx="306.909" cy="234.276" r="4.51681" stroke-width="0.5" stroke="red" fill="red"/>
   </g>
   <g id="cell675">
  <circle cx="387.032" cy="268.908" r="8.39879" stroke-width="0.5" stroke="black" fill="red"/>
  <circle cx="387.032" cy="268.908" r="5.02845" stroke-width="0.5" stroke="red" fill="red"/>
   </g>
   <g id="cell677">
  <circle cx="336.039" cy="105.424" r="4.53015" stroke-width="0.5" stroke="black" fill="red"/>
   </g>
   <g id="cell679">
  <circle cx="332.319" cy="187.847" r="1.0074" stroke-width="0.5" stroke="black" fill="red"/>
   </g>
   <g id="cell685">
  <circle cx="204.753" cy="198.269" r="8.35856" stroke-width="0.5" stroke="black" fill="red"/>
  <circle cx="204.753" cy="198.269" r="4.96096" stroke-width="0.5" stroke="red" fill="red"/>
   </g>
   <g id="cell686">
  <circle cx="204.675" cy="251.245" r="6.51493" stroke-width="0.5" stroke="black" fill="red"/>
   </g>
   <g id="cell700">
  <circle cx="212.433" cy="97.1347" r="7.1348" stroke-width="0.5" stroke="black" fill="red"/>
  <circle cx="212.433" cy="97.1347" r="2.37719" stroke-width="0.5" stroke="red" fill="red"/>
   </g>
   <g id="cell702">
  <circle cx="231.547" cy="206.308" r="5.49277" stroke-width="0.5" stroke="black" fill="red"/>
   </g>
   <g id="cell704">
  <circle cx="204.693" cy="227.472" r="6.42063" stroke-width="0.5" stroke="black" fill="red"/>
   </g>
   <g id="cell733">
  <circle cx="283.637" cy="297.294" r="8.0323" stroke-width="0.5" stroke="black" fill="red"/>
  <circle cx="283.637" cy="297.294" r="4.38902" stroke-width="0.5" stroke="red" fill="red"/>
   </g>
   <g id="cell745">
  <circle cx="329.36" cy="118.266" r="8.21217" stroke-width="0.5" stroke="black" fill="red"/>
  <circle cx="329.36" cy="118.266" r="4.71014" stroke-width="0.5" stroke="red" fill="red"/>
   </g>
   <g id="cell769">
  <circle cx="258.023" cy="188.238" r="8.02351" stroke-width="0.5" stroke="black" fill="red"/>
  <circle cx="258.023" cy="188.238" r="4.37292" stroke-width="0.5" stroke="red" fill="red"/>
   </g>
   <g id="cell777">
  <circle cx="288.223" cy="220.545" r="7.7675" stroke-width="0.5" stroke="black" fill="red"/>
  <circle cx="288.223" cy="220.545" r="3.88327" stroke-width="0.5" stroke="red" fill="red"/>
   </g>
   <g id="cell802">
  <circle cx="315.105" cy="122.359" r="2.64295" stroke-width="0.5" stroke="black" fill="red"/>
   </g>
   <g id="cell818">
  <circle cx="325.36" cy="161.614" r="7.90308" stroke-width="0.5" stroke="black" fill="red"/>
  <circle cx="325.36" cy="161.614" r="4.14781" stroke-width="0.5" stroke="red" fill="red"/>
   </g>
   <g id="cell829">
  <circle cx="161.39" cy="145.018" r="6.16244" stroke-width="0.5" stroke="black" fill="red"/>
   </g>
   <g id="cell837">
  <circle cx="256.288" cy="147.874" r="6.33945" stroke-width="0.5" stroke="black" fill="red"/>
   </g>
   <g id="cell861">
  <circle cx="262.349" cy="46.5423" r="3.43789" stroke-width="0.5" stroke="black" fill="red"/>
   </g>
   <g id="cell867">
  <circle cx="275.673" cy="255.312" r="7.7099" stroke-width="0.5" stroke="black" fill="red"/>
  <circle cx="275.673" cy="255.312" r="3.76673" stroke-width="0.5" stroke="red" fill="red"/>
   </g>
   <g id="cell872">
  <circle cx="344.826" cy="144.703" r="7.32173" stroke-width="0.5" stroke="black" fill="red"/>
  <circle cx="344.826" cy="144.703" r="2.89023" stroke-width="0.5" stroke="red" fill="red"/>
   </g>
   <g id="cell894">
  <circle cx="231.855" cy="129.035" r="7.55578" stroke-width="0.5" stroke="black" fill="red"/>
  <circle cx="231.855" cy="129.035" r="3.44027" stroke-width="0.5" stroke="red" fill="red"/>
   </g>
   <g id="cell896">
  <circle cx="276.461" cy="127.16" r="4.20713" stroke-width="0.5" stroke="black" fill="red"/>
   </g>
   <g id="cell933">
  <circle cx="363.3" cy="205.383" r="6.21346" stroke-width="0.5" stroke="black" fill="red"/>
   </g>
   <g id="cell935">
  <circle cx="304.881" cy="263.944" r="7.90727" stroke-width="0.5" stroke="black" fill="red"/>
  <circle cx="304.881" cy="263.944" r="4.15579" stroke-width="0.5" stroke="red" fill="red"/>
   </g>
  </g>
 </g>
  <rect x="190" y="414" width="200" height="4" stroke-width="0.8" stroke="rgb(255,255,255)" fill="rgb(0,0,0)"/>
  <text x="192.5" y="411.5"
   font-family="Arial" font-size="10" fill="black" >
   200 &#956;m
  </text>
  <text x="10" y="418"
   font-family="Arial" font-size="7.5" fill="black" >
   0 days, 0 hours, 13 minutes, and 6.8579 seconds
  </text>
  <rect x="0" y="28" width="400" height="400" stroke-width="0.8" stroke="rgb(0,0,0)" fill="none"/>
</svg>
