<?xml version="1.0" encoding="UTF-8" standalone="no"?>
<!-- Created with PhysiCell (http://PhysiCell.MathCancer.org/) -->
<svg 
 xmlns:dc="http://purl.org/dc/elements/1.1/" 
 xmlns:cc="http://creativecommons.org/ns#" 
 xmlns:rdf="http://www.w3.org/1999/02/22-rdf-syntax-ns#" 
 xmlns:svg="http://www.w3.org/2000/svg" 
 xmlns="http://www.w3.org/2000/svg" 
 version="1.1" 
 width="400" 
 height="428" 
 id="svg2">
  <rect x="0" y="0" width="400" height="428" stroke-width="0.8" stroke="white" fill="white"/>
  <text x="5" y="12"
   font-family="Arial" font-size="10" fill="black" >
   Current time: 2 days, 5 hours, and 0.00 minutes, z = 0.00 &#956;m
  </text>
  <text x="5" y="23"
   font-family="Arial" font-size="9.5" fill="black" >
   978 agents
  </text>
 <g id="tissue" 
    transform="translate(0,428) scale(1,-1)">
  <g id="ECM">
  </g>
  <g id="cells">
   <g id="cell36">
  <circle cx="72.2607" cy="203.499" r="6.69721" stroke-width="0.5" stroke="black" fill="grey"/>
   </g>
   <g id="cell71">
  <circle cx="86.8085" cy="197.929" r="6.68472" stroke-width="0.5" stroke="black" fill="grey"/>
   </g>
   <g id="cell90">
  <circle cx="100.832" cy="171.729" r="7.82974" stroke-width="0.5" stroke="black" fill="grey"/>
  <circle cx="100.832" cy="171.729" r="4.00632" stroke-width="0.5" stroke="grey" fill="grey"/>
   </g>
   <g id="cell93">
  <circle cx="61.2327" cy="287.874" r="7.9258" stroke-width="0.5" stroke="black" fill="grey"/>
  <circle cx="61.2327" cy="287.874" r="4.19094" stroke-width="0.5" stroke="grey" fill="grey"/>
   </g>
   <g id="cell104">
  <circle cx="112.329" cy="118.814" r="8.38245" stroke-width="0.5" stroke="black" fill="grey"/>
  <circle cx="112.329" cy="118.814" r="5.00111" stroke-width="0.5" stroke="grey" fill="grey"/>
   </g>
   <g id="cell122">
  <circle cx="177.852" cy="148.924" r="5.48368" stroke-width="0.5" stroke="black" fill="grey"/>
   </g>
   <g id="cell145">
  <circle cx="126.401" cy="237.678" r="5.96137" stroke-width="0.5" stroke="black" fill="grey"/>
   </g>
   <g id="cell151">
  <circle cx="47.9662" cy="183.389" r="7.51062" stroke-width="0.5" stroke="black" fill="grey"/>
  <circle cx="47.9662" cy="183.389" r="3.33993" stroke-width="0.5" stroke="grey" fill="grey"/>
   </g>
   <g id="cell164">
  <circle cx="133.022" cy="177.26" r="8.39542" stroke-width="0.5" stroke="black" fill="grey"/>
  <circle cx="133.022" cy="177.26" r="5.02282" stroke-width="0.5" stroke="grey" fill="grey"/>
   </g>
   <g id="cell168">
  <circle cx="138.279" cy="242.298" r="8.37017" stroke-width="0.5" stroke="black" fill="grey"/>
  <circle cx="138.279" cy="242.298" r="4.9805" stroke-width="0.5" stroke="grey" fill="grey"/>
   </g>
   <g id="cell173">
  <circle cx="121.389" cy="109.043" r="4.10118" stroke-width="0.5" stroke="black" fill="grey"/>
   </g>
   <g id="cell175">
  <circle cx="141.604" cy="156.243" r="1.38196" stroke-width="0.5" stroke="black" fill="grey"/>
   </g>
   <g id="cell191">
  <circle cx="184.707" cy="234.994" r="6.63107" stroke-width="0.5" stroke="black" fill="grey"/>
   </g>
   <g id="cell207">
  <circle cx="51.5328" cy="208.801" r="2.98265" stroke-width="0.5" stroke="black" fill="grey"/>
   </g>
   <g id="cell217">
  <circle cx="94.2021" cy="237.663" r="4.56248" stroke-width="0.5" stroke="black" fill="grey"/>
   </g>
   <g id="cell218">
  <circle cx="58.003" cy="254.035" r="4.36882" stroke-width="0.5" stroke="black" fill="grey"/>
   </g>
   <g id="cell221">
  <circle cx="115.839" cy="134.641" r="7.33202" stroke-width="0.5" stroke="black" fill="grey"/>
  <circle cx="115.839" cy="134.641" r="2.9162" stroke-width="0.5" stroke="grey" fill="grey"/>
   </g>
   <g id="cell226">
  <circle cx="108.974" cy="309.115" r="8.17159" stroke-width="0.5" stroke="black" fill="grey"/>
  <circle cx="108.974" cy="309.115" r="4.63902" stroke-width="0.5" stroke="grey" fill="grey"/>
   </g>
   <g id="cell231">
  <circle cx="133.221" cy="191.526" r="6.04578" stroke-width="0.5" stroke="black" fill="grey"/>
   </g>
   <g id="cell232">
  <circle cx="111.198" cy="204.193" r="4.88796" stroke-width="0.5" stroke="black" fill="grey"/>
   </g>
   <g id="cell245">
  <circle cx="182.143" cy="206.45" r="8.39807" stroke-width="0.5" stroke="black" fill="grey"/>
  <circle cx="182.143" cy="206.45" r="5.02726" stroke-width="0.5" stroke="grey" fill="grey"/>
   </g>
   <g id="cell292">
  <circle cx="75.4122" cy="236.522" r="4.2178" stroke-width="0.5" stroke="black" fill="grey"/>
   </g>
   <g id="cell301">
  <circle cx="136.21" cy="267.029" r="8.20895" stroke-width="0.5" stroke="black" fill="grey"/>
  <circle cx="136.21" cy="267.029" r="4.70453" stroke-width="0.5" stroke="grey" fill="grey"/>
   </g>
   <g id="cell310">
  <circle cx="153.187" cy="332.196" r="2.88761" stroke-width="0.5" stroke="black" fill="grey"/>
   </g>
   <g id="cell329">
  <circle cx="152.415" cy="182.242" r="4.95663" stroke-width="0.5" stroke="black" fill="grey"/>
   </g>
   <g id="cell340">
  <circle cx="111.978" cy="64.2459" r="7.79404" stroke-width="0.5" stroke="black" fill="grey"/>
  <circle cx="111.978" cy="64.2459" r="3.93608" stroke-width="0.5" stroke="grey" fill="grey"/>
   </g>
   <g id="cell375">
  <circle cx="151.624" cy="166.914" r="7.93964" stroke-width="0.5" stroke="black" fill="grey"/>
  <circle cx="151.624" cy="166.914" r="4.21706" stroke-width="0.5" stroke="grey" fill="grey"/>
   </g>
   <g id="cell389">
  <circle cx="233.882" cy="67.5886" r="5.9234" stroke-width="0.5" stroke="black" fill="grey"/>
   </g>
   <g id="cell390">
  <circle cx="207.436" cy="183.56" r="3.95566" stroke-width="0.5" stroke="black" fill="grey"/>
   </g>
   <g id="cell395">
  <circle cx="188.581" cy="185.166" r="5.9477" stroke-width="0.5" stroke="black" fill="grey"/>
   </g>
   <g id="cell397">
  <circle cx="192.617" cy="253.78" r="8.09036" stroke-width="0.5" stroke="black" fill="grey"/>
  <circle cx="192.617" cy="253.78" r="4.49439" stroke-width="0.5" stroke="grey" fill="grey"/>
   </g>
   <g id="cell405">
  <circle cx="133.102" cy="137.467" r="6.79027" stroke-width="0.5" stroke="black" fill="grey"/>
  <circle cx="133.102" cy="137.467" r="0.92382" stroke-width="0.5" stroke="grey" fill="grey"/>
   </g>
   <g id="cell408">
  <circle cx="32.9181" cy="153.221" r="3.96149" stroke-width="0.5" stroke="black" fill="grey"/>
   </g>
   <g id="cell413">
  <circle cx="102.473" cy="96.0162" r="8.38749" stroke-width="0.5" stroke="black" fill="grey"/>
  <circle cx="102.473" cy="96.0162" r="5.00957" stroke-width="0.5" stroke="grey" fill="grey"/>
   </g>
   <g id="cell481">
  <circle cx="261.707" cy="211.927" r="7.61152" stroke-width="0.5" stroke="black" fill="grey"/>
  <circle cx="261.707" cy="211.927" r="3.56102" stroke-width="0.5" stroke="grey" fill="grey"/>
   </g>
   <g id="cell513">
  <circle cx="265.505" cy="225.894" r="8.31918" stroke-width="0.5" stroke="black" fill="red"/>
  <circle cx="265.505" cy="225.894" r="4.89433" stroke-width="0.5" stroke="red" fill="red"/>
   </g>
   <g id="cell594">
  <circle cx="326.905" cy="78.6721" r="4.91756" stroke-width="0.5" stroke="black" fill="red"/>
   </g>
   <g id="cell597">
  <circle cx="285.352" cy="257.522" r="8.28984" stroke-width="0.5" stroke="black" fill="red"/>
  <circle cx="285.352" cy="257.522" r="4.84429" stroke-width="0.5" stroke="red" fill="red"/>
   </g>
   <g id="cell606">
  <circle cx="352.397" cy="211.986" r="6.73356" stroke-width="0.5" stroke="black" fill="red"/>
  <circle cx="352.397" cy="211.986" r="0.294211" stroke-width="0.5" stroke="red" fill="red"/>
   </g>
   <g id="cell633">
  <circle cx="246.215" cy="271.378" r="8.41171" stroke-width="0.5" stroke="black" fill="red"/>
  <circle cx="246.215" cy="271.378" r="5.05" stroke-width="0.5" stroke="red" fill="red"/>
   </g>
   <g id="cell648">
  <circle cx="320.149" cy="229.222" r="5.03327" stroke-width="0.5" stroke="black" fill="red"/>
   </g>
   <g id="cell652">
  <circle cx="182.21" cy="249.094" r="4.31855" stroke-width="0.5" stroke="black" fill="red"/>
   </g>
   <g id="cell659">
  <circle cx="311.461" cy="246.035" r="8.05128" stroke-width="0.5" stroke="black" fill="red"/>
  <circle cx="311.461" cy="246.035" r="4.42367" stroke-width="0.5" stroke="red" fill="red"/>
   </g>
   <g id="cell660">
  <circle cx="235.771" cy="328.546" r="6.15611" stroke-width="0.5" stroke="black" fill="red"/>
   </g>
   <g id="cell669">
  <circle cx="356.607" cy="124.927" r="7.98643" stroke-width="0.5" stroke="black" fill="red"/>
  <circle cx="356.607" cy="124.927" r="4.3045" stroke-width="0.5" stroke="red" fill="red"/>
   </g>
   <g id="cell677">
  <circle cx="346.139" cy="111.148" r="6.64753" stroke-width="0.5" stroke="black" fill="red"/>
   </g>
   <g id="cell683">
  <circle cx="345.487" cy="169.396" r="7.93662" stroke-width="0.5" stroke="black" fill="red"/>
  <circle cx="345.487" cy="169.396" r="4.21137" stroke-width="0.5" stroke="red" fill="red"/>
   </g>
   <g id="cell685">
  <circle cx="220.57" cy="167.724" r="6.63791" stroke-width="0.5" stroke="black" fill="red"/>
   </g>
   <g id="cell702">
  <circle cx="200.238" cy="196.771" r="8.10996" stroke-width="0.5" stroke="black" fill="red"/>
  <circle cx="200.238" cy="196.771" r="4.52959" stroke-width="0.5" stroke="red" fill="red"/>
   </g>
   <g id="cell704">
  <circle cx="183.35" cy="219.595" r="6.82209" stroke-width="0.5" stroke="black" fill="red"/>
  <circle cx="183.35" cy="219.595" r="1.1343" stroke-width="0.5" stroke="red" fill="red"/>
   </g>
   <g id="cell709">
  <circle cx="183.998" cy="111.914" r="8.41096" stroke-width="0.5" stroke="black" fill="red"/>
  <circle cx="183.998" cy="111.914" r="5.04876" stroke-width="0.5" stroke="red" fill="red"/>
   </g>
   <g id="cell710">
  <circle cx="243.731" cy="190.572" r="8.40875" stroke-width="0.5" stroke="black" fill="red"/>
  <circle cx="243.731" cy="190.572" r="5.04507" stroke-width="0.5" stroke="red" fill="red"/>
   </g>
   <g id="cell725">
  <circle cx="289.855" cy="107.272" r="7.73207" stroke-width="0.5" stroke="black" fill="red"/>
  <circle cx="289.855" cy="107.272" r="3.81191" stroke-width="0.5" stroke="red" fill="red"/>
   </g>
   <g id="cell726">
  <circle cx="280.573" cy="67.2936" r="7.60641" stroke-width="0.5" stroke="black" fill="red"/>
  <circle cx="280.573" cy="67.2936" r="3.55008" stroke-width="0.5" stroke="red" fill="red"/>
   </g>
   <g id="cell731">
  <circle cx="290.284" cy="290.782" r="6.52267" stroke-width="0.5" stroke="black" fill="red"/>
   </g>
   <g id="cell744">
  <circle cx="299.089" cy="166.701" r="7.94492" stroke-width="0.5" stroke="black" fill="red"/>
  <circle cx="299.089" cy="166.701" r="4.22699" stroke-width="0.5" stroke="red" fill="red"/>
   </g>
   <g id="cell746">
  <circle cx="301.212" cy="228.743" r="6.50955" stroke-width="0.5" stroke="black" fill="red"/>
   </g>
   <g id="cell776">
  <circle cx="167.779" cy="182.967" r="3.70673" stroke-width="0.5" stroke="black" fill="red"/>
   </g>
   <g id="cell777">
  <circle cx="278.752" cy="234.528" r="6.65775" stroke-width="0.5" stroke="black" fill="red"/>
   </g>
   <g id="cell783">
  <circle cx="310.042" cy="81.2824" r="4.45846" stroke-width="0.5" stroke="black" fill="red"/>
   </g>
   <g id="cell787">
  <circle cx="258.455" cy="188.809" r="6.99727" stroke-width="0.5" stroke="black" fill="red"/>
  <circle cx="258.455" cy="188.809" r="1.92549" stroke-width="0.5" stroke="red" fill="red"/>
   </g>
   <g id="cell796">
  <circle cx="376.567" cy="231.222" r="6.62557" stroke-width="0.5" stroke="black" fill="red"/>
   </g>
   <g id="cell805">
  <circle cx="325.962" cy="307.642" r="8.30741" stroke-width="0.5" stroke="black" fill="red"/>
  <circle cx="325.962" cy="307.642" r="4.8743" stroke-width="0.5" stroke="red" fill="red"/>
   </g>
   <g id="cell818">
  <circle cx="343.083" cy="147.418" r="6.9768" stroke-width="0.5" stroke="black" fill="red"/>
  <circle cx="343.083" cy="147.418" r="1.84972" stroke-width="0.5" stroke="red" fill="red"/>
   </g>
   <g id="cell829">
  <circle cx="145.987" cy="130.31" r="7.15135" stroke-width="0.5" stroke="black" fill="red"/>
  <circle cx="145.987" cy="130.31" r="2.42643" stroke-width="0.5" stroke="red" fill="red"/>
   </g>
   <g id="cell841">
  <circle cx="249.524" cy="225.575" r="8.21858" stroke-width="0.5" stroke="black" fill="red"/>
  <circle cx="249.524" cy="225.575" r="4.7213" stroke-width="0.5" stroke="red" fill="red"/>
   </g>
   <g id="cell847">
  <circle cx="230.189" cy="191.676" r="6.98333" stroke-width="0.5" stroke="black" fill="red"/>
  <circle cx="230.189" cy="191.676" r="1.87418" stroke-width="0.5" stroke="red" fill="red"/>
   </g>
   <g id="cell852">
  <circle cx="282.528" cy="277.429" r="6.73105" stroke-width="0.5" stroke="black" fill="red"/>
  <circle cx="282.528" cy="277.429" r="0.229622" stroke-width="0.5" stroke="red" fill="red"/>
   </g>
   <g id="cell855">
  <circle cx="273.325" cy="154.464" r="8.06495" stroke-width="0.5" stroke="black" fill="red"/>
  <circle cx="273.325" cy="154.464" r="4.44849" stroke-width="0.5" stroke="red" fill="red"/>
   </g>
   <g id="cell870">
  <circle cx="318.062" cy="135.726" r="3.68801" stroke-width="0.5" stroke="black" fill="red"/>
   </g>
   <g id="cell898">
  <circle cx="235.02" cy="161.149" r="6.3066" stroke-width="0.5" stroke="black" fill="red"/>
   </g>
   <g id="cell909">
  <circle cx="218.77" cy="138.839" r="2.9288" stroke-width="0.5" stroke="black" fill="red"/>
   </g>
  </g>
 </g>
  <rect x="190" y="414" width="200" height="4" stroke-width="0.8" stroke="rgb(255,255,255)" fill="rgb(0,0,0)"/>
  <text x="192.5" y="411.5"
   font-family="Arial" font-size="10" fill="black" >
   200 &#956;m
  </text>
  <text x="10" y="418"
   font-family="Arial" font-size="7.5" fill="black" >
   0 days, 0 hours, 16 minutes, and 50.6250 seconds
  </text>
  <rect x="0" y="28" width="400" height="400" stroke-width="0.8" stroke="rgb(0,0,0)" fill="none"/>
</svg>
