<?xml version="1.0" encoding="UTF-8" standalone="no"?>
<!-- Created with PhysiCell (http://PhysiCell.MathCancer.org/) -->
<svg 
 xmlns:dc="http://purl.org/dc/elements/1.1/" 
 xmlns:cc="http://creativecommons.org/ns#" 
 xmlns:rdf="http://www.w3.org/1999/02/22-rdf-syntax-ns#" 
 xmlns:svg="http://www.w3.org/2000/svg" 
 xmlns="http://www.w3.org/2000/svg" 
 version="1.1" 
 width="400" 
 height="428" 
 id="svg2">
  <rect x="0" y="0" width="400" height="428" stroke-width="0.8" stroke="white" fill="white"/>
  <text x="5" y="12"
   font-family="Arial" font-size="10" fill="black" >
   Current time: 0 days, 7 hours, and 0.00 minutes, z = 0.00 &#956;m
  </text>
  <text x="5" y="23"
   font-family="Arial" font-size="9.5" fill="black" >
   978 agents
  </text>
 <g id="tissue" 
    transform="translate(0,428) scale(1,-1)">
  <g id="ECM">
  </g>
  <g id="cells">
   <g id="cell69">
  <circle cx="46.2165" cy="174.244" r="4.65365" stroke-width="0.5" stroke="black" fill="grey"/>
   </g>
   <g id="cell110">
  <circle cx="135.259" cy="247.901" r="8.39448" stroke-width="0.5" stroke="black" fill="grey"/>
  <circle cx="135.259" cy="247.901" r="5.02125" stroke-width="0.5" stroke="grey" fill="grey"/>
   </g>
   <g id="cell129">
  <circle cx="62.4382" cy="177.199" r="8.38358" stroke-width="0.5" stroke="black" fill="grey"/>
  <circle cx="62.4382" cy="177.199" r="5.00301" stroke-width="0.5" stroke="grey" fill="grey"/>
   </g>
   <g id="cell137">
  <circle cx="73.358" cy="222.985" r="8.41269" stroke-width="0.5" stroke="black" fill="grey"/>
  <circle cx="73.358" cy="222.985" r="5.05164" stroke-width="0.5" stroke="grey" fill="grey"/>
   </g>
   <g id="cell151">
  <circle cx="97.5982" cy="208.301" r="8.41157" stroke-width="0.5" stroke="black" fill="grey"/>
  <circle cx="97.5982" cy="208.301" r="5.04977" stroke-width="0.5" stroke="grey" fill="grey"/>
   </g>
   <g id="cell152">
  <circle cx="121.2" cy="231.214" r="8.39355" stroke-width="0.5" stroke="black" fill="grey"/>
  <circle cx="121.2" cy="231.214" r="5.0197" stroke-width="0.5" stroke="grey" fill="grey"/>
   </g>
   <g id="cell153">
  <circle cx="93.4538" cy="243.8" r="8.35615" stroke-width="0.5" stroke="black" fill="grey"/>
  <circle cx="93.4538" cy="243.8" r="4.9569" stroke-width="0.5" stroke="grey" fill="grey"/>
   </g>
   <g id="cell160">
  <circle cx="108.648" cy="216.777" r="7.69803" stroke-width="0.5" stroke="black" fill="grey"/>
  <circle cx="108.648" cy="216.777" r="3.74237" stroke-width="0.5" stroke="grey" fill="grey"/>
   </g>
   <g id="cell164">
  <circle cx="122.04" cy="148.736" r="7.40105" stroke-width="0.5" stroke="black" fill="grey"/>
  <circle cx="122.04" cy="148.736" r="3.08565" stroke-width="0.5" stroke="grey" fill="grey"/>
   </g>
   <g id="cell165">
  <circle cx="146.108" cy="152.754" r="8.04653" stroke-width="0.5" stroke="black" fill="grey"/>
  <circle cx="146.108" cy="152.754" r="4.41502" stroke-width="0.5" stroke="grey" fill="grey"/>
   </g>
   <g id="cell166">
  <circle cx="129.486" cy="136.355" r="8.38691" stroke-width="0.5" stroke="black" fill="grey"/>
  <circle cx="129.486" cy="136.355" r="5.00859" stroke-width="0.5" stroke="grey" fill="grey"/>
   </g>
   <g id="cell172">
  <circle cx="137.287" cy="109.991" r="7.76555" stroke-width="0.5" stroke="black" fill="grey"/>
  <circle cx="137.287" cy="109.991" r="3.87936" stroke-width="0.5" stroke="grey" fill="grey"/>
   </g>
   <g id="cell174">
  <circle cx="146.349" cy="167.686" r="7.35297" stroke-width="0.5" stroke="black" fill="grey"/>
  <circle cx="146.349" cy="167.686" r="2.96848" stroke-width="0.5" stroke="grey" fill="grey"/>
   </g>
   <g id="cell175">
  <circle cx="143.552" cy="181.958" r="8.41183" stroke-width="0.5" stroke="black" fill="grey"/>
  <circle cx="143.552" cy="181.958" r="5.0502" stroke-width="0.5" stroke="grey" fill="grey"/>
   </g>
   <g id="cell187">
  <circle cx="175.514" cy="269.861" r="5.37039" stroke-width="0.5" stroke="black" fill="grey"/>
   </g>
   <g id="cell189">
  <circle cx="182.053" cy="168.373" r="8.26961" stroke-width="0.5" stroke="black" fill="grey"/>
  <circle cx="182.053" cy="168.373" r="4.80959" stroke-width="0.5" stroke="grey" fill="grey"/>
   </g>
   <g id="cell200">
  <circle cx="74.6904" cy="197.676" r="6.86057" stroke-width="0.5" stroke="black" fill="grey"/>
  <circle cx="74.6904" cy="197.676" r="1.34651" stroke-width="0.5" stroke="grey" fill="grey"/>
   </g>
   <g id="cell204">
  <circle cx="60.8065" cy="143.918" r="8.38315" stroke-width="0.5" stroke="black" fill="grey"/>
  <circle cx="60.8065" cy="143.918" r="5.00229" stroke-width="0.5" stroke="grey" fill="grey"/>
   </g>
   <g id="cell205">
  <circle cx="82.4445" cy="171.936" r="8.41142" stroke-width="0.5" stroke="black" fill="grey"/>
  <circle cx="82.4445" cy="171.936" r="5.04952" stroke-width="0.5" stroke="grey" fill="grey"/>
   </g>
   <g id="cell209">
  <circle cx="58.0344" cy="233.393" r="8.15453" stroke-width="0.5" stroke="black" fill="grey"/>
  <circle cx="58.0344" cy="233.393" r="4.60891" stroke-width="0.5" stroke="grey" fill="grey"/>
   </g>
   <g id="cell211">
  <circle cx="78.0803" cy="136.719" r="8.16936" stroke-width="0.5" stroke="black" fill="grey"/>
  <circle cx="78.0803" cy="136.719" r="4.63509" stroke-width="0.5" stroke="grey" fill="grey"/>
   </g>
   <g id="cell213">
  <circle cx="107.915" cy="180.64" r="7.6448" stroke-width="0.5" stroke="black" fill="grey"/>
  <circle cx="107.915" cy="180.64" r="3.63163" stroke-width="0.5" stroke="grey" fill="grey"/>
   </g>
   <g id="cell215">
  <circle cx="91.0816" cy="187.677" r="5.56647" stroke-width="0.5" stroke="black" fill="grey"/>
   </g>
   <g id="cell218">
  <circle cx="85.5207" cy="256.087" r="5.78006" stroke-width="0.5" stroke="black" fill="grey"/>
   </g>
   <g id="cell229">
  <circle cx="116.41" cy="134.61" r="3.07185" stroke-width="0.5" stroke="black" fill="grey"/>
   </g>
   <g id="cell232">
  <circle cx="146.523" cy="204.178" r="6.07137" stroke-width="0.5" stroke="black" fill="grey"/>
   </g>
   <g id="cell234">
  <circle cx="153.9" cy="269.042" r="8.27966" stroke-width="0.5" stroke="black" fill="grey"/>
  <circle cx="153.9" cy="269.042" r="4.82686" stroke-width="0.5" stroke="grey" fill="grey"/>
   </g>
   <g id="cell243">
  <circle cx="163.256" cy="258.426" r="7.86432" stroke-width="0.5" stroke="black" fill="grey"/>
  <circle cx="163.256" cy="258.426" r="4.07347" stroke-width="0.5" stroke="grey" fill="grey"/>
   </g>
   <g id="cell245">
  <circle cx="176.492" cy="154.219" r="8.40425" stroke-width="0.5" stroke="black" fill="grey"/>
  <circle cx="176.492" cy="154.219" r="5.03757" stroke-width="0.5" stroke="grey" fill="grey"/>
   </g>
   <g id="cell250">
  <circle cx="153.447" cy="240.501" r="8.39846" stroke-width="0.5" stroke="black" fill="grey"/>
  <circle cx="153.447" cy="240.501" r="5.0279" stroke-width="0.5" stroke="grey" fill="grey"/>
   </g>
   <g id="cell254">
  <circle cx="161.233" cy="150.88" r="7.21538" stroke-width="0.5" stroke="black" fill="grey"/>
  <circle cx="161.233" cy="150.88" r="2.60911" stroke-width="0.5" stroke="grey" fill="grey"/>
   </g>
   <g id="cell255">
  <circle cx="163.55" cy="163.634" r="6.07955" stroke-width="0.5" stroke="black" fill="grey"/>
   </g>
   <g id="cell257">
  <circle cx="178.225" cy="225.34" r="6.63314" stroke-width="0.5" stroke="black" fill="grey"/>
   </g>
   <g id="cell258">
  <circle cx="183.506" cy="238.453" r="8.26303" stroke-width="0.5" stroke="black" fill="grey"/>
  <circle cx="183.506" cy="238.453" r="4.79826" stroke-width="0.5" stroke="grey" fill="grey"/>
   </g>
   <g id="cell260">
  <circle cx="189.954" cy="136.547" r="6.2225" stroke-width="0.5" stroke="black" fill="grey"/>
   </g>
   <g id="cell261">
  <circle cx="199.614" cy="172.253" r="8.39402" stroke-width="0.5" stroke="black" fill="grey"/>
  <circle cx="199.614" cy="172.253" r="5.02048" stroke-width="0.5" stroke="grey" fill="grey"/>
   </g>
   <g id="cell262">
  <circle cx="190.615" cy="186.116" r="7.84072" stroke-width="0.5" stroke="black" fill="grey"/>
  <circle cx="190.615" cy="186.116" r="4.02772" stroke-width="0.5" stroke="grey" fill="grey"/>
   </g>
   <g id="cell267">
  <circle cx="52.2077" cy="154.996" r="5.44975" stroke-width="0.5" stroke="black" fill="grey"/>
   </g>
   <g id="cell269">
  <circle cx="66.1971" cy="198.848" r="4.41661" stroke-width="0.5" stroke="black" fill="grey"/>
   </g>
   <g id="cell279">
  <circle cx="84.718" cy="157.012" r="8.38426" stroke-width="0.5" stroke="black" fill="grey"/>
  <circle cx="84.718" cy="157.012" r="5.00415" stroke-width="0.5" stroke="grey" fill="grey"/>
   </g>
   <g id="cell281">
  <circle cx="97.0617" cy="163.677" r="8.31549" stroke-width="0.5" stroke="black" fill="grey"/>
  <circle cx="97.0617" cy="163.677" r="4.88806" stroke-width="0.5" stroke="grey" fill="grey"/>
   </g>
   <g id="cell285">
  <circle cx="77.2928" cy="237.696" r="7.57364" stroke-width="0.5" stroke="black" fill="grey"/>
  <circle cx="77.2928" cy="237.696" r="3.47933" stroke-width="0.5" stroke="grey" fill="grey"/>
   </g>
   <g id="cell286">
  <circle cx="98.1682" cy="127.374" r="6.49982" stroke-width="0.5" stroke="black" fill="grey"/>
   </g>
   <g id="cell288">
  <circle cx="113.342" cy="170.527" r="3.94356" stroke-width="0.5" stroke="black" fill="grey"/>
   </g>
   <g id="cell290">
  <circle cx="109.4" cy="188.154" r="2.88848" stroke-width="0.5" stroke="black" fill="grey"/>
   </g>
   <g id="cell291">
  <circle cx="106.685" cy="235.042" r="6.67736" stroke-width="0.5" stroke="black" fill="grey"/>
   </g>
   <g id="cell292">
  <circle cx="101.196" cy="252.008" r="8.38034" stroke-width="0.5" stroke="black" fill="grey"/>
  <circle cx="101.196" cy="252.008" r="4.99757" stroke-width="0.5" stroke="grey" fill="grey"/>
   </g>
   <g id="cell298">
  <circle cx="121.231" cy="211.12" r="8.40666" stroke-width="0.5" stroke="black" fill="grey"/>
  <circle cx="121.231" cy="211.12" r="5.04158" stroke-width="0.5" stroke="grey" fill="grey"/>
   </g>
   <g id="cell301">
  <circle cx="121.527" cy="263.818" r="6.07908" stroke-width="0.5" stroke="black" fill="grey"/>
   </g>
   <g id="cell307">
  <circle cx="138.868" cy="220.135" r="3.9138" stroke-width="0.5" stroke="black" fill="grey"/>
   </g>
   <g id="cell308">
  <circle cx="140.512" cy="235.481" r="7.38706" stroke-width="0.5" stroke="black" fill="grey"/>
  <circle cx="140.512" cy="235.481" r="3.05194" stroke-width="0.5" stroke="grey" fill="grey"/>
   </g>
   <g id="cell311">
  <circle cx="155.792" cy="123.664" r="6.88644" stroke-width="0.5" stroke="black" fill="grey"/>
  <circle cx="155.792" cy="123.664" r="1.47266" stroke-width="0.5" stroke="grey" fill="grey"/>
   </g>
   <g id="cell315">
  <circle cx="156.558" cy="179.241" r="8.35181" stroke-width="0.5" stroke="black" fill="grey"/>
  <circle cx="156.558" cy="179.241" r="4.94959" stroke-width="0.5" stroke="grey" fill="grey"/>
   </g>
   <g id="cell316">
  <circle cx="156.096" cy="224.2" r="8.32508" stroke-width="0.5" stroke="black" fill="grey"/>
  <circle cx="156.096" cy="224.2" r="4.90435" stroke-width="0.5" stroke="grey" fill="grey"/>
   </g>
   <g id="cell318">
  <circle cx="139.409" cy="274.327" r="2.82303" stroke-width="0.5" stroke="black" fill="grey"/>
   </g>
   <g id="cell319">
  <circle cx="137.882" cy="263.976" r="7.23803" stroke-width="0.5" stroke="black" fill="grey"/>
  <circle cx="137.882" cy="263.976" r="2.67108" stroke-width="0.5" stroke="grey" fill="grey"/>
   </g>
   <g id="cell323">
  <circle cx="165.468" cy="207.478" r="7.79792" stroke-width="0.5" stroke="black" fill="grey"/>
  <circle cx="165.468" cy="207.478" r="3.94376" stroke-width="0.5" stroke="grey" fill="grey"/>
   </g>
   <g id="cell325">
  <circle cx="168.078" cy="239.486" r="8.30297" stroke-width="0.5" stroke="black" fill="grey"/>
  <circle cx="168.078" cy="239.486" r="4.86672" stroke-width="0.5" stroke="grey" fill="grey"/>
   </g>
   <g id="cell330">
  <circle cx="180.47" cy="209.793" r="8.39505" stroke-width="0.5" stroke="black" fill="grey"/>
  <circle cx="180.47" cy="209.793" r="5.0222" stroke-width="0.5" stroke="grey" fill="grey"/>
   </g>
   <g id="cell344">
  <circle cx="84.4674" cy="209.813" r="8.13215" stroke-width="0.5" stroke="black" fill="grey"/>
  <circle cx="84.4674" cy="209.813" r="4.56919" stroke-width="0.5" stroke="grey" fill="grey"/>
   </g>
   <g id="cell353">
  <circle cx="107.981" cy="260.582" r="1.02501" stroke-width="0.5" stroke="black" fill="grey"/>
   </g>
   <g id="cell363">
  <circle cx="115.466" cy="269.579" r="7.02836" stroke-width="0.5" stroke="black" fill="grey"/>
  <circle cx="115.466" cy="269.579" r="2.03557" stroke-width="0.5" stroke="grey" fill="grey"/>
   </g>
   <g id="cell368">
  <circle cx="112.605" cy="198.057" r="8.39832" stroke-width="0.5" stroke="black" fill="grey"/>
  <circle cx="112.605" cy="198.057" r="5.02766" stroke-width="0.5" stroke="grey" fill="grey"/>
   </g>
   <g id="cell425">
  <circle cx="101.546" cy="222.8" r="0.993288" stroke-width="0.5" stroke="black" fill="grey"/>
   </g>
   <g id="cell615">
  <circle cx="353.933" cy="198.079" r="6.70334" stroke-width="0.5" stroke="black" fill="red"/>
   </g>
   <g id="cell637">
  <circle cx="256.295" cy="161.096" r="4.58302" stroke-width="0.5" stroke="black" fill="red"/>
   </g>
   <g id="cell647">
  <circle cx="280.635" cy="170.621" r="7.58529" stroke-width="0.5" stroke="black" fill="red"/>
  <circle cx="280.635" cy="170.621" r="3.50462" stroke-width="0.5" stroke="red" fill="red"/>
   </g>
   <g id="cell649">
  <circle cx="275.129" cy="210.603" r="8.33978" stroke-width="0.5" stroke="black" fill="red"/>
  <circle cx="275.129" cy="210.603" r="4.92925" stroke-width="0.5" stroke="red" fill="red"/>
   </g>
   <g id="cell651">
  <circle cx="282.477" cy="261.996" r="8.18904" stroke-width="0.5" stroke="black" fill="red"/>
  <circle cx="282.477" cy="261.996" r="4.66969" stroke-width="0.5" stroke="red" fill="red"/>
   </g>
   <g id="cell656">
  <circle cx="292.157" cy="190.305" r="7.08893" stroke-width="0.5" stroke="black" fill="red"/>
  <circle cx="292.157" cy="190.305" r="2.23575" stroke-width="0.5" stroke="red" fill="red"/>
   </g>
   <g id="cell677">
  <circle cx="323.95" cy="141.534" r="8.41239" stroke-width="0.5" stroke="black" fill="red"/>
  <circle cx="323.95" cy="141.534" r="5.05114" stroke-width="0.5" stroke="red" fill="red"/>
   </g>
   <g id="cell685">
  <circle cx="200.867" cy="211.445" r="7.43376" stroke-width="0.5" stroke="black" fill="red"/>
  <circle cx="200.867" cy="211.445" r="3.16331" stroke-width="0.5" stroke="red" fill="red"/>
   </g>
   <g id="cell686">
  <circle cx="212.203" cy="243.295" r="4.47915" stroke-width="0.5" stroke="black" fill="red"/>
   </g>
   <g id="cell690">
  <circle cx="230.94" cy="212.035" r="3.46112" stroke-width="0.5" stroke="black" fill="red"/>
   </g>
   <g id="cell693">
  <circle cx="236.851" cy="135.293" r="2.52701" stroke-width="0.5" stroke="black" fill="red"/>
   </g>
   <g id="cell694">
  <circle cx="235.455" cy="167.319" r="6.17172" stroke-width="0.5" stroke="black" fill="red"/>
   </g>
   <g id="cell695">
  <circle cx="239.908" cy="185.659" r="6.6969" stroke-width="0.5" stroke="black" fill="red"/>
   </g>
   <g id="cell696">
  <circle cx="245.85" cy="200.502" r="6.8524" stroke-width="0.5" stroke="black" fill="red"/>
  <circle cx="245.85" cy="200.502" r="1.30425" stroke-width="0.5" stroke="red" fill="red"/>
   </g>
   <g id="cell701">
  <circle cx="230.242" cy="149.007" r="6.08639" stroke-width="0.5" stroke="black" fill="red"/>
   </g>
   <g id="cell702">
  <circle cx="256.798" cy="188.88" r="8.41266" stroke-width="0.5" stroke="black" fill="red"/>
  <circle cx="256.798" cy="188.88" r="5.05159" stroke-width="0.5" stroke="red" fill="red"/>
   </g>
   <g id="cell709">
  <circle cx="250.553" cy="135.148" r="8.39092" stroke-width="0.5" stroke="black" fill="red"/>
  <circle cx="250.553" cy="135.148" r="5.0153" stroke-width="0.5" stroke="red" fill="red"/>
   </g>
   <g id="cell711">
  <circle cx="269.703" cy="194.401" r="8.38862" stroke-width="0.5" stroke="black" fill="red"/>
  <circle cx="269.703" cy="194.401" r="5.01145" stroke-width="0.5" stroke="red" fill="red"/>
   </g>
   <g id="cell712">
  <circle cx="239.165" cy="206.558" r="6.08895" stroke-width="0.5" stroke="black" fill="red"/>
   </g>
   <g id="cell713">
  <circle cx="258.599" cy="205.375" r="7.56217" stroke-width="0.5" stroke="black" fill="red"/>
  <circle cx="258.599" cy="205.375" r="3.45428" stroke-width="0.5" stroke="red" fill="red"/>
   </g>
   <g id="cell717">
  <circle cx="267.725" cy="127.242" r="7.83102" stroke-width="0.5" stroke="black" fill="red"/>
  <circle cx="267.725" cy="127.242" r="4.00881" stroke-width="0.5" stroke="red" fill="red"/>
   </g>
   <g id="cell720">
  <circle cx="282.029" cy="187.444" r="7.32945" stroke-width="0.5" stroke="black" fill="red"/>
  <circle cx="282.029" cy="187.444" r="2.90972" stroke-width="0.5" stroke="red" fill="red"/>
   </g>
   <g id="cell721">
  <circle cx="269.128" cy="231.349" r="8.21478" stroke-width="0.5" stroke="black" fill="red"/>
  <circle cx="269.128" cy="231.349" r="4.71469" stroke-width="0.5" stroke="red" fill="red"/>
   </g>
   <g id="cell723">
  <circle cx="273.372" cy="244.658" r="5.7263" stroke-width="0.5" stroke="black" fill="red"/>
   </g>
   <g id="cell724">
  <circle cx="269.657" cy="271.647" r="8.34086" stroke-width="0.5" stroke="black" fill="red"/>
  <circle cx="269.657" cy="271.647" r="4.93109" stroke-width="0.5" stroke="red" fill="red"/>
   </g>
   <g id="cell725">
  <circle cx="286.239" cy="111.35" r="8.09219" stroke-width="0.5" stroke="black" fill="red"/>
  <circle cx="286.239" cy="111.35" r="4.49769" stroke-width="0.5" stroke="red" fill="red"/>
   </g>
   <g id="cell729">
  <circle cx="289.777" cy="202.894" r="7.39461" stroke-width="0.5" stroke="black" fill="red"/>
  <circle cx="289.777" cy="202.894" r="3.07016" stroke-width="0.5" stroke="red" fill="red"/>
   </g>
   <g id="cell730">
  <circle cx="299.974" cy="222.711" r="8.28662" stroke-width="0.5" stroke="black" fill="red"/>
  <circle cx="299.974" cy="222.711" r="4.83877" stroke-width="0.5" stroke="red" fill="red"/>
   </g>
   <g id="cell731">
  <circle cx="295.872" cy="240.805" r="6.93892" stroke-width="0.5" stroke="black" fill="red"/>
  <circle cx="295.872" cy="240.805" r="1.70127" stroke-width="0.5" stroke="red" fill="red"/>
   </g>
   <g id="cell736">
  <circle cx="320.069" cy="165.085" r="6.25197" stroke-width="0.5" stroke="black" fill="red"/>
   </g>
   <g id="cell737">
  <circle cx="306.839" cy="210.67" r="7.10589" stroke-width="0.5" stroke="black" fill="red"/>
  <circle cx="306.839" cy="210.67" r="2.28898" stroke-width="0.5" stroke="red" fill="red"/>
   </g>
   <g id="cell739">
  <circle cx="318.455" cy="218.242" r="8.12608" stroke-width="0.5" stroke="black" fill="red"/>
  <circle cx="318.455" cy="218.242" r="4.55838" stroke-width="0.5" stroke="red" fill="red"/>
   </g>
   <g id="cell744">
  <circle cx="334.437" cy="183.454" r="7.15768" stroke-width="0.5" stroke="black" fill="red"/>
  <circle cx="334.437" cy="183.454" r="2.44501" stroke-width="0.5" stroke="red" fill="red"/>
   </g>
   <g id="cell745">
  <circle cx="306.11" cy="197.354" r="8.22001" stroke-width="0.5" stroke="black" fill="red"/>
  <circle cx="306.11" cy="197.354" r="4.7238" stroke-width="0.5" stroke="red" fill="red"/>
   </g>
   <g id="cell747">
  <circle cx="329.067" cy="250.932" r="4.73831" stroke-width="0.5" stroke="black" fill="red"/>
   </g>
   <g id="cell748">
  <circle cx="336.372" cy="257.063" r="4.37125" stroke-width="0.5" stroke="black" fill="red"/>
   </g>
   <g id="cell751">
  <circle cx="346.721" cy="206.772" r="8.31802" stroke-width="0.5" stroke="black" fill="red"/>
  <circle cx="346.721" cy="206.772" r="4.89235" stroke-width="0.5" stroke="red" fill="red"/>
   </g>
   <g id="cell753">
  <circle cx="360.433" cy="227.398" r="8.28816" stroke-width="0.5" stroke="black" fill="red"/>
  <circle cx="360.433" cy="227.398" r="4.84141" stroke-width="0.5" stroke="red" fill="red"/>
   </g>
   <g id="cell759">
  <circle cx="213.537" cy="215.637" r="7.94553" stroke-width="0.5" stroke="black" fill="red"/>
  <circle cx="213.537" cy="215.637" r="4.22814" stroke-width="0.5" stroke="red" fill="red"/>
   </g>
   <g id="cell761">
  <circle cx="210.129" cy="137.257" r="7.95163" stroke-width="0.5" stroke="black" fill="red"/>
  <circle cx="210.129" cy="137.257" r="4.23959" stroke-width="0.5" stroke="red" fill="red"/>
   </g>
   <g id="cell762">
  <circle cx="224.786" cy="155.281" r="6.11697" stroke-width="0.5" stroke="black" fill="red"/>
   </g>
   <g id="cell763">
  <circle cx="226.756" cy="194.173" r="7.89378" stroke-width="0.5" stroke="black" fill="red"/>
  <circle cx="226.756" cy="194.173" r="4.13006" stroke-width="0.5" stroke="red" fill="red"/>
   </g>
   <g id="cell764">
  <circle cx="228.03" cy="226.37" r="7.0047" stroke-width="0.5" stroke="black" fill="red"/>
  <circle cx="228.03" cy="226.37" r="1.95231" stroke-width="0.5" stroke="red" fill="red"/>
   </g>
   <g id="cell766">
  <circle cx="225.212" cy="241.394" r="4.06399" stroke-width="0.5" stroke="black" fill="red"/>
   </g>
   <g id="cell768">
  <circle cx="251.564" cy="154.275" r="4.76201" stroke-width="0.5" stroke="black" fill="red"/>
   </g>
   <g id="cell773">
  <circle cx="240.661" cy="223.338" r="7.00758" stroke-width="0.5" stroke="black" fill="red"/>
  <circle cx="240.661" cy="223.338" r="1.96261" stroke-width="0.5" stroke="red" fill="red"/>
   </g>
   <g id="cell781">
  <circle cx="259.559" cy="238.803" r="2.12654" stroke-width="0.5" stroke="black" fill="red"/>
   </g>
   <g id="cell782">
  <circle cx="250.91" cy="277.734" r="7.21899" stroke-width="0.5" stroke="black" fill="red"/>
  <circle cx="250.91" cy="277.734" r="2.61905" stroke-width="0.5" stroke="red" fill="red"/>
   </g>
   <g id="cell784">
  <circle cx="275.813" cy="143.035" r="8.3528" stroke-width="0.5" stroke="black" fill="red"/>
  <circle cx="275.813" cy="143.035" r="4.95126" stroke-width="0.5" stroke="red" fill="red"/>
   </g>
   <g id="cell787">
  <circle cx="263.914" cy="174.774" r="7.99236" stroke-width="0.5" stroke="black" fill="red"/>
  <circle cx="263.914" cy="174.774" r="4.3155" stroke-width="0.5" stroke="red" fill="red"/>
   </g>
   <g id="cell789">
  <circle cx="253.393" cy="232.388" r="7.07512" stroke-width="0.5" stroke="black" fill="red"/>
  <circle cx="253.393" cy="232.388" r="2.19159" stroke-width="0.5" stroke="red" fill="red"/>
   </g>
   <g id="cell790">
  <circle cx="282.086" cy="279.222" r="7.17337" stroke-width="0.5" stroke="black" fill="red"/>
  <circle cx="282.086" cy="279.222" r="2.49057" stroke-width="0.5" stroke="red" fill="red"/>
   </g>
   <g id="cell802">
  <circle cx="303.897" cy="153.647" r="8.37837" stroke-width="0.5" stroke="black" fill="red"/>
  <circle cx="303.897" cy="153.647" r="4.99427" stroke-width="0.5" stroke="red" fill="red"/>
   </g>
   <g id="cell803">
  <circle cx="325.91" cy="201.737" r="8.33341" stroke-width="0.5" stroke="black" fill="red"/>
  <circle cx="325.91" cy="201.737" r="4.91848" stroke-width="0.5" stroke="red" fill="red"/>
   </g>
   <g id="cell805">
  <circle cx="312.635" cy="237.181" r="8.03043" stroke-width="0.5" stroke="black" fill="red"/>
  <circle cx="312.635" cy="237.181" r="4.38561" stroke-width="0.5" stroke="red" fill="red"/>
   </g>
   <g id="cell807">
  <circle cx="294.034" cy="252.899" r="5.01416" stroke-width="0.5" stroke="black" fill="red"/>
   </g>
   <g id="cell808">
  <circle cx="333.66" cy="287.369" r="7.6098" stroke-width="0.5" stroke="black" fill="red"/>
  <circle cx="333.66" cy="287.369" r="3.55734" stroke-width="0.5" stroke="red" fill="red"/>
   </g>
   <g id="cell811">
  <circle cx="317.263" cy="180.337" r="8.37043" stroke-width="0.5" stroke="black" fill="red"/>
  <circle cx="317.263" cy="180.337" r="4.98094" stroke-width="0.5" stroke="red" fill="red"/>
   </g>
   <g id="cell819">
  <circle cx="353.067" cy="175.774" r="1.10883" stroke-width="0.5" stroke="black" fill="red"/>
   </g>
   <g id="cell820">
  <circle cx="326.092" cy="233.599" r="8.17489" stroke-width="0.5" stroke="black" fill="red"/>
  <circle cx="326.092" cy="233.599" r="4.64484" stroke-width="0.5" stroke="red" fill="red"/>
   </g>
   <g id="cell825">
  <circle cx="202.692" cy="149.586" r="6.41007" stroke-width="0.5" stroke="black" fill="red"/>
   </g>
   <g id="cell827">
  <circle cx="198.225" cy="239.525" r="6.89814" stroke-width="0.5" stroke="black" fill="red"/>
  <circle cx="198.225" cy="239.525" r="1.52644" stroke-width="0.5" stroke="red" fill="red"/>
   </g>
   <g id="cell831">
  <circle cx="215.375" cy="184.716" r="8.16171" stroke-width="0.5" stroke="black" fill="red"/>
  <circle cx="215.375" cy="184.716" r="4.6216" stroke-width="0.5" stroke="red" fill="red"/>
   </g>
   <g id="cell834">
  <circle cx="233.457" cy="257.251" r="5.38052" stroke-width="0.5" stroke="black" fill="red"/>
   </g>
   <g id="cell845">
  <circle cx="264.274" cy="143.735" r="3.06863" stroke-width="0.5" stroke="black" fill="red"/>
   </g>
   <g id="cell854">
  <circle cx="279.21" cy="129.858" r="6.71036" stroke-width="0.5" stroke="black" fill="red"/>
   </g>
   <g id="cell860">
  <circle cx="267.526" cy="255.68" r="8.20913" stroke-width="0.5" stroke="black" fill="red"/>
  <circle cx="267.526" cy="255.68" r="4.70483" stroke-width="0.5" stroke="red" fill="red"/>
   </g>
  </g>
 </g>
  <rect x="190" y="414" width="200" height="4" stroke-width="0.8" stroke="rgb(255,255,255)" fill="rgb(0,0,0)"/>
  <text x="192.5" y="411.5"
   font-family="Arial" font-size="10" fill="black" >
   200 &#956;m
  </text>
  <text x="10" y="418"
   font-family="Arial" font-size="7.5" fill="black" >
   0 days, 0 hours, 1 minutes, and 34.1059 seconds
  </text>
  <rect x="0" y="28" width="400" height="400" stroke-width="0.8" stroke="rgb(0,0,0)" fill="none"/>
</svg>
