<?xml version="1.0" encoding="UTF-8" standalone="no"?>
<!-- Created with PhysiCell (http://PhysiCell.MathCancer.org/) -->
<svg 
 xmlns:dc="http://purl.org/dc/elements/1.1/" 
 xmlns:cc="http://creativecommons.org/ns#" 
 xmlns:rdf="http://www.w3.org/1999/02/22-rdf-syntax-ns#" 
 xmlns:svg="http://www.w3.org/2000/svg" 
 xmlns="http://www.w3.org/2000/svg" 
 version="1.1" 
 width="400" 
 height="428" 
 id="svg2">
  <rect x="0" y="0" width="400" height="428" stroke-width="0.8" stroke="white" fill="white"/>
  <text x="5" y="12"
   font-family="Arial" font-size="10" fill="black" >
   Current time: 2 days, 14 hours, and 0.00 minutes, z = 0.00 &#956;m
  </text>
  <text x="5" y="23"
   font-family="Arial" font-size="9.5" fill="black" >
   978 agents
  </text>
 <g id="tissue" 
    transform="translate(0,428) scale(1,-1)">
  <g id="ECM">
  </g>
  <g id="cells">
   <g id="cell21">
  <circle cx="169.831" cy="119.081" r="5.32482" stroke-width="0.5" stroke="black" fill="grey"/>
   </g>
   <g id="cell37">
  <circle cx="148.493" cy="145.855" r="3.64578" stroke-width="0.5" stroke="black" fill="grey"/>
   </g>
   <g id="cell81">
  <circle cx="111.859" cy="90.2297" r="5.3547" stroke-width="0.5" stroke="black" fill="grey"/>
   </g>
   <g id="cell88">
  <circle cx="122.576" cy="68.2428" r="6.21514" stroke-width="0.5" stroke="black" fill="grey"/>
   </g>
   <g id="cell90">
  <circle cx="86.8828" cy="185.626" r="5.02783" stroke-width="0.5" stroke="black" fill="grey"/>
   </g>
   <g id="cell104">
  <circle cx="131.73" cy="143.576" r="8.07469" stroke-width="0.5" stroke="black" fill="grey"/>
  <circle cx="131.73" cy="143.576" r="4.46613" stroke-width="0.5" stroke="grey" fill="grey"/>
   </g>
   <g id="cell112">
  <circle cx="179.725" cy="71.1491" r="6.90842" stroke-width="0.5" stroke="black" fill="grey"/>
  <circle cx="179.725" cy="71.1491" r="1.57224" stroke-width="0.5" stroke="grey" fill="grey"/>
   </g>
   <g id="cell113">
  <circle cx="122.323" cy="215.946" r="6.33471" stroke-width="0.5" stroke="black" fill="grey"/>
   </g>
   <g id="cell120">
  <circle cx="190.432" cy="158.804" r="8.40716" stroke-width="0.5" stroke="black" fill="grey"/>
  <circle cx="190.432" cy="158.804" r="5.04243" stroke-width="0.5" stroke="grey" fill="grey"/>
   </g>
   <g id="cell145">
  <circle cx="138.282" cy="240.349" r="8.29589" stroke-width="0.5" stroke="black" fill="grey"/>
  <circle cx="138.282" cy="240.349" r="4.85464" stroke-width="0.5" stroke="grey" fill="grey"/>
   </g>
   <g id="cell169">
  <circle cx="124.414" cy="240.726" r="8.38684" stroke-width="0.5" stroke="black" fill="grey"/>
  <circle cx="124.414" cy="240.726" r="5.00846" stroke-width="0.5" stroke="grey" fill="grey"/>
   </g>
   <g id="cell174">
  <circle cx="154.827" cy="204.713" r="4.60425" stroke-width="0.5" stroke="black" fill="grey"/>
   </g>
   <g id="cell190">
  <circle cx="180.985" cy="101.004" r="6.02744" stroke-width="0.5" stroke="black" fill="grey"/>
   </g>
   <g id="cell195">
  <circle cx="55.7716" cy="153.412" r="7.48182" stroke-width="0.5" stroke="black" fill="grey"/>
  <circle cx="55.7716" cy="153.412" r="3.27464" stroke-width="0.5" stroke="grey" fill="grey"/>
   </g>
   <g id="cell196">
  <circle cx="85.4295" cy="233.499" r="7.49546" stroke-width="0.5" stroke="black" fill="grey"/>
  <circle cx="85.4295" cy="233.499" r="3.30569" stroke-width="0.5" stroke="grey" fill="grey"/>
   </g>
   <g id="cell199">
  <circle cx="45.3184" cy="160.225" r="7.22434" stroke-width="0.5" stroke="black" fill="grey"/>
  <circle cx="45.3184" cy="160.225" r="2.63377" stroke-width="0.5" stroke="grey" fill="grey"/>
   </g>
   <g id="cell217">
  <circle cx="100.701" cy="213.604" r="6.14011" stroke-width="0.5" stroke="black" fill="grey"/>
   </g>
   <g id="cell221">
  <circle cx="112.679" cy="102.289" r="7.76875" stroke-width="0.5" stroke="black" fill="grey"/>
  <circle cx="112.679" cy="102.289" r="3.88576" stroke-width="0.5" stroke="grey" fill="grey"/>
   </g>
   <g id="cell223">
  <circle cx="132.962" cy="199.135" r="7.85965" stroke-width="0.5" stroke="black" fill="grey"/>
  <circle cx="132.962" cy="199.135" r="4.06445" stroke-width="0.5" stroke="grey" fill="grey"/>
   </g>
   <g id="cell232">
  <circle cx="106.057" cy="197.749" r="8.39039" stroke-width="0.5" stroke="black" fill="grey"/>
  <circle cx="106.057" cy="197.749" r="5.01441" stroke-width="0.5" stroke="grey" fill="grey"/>
   </g>
   <g id="cell242">
  <circle cx="41.5755" cy="224.133" r="7.04667" stroke-width="0.5" stroke="black" fill="grey"/>
  <circle cx="41.5755" cy="224.133" r="2.09792" stroke-width="0.5" stroke="grey" fill="grey"/>
   </g>
   <g id="cell250">
  <circle cx="176.553" cy="272.353" r="4.08704" stroke-width="0.5" stroke="black" fill="grey"/>
   </g>
   <g id="cell255">
  <circle cx="156.449" cy="111.435" r="7.44689" stroke-width="0.5" stroke="black" fill="grey"/>
  <circle cx="156.449" cy="111.435" r="3.19403" stroke-width="0.5" stroke="grey" fill="grey"/>
   </g>
   <g id="cell259">
  <circle cx="214.207" cy="295.927" r="4.45817" stroke-width="0.5" stroke="black" fill="grey"/>
   </g>
   <g id="cell285">
  <circle cx="21.5706" cy="222.978" r="7.96093" stroke-width="0.5" stroke="black" fill="grey"/>
  <circle cx="21.5706" cy="222.978" r="4.257" stroke-width="0.5" stroke="grey" fill="grey"/>
   </g>
   <g id="cell287">
  <circle cx="31.2623" cy="134.574" r="4.42886" stroke-width="0.5" stroke="black" fill="grey"/>
   </g>
   <g id="cell289">
  <circle cx="79.7669" cy="203.367" r="8.04223" stroke-width="0.5" stroke="black" fill="grey"/>
  <circle cx="79.7669" cy="203.367" r="4.40717" stroke-width="0.5" stroke="grey" fill="grey"/>
   </g>
   <g id="cell300">
  <circle cx="158.177" cy="290.141" r="8.40314" stroke-width="0.5" stroke="black" fill="grey"/>
  <circle cx="158.177" cy="290.141" r="5.03571" stroke-width="0.5" stroke="grey" fill="grey"/>
   </g>
   <g id="cell301">
  <circle cx="142.33" cy="260.236" r="6.93737" stroke-width="0.5" stroke="black" fill="grey"/>
  <circle cx="142.33" cy="260.236" r="1.69492" stroke-width="0.5" stroke="grey" fill="grey"/>
   </g>
   <g id="cell307">
  <circle cx="141.031" cy="210.901" r="7.54759" stroke-width="0.5" stroke="black" fill="grey"/>
  <circle cx="141.031" cy="210.901" r="3.42224" stroke-width="0.5" stroke="grey" fill="grey"/>
   </g>
   <g id="cell309">
  <circle cx="160.03" cy="198.891" r="6.34898" stroke-width="0.5" stroke="black" fill="grey"/>
   </g>
   <g id="cell312">
  <circle cx="162.098" cy="141.314" r="5.34007" stroke-width="0.5" stroke="black" fill="grey"/>
   </g>
   <g id="cell375">
  <circle cx="146.022" cy="177.854" r="8.38102" stroke-width="0.5" stroke="black" fill="grey"/>
  <circle cx="146.022" cy="177.854" r="4.99873" stroke-width="0.5" stroke="grey" fill="grey"/>
   </g>
   <g id="cell389">
  <circle cx="241.246" cy="56.8704" r="8.39411" stroke-width="0.5" stroke="black" fill="grey"/>
  <circle cx="241.246" cy="56.8704" r="5.02063" stroke-width="0.5" stroke="grey" fill="grey"/>
   </g>
   <g id="cell397">
  <circle cx="168.46" cy="244.194" r="5.47158" stroke-width="0.5" stroke="black" fill="grey"/>
   </g>
   <g id="cell408">
  <circle cx="43.3902" cy="145.356" r="4.92583" stroke-width="0.5" stroke="black" fill="grey"/>
   </g>
   <g id="cell438">
  <circle cx="145.415" cy="140.192" r="3.24402" stroke-width="0.5" stroke="black" fill="grey"/>
   </g>
   <g id="cell477">
  <circle cx="134.601" cy="221.508" r="7.67172" stroke-width="0.5" stroke="black" fill="grey"/>
  <circle cx="134.601" cy="221.508" r="3.68795" stroke-width="0.5" stroke="grey" fill="grey"/>
   </g>
   <g id="cell486">
  <circle cx="133.489" cy="185.169" r="6.52466" stroke-width="0.5" stroke="black" fill="grey"/>
   </g>
   <g id="cell488">
  <circle cx="139.843" cy="318.732" r="6.99182" stroke-width="0.5" stroke="black" fill="grey"/>
  <circle cx="139.843" cy="318.732" r="1.90557" stroke-width="0.5" stroke="grey" fill="grey"/>
   </g>
   <g id="cell511">
  <circle cx="272.144" cy="155.33" r="7.16584" stroke-width="0.5" stroke="black" fill="red"/>
  <circle cx="272.144" cy="155.33" r="2.4688" stroke-width="0.5" stroke="red" fill="red"/>
   </g>
   <g id="cell512">
  <circle cx="362.598" cy="205.594" r="8.3443" stroke-width="0.5" stroke="black" fill="red"/>
  <circle cx="362.598" cy="205.594" r="4.9369" stroke-width="0.5" stroke="red" fill="red"/>
   </g>
   <g id="cell524">
  <circle cx="249.321" cy="143.077" r="8.29684" stroke-width="0.5" stroke="black" fill="red"/>
  <circle cx="249.321" cy="143.077" r="4.85625" stroke-width="0.5" stroke="red" fill="red"/>
   </g>
   <g id="cell536">
  <circle cx="189.919" cy="244.527" r="1.94066" stroke-width="0.5" stroke="black" fill="red"/>
   </g>
   <g id="cell556">
  <circle cx="362.963" cy="176.087" r="5.89635" stroke-width="0.5" stroke="black" fill="red"/>
   </g>
   <g id="cell558">
  <circle cx="271.957" cy="217.658" r="7.81133" stroke-width="0.5" stroke="black" fill="red"/>
  <circle cx="271.957" cy="217.658" r="3.97021" stroke-width="0.5" stroke="red" fill="red"/>
   </g>
   <g id="cell559">
  <circle cx="238.306" cy="243.403" r="4.70194" stroke-width="0.5" stroke="black" fill="red"/>
   </g>
   <g id="cell573">
  <circle cx="253.876" cy="267.868" r="3.54488" stroke-width="0.5" stroke="black" fill="red"/>
   </g>
   <g id="cell614">
  <circle cx="328.905" cy="160.958" r="6.79235" stroke-width="0.5" stroke="black" fill="red"/>
  <circle cx="328.905" cy="160.958" r="0.938956" stroke-width="0.5" stroke="red" fill="red"/>
   </g>
   <g id="cell627">
  <circle cx="242.538" cy="298.275" r="8.17754" stroke-width="0.5" stroke="black" fill="red"/>
  <circle cx="242.538" cy="298.275" r="4.64949" stroke-width="0.5" stroke="red" fill="red"/>
   </g>
   <g id="cell631">
  <circle cx="260.397" cy="225.146" r="4.96847" stroke-width="0.5" stroke="black" fill="red"/>
   </g>
   <g id="cell633">
  <circle cx="264.962" cy="278.347" r="7.99198" stroke-width="0.5" stroke="black" fill="red"/>
  <circle cx="264.962" cy="278.347" r="4.3148" stroke-width="0.5" stroke="red" fill="red"/>
   </g>
   <g id="cell655">
  <circle cx="292.942" cy="220.46" r="6.60122" stroke-width="0.5" stroke="black" fill="red"/>
   </g>
   <g id="cell657">
  <circle cx="299.208" cy="127.225" r="5.10178" stroke-width="0.5" stroke="black" fill="red"/>
   </g>
   <g id="cell681">
  <circle cx="353.47" cy="316.745" r="8.22638" stroke-width="0.5" stroke="black" fill="red"/>
  <circle cx="353.47" cy="316.745" r="4.73487" stroke-width="0.5" stroke="red" fill="red"/>
   </g>
   <g id="cell683">
  <circle cx="347.083" cy="161.191" r="7.35958" stroke-width="0.5" stroke="black" fill="red"/>
  <circle cx="347.083" cy="161.191" r="2.98482" stroke-width="0.5" stroke="red" fill="red"/>
   </g>
   <g id="cell686">
  <circle cx="228.773" cy="236.065" r="6.20993" stroke-width="0.5" stroke="black" fill="red"/>
   </g>
   <g id="cell704">
  <circle cx="187.462" cy="222.751" r="7.60763" stroke-width="0.5" stroke="black" fill="red"/>
  <circle cx="187.462" cy="222.751" r="3.5527" stroke-width="0.5" stroke="red" fill="red"/>
   </g>
   <g id="cell716">
  <circle cx="280.568" cy="362.356" r="3.59647" stroke-width="0.5" stroke="black" fill="red"/>
   </g>
   <g id="cell726">
  <circle cx="263.991" cy="60.4015" r="8.39467" stroke-width="0.5" stroke="black" fill="red"/>
  <circle cx="263.991" cy="60.4015" r="5.02157" stroke-width="0.5" stroke="red" fill="red"/>
   </g>
   <g id="cell732">
  <circle cx="245.155" cy="257.011" r="4.6496" stroke-width="0.5" stroke="black" fill="red"/>
   </g>
   <g id="cell777">
  <circle cx="284.547" cy="234.105" r="5.86168" stroke-width="0.5" stroke="black" fill="red"/>
   </g>
   <g id="cell787">
  <circle cx="249.181" cy="211.864" r="7.14676" stroke-width="0.5" stroke="black" fill="red"/>
  <circle cx="249.181" cy="211.864" r="2.41284" stroke-width="0.5" stroke="red" fill="red"/>
   </g>
   <g id="cell805">
  <circle cx="331.494" cy="314.731" r="8.04991" stroke-width="0.5" stroke="black" fill="red"/>
  <circle cx="331.494" cy="314.731" r="4.42118" stroke-width="0.5" stroke="red" fill="red"/>
   </g>
   <g id="cell814">
  <circle cx="308.317" cy="210.791" r="8.18565" stroke-width="0.5" stroke="black" fill="red"/>
  <circle cx="308.317" cy="210.791" r="4.66375" stroke-width="0.5" stroke="red" fill="red"/>
   </g>
   <g id="cell819">
  <circle cx="348.04" cy="214.398" r="7.4213" stroke-width="0.5" stroke="black" fill="red"/>
  <circle cx="348.04" cy="214.398" r="3.13391" stroke-width="0.5" stroke="red" fill="red"/>
   </g>
   <g id="cell821">
  <circle cx="359.4" cy="276.11" r="7.74109" stroke-width="0.5" stroke="black" fill="red"/>
  <circle cx="359.4" cy="276.11" r="3.83016" stroke-width="0.5" stroke="red" fill="red"/>
   </g>
   <g id="cell831">
  <circle cx="189.747" cy="178.937" r="7.13227" stroke-width="0.5" stroke="black" fill="red"/>
  <circle cx="189.747" cy="178.937" r="2.36959" stroke-width="0.5" stroke="red" fill="red"/>
   </g>
   <g id="cell852">
  <circle cx="290.194" cy="278.147" r="1.14749" stroke-width="0.5" stroke="black" fill="red"/>
   </g>
   <g id="cell854">
  <circle cx="279.119" cy="120.621" r="6.68286" stroke-width="0.5" stroke="black" fill="red"/>
   </g>
   <g id="cell861">
  <circle cx="228.767" cy="68.25" r="8.08686" stroke-width="0.5" stroke="black" fill="red"/>
  <circle cx="228.767" cy="68.25" r="4.4881" stroke-width="0.5" stroke="red" fill="red"/>
   </g>
   <g id="cell867">
  <circle cx="253.829" cy="354.02" r="7.71174" stroke-width="0.5" stroke="black" fill="red"/>
  <circle cx="253.829" cy="354.02" r="3.7705" stroke-width="0.5" stroke="red" fill="red"/>
   </g>
   <g id="cell894">
  <circle cx="208.472" cy="81.431" r="2.31784" stroke-width="0.5" stroke="black" fill="red"/>
   </g>
   <g id="cell898">
  <circle cx="257.707" cy="170.699" r="7.6274" stroke-width="0.5" stroke="black" fill="red"/>
  <circle cx="257.707" cy="170.699" r="3.59484" stroke-width="0.5" stroke="red" fill="red"/>
   </g>
   <g id="cell900">
  <circle cx="277.331" cy="282.089" r="8.29942" stroke-width="0.5" stroke="black" fill="red"/>
  <circle cx="277.331" cy="282.089" r="4.86067" stroke-width="0.5" stroke="red" fill="red"/>
   </g>
   <g id="cell913">
  <circle cx="295.353" cy="201.724" r="7.55069" stroke-width="0.5" stroke="black" fill="red"/>
  <circle cx="295.353" cy="201.724" r="3.42909" stroke-width="0.5" stroke="red" fill="red"/>
   </g>
   <g id="cell949">
  <circle cx="190.438" cy="172.582" r="4.99898" stroke-width="0.5" stroke="black" fill="red"/>
   </g>
  </g>
 </g>
  <rect x="190" y="414" width="200" height="4" stroke-width="0.8" stroke="rgb(255,255,255)" fill="rgb(0,0,0)"/>
  <text x="192.5" y="411.5"
   font-family="Arial" font-size="10" fill="black" >
   200 &#956;m
  </text>
  <text x="10" y="418"
   font-family="Arial" font-size="7.5" fill="black" >
   0 days, 0 hours, 18 minutes, and 47.8368 seconds
  </text>
  <rect x="0" y="28" width="400" height="400" stroke-width="0.8" stroke="rgb(0,0,0)" fill="none"/>
</svg>
