<?xml version="1.0" encoding="UTF-8" standalone="no"?>
<!-- Created with PhysiCell (http://PhysiCell.MathCancer.org/) -->
<svg 
 xmlns:dc="http://purl.org/dc/elements/1.1/" 
 xmlns:cc="http://creativecommons.org/ns#" 
 xmlns:rdf="http://www.w3.org/1999/02/22-rdf-syntax-ns#" 
 xmlns:svg="http://www.w3.org/2000/svg" 
 xmlns="http://www.w3.org/2000/svg" 
 version="1.1" 
 width="400" 
 height="428" 
 id="svg2">
  <rect x="0" y="0" width="400" height="428" stroke-width="0.8" stroke="white" fill="white"/>
  <text x="5" y="12"
   font-family="Arial" font-size="10" fill="black" >
   Current time: 1 days, 0 hours, and 0.00 minutes, z = 0.00 &#956;m
  </text>
  <text x="5" y="23"
   font-family="Arial" font-size="9.5" fill="black" >
   978 agents
  </text>
 <g id="tissue" 
    transform="translate(0,428) scale(1,-1)">
  <g id="ECM">
  </g>
  <g id="cells">
   <g id="cell96">
  <circle cx="178.101" cy="62.5479" r="1.28761" stroke-width="0.5" stroke="black" fill="grey"/>
   </g>
   <g id="cell105">
  <circle cx="104.701" cy="137.601" r="0.699819" stroke-width="0.5" stroke="black" fill="grey"/>
   </g>
   <g id="cell110">
  <circle cx="140.582" cy="267.066" r="7.71368" stroke-width="0.5" stroke="black" fill="grey"/>
  <circle cx="140.582" cy="267.066" r="3.77445" stroke-width="0.5" stroke="grey" fill="grey"/>
   </g>
   <g id="cell131">
  <circle cx="43.1341" cy="229.803" r="7.81253" stroke-width="0.5" stroke="black" fill="grey"/>
  <circle cx="43.1341" cy="229.803" r="3.97257" stroke-width="0.5" stroke="grey" fill="grey"/>
   </g>
   <g id="cell135">
  <circle cx="65.9007" cy="191.432" r="4.49875" stroke-width="0.5" stroke="black" fill="grey"/>
   </g>
   <g id="cell139">
  <circle cx="56.7055" cy="260.602" r="8.39279" stroke-width="0.5" stroke="black" fill="grey"/>
  <circle cx="56.7055" cy="260.602" r="5.01842" stroke-width="0.5" stroke="grey" fill="grey"/>
   </g>
   <g id="cell150">
  <circle cx="134.092" cy="202.467" r="8.11894" stroke-width="0.5" stroke="black" fill="grey"/>
  <circle cx="134.092" cy="202.467" r="4.54565" stroke-width="0.5" stroke="grey" fill="grey"/>
   </g>
   <g id="cell159">
  <circle cx="92.3831" cy="194.572" r="8.26947" stroke-width="0.5" stroke="black" fill="grey"/>
  <circle cx="92.3831" cy="194.572" r="4.80934" stroke-width="0.5" stroke="grey" fill="grey"/>
   </g>
   <g id="cell163">
  <circle cx="88.7857" cy="318.545" r="6.48578" stroke-width="0.5" stroke="black" fill="grey"/>
   </g>
   <g id="cell166">
  <circle cx="156.03" cy="104.411" r="7.51966" stroke-width="0.5" stroke="black" fill="grey"/>
  <circle cx="156.03" cy="104.411" r="3.3602" stroke-width="0.5" stroke="grey" fill="grey"/>
   </g>
   <g id="cell173">
  <circle cx="131.776" cy="100.077" r="4.25876" stroke-width="0.5" stroke="black" fill="grey"/>
   </g>
   <g id="cell177">
  <circle cx="206.428" cy="225.648" r="6.92786" stroke-width="0.5" stroke="black" fill="grey"/>
  <circle cx="206.428" cy="225.648" r="1.65558" stroke-width="0.5" stroke="grey" fill="grey"/>
   </g>
   <g id="cell179">
  <circle cx="119.855" cy="267.955" r="8.33255" stroke-width="0.5" stroke="black" fill="grey"/>
  <circle cx="119.855" cy="267.955" r="4.91701" stroke-width="0.5" stroke="grey" fill="grey"/>
   </g>
   <g id="cell192">
  <circle cx="156.128" cy="234.638" r="7.15044" stroke-width="0.5" stroke="black" fill="grey"/>
  <circle cx="156.128" cy="234.638" r="2.42374" stroke-width="0.5" stroke="grey" fill="grey"/>
   </g>
   <g id="cell194">
  <circle cx="184.511" cy="193.189" r="3.15565" stroke-width="0.5" stroke="black" fill="grey"/>
   </g>
   <g id="cell199">
  <circle cx="55.2948" cy="167.447" r="7.00003" stroke-width="0.5" stroke="black" fill="grey"/>
  <circle cx="55.2948" cy="167.447" r="1.93547" stroke-width="0.5" stroke="grey" fill="grey"/>
   </g>
   <g id="cell204">
  <circle cx="60.86" cy="119.475" r="7.684" stroke-width="0.5" stroke="black" fill="grey"/>
  <circle cx="60.86" cy="119.475" r="3.71342" stroke-width="0.5" stroke="grey" fill="grey"/>
   </g>
   <g id="cell208">
  <circle cx="83.5788" cy="247.392" r="5.28249" stroke-width="0.5" stroke="black" fill="grey"/>
   </g>
   <g id="cell213">
  <circle cx="65.206" cy="209.681" r="7.95691" stroke-width="0.5" stroke="black" fill="grey"/>
  <circle cx="65.206" cy="209.681" r="4.24948" stroke-width="0.5" stroke="grey" fill="grey"/>
   </g>
   <g id="cell217">
  <circle cx="103.028" cy="222.446" r="2.29336" stroke-width="0.5" stroke="black" fill="grey"/>
   </g>
   <g id="cell218">
  <circle cx="89.5329" cy="257.013" r="6.60799" stroke-width="0.5" stroke="black" fill="grey"/>
   </g>
   <g id="cell224">
  <circle cx="128.396" cy="227.116" r="2.57221" stroke-width="0.5" stroke="black" fill="grey"/>
   </g>
   <g id="cell226">
  <circle cx="112.202" cy="310.521" r="5.55725" stroke-width="0.5" stroke="black" fill="grey"/>
   </g>
   <g id="cell229">
  <circle cx="103.023" cy="111.717" r="8.40025" stroke-width="0.5" stroke="black" fill="grey"/>
  <circle cx="103.023" cy="111.717" r="5.03089" stroke-width="0.5" stroke="grey" fill="grey"/>
   </g>
   <g id="cell238">
  <circle cx="181.23" cy="148.864" r="7.73898" stroke-width="0.5" stroke="black" fill="grey"/>
  <circle cx="181.23" cy="148.864" r="3.8259" stroke-width="0.5" stroke="grey" fill="grey"/>
   </g>
   <g id="cell249">
  <circle cx="183.134" cy="232.275" r="8.33637" stroke-width="0.5" stroke="black" fill="grey"/>
  <circle cx="183.134" cy="232.275" r="4.92348" stroke-width="0.5" stroke="grey" fill="grey"/>
   </g>
   <g id="cell252">
  <circle cx="172.764" cy="242.341" r="8.31499" stroke-width="0.5" stroke="black" fill="grey"/>
  <circle cx="172.764" cy="242.341" r="4.8872" stroke-width="0.5" stroke="grey" fill="grey"/>
   </g>
   <g id="cell253">
  <circle cx="192.037" cy="135.894" r="5.51214" stroke-width="0.5" stroke="black" fill="grey"/>
   </g>
   <g id="cell254">
  <circle cx="154.83" cy="167.868" r="5.18469" stroke-width="0.5" stroke="black" fill="grey"/>
   </g>
   <g id="cell260">
  <circle cx="204.281" cy="109.224" r="7.97903" stroke-width="0.5" stroke="black" fill="grey"/>
  <circle cx="204.281" cy="109.224" r="4.29075" stroke-width="0.5" stroke="grey" fill="grey"/>
   </g>
   <g id="cell262">
  <circle cx="204.605" cy="147.857" r="7.23828" stroke-width="0.5" stroke="black" fill="grey"/>
  <circle cx="204.605" cy="147.857" r="2.67177" stroke-width="0.5" stroke="grey" fill="grey"/>
   </g>
   <g id="cell268">
  <circle cx="36.5889" cy="185.106" r="4.94714" stroke-width="0.5" stroke="black" fill="grey"/>
   </g>
   <g id="cell271">
  <circle cx="68.5381" cy="246.011" r="8.39507" stroke-width="0.5" stroke="black" fill="grey"/>
  <circle cx="68.5381" cy="246.011" r="5.02224" stroke-width="0.5" stroke="grey" fill="grey"/>
   </g>
   <g id="cell279">
  <circle cx="108.481" cy="180.059" r="8.35549" stroke-width="0.5" stroke="black" fill="grey"/>
  <circle cx="108.481" cy="180.059" r="4.9558" stroke-width="0.5" stroke="grey" fill="grey"/>
   </g>
   <g id="cell281">
  <circle cx="110.392" cy="159.401" r="7.22967" stroke-width="0.5" stroke="black" fill="grey"/>
  <circle cx="110.392" cy="159.401" r="2.64837" stroke-width="0.5" stroke="grey" fill="grey"/>
   </g>
   <g id="cell284">
  <circle cx="99.5509" cy="269.986" r="8.21784" stroke-width="0.5" stroke="black" fill="grey"/>
  <circle cx="99.5509" cy="269.986" r="4.72003" stroke-width="0.5" stroke="grey" fill="grey"/>
   </g>
   <g id="cell286">
  <circle cx="122.339" cy="97.7476" r="6.62921" stroke-width="0.5" stroke="black" fill="grey"/>
   </g>
   <g id="cell291">
  <circle cx="117.458" cy="242.68" r="8.36394" stroke-width="0.5" stroke="black" fill="grey"/>
  <circle cx="117.458" cy="242.68" r="4.97003" stroke-width="0.5" stroke="grey" fill="grey"/>
   </g>
   <g id="cell298">
  <circle cx="109.137" cy="195.795" r="7.7967" stroke-width="0.5" stroke="black" fill="grey"/>
  <circle cx="109.137" cy="195.795" r="3.94135" stroke-width="0.5" stroke="grey" fill="grey"/>
   </g>
   <g id="cell302">
  <circle cx="87.0952" cy="304.188" r="7.1504" stroke-width="0.5" stroke="black" fill="grey"/>
  <circle cx="87.0952" cy="304.188" r="2.42361" stroke-width="0.5" stroke="grey" fill="grey"/>
   </g>
   <g id="cell310">
  <circle cx="145.533" cy="296.759" r="5.88179" stroke-width="0.5" stroke="black" fill="grey"/>
   </g>
   <g id="cell314">
  <circle cx="177.785" cy="197.824" r="7.83856" stroke-width="0.5" stroke="black" fill="grey"/>
  <circle cx="177.785" cy="197.824" r="4.02352" stroke-width="0.5" stroke="grey" fill="grey"/>
   </g>
   <g id="cell315">
  <circle cx="168.531" cy="170.332" r="8.37961" stroke-width="0.5" stroke="black" fill="grey"/>
  <circle cx="168.531" cy="170.332" r="4.99635" stroke-width="0.5" stroke="grey" fill="grey"/>
   </g>
   <g id="cell323">
  <circle cx="164.099" cy="206.025" r="6.99896" stroke-width="0.5" stroke="black" fill="grey"/>
  <circle cx="164.099" cy="206.025" r="1.93161" stroke-width="0.5" stroke="grey" fill="grey"/>
   </g>
   <g id="cell326">
  <circle cx="169.717" cy="258.43" r="4.57538" stroke-width="0.5" stroke="black" fill="grey"/>
   </g>
   <g id="cell331">
  <circle cx="162.539" cy="220.684" r="8.40991" stroke-width="0.5" stroke="black" fill="grey"/>
  <circle cx="162.539" cy="220.684" r="5.047" stroke-width="0.5" stroke="grey" fill="grey"/>
   </g>
   <g id="cell347">
  <circle cx="92.4915" cy="80.7311" r="7.92086" stroke-width="0.5" stroke="black" fill="grey"/>
  <circle cx="92.4915" cy="80.7311" r="4.18159" stroke-width="0.5" stroke="grey" fill="grey"/>
   </g>
   <g id="cell353">
  <circle cx="90.4207" cy="241.866" r="6.65973" stroke-width="0.5" stroke="black" fill="grey"/>
   </g>
   <g id="cell355">
  <circle cx="127.862" cy="118.245" r="4.10244" stroke-width="0.5" stroke="black" fill="grey"/>
   </g>
   <g id="cell356">
  <circle cx="110.536" cy="151.673" r="2.76207" stroke-width="0.5" stroke="black" fill="grey"/>
   </g>
   <g id="cell368">
  <circle cx="88.196" cy="225.024" r="8.16878" stroke-width="0.5" stroke="black" fill="grey"/>
  <circle cx="88.196" cy="225.024" r="4.63407" stroke-width="0.5" stroke="grey" fill="grey"/>
   </g>
   <g id="cell375">
  <circle cx="139.881" cy="164.979" r="8.23031" stroke-width="0.5" stroke="black" fill="grey"/>
  <circle cx="139.881" cy="164.979" r="4.7417" stroke-width="0.5" stroke="grey" fill="grey"/>
   </g>
   <g id="cell386">
  <circle cx="134.773" cy="217.014" r="5.90572" stroke-width="0.5" stroke="black" fill="grey"/>
   </g>
   <g id="cell390">
  <circle cx="201.644" cy="204.724" r="7.60248" stroke-width="0.5" stroke="black" fill="grey"/>
  <circle cx="201.644" cy="204.724" r="3.54166" stroke-width="0.5" stroke="grey" fill="grey"/>
   </g>
   <g id="cell400">
  <circle cx="30.2148" cy="168.101" r="2.60459" stroke-width="0.5" stroke="black" fill="grey"/>
   </g>
   <g id="cell423">
  <circle cx="121.57" cy="228.396" r="1.59843" stroke-width="0.5" stroke="black" fill="grey"/>
   </g>
   <g id="cell429">
  <circle cx="125.173" cy="163.137" r="7.93938" stroke-width="0.5" stroke="black" fill="grey"/>
  <circle cx="125.173" cy="163.137" r="4.21657" stroke-width="0.5" stroke="grey" fill="grey"/>
   </g>
   <g id="cell548">
  <circle cx="342.263" cy="227.089" r="3.26913" stroke-width="0.5" stroke="black" fill="red"/>
   </g>
   <g id="cell567">
  <circle cx="254.589" cy="272.868" r="5.92135" stroke-width="0.5" stroke="black" fill="red"/>
   </g>
   <g id="cell597">
  <circle cx="298.503" cy="257.662" r="0.542793" stroke-width="0.5" stroke="black" fill="red"/>
   </g>
   <g id="cell613">
  <circle cx="344.424" cy="192.476" r="8.23892" stroke-width="0.5" stroke="black" fill="red"/>
  <circle cx="344.424" cy="192.476" r="4.75662" stroke-width="0.5" stroke="red" fill="red"/>
   </g>
   <g id="cell615">
  <circle cx="326.21" cy="168.426" r="7.86456" stroke-width="0.5" stroke="black" fill="red"/>
  <circle cx="326.21" cy="168.426" r="4.07395" stroke-width="0.5" stroke="red" fill="red"/>
   </g>
   <g id="cell616">
  <circle cx="331.596" cy="239.376" r="8.18107" stroke-width="0.5" stroke="black" fill="red"/>
  <circle cx="331.596" cy="239.376" r="4.65571" stroke-width="0.5" stroke="red" fill="red"/>
   </g>
   <g id="cell623">
  <circle cx="218.53" cy="136.464" r="8.40114" stroke-width="0.5" stroke="black" fill="red"/>
  <circle cx="218.53" cy="136.464" r="5.03237" stroke-width="0.5" stroke="red" fill="red"/>
   </g>
   <g id="cell626">
  <circle cx="215.65" cy="180.926" r="8.37802" stroke-width="0.5" stroke="black" fill="red"/>
  <circle cx="215.65" cy="180.926" r="4.99368" stroke-width="0.5" stroke="red" fill="red"/>
   </g>
   <g id="cell645">
  <circle cx="245.592" cy="160.241" r="8.06579" stroke-width="0.5" stroke="black" fill="red"/>
  <circle cx="245.592" cy="160.241" r="4.45002" stroke-width="0.5" stroke="red" fill="red"/>
   </g>
   <g id="cell649">
  <circle cx="296.836" cy="181.327" r="5.56028" stroke-width="0.5" stroke="black" fill="red"/>
   </g>
   <g id="cell652">
  <circle cx="243.894" cy="255.857" r="7.62061" stroke-width="0.5" stroke="black" fill="red"/>
  <circle cx="243.894" cy="255.857" r="3.58041" stroke-width="0.5" stroke="red" fill="red"/>
   </g>
   <g id="cell659">
  <circle cx="273.777" cy="234.594" r="6.83486" stroke-width="0.5" stroke="black" fill="red"/>
  <circle cx="273.777" cy="234.594" r="1.20871" stroke-width="0.5" stroke="red" fill="red"/>
   </g>
   <g id="cell662">
  <circle cx="293.651" cy="142.041" r="8.1357" stroke-width="0.5" stroke="black" fill="red"/>
  <circle cx="293.651" cy="142.041" r="4.57551" stroke-width="0.5" stroke="red" fill="red"/>
   </g>
   <g id="cell667">
  <circle cx="348.592" cy="263.1" r="5.41325" stroke-width="0.5" stroke="black" fill="red"/>
   </g>
   <g id="cell668">
  <circle cx="329.146" cy="258.625" r="7.75678" stroke-width="0.5" stroke="black" fill="red"/>
  <circle cx="329.146" cy="258.625" r="3.86179" stroke-width="0.5" stroke="red" fill="red"/>
   </g>
   <g id="cell669">
  <circle cx="369.144" cy="116.811" r="6.99352" stroke-width="0.5" stroke="black" fill="red"/>
  <circle cx="369.144" cy="116.811" r="1.91181" stroke-width="0.5" stroke="red" fill="red"/>
   </g>
   <g id="cell677">
  <circle cx="345.759" cy="118.458" r="4.36178" stroke-width="0.5" stroke="black" fill="red"/>
   </g>
   <g id="cell681">
  <circle cx="338.192" cy="278.432" r="6.60943" stroke-width="0.5" stroke="black" fill="red"/>
   </g>
   <g id="cell692">
  <circle cx="174.616" cy="275.004" r="7.1848" stroke-width="0.5" stroke="black" fill="red"/>
  <circle cx="174.616" cy="275.004" r="2.5233" stroke-width="0.5" stroke="red" fill="red"/>
   </g>
   <g id="cell694">
  <circle cx="264.713" cy="163.742" r="6.82428" stroke-width="0.5" stroke="black" fill="red"/>
  <circle cx="264.713" cy="163.742" r="1.14741" stroke-width="0.5" stroke="red" fill="red"/>
   </g>
   <g id="cell702">
  <circle cx="258.638" cy="231.99" r="4.50284" stroke-width="0.5" stroke="black" fill="red"/>
   </g>
   <g id="cell704">
  <circle cx="257.805" cy="218.1" r="8.10783" stroke-width="0.5" stroke="black" fill="red"/>
  <circle cx="257.805" cy="218.1" r="4.52577" stroke-width="0.5" stroke="red" fill="red"/>
   </g>
   <g id="cell705">
  <circle cx="269.998" cy="210.695" r="7.68765" stroke-width="0.5" stroke="black" fill="red"/>
  <circle cx="269.998" cy="210.695" r="3.72098" stroke-width="0.5" stroke="red" fill="red"/>
   </g>
   <g id="cell709">
  <circle cx="233.836" cy="126.083" r="7.8724" stroke-width="0.5" stroke="black" fill="red"/>
  <circle cx="233.836" cy="126.083" r="4.08906" stroke-width="0.5" stroke="red" fill="red"/>
   </g>
   <g id="cell711">
  <circle cx="276.053" cy="186.092" r="6.75377" stroke-width="0.5" stroke="black" fill="red"/>
  <circle cx="276.053" cy="186.092" r="0.599187" stroke-width="0.5" stroke="red" fill="red"/>
   </g>
   <g id="cell716">
  <circle cx="253.971" cy="297.453" r="4.7672" stroke-width="0.5" stroke="black" fill="red"/>
   </g>
   <g id="cell718">
  <circle cx="255.337" cy="152.884" r="1.60339" stroke-width="0.5" stroke="black" fill="red"/>
   </g>
   <g id="cell724">
  <circle cx="258.556" cy="258.813" r="1.81386" stroke-width="0.5" stroke="black" fill="red"/>
   </g>
   <g id="cell734">
  <circle cx="318.415" cy="146.149" r="5.97995" stroke-width="0.5" stroke="black" fill="red"/>
   </g>
   <g id="cell738">
  <circle cx="325.732" cy="191.1" r="7.66948" stroke-width="0.5" stroke="black" fill="red"/>
  <circle cx="325.732" cy="191.1" r="3.68328" stroke-width="0.5" stroke="red" fill="red"/>
   </g>
   <g id="cell741">
  <circle cx="303.77" cy="283.396" r="7.85217" stroke-width="0.5" stroke="black" fill="red"/>
  <circle cx="303.77" cy="283.396" r="4.04998" stroke-width="0.5" stroke="red" fill="red"/>
   </g>
   <g id="cell746">
  <circle cx="329.942" cy="217.686" r="5.30963" stroke-width="0.5" stroke="black" fill="red"/>
   </g>
   <g id="cell763">
  <circle cx="235.297" cy="209.1" r="8.12846" stroke-width="0.5" stroke="black" fill="red"/>
  <circle cx="235.297" cy="209.1" r="4.56262" stroke-width="0.5" stroke="red" fill="red"/>
   </g>
   <g id="cell767">
  <circle cx="217.433" cy="116.296" r="7.7956" stroke-width="0.5" stroke="black" fill="red"/>
  <circle cx="217.433" cy="116.296" r="3.93917" stroke-width="0.5" stroke="red" fill="red"/>
   </g>
   <g id="cell773">
  <circle cx="237.408" cy="237.143" r="8.06692" stroke-width="0.5" stroke="black" fill="red"/>
  <circle cx="237.408" cy="237.143" r="4.45207" stroke-width="0.5" stroke="red" fill="red"/>
   </g>
   <g id="cell781">
  <circle cx="307.878" cy="241.129" r="6.2858" stroke-width="0.5" stroke="black" fill="red"/>
   </g>
   <g id="cell787">
  <circle cx="281.065" cy="152.591" r="7.59954" stroke-width="0.5" stroke="black" fill="red"/>
  <circle cx="281.065" cy="152.591" r="3.53535" stroke-width="0.5" stroke="red" fill="red"/>
   </g>
   <g id="cell795">
  <circle cx="284.401" cy="212.72" r="8.40807" stroke-width="0.5" stroke="black" fill="red"/>
  <circle cx="284.401" cy="212.72" r="5.04394" stroke-width="0.5" stroke="red" fill="red"/>
   </g>
   <g id="cell810">
  <circle cx="328.383" cy="152.672" r="7.48682" stroke-width="0.5" stroke="black" fill="red"/>
  <circle cx="328.383" cy="152.672" r="3.28604" stroke-width="0.5" stroke="red" fill="red"/>
   </g>
   <g id="cell814">
  <circle cx="299.32" cy="214.594" r="6.79061" stroke-width="0.5" stroke="black" fill="red"/>
  <circle cx="299.32" cy="214.594" r="0.926309" stroke-width="0.5" stroke="red" fill="red"/>
   </g>
   <g id="cell823">
  <circle cx="379.806" cy="226.797" r="6.05949" stroke-width="0.5" stroke="black" fill="red"/>
   </g>
   <g id="cell827">
  <circle cx="200.406" cy="215.612" r="4.9769" stroke-width="0.5" stroke="black" fill="red"/>
   </g>
   <g id="cell831">
  <circle cx="219.951" cy="198.611" r="7.97605" stroke-width="0.5" stroke="black" fill="red"/>
  <circle cx="219.951" cy="198.611" r="4.2852" stroke-width="0.5" stroke="red" fill="red"/>
   </g>
   <g id="cell842">
  <circle cx="249.822" cy="238.211" r="6.50076" stroke-width="0.5" stroke="black" fill="red"/>
   </g>
   <g id="cell843">
  <circle cx="230.898" cy="270.883" r="7.34652" stroke-width="0.5" stroke="black" fill="red"/>
  <circle cx="230.898" cy="270.883" r="2.95247" stroke-width="0.5" stroke="red" fill="red"/>
   </g>
   <g id="cell845">
  <circle cx="252.783" cy="130.074" r="7.99094" stroke-width="0.5" stroke="black" fill="red"/>
  <circle cx="252.783" cy="130.074" r="4.31286" stroke-width="0.5" stroke="red" fill="red"/>
   </g>
   <g id="cell862">
  <circle cx="303.258" cy="124.01" r="7.72966" stroke-width="0.5" stroke="black" fill="red"/>
  <circle cx="303.258" cy="124.01" r="3.807" stroke-width="0.5" stroke="red" fill="red"/>
   </g>
   <g id="cell872">
  <circle cx="311.392" cy="192.641" r="3.02544" stroke-width="0.5" stroke="black" fill="red"/>
   </g>
   <g id="cell894">
  <circle cx="244.225" cy="143.685" r="8.19688" stroke-width="0.5" stroke="black" fill="red"/>
  <circle cx="244.225" cy="143.685" r="4.68343" stroke-width="0.5" stroke="red" fill="red"/>
   </g>
   <g id="cell900">
  <circle cx="267.389" cy="292.002" r="5.75159" stroke-width="0.5" stroke="black" fill="red"/>
   </g>
   <g id="cell906">
  <circle cx="254.368" cy="199.45" r="3.89265" stroke-width="0.5" stroke="black" fill="red"/>
   </g>
   <g id="cell911">
  <circle cx="290.487" cy="246.127" r="7.06503" stroke-width="0.5" stroke="black" fill="red"/>
  <circle cx="290.487" cy="246.127" r="2.15877" stroke-width="0.5" stroke="red" fill="red"/>
   </g>
   <g id="cell935">
  <circle cx="313.636" cy="257.222" r="8.3134" stroke-width="0.5" stroke="black" fill="red"/>
  <circle cx="313.636" cy="257.222" r="4.88449" stroke-width="0.5" stroke="red" fill="red"/>
   </g>
   <g id="cell949">
  <circle cx="229.384" cy="187.976" r="8.40775" stroke-width="0.5" stroke="black" fill="red"/>
  <circle cx="229.384" cy="187.976" r="5.04341" stroke-width="0.5" stroke="red" fill="red"/>
   </g>
  </g>
 </g>
  <rect x="190" y="414" width="200" height="4" stroke-width="0.8" stroke="rgb(255,255,255)" fill="rgb(0,0,0)"/>
  <text x="192.5" y="411.5"
   font-family="Arial" font-size="10" fill="black" >
   200 &#956;m
  </text>
  <text x="10" y="418"
   font-family="Arial" font-size="7.5" fill="black" >
   0 days, 0 hours, 8 minutes, and 15.5221 seconds
  </text>
  <rect x="0" y="28" width="400" height="400" stroke-width="0.8" stroke="rgb(0,0,0)" fill="none"/>
</svg>
