<?xml version="1.0" encoding="UTF-8" standalone="no"?>
<!-- Created with PhysiCell (http://PhysiCell.MathCancer.org/) -->
<svg 
 xmlns:dc="http://purl.org/dc/elements/1.1/" 
 xmlns:cc="http://creativecommons.org/ns#" 
 xmlns:rdf="http://www.w3.org/1999/02/22-rdf-syntax-ns#" 
 xmlns:svg="http://www.w3.org/2000/svg" 
 xmlns="http://www.w3.org/2000/svg" 
 version="1.1" 
 width="400" 
 height="428" 
 id="svg2">
  <rect x="0" y="0" width="400" height="428" stroke-width="0.8" stroke="white" fill="white"/>
  <text x="5" y="12"
   font-family="Arial" font-size="10" fill="black" >
   Current time: 2 days, 8 hours, and 0.00 minutes, z = 0.00 &#956;m
  </text>
  <text x="5" y="23"
   font-family="Arial" font-size="9.5" fill="black" >
   978 agents
  </text>
 <g id="tissue" 
    transform="translate(0,428) scale(1,-1)">
  <g id="ECM">
  </g>
  <g id="cells">
   <g id="cell4">
  <circle cx="114.752" cy="251.7" r="8.18796" stroke-width="0.5" stroke="black" fill="grey"/>
  <circle cx="114.752" cy="251.7" r="4.6678" stroke-width="0.5" stroke="grey" fill="grey"/>
   </g>
   <g id="cell35">
  <circle cx="178.686" cy="151.541" r="5.80481" stroke-width="0.5" stroke="black" fill="grey"/>
   </g>
   <g id="cell81">
  <circle cx="104.577" cy="102.139" r="7.14135" stroke-width="0.5" stroke="black" fill="grey"/>
  <circle cx="104.577" cy="102.139" r="2.39679" stroke-width="0.5" stroke="grey" fill="grey"/>
   </g>
   <g id="cell107">
  <circle cx="162.706" cy="236.091" r="1.31637" stroke-width="0.5" stroke="black" fill="grey"/>
   </g>
   <g id="cell147">
  <circle cx="74.2183" cy="121.392" r="6.18026" stroke-width="0.5" stroke="black" fill="grey"/>
   </g>
   <g id="cell164">
  <circle cx="127.037" cy="165.771" r="7.94478" stroke-width="0.5" stroke="black" fill="grey"/>
  <circle cx="127.037" cy="165.771" r="4.22673" stroke-width="0.5" stroke="grey" fill="grey"/>
   </g>
   <g id="cell168">
  <circle cx="137.517" cy="250.583" r="8.21493" stroke-width="0.5" stroke="black" fill="grey"/>
  <circle cx="137.517" cy="250.583" r="4.71495" stroke-width="0.5" stroke="grey" fill="grey"/>
   </g>
   <g id="cell172">
  <circle cx="122.229" cy="70.652" r="8.20528" stroke-width="0.5" stroke="black" fill="grey"/>
  <circle cx="122.229" cy="70.652" r="4.69811" stroke-width="0.5" stroke="grey" fill="grey"/>
   </g>
   <g id="cell173">
  <circle cx="109.649" cy="90.5634" r="5.32284" stroke-width="0.5" stroke="black" fill="grey"/>
   </g>
   <g id="cell182">
  <circle cx="168.182" cy="165.511" r="8.24965" stroke-width="0.5" stroke="black" fill="grey"/>
  <circle cx="168.182" cy="165.511" r="4.77519" stroke-width="0.5" stroke="grey" fill="grey"/>
   </g>
   <g id="cell195">
  <circle cx="61.5543" cy="167.749" r="1.82813" stroke-width="0.5" stroke="black" fill="grey"/>
   </g>
   <g id="cell196">
  <circle cx="40.4785" cy="227.07" r="8.39982" stroke-width="0.5" stroke="black" fill="grey"/>
  <circle cx="40.4785" cy="227.07" r="5.03018" stroke-width="0.5" stroke="grey" fill="grey"/>
   </g>
   <g id="cell197">
  <circle cx="106.093" cy="275.749" r="8.26092" stroke-width="0.5" stroke="black" fill="grey"/>
  <circle cx="106.093" cy="275.749" r="4.79462" stroke-width="0.5" stroke="grey" fill="grey"/>
   </g>
   <g id="cell199">
  <circle cx="32.5835" cy="172.09" r="8.05739" stroke-width="0.5" stroke="black" fill="grey"/>
  <circle cx="32.5835" cy="172.09" r="4.43477" stroke-width="0.5" stroke="grey" fill="grey"/>
   </g>
   <g id="cell204">
  <circle cx="52.5535" cy="150.922" r="6.54754" stroke-width="0.5" stroke="black" fill="grey"/>
   </g>
   <g id="cell207">
  <circle cx="54.0525" cy="218.4" r="8.09777" stroke-width="0.5" stroke="black" fill="grey"/>
  <circle cx="54.0525" cy="218.4" r="4.50773" stroke-width="0.5" stroke="grey" fill="grey"/>
   </g>
   <g id="cell221">
  <circle cx="109.761" cy="122.224" r="7.75388" stroke-width="0.5" stroke="black" fill="grey"/>
  <circle cx="109.761" cy="122.224" r="3.85595" stroke-width="0.5" stroke="grey" fill="grey"/>
   </g>
   <g id="cell223">
  <circle cx="139.184" cy="209.697" r="8.2027" stroke-width="0.5" stroke="black" fill="grey"/>
  <circle cx="139.184" cy="209.697" r="4.6936" stroke-width="0.5" stroke="grey" fill="grey"/>
   </g>
   <g id="cell231">
  <circle cx="137.858" cy="191.658" r="7.50841" stroke-width="0.5" stroke="black" fill="grey"/>
  <circle cx="137.858" cy="191.658" r="3.33495" stroke-width="0.5" stroke="grey" fill="grey"/>
   </g>
   <g id="cell232">
  <circle cx="112.411" cy="199.435" r="8.40469" stroke-width="0.5" stroke="black" fill="grey"/>
  <circle cx="112.411" cy="199.435" r="5.03831" stroke-width="0.5" stroke="grey" fill="grey"/>
   </g>
   <g id="cell243">
  <circle cx="178.525" cy="270.331" r="7.16287" stroke-width="0.5" stroke="black" fill="grey"/>
  <circle cx="178.525" cy="270.331" r="2.46016" stroke-width="0.5" stroke="grey" fill="grey"/>
   </g>
   <g id="cell245">
  <circle cx="182.649" cy="203.864" r="8.35233" stroke-width="0.5" stroke="black" fill="grey"/>
  <circle cx="182.649" cy="203.864" r="4.95047" stroke-width="0.5" stroke="grey" fill="grey"/>
   </g>
   <g id="cell250">
  <circle cx="162.019" cy="268.171" r="8.06669" stroke-width="0.5" stroke="black" fill="grey"/>
  <circle cx="162.019" cy="268.171" r="4.45165" stroke-width="0.5" stroke="grey" fill="grey"/>
   </g>
   <g id="cell255">
  <circle cx="169.591" cy="133.043" r="3.54119" stroke-width="0.5" stroke="black" fill="grey"/>
   </g>
   <g id="cell263">
  <circle cx="147.32" cy="298.849" r="7.70058" stroke-width="0.5" stroke="black" fill="grey"/>
  <circle cx="147.32" cy="298.849" r="3.74761" stroke-width="0.5" stroke="grey" fill="grey"/>
   </g>
   <g id="cell291">
  <circle cx="82.2656" cy="227.206" r="8.37358" stroke-width="0.5" stroke="black" fill="grey"/>
  <circle cx="82.2656" cy="227.206" r="4.98623" stroke-width="0.5" stroke="grey" fill="grey"/>
   </g>
   <g id="cell301">
  <circle cx="142.738" cy="269.276" r="8.14346" stroke-width="0.5" stroke="black" fill="grey"/>
  <circle cx="142.738" cy="269.276" r="4.5893" stroke-width="0.5" stroke="grey" fill="grey"/>
   </g>
   <g id="cell375">
  <circle cx="152.92" cy="155.443" r="5.31474" stroke-width="0.5" stroke="black" fill="grey"/>
   </g>
   <g id="cell397">
  <circle cx="193.692" cy="264.813" r="6.05973" stroke-width="0.5" stroke="black" fill="grey"/>
   </g>
   <g id="cell405">
  <circle cx="141.774" cy="145.28" r="3.09054" stroke-width="0.5" stroke="black" fill="grey"/>
   </g>
   <g id="cell408">
  <circle cx="16.3043" cy="157.731" r="7.23247" stroke-width="0.5" stroke="black" fill="grey"/>
  <circle cx="16.3043" cy="157.731" r="2.656" stroke-width="0.5" stroke="grey" fill="grey"/>
   </g>
   <g id="cell413">
  <circle cx="97.049" cy="107.269" r="4.79405" stroke-width="0.5" stroke="black" fill="grey"/>
   </g>
   <g id="cell477">
  <circle cx="118.415" cy="225.404" r="8.35704" stroke-width="0.5" stroke="black" fill="grey"/>
  <circle cx="118.415" cy="225.404" r="4.9584" stroke-width="0.5" stroke="grey" fill="grey"/>
   </g>
   <g id="cell508">
  <circle cx="258.832" cy="187.184" r="6.09761" stroke-width="0.5" stroke="black" fill="red"/>
   </g>
   <g id="cell512">
  <circle cx="357.753" cy="196.51" r="5.80518" stroke-width="0.5" stroke="black" fill="red"/>
   </g>
   <g id="cell536">
  <circle cx="207.711" cy="250.071" r="6.98337" stroke-width="0.5" stroke="black" fill="red"/>
  <circle cx="207.711" cy="250.071" r="1.87432" stroke-width="0.5" stroke="red" fill="red"/>
   </g>
   <g id="cell539">
  <circle cx="272.068" cy="174.142" r="8.23079" stroke-width="0.5" stroke="black" fill="red"/>
  <circle cx="272.068" cy="174.142" r="4.74254" stroke-width="0.5" stroke="red" fill="red"/>
   </g>
   <g id="cell559">
  <circle cx="240.003" cy="245.328" r="1.81071" stroke-width="0.5" stroke="black" fill="red"/>
   </g>
   <g id="cell573">
  <circle cx="253.069" cy="260.444" r="8.19062" stroke-width="0.5" stroke="black" fill="red"/>
  <circle cx="253.069" cy="260.444" r="4.67247" stroke-width="0.5" stroke="red" fill="red"/>
   </g>
   <g id="cell597">
  <circle cx="282.027" cy="254.412" r="8.29875" stroke-width="0.5" stroke="black" fill="red"/>
  <circle cx="282.027" cy="254.412" r="4.85951" stroke-width="0.5" stroke="red" fill="red"/>
   </g>
   <g id="cell605">
  <circle cx="353.9" cy="222.303" r="8.40435" stroke-width="0.5" stroke="black" fill="red"/>
  <circle cx="353.9" cy="222.303" r="5.03774" stroke-width="0.5" stroke="red" fill="red"/>
   </g>
   <g id="cell606">
  <circle cx="340.625" cy="212.493" r="8.38959" stroke-width="0.5" stroke="black" fill="red"/>
  <circle cx="340.625" cy="212.493" r="5.01308" stroke-width="0.5" stroke="red" fill="red"/>
   </g>
   <g id="cell614">
  <circle cx="335.602" cy="165.823" r="3.12606" stroke-width="0.5" stroke="black" fill="red"/>
   </g>
   <g id="cell624">
  <circle cx="256.516" cy="171.845" r="7.4704" stroke-width="0.5" stroke="black" fill="red"/>
  <circle cx="256.516" cy="171.845" r="3.24848" stroke-width="0.5" stroke="red" fill="red"/>
   </g>
   <g id="cell625">
  <circle cx="238.376" cy="163.811" r="6.94837" stroke-width="0.5" stroke="black" fill="red"/>
  <circle cx="238.376" cy="163.811" r="1.73942" stroke-width="0.5" stroke="red" fill="red"/>
   </g>
   <g id="cell627">
  <circle cx="239.739" cy="311.84" r="5.0485" stroke-width="0.5" stroke="black" fill="red"/>
   </g>
   <g id="cell633">
  <circle cx="254.645" cy="281.109" r="7.82251" stroke-width="0.5" stroke="black" fill="red"/>
  <circle cx="254.645" cy="281.109" r="3.99215" stroke-width="0.5" stroke="red" fill="red"/>
   </g>
   <g id="cell636">
  <circle cx="277.023" cy="83.5606" r="8.06338" stroke-width="0.5" stroke="black" fill="red"/>
  <circle cx="277.023" cy="83.5606" r="4.44564" stroke-width="0.5" stroke="red" fill="red"/>
   </g>
   <g id="cell647">
  <circle cx="317.462" cy="197.842" r="8.12114" stroke-width="0.5" stroke="black" fill="red"/>
  <circle cx="317.462" cy="197.842" r="4.54957" stroke-width="0.5" stroke="red" fill="red"/>
   </g>
   <g id="cell648">
  <circle cx="319.571" cy="229.609" r="3.17399" stroke-width="0.5" stroke="black" fill="red"/>
   </g>
   <g id="cell659">
  <circle cx="319.813" cy="242.755" r="8.39296" stroke-width="0.5" stroke="black" fill="red"/>
  <circle cx="319.813" cy="242.755" r="5.01872" stroke-width="0.5" stroke="red" fill="red"/>
   </g>
   <g id="cell686">
  <circle cx="231.261" cy="232.919" r="3.65164" stroke-width="0.5" stroke="black" fill="red"/>
   </g>
   <g id="cell702">
  <circle cx="201.597" cy="203.074" r="8.39598" stroke-width="0.5" stroke="black" fill="red"/>
  <circle cx="201.597" cy="203.074" r="5.02376" stroke-width="0.5" stroke="red" fill="red"/>
   </g>
   <g id="cell718">
  <circle cx="247.363" cy="157.873" r="0.513336" stroke-width="0.5" stroke="black" fill="red"/>
   </g>
   <g id="cell725">
  <circle cx="306.115" cy="100.274" r="8.40209" stroke-width="0.5" stroke="black" fill="red"/>
  <circle cx="306.115" cy="100.274" r="5.03397" stroke-width="0.5" stroke="red" fill="red"/>
   </g>
   <g id="cell741">
  <circle cx="277.025" cy="321.768" r="2.56445" stroke-width="0.5" stroke="black" fill="red"/>
   </g>
   <g id="cell743">
  <circle cx="382.377" cy="183.731" r="7.78473" stroke-width="0.5" stroke="black" fill="red"/>
  <circle cx="382.377" cy="183.731" r="3.91761" stroke-width="0.5" stroke="red" fill="red"/>
   </g>
   <g id="cell744">
  <circle cx="296.923" cy="150.669" r="7.35307" stroke-width="0.5" stroke="black" fill="red"/>
  <circle cx="296.923" cy="150.669" r="2.96872" stroke-width="0.5" stroke="red" fill="red"/>
   </g>
   <g id="cell745">
  <circle cx="318.065" cy="108.673" r="7.40873" stroke-width="0.5" stroke="black" fill="red"/>
  <circle cx="318.065" cy="108.673" r="3.10402" stroke-width="0.5" stroke="red" fill="red"/>
   </g>
   <g id="cell746">
  <circle cx="308.702" cy="232.953" r="6.84235" stroke-width="0.5" stroke="black" fill="red"/>
  <circle cx="308.702" cy="232.953" r="1.25038" stroke-width="0.5" stroke="red" fill="red"/>
   </g>
   <g id="cell760">
  <circle cx="219.133" cy="271.266" r="7.6562" stroke-width="0.5" stroke="black" fill="red"/>
  <circle cx="219.133" cy="271.266" r="3.65556" stroke-width="0.5" stroke="red" fill="red"/>
   </g>
   <g id="cell769">
  <circle cx="284.835" cy="190.43" r="6.96639" stroke-width="0.5" stroke="black" fill="red"/>
  <circle cx="284.835" cy="190.43" r="1.81005" stroke-width="0.5" stroke="red" fill="red"/>
   </g>
   <g id="cell776">
  <circle cx="163.974" cy="180.207" r="8.39286" stroke-width="0.5" stroke="black" fill="red"/>
  <circle cx="163.974" cy="180.207" r="5.01854" stroke-width="0.5" stroke="red" fill="red"/>
   </g>
   <g id="cell777">
  <circle cx="286.28" cy="239.753" r="7.19204" stroke-width="0.5" stroke="black" fill="red"/>
  <circle cx="286.28" cy="239.753" r="2.54383" stroke-width="0.5" stroke="red" fill="red"/>
   </g>
   <g id="cell783">
  <circle cx="312.401" cy="67.7252" r="7.97672" stroke-width="0.5" stroke="black" fill="red"/>
  <circle cx="312.401" cy="67.7252" r="4.28645" stroke-width="0.5" stroke="red" fill="red"/>
   </g>
   <g id="cell787">
  <circle cx="256.433" cy="205.182" r="5.25181" stroke-width="0.5" stroke="black" fill="red"/>
   </g>
   <g id="cell802">
  <circle cx="308.844" cy="126.867" r="8.04451" stroke-width="0.5" stroke="black" fill="red"/>
  <circle cx="308.844" cy="126.867" r="4.41132" stroke-width="0.5" stroke="red" fill="red"/>
   </g>
   <g id="cell841">
  <circle cx="244.258" cy="229.918" r="7.07237" stroke-width="0.5" stroke="black" fill="red"/>
  <circle cx="244.258" cy="229.918" r="2.18267" stroke-width="0.5" stroke="red" fill="red"/>
   </g>
   <g id="cell849">
  <circle cx="222.43" cy="159.985" r="8.41247" stroke-width="0.5" stroke="black" fill="red"/>
  <circle cx="222.43" cy="159.985" r="5.05127" stroke-width="0.5" stroke="red" fill="red"/>
   </g>
   <g id="cell852">
  <circle cx="285.273" cy="281.496" r="7.34948" stroke-width="0.5" stroke="black" fill="red"/>
  <circle cx="285.273" cy="281.496" r="2.95982" stroke-width="0.5" stroke="red" fill="red"/>
   </g>
   <g id="cell875">
  <circle cx="310.957" cy="264.254" r="4.93619" stroke-width="0.5" stroke="black" fill="red"/>
   </g>
   <g id="cell892">
  <circle cx="234.07" cy="284.043" r="7.31101" stroke-width="0.5" stroke="black" fill="red"/>
  <circle cx="234.07" cy="284.043" r="2.86297" stroke-width="0.5" stroke="red" fill="red"/>
   </g>
   <g id="cell898">
  <circle cx="237.704" cy="144.275" r="8.02386" stroke-width="0.5" stroke="black" fill="red"/>
  <circle cx="237.704" cy="144.275" r="4.37356" stroke-width="0.5" stroke="red" fill="red"/>
   </g>
   <g id="cell899">
  <circle cx="227.884" cy="296.219" r="8.2067" stroke-width="0.5" stroke="black" fill="red"/>
  <circle cx="227.884" cy="296.219" r="4.7006" stroke-width="0.5" stroke="red" fill="red"/>
   </g>
   <g id="cell909">
  <circle cx="227.923" cy="134.646" r="5.19244" stroke-width="0.5" stroke="black" fill="red"/>
   </g>
   <g id="cell939">
  <circle cx="347.534" cy="198.196" r="6.49605" stroke-width="0.5" stroke="black" fill="red"/>
   </g>
  </g>
 </g>
  <rect x="190" y="414" width="200" height="4" stroke-width="0.8" stroke="rgb(255,255,255)" fill="rgb(0,0,0)"/>
  <text x="192.5" y="411.5"
   font-family="Arial" font-size="10" fill="black" >
   200 &#956;m
  </text>
  <text x="10" y="418"
   font-family="Arial" font-size="7.5" fill="black" >
   0 days, 0 hours, 17 minutes, and 34.1910 seconds
  </text>
  <rect x="0" y="28" width="400" height="400" stroke-width="0.8" stroke="rgb(0,0,0)" fill="none"/>
</svg>
