<?xml version="1.0" encoding="UTF-8" standalone="no"?>
<!-- Created with PhysiCell (http://PhysiCell.MathCancer.org/) -->
<svg 
 xmlns:dc="http://purl.org/dc/elements/1.1/" 
 xmlns:cc="http://creativecommons.org/ns#" 
 xmlns:rdf="http://www.w3.org/1999/02/22-rdf-syntax-ns#" 
 xmlns:svg="http://www.w3.org/2000/svg" 
 xmlns="http://www.w3.org/2000/svg" 
 version="1.1" 
 width="400" 
 height="428" 
 id="svg2">
  <rect x="0" y="0" width="400" height="428" stroke-width="0.8" stroke="white" fill="white"/>
  <text x="5" y="12"
   font-family="Arial" font-size="10" fill="black" >
   Current time: 0 days, 5 hours, and 0.00 minutes, z = 0.00 &#956;m
  </text>
  <text x="5" y="23"
   font-family="Arial" font-size="9.5" fill="black" >
   978 agents
  </text>
 <g id="tissue" 
    transform="translate(0,428) scale(1,-1)">
  <g id="ECM">
  </g>
  <g id="cells">
   <g id="cell81">
  <circle cx="79.231" cy="148.667" r="2.28082" stroke-width="0.5" stroke="black" fill="grey"/>
   </g>
   <g id="cell129">
  <circle cx="65.2068" cy="175.343" r="6.75087" stroke-width="0.5" stroke="black" fill="grey"/>
  <circle cx="65.2068" cy="175.343" r="0.565572" stroke-width="0.5" stroke="grey" fill="grey"/>
   </g>
   <g id="cell151">
  <circle cx="93.1028" cy="206.294" r="3.9222" stroke-width="0.5" stroke="black" fill="grey"/>
   </g>
   <g id="cell152">
  <circle cx="121.429" cy="228.061" r="7.91332" stroke-width="0.5" stroke="black" fill="grey"/>
  <circle cx="121.429" cy="228.061" r="4.16729" stroke-width="0.5" stroke="grey" fill="grey"/>
   </g>
   <g id="cell153">
  <circle cx="100.904" cy="244.933" r="7.7743" stroke-width="0.5" stroke="black" fill="grey"/>
  <circle cx="100.904" cy="244.933" r="3.89685" stroke-width="0.5" stroke="grey" fill="grey"/>
   </g>
   <g id="cell160">
  <circle cx="107.704" cy="218.583" r="6.4815" stroke-width="0.5" stroke="black" fill="grey"/>
   </g>
   <g id="cell164">
  <circle cx="132.361" cy="145.992" r="5.02444" stroke-width="0.5" stroke="black" fill="grey"/>
   </g>
   <g id="cell166">
  <circle cx="134.151" cy="152.399" r="5.82014" stroke-width="0.5" stroke="black" fill="grey"/>
   </g>
   <g id="cell170">
  <circle cx="141.996" cy="258.75" r="5.56728" stroke-width="0.5" stroke="black" fill="grey"/>
   </g>
   <g id="cell172">
  <circle cx="148.592" cy="114.125" r="7.84735" stroke-width="0.5" stroke="black" fill="grey"/>
  <circle cx="148.592" cy="114.125" r="4.04062" stroke-width="0.5" stroke="grey" fill="grey"/>
   </g>
   <g id="cell175">
  <circle cx="135.681" cy="178.568" r="3.89569" stroke-width="0.5" stroke="black" fill="grey"/>
   </g>
   <g id="cell182">
  <circle cx="153.893" cy="172.83" r="2.80582" stroke-width="0.5" stroke="black" fill="grey"/>
   </g>
   <g id="cell187">
  <circle cx="176.836" cy="271.323" r="5.33146" stroke-width="0.5" stroke="black" fill="grey"/>
   </g>
   <g id="cell200">
  <circle cx="67.5481" cy="188.752" r="4.29275" stroke-width="0.5" stroke="black" fill="grey"/>
   </g>
   <g id="cell204">
  <circle cx="53.6887" cy="148.173" r="6.58516" stroke-width="0.5" stroke="black" fill="grey"/>
   </g>
   <g id="cell205">
  <circle cx="77.3875" cy="172.732" r="7.1989" stroke-width="0.5" stroke="black" fill="grey"/>
  <circle cx="77.3875" cy="172.732" r="2.56316" stroke-width="0.5" stroke="grey" fill="grey"/>
   </g>
   <g id="cell207">
  <circle cx="88.8152" cy="187.996" r="7.04358" stroke-width="0.5" stroke="black" fill="grey"/>
  <circle cx="88.8152" cy="187.996" r="2.08752" stroke-width="0.5" stroke="grey" fill="grey"/>
   </g>
   <g id="cell209">
  <circle cx="72.5648" cy="240.734" r="5.062" stroke-width="0.5" stroke="black" fill="grey"/>
   </g>
   <g id="cell213">
  <circle cx="104.784" cy="180.072" r="8.41237" stroke-width="0.5" stroke="black" fill="grey"/>
  <circle cx="104.784" cy="180.072" r="5.0511" stroke-width="0.5" stroke="grey" fill="grey"/>
   </g>
   <g id="cell214">
  <circle cx="96.2705" cy="193.377" r="4.88264" stroke-width="0.5" stroke="black" fill="grey"/>
   </g>
   <g id="cell215">
  <circle cx="78.6056" cy="200.146" r="6.92319" stroke-width="0.5" stroke="black" fill="grey"/>
  <circle cx="78.6056" cy="200.146" r="1.63591" stroke-width="0.5" stroke="grey" fill="grey"/>
   </g>
   <g id="cell222">
  <circle cx="121.511" cy="184.851" r="8.07033" stroke-width="0.5" stroke="black" fill="grey"/>
  <circle cx="121.511" cy="184.851" r="4.45824" stroke-width="0.5" stroke="grey" fill="grey"/>
   </g>
   <g id="cell223">
  <circle cx="102.244" cy="211.12" r="6.69858" stroke-width="0.5" stroke="black" fill="grey"/>
   </g>
   <g id="cell227">
  <circle cx="117.249" cy="289.257" r="5.26428" stroke-width="0.5" stroke="black" fill="grey"/>
   </g>
   <g id="cell230">
  <circle cx="118.827" cy="167.51" r="7.8435" stroke-width="0.5" stroke="black" fill="grey"/>
  <circle cx="118.827" cy="167.51" r="4.03314" stroke-width="0.5" stroke="grey" fill="grey"/>
   </g>
   <g id="cell234">
  <circle cx="149.04" cy="256.058" r="1.44113" stroke-width="0.5" stroke="black" fill="grey"/>
   </g>
   <g id="cell235">
  <circle cx="154.697" cy="270.958" r="6.04547" stroke-width="0.5" stroke="black" fill="grey"/>
   </g>
   <g id="cell237">
  <circle cx="150.38" cy="139.554" r="4.36218" stroke-width="0.5" stroke="black" fill="grey"/>
   </g>
   <g id="cell240">
  <circle cx="142.986" cy="199.834" r="7.73189" stroke-width="0.5" stroke="black" fill="grey"/>
  <circle cx="142.986" cy="199.834" r="3.81154" stroke-width="0.5" stroke="grey" fill="grey"/>
   </g>
   <g id="cell241">
  <circle cx="155.597" cy="224.712" r="7.61463" stroke-width="0.5" stroke="black" fill="grey"/>
  <circle cx="155.597" cy="224.712" r="3.56767" stroke-width="0.5" stroke="grey" fill="grey"/>
   </g>
   <g id="cell243">
  <circle cx="160.947" cy="250.486" r="8.21698" stroke-width="0.5" stroke="black" fill="grey"/>
  <circle cx="160.947" cy="250.486" r="4.71852" stroke-width="0.5" stroke="grey" fill="grey"/>
   </g>
   <g id="cell245">
  <circle cx="173.686" cy="151.48" r="7.45664" stroke-width="0.5" stroke="black" fill="grey"/>
  <circle cx="173.686" cy="151.48" r="3.21669" stroke-width="0.5" stroke="grey" fill="grey"/>
   </g>
   <g id="cell250">
  <circle cx="150.458" cy="241.886" r="2.62926" stroke-width="0.5" stroke="black" fill="grey"/>
   </g>
   <g id="cell254">
  <circle cx="156.353" cy="159.862" r="8.07852" stroke-width="0.5" stroke="black" fill="grey"/>
  <circle cx="156.353" cy="159.862" r="4.47304" stroke-width="0.5" stroke="grey" fill="grey"/>
   </g>
   <g id="cell255">
  <circle cx="166.787" cy="173.98" r="8.33865" stroke-width="0.5" stroke="black" fill="grey"/>
  <circle cx="166.787" cy="173.98" r="4.92734" stroke-width="0.5" stroke="grey" fill="grey"/>
   </g>
   <g id="cell257">
  <circle cx="180.315" cy="228.561" r="3.91346" stroke-width="0.5" stroke="black" fill="grey"/>
   </g>
   <g id="cell260">
  <circle cx="184.559" cy="136.652" r="7.9141" stroke-width="0.5" stroke="black" fill="grey"/>
  <circle cx="184.559" cy="136.652" r="4.16878" stroke-width="0.5" stroke="grey" fill="grey"/>
   </g>
   <g id="cell261">
  <circle cx="191.706" cy="173.156" r="7.39273" stroke-width="0.5" stroke="black" fill="grey"/>
  <circle cx="191.706" cy="173.156" r="3.06564" stroke-width="0.5" stroke="grey" fill="grey"/>
   </g>
   <g id="cell262">
  <circle cx="185.975" cy="184.987" r="8.4081" stroke-width="0.5" stroke="black" fill="grey"/>
  <circle cx="185.975" cy="184.987" r="5.04398" stroke-width="0.5" stroke="grey" fill="grey"/>
   </g>
   <g id="cell265">
  <circle cx="187.207" cy="240.998" r="5.77334" stroke-width="0.5" stroke="black" fill="grey"/>
   </g>
   <g id="cell269">
  <circle cx="62.6418" cy="206.1" r="8.33829" stroke-width="0.5" stroke="black" fill="grey"/>
  <circle cx="62.6418" cy="206.1" r="4.92675" stroke-width="0.5" stroke="grey" fill="grey"/>
   </g>
   <g id="cell279">
  <circle cx="77.103" cy="156.208" r="7.84798" stroke-width="0.5" stroke="black" fill="grey"/>
  <circle cx="77.103" cy="156.208" r="4.04184" stroke-width="0.5" stroke="grey" fill="grey"/>
   </g>
   <g id="cell281">
  <circle cx="92.7961" cy="172.313" r="7.65226" stroke-width="0.5" stroke="black" fill="grey"/>
  <circle cx="92.7961" cy="172.313" r="3.6473" stroke-width="0.5" stroke="grey" fill="grey"/>
   </g>
   <g id="cell285">
  <circle cx="83.4991" cy="232.557" r="3.89985" stroke-width="0.5" stroke="black" fill="grey"/>
   </g>
   <g id="cell286">
  <circle cx="105.469" cy="138.368" r="3.86517" stroke-width="0.5" stroke="black" fill="grey"/>
   </g>
   <g id="cell287">
  <circle cx="102.034" cy="148.486" r="7.6066" stroke-width="0.5" stroke="black" fill="grey"/>
  <circle cx="102.034" cy="148.486" r="3.5505" stroke-width="0.5" stroke="grey" fill="grey"/>
   </g>
   <g id="cell291">
  <circle cx="108.102" cy="237.946" r="4.98861" stroke-width="0.5" stroke="black" fill="grey"/>
   </g>
   <g id="cell292">
  <circle cx="114.725" cy="254.29" r="3.64211" stroke-width="0.5" stroke="black" fill="grey"/>
   </g>
   <g id="cell298">
  <circle cx="122.376" cy="212.658" r="6.62959" stroke-width="0.5" stroke="black" fill="grey"/>
   </g>
   <g id="cell301">
  <circle cx="130.479" cy="253.251" r="8.37733" stroke-width="0.5" stroke="black" fill="grey"/>
  <circle cx="130.479" cy="253.251" r="4.99253" stroke-width="0.5" stroke="grey" fill="grey"/>
   </g>
   <g id="cell311">
  <circle cx="158.653" cy="133.063" r="5.13162" stroke-width="0.5" stroke="black" fill="grey"/>
   </g>
   <g id="cell314">
  <circle cx="164.389" cy="192.118" r="5.03616" stroke-width="0.5" stroke="black" fill="grey"/>
   </g>
   <g id="cell315">
  <circle cx="150.332" cy="187.328" r="6.60247" stroke-width="0.5" stroke="black" fill="grey"/>
   </g>
   <g id="cell317">
  <circle cx="136.252" cy="238.952" r="8.09377" stroke-width="0.5" stroke="black" fill="grey"/>
  <circle cx="136.252" cy="238.952" r="4.50054" stroke-width="0.5" stroke="grey" fill="grey"/>
   </g>
   <g id="cell319">
  <circle cx="139.098" cy="270.238" r="7.62895" stroke-width="0.5" stroke="black" fill="grey"/>
  <circle cx="139.098" cy="270.238" r="3.59814" stroke-width="0.5" stroke="grey" fill="grey"/>
   </g>
   <g id="cell325">
  <circle cx="169.575" cy="237.976" r="5.63907" stroke-width="0.5" stroke="black" fill="grey"/>
   </g>
   <g id="cell326">
  <circle cx="167.86" cy="267.667" r="7.37575" stroke-width="0.5" stroke="black" fill="grey"/>
  <circle cx="167.86" cy="267.667" r="3.02446" stroke-width="0.5" stroke="grey" fill="grey"/>
   </g>
   <g id="cell344">
  <circle cx="78.9393" cy="217.178" r="8.08164" stroke-width="0.5" stroke="black" fill="grey"/>
  <circle cx="78.9393" cy="217.178" r="4.47868" stroke-width="0.5" stroke="grey" fill="grey"/>
   </g>
   <g id="cell363">
  <circle cx="128.265" cy="278.076" r="7.88293" stroke-width="0.5" stroke="black" fill="grey"/>
  <circle cx="128.265" cy="278.076" r="4.10929" stroke-width="0.5" stroke="grey" fill="grey"/>
   </g>
   <g id="cell368">
  <circle cx="110.867" cy="199.775" r="7.40362" stroke-width="0.5" stroke="black" fill="grey"/>
  <circle cx="110.867" cy="199.775" r="3.0918" stroke-width="0.5" stroke="grey" fill="grey"/>
   </g>
   <g id="cell375">
  <circle cx="140.332" cy="165.687" r="3.33569" stroke-width="0.5" stroke="black" fill="grey"/>
   </g>
   <g id="cell419">
  <circle cx="101.471" cy="266.703" r="3.20683" stroke-width="0.5" stroke="black" fill="grey"/>
   </g>
   <g id="cell615">
  <circle cx="342.666" cy="198.725" r="5.69349" stroke-width="0.5" stroke="black" fill="red"/>
   </g>
   <g id="cell637">
  <circle cx="247.814" cy="163.762" r="8.25375" stroke-width="0.5" stroke="black" fill="red"/>
  <circle cx="247.814" cy="163.762" r="4.78226" stroke-width="0.5" stroke="red" fill="red"/>
   </g>
   <g id="cell643">
  <circle cx="250.384" cy="249.374" r="8.2403" stroke-width="0.5" stroke="black" fill="red"/>
  <circle cx="250.384" cy="249.374" r="4.75902" stroke-width="0.5" stroke="red" fill="red"/>
   </g>
   <g id="cell646">
  <circle cx="280.735" cy="164.164" r="3.33427" stroke-width="0.5" stroke="black" fill="red"/>
   </g>
   <g id="cell649">
  <circle cx="277.104" cy="212.892" r="6.23909" stroke-width="0.5" stroke="black" fill="red"/>
   </g>
   <g id="cell671">
  <circle cx="312.547" cy="193.224" r="4.92912" stroke-width="0.5" stroke="black" fill="red"/>
   </g>
   <g id="cell672">
  <circle cx="300.497" cy="188.677" r="4.58209" stroke-width="0.5" stroke="black" fill="red"/>
   </g>
   <g id="cell677">
  <circle cx="331.877" cy="153.313" r="8.1118" stroke-width="0.5" stroke="black" fill="red"/>
  <circle cx="331.877" cy="153.313" r="4.53287" stroke-width="0.5" stroke="red" fill="red"/>
   </g>
   <g id="cell685">
  <circle cx="199.978" cy="209.024" r="8.40008" stroke-width="0.5" stroke="black" fill="red"/>
  <circle cx="199.978" cy="209.024" r="5.03062" stroke-width="0.5" stroke="red" fill="red"/>
   </g>
   <g id="cell686">
  <circle cx="205.94" cy="229.808" r="8.20944" stroke-width="0.5" stroke="black" fill="red"/>
  <circle cx="205.94" cy="229.808" r="4.70538" stroke-width="0.5" stroke="red" fill="red"/>
   </g>
   <g id="cell694">
  <circle cx="225.381" cy="166.879" r="7.57409" stroke-width="0.5" stroke="black" fill="red"/>
  <circle cx="225.381" cy="166.879" r="3.4803" stroke-width="0.5" stroke="red" fill="red"/>
   </g>
   <g id="cell695">
  <circle cx="234.23" cy="177.116" r="7.63611" stroke-width="0.5" stroke="black" fill="red"/>
  <circle cx="234.23" cy="177.116" r="3.61329" stroke-width="0.5" stroke="red" fill="red"/>
   </g>
   <g id="cell702">
  <circle cx="247.921" cy="179.225" r="8.03372" stroke-width="0.5" stroke="black" fill="red"/>
  <circle cx="247.921" cy="179.225" r="4.39163" stroke-width="0.5" stroke="red" fill="red"/>
   </g>
   <g id="cell704">
  <circle cx="244.348" cy="210.471" r="8.17485" stroke-width="0.5" stroke="black" fill="red"/>
  <circle cx="244.348" cy="210.471" r="4.64476" stroke-width="0.5" stroke="red" fill="red"/>
   </g>
   <g id="cell706">
  <circle cx="244.122" cy="237.681" r="6.29254" stroke-width="0.5" stroke="black" fill="red"/>
   </g>
   <g id="cell707">
  <circle cx="255.317" cy="262.888" r="4.37274" stroke-width="0.5" stroke="black" fill="red"/>
   </g>
   <g id="cell709">
  <circle cx="254.569" cy="132.8" r="7.70709" stroke-width="0.5" stroke="black" fill="red"/>
  <circle cx="254.569" cy="132.8" r="3.76097" stroke-width="0.5" stroke="red" fill="red"/>
   </g>
   <g id="cell712">
  <circle cx="244.337" cy="194.195" r="4.94423" stroke-width="0.5" stroke="black" fill="red"/>
   </g>
   <g id="cell716">
  <circle cx="260.176" cy="275.655" r="8.39142" stroke-width="0.5" stroke="black" fill="red"/>
  <circle cx="260.176" cy="275.655" r="5.01614" stroke-width="0.5" stroke="red" fill="red"/>
   </g>
   <g id="cell717">
  <circle cx="270.376" cy="120.637" r="8.35179" stroke-width="0.5" stroke="black" fill="red"/>
  <circle cx="270.376" cy="120.637" r="4.94955" stroke-width="0.5" stroke="red" fill="red"/>
   </g>
   <g id="cell720">
  <circle cx="280.81" cy="188.304" r="8.26202" stroke-width="0.5" stroke="black" fill="red"/>
  <circle cx="280.81" cy="188.304" r="4.79652" stroke-width="0.5" stroke="red" fill="red"/>
   </g>
   <g id="cell721">
  <circle cx="281.003" cy="233.13" r="8.3107" stroke-width="0.5" stroke="black" fill="red"/>
  <circle cx="281.003" cy="233.13" r="4.87989" stroke-width="0.5" stroke="red" fill="red"/>
   </g>
   <g id="cell722">
  <circle cx="269.809" cy="222.676" r="4.95034" stroke-width="0.5" stroke="black" fill="red"/>
   </g>
   <g id="cell726">
  <circle cx="282.055" cy="130.344" r="4.44484" stroke-width="0.5" stroke="black" fill="red"/>
   </g>
   <g id="cell727">
  <circle cx="288.724" cy="176.994" r="3.46205" stroke-width="0.5" stroke="black" fill="red"/>
   </g>
   <g id="cell728">
  <circle cx="295.164" cy="178.539" r="3.28348" stroke-width="0.5" stroke="black" fill="red"/>
   </g>
   <g id="cell729">
  <circle cx="293.944" cy="198.638" r="8.41249" stroke-width="0.5" stroke="black" fill="red"/>
  <circle cx="293.944" cy="198.638" r="5.0513" stroke-width="0.5" stroke="red" fill="red"/>
   </g>
   <g id="cell730">
  <circle cx="297.851" cy="224.794" r="6.46968" stroke-width="0.5" stroke="black" fill="red"/>
   </g>
   <g id="cell731">
  <circle cx="295.484" cy="236.663" r="6.58312" stroke-width="0.5" stroke="black" fill="red"/>
   </g>
   <g id="cell735">
  <circle cx="288.946" cy="154.38" r="7.83617" stroke-width="0.5" stroke="black" fill="red"/>
  <circle cx="288.946" cy="154.38" r="4.01887" stroke-width="0.5" stroke="red" fill="red"/>
   </g>
   <g id="cell736">
  <circle cx="312.594" cy="169.082" r="4.20328" stroke-width="0.5" stroke="black" fill="red"/>
   </g>
   <g id="cell737">
  <circle cx="306.519" cy="207.644" r="5.43377" stroke-width="0.5" stroke="black" fill="red"/>
   </g>
   <g id="cell739">
  <circle cx="314.701" cy="218.466" r="8.3745" stroke-width="0.5" stroke="black" fill="red"/>
  <circle cx="314.701" cy="218.466" r="4.98778" stroke-width="0.5" stroke="red" fill="red"/>
   </g>
   <g id="cell741">
  <circle cx="306.919" cy="261.792" r="7.93696" stroke-width="0.5" stroke="black" fill="red"/>
  <circle cx="306.919" cy="261.792" r="4.21201" stroke-width="0.5" stroke="red" fill="red"/>
   </g>
   <g id="cell742">
  <circle cx="326.397" cy="133.271" r="8.27512" stroke-width="0.5" stroke="black" fill="red"/>
  <circle cx="326.397" cy="133.271" r="4.81906" stroke-width="0.5" stroke="red" fill="red"/>
   </g>
   <g id="cell743">
  <circle cx="334.608" cy="170.414" r="6.16646" stroke-width="0.5" stroke="black" fill="red"/>
   </g>
   <g id="cell744">
  <circle cx="324.434" cy="180.167" r="7.68114" stroke-width="0.5" stroke="black" fill="red"/>
  <circle cx="324.434" cy="180.167" r="3.7075" stroke-width="0.5" stroke="red" fill="red"/>
   </g>
   <g id="cell745">
  <circle cx="316.857" cy="206.015" r="7.32143" stroke-width="0.5" stroke="black" fill="red"/>
  <circle cx="316.857" cy="206.015" r="2.88946" stroke-width="0.5" stroke="red" fill="red"/>
   </g>
   <g id="cell747">
  <circle cx="326.531" cy="245.619" r="8.34471" stroke-width="0.5" stroke="black" fill="red"/>
  <circle cx="326.531" cy="245.619" r="4.93761" stroke-width="0.5" stroke="red" fill="red"/>
   </g>
   <g id="cell751">
  <circle cx="340.619" cy="208.968" r="5.79977" stroke-width="0.5" stroke="black" fill="red"/>
   </g>
   <g id="cell753">
  <circle cx="348.366" cy="221.68" r="6.45632" stroke-width="0.5" stroke="black" fill="red"/>
   </g>
   <g id="cell759">
  <circle cx="215.288" cy="209.082" r="8.31934" stroke-width="0.5" stroke="black" fill="red"/>
  <circle cx="215.288" cy="209.082" r="4.89459" stroke-width="0.5" stroke="red" fill="red"/>
   </g>
   <g id="cell761">
  <circle cx="218.891" cy="150.64" r="5.90149" stroke-width="0.5" stroke="black" fill="red"/>
   </g>
   <g id="cell764">
  <circle cx="224.098" cy="226.665" r="8.40922" stroke-width="0.5" stroke="black" fill="red"/>
  <circle cx="224.098" cy="226.665" r="5.04586" stroke-width="0.5" stroke="red" fill="red"/>
   </g>
   <g id="cell766">
  <circle cx="226.449" cy="240.839" r="8.35864" stroke-width="0.5" stroke="black" fill="red"/>
  <circle cx="226.449" cy="240.839" r="4.9611" stroke-width="0.5" stroke="red" fill="red"/>
   </g>
   <g id="cell773">
  <circle cx="240.545" cy="225.666" r="8.36313" stroke-width="0.5" stroke="black" fill="red"/>
  <circle cx="240.545" cy="225.666" r="4.96866" stroke-width="0.5" stroke="red" fill="red"/>
   </g>
   <g id="cell774">
  <circle cx="235.799" cy="273.685" r="8.28718" stroke-width="0.5" stroke="black" fill="red"/>
  <circle cx="235.799" cy="273.685" r="4.83974" stroke-width="0.5" stroke="red" fill="red"/>
   </g>
   <g id="cell780">
  <circle cx="242.488" cy="236.915" r="2.05189" stroke-width="0.5" stroke="black" fill="red"/>
   </g>
   <g id="cell784">
  <circle cx="279.522" cy="142.746" r="7.28571" stroke-width="0.5" stroke="black" fill="red"/>
  <circle cx="279.522" cy="142.746" r="2.79772" stroke-width="0.5" stroke="red" fill="red"/>
   </g>
   <g id="cell785">
  <circle cx="270.512" cy="159.755" r="8.41256" stroke-width="0.5" stroke="black" fill="red"/>
  <circle cx="270.512" cy="159.755" r="5.05141" stroke-width="0.5" stroke="red" fill="red"/>
   </g>
   <g id="cell787">
  <circle cx="266.421" cy="185.8" r="7.28116" stroke-width="0.5" stroke="black" fill="red"/>
  <circle cx="266.421" cy="185.8" r="2.78584" stroke-width="0.5" stroke="red" fill="red"/>
   </g>
   <g id="cell788">
  <circle cx="259.081" cy="210.188" r="7.80693" stroke-width="0.5" stroke="black" fill="red"/>
  <circle cx="259.081" cy="210.188" r="3.96155" stroke-width="0.5" stroke="red" fill="red"/>
   </g>
   <g id="cell789">
  <circle cx="262.575" cy="231.5" r="4.92711" stroke-width="0.5" stroke="black" fill="red"/>
   </g>
   <g id="cell790">
  <circle cx="268.662" cy="268.597" r="3.00111" stroke-width="0.5" stroke="black" fill="red"/>
   </g>
   <g id="cell792">
  <circle cx="305.234" cy="138.178" r="6.83409" stroke-width="0.5" stroke="black" fill="red"/>
  <circle cx="305.234" cy="138.178" r="1.20436" stroke-width="0.5" stroke="red" fill="red"/>
   </g>
   <g id="cell802">
  <circle cx="299.997" cy="163.453" r="8.39722" stroke-width="0.5" stroke="black" fill="red"/>
  <circle cx="299.997" cy="163.453" r="5.02583" stroke-width="0.5" stroke="red" fill="red"/>
   </g>
   <g id="cell807">
  <circle cx="286.435" cy="253.493" r="7.8279" stroke-width="0.5" stroke="black" fill="red"/>
  <circle cx="286.435" cy="253.493" r="4.00271" stroke-width="0.5" stroke="red" fill="red"/>
   </g>
   <g id="cell811">
  <circle cx="309.18" cy="177.427" r="7.26912" stroke-width="0.5" stroke="black" fill="red"/>
  <circle cx="309.18" cy="177.427" r="2.75422" stroke-width="0.5" stroke="red" fill="red"/>
   </g>
   <g id="cell814">
  <circle cx="307.421" cy="235.779" r="6.94093" stroke-width="0.5" stroke="black" fill="red"/>
  <circle cx="307.421" cy="235.779" r="1.70945" stroke-width="0.5" stroke="red" fill="red"/>
   </g>
   <g id="cell819">
  <circle cx="353.253" cy="181.307" r="7.3615" stroke-width="0.5" stroke="black" fill="red"/>
  <circle cx="353.253" cy="181.307" r="2.98955" stroke-width="0.5" stroke="red" fill="red"/>
   </g>
   <g id="cell820">
  <circle cx="336.962" cy="230.414" r="8.34882" stroke-width="0.5" stroke="black" fill="red"/>
  <circle cx="336.962" cy="230.414" r="4.94453" stroke-width="0.5" stroke="red" fill="red"/>
   </g>
   <g id="cell823">
  <circle cx="367.817" cy="213.919" r="7.50177" stroke-width="0.5" stroke="black" fill="red"/>
  <circle cx="367.817" cy="213.919" r="3.31998" stroke-width="0.5" stroke="red" fill="red"/>
   </g>
   <g id="cell825">
  <circle cx="198.156" cy="155.105" r="6.04594" stroke-width="0.5" stroke="black" fill="red"/>
   </g>
   <g id="cell860">
  <circle cx="266.849" cy="252.4" r="5.56037" stroke-width="0.5" stroke="black" fill="red"/>
   </g>
   <g id="cell868">
  <circle cx="296.497" cy="267.671" r="3.09858" stroke-width="0.5" stroke="black" fill="red"/>
   </g>
  </g>
 </g>
  <rect x="190" y="414" width="200" height="4" stroke-width="0.8" stroke="rgb(255,255,255)" fill="rgb(0,0,0)"/>
  <text x="192.5" y="411.5"
   font-family="Arial" font-size="10" fill="black" >
   200 &#956;m
  </text>
  <text x="10" y="418"
   font-family="Arial" font-size="7.5" fill="black" >
   0 days, 0 hours, 1 minutes, and 0.7007 seconds
  </text>
  <rect x="0" y="28" width="400" height="400" stroke-width="0.8" stroke="rgb(0,0,0)" fill="none"/>
</svg>
