<?xml version="1.0" encoding="UTF-8" standalone="no"?>
<!-- Created with PhysiCell (http://PhysiCell.MathCancer.org/) -->
<svg 
 xmlns:dc="http://purl.org/dc/elements/1.1/" 
 xmlns:cc="http://creativecommons.org/ns#" 
 xmlns:rdf="http://www.w3.org/1999/02/22-rdf-syntax-ns#" 
 xmlns:svg="http://www.w3.org/2000/svg" 
 xmlns="http://www.w3.org/2000/svg" 
 version="1.1" 
 width="400" 
 height="428" 
 id="svg2">
  <rect x="0" y="0" width="400" height="428" stroke-width="0.8" stroke="white" fill="white"/>
  <text x="5" y="12"
   font-family="Arial" font-size="10" fill="black" >
   Current time: 0 days, 18 hours, and 0.00 minutes, z = 0.00 &#956;m
  </text>
  <text x="5" y="23"
   font-family="Arial" font-size="9.5" fill="black" >
   978 agents
  </text>
 <g id="tissue" 
    transform="translate(0,428) scale(1,-1)">
  <g id="ECM">
  </g>
  <g id="cells">
   <g id="cell25">
  <circle cx="73.1868" cy="176.059" r="7.9994" stroke-width="0.5" stroke="black" fill="grey"/>
  <circle cx="73.1868" cy="176.059" r="4.32852" stroke-width="0.5" stroke="grey" fill="grey"/>
   </g>
   <g id="cell96">
  <circle cx="146.167" cy="63.6178" r="7.87205" stroke-width="0.5" stroke="black" fill="grey"/>
  <circle cx="146.167" cy="63.6178" r="4.08838" stroke-width="0.5" stroke="grey" fill="grey"/>
   </g>
   <g id="cell103">
  <circle cx="166.92" cy="278.139" r="6.36417" stroke-width="0.5" stroke="black" fill="grey"/>
   </g>
   <g id="cell110">
  <circle cx="137.4" cy="267.227" r="8.29729" stroke-width="0.5" stroke="black" fill="grey"/>
  <circle cx="137.4" cy="267.227" r="4.85702" stroke-width="0.5" stroke="grey" fill="grey"/>
   </g>
   <g id="cell135">
  <circle cx="59.9926" cy="196.972" r="7.50972" stroke-width="0.5" stroke="black" fill="grey"/>
  <circle cx="59.9926" cy="196.972" r="3.33789" stroke-width="0.5" stroke="grey" fill="grey"/>
   </g>
   <g id="cell139">
  <circle cx="60.0342" cy="252.862" r="1.64048" stroke-width="0.5" stroke="black" fill="grey"/>
   </g>
   <g id="cell150">
  <circle cx="120.11" cy="216.33" r="5.75527" stroke-width="0.5" stroke="black" fill="grey"/>
   </g>
   <g id="cell155">
  <circle cx="141.451" cy="138.851" r="8.3857" stroke-width="0.5" stroke="black" fill="grey"/>
  <circle cx="141.451" cy="138.851" r="5.00657" stroke-width="0.5" stroke="grey" fill="grey"/>
   </g>
   <g id="cell159">
  <circle cx="108.658" cy="200.645" r="7.10158" stroke-width="0.5" stroke="black" fill="grey"/>
  <circle cx="108.658" cy="200.645" r="2.27555" stroke-width="0.5" stroke="grey" fill="grey"/>
   </g>
   <g id="cell161">
  <circle cx="141.976" cy="252.338" r="8.40002" stroke-width="0.5" stroke="black" fill="grey"/>
  <circle cx="141.976" cy="252.338" r="5.03051" stroke-width="0.5" stroke="grey" fill="grey"/>
   </g>
   <g id="cell164">
  <circle cx="125.632" cy="137.775" r="8.04329" stroke-width="0.5" stroke="black" fill="grey"/>
  <circle cx="125.632" cy="137.775" r="4.4091" stroke-width="0.5" stroke="grey" fill="grey"/>
   </g>
   <g id="cell166">
  <circle cx="136.229" cy="117.515" r="7.66521" stroke-width="0.5" stroke="black" fill="grey"/>
  <circle cx="136.229" cy="117.515" r="3.67438" stroke-width="0.5" stroke="grey" fill="grey"/>
   </g>
   <g id="cell174">
  <circle cx="144.276" cy="171.411" r="8.37039" stroke-width="0.5" stroke="black" fill="grey"/>
  <circle cx="144.276" cy="171.411" r="4.98088" stroke-width="0.5" stroke="grey" fill="grey"/>
   </g>
   <g id="cell175">
  <circle cx="171.199" cy="161.391" r="6.02841" stroke-width="0.5" stroke="black" fill="grey"/>
   </g>
   <g id="cell179">
  <circle cx="112.384" cy="258.202" r="5.92911" stroke-width="0.5" stroke="black" fill="grey"/>
   </g>
   <g id="cell182">
  <circle cx="142.405" cy="198.883" r="6.81933" stroke-width="0.5" stroke="black" fill="grey"/>
  <circle cx="142.405" cy="198.883" r="1.11756" stroke-width="0.5" stroke="grey" fill="grey"/>
   </g>
   <g id="cell184">
  <circle cx="168.814" cy="224.606" r="8.41254" stroke-width="0.5" stroke="black" fill="grey"/>
  <circle cx="168.814" cy="224.606" r="5.05139" stroke-width="0.5" stroke="grey" fill="grey"/>
   </g>
   <g id="cell189">
  <circle cx="180.019" cy="173.58" r="3.14917" stroke-width="0.5" stroke="black" fill="grey"/>
   </g>
   <g id="cell192">
  <circle cx="169.063" cy="241.715" r="5.3308" stroke-width="0.5" stroke="black" fill="grey"/>
   </g>
   <g id="cell195">
  <circle cx="14.8915" cy="190.801" r="7.50215" stroke-width="0.5" stroke="black" fill="grey"/>
  <circle cx="14.8915" cy="190.801" r="3.32084" stroke-width="0.5" stroke="grey" fill="grey"/>
   </g>
   <g id="cell197">
  <circle cx="93.4526" cy="284.592" r="8.24908" stroke-width="0.5" stroke="black" fill="grey"/>
  <circle cx="93.4526" cy="284.592" r="4.7742" stroke-width="0.5" stroke="grey" fill="grey"/>
   </g>
   <g id="cell204">
  <circle cx="73.1557" cy="120.05" r="6.57338" stroke-width="0.5" stroke="black" fill="grey"/>
   </g>
   <g id="cell213">
  <circle cx="89.161" cy="193.431" r="5.90102" stroke-width="0.5" stroke="black" fill="grey"/>
   </g>
   <g id="cell216">
  <circle cx="100.451" cy="209.909" r="6.41658" stroke-width="0.5" stroke="black" fill="grey"/>
   </g>
   <g id="cell217">
  <circle cx="86.8287" cy="213.492" r="8.14206" stroke-width="0.5" stroke="black" fill="grey"/>
  <circle cx="86.8287" cy="213.492" r="4.58682" stroke-width="0.5" stroke="grey" fill="grey"/>
   </g>
   <g id="cell218">
  <circle cx="94.9857" cy="250.223" r="2.30768" stroke-width="0.5" stroke="black" fill="grey"/>
   </g>
   <g id="cell220">
  <circle cx="117.586" cy="163.92" r="8.29631" stroke-width="0.5" stroke="black" fill="grey"/>
  <circle cx="117.586" cy="163.92" r="4.85535" stroke-width="0.5" stroke="grey" fill="grey"/>
   </g>
   <g id="cell221">
  <circle cx="99.3151" cy="132.546" r="6.69745" stroke-width="0.5" stroke="black" fill="grey"/>
   </g>
   <g id="cell224">
  <circle cx="145.195" cy="226.446" r="8.35416" stroke-width="0.5" stroke="black" fill="grey"/>
  <circle cx="145.195" cy="226.446" r="4.95355" stroke-width="0.5" stroke="grey" fill="grey"/>
   </g>
   <g id="cell225">
  <circle cx="105.501" cy="233.337" r="2.50231" stroke-width="0.5" stroke="black" fill="grey"/>
   </g>
   <g id="cell232">
  <circle cx="150.435" cy="212.41" r="6.59828" stroke-width="0.5" stroke="black" fill="grey"/>
   </g>
   <g id="cell235">
  <circle cx="167.838" cy="289.288" r="6.94376" stroke-width="0.5" stroke="black" fill="grey"/>
  <circle cx="167.838" cy="289.288" r="1.7209" stroke-width="0.5" stroke="grey" fill="grey"/>
   </g>
   <g id="cell238">
  <circle cx="177.092" cy="146.153" r="8.38167" stroke-width="0.5" stroke="black" fill="grey"/>
  <circle cx="177.092" cy="146.153" r="4.99981" stroke-width="0.5" stroke="grey" fill="grey"/>
   </g>
   <g id="cell251">
  <circle cx="151.98" cy="265.548" r="5.37899" stroke-width="0.5" stroke="black" fill="grey"/>
   </g>
   <g id="cell252">
  <circle cx="161.614" cy="251.171" r="8.26418" stroke-width="0.5" stroke="black" fill="grey"/>
  <circle cx="161.614" cy="251.171" r="4.80024" stroke-width="0.5" stroke="grey" fill="grey"/>
   </g>
   <g id="cell253">
  <circle cx="201.025" cy="141.444" r="6.81179" stroke-width="0.5" stroke="black" fill="grey"/>
  <circle cx="201.025" cy="141.444" r="1.07057" stroke-width="0.5" stroke="grey" fill="grey"/>
   </g>
   <g id="cell255">
  <circle cx="166.103" cy="186.196" r="7.98378" stroke-width="0.5" stroke="black" fill="grey"/>
  <circle cx="166.103" cy="186.196" r="4.29958" stroke-width="0.5" stroke="grey" fill="grey"/>
   </g>
   <g id="cell256">
  <circle cx="191.153" cy="198.289" r="7.42979" stroke-width="0.5" stroke="black" fill="grey"/>
  <circle cx="191.153" cy="198.289" r="3.15395" stroke-width="0.5" stroke="grey" fill="grey"/>
   </g>
   <g id="cell260">
  <circle cx="189.6" cy="113.135" r="7.33418" stroke-width="0.5" stroke="black" fill="grey"/>
  <circle cx="189.6" cy="113.135" r="2.92163" stroke-width="0.5" stroke="grey" fill="grey"/>
   </g>
   <g id="cell275">
  <circle cx="52.0849" cy="210.488" r="3.42878" stroke-width="0.5" stroke="black" fill="grey"/>
   </g>
   <g id="cell277">
  <circle cx="79.1669" cy="278.504" r="4.85168" stroke-width="0.5" stroke="black" fill="grey"/>
   </g>
   <g id="cell279">
  <circle cx="100.01" cy="167.178" r="8.11003" stroke-width="0.5" stroke="black" fill="grey"/>
  <circle cx="100.01" cy="167.178" r="4.52971" stroke-width="0.5" stroke="grey" fill="grey"/>
   </g>
   <g id="cell284">
  <circle cx="95.8457" cy="265.327" r="5.7547" stroke-width="0.5" stroke="black" fill="grey"/>
   </g>
   <g id="cell285">
  <circle cx="67.5923" cy="223.618" r="4.28572" stroke-width="0.5" stroke="black" fill="grey"/>
   </g>
   <g id="cell294">
  <circle cx="148.935" cy="109.171" r="1.91409" stroke-width="0.5" stroke="black" fill="grey"/>
   </g>
   <g id="cell298">
  <circle cx="125.038" cy="188.394" r="7.44838" stroke-width="0.5" stroke="black" fill="grey"/>
  <circle cx="125.038" cy="188.394" r="3.19752" stroke-width="0.5" stroke="grey" fill="grey"/>
   </g>
   <g id="cell302">
  <circle cx="88.6767" cy="312.562" r="8.17449" stroke-width="0.5" stroke="black" fill="grey"/>
  <circle cx="88.6767" cy="312.562" r="4.64414" stroke-width="0.5" stroke="grey" fill="grey"/>
   </g>
   <g id="cell304">
  <circle cx="149.284" cy="154.678" r="7.60167" stroke-width="0.5" stroke="black" fill="grey"/>
  <circle cx="149.284" cy="154.678" r="3.53993" stroke-width="0.5" stroke="grey" fill="grey"/>
   </g>
   <g id="cell308">
  <circle cx="119.287" cy="234.013" r="6.64813" stroke-width="0.5" stroke="black" fill="grey"/>
   </g>
   <g id="cell309">
  <circle cx="157.114" cy="234.829" r="8.23085" stroke-width="0.5" stroke="black" fill="grey"/>
  <circle cx="157.114" cy="234.829" r="4.74263" stroke-width="0.5" stroke="grey" fill="grey"/>
   </g>
   <g id="cell311">
  <circle cx="170.096" cy="106.247" r="0.961575" stroke-width="0.5" stroke="black" fill="grey"/>
   </g>
   <g id="cell323">
  <circle cx="161.707" cy="202.405" r="8.41236" stroke-width="0.5" stroke="black" fill="grey"/>
  <circle cx="161.707" cy="202.405" r="5.05109" stroke-width="0.5" stroke="grey" fill="grey"/>
   </g>
   <g id="cell326">
  <circle cx="183.288" cy="252.959" r="8.40751" stroke-width="0.5" stroke="black" fill="grey"/>
  <circle cx="183.288" cy="252.959" r="5.043" stroke-width="0.5" stroke="grey" fill="grey"/>
   </g>
   <g id="cell331">
  <circle cx="162.347" cy="217.104" r="4.27063" stroke-width="0.5" stroke="black" fill="grey"/>
   </g>
   <g id="cell352">
  <circle cx="75.0842" cy="228.683" r="6.94522" stroke-width="0.5" stroke="black" fill="grey"/>
  <circle cx="75.0842" cy="228.683" r="1.72679" stroke-width="0.5" stroke="grey" fill="grey"/>
   </g>
   <g id="cell353">
  <circle cx="103.05" cy="244.551" r="8.40201" stroke-width="0.5" stroke="black" fill="grey"/>
  <circle cx="103.05" cy="244.551" r="5.03384" stroke-width="0.5" stroke="grey" fill="grey"/>
   </g>
   <g id="cell357">
  <circle cx="97.1813" cy="150.626" r="8.26618" stroke-width="0.5" stroke="black" fill="grey"/>
  <circle cx="97.1813" cy="150.626" r="4.80369" stroke-width="0.5" stroke="grey" fill="grey"/>
   </g>
   <g id="cell375">
  <circle cx="143.216" cy="185.987" r="7.38664" stroke-width="0.5" stroke="black" fill="grey"/>
  <circle cx="143.216" cy="185.987" r="3.05093" stroke-width="0.5" stroke="grey" fill="grey"/>
   </g>
   <g id="cell383">
  <circle cx="115.931" cy="176.335" r="2.47551" stroke-width="0.5" stroke="black" fill="grey"/>
   </g>
   <g id="cell390">
  <circle cx="201.195" cy="185.834" r="7.06346" stroke-width="0.5" stroke="black" fill="grey"/>
  <circle cx="201.195" cy="185.834" r="2.15365" stroke-width="0.5" stroke="grey" fill="grey"/>
   </g>
   <g id="cell400">
  <circle cx="30.6152" cy="159.331" r="7.62649" stroke-width="0.5" stroke="black" fill="grey"/>
  <circle cx="30.6152" cy="159.331" r="3.59291" stroke-width="0.5" stroke="grey" fill="grey"/>
   </g>
   <g id="cell429">
  <circle cx="131.519" cy="165.074" r="5.96885" stroke-width="0.5" stroke="black" fill="grey"/>
   </g>
   <g id="cell453">
  <circle cx="76.1131" cy="204.32" r="6.5453" stroke-width="0.5" stroke="black" fill="grey"/>
   </g>
   <g id="cell488">
  <circle cx="168.613" cy="264.811" r="2.0005" stroke-width="0.5" stroke="black" fill="grey"/>
   </g>
   <g id="cell536">
  <circle cx="258.553" cy="286.486" r="7.99672" stroke-width="0.5" stroke="black" fill="red"/>
  <circle cx="258.553" cy="286.486" r="4.32356" stroke-width="0.5" stroke="red" fill="red"/>
   </g>
   <g id="cell563">
  <circle cx="245.368" cy="176.235" r="5.02173" stroke-width="0.5" stroke="black" fill="red"/>
   </g>
   <g id="cell567">
  <circle cx="248.216" cy="269.771" r="7.59924" stroke-width="0.5" stroke="black" fill="red"/>
  <circle cx="248.216" cy="269.771" r="3.5347" stroke-width="0.5" stroke="red" fill="red"/>
   </g>
   <g id="cell582">
  <circle cx="270.859" cy="259.051" r="7.58707" stroke-width="0.5" stroke="black" fill="red"/>
  <circle cx="270.859" cy="259.051" r="3.50845" stroke-width="0.5" stroke="red" fill="red"/>
   </g>
   <g id="cell605">
  <circle cx="333.426" cy="222.669" r="5.74029" stroke-width="0.5" stroke="black" fill="red"/>
   </g>
   <g id="cell617">
  <circle cx="357.51" cy="226.076" r="8.31145" stroke-width="0.5" stroke="black" fill="red"/>
  <circle cx="357.51" cy="226.076" r="4.88117" stroke-width="0.5" stroke="red" fill="red"/>
   </g>
   <g id="cell623">
  <circle cx="216.572" cy="130.152" r="8.36721" stroke-width="0.5" stroke="black" fill="red"/>
  <circle cx="216.572" cy="130.152" r="4.97553" stroke-width="0.5" stroke="red" fill="red"/>
   </g>
   <g id="cell625">
  <circle cx="203.712" cy="160.526" r="5.61246" stroke-width="0.5" stroke="black" fill="red"/>
   </g>
   <g id="cell626">
  <circle cx="216.752" cy="187.752" r="8.41249" stroke-width="0.5" stroke="black" fill="red"/>
  <circle cx="216.752" cy="187.752" r="5.05131" stroke-width="0.5" stroke="red" fill="red"/>
   </g>
   <g id="cell633">
  <circle cx="263.59" cy="202.123" r="7.99275" stroke-width="0.5" stroke="black" fill="red"/>
  <circle cx="263.59" cy="202.123" r="4.31621" stroke-width="0.5" stroke="red" fill="red"/>
   </g>
   <g id="cell645">
  <circle cx="251.829" cy="152.546" r="7.48664" stroke-width="0.5" stroke="black" fill="red"/>
  <circle cx="251.829" cy="152.546" r="3.28564" stroke-width="0.5" stroke="red" fill="red"/>
   </g>
   <g id="cell647">
  <circle cx="287.837" cy="176.115" r="4.72452" stroke-width="0.5" stroke="black" fill="red"/>
   </g>
   <g id="cell649">
  <circle cx="282.793" cy="184.051" r="2.2472" stroke-width="0.5" stroke="black" fill="red"/>
   </g>
   <g id="cell651">
  <circle cx="286.604" cy="285.754" r="8.21875" stroke-width="0.5" stroke="black" fill="red"/>
  <circle cx="286.604" cy="285.754" r="4.7216" stroke-width="0.5" stroke="red" fill="red"/>
   </g>
   <g id="cell652">
  <circle cx="252.906" cy="241.676" r="7.80167" stroke-width="0.5" stroke="black" fill="red"/>
  <circle cx="252.906" cy="241.676" r="3.95118" stroke-width="0.5" stroke="red" fill="red"/>
   </g>
   <g id="cell669">
  <circle cx="353.056" cy="110.179" r="7.10695" stroke-width="0.5" stroke="black" fill="red"/>
  <circle cx="353.056" cy="110.179" r="2.29226" stroke-width="0.5" stroke="red" fill="red"/>
   </g>
   <g id="cell671">
  <circle cx="306.095" cy="198.058" r="7.81809" stroke-width="0.5" stroke="black" fill="red"/>
  <circle cx="306.095" cy="198.058" r="3.9835" stroke-width="0.5" stroke="red" fill="red"/>
   </g>
   <g id="cell673">
  <circle cx="313.41" cy="237.488" r="8.07957" stroke-width="0.5" stroke="black" fill="red"/>
  <circle cx="313.41" cy="237.488" r="4.47495" stroke-width="0.5" stroke="red" fill="red"/>
   </g>
   <g id="cell703">
  <circle cx="229.754" cy="180.676" r="4.62592" stroke-width="0.5" stroke="black" fill="red"/>
   </g>
   <g id="cell704">
  <circle cx="271.992" cy="233.817" r="8.21843" stroke-width="0.5" stroke="black" fill="red"/>
  <circle cx="271.992" cy="233.817" r="4.72105" stroke-width="0.5" stroke="red" fill="red"/>
   </g>
   <g id="cell706">
  <circle cx="244.889" cy="231.529" r="8.29289" stroke-width="0.5" stroke="black" fill="red"/>
  <circle cx="244.889" cy="231.529" r="4.84951" stroke-width="0.5" stroke="red" fill="red"/>
   </g>
   <g id="cell709">
  <circle cx="245.418" cy="120.983" r="8.2285" stroke-width="0.5" stroke="black" fill="red"/>
  <circle cx="245.418" cy="120.983" r="4.73855" stroke-width="0.5" stroke="red" fill="red"/>
   </g>
   <g id="cell718">
  <circle cx="260.701" cy="144.288" r="4.80484" stroke-width="0.5" stroke="black" fill="red"/>
   </g>
   <g id="cell724">
  <circle cx="264.037" cy="272.249" r="7.46801" stroke-width="0.5" stroke="black" fill="red"/>
  <circle cx="264.037" cy="272.249" r="3.24298" stroke-width="0.5" stroke="red" fill="red"/>
   </g>
   <g id="cell725">
  <circle cx="284.748" cy="107.171" r="7.89228" stroke-width="0.5" stroke="black" fill="red"/>
  <circle cx="284.748" cy="107.171" r="4.1272" stroke-width="0.5" stroke="red" fill="red"/>
   </g>
   <g id="cell730">
  <circle cx="298.642" cy="210.415" r="7.36074" stroke-width="0.5" stroke="black" fill="red"/>
  <circle cx="298.642" cy="210.415" r="2.98767" stroke-width="0.5" stroke="red" fill="red"/>
   </g>
   <g id="cell738">
  <circle cx="322.046" cy="198.586" r="8.20188" stroke-width="0.5" stroke="black" fill="red"/>
  <circle cx="322.046" cy="198.586" r="4.69218" stroke-width="0.5" stroke="red" fill="red"/>
   </g>
   <g id="cell746">
  <circle cx="329.497" cy="222.134" r="4.09865" stroke-width="0.5" stroke="black" fill="red"/>
   </g>
   <g id="cell751">
  <circle cx="360.615" cy="204.941" r="8.2785" stroke-width="0.5" stroke="black" fill="red"/>
  <circle cx="360.615" cy="204.941" r="4.82486" stroke-width="0.5" stroke="red" fill="red"/>
   </g>
   <g id="cell754">
  <circle cx="346.826" cy="312.245" r="7.85984" stroke-width="0.5" stroke="black" fill="red"/>
  <circle cx="346.826" cy="312.245" r="4.06482" stroke-width="0.5" stroke="red" fill="red"/>
   </g>
   <g id="cell758">
  <circle cx="184.222" cy="212.944" r="3.60954" stroke-width="0.5" stroke="black" fill="red"/>
   </g>
   <g id="cell759">
  <circle cx="218.414" cy="225.264" r="3.42993" stroke-width="0.5" stroke="black" fill="red"/>
   </g>
   <g id="cell762">
  <circle cx="226.428" cy="142.19" r="6.67509" stroke-width="0.5" stroke="black" fill="red"/>
   </g>
   <g id="cell767">
  <circle cx="226.978" cy="123.753" r="3.99614" stroke-width="0.5" stroke="black" fill="red"/>
   </g>
   <g id="cell771">
  <circle cx="226.065" cy="194.566" r="1.40728" stroke-width="0.5" stroke="black" fill="red"/>
   </g>
   <g id="cell772">
  <circle cx="217.857" cy="207.98" r="6.09283" stroke-width="0.5" stroke="black" fill="red"/>
   </g>
   <g id="cell780">
  <circle cx="252.234" cy="255.129" r="8.27123" stroke-width="0.5" stroke="black" fill="red"/>
  <circle cx="252.234" cy="255.129" r="4.81237" stroke-width="0.5" stroke="red" fill="red"/>
   </g>
   <g id="cell784">
  <circle cx="253.771" cy="106.472" r="6.0328" stroke-width="0.5" stroke="black" fill="red"/>
   </g>
   <g id="cell795">
  <circle cx="287.539" cy="209.746" r="6.21257" stroke-width="0.5" stroke="black" fill="red"/>
   </g>
   <g id="cell805">
  <circle cx="333.383" cy="238.442" r="7.47513" stroke-width="0.5" stroke="black" fill="red"/>
  <circle cx="333.383" cy="238.442" r="3.25933" stroke-width="0.5" stroke="red" fill="red"/>
   </g>
   <g id="cell806">
  <circle cx="295.893" cy="261.707" r="8.28723" stroke-width="0.5" stroke="black" fill="red"/>
  <circle cx="295.893" cy="261.707" r="4.83981" stroke-width="0.5" stroke="red" fill="red"/>
   </g>
   <g id="cell807">
  <circle cx="284.224" cy="270.096" r="5.35985" stroke-width="0.5" stroke="black" fill="red"/>
   </g>
   <g id="cell808">
  <circle cx="331.056" cy="284.397" r="7.81127" stroke-width="0.5" stroke="black" fill="red"/>
  <circle cx="331.056" cy="284.397" r="3.97008" stroke-width="0.5" stroke="red" fill="red"/>
   </g>
   <g id="cell810">
  <circle cx="331.129" cy="145.586" r="6.49027" stroke-width="0.5" stroke="black" fill="red"/>
   </g>
   <g id="cell823">
  <circle cx="383.947" cy="247.465" r="6.46691" stroke-width="0.5" stroke="black" fill="red"/>
   </g>
   <g id="cell827">
  <circle cx="188.269" cy="233.409" r="7.0628" stroke-width="0.5" stroke="black" fill="red"/>
  <circle cx="188.269" cy="233.409" r="2.15148" stroke-width="0.5" stroke="red" fill="red"/>
   </g>
   <g id="cell843">
  <circle cx="232.725" cy="274.708" r="7.52907" stroke-width="0.5" stroke="black" fill="red"/>
  <circle cx="232.725" cy="274.708" r="3.38121" stroke-width="0.5" stroke="red" fill="red"/>
   </g>
   <g id="cell850">
  <circle cx="273.162" cy="254.923" r="1.5793" stroke-width="0.5" stroke="black" fill="red"/>
   </g>
   <g id="cell860">
  <circle cx="263.828" cy="244.913" r="7.01327" stroke-width="0.5" stroke="black" fill="red"/>
  <circle cx="263.828" cy="244.913" r="1.98284" stroke-width="0.5" stroke="red" fill="red"/>
   </g>
   <g id="cell862">
  <circle cx="296.22" cy="135.223" r="8.04458" stroke-width="0.5" stroke="black" fill="red"/>
  <circle cx="296.22" cy="135.223" r="4.41145" stroke-width="0.5" stroke="red" fill="red"/>
   </g>
   <g id="cell869">
  <circle cx="305.055" cy="114.674" r="6.91995" stroke-width="0.5" stroke="black" fill="red"/>
  <circle cx="305.055" cy="114.674" r="1.62216" stroke-width="0.5" stroke="red" fill="red"/>
   </g>
   <g id="cell872">
  <circle cx="314.723" cy="204.905" r="3.352" stroke-width="0.5" stroke="black" fill="red"/>
   </g>
   <g id="cell873">
  <circle cx="325.707" cy="181.395" r="7.62716" stroke-width="0.5" stroke="black" fill="red"/>
  <circle cx="325.707" cy="181.395" r="3.59434" stroke-width="0.5" stroke="red" fill="red"/>
   </g>
   <g id="cell877">
  <circle cx="338.573" cy="103.748" r="5.65318" stroke-width="0.5" stroke="black" fill="red"/>
   </g>
   <g id="cell890">
  <circle cx="235.16" cy="166.97" r="6.30404" stroke-width="0.5" stroke="black" fill="red"/>
   </g>
   <g id="cell911">
  <circle cx="279.475" cy="221.203" r="7.16297" stroke-width="0.5" stroke="black" fill="red"/>
  <circle cx="279.475" cy="221.203" r="2.46044" stroke-width="0.5" stroke="red" fill="red"/>
   </g>
  </g>
 </g>
  <rect x="190" y="414" width="200" height="4" stroke-width="0.8" stroke="rgb(255,255,255)" fill="rgb(0,0,0)"/>
  <text x="192.5" y="411.5"
   font-family="Arial" font-size="10" fill="black" >
   200 &#956;m
  </text>
  <text x="10" y="418"
   font-family="Arial" font-size="7.5" fill="black" >
   0 days, 0 hours, 6 minutes, and 32.7520 seconds
  </text>
  <rect x="0" y="28" width="400" height="400" stroke-width="0.8" stroke="rgb(0,0,0)" fill="none"/>
</svg>
