<?xml version="1.0" encoding="UTF-8" standalone="no"?>
<!-- Created with PhysiCell (http://PhysiCell.MathCancer.org/) -->
<svg 
 xmlns:dc="http://purl.org/dc/elements/1.1/" 
 xmlns:cc="http://creativecommons.org/ns#" 
 xmlns:rdf="http://www.w3.org/1999/02/22-rdf-syntax-ns#" 
 xmlns:svg="http://www.w3.org/2000/svg" 
 xmlns="http://www.w3.org/2000/svg" 
 version="1.1" 
 width="400" 
 height="428" 
 id="svg2">
  <rect x="0" y="0" width="400" height="428" stroke-width="0.8" stroke="white" fill="white"/>
  <text x="5" y="12"
   font-family="Arial" font-size="10" fill="black" >
   Current time: 0 days, 15 hours, and 0.00 minutes, z = 0.00 &#956;m
  </text>
  <text x="5" y="23"
   font-family="Arial" font-size="9.5" fill="black" >
   978 agents
  </text>
 <g id="tissue" 
    transform="translate(0,428) scale(1,-1)">
  <g id="ECM">
  </g>
  <g id="cells">
   <g id="cell82">
  <circle cx="81.3375" cy="157.921" r="7.96912" stroke-width="0.5" stroke="black" fill="grey"/>
  <circle cx="81.3375" cy="157.921" r="4.2723" stroke-width="0.5" stroke="grey" fill="grey"/>
   </g>
   <g id="cell83">
  <circle cx="77.9185" cy="187.846" r="6.58129" stroke-width="0.5" stroke="black" fill="grey"/>
   </g>
   <g id="cell97">
  <circle cx="108.404" cy="147.692" r="6.98634" stroke-width="0.5" stroke="black" fill="grey"/>
  <circle cx="108.404" cy="147.692" r="1.88537" stroke-width="0.5" stroke="grey" fill="grey"/>
   </g>
   <g id="cell129">
  <circle cx="49.5791" cy="189.096" r="7.84884" stroke-width="0.5" stroke="black" fill="grey"/>
  <circle cx="49.5791" cy="189.096" r="4.0435" stroke-width="0.5" stroke="grey" fill="grey"/>
   </g>
   <g id="cell135">
  <circle cx="60.2842" cy="196.535" r="5.20303" stroke-width="0.5" stroke="black" fill="grey"/>
   </g>
   <g id="cell137">
  <circle cx="72.024" cy="210.689" r="5.74992" stroke-width="0.5" stroke="black" fill="grey"/>
   </g>
   <g id="cell139">
  <circle cx="70.8146" cy="259.6" r="7.29234" stroke-width="0.5" stroke="black" fill="grey"/>
  <circle cx="70.8146" cy="259.6" r="2.81494" stroke-width="0.5" stroke="grey" fill="grey"/>
   </g>
   <g id="cell145">
  <circle cx="105.136" cy="234.63" r="7.87039" stroke-width="0.5" stroke="black" fill="grey"/>
  <circle cx="105.136" cy="234.63" r="4.08519" stroke-width="0.5" stroke="grey" fill="grey"/>
   </g>
   <g id="cell149">
  <circle cx="137.764" cy="147.095" r="6.83399" stroke-width="0.5" stroke="black" fill="grey"/>
  <circle cx="137.764" cy="147.095" r="1.20377" stroke-width="0.5" stroke="grey" fill="grey"/>
   </g>
   <g id="cell151">
  <circle cx="95.6674" cy="218.919" r="6.78207" stroke-width="0.5" stroke="black" fill="grey"/>
  <circle cx="95.6674" cy="218.919" r="0.861468" stroke-width="0.5" stroke="grey" fill="grey"/>
   </g>
   <g id="cell155">
  <circle cx="137.01" cy="131.408" r="8.05411" stroke-width="0.5" stroke="black" fill="grey"/>
  <circle cx="137.01" cy="131.408" r="4.42882" stroke-width="0.5" stroke="grey" fill="grey"/>
   </g>
   <g id="cell159">
  <circle cx="110.908" cy="193.432" r="7.3241" stroke-width="0.5" stroke="black" fill="grey"/>
  <circle cx="110.908" cy="193.432" r="2.89622" stroke-width="0.5" stroke="grey" fill="grey"/>
   </g>
   <g id="cell163">
  <circle cx="96.1531" cy="311.294" r="4.96011" stroke-width="0.5" stroke="black" fill="grey"/>
   </g>
   <g id="cell164">
  <circle cx="123.025" cy="137.308" r="6.81555" stroke-width="0.5" stroke="black" fill="grey"/>
  <circle cx="123.025" cy="137.308" r="1.09424" stroke-width="0.5" stroke="grey" fill="grey"/>
   </g>
   <g id="cell169">
  <circle cx="144.015" cy="249.065" r="7.05714" stroke-width="0.5" stroke="black" fill="grey"/>
  <circle cx="144.015" cy="249.065" r="2.13281" stroke-width="0.5" stroke="grey" fill="grey"/>
   </g>
   <g id="cell175">
  <circle cx="154.555" cy="171.75" r="7.74471" stroke-width="0.5" stroke="black" fill="grey"/>
  <circle cx="154.555" cy="171.75" r="3.83748" stroke-width="0.5" stroke="grey" fill="grey"/>
   </g>
   <g id="cell176">
  <circle cx="130.501" cy="150.415" r="2.47248" stroke-width="0.5" stroke="black" fill="grey"/>
   </g>
   <g id="cell182">
  <circle cx="136.133" cy="193.966" r="7.30031" stroke-width="0.5" stroke="black" fill="grey"/>
  <circle cx="136.133" cy="193.966" r="2.83553" stroke-width="0.5" stroke="grey" fill="grey"/>
   </g>
   <g id="cell187">
  <circle cx="178.529" cy="282.072" r="7.83966" stroke-width="0.5" stroke="black" fill="grey"/>
  <circle cx="178.529" cy="282.072" r="4.02567" stroke-width="0.5" stroke="grey" fill="grey"/>
   </g>
   <g id="cell197">
  <circle cx="88.5461" cy="284.027" r="6.85233" stroke-width="0.5" stroke="black" fill="grey"/>
  <circle cx="88.5461" cy="284.027" r="1.30389" stroke-width="0.5" stroke="grey" fill="grey"/>
   </g>
   <g id="cell204">
  <circle cx="70.7592" cy="118.549" r="6.22997" stroke-width="0.5" stroke="black" fill="grey"/>
   </g>
   <g id="cell213">
  <circle cx="99.1008" cy="183.458" r="7.84734" stroke-width="0.5" stroke="black" fill="grey"/>
  <circle cx="99.1008" cy="183.458" r="4.04059" stroke-width="0.5" stroke="grey" fill="grey"/>
   </g>
   <g id="cell216">
  <circle cx="104.551" cy="219.726" r="6.39641" stroke-width="0.5" stroke="black" fill="grey"/>
   </g>
   <g id="cell219">
  <circle cx="118.383" cy="109.233" r="8.39834" stroke-width="0.5" stroke="black" fill="grey"/>
  <circle cx="118.383" cy="109.233" r="5.0277" stroke-width="0.5" stroke="grey" fill="grey"/>
   </g>
   <g id="cell222">
  <circle cx="119.442" cy="181.517" r="4.90482" stroke-width="0.5" stroke="black" fill="grey"/>
   </g>
   <g id="cell227">
  <circle cx="90.1163" cy="298.38" r="8.38105" stroke-width="0.5" stroke="black" fill="grey"/>
  <circle cx="90.1163" cy="298.38" r="4.99876" stroke-width="0.5" stroke="grey" fill="grey"/>
   </g>
   <g id="cell229">
  <circle cx="110.721" cy="127.126" r="5.5665" stroke-width="0.5" stroke="black" fill="grey"/>
   </g>
   <g id="cell232">
  <circle cx="141.346" cy="205.767" r="8.2461" stroke-width="0.5" stroke="black" fill="grey"/>
  <circle cx="141.346" cy="205.767" r="4.76905" stroke-width="0.5" stroke="grey" fill="grey"/>
   </g>
   <g id="cell238">
  <circle cx="183.719" cy="155.778" r="2.57522" stroke-width="0.5" stroke="black" fill="grey"/>
   </g>
   <g id="cell239">
  <circle cx="181.021" cy="211.298" r="5.82125" stroke-width="0.5" stroke="black" fill="grey"/>
   </g>
   <g id="cell249">
  <circle cx="176.053" cy="234.947" r="5.67139" stroke-width="0.5" stroke="black" fill="grey"/>
   </g>
   <g id="cell251">
  <circle cx="156.395" cy="268.148" r="8.26796" stroke-width="0.5" stroke="black" fill="grey"/>
  <circle cx="156.395" cy="268.148" r="4.80676" stroke-width="0.5" stroke="grey" fill="grey"/>
   </g>
   <g id="cell253">
  <circle cx="197.984" cy="135.517" r="7.99403" stroke-width="0.5" stroke="black" fill="grey"/>
  <circle cx="197.984" cy="135.517" r="4.3186" stroke-width="0.5" stroke="grey" fill="grey"/>
   </g>
   <g id="cell255">
  <circle cx="167.654" cy="176.089" r="3.668" stroke-width="0.5" stroke="black" fill="grey"/>
   </g>
   <g id="cell256">
  <circle cx="191.655" cy="187.911" r="0.36239" stroke-width="0.5" stroke="black" fill="grey"/>
   </g>
   <g id="cell262">
  <circle cx="203.727" cy="173.146" r="7.81634" stroke-width="0.5" stroke="black" fill="grey"/>
  <circle cx="203.727" cy="173.146" r="3.98005" stroke-width="0.5" stroke="grey" fill="grey"/>
   </g>
   <g id="cell269">
  <circle cx="71.3284" cy="198.468" r="7.72708" stroke-width="0.5" stroke="black" fill="grey"/>
  <circle cx="71.3284" cy="198.468" r="3.80176" stroke-width="0.5" stroke="grey" fill="grey"/>
   </g>
   <g id="cell273">
  <circle cx="38.642" cy="166.071" r="7.38079" stroke-width="0.5" stroke="black" fill="grey"/>
  <circle cx="38.642" cy="166.071" r="3.03673" stroke-width="0.5" stroke="grey" fill="grey"/>
   </g>
   <g id="cell275">
  <circle cx="47.1478" cy="204.782" r="8.27494" stroke-width="0.5" stroke="black" fill="grey"/>
  <circle cx="47.1478" cy="204.782" r="4.81875" stroke-width="0.5" stroke="grey" fill="grey"/>
   </g>
   <g id="cell277">
  <circle cx="75.5145" cy="272.992" r="3.83588" stroke-width="0.5" stroke="black" fill="grey"/>
   </g>
   <g id="cell283">
  <circle cx="79.4128" cy="247.396" r="6.00537" stroke-width="0.5" stroke="black" fill="grey"/>
   </g>
   <g id="cell285">
  <circle cx="78.4516" cy="226.876" r="7.84281" stroke-width="0.5" stroke="black" fill="grey"/>
  <circle cx="78.4516" cy="226.876" r="4.03178" stroke-width="0.5" stroke="grey" fill="grey"/>
   </g>
   <g id="cell287">
  <circle cx="77.0333" cy="132.636" r="7.92472" stroke-width="0.5" stroke="black" fill="grey"/>
  <circle cx="77.0333" cy="132.636" r="4.18889" stroke-width="0.5" stroke="grey" fill="grey"/>
   </g>
   <g id="cell293">
  <circle cx="118.899" cy="277.945" r="6.99983" stroke-width="0.5" stroke="black" fill="grey"/>
  <circle cx="118.899" cy="277.945" r="1.93477" stroke-width="0.5" stroke="grey" fill="grey"/>
   </g>
   <g id="cell298">
  <circle cx="124.849" cy="198.965" r="5.70237" stroke-width="0.5" stroke="black" fill="grey"/>
   </g>
   <g id="cell302">
  <circle cx="107.99" cy="292.238" r="6.26892" stroke-width="0.5" stroke="black" fill="grey"/>
   </g>
   <g id="cell304">
  <circle cx="141.149" cy="162.242" r="8.41203" stroke-width="0.5" stroke="black" fill="grey"/>
  <circle cx="141.149" cy="162.242" r="5.05054" stroke-width="0.5" stroke="grey" fill="grey"/>
   </g>
   <g id="cell306">
  <circle cx="193.868" cy="200.259" r="6.29698" stroke-width="0.5" stroke="black" fill="grey"/>
   </g>
   <g id="cell308">
  <circle cx="127.304" cy="229.57" r="7.37503" stroke-width="0.5" stroke="black" fill="grey"/>
  <circle cx="127.304" cy="229.57" r="3.0227" stroke-width="0.5" stroke="grey" fill="grey"/>
   </g>
   <g id="cell309">
  <circle cx="161.926" cy="238.831" r="8.41223" stroke-width="0.5" stroke="black" fill="grey"/>
  <circle cx="161.926" cy="238.831" r="5.05087" stroke-width="0.5" stroke="grey" fill="grey"/>
   </g>
   <g id="cell311">
  <circle cx="171.761" cy="106.82" r="8.22517" stroke-width="0.5" stroke="black" fill="grey"/>
  <circle cx="171.761" cy="106.82" r="4.73277" stroke-width="0.5" stroke="grey" fill="grey"/>
   </g>
   <g id="cell315">
  <circle cx="152.758" cy="184.646" r="8.11185" stroke-width="0.5" stroke="black" fill="grey"/>
  <circle cx="152.758" cy="184.646" r="4.53296" stroke-width="0.5" stroke="grey" fill="grey"/>
   </g>
   <g id="cell318">
  <circle cx="133.402" cy="285.754" r="8.27608" stroke-width="0.5" stroke="black" fill="grey"/>
  <circle cx="133.402" cy="285.754" r="4.8207" stroke-width="0.5" stroke="grey" fill="grey"/>
   </g>
   <g id="cell320">
  <circle cx="159.552" cy="125.596" r="8.117" stroke-width="0.5" stroke="black" fill="grey"/>
  <circle cx="159.552" cy="125.596" r="4.54218" stroke-width="0.5" stroke="grey" fill="grey"/>
   </g>
   <g id="cell323">
  <circle cx="157.077" cy="208.5" r="4.16348" stroke-width="0.5" stroke="black" fill="grey"/>
   </g>
   <g id="cell339">
  <circle cx="58.6002" cy="235.13" r="5.99301" stroke-width="0.5" stroke="black" fill="grey"/>
   </g>
   <g id="cell352">
  <circle cx="85.7308" cy="232.937" r="5.57147" stroke-width="0.5" stroke="black" fill="grey"/>
   </g>
   <g id="cell353">
  <circle cx="109.991" cy="249.152" r="8.35805" stroke-width="0.5" stroke="black" fill="grey"/>
  <circle cx="109.991" cy="249.152" r="4.96011" stroke-width="0.5" stroke="grey" fill="grey"/>
   </g>
   <g id="cell369">
  <circle cx="132.5" cy="268.039" r="8.26887" stroke-width="0.5" stroke="black" fill="grey"/>
  <circle cx="132.5" cy="268.039" r="4.80832" stroke-width="0.5" stroke="grey" fill="grey"/>
   </g>
   <g id="cell375">
  <circle cx="135.126" cy="183.785" r="3.90398" stroke-width="0.5" stroke="black" fill="grey"/>
   </g>
   <g id="cell386">
  <circle cx="135.538" cy="221.012" r="8.03811" stroke-width="0.5" stroke="black" fill="grey"/>
  <circle cx="135.538" cy="221.012" r="4.39965" stroke-width="0.5" stroke="grey" fill="grey"/>
   </g>
   <g id="cell400">
  <circle cx="18.8405" cy="162.325" r="6.98707" stroke-width="0.5" stroke="black" fill="grey"/>
  <circle cx="18.8405" cy="162.325" r="1.88808" stroke-width="0.5" stroke="grey" fill="grey"/>
   </g>
   <g id="cell419">
  <circle cx="104.329" cy="262.53" r="8.40858" stroke-width="0.5" stroke="black" fill="grey"/>
  <circle cx="104.329" cy="262.53" r="5.04479" stroke-width="0.5" stroke="grey" fill="grey"/>
   </g>
   <g id="cell429">
  <circle cx="129.105" cy="163.682" r="5.34654" stroke-width="0.5" stroke="black" fill="grey"/>
   </g>
   <g id="cell536">
  <circle cx="252.876" cy="289.785" r="8.2733" stroke-width="0.5" stroke="black" fill="red"/>
  <circle cx="252.876" cy="289.785" r="4.81593" stroke-width="0.5" stroke="red" fill="red"/>
   </g>
   <g id="cell563">
  <circle cx="236.931" cy="184.717" r="8.07979" stroke-width="0.5" stroke="black" fill="red"/>
  <circle cx="236.931" cy="184.717" r="4.47534" stroke-width="0.5" stroke="red" fill="red"/>
   </g>
   <g id="cell589">
  <circle cx="299.95" cy="190.871" r="8.26543" stroke-width="0.5" stroke="black" fill="red"/>
  <circle cx="299.95" cy="190.871" r="4.8024" stroke-width="0.5" stroke="red" fill="red"/>
   </g>
   <g id="cell605">
  <circle cx="320.836" cy="213.772" r="6.48795" stroke-width="0.5" stroke="black" fill="red"/>
   </g>
   <g id="cell615">
  <circle cx="350.049" cy="192.043" r="7.25381" stroke-width="0.5" stroke="black" fill="red"/>
  <circle cx="350.049" cy="192.043" r="2.71356" stroke-width="0.5" stroke="red" fill="red"/>
   </g>
   <g id="cell625">
  <circle cx="212.983" cy="163.272" r="7.11637" stroke-width="0.5" stroke="black" fill="red"/>
  <circle cx="212.983" cy="163.272" r="2.32129" stroke-width="0.5" stroke="red" fill="red"/>
   </g>
   <g id="cell642">
  <circle cx="251.254" cy="215.982" r="5.13803" stroke-width="0.5" stroke="black" fill="red"/>
   </g>
   <g id="cell645">
  <circle cx="256.903" cy="164.035" r="8.38948" stroke-width="0.5" stroke="black" fill="red"/>
  <circle cx="256.903" cy="164.035" r="5.0129" stroke-width="0.5" stroke="red" fill="red"/>
   </g>
   <g id="cell649">
  <circle cx="281.644" cy="179.438" r="8.27641" stroke-width="0.5" stroke="black" fill="red"/>
  <circle cx="281.644" cy="179.438" r="4.82127" stroke-width="0.5" stroke="red" fill="red"/>
   </g>
   <g id="cell651">
  <circle cx="279.985" cy="273.631" r="6.1778" stroke-width="0.5" stroke="black" fill="red"/>
   </g>
   <g id="cell652">
  <circle cx="254.295" cy="242.31" r="7.89133" stroke-width="0.5" stroke="black" fill="red"/>
  <circle cx="254.295" cy="242.31" r="4.12537" stroke-width="0.5" stroke="red" fill="red"/>
   </g>
   <g id="cell653">
  <circle cx="273.177" cy="135.747" r="8.37704" stroke-width="0.5" stroke="black" fill="red"/>
  <circle cx="273.177" cy="135.747" r="4.99204" stroke-width="0.5" stroke="red" fill="red"/>
   </g>
   <g id="cell659">
  <circle cx="271.337" cy="249.398" r="8.39583" stroke-width="0.5" stroke="black" fill="red"/>
  <circle cx="271.337" cy="249.398" r="5.02351" stroke-width="0.5" stroke="red" fill="red"/>
   </g>
   <g id="cell667">
  <circle cx="334.592" cy="244.402" r="8.10763" stroke-width="0.5" stroke="black" fill="red"/>
  <circle cx="334.592" cy="244.402" r="4.52541" stroke-width="0.5" stroke="red" fill="red"/>
   </g>
   <g id="cell668">
  <circle cx="324.389" cy="253.876" r="8.09643" stroke-width="0.5" stroke="black" fill="red"/>
  <circle cx="324.389" cy="253.876" r="4.50532" stroke-width="0.5" stroke="red" fill="red"/>
   </g>
   <g id="cell669">
  <circle cx="343.956" cy="132.433" r="7.85613" stroke-width="0.5" stroke="black" fill="red"/>
  <circle cx="343.956" cy="132.433" r="4.05764" stroke-width="0.5" stroke="red" fill="red"/>
   </g>
   <g id="cell672">
  <circle cx="317.234" cy="189.874" r="4.32706" stroke-width="0.5" stroke="black" fill="red"/>
   </g>
   <g id="cell691">
  <circle cx="203.369" cy="235.987" r="2.59403" stroke-width="0.5" stroke="black" fill="red"/>
   </g>
   <g id="cell695">
  <circle cx="244.776" cy="177.298" r="1.51173" stroke-width="0.5" stroke="black" fill="red"/>
   </g>
   <g id="cell702">
  <circle cx="246.562" cy="201.364" r="7.47342" stroke-width="0.5" stroke="black" fill="red"/>
  <circle cx="246.562" cy="201.364" r="3.2554" stroke-width="0.5" stroke="red" fill="red"/>
   </g>
   <g id="cell703">
  <circle cx="232.058" cy="166.8" r="6.81793" stroke-width="0.5" stroke="black" fill="red"/>
  <circle cx="232.058" cy="166.8" r="1.109" stroke-width="0.5" stroke="red" fill="red"/>
   </g>
   <g id="cell704">
  <circle cx="268.31" cy="227.5" r="7.42587" stroke-width="0.5" stroke="black" fill="red"/>
  <circle cx="268.31" cy="227.5" r="3.14472" stroke-width="0.5" stroke="red" fill="red"/>
   </g>
   <g id="cell705">
  <circle cx="250.544" cy="230.914" r="0.511783" stroke-width="0.5" stroke="black" fill="red"/>
   </g>
   <g id="cell706">
  <circle cx="238.026" cy="239.576" r="2.95088" stroke-width="0.5" stroke="black" fill="red"/>
   </g>
   <g id="cell716">
  <circle cx="232.336" cy="278.312" r="5.51731" stroke-width="0.5" stroke="black" fill="red"/>
   </g>
   <g id="cell720">
  <circle cx="282.24" cy="160.505" r="8.41271" stroke-width="0.5" stroke="black" fill="red"/>
  <circle cx="282.24" cy="160.505" r="5.05167" stroke-width="0.5" stroke="red" fill="red"/>
   </g>
   <g id="cell721">
  <circle cx="277.574" cy="221.469" r="3.3514" stroke-width="0.5" stroke="black" fill="red"/>
   </g>
   <g id="cell722">
  <circle cx="264.385" cy="215.376" r="7.26167" stroke-width="0.5" stroke="black" fill="red"/>
  <circle cx="264.385" cy="215.376" r="2.73451" stroke-width="0.5" stroke="red" fill="red"/>
   </g>
   <g id="cell726">
  <circle cx="286.337" cy="74.9611" r="4.58124" stroke-width="0.5" stroke="black" fill="red"/>
   </g>
   <g id="cell734">
  <circle cx="315.582" cy="147.726" r="4.96759" stroke-width="0.5" stroke="black" fill="red"/>
   </g>
   <g id="cell736">
  <circle cx="323.185" cy="164.168" r="5.86632" stroke-width="0.5" stroke="black" fill="red"/>
   </g>
   <g id="cell738">
  <circle cx="312.109" cy="210.558" r="2.35095" stroke-width="0.5" stroke="black" fill="red"/>
   </g>
   <g id="cell754">
  <circle cx="356.613" cy="311.452" r="2.52328" stroke-width="0.5" stroke="black" fill="red"/>
   </g>
   <g id="cell758">
  <circle cx="171.263" cy="197.987" r="4.52227" stroke-width="0.5" stroke="black" fill="red"/>
   </g>
   <g id="cell762">
  <circle cx="220.036" cy="149.284" r="4.92031" stroke-width="0.5" stroke="black" fill="red"/>
   </g>
   <g id="cell763">
  <circle cx="226.345" cy="206.381" r="8.17959" stroke-width="0.5" stroke="black" fill="red"/>
  <circle cx="226.345" cy="206.381" r="4.65311" stroke-width="0.5" stroke="red" fill="red"/>
   </g>
   <g id="cell767">
  <circle cx="219.862" cy="127.74" r="8.40726" stroke-width="0.5" stroke="black" fill="red"/>
  <circle cx="219.862" cy="127.74" r="5.04259" stroke-width="0.5" stroke="red" fill="red"/>
   </g>
   <g id="cell769">
  <circle cx="255.791" cy="179.457" r="3.78253" stroke-width="0.5" stroke="black" fill="red"/>
   </g>
   <g id="cell771">
  <circle cx="226.051" cy="191.776" r="5.8712" stroke-width="0.5" stroke="black" fill="red"/>
   </g>
   <g id="cell780">
  <circle cx="246.383" cy="246.183" r="3.78818" stroke-width="0.5" stroke="black" fill="red"/>
   </g>
   <g id="cell794">
  <circle cx="261.89" cy="195.599" r="2.84214" stroke-width="0.5" stroke="black" fill="red"/>
   </g>
   <g id="cell802">
  <circle cx="308.663" cy="177.534" r="8.26537" stroke-width="0.5" stroke="black" fill="red"/>
  <circle cx="308.663" cy="177.534" r="4.8023" stroke-width="0.5" stroke="red" fill="red"/>
   </g>
   <g id="cell805">
  <circle cx="323.8" cy="233.827" r="6.59844" stroke-width="0.5" stroke="black" fill="red"/>
   </g>
   <g id="cell806">
  <circle cx="300.603" cy="250.017" r="6.85164" stroke-width="0.5" stroke="black" fill="red"/>
  <circle cx="300.603" cy="250.017" r="1.30023" stroke-width="0.5" stroke="red" fill="red"/>
   </g>
   <g id="cell807">
  <circle cx="293.465" cy="259.074" r="6.45163" stroke-width="0.5" stroke="black" fill="red"/>
   </g>
   <g id="cell810">
  <circle cx="323.766" cy="140.017" r="7.25723" stroke-width="0.5" stroke="black" fill="red"/>
  <circle cx="323.766" cy="140.017" r="2.7227" stroke-width="0.5" stroke="red" fill="red"/>
   </g>
   <g id="cell814">
  <circle cx="296.534" cy="225.663" r="4.57197" stroke-width="0.5" stroke="black" fill="red"/>
   </g>
   <g id="cell821">
  <circle cx="352.796" cy="280.238" r="7.37721" stroke-width="0.5" stroke="black" fill="red"/>
  <circle cx="352.796" cy="280.238" r="3.02802" stroke-width="0.5" stroke="red" fill="red"/>
   </g>
   <g id="cell827">
  <circle cx="191.368" cy="241.919" r="6.77941" stroke-width="0.5" stroke="black" fill="red"/>
  <circle cx="191.368" cy="241.919" r="0.840303" stroke-width="0.5" stroke="red" fill="red"/>
   </g>
   <g id="cell831">
  <circle cx="222.251" cy="178.867" r="4.45155" stroke-width="0.5" stroke="black" fill="red"/>
   </g>
   <g id="cell843">
  <circle cx="217.002" cy="260.761" r="4.85653" stroke-width="0.5" stroke="black" fill="red"/>
   </g>
   <g id="cell862">
  <circle cx="294.409" cy="128.169" r="8.21194" stroke-width="0.5" stroke="black" fill="red"/>
  <circle cx="294.409" cy="128.169" r="4.70975" stroke-width="0.5" stroke="red" fill="red"/>
   </g>
   <g id="cell868">
  <circle cx="275.64" cy="282.16" r="7.63842" stroke-width="0.5" stroke="black" fill="red"/>
  <circle cx="275.64" cy="282.16" r="3.61818" stroke-width="0.5" stroke="red" fill="red"/>
   </g>
   <g id="cell869">
  <circle cx="306.081" cy="123.358" r="3.15032" stroke-width="0.5" stroke="black" fill="red"/>
   </g>
   <g id="cell876">
  <circle cx="308.675" cy="258.97" r="4.90946" stroke-width="0.5" stroke="black" fill="red"/>
   </g>
   <g id="cell911">
  <circle cx="290.672" cy="213.391" r="8.22224" stroke-width="0.5" stroke="black" fill="red"/>
  <circle cx="290.672" cy="213.391" r="4.72768" stroke-width="0.5" stroke="red" fill="red"/>
   </g>
  </g>
 </g>
  <rect x="190" y="414" width="200" height="4" stroke-width="0.8" stroke="rgb(255,255,255)" fill="rgb(0,0,0)"/>
  <text x="192.5" y="411.5"
   font-family="Arial" font-size="10" fill="black" >
   200 &#956;m
  </text>
  <text x="10" y="418"
   font-family="Arial" font-size="7.5" fill="black" >
   0 days, 0 hours, 5 minutes, and 25.9326 seconds
  </text>
  <rect x="0" y="28" width="400" height="400" stroke-width="0.8" stroke="rgb(0,0,0)" fill="none"/>
</svg>
