<?xml version="1.0" encoding="UTF-8" standalone="no"?>
<!-- Created with PhysiCell (http://PhysiCell.MathCancer.org/) -->
<svg 
 xmlns:dc="http://purl.org/dc/elements/1.1/" 
 xmlns:cc="http://creativecommons.org/ns#" 
 xmlns:rdf="http://www.w3.org/1999/02/22-rdf-syntax-ns#" 
 xmlns:svg="http://www.w3.org/2000/svg" 
 xmlns="http://www.w3.org/2000/svg" 
 version="1.1" 
 width="400" 
 height="428" 
 id="svg2">
  <rect x="0" y="0" width="400" height="428" stroke-width="0.8" stroke="white" fill="white"/>
  <text x="5" y="12"
   font-family="Arial" font-size="10" fill="black" >
   Current time: 1 days, 7 hours, and 0.00 minutes, z = 0.00 &#956;m
  </text>
  <text x="5" y="23"
   font-family="Arial" font-size="9.5" fill="black" >
   978 agents
  </text>
 <g id="tissue" 
    transform="translate(0,428) scale(1,-1)">
  <g id="ECM">
  </g>
  <g id="cells">
   <g id="cell71">
  <circle cx="74.3383" cy="195.309" r="7.1332" stroke-width="0.5" stroke="black" fill="grey"/>
  <circle cx="74.3383" cy="195.309" r="2.37238" stroke-width="0.5" stroke="grey" fill="grey"/>
   </g>
   <g id="cell82">
  <circle cx="103.595" cy="162.462" r="7.73616" stroke-width="0.5" stroke="black" fill="grey"/>
  <circle cx="103.595" cy="162.462" r="3.82018" stroke-width="0.5" stroke="grey" fill="grey"/>
   </g>
   <g id="cell108">
  <circle cx="154.898" cy="288.524" r="1.74578" stroke-width="0.5" stroke="black" fill="grey"/>
   </g>
   <g id="cell137">
  <circle cx="37.8522" cy="192.462" r="2.6665" stroke-width="0.5" stroke="black" fill="grey"/>
   </g>
   <g id="cell143">
  <circle cx="98.177" cy="206.284" r="7.56649" stroke-width="0.5" stroke="black" fill="grey"/>
  <circle cx="98.177" cy="206.284" r="3.46373" stroke-width="0.5" stroke="grey" fill="grey"/>
   </g>
   <g id="cell145">
  <circle cx="117.516" cy="210.33" r="8.3143" stroke-width="0.5" stroke="black" fill="grey"/>
  <circle cx="117.516" cy="210.33" r="4.88602" stroke-width="0.5" stroke="grey" fill="grey"/>
   </g>
   <g id="cell149">
  <circle cx="135.434" cy="134.628" r="7.05649" stroke-width="0.5" stroke="black" fill="grey"/>
  <circle cx="135.434" cy="134.628" r="2.13068" stroke-width="0.5" stroke="grey" fill="grey"/>
   </g>
   <g id="cell151">
  <circle cx="51.2791" cy="196.049" r="8.30063" stroke-width="0.5" stroke="black" fill="grey"/>
  <circle cx="51.2791" cy="196.049" r="4.86273" stroke-width="0.5" stroke="grey" fill="grey"/>
   </g>
   <g id="cell159">
  <circle cx="103.277" cy="187.596" r="8.41252" stroke-width="0.5" stroke="black" fill="grey"/>
  <circle cx="103.277" cy="187.596" r="5.05136" stroke-width="0.5" stroke="grey" fill="grey"/>
   </g>
   <g id="cell166">
  <circle cx="144.435" cy="110.65" r="6.93976" stroke-width="0.5" stroke="black" fill="grey"/>
  <circle cx="144.435" cy="110.65" r="1.70467" stroke-width="0.5" stroke="grey" fill="grey"/>
   </g>
   <g id="cell168">
  <circle cx="164.355" cy="218.147" r="7.97718" stroke-width="0.5" stroke="black" fill="grey"/>
  <circle cx="164.355" cy="218.147" r="4.28731" stroke-width="0.5" stroke="grey" fill="grey"/>
   </g>
   <g id="cell175">
  <circle cx="155.851" cy="157.325" r="8.34534" stroke-width="0.5" stroke="black" fill="grey"/>
  <circle cx="155.851" cy="157.325" r="4.93867" stroke-width="0.5" stroke="grey" fill="grey"/>
   </g>
   <g id="cell192">
  <circle cx="146.571" cy="251.767" r="7.87389" stroke-width="0.5" stroke="black" fill="grey"/>
  <circle cx="146.571" cy="251.767" r="4.09193" stroke-width="0.5" stroke="grey" fill="grey"/>
   </g>
   <g id="cell204">
  <circle cx="65.3199" cy="127.657" r="8.41138" stroke-width="0.5" stroke="black" fill="grey"/>
  <circle cx="65.3199" cy="127.657" r="5.04946" stroke-width="0.5" stroke="grey" fill="grey"/>
   </g>
   <g id="cell213">
  <circle cx="64.9538" cy="212.47" r="6.38976" stroke-width="0.5" stroke="black" fill="grey"/>
   </g>
   <g id="cell224">
  <circle cx="128.777" cy="228.232" r="8.02134" stroke-width="0.5" stroke="black" fill="grey"/>
  <circle cx="128.777" cy="228.232" r="4.36894" stroke-width="0.5" stroke="grey" fill="grey"/>
   </g>
   <g id="cell227">
  <circle cx="80.4436" cy="306.098" r="7.84525" stroke-width="0.5" stroke="black" fill="grey"/>
  <circle cx="80.4436" cy="306.098" r="4.03654" stroke-width="0.5" stroke="grey" fill="grey"/>
   </g>
   <g id="cell230">
  <circle cx="95.3016" cy="176.29" r="7.54234" stroke-width="0.5" stroke="black" fill="grey"/>
  <circle cx="95.3016" cy="176.29" r="3.41065" stroke-width="0.5" stroke="grey" fill="grey"/>
   </g>
   <g id="cell235">
  <circle cx="175.228" cy="293.881" r="6.23078" stroke-width="0.5" stroke="black" fill="grey"/>
   </g>
   <g id="cell253">
  <circle cx="177.578" cy="127.493" r="7.54626" stroke-width="0.5" stroke="black" fill="grey"/>
  <circle cx="177.578" cy="127.493" r="3.41931" stroke-width="0.5" stroke="grey" fill="grey"/>
   </g>
   <g id="cell263">
  <circle cx="159.305" cy="259.317" r="5.9555" stroke-width="0.5" stroke="black" fill="grey"/>
   </g>
   <g id="cell271">
  <circle cx="77.741" cy="241.577" r="7.81787" stroke-width="0.5" stroke="black" fill="grey"/>
  <circle cx="77.741" cy="241.577" r="3.98306" stroke-width="0.5" stroke="grey" fill="grey"/>
   </g>
   <g id="cell276">
  <circle cx="41.776" cy="168.853" r="7.40044" stroke-width="0.5" stroke="black" fill="grey"/>
  <circle cx="41.776" cy="168.853" r="3.08417" stroke-width="0.5" stroke="grey" fill="grey"/>
   </g>
   <g id="cell286">
  <circle cx="139.316" cy="90.0511" r="8.37896" stroke-width="0.5" stroke="black" fill="grey"/>
  <circle cx="139.316" cy="90.0511" r="4.99527" stroke-width="0.5" stroke="grey" fill="grey"/>
   </g>
   <g id="cell298">
  <circle cx="133.854" cy="195.096" r="5.08471" stroke-width="0.5" stroke="black" fill="grey"/>
   </g>
   <g id="cell301">
  <circle cx="140.299" cy="289.724" r="8.3801" stroke-width="0.5" stroke="black" fill="grey"/>
  <circle cx="140.299" cy="289.724" r="4.99717" stroke-width="0.5" stroke="grey" fill="grey"/>
   </g>
   <g id="cell304">
  <circle cx="152.586" cy="130.778" r="3.96391" stroke-width="0.5" stroke="black" fill="grey"/>
   </g>
   <g id="cell305">
  <circle cx="146.285" cy="173.34" r="7.37011" stroke-width="0.5" stroke="black" fill="grey"/>
  <circle cx="146.285" cy="173.34" r="3.01067" stroke-width="0.5" stroke="grey" fill="grey"/>
   </g>
   <g id="cell312">
  <circle cx="164.149" cy="142.542" r="7.99337" stroke-width="0.5" stroke="black" fill="grey"/>
  <circle cx="164.149" cy="142.542" r="4.31737" stroke-width="0.5" stroke="grey" fill="grey"/>
   </g>
   <g id="cell323">
  <circle cx="156.465" cy="204.134" r="1.87784" stroke-width="0.5" stroke="black" fill="grey"/>
   </g>
   <g id="cell326">
  <circle cx="193.352" cy="251.541" r="8.40841" stroke-width="0.5" stroke="black" fill="grey"/>
  <circle cx="193.352" cy="251.541" r="5.04451" stroke-width="0.5" stroke="grey" fill="grey"/>
   </g>
   <g id="cell353">
  <circle cx="74.5788" cy="231.448" r="6.60433" stroke-width="0.5" stroke="black" fill="grey"/>
   </g>
   <g id="cell368">
  <circle cx="109.406" cy="241.379" r="3.12199" stroke-width="0.5" stroke="black" fill="grey"/>
   </g>
   <g id="cell369">
  <circle cx="107.645" cy="265.84" r="8.12103" stroke-width="0.5" stroke="black" fill="grey"/>
  <circle cx="107.645" cy="265.84" r="4.54937" stroke-width="0.5" stroke="grey" fill="grey"/>
   </g>
   <g id="cell375">
  <circle cx="150.865" cy="185.756" r="7.90226" stroke-width="0.5" stroke="black" fill="grey"/>
  <circle cx="150.865" cy="185.756" r="4.14625" stroke-width="0.5" stroke="grey" fill="grey"/>
   </g>
   <g id="cell386">
  <circle cx="145.557" cy="227.143" r="8.41161" stroke-width="0.5" stroke="black" fill="grey"/>
  <circle cx="145.557" cy="227.143" r="5.04984" stroke-width="0.5" stroke="grey" fill="grey"/>
   </g>
   <g id="cell413">
  <circle cx="100.528" cy="131.998" r="8.39039" stroke-width="0.5" stroke="black" fill="grey"/>
  <circle cx="100.528" cy="131.998" r="5.01442" stroke-width="0.5" stroke="grey" fill="grey"/>
   </g>
   <g id="cell421">
  <circle cx="123.144" cy="151.757" r="8.26464" stroke-width="0.5" stroke="black" fill="grey"/>
  <circle cx="123.144" cy="151.757" r="4.80104" stroke-width="0.5" stroke="grey" fill="grey"/>
   </g>
   <g id="cell435">
  <circle cx="173.531" cy="110.745" r="4.64785" stroke-width="0.5" stroke="black" fill="grey"/>
   </g>
   <g id="cell445">
  <circle cx="140.918" cy="155.624" r="7.24101" stroke-width="0.5" stroke="black" fill="grey"/>
  <circle cx="140.918" cy="155.624" r="2.67917" stroke-width="0.5" stroke="grey" fill="grey"/>
   </g>
   <g id="cell464">
  <circle cx="111.965" cy="140.144" r="8.00541" stroke-width="0.5" stroke="black" fill="grey"/>
  <circle cx="111.965" cy="140.144" r="4.33962" stroke-width="0.5" stroke="grey" fill="grey"/>
   </g>
   <g id="cell488">
  <circle cx="195.274" cy="276.334" r="7.04749" stroke-width="0.5" stroke="black" fill="grey"/>
  <circle cx="195.274" cy="276.334" r="2.10067" stroke-width="0.5" stroke="grey" fill="grey"/>
   </g>
   <g id="cell539">
  <circle cx="288.14" cy="181.318" r="2.95982" stroke-width="0.5" stroke="black" fill="red"/>
   </g>
   <g id="cell542">
  <circle cx="305.573" cy="288.955" r="6.56909" stroke-width="0.5" stroke="black" fill="red"/>
   </g>
   <g id="cell566">
  <circle cx="210.806" cy="223.733" r="7.01334" stroke-width="0.5" stroke="black" fill="red"/>
  <circle cx="210.806" cy="223.733" r="1.98307" stroke-width="0.5" stroke="red" fill="red"/>
   </g>
   <g id="cell579">
  <circle cx="266.413" cy="209.614" r="7.9367" stroke-width="0.5" stroke="black" fill="red"/>
  <circle cx="266.413" cy="209.614" r="4.21152" stroke-width="0.5" stroke="red" fill="red"/>
   </g>
   <g id="cell597">
  <circle cx="281.446" cy="252.976" r="7.1457" stroke-width="0.5" stroke="black" fill="red"/>
  <circle cx="281.446" cy="252.976" r="2.40972" stroke-width="0.5" stroke="red" fill="red"/>
   </g>
   <g id="cell603">
  <circle cx="332.979" cy="212.359" r="7.35321" stroke-width="0.5" stroke="black" fill="red"/>
  <circle cx="332.979" cy="212.359" r="2.96907" stroke-width="0.5" stroke="red" fill="red"/>
   </g>
   <g id="cell613">
  <circle cx="348.348" cy="216.132" r="8.39782" stroke-width="0.5" stroke="black" fill="red"/>
  <circle cx="348.348" cy="216.132" r="5.02684" stroke-width="0.5" stroke="red" fill="red"/>
   </g>
   <g id="cell614">
  <circle cx="331.501" cy="162.276" r="8.30684" stroke-width="0.5" stroke="black" fill="red"/>
  <circle cx="331.501" cy="162.276" r="4.87333" stroke-width="0.5" stroke="red" fill="red"/>
   </g>
   <g id="cell615">
  <circle cx="352.177" cy="169.109" r="6.13194" stroke-width="0.5" stroke="black" fill="red"/>
   </g>
   <g id="cell617">
  <circle cx="351.53" cy="229.559" r="3.03373" stroke-width="0.5" stroke="black" fill="red"/>
   </g>
   <g id="cell619">
  <circle cx="187.732" cy="160.602" r="5.61274" stroke-width="0.5" stroke="black" fill="red"/>
   </g>
   <g id="cell626">
  <circle cx="205.335" cy="187.734" r="7.57701" stroke-width="0.5" stroke="black" fill="red"/>
  <circle cx="205.335" cy="187.734" r="3.48666" stroke-width="0.5" stroke="red" fill="red"/>
   </g>
   <g id="cell627">
  <circle cx="225.264" cy="248.647" r="5.28529" stroke-width="0.5" stroke="black" fill="red"/>
   </g>
   <g id="cell630">
  <circle cx="154.695" cy="133.108" r="5.36456" stroke-width="0.5" stroke="black" fill="red"/>
   </g>
   <g id="cell647">
  <circle cx="309.622" cy="227.83" r="4.96382" stroke-width="0.5" stroke="black" fill="red"/>
   </g>
   <g id="cell648">
  <circle cx="307.368" cy="181.968" r="8.38805" stroke-width="0.5" stroke="black" fill="red"/>
  <circle cx="307.368" cy="181.968" r="5.01049" stroke-width="0.5" stroke="red" fill="red"/>
   </g>
   <g id="cell653">
  <circle cx="231.704" cy="117.648" r="8.16791" stroke-width="0.5" stroke="black" fill="red"/>
  <circle cx="231.704" cy="117.648" r="4.63253" stroke-width="0.5" stroke="red" fill="red"/>
   </g>
   <g id="cell657">
  <circle cx="310.498" cy="196.822" r="4.20577" stroke-width="0.5" stroke="black" fill="red"/>
   </g>
   <g id="cell659">
  <circle cx="291.039" cy="229.416" r="7.75499" stroke-width="0.5" stroke="black" fill="red"/>
  <circle cx="291.039" cy="229.416" r="3.85819" stroke-width="0.5" stroke="red" fill="red"/>
   </g>
   <g id="cell668">
  <circle cx="306.62" cy="248.199" r="5.13192" stroke-width="0.5" stroke="black" fill="red"/>
   </g>
   <g id="cell669">
  <circle cx="380.566" cy="119.109" r="6.58591" stroke-width="0.5" stroke="black" fill="red"/>
   </g>
   <g id="cell675">
  <circle cx="364.445" cy="264.253" r="6.95442" stroke-width="0.5" stroke="black" fill="red"/>
  <circle cx="364.445" cy="264.253" r="1.76343" stroke-width="0.5" stroke="red" fill="red"/>
   </g>
   <g id="cell677">
  <circle cx="336.028" cy="101.513" r="5.72657" stroke-width="0.5" stroke="black" fill="red"/>
   </g>
   <g id="cell679">
  <circle cx="341.456" cy="173.16" r="7.5774" stroke-width="0.5" stroke="black" fill="red"/>
  <circle cx="341.456" cy="173.16" r="3.4875" stroke-width="0.5" stroke="red" fill="red"/>
   </g>
   <g id="cell702">
  <circle cx="246.683" cy="208.051" r="8.27983" stroke-width="0.5" stroke="black" fill="red"/>
  <circle cx="246.683" cy="208.051" r="4.82714" stroke-width="0.5" stroke="red" fill="red"/>
   </g>
   <g id="cell709">
  <circle cx="219.084" cy="107.706" r="8.22236" stroke-width="0.5" stroke="black" fill="red"/>
  <circle cx="219.084" cy="107.706" r="4.72789" stroke-width="0.5" stroke="red" fill="red"/>
   </g>
   <g id="cell710">
  <circle cx="233.237" cy="162.926" r="8.09008" stroke-width="0.5" stroke="black" fill="red"/>
  <circle cx="233.237" cy="162.926" r="4.49389" stroke-width="0.5" stroke="red" fill="red"/>
   </g>
   <g id="cell720">
  <circle cx="299.426" cy="170.601" r="7.6095" stroke-width="0.5" stroke="black" fill="red"/>
  <circle cx="299.426" cy="170.601" r="3.55671" stroke-width="0.5" stroke="red" fill="red"/>
   </g>
   <g id="cell721">
  <circle cx="275.786" cy="227.164" r="4.09569" stroke-width="0.5" stroke="black" fill="red"/>
   </g>
   <g id="cell724">
  <circle cx="235.225" cy="259.663" r="6.48093" stroke-width="0.5" stroke="black" fill="red"/>
   </g>
   <g id="cell738">
  <circle cx="324.17" cy="182.687" r="6.70911" stroke-width="0.5" stroke="black" fill="red"/>
   </g>
   <g id="cell743">
  <circle cx="388.439" cy="174.942" r="6.40016" stroke-width="0.5" stroke="black" fill="red"/>
   </g>
   <g id="cell751">
  <circle cx="363.516" cy="192.487" r="5.50022" stroke-width="0.5" stroke="black" fill="red"/>
   </g>
   <g id="cell756">
  <circle cx="213.189" cy="152.875" r="8.39112" stroke-width="0.5" stroke="black" fill="red"/>
  <circle cx="213.189" cy="152.875" r="5.01564" stroke-width="0.5" stroke="red" fill="red"/>
   </g>
   <g id="cell759">
  <circle cx="222.87" cy="237.543" r="8.35478" stroke-width="0.5" stroke="black" fill="red"/>
  <circle cx="222.87" cy="237.543" r="4.9546" stroke-width="0.5" stroke="red" fill="red"/>
   </g>
   <g id="cell773">
  <circle cx="249.675" cy="234.363" r="7.30136" stroke-width="0.5" stroke="black" fill="red"/>
  <circle cx="249.675" cy="234.363" r="2.83822" stroke-width="0.5" stroke="red" fill="red"/>
   </g>
   <g id="cell780">
  <circle cx="273.596" cy="266.911" r="8.39728" stroke-width="0.5" stroke="black" fill="red"/>
  <circle cx="273.596" cy="266.911" r="5.02593" stroke-width="0.5" stroke="red" fill="red"/>
   </g>
   <g id="cell788">
  <circle cx="230.255" cy="211.219" r="7.46385" stroke-width="0.5" stroke="black" fill="red"/>
  <circle cx="230.255" cy="211.219" r="3.23339" stroke-width="0.5" stroke="red" fill="red"/>
   </g>
   <g id="cell795">
  <circle cx="282.537" cy="208.086" r="8.29109" stroke-width="0.5" stroke="black" fill="red"/>
  <circle cx="282.537" cy="208.086" r="4.84643" stroke-width="0.5" stroke="red" fill="red"/>
   </g>
   <g id="cell802">
  <circle cx="319.233" cy="152.722" r="6.95591" stroke-width="0.5" stroke="black" fill="red"/>
  <circle cx="319.233" cy="152.722" r="1.7693" stroke-width="0.5" stroke="red" fill="red"/>
   </g>
   <g id="cell806">
  <circle cx="313.551" cy="246.193" r="2.94958" stroke-width="0.5" stroke="black" fill="red"/>
   </g>
   <g id="cell810">
  <circle cx="322.172" cy="147.622" r="2.21376" stroke-width="0.5" stroke="black" fill="red"/>
   </g>
   <g id="cell814">
  <circle cx="300.805" cy="217.04" r="8.41244" stroke-width="0.5" stroke="black" fill="red"/>
  <circle cx="300.805" cy="217.04" r="5.05123" stroke-width="0.5" stroke="red" fill="red"/>
   </g>
   <g id="cell816">
  <circle cx="317.735" cy="273.837" r="6.93993" stroke-width="0.5" stroke="black" fill="red"/>
  <circle cx="317.735" cy="273.837" r="1.70538" stroke-width="0.5" stroke="red" fill="red"/>
   </g>
   <g id="cell821">
  <circle cx="379.113" cy="285.194" r="8.10073" stroke-width="0.5" stroke="black" fill="red"/>
  <circle cx="379.113" cy="285.194" r="4.51303" stroke-width="0.5" stroke="red" fill="red"/>
   </g>
   <g id="cell837">
  <circle cx="257.446" cy="153.82" r="5.00393" stroke-width="0.5" stroke="black" fill="red"/>
   </g>
   <g id="cell840">
  <circle cx="215.709" cy="202.011" r="7.08088" stroke-width="0.5" stroke="black" fill="red"/>
  <circle cx="215.709" cy="202.011" r="2.2101" stroke-width="0.5" stroke="red" fill="red"/>
   </g>
   <g id="cell847">
  <circle cx="228.728" cy="182.579" r="8.05882" stroke-width="0.5" stroke="black" fill="red"/>
  <circle cx="228.728" cy="182.579" r="4.43737" stroke-width="0.5" stroke="red" fill="red"/>
   </g>
   <g id="cell889">
  <circle cx="261.657" cy="132.898" r="7.86734" stroke-width="0.5" stroke="black" fill="red"/>
  <circle cx="261.657" cy="132.898" r="4.07931" stroke-width="0.5" stroke="red" fill="red"/>
   </g>
   <g id="cell894">
  <circle cx="250.178" cy="140.516" r="5.525" stroke-width="0.5" stroke="black" fill="red"/>
   </g>
   <g id="cell900">
  <circle cx="277.69" cy="286.499" r="7.30821" stroke-width="0.5" stroke="black" fill="red"/>
  <circle cx="277.69" cy="286.499" r="2.85581" stroke-width="0.5" stroke="red" fill="red"/>
   </g>
  </g>
 </g>
  <rect x="190" y="414" width="200" height="4" stroke-width="0.8" stroke="rgb(255,255,255)" fill="rgb(0,0,0)"/>
  <text x="192.5" y="411.5"
   font-family="Arial" font-size="10" fill="black" >
   200 &#956;m
  </text>
  <text x="10" y="418"
   font-family="Arial" font-size="7.5" fill="black" >
   0 days, 0 hours, 10 minutes, and 0.9184 seconds
  </text>
  <rect x="0" y="28" width="400" height="400" stroke-width="0.8" stroke="rgb(0,0,0)" fill="none"/>
</svg>
