<?xml version="1.0" encoding="UTF-8" standalone="no"?>
<!-- Created with PhysiCell (http://PhysiCell.MathCancer.org/) -->
<svg 
 xmlns:dc="http://purl.org/dc/elements/1.1/" 
 xmlns:cc="http://creativecommons.org/ns#" 
 xmlns:rdf="http://www.w3.org/1999/02/22-rdf-syntax-ns#" 
 xmlns:svg="http://www.w3.org/2000/svg" 
 xmlns="http://www.w3.org/2000/svg" 
 version="1.1" 
 width="400" 
 height="428" 
 id="svg2">
  <rect x="0" y="0" width="400" height="428" stroke-width="0.8" stroke="white" fill="white"/>
  <text x="5" y="12"
   font-family="Arial" font-size="10" fill="black" >
   Current time: 3 days, 2 hours, and 0.00 minutes, z = 0.00 &#956;m
  </text>
  <text x="5" y="23"
   font-family="Arial" font-size="9.5" fill="black" >
   978 agents
  </text>
 <g id="tissue" 
    transform="translate(0,428) scale(1,-1)">
  <g id="ECM">
  </g>
  <g id="cells">
   <g id="cell4">
  <circle cx="133.502" cy="242.355" r="8.16433" stroke-width="0.5" stroke="black" fill="grey"/>
  <circle cx="133.502" cy="242.355" r="4.62623" stroke-width="0.5" stroke="grey" fill="grey"/>
   </g>
   <g id="cell30">
  <circle cx="109.645" cy="229.723" r="8.40186" stroke-width="0.5" stroke="black" fill="grey"/>
  <circle cx="109.645" cy="229.723" r="5.03357" stroke-width="0.5" stroke="grey" fill="grey"/>
   </g>
   <g id="cell35">
  <circle cx="182.656" cy="171.292" r="5.00799" stroke-width="0.5" stroke="black" fill="grey"/>
   </g>
   <g id="cell59">
  <circle cx="47.3386" cy="226.566" r="8.15201" stroke-width="0.5" stroke="black" fill="grey"/>
  <circle cx="47.3386" cy="226.566" r="4.60444" stroke-width="0.5" stroke="grey" fill="grey"/>
   </g>
   <g id="cell81">
  <circle cx="120.903" cy="86.2246" r="7.73637" stroke-width="0.5" stroke="black" fill="grey"/>
  <circle cx="120.903" cy="86.2246" r="3.82062" stroke-width="0.5" stroke="grey" fill="grey"/>
   </g>
   <g id="cell88">
  <circle cx="170.153" cy="81.8311" r="7.65972" stroke-width="0.5" stroke="black" fill="grey"/>
  <circle cx="170.153" cy="81.8311" r="3.66293" stroke-width="0.5" stroke="grey" fill="grey"/>
   </g>
   <g id="cell93">
  <circle cx="48.733" cy="293.286" r="8.19976" stroke-width="0.5" stroke="black" fill="grey"/>
  <circle cx="48.733" cy="293.286" r="4.68848" stroke-width="0.5" stroke="grey" fill="grey"/>
   </g>
   <g id="cell104">
  <circle cx="118.915" cy="162.812" r="8.13462" stroke-width="0.5" stroke="black" fill="grey"/>
  <circle cx="118.915" cy="162.812" r="4.57358" stroke-width="0.5" stroke="grey" fill="grey"/>
   </g>
   <g id="cell129">
  <circle cx="73.7539" cy="206.281" r="8.38396" stroke-width="0.5" stroke="black" fill="grey"/>
  <circle cx="73.7539" cy="206.281" r="5.00364" stroke-width="0.5" stroke="grey" fill="grey"/>
   </g>
   <g id="cell171">
  <circle cx="44.5052" cy="363.431" r="6.68062" stroke-width="0.5" stroke="black" fill="grey"/>
   </g>
   <g id="cell174">
  <circle cx="154.942" cy="222.581" r="8.40577" stroke-width="0.5" stroke="black" fill="grey"/>
  <circle cx="154.942" cy="222.581" r="5.04011" stroke-width="0.5" stroke="grey" fill="grey"/>
   </g>
   <g id="cell179">
  <circle cx="133.911" cy="260.446" r="6.63367" stroke-width="0.5" stroke="black" fill="grey"/>
   </g>
   <g id="cell182">
  <circle cx="183.912" cy="206.515" r="4.02033" stroke-width="0.5" stroke="black" fill="grey"/>
   </g>
   <g id="cell187">
  <circle cx="194.314" cy="267.195" r="8.2281" stroke-width="0.5" stroke="black" fill="grey"/>
  <circle cx="194.314" cy="267.195" r="4.73787" stroke-width="0.5" stroke="grey" fill="grey"/>
   </g>
   <g id="cell199">
  <circle cx="58.8003" cy="184.813" r="5.23164" stroke-width="0.5" stroke="black" fill="grey"/>
   </g>
   <g id="cell205">
  <circle cx="18.4424" cy="162.271" r="7.15925" stroke-width="0.5" stroke="black" fill="grey"/>
  <circle cx="18.4424" cy="162.271" r="2.4496" stroke-width="0.5" stroke="grey" fill="grey"/>
   </g>
   <g id="cell220">
  <circle cx="67.3426" cy="165.915" r="4.23271" stroke-width="0.5" stroke="black" fill="grey"/>
   </g>
   <g id="cell221">
  <circle cx="135.422" cy="125.261" r="3.44884" stroke-width="0.5" stroke="black" fill="grey"/>
   </g>
   <g id="cell225">
  <circle cx="119.735" cy="281.874" r="8.37378" stroke-width="0.5" stroke="black" fill="grey"/>
  <circle cx="119.735" cy="281.874" r="4.98657" stroke-width="0.5" stroke="grey" fill="grey"/>
   </g>
   <g id="cell232">
  <circle cx="109.323" cy="183.395" r="7.93649" stroke-width="0.5" stroke="black" fill="grey"/>
  <circle cx="109.323" cy="183.395" r="4.21113" stroke-width="0.5" stroke="grey" fill="grey"/>
   </g>
   <g id="cell241">
  <circle cx="151.308" cy="186.546" r="3.52699" stroke-width="0.5" stroke="black" fill="grey"/>
   </g>
   <g id="cell246">
  <circle cx="139.77" cy="41.5172" r="8.15948" stroke-width="0.5" stroke="black" fill="grey"/>
  <circle cx="139.77" cy="41.5172" r="4.61766" stroke-width="0.5" stroke="grey" fill="grey"/>
   </g>
   <g id="cell263">
  <circle cx="142.271" cy="280.794" r="3.2909" stroke-width="0.5" stroke="black" fill="grey"/>
   </g>
   <g id="cell264">
  <circle cx="216.078" cy="231.791" r="4.73567" stroke-width="0.5" stroke="black" fill="grey"/>
   </g>
   <g id="cell271">
  <circle cx="30.2947" cy="243.537" r="8.38027" stroke-width="0.5" stroke="black" fill="grey"/>
  <circle cx="30.2947" cy="243.537" r="4.99746" stroke-width="0.5" stroke="grey" fill="grey"/>
   </g>
   <g id="cell275">
  <circle cx="23.5279" cy="182.465" r="3.98179" stroke-width="0.5" stroke="black" fill="grey"/>
   </g>
   <g id="cell279">
  <circle cx="127.374" cy="228.037" r="6.43021" stroke-width="0.5" stroke="black" fill="grey"/>
   </g>
   <g id="cell309">
  <circle cx="193.587" cy="222.076" r="1.12534" stroke-width="0.5" stroke="black" fill="grey"/>
   </g>
   <g id="cell310">
  <circle cx="174.905" cy="335.684" r="6.21179" stroke-width="0.5" stroke="black" fill="grey"/>
   </g>
   <g id="cell339">
  <circle cx="119.287" cy="243.608" r="7.66603" stroke-width="0.5" stroke="black" fill="grey"/>
  <circle cx="119.287" cy="243.608" r="3.67609" stroke-width="0.5" stroke="grey" fill="grey"/>
   </g>
   <g id="cell355">
  <circle cx="79.2129" cy="83.9544" r="8.41135" stroke-width="0.5" stroke="black" fill="grey"/>
  <circle cx="79.2129" cy="83.9544" r="5.04941" stroke-width="0.5" stroke="grey" fill="grey"/>
   </g>
   <g id="cell359">
  <circle cx="160.814" cy="238.244" r="7.85624" stroke-width="0.5" stroke="black" fill="grey"/>
  <circle cx="160.814" cy="238.244" r="4.05785" stroke-width="0.5" stroke="grey" fill="grey"/>
   </g>
   <g id="cell378">
  <circle cx="125.097" cy="307.181" r="7.7661" stroke-width="0.5" stroke="black" fill="grey"/>
  <circle cx="125.097" cy="307.181" r="3.88046" stroke-width="0.5" stroke="grey" fill="grey"/>
   </g>
   <g id="cell382">
  <circle cx="133.654" cy="179.792" r="4.31923" stroke-width="0.5" stroke="black" fill="grey"/>
   </g>
   <g id="cell389">
  <circle cx="255.136" cy="41.5595" r="8.40348" stroke-width="0.5" stroke="black" fill="grey"/>
  <circle cx="255.136" cy="41.5595" r="5.03628" stroke-width="0.5" stroke="grey" fill="grey"/>
   </g>
   <g id="cell395">
  <circle cx="163.025" cy="174.851" r="7.34475" stroke-width="0.5" stroke="black" fill="grey"/>
  <circle cx="163.025" cy="174.851" r="2.94805" stroke-width="0.5" stroke="grey" fill="grey"/>
   </g>
   <g id="cell425">
  <circle cx="110.799" cy="308.726" r="7.01167" stroke-width="0.5" stroke="black" fill="grey"/>
  <circle cx="110.799" cy="308.726" r="1.97718" stroke-width="0.5" stroke="grey" fill="grey"/>
   </g>
   <g id="cell435">
  <circle cx="227.902" cy="78.7945" r="3.87026" stroke-width="0.5" stroke="black" fill="grey"/>
   </g>
   <g id="cell445">
  <circle cx="95.874" cy="179.557" r="7.66232" stroke-width="0.5" stroke="black" fill="grey"/>
  <circle cx="95.874" cy="179.557" r="3.66835" stroke-width="0.5" stroke="grey" fill="grey"/>
   </g>
   <g id="cell459">
  <circle cx="121.186" cy="136.203" r="6.958" stroke-width="0.5" stroke="black" fill="grey"/>
  <circle cx="121.186" cy="136.203" r="1.7775" stroke-width="0.5" stroke="grey" fill="grey"/>
   </g>
   <g id="cell497">
  <circle cx="339.699" cy="196.236" r="2.22174" stroke-width="0.5" stroke="black" fill="red"/>
   </g>
   <g id="cell511">
  <circle cx="268.66" cy="169.481" r="8.28238" stroke-width="0.5" stroke="black" fill="red"/>
  <circle cx="268.66" cy="169.481" r="4.83151" stroke-width="0.5" stroke="red" fill="red"/>
   </g>
   <g id="cell523">
  <circle cx="210.821" cy="251.371" r="8.41267" stroke-width="0.5" stroke="black" fill="red"/>
  <circle cx="210.821" cy="251.371" r="5.05161" stroke-width="0.5" stroke="red" fill="red"/>
   </g>
   <g id="cell550">
  <circle cx="347.996" cy="171.276" r="8.22266" stroke-width="0.5" stroke="black" fill="red"/>
  <circle cx="347.996" cy="171.276" r="4.7284" stroke-width="0.5" stroke="red" fill="red"/>
   </g>
   <g id="cell562">
  <circle cx="176.198" cy="244.908" r="8.40344" stroke-width="0.5" stroke="black" fill="red"/>
  <circle cx="176.198" cy="244.908" r="5.03622" stroke-width="0.5" stroke="red" fill="red"/>
   </g>
   <g id="cell569">
  <circle cx="256.491" cy="115.506" r="7.44319" stroke-width="0.5" stroke="black" fill="red"/>
  <circle cx="256.491" cy="115.506" r="3.18539" stroke-width="0.5" stroke="red" fill="red"/>
   </g>
   <g id="cell581">
  <circle cx="272.95" cy="130.768" r="6.69962" stroke-width="0.5" stroke="black" fill="red"/>
   </g>
   <g id="cell605">
  <circle cx="360.048" cy="220.679" r="8.13021" stroke-width="0.5" stroke="black" fill="red"/>
  <circle cx="360.048" cy="220.679" r="4.56575" stroke-width="0.5" stroke="red" fill="red"/>
   </g>
   <g id="cell606">
  <circle cx="311.349" cy="248.636" r="7.55609" stroke-width="0.5" stroke="black" fill="red"/>
  <circle cx="311.349" cy="248.636" r="3.44095" stroke-width="0.5" stroke="red" fill="red"/>
   </g>
   <g id="cell616">
  <circle cx="312.397" cy="216.28" r="8.33723" stroke-width="0.5" stroke="black" fill="red"/>
  <circle cx="312.397" cy="216.28" r="4.92494" stroke-width="0.5" stroke="red" fill="red"/>
   </g>
   <g id="cell619">
  <circle cx="162.087" cy="135.431" r="4.62805" stroke-width="0.5" stroke="black" fill="red"/>
   </g>
   <g id="cell633">
  <circle cx="236.82" cy="287.11" r="1.95157" stroke-width="0.5" stroke="black" fill="red"/>
   </g>
   <g id="cell642">
  <circle cx="284.028" cy="220.028" r="8.35751" stroke-width="0.5" stroke="black" fill="red"/>
  <circle cx="284.028" cy="220.028" r="4.9592" stroke-width="0.5" stroke="red" fill="red"/>
   </g>
   <g id="cell650">
  <circle cx="299.104" cy="259.333" r="6.32699" stroke-width="0.5" stroke="black" fill="red"/>
   </g>
   <g id="cell652">
  <circle cx="229.445" cy="266.727" r="7.68641" stroke-width="0.5" stroke="black" fill="red"/>
  <circle cx="229.445" cy="266.727" r="3.71842" stroke-width="0.5" stroke="red" fill="red"/>
   </g>
   <g id="cell654">
  <circle cx="307.527" cy="97.5484" r="8.28717" stroke-width="0.5" stroke="black" fill="red"/>
  <circle cx="307.527" cy="97.5484" r="4.83971" stroke-width="0.5" stroke="red" fill="red"/>
   </g>
   <g id="cell657">
  <circle cx="302.589" cy="130.532" r="8.38091" stroke-width="0.5" stroke="black" fill="red"/>
  <circle cx="302.589" cy="130.532" r="4.99853" stroke-width="0.5" stroke="red" fill="red"/>
   </g>
   <g id="cell675">
  <circle cx="375.909" cy="313.675" r="8.25004" stroke-width="0.5" stroke="black" fill="red"/>
  <circle cx="375.909" cy="313.675" r="4.77587" stroke-width="0.5" stroke="red" fill="red"/>
   </g>
   <g id="cell678">
  <circle cx="272.802" cy="152.628" r="8.34201" stroke-width="0.5" stroke="black" fill="red"/>
  <circle cx="272.802" cy="152.628" r="4.93304" stroke-width="0.5" stroke="red" fill="red"/>
   </g>
   <g id="cell686">
  <circle cx="210.541" cy="204.305" r="7.83355" stroke-width="0.5" stroke="black" fill="red"/>
  <circle cx="210.541" cy="204.305" r="4.01375" stroke-width="0.5" stroke="red" fill="red"/>
   </g>
   <g id="cell687">
  <circle cx="238.159" cy="123.195" r="8.38423" stroke-width="0.5" stroke="black" fill="red"/>
  <circle cx="238.159" cy="123.195" r="5.00409" stroke-width="0.5" stroke="red" fill="red"/>
   </g>
   <g id="cell688">
  <circle cx="209.168" cy="211.81" r="0.561892" stroke-width="0.5" stroke="black" fill="red"/>
   </g>
   <g id="cell689">
  <circle cx="193.813" cy="123.833" r="7.54539" stroke-width="0.5" stroke="black" fill="red"/>
  <circle cx="193.813" cy="123.833" r="3.4174" stroke-width="0.5" stroke="red" fill="red"/>
   </g>
   <g id="cell742">
  <circle cx="317.333" cy="100.81" r="1.61755" stroke-width="0.5" stroke="black" fill="red"/>
   </g>
   <g id="cell743">
  <circle cx="382.908" cy="174.28" r="7.66729" stroke-width="0.5" stroke="black" fill="red"/>
  <circle cx="382.908" cy="174.28" r="3.67872" stroke-width="0.5" stroke="red" fill="red"/>
   </g>
   <g id="cell744">
  <circle cx="286.44" cy="101.956" r="4.14839" stroke-width="0.5" stroke="black" fill="red"/>
   </g>
   <g id="cell750">
  <circle cx="369.603" cy="97.5125" r="8.2215" stroke-width="0.5" stroke="black" fill="red"/>
  <circle cx="369.603" cy="97.5125" r="4.72638" stroke-width="0.5" stroke="red" fill="red"/>
   </g>
   <g id="cell760">
  <circle cx="203.923" cy="308.729" r="8.28246" stroke-width="0.5" stroke="black" fill="red"/>
  <circle cx="203.923" cy="308.729" r="4.83164" stroke-width="0.5" stroke="red" fill="red"/>
   </g>
   <g id="cell767">
  <circle cx="254.392" cy="91.1637" r="7.97829" stroke-width="0.5" stroke="black" fill="red"/>
  <circle cx="254.392" cy="91.1637" r="4.28939" stroke-width="0.5" stroke="red" fill="red"/>
   </g>
   <g id="cell769">
  <circle cx="308.015" cy="203.503" r="2.88109" stroke-width="0.5" stroke="black" fill="red"/>
   </g>
   <g id="cell771">
  <circle cx="198.701" cy="167.33" r="5.948" stroke-width="0.5" stroke="black" fill="red"/>
   </g>
   <g id="cell777">
  <circle cx="283.749" cy="258.658" r="0.82361" stroke-width="0.5" stroke="black" fill="red"/>
   </g>
   <g id="cell783">
  <circle cx="320.585" cy="52.0733" r="8.37396" stroke-width="0.5" stroke="black" fill="red"/>
  <circle cx="320.585" cy="52.0733" r="4.98687" stroke-width="0.5" stroke="red" fill="red"/>
   </g>
   <g id="cell817">
  <circle cx="349.777" cy="149.504" r="8.40822" stroke-width="0.5" stroke="black" fill="red"/>
  <circle cx="349.777" cy="149.504" r="5.04419" stroke-width="0.5" stroke="red" fill="red"/>
   </g>
   <g id="cell838">
  <circle cx="297.7" cy="83.3172" r="6.75097" stroke-width="0.5" stroke="black" fill="red"/>
  <circle cx="297.7" cy="83.3172" r="0.566765" stroke-width="0.5" stroke="red" fill="red"/>
   </g>
   <g id="cell851">
  <circle cx="251.78" cy="378.28" r="8.19169" stroke-width="0.5" stroke="black" fill="red"/>
  <circle cx="251.78" cy="378.28" r="4.67434" stroke-width="0.5" stroke="red" fill="red"/>
   </g>
   <g id="cell861">
  <circle cx="194.522" cy="85.6371" r="2.60395" stroke-width="0.5" stroke="black" fill="red"/>
   </g>
   <g id="cell867">
  <circle cx="258.605" cy="363.09" r="8.37855" stroke-width="0.5" stroke="black" fill="red"/>
  <circle cx="258.605" cy="363.09" r="4.99457" stroke-width="0.5" stroke="red" fill="red"/>
   </g>
   <g id="cell886">
  <circle cx="334.945" cy="257.847" r="7.47032" stroke-width="0.5" stroke="black" fill="red"/>
  <circle cx="334.945" cy="257.847" r="3.24828" stroke-width="0.5" stroke="red" fill="red"/>
   </g>
   <g id="cell900">
  <circle cx="284.575" cy="293.358" r="6.98288" stroke-width="0.5" stroke="black" fill="red"/>
  <circle cx="284.575" cy="293.358" r="1.87251" stroke-width="0.5" stroke="red" fill="red"/>
   </g>
   <g id="cell913">
  <circle cx="314.232" cy="184.138" r="7.69244" stroke-width="0.5" stroke="black" fill="red"/>
  <circle cx="314.232" cy="184.138" r="3.73086" stroke-width="0.5" stroke="red" fill="red"/>
   </g>
   <g id="cell967">
  <circle cx="223.315" cy="206.7" r="7.00647" stroke-width="0.5" stroke="black" fill="red"/>
  <circle cx="223.315" cy="206.7" r="1.95866" stroke-width="0.5" stroke="red" fill="red"/>
   </g>
  </g>
 </g>
  <rect x="190" y="414" width="200" height="4" stroke-width="0.8" stroke="rgb(255,255,255)" fill="rgb(0,0,0)"/>
  <text x="192.5" y="411.5"
   font-family="Arial" font-size="10" fill="black" >
   200 &#956;m
  </text>
  <text x="10" y="418"
   font-family="Arial" font-size="7.5" fill="black" >
   0 days, 0 hours, 21 minutes, and 14.2022 seconds
  </text>
  <rect x="0" y="28" width="400" height="400" stroke-width="0.8" stroke="rgb(0,0,0)" fill="none"/>
</svg>
