<?xml version="1.0" encoding="UTF-8" standalone="no"?>
<!-- Created with PhysiCell (http://PhysiCell.MathCancer.org/) -->
<svg 
 xmlns:dc="http://purl.org/dc/elements/1.1/" 
 xmlns:cc="http://creativecommons.org/ns#" 
 xmlns:rdf="http://www.w3.org/1999/02/22-rdf-syntax-ns#" 
 xmlns:svg="http://www.w3.org/2000/svg" 
 xmlns="http://www.w3.org/2000/svg" 
 version="1.1" 
 width="400" 
 height="428" 
 id="svg2">
  <rect x="0" y="0" width="400" height="428" stroke-width="0.8" stroke="white" fill="white"/>
  <text x="5" y="12"
   font-family="Arial" font-size="10" fill="black" >
   Current time: 0 days, 2 hours, and 0.00 minutes, z = 0.00 &#956;m
  </text>
  <text x="5" y="23"
   font-family="Arial" font-size="9.5" fill="black" >
   978 agents
  </text>
 <g id="tissue" 
    transform="translate(0,428) scale(1,-1)">
  <g id="ECM">
  </g>
  <g id="cells">
   <g id="cell129">
  <circle cx="60.011" cy="166.84" r="6.36872" stroke-width="0.5" stroke="black" fill="grey"/>
   </g>
   <g id="cell141">
  <circle cx="92.4615" cy="164.228" r="8.0942" stroke-width="0.5" stroke="black" fill="grey"/>
  <circle cx="92.4615" cy="164.228" r="4.5013" stroke-width="0.5" stroke="grey" fill="grey"/>
   </g>
   <g id="cell147">
  <circle cx="107.288" cy="138.828" r="3.39974" stroke-width="0.5" stroke="black" fill="grey"/>
   </g>
   <g id="cell152">
  <circle cx="109.338" cy="224.929" r="0.303847" stroke-width="0.5" stroke="black" fill="grey"/>
   </g>
   <g id="cell153">
  <circle cx="107.448" cy="245.38" r="7.21093" stroke-width="0.5" stroke="black" fill="grey"/>
  <circle cx="107.448" cy="245.38" r="2.59677" stroke-width="0.5" stroke="grey" fill="grey"/>
   </g>
   <g id="cell162">
  <circle cx="122.489" cy="256.016" r="8.01766" stroke-width="0.5" stroke="black" fill="grey"/>
  <circle cx="122.489" cy="256.016" r="4.36217" stroke-width="0.5" stroke="grey" fill="grey"/>
   </g>
   <g id="cell166">
  <circle cx="134.987" cy="161.009" r="6.26627" stroke-width="0.5" stroke="black" fill="grey"/>
   </g>
   <g id="cell174">
  <circle cx="151.404" cy="161.194" r="4.88843" stroke-width="0.5" stroke="black" fill="grey"/>
   </g>
   <g id="cell195">
  <circle cx="29.405" cy="192.288" r="2.97258" stroke-width="0.5" stroke="black" fill="grey"/>
   </g>
   <g id="cell196">
  <circle cx="43.5281" cy="199.68" r="7.21566" stroke-width="0.5" stroke="black" fill="grey"/>
  <circle cx="43.5281" cy="199.68" r="2.60988" stroke-width="0.5" stroke="grey" fill="grey"/>
   </g>
   <g id="cell197">
  <circle cx="49.1246" cy="221.863" r="8.40808" stroke-width="0.5" stroke="black" fill="grey"/>
  <circle cx="49.1246" cy="221.863" r="5.04396" stroke-width="0.5" stroke="grey" fill="grey"/>
   </g>
   <g id="cell199">
  <circle cx="75.5177" cy="163.318" r="3.73668" stroke-width="0.5" stroke="black" fill="grey"/>
   </g>
   <g id="cell200">
  <circle cx="65.9781" cy="195.96" r="8.40232" stroke-width="0.5" stroke="black" fill="grey"/>
  <circle cx="65.9781" cy="195.96" r="5.03435" stroke-width="0.5" stroke="grey" fill="grey"/>
   </g>
   <g id="cell202">
  <circle cx="64.8038" cy="220.833" r="8.40922" stroke-width="0.5" stroke="black" fill="grey"/>
  <circle cx="64.8038" cy="220.833" r="5.04585" stroke-width="0.5" stroke="grey" fill="grey"/>
   </g>
   <g id="cell203">
  <circle cx="63.3085" cy="242.358" r="8.08916" stroke-width="0.5" stroke="black" fill="grey"/>
  <circle cx="63.3085" cy="242.358" r="4.49223" stroke-width="0.5" stroke="grey" fill="grey"/>
   </g>
   <g id="cell206">
  <circle cx="81.3598" cy="179.545" r="5.3222" stroke-width="0.5" stroke="black" fill="grey"/>
   </g>
   <g id="cell207">
  <circle cx="87.5365" cy="191.948" r="5.73002" stroke-width="0.5" stroke="black" fill="grey"/>
   </g>
   <g id="cell208">
  <circle cx="76.8747" cy="219.926" r="0.368391" stroke-width="0.5" stroke="black" fill="grey"/>
   </g>
   <g id="cell209">
  <circle cx="77.7442" cy="233.803" r="8.05421" stroke-width="0.5" stroke="black" fill="grey"/>
  <circle cx="77.7442" cy="233.803" r="4.429" stroke-width="0.5" stroke="grey" fill="grey"/>
   </g>
   <g id="cell210">
  <circle cx="73.7138" cy="257.07" r="3.79912" stroke-width="0.5" stroke="black" fill="grey"/>
   </g>
   <g id="cell211">
  <circle cx="92.8293" cy="137.155" r="6.43878" stroke-width="0.5" stroke="black" fill="grey"/>
   </g>
   <g id="cell213">
  <circle cx="97.2842" cy="177.936" r="8.09235" stroke-width="0.5" stroke="black" fill="grey"/>
  <circle cx="97.2842" cy="177.936" r="4.49797" stroke-width="0.5" stroke="grey" fill="grey"/>
   </g>
   <g id="cell214">
  <circle cx="98.1205" cy="192.236" r="7.55027" stroke-width="0.5" stroke="black" fill="grey"/>
  <circle cx="98.1205" cy="192.236" r="3.42817" stroke-width="0.5" stroke="grey" fill="grey"/>
   </g>
   <g id="cell215">
  <circle cx="94.8115" cy="204.456" r="8.16114" stroke-width="0.5" stroke="black" fill="grey"/>
  <circle cx="94.8115" cy="204.456" r="4.6206" stroke-width="0.5" stroke="grey" fill="grey"/>
   </g>
   <g id="cell216">
  <circle cx="96.9739" cy="217.761" r="3.45334" stroke-width="0.5" stroke="black" fill="grey"/>
   </g>
   <g id="cell218">
  <circle cx="96.6501" cy="255.385" r="6.99691" stroke-width="0.5" stroke="black" fill="grey"/>
  <circle cx="96.6501" cy="255.385" r="1.92416" stroke-width="0.5" stroke="grey" fill="grey"/>
   </g>
   <g id="cell220">
  <circle cx="116.566" cy="149.873" r="8.35261" stroke-width="0.5" stroke="black" fill="grey"/>
  <circle cx="116.566" cy="149.873" r="4.95094" stroke-width="0.5" stroke="grey" fill="grey"/>
   </g>
   <g id="cell221">
  <circle cx="110.097" cy="169.767" r="8.26758" stroke-width="0.5" stroke="black" fill="grey"/>
  <circle cx="110.097" cy="169.767" r="4.80609" stroke-width="0.5" stroke="grey" fill="grey"/>
   </g>
   <g id="cell222">
  <circle cx="119.338" cy="185.122" r="5.89646" stroke-width="0.5" stroke="black" fill="grey"/>
   </g>
   <g id="cell223">
  <circle cx="109.737" cy="201.735" r="4.0161" stroke-width="0.5" stroke="black" fill="grey"/>
   </g>
   <g id="cell225">
  <circle cx="116.808" cy="247.231" r="3.30125" stroke-width="0.5" stroke="black" fill="grey"/>
   </g>
   <g id="cell227">
  <circle cx="106.601" cy="275.029" r="5.93369" stroke-width="0.5" stroke="black" fill="grey"/>
   </g>
   <g id="cell230">
  <circle cx="125.342" cy="171.358" r="8.27407" stroke-width="0.5" stroke="black" fill="grey"/>
  <circle cx="125.342" cy="171.358" r="4.81725" stroke-width="0.5" stroke="grey" fill="grey"/>
   </g>
   <g id="cell231">
  <circle cx="128.068" cy="195.706" r="7.80169" stroke-width="0.5" stroke="black" fill="grey"/>
  <circle cx="128.068" cy="195.706" r="3.95121" stroke-width="0.5" stroke="grey" fill="grey"/>
   </g>
   <g id="cell234">
  <circle cx="131.367" cy="241.872" r="8.30017" stroke-width="0.5" stroke="black" fill="grey"/>
  <circle cx="131.367" cy="241.872" r="4.86195" stroke-width="0.5" stroke="grey" fill="grey"/>
   </g>
   <g id="cell235">
  <circle cx="137.941" cy="267.222" r="8.20578" stroke-width="0.5" stroke="black" fill="grey"/>
  <circle cx="137.941" cy="267.222" r="4.699" stroke-width="0.5" stroke="grey" fill="grey"/>
   </g>
   <g id="cell236">
  <circle cx="138.561" cy="136.049" r="8.35824" stroke-width="0.5" stroke="black" fill="grey"/>
  <circle cx="138.561" cy="136.049" r="4.96043" stroke-width="0.5" stroke="grey" fill="grey"/>
   </g>
   <g id="cell237">
  <circle cx="143.302" cy="151.423" r="8.10681" stroke-width="0.5" stroke="black" fill="grey"/>
  <circle cx="143.302" cy="151.423" r="4.52394" stroke-width="0.5" stroke="grey" fill="grey"/>
   </g>
   <g id="cell239">
  <circle cx="141.446" cy="191.719" r="5.23554" stroke-width="0.5" stroke="black" fill="grey"/>
   </g>
   <g id="cell240">
  <circle cx="141.793" cy="204.265" r="7.97437" stroke-width="0.5" stroke="black" fill="grey"/>
  <circle cx="141.793" cy="204.265" r="4.28208" stroke-width="0.5" stroke="grey" fill="grey"/>
   </g>
   <g id="cell243">
  <circle cx="149.983" cy="253.155" r="8.40986" stroke-width="0.5" stroke="black" fill="grey"/>
  <circle cx="149.983" cy="253.155" r="5.04693" stroke-width="0.5" stroke="grey" fill="grey"/>
   </g>
   <g id="cell244">
  <circle cx="155.602" cy="280.634" r="8.23752" stroke-width="0.5" stroke="black" fill="grey"/>
  <circle cx="155.602" cy="280.634" r="4.75421" stroke-width="0.5" stroke="grey" fill="grey"/>
   </g>
   <g id="cell245">
  <circle cx="152.709" cy="136.335" r="5.51798" stroke-width="0.5" stroke="black" fill="grey"/>
   </g>
   <g id="cell246">
  <circle cx="165.196" cy="153.503" r="8.40707" stroke-width="0.5" stroke="black" fill="grey"/>
  <circle cx="165.196" cy="153.503" r="5.04227" stroke-width="0.5" stroke="grey" fill="grey"/>
   </g>
   <g id="cell247">
  <circle cx="162.839" cy="170.207" r="8.41144" stroke-width="0.5" stroke="black" fill="grey"/>
  <circle cx="162.839" cy="170.207" r="5.04955" stroke-width="0.5" stroke="grey" fill="grey"/>
   </g>
   <g id="cell248">
  <circle cx="155.96" cy="198.908" r="7.96659" stroke-width="0.5" stroke="black" fill="grey"/>
  <circle cx="155.96" cy="198.908" r="4.26757" stroke-width="0.5" stroke="grey" fill="grey"/>
   </g>
   <g id="cell249">
  <circle cx="157.243" cy="212.6" r="8.15211" stroke-width="0.5" stroke="black" fill="grey"/>
  <circle cx="157.243" cy="212.6" r="4.60463" stroke-width="0.5" stroke="grey" fill="grey"/>
   </g>
   <g id="cell250">
  <circle cx="153.052" cy="233.566" r="7.92879" stroke-width="0.5" stroke="black" fill="grey"/>
  <circle cx="153.052" cy="233.566" r="4.19659" stroke-width="0.5" stroke="grey" fill="grey"/>
   </g>
   <g id="cell252">
  <circle cx="164.372" cy="263.712" r="5.56935" stroke-width="0.5" stroke="black" fill="grey"/>
   </g>
   <g id="cell253">
  <circle cx="180.352" cy="149.328" r="8.19099" stroke-width="0.5" stroke="black" fill="grey"/>
  <circle cx="180.352" cy="149.328" r="4.67312" stroke-width="0.5" stroke="grey" fill="grey"/>
   </g>
   <g id="cell254">
  <circle cx="176.247" cy="167.403" r="8.33761" stroke-width="0.5" stroke="black" fill="grey"/>
  <circle cx="176.247" cy="167.403" r="4.92558" stroke-width="0.5" stroke="grey" fill="grey"/>
   </g>
   <g id="cell255">
  <circle cx="176.873" cy="181.437" r="5.51868" stroke-width="0.5" stroke="black" fill="grey"/>
   </g>
   <g id="cell256">
  <circle cx="170.561" cy="206.724" r="7.93772" stroke-width="0.5" stroke="black" fill="grey"/>
  <circle cx="170.561" cy="206.724" r="4.21345" stroke-width="0.5" stroke="grey" fill="grey"/>
   </g>
   <g id="cell257">
  <circle cx="174.808" cy="220.37" r="8.23996" stroke-width="0.5" stroke="black" fill="grey"/>
  <circle cx="174.808" cy="220.37" r="4.75842" stroke-width="0.5" stroke="grey" fill="grey"/>
   </g>
   <g id="cell259">
  <circle cx="178.121" cy="262.948" r="8.35845" stroke-width="0.5" stroke="black" fill="grey"/>
  <circle cx="178.121" cy="262.948" r="4.96078" stroke-width="0.5" stroke="grey" fill="grey"/>
   </g>
   <g id="cell260">
  <circle cx="189.932" cy="151.917" r="4.51101" stroke-width="0.5" stroke="black" fill="grey"/>
   </g>
   <g id="cell262">
  <circle cx="183.121" cy="185.49" r="5.5957" stroke-width="0.5" stroke="black" fill="grey"/>
   </g>
   <g id="cell263">
  <circle cx="183.108" cy="203.045" r="8.19331" stroke-width="0.5" stroke="black" fill="grey"/>
  <circle cx="183.108" cy="203.045" r="4.67718" stroke-width="0.5" stroke="grey" fill="grey"/>
   </g>
   <g id="cell265">
  <circle cx="184.899" cy="238.139" r="8.30609" stroke-width="0.5" stroke="black" fill="grey"/>
  <circle cx="184.899" cy="238.139" r="4.87204" stroke-width="0.5" stroke="grey" fill="grey"/>
   </g>
   <g id="cell266">
  <circle cx="193.163" cy="193.268" r="7.79737" stroke-width="0.5" stroke="black" fill="grey"/>
  <circle cx="193.163" cy="193.268" r="3.94267" stroke-width="0.5" stroke="grey" fill="grey"/>
   </g>
   <g id="cell271">
  <circle cx="49.5815" cy="236.162" r="7.81436" stroke-width="0.5" stroke="black" fill="grey"/>
  <circle cx="49.5815" cy="236.162" r="3.97616" stroke-width="0.5" stroke="grey" fill="grey"/>
   </g>
   <g id="cell283">
  <circle cx="95.4109" cy="232.509" r="8.36561" stroke-width="0.5" stroke="black" fill="grey"/>
  <circle cx="95.4109" cy="232.509" r="4.97284" stroke-width="0.5" stroke="grey" fill="grey"/>
   </g>
   <g id="cell287">
  <circle cx="102.894" cy="154.005" r="7.12828" stroke-width="0.5" stroke="black" fill="grey"/>
  <circle cx="102.894" cy="154.005" r="2.35756" stroke-width="0.5" stroke="grey" fill="grey"/>
   </g>
   <g id="cell291">
  <circle cx="108.742" cy="234.795" r="3.1789" stroke-width="0.5" stroke="black" fill="grey"/>
   </g>
   <g id="cell293">
  <circle cx="109.079" cy="262.596" r="7.99841" stroke-width="0.5" stroke="black" fill="grey"/>
  <circle cx="109.079" cy="262.596" r="4.32669" stroke-width="0.5" stroke="grey" fill="grey"/>
   </g>
   <g id="cell298">
  <circle cx="125.733" cy="211.863" r="8.25969" stroke-width="0.5" stroke="black" fill="grey"/>
  <circle cx="125.733" cy="211.863" r="4.79252" stroke-width="0.5" stroke="grey" fill="grey"/>
   </g>
   <g id="cell299">
  <circle cx="125.731" cy="226.117" r="8.27804" stroke-width="0.5" stroke="black" fill="grey"/>
  <circle cx="125.731" cy="226.117" r="4.82407" stroke-width="0.5" stroke="grey" fill="grey"/>
   </g>
   <g id="cell302">
  <circle cx="118.754" cy="263.849" r="1.35046" stroke-width="0.5" stroke="black" fill="grey"/>
   </g>
   <g id="cell314">
  <circle cx="154.893" cy="185.305" r="8.41269" stroke-width="0.5" stroke="black" fill="grey"/>
  <circle cx="154.893" cy="185.305" r="5.05163" stroke-width="0.5" stroke="grey" fill="grey"/>
   </g>
   <g id="cell317">
  <circle cx="141.505" cy="234.8" r="4.65098" stroke-width="0.5" stroke="black" fill="grey"/>
   </g>
   <g id="cell320">
  <circle cx="172.176" cy="132.839" r="5.89856" stroke-width="0.5" stroke="black" fill="grey"/>
   </g>
   <g id="cell326">
  <circle cx="168.707" cy="250.364" r="8.36585" stroke-width="0.5" stroke="black" fill="grey"/>
  <circle cx="168.707" cy="250.364" r="4.97324" stroke-width="0.5" stroke="grey" fill="grey"/>
   </g>
   <g id="cell330">
  <circle cx="169.052" cy="193.261" r="7.8218" stroke-width="0.5" stroke="black" fill="grey"/>
  <circle cx="169.052" cy="193.261" r="3.99077" stroke-width="0.5" stroke="grey" fill="grey"/>
   </g>
   <g id="cell344">
  <circle cx="85.8697" cy="215.73" r="7.84537" stroke-width="0.5" stroke="black" fill="grey"/>
  <circle cx="85.8697" cy="215.73" r="4.03677" stroke-width="0.5" stroke="grey" fill="grey"/>
   </g>
   <g id="cell363">
  <circle cx="117.896" cy="284.389" r="4.343" stroke-width="0.5" stroke="black" fill="grey"/>
   </g>
   <g id="cell618">
  <circle cx="204.507" cy="167.858" r="4.48537" stroke-width="0.5" stroke="black" fill="red"/>
   </g>
   <g id="cell622">
  <circle cx="208.5" cy="237.002" r="8.28151" stroke-width="0.5" stroke="black" fill="red"/>
  <circle cx="208.5" cy="237.002" r="4.83002" stroke-width="0.5" stroke="red" fill="red"/>
   </g>
   <g id="cell629">
  <circle cx="239.487" cy="147.271" r="8.25811" stroke-width="0.5" stroke="black" fill="red"/>
  <circle cx="239.487" cy="147.271" r="4.78978" stroke-width="0.5" stroke="red" fill="red"/>
   </g>
   <g id="cell651">
  <circle cx="275.263" cy="258.254" r="4.79126" stroke-width="0.5" stroke="black" fill="red"/>
   </g>
   <g id="cell661">
  <circle cx="300.006" cy="115.434" r="6.24293" stroke-width="0.5" stroke="black" fill="red"/>
   </g>
   <g id="cell684">
  <circle cx="201.071" cy="184.032" r="7.98802" stroke-width="0.5" stroke="black" fill="red"/>
  <circle cx="201.071" cy="184.032" r="4.30746" stroke-width="0.5" stroke="red" fill="red"/>
   </g>
   <g id="cell685">
  <circle cx="208.031" cy="203.703" r="7.94534" stroke-width="0.5" stroke="black" fill="red"/>
  <circle cx="208.031" cy="203.703" r="4.22778" stroke-width="0.5" stroke="red" fill="red"/>
   </g>
   <g id="cell686">
  <circle cx="198.174" cy="222.97" r="8.17321" stroke-width="0.5" stroke="black" fill="red"/>
  <circle cx="198.174" cy="222.97" r="4.64188" stroke-width="0.5" stroke="red" fill="red"/>
   </g>
   <g id="cell689">
  <circle cx="217.679" cy="193.371" r="8.10071" stroke-width="0.5" stroke="black" fill="red"/>
  <circle cx="217.679" cy="193.371" r="4.513" stroke-width="0.5" stroke="red" fill="red"/>
   </g>
   <g id="cell690">
  <circle cx="225.797" cy="207.531" r="7.98585" stroke-width="0.5" stroke="black" fill="red"/>
  <circle cx="225.797" cy="207.531" r="4.30343" stroke-width="0.5" stroke="red" fill="red"/>
   </g>
   <g id="cell691">
  <circle cx="217.735" cy="222.363" r="6.12745" stroke-width="0.5" stroke="black" fill="red"/>
   </g>
   <g id="cell692">
  <circle cx="208.208" cy="263.304" r="3.63983" stroke-width="0.5" stroke="black" fill="red"/>
   </g>
   <g id="cell694">
  <circle cx="221.086" cy="178.947" r="4.43905" stroke-width="0.5" stroke="black" fill="red"/>
   </g>
   <g id="cell695">
  <circle cx="242.385" cy="176.149" r="8.32186" stroke-width="0.5" stroke="black" fill="red"/>
  <circle cx="242.385" cy="176.149" r="4.89888" stroke-width="0.5" stroke="red" fill="red"/>
   </g>
   <g id="cell698">
  <circle cx="232.289" cy="239.411" r="8.003" stroke-width="0.5" stroke="black" fill="red"/>
  <circle cx="232.289" cy="239.411" r="4.33517" stroke-width="0.5" stroke="red" fill="red"/>
   </g>
   <g id="cell699">
  <circle cx="229.911" cy="261.53" r="5.26925" stroke-width="0.5" stroke="black" fill="red"/>
   </g>
   <g id="cell701">
  <circle cx="245.971" cy="159.769" r="5.79608" stroke-width="0.5" stroke="black" fill="red"/>
   </g>
   <g id="cell702">
  <circle cx="254.884" cy="170.567" r="8.37953" stroke-width="0.5" stroke="black" fill="red"/>
  <circle cx="254.884" cy="170.567" r="4.99621" stroke-width="0.5" stroke="red" fill="red"/>
   </g>
   <g id="cell704">
  <circle cx="251.847" cy="204.198" r="6.38958" stroke-width="0.5" stroke="black" fill="red"/>
   </g>
   <g id="cell705">
  <circle cx="241.508" cy="230.183" r="7.46381" stroke-width="0.5" stroke="black" fill="red"/>
  <circle cx="241.508" cy="230.183" r="3.23329" stroke-width="0.5" stroke="red" fill="red"/>
   </g>
   <g id="cell706">
  <circle cx="246.76" cy="243.819" r="7.6067" stroke-width="0.5" stroke="black" fill="red"/>
  <circle cx="246.76" cy="243.819" r="3.5507" stroke-width="0.5" stroke="red" fill="red"/>
   </g>
   <g id="cell709">
  <circle cx="256.024" cy="139" r="8.39896" stroke-width="0.5" stroke="black" fill="red"/>
  <circle cx="256.024" cy="139" r="5.02874" stroke-width="0.5" stroke="red" fill="red"/>
   </g>
   <g id="cell710">
  <circle cx="260.258" cy="156.619" r="8.36306" stroke-width="0.5" stroke="black" fill="red"/>
  <circle cx="260.258" cy="156.619" r="4.96855" stroke-width="0.5" stroke="red" fill="red"/>
   </g>
   <g id="cell711">
  <circle cx="257.727" cy="190.893" r="5.15439" stroke-width="0.5" stroke="black" fill="red"/>
   </g>
   <g id="cell714">
  <circle cx="257.351" cy="225.939" r="8.10099" stroke-width="0.5" stroke="black" fill="red"/>
  <circle cx="257.351" cy="225.939" r="4.51351" stroke-width="0.5" stroke="red" fill="red"/>
   </g>
   <g id="cell715">
  <circle cx="262.184" cy="246.626" r="7.77015" stroke-width="0.5" stroke="black" fill="red"/>
  <circle cx="262.184" cy="246.626" r="3.88857" stroke-width="0.5" stroke="red" fill="red"/>
   </g>
   <g id="cell716">
  <circle cx="262.19" cy="282.255" r="6.96004" stroke-width="0.5" stroke="black" fill="red"/>
  <circle cx="262.19" cy="282.255" r="1.78543" stroke-width="0.5" stroke="red" fill="red"/>
   </g>
   <g id="cell717">
  <circle cx="275.245" cy="140.908" r="4.45434" stroke-width="0.5" stroke="black" fill="red"/>
   </g>
   <g id="cell718">
  <circle cx="279.932" cy="155.036" r="8.32206" stroke-width="0.5" stroke="black" fill="red"/>
  <circle cx="279.932" cy="155.036" r="4.89923" stroke-width="0.5" stroke="red" fill="red"/>
   </g>
   <g id="cell720">
  <circle cx="277.538" cy="187.658" r="7.94412" stroke-width="0.5" stroke="black" fill="red"/>
  <circle cx="277.538" cy="187.658" r="4.22549" stroke-width="0.5" stroke="red" fill="red"/>
   </g>
   <g id="cell721">
  <circle cx="279.396" cy="212.824" r="6.1329" stroke-width="0.5" stroke="black" fill="red"/>
   </g>
   <g id="cell722">
  <circle cx="271.434" cy="226.854" r="5.39192" stroke-width="0.5" stroke="black" fill="red"/>
   </g>
   <g id="cell723">
  <circle cx="279.903" cy="242.235" r="7.64816" stroke-width="0.5" stroke="black" fill="red"/>
  <circle cx="279.903" cy="242.235" r="3.63869" stroke-width="0.5" stroke="red" fill="red"/>
   </g>
   <g id="cell725">
  <circle cx="292.037" cy="126.454" r="8.2872" stroke-width="0.5" stroke="black" fill="red"/>
  <circle cx="292.037" cy="126.454" r="4.83977" stroke-width="0.5" stroke="red" fill="red"/>
   </g>
   <g id="cell727">
  <circle cx="276.946" cy="167.356" r="6.10033" stroke-width="0.5" stroke="black" fill="red"/>
   </g>
   <g id="cell728">
  <circle cx="299.138" cy="182.376" r="8.39535" stroke-width="0.5" stroke="black" fill="red"/>
  <circle cx="299.138" cy="182.376" r="5.02271" stroke-width="0.5" stroke="red" fill="red"/>
   </g>
   <g id="cell730">
  <circle cx="293.788" cy="214.011" r="8.38201" stroke-width="0.5" stroke="black" fill="red"/>
  <circle cx="293.788" cy="214.011" r="5.00037" stroke-width="0.5" stroke="red" fill="red"/>
   </g>
   <g id="cell731">
  <circle cx="290.432" cy="232.171" r="8.37371" stroke-width="0.5" stroke="black" fill="red"/>
  <circle cx="290.432" cy="232.171" r="4.98645" stroke-width="0.5" stroke="red" fill="red"/>
   </g>
   <g id="cell734">
  <circle cx="307.929" cy="137.666" r="7.94584" stroke-width="0.5" stroke="black" fill="red"/>
  <circle cx="307.929" cy="137.666" r="4.22872" stroke-width="0.5" stroke="red" fill="red"/>
   </g>
   <g id="cell735">
  <circle cx="295.629" cy="154.656" r="7.1586" stroke-width="0.5" stroke="black" fill="red"/>
  <circle cx="295.629" cy="154.656" r="2.44769" stroke-width="0.5" stroke="red" fill="red"/>
   </g>
   <g id="cell736">
  <circle cx="308.317" cy="168.498" r="7.33283" stroke-width="0.5" stroke="black" fill="red"/>
  <circle cx="308.317" cy="168.498" r="2.91824" stroke-width="0.5" stroke="red" fill="red"/>
   </g>
   <g id="cell737">
  <circle cx="299.005" cy="199.643" r="3.67219" stroke-width="0.5" stroke="black" fill="red"/>
   </g>
   <g id="cell738">
  <circle cx="311.661" cy="211.577" r="8.35312" stroke-width="0.5" stroke="black" fill="red"/>
  <circle cx="311.661" cy="211.577" r="4.9518" stroke-width="0.5" stroke="red" fill="red"/>
   </g>
   <g id="cell739">
  <circle cx="303.161" cy="224.288" r="8.31426" stroke-width="0.5" stroke="black" fill="red"/>
  <circle cx="303.161" cy="224.288" r="4.88596" stroke-width="0.5" stroke="red" fill="red"/>
   </g>
   <g id="cell740">
  <circle cx="306.681" cy="249.727" r="6.40953" stroke-width="0.5" stroke="black" fill="red"/>
   </g>
   <g id="cell741">
  <circle cx="308.032" cy="263.764" r="7.66005" stroke-width="0.5" stroke="black" fill="red"/>
  <circle cx="308.032" cy="263.764" r="3.66362" stroke-width="0.5" stroke="red" fill="red"/>
   </g>
   <g id="cell742">
  <circle cx="326.933" cy="138.434" r="7.90438" stroke-width="0.5" stroke="black" fill="red"/>
  <circle cx="326.933" cy="138.434" r="4.15028" stroke-width="0.5" stroke="red" fill="red"/>
   </g>
   <g id="cell744">
  <circle cx="319.453" cy="180.635" r="6.15881" stroke-width="0.5" stroke="black" fill="red"/>
   </g>
   <g id="cell746">
  <circle cx="328" cy="220.48" r="7.98752" stroke-width="0.5" stroke="black" fill="red"/>
  <circle cx="328" cy="220.48" r="4.30653" stroke-width="0.5" stroke="red" fill="red"/>
   </g>
   <g id="cell747">
  <circle cx="328.731" cy="242.95" r="8.41048" stroke-width="0.5" stroke="black" fill="red"/>
  <circle cx="328.731" cy="242.95" r="5.04796" stroke-width="0.5" stroke="red" fill="red"/>
   </g>
   <g id="cell748">
  <circle cx="320.63" cy="263.601" r="6.32641" stroke-width="0.5" stroke="black" fill="red"/>
   </g>
   <g id="cell750">
  <circle cx="335.762" cy="174.295" r="8.41248" stroke-width="0.5" stroke="black" fill="red"/>
  <circle cx="335.762" cy="174.295" r="5.05129" stroke-width="0.5" stroke="red" fill="red"/>
   </g>
   <g id="cell751">
  <circle cx="340.218" cy="200.45" r="5.83224" stroke-width="0.5" stroke="black" fill="red"/>
   </g>
   <g id="cell753">
  <circle cx="345.071" cy="224.412" r="8.00143" stroke-width="0.5" stroke="black" fill="red"/>
  <circle cx="345.071" cy="224.412" r="4.33227" stroke-width="0.5" stroke="red" fill="red"/>
   </g>
   <g id="cell755">
  <circle cx="356.12" cy="200.293" r="7.81401" stroke-width="0.5" stroke="black" fill="red"/>
  <circle cx="356.12" cy="200.293" r="3.97547" stroke-width="0.5" stroke="red" fill="red"/>
   </g>
   <g id="cell766">
  <circle cx="220.114" cy="247.954" r="8.37363" stroke-width="0.5" stroke="black" fill="red"/>
  <circle cx="220.114" cy="247.954" r="4.98632" stroke-width="0.5" stroke="red" fill="red"/>
   </g>
   <g id="cell769">
  <circle cx="244.052" cy="165.018" r="3.66593" stroke-width="0.5" stroke="black" fill="red"/>
   </g>
   <g id="cell775">
  <circle cx="257.252" cy="124.44" r="6.90834" stroke-width="0.5" stroke="black" fill="red"/>
  <circle cx="257.252" cy="124.44" r="1.57191" stroke-width="0.5" stroke="red" fill="red"/>
   </g>
   <g id="cell786">
  <circle cx="270.507" cy="177.067" r="4.08224" stroke-width="0.5" stroke="black" fill="red"/>
   </g>
   <g id="cell802">
  <circle cx="300.749" cy="165.887" r="2.14149" stroke-width="0.5" stroke="black" fill="red"/>
   </g>
   <g id="cell807">
  <circle cx="288.407" cy="262.053" r="7.43968" stroke-width="0.5" stroke="black" fill="red"/>
  <circle cx="288.407" cy="262.053" r="3.1772" stroke-width="0.5" stroke="red" fill="red"/>
   </g>
   <g id="cell808">
  <circle cx="313.478" cy="279.66" r="7.48674" stroke-width="0.5" stroke="black" fill="red"/>
  <circle cx="313.478" cy="279.66" r="3.28586" stroke-width="0.5" stroke="red" fill="red"/>
   </g>
   <g id="cell810">
  <circle cx="317.768" cy="146.802" r="5.72785" stroke-width="0.5" stroke="black" fill="red"/>
   </g>
   <g id="cell814">
  <circle cx="316.998" cy="231.139" r="7.08848" stroke-width="0.5" stroke="black" fill="red"/>
  <circle cx="316.998" cy="231.139" r="2.23433" stroke-width="0.5" stroke="red" fill="red"/>
   </g>
   <g id="cell819">
  <circle cx="342.02" cy="190.039" r="8.01955" stroke-width="0.5" stroke="black" fill="red"/>
  <circle cx="342.02" cy="190.039" r="4.36565" stroke-width="0.5" stroke="red" fill="red"/>
   </g>
   <g id="cell823">
  <circle cx="368.833" cy="205.111" r="6.04598" stroke-width="0.5" stroke="black" fill="red"/>
   </g>
   <g id="cell854">
  <circle cx="282.668" cy="142.245" r="4.23996" stroke-width="0.5" stroke="black" fill="red"/>
   </g>
  </g>
 </g>
  <rect x="190" y="414" width="200" height="4" stroke-width="0.8" stroke="rgb(255,255,255)" fill="rgb(0,0,0)"/>
  <text x="192.5" y="411.5"
   font-family="Arial" font-size="10" fill="black" >
   200 &#956;m
  </text>
  <text x="10" y="418"
   font-family="Arial" font-size="7.5" fill="black" >
   0 days, 0 hours, 0 minutes, and 24.3769 seconds
  </text>
  <rect x="0" y="28" width="400" height="400" stroke-width="0.8" stroke="rgb(0,0,0)" fill="none"/>
</svg>
