<?xml version="1.0" encoding="UTF-8" standalone="no"?>
<!-- Created with PhysiCell (http://PhysiCell.MathCancer.org/) -->
<svg 
 xmlns:dc="http://purl.org/dc/elements/1.1/" 
 xmlns:cc="http://creativecommons.org/ns#" 
 xmlns:rdf="http://www.w3.org/1999/02/22-rdf-syntax-ns#" 
 xmlns:svg="http://www.w3.org/2000/svg" 
 xmlns="http://www.w3.org/2000/svg" 
 version="1.1" 
 width="400" 
 height="428" 
 id="svg2">
  <rect x="0" y="0" width="400" height="428" stroke-width="0.8" stroke="white" fill="white"/>
  <text x="5" y="12"
   font-family="Arial" font-size="10" fill="black" >
   Current time: 2 days, 3 hours, and 0.00 minutes, z = 0.00 &#956;m
  </text>
  <text x="5" y="23"
   font-family="Arial" font-size="9.5" fill="black" >
   978 agents
  </text>
 <g id="tissue" 
    transform="translate(0,428) scale(1,-1)">
  <g id="ECM">
  </g>
  <g id="cells">
   <g id="cell20">
  <circle cx="122.22" cy="247.88" r="8.31534" stroke-width="0.5" stroke="black" fill="grey"/>
  <circle cx="122.22" cy="247.88" r="4.88779" stroke-width="0.5" stroke="grey" fill="grey"/>
   </g>
   <g id="cell71">
  <circle cx="84.0368" cy="201.363" r="4.99576" stroke-width="0.5" stroke="black" fill="grey"/>
   </g>
   <g id="cell82">
  <circle cx="120.904" cy="209.45" r="8.39025" stroke-width="0.5" stroke="black" fill="grey"/>
  <circle cx="120.904" cy="209.45" r="5.01417" stroke-width="0.5" stroke="grey" fill="grey"/>
   </g>
   <g id="cell102">
  <circle cx="76.7658" cy="260.907" r="4.47894" stroke-width="0.5" stroke="black" fill="grey"/>
   </g>
   <g id="cell104">
  <circle cx="124.242" cy="119.092" r="8.32579" stroke-width="0.5" stroke="black" fill="grey"/>
  <circle cx="124.242" cy="119.092" r="4.90556" stroke-width="0.5" stroke="grey" fill="grey"/>
   </g>
   <g id="cell122">
  <circle cx="182.674" cy="155.825" r="8.19342" stroke-width="0.5" stroke="black" fill="grey"/>
  <circle cx="182.674" cy="155.825" r="4.67737" stroke-width="0.5" stroke="grey" fill="grey"/>
   </g>
   <g id="cell145">
  <circle cx="134.627" cy="233.919" r="4.39834" stroke-width="0.5" stroke="black" fill="grey"/>
   </g>
   <g id="cell164">
  <circle cx="131.711" cy="178.867" r="7.64709" stroke-width="0.5" stroke="black" fill="grey"/>
  <circle cx="131.711" cy="178.867" r="3.63643" stroke-width="0.5" stroke="grey" fill="grey"/>
   </g>
   <g id="cell172">
  <circle cx="135.734" cy="64.9303" r="4.65171" stroke-width="0.5" stroke="black" fill="grey"/>
   </g>
   <g id="cell173">
  <circle cx="124.997" cy="101.052" r="7.80351" stroke-width="0.5" stroke="black" fill="grey"/>
  <circle cx="124.997" cy="101.052" r="3.9548" stroke-width="0.5" stroke="grey" fill="grey"/>
   </g>
   <g id="cell175">
  <circle cx="153.334" cy="162.254" r="5.05764" stroke-width="0.5" stroke="black" fill="grey"/>
   </g>
   <g id="cell182">
  <circle cx="176.786" cy="162.991" r="2.89371" stroke-width="0.5" stroke="black" fill="grey"/>
   </g>
   <g id="cell191">
  <circle cx="181.131" cy="234.359" r="6.01822" stroke-width="0.5" stroke="black" fill="grey"/>
   </g>
   <g id="cell195">
  <circle cx="53.4404" cy="166.101" r="8.40258" stroke-width="0.5" stroke="black" fill="grey"/>
  <circle cx="53.4404" cy="166.101" r="5.03478" stroke-width="0.5" stroke="grey" fill="grey"/>
   </g>
   <g id="cell207">
  <circle cx="64.1403" cy="196.36" r="7.79309" stroke-width="0.5" stroke="black" fill="grey"/>
  <circle cx="64.1403" cy="196.36" r="3.93421" stroke-width="0.5" stroke="grey" fill="grey"/>
   </g>
   <g id="cell223">
  <circle cx="138.168" cy="199.601" r="2.98804" stroke-width="0.5" stroke="black" fill="grey"/>
   </g>
   <g id="cell230">
  <circle cx="61.8727" cy="120.978" r="8.31588" stroke-width="0.5" stroke="black" fill="grey"/>
  <circle cx="61.8727" cy="120.978" r="4.88872" stroke-width="0.5" stroke="grey" fill="grey"/>
   </g>
   <g id="cell231">
  <circle cx="126.061" cy="191.488" r="6.90731" stroke-width="0.5" stroke="black" fill="grey"/>
  <circle cx="126.061" cy="191.488" r="1.56738" stroke-width="0.5" stroke="grey" fill="grey"/>
   </g>
   <g id="cell232">
  <circle cx="114.346" cy="196.125" r="7.27215" stroke-width="0.5" stroke="black" fill="grey"/>
  <circle cx="114.346" cy="196.125" r="2.76222" stroke-width="0.5" stroke="grey" fill="grey"/>
   </g>
   <g id="cell242">
  <circle cx="61.5653" cy="219.745" r="4.31296" stroke-width="0.5" stroke="black" fill="grey"/>
   </g>
   <g id="cell245">
  <circle cx="191.48" cy="206.589" r="8.22325" stroke-width="0.5" stroke="black" fill="grey"/>
  <circle cx="191.48" cy="206.589" r="4.72943" stroke-width="0.5" stroke="grey" fill="grey"/>
   </g>
   <g id="cell255">
  <circle cx="161.932" cy="134.581" r="8.27679" stroke-width="0.5" stroke="black" fill="grey"/>
  <circle cx="161.932" cy="134.581" r="4.82192" stroke-width="0.5" stroke="grey" fill="grey"/>
   </g>
   <g id="cell264">
  <circle cx="182.262" cy="273.444" r="8.28475" stroke-width="0.5" stroke="black" fill="grey"/>
  <circle cx="182.262" cy="273.444" r="4.83558" stroke-width="0.5" stroke="grey" fill="grey"/>
   </g>
   <g id="cell275">
  <circle cx="32.2285" cy="220.574" r="8.40727" stroke-width="0.5" stroke="black" fill="grey"/>
  <circle cx="32.2285" cy="220.574" r="5.04261" stroke-width="0.5" stroke="grey" fill="grey"/>
   </g>
   <g id="cell292">
  <circle cx="86.1553" cy="244.169" r="7.98242" stroke-width="0.5" stroke="black" fill="grey"/>
  <circle cx="86.1553" cy="244.169" r="4.29706" stroke-width="0.5" stroke="grey" fill="grey"/>
   </g>
   <g id="cell310">
  <circle cx="162.811" cy="331.783" r="7.78991" stroke-width="0.5" stroke="black" fill="grey"/>
  <circle cx="162.811" cy="331.783" r="3.92791" stroke-width="0.5" stroke="grey" fill="grey"/>
   </g>
   <g id="cell312">
  <circle cx="159.484" cy="152.464" r="7.34459" stroke-width="0.5" stroke="black" fill="grey"/>
  <circle cx="159.484" cy="152.464" r="2.94765" stroke-width="0.5" stroke="grey" fill="grey"/>
   </g>
   <g id="cell322">
  <circle cx="185.769" cy="218.175" r="8.01469" stroke-width="0.5" stroke="black" fill="grey"/>
  <circle cx="185.769" cy="218.175" r="4.35672" stroke-width="0.5" stroke="grey" fill="grey"/>
   </g>
   <g id="cell329">
  <circle cx="146.461" cy="179.908" r="7.28534" stroke-width="0.5" stroke="black" fill="grey"/>
  <circle cx="146.461" cy="179.908" r="2.79675" stroke-width="0.5" stroke="grey" fill="grey"/>
   </g>
   <g id="cell344">
  <circle cx="16.5515" cy="190.258" r="5.13716" stroke-width="0.5" stroke="black" fill="grey"/>
   </g>
   <g id="cell346">
  <circle cx="64.48" cy="275.079" r="6.1323" stroke-width="0.5" stroke="black" fill="grey"/>
   </g>
   <g id="cell359">
  <circle cx="133.026" cy="225.3" r="6.16619" stroke-width="0.5" stroke="black" fill="grey"/>
   </g>
   <g id="cell397">
  <circle cx="198.666" cy="243.483" r="7.03444" stroke-width="0.5" stroke="black" fill="grey"/>
  <circle cx="198.666" cy="243.483" r="2.05646" stroke-width="0.5" stroke="grey" fill="grey"/>
   </g>
   <g id="cell408">
  <circle cx="41.157" cy="160.892" r="7.94192" stroke-width="0.5" stroke="black" fill="grey"/>
  <circle cx="41.157" cy="160.892" r="4.22135" stroke-width="0.5" stroke="grey" fill="grey"/>
   </g>
   <g id="cell423">
  <circle cx="106.408" cy="256.901" r="4.23888" stroke-width="0.5" stroke="black" fill="grey"/>
   </g>
   <g id="cell464">
  <circle cx="147.983" cy="139.969" r="7.12926" stroke-width="0.5" stroke="black" fill="grey"/>
  <circle cx="147.983" cy="139.969" r="2.36051" stroke-width="0.5" stroke="grey" fill="grey"/>
   </g>
   <g id="cell481">
  <circle cx="252.051" cy="209.149" r="1.389" stroke-width="0.5" stroke="black" fill="grey"/>
   </g>
   <g id="cell488">
  <circle cx="161.133" cy="318.036" r="6.6633" stroke-width="0.5" stroke="black" fill="grey"/>
   </g>
   <g id="cell513">
  <circle cx="260.215" cy="217.401" r="7.68859" stroke-width="0.5" stroke="black" fill="red"/>
  <circle cx="260.215" cy="217.401" r="3.72291" stroke-width="0.5" stroke="red" fill="red"/>
   </g>
   <g id="cell524">
  <circle cx="238.217" cy="142.937" r="5.15823" stroke-width="0.5" stroke="black" fill="red"/>
   </g>
   <g id="cell543">
  <circle cx="315.093" cy="120.853" r="7.84185" stroke-width="0.5" stroke="black" fill="red"/>
  <circle cx="315.093" cy="120.853" r="4.02993" stroke-width="0.5" stroke="red" fill="red"/>
   </g>
   <g id="cell589">
  <circle cx="323.557" cy="153.001" r="3.50708" stroke-width="0.5" stroke="black" fill="red"/>
   </g>
   <g id="cell597">
  <circle cx="293.303" cy="262.696" r="8.32763" stroke-width="0.5" stroke="black" fill="red"/>
  <circle cx="293.303" cy="262.696" r="4.90867" stroke-width="0.5" stroke="red" fill="red"/>
   </g>
   <g id="cell605">
  <circle cx="333.864" cy="217.804" r="2.1026" stroke-width="0.5" stroke="black" fill="red"/>
   </g>
   <g id="cell619">
  <circle cx="175.396" cy="123.796" r="8.02401" stroke-width="0.5" stroke="black" fill="red"/>
  <circle cx="175.396" cy="123.796" r="4.37382" stroke-width="0.5" stroke="red" fill="red"/>
   </g>
   <g id="cell625">
  <circle cx="249.77" cy="187.304" r="3.90207" stroke-width="0.5" stroke="black" fill="red"/>
   </g>
   <g id="cell626">
  <circle cx="214.688" cy="185.325" r="8.3756" stroke-width="0.5" stroke="black" fill="red"/>
  <circle cx="214.688" cy="185.325" r="4.98962" stroke-width="0.5" stroke="red" fill="red"/>
   </g>
   <g id="cell636">
  <circle cx="254.764" cy="92.3651" r="6.3663" stroke-width="0.5" stroke="black" fill="red"/>
   </g>
   <g id="cell648">
  <circle cx="317.06" cy="217.156" r="7.80033" stroke-width="0.5" stroke="black" fill="red"/>
  <circle cx="317.06" cy="217.156" r="3.94852" stroke-width="0.5" stroke="red" fill="red"/>
   </g>
   <g id="cell660">
  <circle cx="237.303" cy="322.214" r="7.82282" stroke-width="0.5" stroke="black" fill="red"/>
  <circle cx="237.303" cy="322.214" r="3.99277" stroke-width="0.5" stroke="red" fill="red"/>
   </g>
   <g id="cell669">
  <circle cx="357.317" cy="120.009" r="6.9145" stroke-width="0.5" stroke="black" fill="red"/>
  <circle cx="357.317" cy="120.009" r="1.59873" stroke-width="0.5" stroke="red" fill="red"/>
   </g>
   <g id="cell677">
  <circle cx="350.361" cy="108.611" r="1.50132" stroke-width="0.5" stroke="black" fill="red"/>
   </g>
   <g id="cell683">
  <circle cx="350.021" cy="163.178" r="7.9889" stroke-width="0.5" stroke="black" fill="red"/>
  <circle cx="350.021" cy="163.178" r="4.30907" stroke-width="0.5" stroke="red" fill="red"/>
   </g>
   <g id="cell685">
  <circle cx="224.567" cy="166.505" r="8.14865" stroke-width="0.5" stroke="black" fill="red"/>
  <circle cx="224.567" cy="166.505" r="4.5985" stroke-width="0.5" stroke="red" fill="red"/>
   </g>
   <g id="cell687">
  <circle cx="196.711" cy="103.775" r="6.29002" stroke-width="0.5" stroke="black" fill="red"/>
   </g>
   <g id="cell688">
  <circle cx="180.716" cy="195.717" r="5.52179" stroke-width="0.5" stroke="black" fill="red"/>
   </g>
   <g id="cell694">
  <circle cx="275.893" cy="175.377" r="5.55224" stroke-width="0.5" stroke="black" fill="red"/>
   </g>
   <g id="cell702">
  <circle cx="196.857" cy="192.91" r="7.76509" stroke-width="0.5" stroke="black" fill="red"/>
  <circle cx="196.857" cy="192.91" r="3.87844" stroke-width="0.5" stroke="red" fill="red"/>
   </g>
   <g id="cell704">
  <circle cx="194.948" cy="230.74" r="8.138" stroke-width="0.5" stroke="black" fill="red"/>
  <circle cx="194.948" cy="230.74" r="4.5796" stroke-width="0.5" stroke="red" fill="red"/>
   </g>
   <g id="cell706">
  <circle cx="168.117" cy="225.113" r="8.36147" stroke-width="0.5" stroke="black" fill="red"/>
  <circle cx="168.117" cy="225.113" r="4.96587" stroke-width="0.5" stroke="red" fill="red"/>
   </g>
   <g id="cell709">
  <circle cx="185.235" cy="111.17" r="7.53749" stroke-width="0.5" stroke="black" fill="red"/>
  <circle cx="185.235" cy="111.17" r="3.39992" stroke-width="0.5" stroke="red" fill="red"/>
   </g>
   <g id="cell726">
  <circle cx="290.995" cy="65.6709" r="2.76755" stroke-width="0.5" stroke="black" fill="red"/>
   </g>
   <g id="cell731">
  <circle cx="285.276" cy="295.812" r="6.87114" stroke-width="0.5" stroke="black" fill="red"/>
  <circle cx="285.276" cy="295.812" r="1.39938" stroke-width="0.5" stroke="red" fill="red"/>
   </g>
   <g id="cell741">
  <circle cx="270.126" cy="334.652" r="5.00755" stroke-width="0.5" stroke="black" fill="red"/>
   </g>
   <g id="cell763">
  <circle cx="204.813" cy="242.389" r="2.29646" stroke-width="0.5" stroke="black" fill="red"/>
   </g>
   <g id="cell776">
  <circle cx="167.663" cy="176.403" r="8.2796" stroke-width="0.5" stroke="black" fill="red"/>
  <circle cx="167.663" cy="176.403" r="4.82675" stroke-width="0.5" stroke="red" fill="red"/>
   </g>
   <g id="cell777">
  <circle cx="288.959" cy="239.702" r="3.68586" stroke-width="0.5" stroke="black" fill="red"/>
   </g>
   <g id="cell783">
  <circle cx="309.915" cy="85.791" r="5.69489" stroke-width="0.5" stroke="black" fill="red"/>
   </g>
   <g id="cell786">
  <circle cx="235.589" cy="233.751" r="8.41214" stroke-width="0.5" stroke="black" fill="red"/>
  <circle cx="235.589" cy="233.751" r="5.05073" stroke-width="0.5" stroke="red" fill="red"/>
   </g>
   <g id="cell802">
  <circle cx="313.619" cy="132.661" r="7.33161" stroke-width="0.5" stroke="black" fill="red"/>
  <circle cx="313.619" cy="132.661" r="2.91516" stroke-width="0.5" stroke="red" fill="red"/>
   </g>
   <g id="cell818">
  <circle cx="340.749" cy="163.587" r="2.89719" stroke-width="0.5" stroke="black" fill="red"/>
   </g>
   <g id="cell819">
  <circle cx="368.015" cy="213.852" r="6.82014" stroke-width="0.5" stroke="black" fill="red"/>
  <circle cx="368.015" cy="213.852" r="1.12248" stroke-width="0.5" stroke="red" fill="red"/>
   </g>
   <g id="cell825">
  <circle cx="289.129" cy="202.919" r="8.03827" stroke-width="0.5" stroke="black" fill="red"/>
  <circle cx="289.129" cy="202.919" r="4.39994" stroke-width="0.5" stroke="red" fill="red"/>
   </g>
   <g id="cell829">
  <circle cx="152.441" cy="125.17" r="6.51189" stroke-width="0.5" stroke="black" fill="red"/>
   </g>
   <g id="cell837">
  <circle cx="252.389" cy="159.508" r="8.30041" stroke-width="0.5" stroke="black" fill="red"/>
  <circle cx="252.389" cy="159.508" r="4.86235" stroke-width="0.5" stroke="red" fill="red"/>
   </g>
   <g id="cell845">
  <circle cx="238.934" cy="131.236" r="2.50017" stroke-width="0.5" stroke="black" fill="red"/>
   </g>
   <g id="cell855">
  <circle cx="279.41" cy="164.436" r="8.41025" stroke-width="0.5" stroke="black" fill="red"/>
  <circle cx="279.41" cy="164.436" r="5.04758" stroke-width="0.5" stroke="red" fill="red"/>
   </g>
   <g id="cell860">
  <circle cx="283.751" cy="247.123" r="5.14862" stroke-width="0.5" stroke="black" fill="red"/>
   </g>
   <g id="cell867">
  <circle cx="264.086" cy="310.256" r="8.40268" stroke-width="0.5" stroke="black" fill="red"/>
  <circle cx="264.086" cy="310.256" r="5.03495" stroke-width="0.5" stroke="red" fill="red"/>
   </g>
   <g id="cell872">
  <circle cx="335.25" cy="142.895" r="5.99501" stroke-width="0.5" stroke="black" fill="red"/>
   </g>
   <g id="cell894">
  <circle cx="210.765" cy="107.817" r="8.30954" stroke-width="0.5" stroke="black" fill="red"/>
  <circle cx="210.765" cy="107.817" r="4.87793" stroke-width="0.5" stroke="red" fill="red"/>
   </g>
   <g id="cell898">
  <circle cx="225.166" cy="151.014" r="4.67133" stroke-width="0.5" stroke="black" fill="red"/>
   </g>
  </g>
 </g>
  <rect x="190" y="414" width="200" height="4" stroke-width="0.8" stroke="rgb(255,255,255)" fill="rgb(0,0,0)"/>
  <text x="192.5" y="411.5"
   font-family="Arial" font-size="10" fill="black" >
   200 &#956;m
  </text>
  <text x="10" y="418"
   font-family="Arial" font-size="7.5" fill="black" >
   0 days, 0 hours, 15 minutes, and 50.5897 seconds
  </text>
  <rect x="0" y="28" width="400" height="400" stroke-width="0.8" stroke="rgb(0,0,0)" fill="none"/>
</svg>
