<?xml version="1.0" encoding="UTF-8" standalone="no"?>
<!-- Created with PhysiCell (http://PhysiCell.MathCancer.org/) -->
<svg 
 xmlns:dc="http://purl.org/dc/elements/1.1/" 
 xmlns:cc="http://creativecommons.org/ns#" 
 xmlns:rdf="http://www.w3.org/1999/02/22-rdf-syntax-ns#" 
 xmlns:svg="http://www.w3.org/2000/svg" 
 xmlns="http://www.w3.org/2000/svg" 
 version="1.1" 
 width="400" 
 height="428" 
 id="svg2">
  <rect x="0" y="0" width="400" height="428" stroke-width="0.8" stroke="white" fill="white"/>
  <text x="5" y="12"
   font-family="Arial" font-size="10" fill="black" >
   Current time: 2 days, 11 hours, and 0.00 minutes, z = 0.00 &#956;m
  </text>
  <text x="5" y="23"
   font-family="Arial" font-size="9.5" fill="black" >
   978 agents
  </text>
 <g id="tissue" 
    transform="translate(0,428) scale(1,-1)">
  <g id="ECM">
  </g>
  <g id="cells">
   <g id="cell4">
  <circle cx="115.034" cy="250.785" r="6.31377" stroke-width="0.5" stroke="black" fill="grey"/>
   </g>
   <g id="cell21">
  <circle cx="174.907" cy="125.22" r="8.27038" stroke-width="0.5" stroke="black" fill="grey"/>
  <circle cx="174.907" cy="125.22" r="4.81091" stroke-width="0.5" stroke="grey" fill="grey"/>
   </g>
   <g id="cell81">
  <circle cx="101.091" cy="85.6617" r="8.39098" stroke-width="0.5" stroke="black" fill="grey"/>
  <circle cx="101.091" cy="85.6617" r="5.01541" stroke-width="0.5" stroke="grey" fill="grey"/>
   </g>
   <g id="cell88">
  <circle cx="125.405" cy="70.8476" r="8.41132" stroke-width="0.5" stroke="black" fill="grey"/>
  <circle cx="125.405" cy="70.8476" r="5.04936" stroke-width="0.5" stroke="grey" fill="grey"/>
   </g>
   <g id="cell90">
  <circle cx="103.499" cy="201.313" r="7.97472" stroke-width="0.5" stroke="black" fill="grey"/>
  <circle cx="103.499" cy="201.313" r="4.28273" stroke-width="0.5" stroke="grey" fill="grey"/>
   </g>
   <g id="cell93">
  <circle cx="61.0229" cy="280.971" r="6.56813" stroke-width="0.5" stroke="black" fill="grey"/>
   </g>
   <g id="cell124">
  <circle cx="135.765" cy="286.568" r="8.17773" stroke-width="0.5" stroke="black" fill="grey"/>
  <circle cx="135.765" cy="286.568" r="4.64983" stroke-width="0.5" stroke="grey" fill="grey"/>
   </g>
   <g id="cell135">
  <circle cx="67.6507" cy="218.63" r="4.46068" stroke-width="0.5" stroke="black" fill="grey"/>
   </g>
   <g id="cell147">
  <circle cx="87.3635" cy="126.333" r="7.35093" stroke-width="0.5" stroke="black" fill="grey"/>
  <circle cx="87.3635" cy="126.333" r="2.96341" stroke-width="0.5" stroke="grey" fill="grey"/>
   </g>
   <g id="cell173">
  <circle cx="125.227" cy="89.0075" r="6.52153" stroke-width="0.5" stroke="black" fill="grey"/>
   </g>
   <g id="cell190">
  <circle cx="193.068" cy="94.9746" r="7.75344" stroke-width="0.5" stroke="black" fill="grey"/>
  <circle cx="193.068" cy="94.9746" r="3.85507" stroke-width="0.5" stroke="grey" fill="grey"/>
   </g>
   <g id="cell196">
  <circle cx="68.7424" cy="233.432" r="8.10729" stroke-width="0.5" stroke="black" fill="grey"/>
  <circle cx="68.7424" cy="233.432" r="4.5248" stroke-width="0.5" stroke="grey" fill="grey"/>
   </g>
   <g id="cell199">
  <circle cx="35.1917" cy="165.929" r="6.56973" stroke-width="0.5" stroke="black" fill="grey"/>
   </g>
   <g id="cell201">
  <circle cx="36.8867" cy="240.427" r="4.81128" stroke-width="0.5" stroke="black" fill="grey"/>
   </g>
   <g id="cell217">
  <circle cx="111.112" cy="215.942" r="5.44798" stroke-width="0.5" stroke="black" fill="grey"/>
   </g>
   <g id="cell221">
  <circle cx="119.353" cy="112.229" r="8.28058" stroke-width="0.5" stroke="black" fill="grey"/>
  <circle cx="119.353" cy="112.229" r="4.82842" stroke-width="0.5" stroke="grey" fill="grey"/>
   </g>
   <g id="cell226">
  <circle cx="116.652" cy="320.926" r="7.04578" stroke-width="0.5" stroke="black" fill="grey"/>
  <circle cx="116.652" cy="320.926" r="2.09491" stroke-width="0.5" stroke="grey" fill="grey"/>
   </g>
   <g id="cell231">
  <circle cx="137.436" cy="188.597" r="8.37954" stroke-width="0.5" stroke="black" fill="grey"/>
  <circle cx="137.436" cy="188.597" r="4.99623" stroke-width="0.5" stroke="grey" fill="grey"/>
   </g>
   <g id="cell232">
  <circle cx="117.094" cy="203.708" r="8.18858" stroke-width="0.5" stroke="black" fill="grey"/>
  <circle cx="117.094" cy="203.708" r="4.6689" stroke-width="0.5" stroke="grey" fill="grey"/>
   </g>
   <g id="cell242">
  <circle cx="45.2385" cy="215.398" r="7.05836" stroke-width="0.5" stroke="black" fill="grey"/>
  <circle cx="45.2385" cy="215.398" r="2.13684" stroke-width="0.5" stroke="grey" fill="grey"/>
   </g>
   <g id="cell250">
  <circle cx="161.8" cy="268.76" r="7.6555" stroke-width="0.5" stroke="black" fill="grey"/>
  <circle cx="161.8" cy="268.76" r="3.65409" stroke-width="0.5" stroke="grey" fill="grey"/>
   </g>
   <g id="cell255">
  <circle cx="160.494" cy="122.072" r="8.31835" stroke-width="0.5" stroke="black" fill="grey"/>
  <circle cx="160.494" cy="122.072" r="4.89292" stroke-width="0.5" stroke="grey" fill="grey"/>
   </g>
   <g id="cell261">
  <circle cx="182.68" cy="138.713" r="7.19727" stroke-width="0.5" stroke="black" fill="grey"/>
  <circle cx="182.68" cy="138.713" r="2.55859" stroke-width="0.5" stroke="grey" fill="grey"/>
   </g>
   <g id="cell263">
  <circle cx="145.34" cy="310.256" r="8.21855" stroke-width="0.5" stroke="black" fill="grey"/>
  <circle cx="145.34" cy="310.256" r="4.72126" stroke-width="0.5" stroke="grey" fill="grey"/>
   </g>
   <g id="cell275">
  <circle cx="14.1682" cy="200.014" r="8.0398" stroke-width="0.5" stroke="black" fill="grey"/>
  <circle cx="14.1682" cy="200.014" r="4.40273" stroke-width="0.5" stroke="grey" fill="grey"/>
   </g>
   <g id="cell285">
  <circle cx="37.1888" cy="218.291" r="3.15671" stroke-width="0.5" stroke="black" fill="grey"/>
   </g>
   <g id="cell300">
  <circle cx="151.051" cy="284.532" r="6.51195" stroke-width="0.5" stroke="black" fill="grey"/>
   </g>
   <g id="cell309">
  <circle cx="159.686" cy="201.787" r="8.40845" stroke-width="0.5" stroke="black" fill="grey"/>
  <circle cx="159.686" cy="201.787" r="5.04457" stroke-width="0.5" stroke="grey" fill="grey"/>
   </g>
   <g id="cell346">
  <circle cx="73.1295" cy="295.925" r="7.94121" stroke-width="0.5" stroke="black" fill="grey"/>
  <circle cx="73.1295" cy="295.925" r="4.22001" stroke-width="0.5" stroke="grey" fill="grey"/>
   </g>
   <g id="cell375">
  <circle cx="154.109" cy="171.303" r="5.57076" stroke-width="0.5" stroke="black" fill="grey"/>
   </g>
   <g id="cell389">
  <circle cx="247.547" cy="58.2955" r="5.80134" stroke-width="0.5" stroke="black" fill="grey"/>
   </g>
   <g id="cell408">
  <circle cx="30.797" cy="154.691" r="8.38812" stroke-width="0.5" stroke="black" fill="grey"/>
  <circle cx="30.797" cy="154.691" r="5.01062" stroke-width="0.5" stroke="grey" fill="grey"/>
   </g>
   <g id="cell413">
  <circle cx="102.815" cy="104.319" r="2.38337" stroke-width="0.5" stroke="black" fill="grey"/>
   </g>
   <g id="cell438">
  <circle cx="169.009" cy="138.127" r="7.52981" stroke-width="0.5" stroke="black" fill="grey"/>
  <circle cx="169.009" cy="138.127" r="3.38285" stroke-width="0.5" stroke="grey" fill="grey"/>
   </g>
   <g id="cell455">
  <circle cx="102.258" cy="179.085" r="6.49691" stroke-width="0.5" stroke="black" fill="grey"/>
   </g>
   <g id="cell477">
  <circle cx="128.79" cy="226.232" r="8.34277" stroke-width="0.5" stroke="black" fill="grey"/>
  <circle cx="128.79" cy="226.232" r="4.93433" stroke-width="0.5" stroke="grey" fill="grey"/>
   </g>
   <g id="cell481">
  <circle cx="272.463" cy="206.038" r="8.41152" stroke-width="0.5" stroke="black" fill="grey"/>
  <circle cx="272.463" cy="206.038" r="5.04969" stroke-width="0.5" stroke="grey" fill="grey"/>
   </g>
   <g id="cell511">
  <circle cx="271.981" cy="163.121" r="8.41183" stroke-width="0.5" stroke="black" fill="red"/>
  <circle cx="271.981" cy="163.121" r="5.0502" stroke-width="0.5" stroke="red" fill="red"/>
   </g>
   <g id="cell513">
  <circle cx="269.083" cy="217.769" r="5.06743" stroke-width="0.5" stroke="black" fill="red"/>
   </g>
   <g id="cell536">
  <circle cx="192.183" cy="248.379" r="6.81599" stroke-width="0.5" stroke="black" fill="red"/>
  <circle cx="192.183" cy="248.379" r="1.09697" stroke-width="0.5" stroke="red" fill="red"/>
   </g>
   <g id="cell569">
  <circle cx="288.062" cy="142.152" r="7.27689" stroke-width="0.5" stroke="black" fill="red"/>
  <circle cx="288.062" cy="142.152" r="2.77467" stroke-width="0.5" stroke="red" fill="red"/>
   </g>
   <g id="cell597">
  <circle cx="282.285" cy="258.311" r="7.25256" stroke-width="0.5" stroke="black" fill="red"/>
  <circle cx="282.285" cy="258.311" r="2.71023" stroke-width="0.5" stroke="red" fill="red"/>
   </g>
   <g id="cell626">
  <circle cx="206.797" cy="174.213" r="6.05302" stroke-width="0.5" stroke="black" fill="red"/>
   </g>
   <g id="cell627">
  <circle cx="232.589" cy="309.164" r="8.08695" stroke-width="0.5" stroke="black" fill="red"/>
  <circle cx="232.589" cy="309.164" r="4.48826" stroke-width="0.5" stroke="red" fill="red"/>
   </g>
   <g id="cell631">
  <circle cx="268.471" cy="228.46" r="2.33661" stroke-width="0.5" stroke="black" fill="red"/>
   </g>
   <g id="cell647">
  <circle cx="323.362" cy="195.963" r="8.00478" stroke-width="0.5" stroke="black" fill="red"/>
  <circle cx="323.362" cy="195.963" r="4.33846" stroke-width="0.5" stroke="red" fill="red"/>
   </g>
   <g id="cell651">
  <circle cx="247.838" cy="292.158" r="5.49511" stroke-width="0.5" stroke="black" fill="red"/>
   </g>
   <g id="cell655">
  <circle cx="293.841" cy="222.259" r="6.64818" stroke-width="0.5" stroke="black" fill="red"/>
   </g>
   <g id="cell677">
  <circle cx="332.843" cy="86.6592" r="6.45379" stroke-width="0.5" stroke="black" fill="red"/>
   </g>
   <g id="cell681">
  <circle cx="364.311" cy="311.489" r="5.1052" stroke-width="0.5" stroke="black" fill="red"/>
   </g>
   <g id="cell683">
  <circle cx="350.784" cy="161.78" r="8.40763" stroke-width="0.5" stroke="black" fill="red"/>
  <circle cx="350.784" cy="161.78" r="5.0432" stroke-width="0.5" stroke="red" fill="red"/>
   </g>
   <g id="cell686">
  <circle cx="225.485" cy="225.879" r="7.27758" stroke-width="0.5" stroke="black" fill="red"/>
  <circle cx="225.485" cy="225.879" r="2.77648" stroke-width="0.5" stroke="red" fill="red"/>
   </g>
   <g id="cell702">
  <circle cx="199.103" cy="196.308" r="7.77939" stroke-width="0.5" stroke="black" fill="red"/>
  <circle cx="199.103" cy="196.308" r="3.90698" stroke-width="0.5" stroke="red" fill="red"/>
   </g>
   <g id="cell706">
  <circle cx="169.42" cy="215.548" r="7.89472" stroke-width="0.5" stroke="black" fill="red"/>
  <circle cx="169.42" cy="215.548" r="4.13187" stroke-width="0.5" stroke="red" fill="red"/>
   </g>
   <g id="cell714">
  <circle cx="306.173" cy="165.663" r="8.41122" stroke-width="0.5" stroke="black" fill="red"/>
  <circle cx="306.173" cy="165.663" r="5.04919" stroke-width="0.5" stroke="red" fill="red"/>
   </g>
   <g id="cell718">
  <circle cx="235.848" cy="154.815" r="5.95741" stroke-width="0.5" stroke="black" fill="red"/>
   </g>
   <g id="cell725">
  <circle cx="305.263" cy="96.8941" r="8.00451" stroke-width="0.5" stroke="black" fill="red"/>
  <circle cx="305.263" cy="96.8941" r="4.33795" stroke-width="0.5" stroke="red" fill="red"/>
   </g>
   <g id="cell732">
  <circle cx="250.784" cy="261.061" r="4.90918" stroke-width="0.5" stroke="black" fill="red"/>
   </g>
   <g id="cell742">
  <circle cx="321.649" cy="108.132" r="7.6971" stroke-width="0.5" stroke="black" fill="red"/>
  <circle cx="321.649" cy="108.132" r="3.74045" stroke-width="0.5" stroke="red" fill="red"/>
   </g>
   <g id="cell743">
  <circle cx="379.345" cy="181.973" r="8.41096" stroke-width="0.5" stroke="black" fill="red"/>
  <circle cx="379.345" cy="181.973" r="5.04875" stroke-width="0.5" stroke="red" fill="red"/>
   </g>
   <g id="cell752">
  <circle cx="321.984" cy="277.426" r="0.774496" stroke-width="0.5" stroke="black" fill="red"/>
   </g>
   <g id="cell760">
  <circle cx="210.542" cy="284.443" r="4.28341" stroke-width="0.5" stroke="black" fill="red"/>
   </g>
   <g id="cell766">
  <circle cx="265.08" cy="289.216" r="7.25214" stroke-width="0.5" stroke="black" fill="red"/>
  <circle cx="265.08" cy="289.216" r="2.7091" stroke-width="0.5" stroke="red" fill="red"/>
   </g>
   <g id="cell769">
  <circle cx="298.057" cy="187.319" r="8.3199" stroke-width="0.5" stroke="black" fill="red"/>
  <circle cx="298.057" cy="187.319" r="4.89555" stroke-width="0.5" stroke="red" fill="red"/>
   </g>
   <g id="cell783">
  <circle cx="315.547" cy="66.0193" r="6.34366" stroke-width="0.5" stroke="black" fill="red"/>
   </g>
   <g id="cell787">
  <circle cx="248.919" cy="203.915" r="7.16323" stroke-width="0.5" stroke="black" fill="red"/>
  <circle cx="248.919" cy="203.915" r="2.4612" stroke-width="0.5" stroke="red" fill="red"/>
   </g>
   <g id="cell802">
  <circle cx="311.895" cy="122.923" r="8.39683" stroke-width="0.5" stroke="black" fill="red"/>
  <circle cx="311.895" cy="122.923" r="5.02519" stroke-width="0.5" stroke="red" fill="red"/>
   </g>
   <g id="cell805">
  <circle cx="331.891" cy="321.342" r="4.17238" stroke-width="0.5" stroke="black" fill="red"/>
   </g>
   <g id="cell821">
  <circle cx="385.665" cy="287.786" r="7.90517" stroke-width="0.5" stroke="black" fill="red"/>
  <circle cx="385.665" cy="287.786" r="4.1518" stroke-width="0.5" stroke="red" fill="red"/>
   </g>
   <g id="cell829">
  <circle cx="142.182" cy="122.81" r="3.19476" stroke-width="0.5" stroke="black" fill="red"/>
   </g>
   <g id="cell831">
  <circle cx="198.263" cy="183.039" r="7.867" stroke-width="0.5" stroke="black" fill="red"/>
  <circle cx="198.263" cy="183.039" r="4.07866" stroke-width="0.5" stroke="red" fill="red"/>
   </g>
   <g id="cell841">
  <circle cx="241.664" cy="236.378" r="6.77327" stroke-width="0.5" stroke="black" fill="red"/>
  <circle cx="241.664" cy="236.378" r="0.789235" stroke-width="0.5" stroke="red" fill="red"/>
   </g>
   <g id="cell849">
  <circle cx="219.139" cy="156.085" r="8.23566" stroke-width="0.5" stroke="black" fill="red"/>
  <circle cx="219.139" cy="156.085" r="4.75098" stroke-width="0.5" stroke="red" fill="red"/>
   </g>
   <g id="cell852">
  <circle cx="287.928" cy="274.068" r="8.16958" stroke-width="0.5" stroke="black" fill="red"/>
  <circle cx="287.928" cy="274.068" r="4.63549" stroke-width="0.5" stroke="red" fill="red"/>
   </g>
   <g id="cell867">
  <circle cx="249.682" cy="351.337" r="8.14108" stroke-width="0.5" stroke="black" fill="red"/>
  <circle cx="249.682" cy="351.337" r="4.58507" stroke-width="0.5" stroke="red" fill="red"/>
   </g>
   <g id="cell875">
  <circle cx="325.035" cy="268.388" r="5.71688" stroke-width="0.5" stroke="black" fill="red"/>
   </g>
   <g id="cell900">
  <circle cx="278.228" cy="280.278" r="4.61243" stroke-width="0.5" stroke="black" fill="red"/>
   </g>
   <g id="cell935">
  <circle cx="309.734" cy="298.27" r="7.83266" stroke-width="0.5" stroke="black" fill="red"/>
  <circle cx="309.734" cy="298.27" r="4.012" stroke-width="0.5" stroke="red" fill="red"/>
   </g>
   <g id="cell952">
  <circle cx="242.755" cy="289.186" r="6.14057" stroke-width="0.5" stroke="black" fill="red"/>
   </g>
  </g>
 </g>
  <rect x="190" y="414" width="200" height="4" stroke-width="0.8" stroke="rgb(255,255,255)" fill="rgb(0,0,0)"/>
  <text x="192.5" y="411.5"
   font-family="Arial" font-size="10" fill="black" >
   200 &#956;m
  </text>
  <text x="10" y="418"
   font-family="Arial" font-size="7.5" fill="black" >
   0 days, 0 hours, 18 minutes, and 10.8610 seconds
  </text>
  <rect x="0" y="28" width="400" height="400" stroke-width="0.8" stroke="rgb(0,0,0)" fill="none"/>
</svg>
