<?xml version="1.0" encoding="UTF-8" standalone="no"?>
<!-- Created with PhysiCell (http://PhysiCell.MathCancer.org/) -->
<svg 
 xmlns:dc="http://purl.org/dc/elements/1.1/" 
 xmlns:cc="http://creativecommons.org/ns#" 
 xmlns:rdf="http://www.w3.org/1999/02/22-rdf-syntax-ns#" 
 xmlns:svg="http://www.w3.org/2000/svg" 
 xmlns="http://www.w3.org/2000/svg" 
 version="1.1" 
 width="400" 
 height="428" 
 id="svg2">
  <rect x="0" y="0" width="400" height="428" stroke-width="0.8" stroke="white" fill="white"/>
  <text x="5" y="12"
   font-family="Arial" font-size="10" fill="black" >
   Current time: 1 days, 12 hours, and 0.00 minutes, z = 0.00 &#956;m
  </text>
  <text x="5" y="23"
   font-family="Arial" font-size="9.5" fill="black" >
   978 agents
  </text>
 <g id="tissue" 
    transform="translate(0,428) scale(1,-1)">
  <g id="ECM">
  </g>
  <g id="cells">
   <g id="cell3">
  <circle cx="121.216" cy="227.657" r="8.24997" stroke-width="0.5" stroke="black" fill="grey"/>
  <circle cx="121.216" cy="227.657" r="4.77575" stroke-width="0.5" stroke="grey" fill="grey"/>
   </g>
   <g id="cell35">
  <circle cx="183.815" cy="129.523" r="5.91892" stroke-width="0.5" stroke="black" fill="grey"/>
   </g>
   <g id="cell46">
  <circle cx="57.1715" cy="289.105" r="8.26445" stroke-width="0.5" stroke="black" fill="grey"/>
  <circle cx="57.1715" cy="289.105" r="4.80071" stroke-width="0.5" stroke="grey" fill="grey"/>
   </g>
   <g id="cell82">
  <circle cx="118.436" cy="165.668" r="8.39193" stroke-width="0.5" stroke="black" fill="grey"/>
  <circle cx="118.436" cy="165.668" r="5.01699" stroke-width="0.5" stroke="grey" fill="grey"/>
   </g>
   <g id="cell88">
  <circle cx="117.748" cy="70.6757" r="5.5249" stroke-width="0.5" stroke="black" fill="grey"/>
   </g>
   <g id="cell120">
  <circle cx="192.344" cy="166.065" r="7.8024" stroke-width="0.5" stroke="black" fill="grey"/>
  <circle cx="192.344" cy="166.065" r="3.95262" stroke-width="0.5" stroke="grey" fill="grey"/>
   </g>
   <g id="cell137">
  <circle cx="25.3466" cy="184.825" r="7.187" stroke-width="0.5" stroke="black" fill="grey"/>
  <circle cx="25.3466" cy="184.825" r="2.52955" stroke-width="0.5" stroke="grey" fill="grey"/>
   </g>
   <g id="cell145">
  <circle cx="114.591" cy="216.062" r="6.56357" stroke-width="0.5" stroke="black" fill="grey"/>
   </g>
   <g id="cell159">
  <circle cx="89.8914" cy="204.022" r="8.15876" stroke-width="0.5" stroke="black" fill="grey"/>
  <circle cx="89.8914" cy="204.022" r="4.61638" stroke-width="0.5" stroke="grey" fill="grey"/>
   </g>
   <g id="cell168">
  <circle cx="136.493" cy="217.432" r="0.718084" stroke-width="0.5" stroke="black" fill="grey"/>
   </g>
   <g id="cell170">
  <circle cx="77.8835" cy="266.899" r="7.16492" stroke-width="0.5" stroke="black" fill="grey"/>
  <circle cx="77.8835" cy="266.899" r="2.46612" stroke-width="0.5" stroke="grey" fill="grey"/>
   </g>
   <g id="cell178">
  <circle cx="125.403" cy="208.556" r="8.38752" stroke-width="0.5" stroke="black" fill="grey"/>
  <circle cx="125.403" cy="208.556" r="5.00961" stroke-width="0.5" stroke="grey" fill="grey"/>
   </g>
   <g id="cell179">
  <circle cx="140.599" cy="241.09" r="7.83507" stroke-width="0.5" stroke="black" fill="grey"/>
  <circle cx="140.599" cy="241.09" r="4.01672" stroke-width="0.5" stroke="grey" fill="grey"/>
   </g>
   <g id="cell181">
  <circle cx="144.851" cy="89.7326" r="5.77214" stroke-width="0.5" stroke="black" fill="grey"/>
   </g>
   <g id="cell191">
  <circle cx="179.473" cy="225.416" r="8.07488" stroke-width="0.5" stroke="black" fill="grey"/>
  <circle cx="179.473" cy="225.416" r="4.46647" stroke-width="0.5" stroke="grey" fill="grey"/>
   </g>
   <g id="cell195">
  <circle cx="21.3615" cy="171.448" r="7.90776" stroke-width="0.5" stroke="black" fill="grey"/>
  <circle cx="21.3615" cy="171.448" r="4.15672" stroke-width="0.5" stroke="grey" fill="grey"/>
   </g>
   <g id="cell197">
  <circle cx="109.498" cy="268.022" r="6.91729" stroke-width="0.5" stroke="black" fill="grey"/>
  <circle cx="109.498" cy="268.022" r="1.61076" stroke-width="0.5" stroke="grey" fill="grey"/>
   </g>
   <g id="cell220">
  <circle cx="101.534" cy="179.666" r="8.17554" stroke-width="0.5" stroke="black" fill="grey"/>
  <circle cx="101.534" cy="179.666" r="4.64598" stroke-width="0.5" stroke="grey" fill="grey"/>
   </g>
   <g id="cell221">
  <circle cx="94.2174" cy="129.43" r="8.13221" stroke-width="0.5" stroke="black" fill="grey"/>
  <circle cx="94.2174" cy="129.43" r="4.5693" stroke-width="0.5" stroke="grey" fill="grey"/>
   </g>
   <g id="cell229">
  <circle cx="101.283" cy="95.7202" r="8.39147" stroke-width="0.5" stroke="black" fill="grey"/>
  <circle cx="101.283" cy="95.7202" r="5.01621" stroke-width="0.5" stroke="grey" fill="grey"/>
   </g>
   <g id="cell250">
  <circle cx="158.541" cy="244.358" r="5.23292" stroke-width="0.5" stroke="black" fill="grey"/>
   </g>
   <g id="cell251">
  <circle cx="123.266" cy="275.062" r="8.23974" stroke-width="0.5" stroke="black" fill="grey"/>
  <circle cx="123.266" cy="275.062" r="4.75804" stroke-width="0.5" stroke="grey" fill="grey"/>
   </g>
   <g id="cell254">
  <circle cx="140.968" cy="158.352" r="3.51234" stroke-width="0.5" stroke="black" fill="grey"/>
   </g>
   <g id="cell261">
  <circle cx="187.305" cy="145.42" r="8.41271" stroke-width="0.5" stroke="black" fill="grey"/>
  <circle cx="187.305" cy="145.42" r="5.05167" stroke-width="0.5" stroke="grey" fill="grey"/>
   </g>
   <g id="cell276">
  <circle cx="59.2789" cy="155.461" r="6.89491" stroke-width="0.5" stroke="black" fill="grey"/>
  <circle cx="59.2789" cy="155.461" r="1.51176" stroke-width="0.5" stroke="grey" fill="grey"/>
   </g>
   <g id="cell277">
  <circle cx="78.6151" cy="284.971" r="6.40535" stroke-width="0.5" stroke="black" fill="grey"/>
   </g>
   <g id="cell284">
  <circle cx="64.5595" cy="271.433" r="8.41003" stroke-width="0.5" stroke="black" fill="grey"/>
  <circle cx="64.5595" cy="271.433" r="5.04721" stroke-width="0.5" stroke="grey" fill="grey"/>
   </g>
   <g id="cell286">
  <circle cx="159.691" cy="91.063" r="6.13795" stroke-width="0.5" stroke="black" fill="grey"/>
   </g>
   <g id="cell288">
  <circle cx="59.1724" cy="130.679" r="5.08228" stroke-width="0.5" stroke="black" fill="grey"/>
   </g>
   <g id="cell291">
  <circle cx="103.523" cy="226.621" r="8.33975" stroke-width="0.5" stroke="black" fill="grey"/>
  <circle cx="103.523" cy="226.621" r="4.92921" stroke-width="0.5" stroke="grey" fill="grey"/>
   </g>
   <g id="cell298">
  <circle cx="118.631" cy="184.018" r="2.86035" stroke-width="0.5" stroke="black" fill="grey"/>
   </g>
   <g id="cell300">
  <circle cx="119.343" cy="294.965" r="7.17546" stroke-width="0.5" stroke="black" fill="grey"/>
  <circle cx="119.343" cy="294.965" r="2.49659" stroke-width="0.5" stroke="grey" fill="grey"/>
   </g>
   <g id="cell301">
  <circle cx="145.237" cy="289.82" r="8.00829" stroke-width="0.5" stroke="black" fill="grey"/>
  <circle cx="145.237" cy="289.82" r="4.34492" stroke-width="0.5" stroke="grey" fill="grey"/>
   </g>
   <g id="cell309">
  <circle cx="179.025" cy="203.744" r="6.37566" stroke-width="0.5" stroke="black" fill="grey"/>
   </g>
   <g id="cell314">
  <circle cx="156.789" cy="213.398" r="7.76863" stroke-width="0.5" stroke="black" fill="grey"/>
  <circle cx="156.789" cy="213.398" r="3.88553" stroke-width="0.5" stroke="grey" fill="grey"/>
   </g>
   <g id="cell323">
  <circle cx="144.806" cy="217.995" r="6.1929" stroke-width="0.5" stroke="black" fill="grey"/>
   </g>
   <g id="cell366">
  <circle cx="105.039" cy="194.815" r="1.46419" stroke-width="0.5" stroke="black" fill="grey"/>
   </g>
   <g id="cell368">
  <circle cx="116.812" cy="253.714" r="7.09873" stroke-width="0.5" stroke="black" fill="grey"/>
  <circle cx="116.812" cy="253.714" r="2.26663" stroke-width="0.5" stroke="grey" fill="grey"/>
   </g>
   <g id="cell375">
  <circle cx="142.745" cy="185.859" r="1.77361" stroke-width="0.5" stroke="black" fill="grey"/>
   </g>
   <g id="cell395">
  <circle cx="174.189" cy="176.151" r="5.05357" stroke-width="0.5" stroke="black" fill="grey"/>
   </g>
   <g id="cell435">
  <circle cx="166.99" cy="101.893" r="6.311" stroke-width="0.5" stroke="black" fill="grey"/>
   </g>
   <g id="cell437">
  <circle cx="138.424" cy="201.359" r="4.05406" stroke-width="0.5" stroke="black" fill="grey"/>
   </g>
   <g id="cell445">
  <circle cx="133.81" cy="143.701" r="8.41228" stroke-width="0.5" stroke="black" fill="grey"/>
  <circle cx="133.81" cy="143.701" r="5.05096" stroke-width="0.5" stroke="grey" fill="grey"/>
   </g>
   <g id="cell464">
  <circle cx="120.451" cy="134.909" r="8.35912" stroke-width="0.5" stroke="black" fill="grey"/>
  <circle cx="120.451" cy="134.909" r="4.9619" stroke-width="0.5" stroke="grey" fill="grey"/>
   </g>
   <g id="cell538">
  <circle cx="276.815" cy="168.968" r="7.31374" stroke-width="0.5" stroke="black" fill="red"/>
  <circle cx="276.815" cy="168.968" r="2.86992" stroke-width="0.5" stroke="red" fill="red"/>
   </g>
   <g id="cell600">
  <circle cx="317.061" cy="132.861" r="8.36957" stroke-width="0.5" stroke="black" fill="red"/>
  <circle cx="317.061" cy="132.861" r="4.9795" stroke-width="0.5" stroke="red" fill="red"/>
   </g>
   <g id="cell605">
  <circle cx="345.869" cy="207.629" r="7.28404" stroke-width="0.5" stroke="black" fill="red"/>
  <circle cx="345.869" cy="207.629" r="2.79338" stroke-width="0.5" stroke="red" fill="red"/>
   </g>
   <g id="cell606">
  <circle cx="344.163" cy="235.689" r="3.66065" stroke-width="0.5" stroke="black" fill="red"/>
   </g>
   <g id="cell623">
  <circle cx="214.229" cy="144.907" r="4.84458" stroke-width="0.5" stroke="black" fill="red"/>
   </g>
   <g id="cell626">
  <circle cx="228.022" cy="193.439" r="7.99001" stroke-width="0.5" stroke="black" fill="red"/>
  <circle cx="228.022" cy="193.439" r="4.31115" stroke-width="0.5" stroke="red" fill="red"/>
   </g>
   <g id="cell633">
  <circle cx="248.342" cy="228.782" r="3.71072" stroke-width="0.5" stroke="black" fill="red"/>
   </g>
   <g id="cell635">
  <circle cx="227.757" cy="304.545" r="8.41254" stroke-width="0.5" stroke="black" fill="red"/>
  <circle cx="227.757" cy="304.545" r="5.05139" stroke-width="0.5" stroke="red" fill="red"/>
   </g>
   <g id="cell636">
  <circle cx="253.891" cy="100.275" r="7.40443" stroke-width="0.5" stroke="black" fill="red"/>
  <circle cx="253.891" cy="100.275" r="3.09373" stroke-width="0.5" stroke="red" fill="red"/>
   </g>
   <g id="cell647">
  <circle cx="319.356" cy="205.613" r="8.39156" stroke-width="0.5" stroke="black" fill="red"/>
  <circle cx="319.356" cy="205.613" r="5.01637" stroke-width="0.5" stroke="red" fill="red"/>
   </g>
   <g id="cell652">
  <circle cx="202.692" cy="263.975" r="6.64256" stroke-width="0.5" stroke="black" fill="red"/>
   </g>
   <g id="cell656">
  <circle cx="298.825" cy="188.695" r="8.40872" stroke-width="0.5" stroke="black" fill="red"/>
  <circle cx="298.825" cy="188.695" r="5.04501" stroke-width="0.5" stroke="red" fill="red"/>
   </g>
   <g id="cell661">
  <circle cx="307.031" cy="117.163" r="8.38945" stroke-width="0.5" stroke="black" fill="red"/>
  <circle cx="307.031" cy="117.163" r="5.01284" stroke-width="0.5" stroke="red" fill="red"/>
   </g>
   <g id="cell667">
  <circle cx="346.662" cy="256.97" r="6.87507" stroke-width="0.5" stroke="black" fill="red"/>
  <circle cx="346.662" cy="256.97" r="1.41856" stroke-width="0.5" stroke="red" fill="red"/>
   </g>
   <g id="cell668">
  <circle cx="316.06" cy="242.318" r="5.08204" stroke-width="0.5" stroke="black" fill="red"/>
   </g>
   <g id="cell669">
  <circle cx="390.242" cy="125.328" r="6.69018" stroke-width="0.5" stroke="black" fill="red"/>
   </g>
   <g id="cell702">
  <circle cx="244.952" cy="202.015" r="7.95928" stroke-width="0.5" stroke="black" fill="red"/>
  <circle cx="244.952" cy="202.015" r="4.25392" stroke-width="0.5" stroke="red" fill="red"/>
   </g>
   <g id="cell705">
  <circle cx="258.543" cy="227.61" r="1.22831" stroke-width="0.5" stroke="black" fill="red"/>
   </g>
   <g id="cell713">
  <circle cx="266.149" cy="199.716" r="6.00006" stroke-width="0.5" stroke="black" fill="red"/>
   </g>
   <g id="cell718">
  <circle cx="253.624" cy="155.919" r="2.40202" stroke-width="0.5" stroke="black" fill="red"/>
   </g>
   <g id="cell720">
  <circle cx="300.197" cy="165.547" r="4.75449" stroke-width="0.5" stroke="black" fill="red"/>
   </g>
   <g id="cell771">
  <circle cx="215.161" cy="202.996" r="5.20321" stroke-width="0.5" stroke="black" fill="red"/>
   </g>
   <g id="cell777">
  <circle cx="298.603" cy="209.847" r="4.29692" stroke-width="0.5" stroke="black" fill="red"/>
   </g>
   <g id="cell780">
  <circle cx="271.301" cy="269.238" r="8.1556" stroke-width="0.5" stroke="black" fill="red"/>
  <circle cx="271.301" cy="269.238" r="4.61081" stroke-width="0.5" stroke="red" fill="red"/>
   </g>
   <g id="cell787">
  <circle cx="242.413" cy="134.073" r="6.55714" stroke-width="0.5" stroke="black" fill="red"/>
   </g>
   <g id="cell805">
  <circle cx="332.341" cy="273.436" r="5.45247" stroke-width="0.5" stroke="black" fill="red"/>
   </g>
   <g id="cell814">
  <circle cx="300.439" cy="228.744" r="7.62163" stroke-width="0.5" stroke="black" fill="red"/>
  <circle cx="300.439" cy="228.744" r="3.58258" stroke-width="0.5" stroke="red" fill="red"/>
   </g>
   <g id="cell819">
  <circle cx="367.893" cy="173.209" r="6.69498" stroke-width="0.5" stroke="black" fill="red"/>
   </g>
   <g id="cell827">
  <circle cx="202.226" cy="235.785" r="8.39234" stroke-width="0.5" stroke="black" fill="red"/>
  <circle cx="202.226" cy="235.785" r="5.01767" stroke-width="0.5" stroke="red" fill="red"/>
   </g>
   <g id="cell843">
  <circle cx="250.865" cy="285.643" r="5.96489" stroke-width="0.5" stroke="black" fill="red"/>
   </g>
   <g id="cell845">
  <circle cx="267.687" cy="129.311" r="8.38816" stroke-width="0.5" stroke="black" fill="red"/>
  <circle cx="267.687" cy="129.311" r="5.01068" stroke-width="0.5" stroke="red" fill="red"/>
   </g>
   <g id="cell850">
  <circle cx="250.208" cy="257.472" r="8.34058" stroke-width="0.5" stroke="black" fill="red"/>
  <circle cx="250.208" cy="257.472" r="4.93062" stroke-width="0.5" stroke="red" fill="red"/>
   </g>
   <g id="cell860">
  <circle cx="249.797" cy="240.437" r="5.87046" stroke-width="0.5" stroke="black" fill="red"/>
   </g>
   <g id="cell861">
  <circle cx="251.056" cy="55.7223" r="8.39151" stroke-width="0.5" stroke="black" fill="red"/>
  <circle cx="251.056" cy="55.7223" r="5.01628" stroke-width="0.5" stroke="red" fill="red"/>
   </g>
   <g id="cell864">
  <circle cx="316.49" cy="164.987" r="3.5732" stroke-width="0.5" stroke="black" fill="red"/>
   </g>
   <g id="cell867">
  <circle cx="285.291" cy="245.84" r="8.37502" stroke-width="0.5" stroke="black" fill="red"/>
  <circle cx="285.291" cy="245.84" r="4.98866" stroke-width="0.5" stroke="red" fill="red"/>
   </g>
   <g id="cell870">
  <circle cx="325.957" cy="117.688" r="8.32833" stroke-width="0.5" stroke="black" fill="red"/>
  <circle cx="325.957" cy="117.688" r="4.90986" stroke-width="0.5" stroke="red" fill="red"/>
   </g>
   <g id="cell872">
  <circle cx="318.748" cy="169.234" r="5.71642" stroke-width="0.5" stroke="black" fill="red"/>
   </g>
   <g id="cell873">
  <circle cx="353.965" cy="184.945" r="6.60203" stroke-width="0.5" stroke="black" fill="red"/>
   </g>
   <g id="cell882">
  <circle cx="293.507" cy="286.831" r="7.28759" stroke-width="0.5" stroke="black" fill="red"/>
  <circle cx="293.507" cy="286.831" r="2.8026" stroke-width="0.5" stroke="red" fill="red"/>
   </g>
   <g id="cell884">
  <circle cx="356.23" cy="171.067" r="6.48493" stroke-width="0.5" stroke="black" fill="red"/>
   </g>
   <g id="cell894">
  <circle cx="238.512" cy="152.258" r="7.32825" stroke-width="0.5" stroke="black" fill="red"/>
  <circle cx="238.512" cy="152.258" r="2.9067" stroke-width="0.5" stroke="red" fill="red"/>
   </g>
   <g id="cell899">
  <circle cx="202.549" cy="292.724" r="8.32828" stroke-width="0.5" stroke="black" fill="red"/>
  <circle cx="202.549" cy="292.724" r="4.90979" stroke-width="0.5" stroke="red" fill="red"/>
   </g>
   <g id="cell900">
  <circle cx="272.967" cy="293.951" r="7.57413" stroke-width="0.5" stroke="black" fill="red"/>
  <circle cx="272.967" cy="293.951" r="3.48039" stroke-width="0.5" stroke="red" fill="red"/>
   </g>
   <g id="cell923">
  <circle cx="260.661" cy="290.878" r="7.85792" stroke-width="0.5" stroke="black" fill="red"/>
  <circle cx="260.661" cy="290.878" r="4.06111" stroke-width="0.5" stroke="red" fill="red"/>
   </g>
   <g id="cell935">
  <circle cx="315.097" cy="267.27" r="8.16201" stroke-width="0.5" stroke="black" fill="red"/>
  <circle cx="315.097" cy="267.27" r="4.62213" stroke-width="0.5" stroke="red" fill="red"/>
   </g>
  </g>
 </g>
  <rect x="190" y="414" width="200" height="4" stroke-width="0.8" stroke="rgb(255,255,255)" fill="rgb(0,0,0)"/>
  <text x="192.5" y="411.5"
   font-family="Arial" font-size="10" fill="black" >
   200 &#956;m
  </text>
  <text x="10" y="418"
   font-family="Arial" font-size="7.5" fill="black" >
   0 days, 0 hours, 11 minutes, and 1.0846 seconds
  </text>
  <rect x="0" y="28" width="400" height="400" stroke-width="0.8" stroke="rgb(0,0,0)" fill="none"/>
</svg>
