<?xml version="1.0" encoding="UTF-8" standalone="no"?>
<!-- Created with PhysiCell (http://PhysiCell.MathCancer.org/) -->
<svg 
 xmlns:dc="http://purl.org/dc/elements/1.1/" 
 xmlns:cc="http://creativecommons.org/ns#" 
 xmlns:rdf="http://www.w3.org/1999/02/22-rdf-syntax-ns#" 
 xmlns:svg="http://www.w3.org/2000/svg" 
 xmlns="http://www.w3.org/2000/svg" 
 version="1.1" 
 width="400" 
 height="428" 
 id="svg2">
  <rect x="0" y="0" width="400" height="428" stroke-width="0.8" stroke="white" fill="white"/>
  <text x="5" y="12"
   font-family="Arial" font-size="10" fill="black" >
   Current time: 1 days, 3 hours, and 0.00 minutes, z = 0.00 &#956;m
  </text>
  <text x="5" y="23"
   font-family="Arial" font-size="9.5" fill="black" >
   978 agents
  </text>
 <g id="tissue" 
    transform="translate(0,428) scale(1,-1)">
  <g id="ECM">
  </g>
  <g id="cells">
   <g id="cell98">
  <circle cx="164.841" cy="152.877" r="5.35175" stroke-width="0.5" stroke="black" fill="grey"/>
   </g>
   <g id="cell101">
  <circle cx="64.1898" cy="234.705" r="7.38557" stroke-width="0.5" stroke="black" fill="grey"/>
  <circle cx="64.1898" cy="234.705" r="3.04833" stroke-width="0.5" stroke="grey" fill="grey"/>
   </g>
   <g id="cell105">
  <circle cx="108.658" cy="143.896" r="3.51164" stroke-width="0.5" stroke="black" fill="grey"/>
   </g>
   <g id="cell110">
  <circle cx="137.03" cy="265.451" r="8.21276" stroke-width="0.5" stroke="black" fill="grey"/>
  <circle cx="137.03" cy="265.451" r="4.71118" stroke-width="0.5" stroke="grey" fill="grey"/>
   </g>
   <g id="cell131">
  <circle cx="34.8403" cy="228.181" r="7.85493" stroke-width="0.5" stroke="black" fill="grey"/>
  <circle cx="34.8403" cy="228.181" r="4.05531" stroke-width="0.5" stroke="grey" fill="grey"/>
   </g>
   <g id="cell135">
  <circle cx="69.8545" cy="189.932" r="8.09752" stroke-width="0.5" stroke="black" fill="grey"/>
  <circle cx="69.8545" cy="189.932" r="4.50728" stroke-width="0.5" stroke="grey" fill="grey"/>
   </g>
   <g id="cell150">
  <circle cx="131.161" cy="204.86" r="8.27858" stroke-width="0.5" stroke="black" fill="grey"/>
  <circle cx="131.161" cy="204.86" r="4.82499" stroke-width="0.5" stroke="grey" fill="grey"/>
   </g>
   <g id="cell159">
  <circle cx="94.6931" cy="193.483" r="8.01452" stroke-width="0.5" stroke="black" fill="grey"/>
  <circle cx="94.6931" cy="193.483" r="4.35641" stroke-width="0.5" stroke="grey" fill="grey"/>
   </g>
   <g id="cell166">
  <circle cx="143.924" cy="109.022" r="7.80052" stroke-width="0.5" stroke="black" fill="grey"/>
  <circle cx="143.924" cy="109.022" r="3.9489" stroke-width="0.5" stroke="grey" fill="grey"/>
   </g>
   <g id="cell173">
  <circle cx="135.497" cy="103.42" r="3.75316" stroke-width="0.5" stroke="black" fill="grey"/>
   </g>
   <g id="cell177">
  <circle cx="216.864" cy="219.168" r="2.30371" stroke-width="0.5" stroke="black" fill="grey"/>
   </g>
   <g id="cell179">
  <circle cx="121.736" cy="263.643" r="7.32693" stroke-width="0.5" stroke="black" fill="grey"/>
  <circle cx="121.736" cy="263.643" r="2.90337" stroke-width="0.5" stroke="grey" fill="grey"/>
   </g>
   <g id="cell184">
  <circle cx="192.393" cy="219.638" r="7.1761" stroke-width="0.5" stroke="black" fill="grey"/>
  <circle cx="192.393" cy="219.638" r="2.49841" stroke-width="0.5" stroke="grey" fill="grey"/>
   </g>
   <g id="cell192">
  <circle cx="151.642" cy="237.552" r="7.51089" stroke-width="0.5" stroke="black" fill="grey"/>
  <circle cx="151.642" cy="237.552" r="3.34054" stroke-width="0.5" stroke="grey" fill="grey"/>
   </g>
   <g id="cell194">
  <circle cx="184.502" cy="186.325" r="8.39736" stroke-width="0.5" stroke="black" fill="grey"/>
  <circle cx="184.502" cy="186.325" r="5.02606" stroke-width="0.5" stroke="grey" fill="grey"/>
   </g>
   <g id="cell197">
  <circle cx="67.4423" cy="282.676" r="7.55893" stroke-width="0.5" stroke="black" fill="grey"/>
  <circle cx="67.4423" cy="282.676" r="3.44718" stroke-width="0.5" stroke="grey" fill="grey"/>
   </g>
   <g id="cell204">
  <circle cx="64.9549" cy="125.412" r="7.8092" stroke-width="0.5" stroke="black" fill="grey"/>
  <circle cx="64.9549" cy="125.412" r="3.96602" stroke-width="0.5" stroke="grey" fill="grey"/>
   </g>
   <g id="cell208">
  <circle cx="76.8967" cy="244.353" r="8.38846" stroke-width="0.5" stroke="black" fill="grey"/>
  <circle cx="76.8967" cy="244.353" r="5.01119" stroke-width="0.5" stroke="grey" fill="grey"/>
   </g>
   <g id="cell213">
  <circle cx="53.3945" cy="211.905" r="5.59218" stroke-width="0.5" stroke="black" fill="grey"/>
   </g>
   <g id="cell224">
  <circle cx="134.701" cy="230.863" r="7.12027" stroke-width="0.5" stroke="black" fill="grey"/>
  <circle cx="134.701" cy="230.863" r="2.33323" stroke-width="0.5" stroke="grey" fill="grey"/>
   </g>
   <g id="cell225">
  <circle cx="106.726" cy="246.774" r="4.81496" stroke-width="0.5" stroke="black" fill="grey"/>
   </g>
   <g id="cell227">
  <circle cx="93.6365" cy="294.41" r="7.26811" stroke-width="0.5" stroke="black" fill="grey"/>
  <circle cx="93.6365" cy="294.41" r="2.75157" stroke-width="0.5" stroke="grey" fill="grey"/>
   </g>
   <g id="cell230">
  <circle cx="111.213" cy="180.137" r="8.40214" stroke-width="0.5" stroke="black" fill="grey"/>
  <circle cx="111.213" cy="180.137" r="5.03405" stroke-width="0.5" stroke="grey" fill="grey"/>
   </g>
   <g id="cell232">
  <circle cx="143.68" cy="192.417" r="6.76533" stroke-width="0.5" stroke="black" fill="grey"/>
  <circle cx="143.68" cy="192.417" r="0.717866" stroke-width="0.5" stroke="grey" fill="grey"/>
   </g>
   <g id="cell235">
  <circle cx="172.795" cy="301.433" r="8.08951" stroke-width="0.5" stroke="black" fill="grey"/>
  <circle cx="172.795" cy="301.433" r="4.49287" stroke-width="0.5" stroke="grey" fill="grey"/>
   </g>
   <g id="cell238">
  <circle cx="193.448" cy="150.357" r="5.68869" stroke-width="0.5" stroke="black" fill="grey"/>
   </g>
   <g id="cell253">
  <circle cx="186.184" cy="121.409" r="8.37817" stroke-width="0.5" stroke="black" fill="grey"/>
  <circle cx="186.184" cy="121.409" r="4.99394" stroke-width="0.5" stroke="grey" fill="grey"/>
   </g>
   <g id="cell254">
  <circle cx="146.478" cy="174.031" r="5.34888" stroke-width="0.5" stroke="black" fill="grey"/>
   </g>
   <g id="cell268">
  <circle cx="33.1203" cy="197.353" r="8.4043" stroke-width="0.5" stroke="black" fill="grey"/>
  <circle cx="33.1203" cy="197.353" r="5.03765" stroke-width="0.5" stroke="grey" fill="grey"/>
   </g>
   <g id="cell275">
  <circle cx="49.5308" cy="225.243" r="8.40987" stroke-width="0.5" stroke="black" fill="grey"/>
  <circle cx="49.5308" cy="225.243" r="5.04695" stroke-width="0.5" stroke="grey" fill="grey"/>
   </g>
   <g id="cell284">
  <circle cx="86.0632" cy="269.91" r="7.98663" stroke-width="0.5" stroke="black" fill="grey"/>
  <circle cx="86.0632" cy="269.91" r="4.30487" stroke-width="0.5" stroke="grey" fill="grey"/>
   </g>
   <g id="cell287">
  <circle cx="65.6427" cy="151.824" r="7.03675" stroke-width="0.5" stroke="black" fill="grey"/>
  <circle cx="65.6427" cy="151.824" r="2.06435" stroke-width="0.5" stroke="grey" fill="grey"/>
   </g>
   <g id="cell291">
  <circle cx="117.303" cy="236.659" r="7.65431" stroke-width="0.5" stroke="black" fill="grey"/>
  <circle cx="117.303" cy="236.659" r="3.65159" stroke-width="0.5" stroke="grey" fill="grey"/>
   </g>
   <g id="cell304">
  <circle cx="159.838" cy="140.256" r="1.07167" stroke-width="0.5" stroke="black" fill="grey"/>
   </g>
   <g id="cell305">
  <circle cx="153.111" cy="167.348" r="2.60878" stroke-width="0.5" stroke="black" fill="grey"/>
   </g>
   <g id="cell316">
  <circle cx="154.638" cy="212.813" r="4.11021" stroke-width="0.5" stroke="black" fill="grey"/>
   </g>
   <g id="cell318">
  <circle cx="145.16" cy="295.064" r="8.35537" stroke-width="0.5" stroke="black" fill="grey"/>
  <circle cx="145.16" cy="295.064" r="4.9556" stroke-width="0.5" stroke="grey" fill="grey"/>
   </g>
   <g id="cell331">
  <circle cx="180.713" cy="233.627" r="8.41269" stroke-width="0.5" stroke="black" fill="grey"/>
  <circle cx="180.713" cy="233.627" r="5.05163" stroke-width="0.5" stroke="grey" fill="grey"/>
   </g>
   <g id="cell353">
  <circle cx="84.3225" cy="231.532" r="7.86665" stroke-width="0.5" stroke="black" fill="grey"/>
  <circle cx="84.3225" cy="231.532" r="4.07798" stroke-width="0.5" stroke="grey" fill="grey"/>
   </g>
   <g id="cell356">
  <circle cx="136.383" cy="141.273" r="8.14548" stroke-width="0.5" stroke="black" fill="grey"/>
  <circle cx="136.383" cy="141.273" r="4.59287" stroke-width="0.5" stroke="grey" fill="grey"/>
   </g>
   <g id="cell369">
  <circle cx="110.238" cy="265.293" r="5.74853" stroke-width="0.5" stroke="black" fill="grey"/>
   </g>
   <g id="cell464">
  <circle cx="106.112" cy="128.855" r="7.09721" stroke-width="0.5" stroke="black" fill="grey"/>
  <circle cx="106.112" cy="128.855" r="2.26189" stroke-width="0.5" stroke="grey" fill="grey"/>
   </g>
   <g id="cell536">
  <circle cx="238.908" cy="271.426" r="8.3477" stroke-width="0.5" stroke="black" fill="red"/>
  <circle cx="238.908" cy="271.426" r="4.94264" stroke-width="0.5" stroke="red" fill="red"/>
   </g>
   <g id="cell548">
  <circle cx="351.035" cy="224.753" r="6.93863" stroke-width="0.5" stroke="black" fill="red"/>
  <circle cx="351.035" cy="224.753" r="1.70008" stroke-width="0.5" stroke="red" fill="red"/>
   </g>
   <g id="cell579">
  <circle cx="276.183" cy="198.16" r="7.05038" stroke-width="0.5" stroke="black" fill="red"/>
  <circle cx="276.183" cy="198.16" r="2.11034" stroke-width="0.5" stroke="red" fill="red"/>
   </g>
   <g id="cell582">
  <circle cx="276.304" cy="270.825" r="4.37084" stroke-width="0.5" stroke="black" fill="red"/>
   </g>
   <g id="cell605">
  <circle cx="364.417" cy="217.38" r="3.10816" stroke-width="0.5" stroke="black" fill="red"/>
   </g>
   <g id="cell613">
  <circle cx="343.071" cy="200.486" r="6.83676" stroke-width="0.5" stroke="black" fill="red"/>
  <circle cx="343.071" cy="200.486" r="1.21942" stroke-width="0.5" stroke="red" fill="red"/>
   </g>
   <g id="cell615">
  <circle cx="331.765" cy="174.821" r="8.00981" stroke-width="0.5" stroke="black" fill="red"/>
  <circle cx="331.765" cy="174.821" r="4.34773" stroke-width="0.5" stroke="red" fill="red"/>
   </g>
   <g id="cell623">
  <circle cx="205.551" cy="133.514" r="5.18213" stroke-width="0.5" stroke="black" fill="red"/>
   </g>
   <g id="cell625">
  <circle cx="197.483" cy="174.558" r="4.47903" stroke-width="0.5" stroke="black" fill="red"/>
   </g>
   <g id="cell629">
  <circle cx="277.203" cy="146.438" r="7.77503" stroke-width="0.5" stroke="black" fill="red"/>
  <circle cx="277.203" cy="146.438" r="3.8983" stroke-width="0.5" stroke="red" fill="red"/>
   </g>
   <g id="cell633">
  <circle cx="248.892" cy="202.969" r="8.11797" stroke-width="0.5" stroke="black" fill="red"/>
  <circle cx="248.892" cy="202.969" r="4.5439" stroke-width="0.5" stroke="red" fill="red"/>
   </g>
   <g id="cell649">
  <circle cx="302.534" cy="189.66" r="8.20578" stroke-width="0.5" stroke="black" fill="red"/>
  <circle cx="302.534" cy="189.66" r="4.69899" stroke-width="0.5" stroke="red" fill="red"/>
   </g>
   <g id="cell652">
  <circle cx="232.599" cy="258.099" r="8.34592" stroke-width="0.5" stroke="black" fill="red"/>
  <circle cx="232.599" cy="258.099" r="4.93964" stroke-width="0.5" stroke="red" fill="red"/>
   </g>
   <g id="cell659">
  <circle cx="282.15" cy="230.478" r="7.99748" stroke-width="0.5" stroke="black" fill="red"/>
  <circle cx="282.15" cy="230.478" r="4.32496" stroke-width="0.5" stroke="red" fill="red"/>
   </g>
   <g id="cell675">
  <circle cx="357.222" cy="254.535" r="6.07181" stroke-width="0.5" stroke="black" fill="red"/>
   </g>
   <g id="cell677">
  <circle cx="339.785" cy="112.637" r="8.24122" stroke-width="0.5" stroke="black" fill="red"/>
  <circle cx="339.785" cy="112.637" r="4.76061" stroke-width="0.5" stroke="red" fill="red"/>
   </g>
   <g id="cell694">
  <circle cx="279.837" cy="169.399" r="8.16804" stroke-width="0.5" stroke="black" fill="red"/>
  <circle cx="279.837" cy="169.399" r="4.63277" stroke-width="0.5" stroke="red" fill="red"/>
   </g>
   <g id="cell702">
  <circle cx="249.336" cy="217.591" r="8.40163" stroke-width="0.5" stroke="black" fill="red"/>
  <circle cx="249.336" cy="217.591" r="5.03319" stroke-width="0.5" stroke="red" fill="red"/>
   </g>
   <g id="cell709">
  <circle cx="223.296" cy="129.882" r="7.97597" stroke-width="0.5" stroke="black" fill="red"/>
  <circle cx="223.296" cy="129.882" r="4.28507" stroke-width="0.5" stroke="red" fill="red"/>
   </g>
   <g id="cell716">
  <circle cx="259.648" cy="311.531" r="7.57829" stroke-width="0.5" stroke="black" fill="red"/>
  <circle cx="259.648" cy="311.531" r="3.48943" stroke-width="0.5" stroke="red" fill="red"/>
   </g>
   <g id="cell718">
  <circle cx="252.05" cy="161.39" r="8.34086" stroke-width="0.5" stroke="black" fill="red"/>
  <circle cx="252.05" cy="161.39" r="4.9311" stroke-width="0.5" stroke="red" fill="red"/>
   </g>
   <g id="cell734">
  <circle cx="315.993" cy="144.754" r="8.3203" stroke-width="0.5" stroke="black" fill="red"/>
  <circle cx="315.993" cy="144.754" r="4.89622" stroke-width="0.5" stroke="red" fill="red"/>
   </g>
   <g id="cell738">
  <circle cx="322.28" cy="192.423" r="8.20647" stroke-width="0.5" stroke="black" fill="red"/>
  <circle cx="322.28" cy="192.423" r="4.70019" stroke-width="0.5" stroke="red" fill="red"/>
   </g>
   <g id="cell741">
  <circle cx="295.762" cy="294.799" r="8.20272" stroke-width="0.5" stroke="black" fill="red"/>
  <circle cx="295.762" cy="294.799" r="4.69364" stroke-width="0.5" stroke="red" fill="red"/>
   </g>
   <g id="cell743">
  <circle cx="389.952" cy="169.899" r="3.73839" stroke-width="0.5" stroke="black" fill="red"/>
   </g>
   <g id="cell751">
  <circle cx="363.89" cy="188.646" r="5.03201" stroke-width="0.5" stroke="black" fill="red"/>
   </g>
   <g id="cell756">
  <circle cx="218.874" cy="173.136" r="5.28469" stroke-width="0.5" stroke="black" fill="red"/>
   </g>
   <g id="cell763">
  <circle cx="237.665" cy="208.644" r="6.94568" stroke-width="0.5" stroke="black" fill="red"/>
  <circle cx="237.665" cy="208.644" r="1.72864" stroke-width="0.5" stroke="red" fill="red"/>
   </g>
   <g id="cell773">
  <circle cx="238.552" cy="227.31" r="7.39083" stroke-width="0.5" stroke="black" fill="red"/>
  <circle cx="238.552" cy="227.31" r="3.06105" stroke-width="0.5" stroke="red" fill="red"/>
   </g>
   <g id="cell787">
  <circle cx="287.113" cy="156.91" r="7.99302" stroke-width="0.5" stroke="black" fill="red"/>
  <circle cx="287.113" cy="156.91" r="4.31673" stroke-width="0.5" stroke="red" fill="red"/>
   </g>
   <g id="cell794">
  <circle cx="254.254" cy="184.982" r="8.40975" stroke-width="0.5" stroke="black" fill="red"/>
  <circle cx="254.254" cy="184.982" r="5.04674" stroke-width="0.5" stroke="red" fill="red"/>
   </g>
   <g id="cell795">
  <circle cx="283.561" cy="215.302" r="7.03965" stroke-width="0.5" stroke="black" fill="red"/>
  <circle cx="283.561" cy="215.302" r="2.07421" stroke-width="0.5" stroke="red" fill="red"/>
   </g>
   <g id="cell810">
  <circle cx="329.902" cy="149.251" r="5.98809" stroke-width="0.5" stroke="black" fill="red"/>
   </g>
   <g id="cell814">
  <circle cx="297.456" cy="223.531" r="7.10848" stroke-width="0.5" stroke="black" fill="red"/>
  <circle cx="297.456" cy="223.531" r="2.29699" stroke-width="0.5" stroke="red" fill="red"/>
   </g>
   <g id="cell823">
  <circle cx="388.373" cy="228.014" r="5.06833" stroke-width="0.5" stroke="black" fill="red"/>
   </g>
   <g id="cell827">
  <circle cx="201.776" cy="208.312" r="8.11319" stroke-width="0.5" stroke="black" fill="red"/>
  <circle cx="201.776" cy="208.312" r="4.53536" stroke-width="0.5" stroke="red" fill="red"/>
   </g>
   <g id="cell831">
  <circle cx="212.792" cy="196.572" r="8.18318" stroke-width="0.5" stroke="black" fill="red"/>
  <circle cx="212.792" cy="196.572" r="4.65941" stroke-width="0.5" stroke="red" fill="red"/>
   </g>
   <g id="cell837">
  <circle cx="263.717" cy="150.93" r="8.13372" stroke-width="0.5" stroke="black" fill="red"/>
  <circle cx="263.717" cy="150.93" r="4.57199" stroke-width="0.5" stroke="red" fill="red"/>
   </g>
   <g id="cell847">
  <circle cx="232.395" cy="180.154" r="6.97086" stroke-width="0.5" stroke="black" fill="red"/>
  <circle cx="232.395" cy="180.154" r="1.82717" stroke-width="0.5" stroke="red" fill="red"/>
   </g>
   <g id="cell854">
  <circle cx="313.851" cy="117.825" r="5.12153" stroke-width="0.5" stroke="black" fill="red"/>
   </g>
   <g id="cell862">
  <circle cx="299.953" cy="116.867" r="5.53168" stroke-width="0.5" stroke="black" fill="red"/>
   </g>
   <g id="cell873">
  <circle cx="379.775" cy="200.246" r="5.41217" stroke-width="0.5" stroke="black" fill="red"/>
   </g>
   <g id="cell882">
  <circle cx="319.13" cy="263.323" r="7.50979" stroke-width="0.5" stroke="black" fill="red"/>
  <circle cx="319.13" cy="263.323" r="3.33805" stroke-width="0.5" stroke="red" fill="red"/>
   </g>
   <g id="cell884">
  <circle cx="345.356" cy="188.184" r="6.8102" stroke-width="0.5" stroke="black" fill="red"/>
  <circle cx="345.356" cy="188.184" r="1.06045" stroke-width="0.5" stroke="red" fill="red"/>
   </g>
   <g id="cell889">
  <circle cx="250.648" cy="142.142" r="5.05456" stroke-width="0.5" stroke="black" fill="red"/>
   </g>
   <g id="cell900">
  <circle cx="271.194" cy="293.029" r="8.39708" stroke-width="0.5" stroke="black" fill="red"/>
  <circle cx="271.194" cy="293.029" r="5.0256" stroke-width="0.5" stroke="red" fill="red"/>
   </g>
   <g id="cell911">
  <circle cx="280.02" cy="246.928" r="8.35526" stroke-width="0.5" stroke="black" fill="red"/>
  <circle cx="280.02" cy="246.928" r="4.9554" stroke-width="0.5" stroke="red" fill="red"/>
   </g>
   <g id="cell918">
  <circle cx="254.994" cy="129.249" r="8.37282" stroke-width="0.5" stroke="black" fill="red"/>
  <circle cx="254.994" cy="129.249" r="4.98496" stroke-width="0.5" stroke="red" fill="red"/>
   </g>
   <g id="cell939">
  <circle cx="361.476" cy="239.916" r="7.99408" stroke-width="0.5" stroke="black" fill="red"/>
  <circle cx="361.476" cy="239.916" r="4.31869" stroke-width="0.5" stroke="red" fill="red"/>
   </g>
  </g>
 </g>
  <rect x="190" y="414" width="200" height="4" stroke-width="0.8" stroke="rgb(255,255,255)" fill="rgb(0,0,0)"/>
  <text x="192.5" y="411.5"
   font-family="Arial" font-size="10" fill="black" >
   200 &#956;m
  </text>
  <text x="10" y="418"
   font-family="Arial" font-size="7.5" fill="black" >
   0 days, 0 hours, 8 minutes, and 55.9602 seconds
  </text>
  <rect x="0" y="28" width="400" height="400" stroke-width="0.8" stroke="rgb(0,0,0)" fill="none"/>
</svg>
