<?xml version="1.0" encoding="UTF-8" standalone="no"?>
<!-- Created with PhysiCell (http://PhysiCell.MathCancer.org/) -->
<svg 
 xmlns:dc="http://purl.org/dc/elements/1.1/" 
 xmlns:cc="http://creativecommons.org/ns#" 
 xmlns:rdf="http://www.w3.org/1999/02/22-rdf-syntax-ns#" 
 xmlns:svg="http://www.w3.org/2000/svg" 
 xmlns="http://www.w3.org/2000/svg" 
 version="1.1" 
 width="400" 
 height="428" 
 id="svg2">
  <rect x="0" y="0" width="400" height="428" stroke-width="0.8" stroke="white" fill="white"/>
  <text x="5" y="12"
   font-family="Arial" font-size="10" fill="black" >
   Current time: 4 days, 3 hours, and 0.00 minutes, z = 0.00 &#956;m
  </text>
  <text x="5" y="23"
   font-family="Arial" font-size="9.5" fill="black" >
   978 agents
  </text>
 <g id="tissue" 
    transform="translate(0,428) scale(1,-1)">
  <g id="ECM">
  </g>
  <g id="cells">
   <g id="cell1">
  <circle cx="41.7345" cy="234.113" r="6.8629" stroke-width="0.5" stroke="black" fill="grey"/>
  <circle cx="41.7345" cy="234.113" r="1.35833" stroke-width="0.5" stroke="grey" fill="grey"/>
   </g>
   <g id="cell4">
  <circle cx="117.837" cy="268.169" r="6.32178" stroke-width="0.5" stroke="black" fill="grey"/>
   </g>
   <g id="cell20">
  <circle cx="117.335" cy="299.022" r="2.61418" stroke-width="0.5" stroke="black" fill="grey"/>
   </g>
   <g id="cell36">
  <circle cx="19.5668" cy="215.046" r="5.08832" stroke-width="0.5" stroke="black" fill="grey"/>
   </g>
   <g id="cell37">
  <circle cx="194.726" cy="158.778" r="8.11172" stroke-width="0.5" stroke="black" fill="grey"/>
  <circle cx="194.726" cy="158.778" r="4.53273" stroke-width="0.5" stroke="grey" fill="grey"/>
   </g>
   <g id="cell40">
  <circle cx="158.781" cy="306.063" r="7.57495" stroke-width="0.5" stroke="black" fill="grey"/>
  <circle cx="158.781" cy="306.063" r="3.48217" stroke-width="0.5" stroke="grey" fill="grey"/>
   </g>
   <g id="cell98">
  <circle cx="260.52" cy="148.187" r="7.67667" stroke-width="0.5" stroke="black" fill="grey"/>
  <circle cx="260.52" cy="148.187" r="3.69823" stroke-width="0.5" stroke="grey" fill="grey"/>
   </g>
   <g id="cell124">
  <circle cx="173.736" cy="264.55" r="5.92738" stroke-width="0.5" stroke="black" fill="grey"/>
   </g>
   <g id="cell125">
  <circle cx="123.439" cy="64.2168" r="6.85395" stroke-width="0.5" stroke="black" fill="grey"/>
  <circle cx="123.439" cy="64.2168" r="1.31238" stroke-width="0.5" stroke="grey" fill="grey"/>
   </g>
   <g id="cell135">
  <circle cx="59.3746" cy="231.49" r="6.62921" stroke-width="0.5" stroke="black" fill="grey"/>
   </g>
   <g id="cell178">
  <circle cx="128.023" cy="110.73" r="8.40974" stroke-width="0.5" stroke="black" fill="grey"/>
  <circle cx="128.023" cy="110.73" r="5.04672" stroke-width="0.5" stroke="grey" fill="grey"/>
   </g>
   <g id="cell195">
  <circle cx="79.859" cy="132.782" r="4.71079" stroke-width="0.5" stroke="black" fill="grey"/>
   </g>
   <g id="cell203">
  <circle cx="55.7417" cy="305.303" r="8.17358" stroke-width="0.5" stroke="black" fill="grey"/>
  <circle cx="55.7417" cy="305.303" r="4.64254" stroke-width="0.5" stroke="grey" fill="grey"/>
   </g>
   <g id="cell216">
  <circle cx="138.936" cy="250.726" r="8.15976" stroke-width="0.5" stroke="black" fill="grey"/>
  <circle cx="138.936" cy="250.726" r="4.61815" stroke-width="0.5" stroke="grey" fill="grey"/>
   </g>
   <g id="cell297">
  <circle cx="144.01" cy="180.794" r="8.28367" stroke-width="0.5" stroke="black" fill="grey"/>
  <circle cx="144.01" cy="180.794" r="4.83372" stroke-width="0.5" stroke="grey" fill="grey"/>
   </g>
   <g id="cell309">
  <circle cx="180.841" cy="239.653" r="8.41271" stroke-width="0.5" stroke="black" fill="grey"/>
  <circle cx="180.841" cy="239.653" r="5.05167" stroke-width="0.5" stroke="grey" fill="grey"/>
   </g>
   <g id="cell312">
  <circle cx="214.971" cy="189.187" r="8.19344" stroke-width="0.5" stroke="black" fill="grey"/>
  <circle cx="214.971" cy="189.187" r="4.67741" stroke-width="0.5" stroke="grey" fill="grey"/>
   </g>
   <g id="cell339">
  <circle cx="115.348" cy="283.238" r="4.38107" stroke-width="0.5" stroke="black" fill="grey"/>
   </g>
   <g id="cell394">
  <circle cx="178.921" cy="300.568" r="7.54667" stroke-width="0.5" stroke="black" fill="grey"/>
  <circle cx="178.921" cy="300.568" r="3.42022" stroke-width="0.5" stroke="grey" fill="grey"/>
   </g>
   <g id="cell395">
  <circle cx="165.894" cy="201.9" r="1.56007" stroke-width="0.5" stroke="black" fill="grey"/>
   </g>
   <g id="cell396">
  <circle cx="257.993" cy="118.051" r="1.66269" stroke-width="0.5" stroke="black" fill="grey"/>
   </g>
   <g id="cell397">
  <circle cx="136.975" cy="289.813" r="8.04654" stroke-width="0.5" stroke="black" fill="grey"/>
  <circle cx="136.975" cy="289.813" r="4.41503" stroke-width="0.5" stroke="grey" fill="grey"/>
   </g>
   <g id="cell402">
  <circle cx="15.643" cy="279.13" r="6.56742" stroke-width="0.5" stroke="black" fill="grey"/>
   </g>
   <g id="cell413">
  <circle cx="83.2454" cy="76.4528" r="6.89922" stroke-width="0.5" stroke="black" fill="grey"/>
  <circle cx="83.2454" cy="76.4528" r="1.5313" stroke-width="0.5" stroke="grey" fill="grey"/>
   </g>
   <g id="cell537">
  <circle cx="344.32" cy="119.203" r="7.54883" stroke-width="0.5" stroke="black" fill="red"/>
  <circle cx="344.32" cy="119.203" r="3.42498" stroke-width="0.5" stroke="red" fill="red"/>
   </g>
   <g id="cell542">
  <circle cx="301.279" cy="314.422" r="5.75566" stroke-width="0.5" stroke="black" fill="red"/>
   </g>
   <g id="cell550">
  <circle cx="334.094" cy="152.84" r="3.93039" stroke-width="0.5" stroke="black" fill="red"/>
   </g>
   <g id="cell559">
  <circle cx="264.1" cy="242.571" r="8.12131" stroke-width="0.5" stroke="black" fill="red"/>
  <circle cx="264.1" cy="242.571" r="4.54988" stroke-width="0.5" stroke="red" fill="red"/>
   </g>
   <g id="cell569">
  <circle cx="225.504" cy="114.403" r="4.84522" stroke-width="0.5" stroke="black" fill="red"/>
   </g>
   <g id="cell605">
  <circle cx="356.014" cy="220.362" r="7.61896" stroke-width="0.5" stroke="black" fill="red"/>
  <circle cx="356.014" cy="220.362" r="3.5769" stroke-width="0.5" stroke="red" fill="red"/>
   </g>
   <g id="cell613">
  <circle cx="340.791" cy="221.616" r="8.12675" stroke-width="0.5" stroke="black" fill="red"/>
  <circle cx="340.791" cy="221.616" r="4.55957" stroke-width="0.5" stroke="red" fill="red"/>
   </g>
   <g id="cell615">
  <circle cx="369.806" cy="189.319" r="8.38697" stroke-width="0.5" stroke="black" fill="red"/>
  <circle cx="369.806" cy="189.319" r="5.00869" stroke-width="0.5" stroke="red" fill="red"/>
   </g>
   <g id="cell633">
  <circle cx="229.851" cy="290.726" r="6.81864" stroke-width="0.5" stroke="black" fill="red"/>
  <circle cx="229.851" cy="290.726" r="1.11335" stroke-width="0.5" stroke="red" fill="red"/>
   </g>
   <g id="cell636">
  <circle cx="292.869" cy="66.7138" r="8.3838" stroke-width="0.5" stroke="black" fill="red"/>
  <circle cx="292.869" cy="66.7138" r="5.00337" stroke-width="0.5" stroke="red" fill="red"/>
   </g>
   <g id="cell649">
  <circle cx="390.192" cy="177.054" r="7.96092" stroke-width="0.5" stroke="black" fill="red"/>
  <circle cx="390.192" cy="177.054" r="4.25699" stroke-width="0.5" stroke="red" fill="red"/>
   </g>
   <g id="cell657">
  <circle cx="336.195" cy="138.391" r="8.34468" stroke-width="0.5" stroke="black" fill="red"/>
  <circle cx="336.195" cy="138.391" r="4.93755" stroke-width="0.5" stroke="red" fill="red"/>
   </g>
   <g id="cell671">
  <circle cx="363.302" cy="243.903" r="2.24165" stroke-width="0.5" stroke="black" fill="red"/>
   </g>
   <g id="cell678">
  <circle cx="339.969" cy="189.321" r="7.55751" stroke-width="0.5" stroke="black" fill="red"/>
  <circle cx="339.969" cy="189.321" r="3.44408" stroke-width="0.5" stroke="red" fill="red"/>
   </g>
   <g id="cell752">
  <circle cx="290.558" cy="303.33" r="8.20028" stroke-width="0.5" stroke="black" fill="red"/>
  <circle cx="290.558" cy="303.33" r="4.68937" stroke-width="0.5" stroke="red" fill="red"/>
   </g>
   <g id="cell766">
  <circle cx="247.137" cy="300.123" r="8.37943" stroke-width="0.5" stroke="black" fill="red"/>
  <circle cx="247.137" cy="300.123" r="4.99605" stroke-width="0.5" stroke="red" fill="red"/>
   </g>
   <g id="cell769">
  <circle cx="346.576" cy="205.499" r="6.30157" stroke-width="0.5" stroke="black" fill="red"/>
   </g>
   <g id="cell783">
  <circle cx="313.572" cy="58.5648" r="6.7599" stroke-width="0.5" stroke="black" fill="red"/>
  <circle cx="313.572" cy="58.5648" r="0.664802" stroke-width="0.5" stroke="red" fill="red"/>
   </g>
   <g id="cell788">
  <circle cx="243.744" cy="158.929" r="7.57282" stroke-width="0.5" stroke="black" fill="red"/>
  <circle cx="243.744" cy="158.929" r="3.47754" stroke-width="0.5" stroke="red" fill="red"/>
   </g>
   <g id="cell812">
  <circle cx="309.905" cy="141.31" r="8.39257" stroke-width="0.5" stroke="black" fill="red"/>
  <circle cx="309.905" cy="141.31" r="5.01806" stroke-width="0.5" stroke="red" fill="red"/>
   </g>
   <g id="cell833">
  <circle cx="143.81" cy="227.544" r="7.79801" stroke-width="0.5" stroke="black" fill="red"/>
  <circle cx="143.81" cy="227.544" r="3.94393" stroke-width="0.5" stroke="red" fill="red"/>
   </g>
   <g id="cell834">
  <circle cx="181.19" cy="190.788" r="7.95963" stroke-width="0.5" stroke="black" fill="red"/>
  <circle cx="181.19" cy="190.788" r="4.25457" stroke-width="0.5" stroke="red" fill="red"/>
   </g>
   <g id="cell836">
  <circle cx="289.982" cy="44.7883" r="6.76707" stroke-width="0.5" stroke="black" fill="red"/>
  <circle cx="289.982" cy="44.7883" r="0.734087" stroke-width="0.5" stroke="red" fill="red"/>
   </g>
   <g id="cell854">
  <circle cx="244.492" cy="125.264" r="3.08891" stroke-width="0.5" stroke="black" fill="red"/>
   </g>
   <g id="cell867">
  <circle cx="274.064" cy="388.148" r="5.59353" stroke-width="0.5" stroke="black" fill="red"/>
   </g>
   <g id="cell894">
  <circle cx="195.087" cy="76.8988" r="4.66786" stroke-width="0.5" stroke="black" fill="red"/>
   </g>
   <g id="cell899">
  <circle cx="236.019" cy="311.342" r="8.3898" stroke-width="0.5" stroke="black" fill="red"/>
  <circle cx="236.019" cy="311.342" r="5.01343" stroke-width="0.5" stroke="red" fill="red"/>
   </g>
   <g id="cell900">
  <circle cx="323.986" cy="283.719" r="8.18524" stroke-width="0.5" stroke="black" fill="red"/>
  <circle cx="323.986" cy="283.719" r="4.66303" stroke-width="0.5" stroke="red" fill="red"/>
   </g>
   <g id="cell920">
  <circle cx="303.477" cy="194.772" r="7.14758" stroke-width="0.5" stroke="black" fill="red"/>
  <circle cx="303.477" cy="194.772" r="2.41527" stroke-width="0.5" stroke="red" fill="red"/>
   </g>
   <g id="cell925">
  <circle cx="379.341" cy="217.164" r="6.0501" stroke-width="0.5" stroke="black" fill="red"/>
   </g>
   <g id="cell952">
  <circle cx="224.418" cy="274.956" r="5.85541" stroke-width="0.5" stroke="black" fill="red"/>
   </g>
  </g>
 </g>
  <rect x="190" y="414" width="200" height="4" stroke-width="0.8" stroke="rgb(255,255,255)" fill="rgb(0,0,0)"/>
  <text x="192.5" y="411.5"
   font-family="Arial" font-size="10" fill="black" >
   200 &#956;m
  </text>
  <text x="10" y="418"
   font-family="Arial" font-size="7.5" fill="black" >
   0 days, 0 hours, 26 minutes, and 18.2480 seconds
  </text>
  <rect x="0" y="28" width="400" height="400" stroke-width="0.8" stroke="rgb(0,0,0)" fill="none"/>
</svg>
