<?xml version="1.0" encoding="UTF-8" standalone="no"?>
<!-- Created with PhysiCell (http://PhysiCell.MathCancer.org/) -->
<svg 
 xmlns:dc="http://purl.org/dc/elements/1.1/" 
 xmlns:cc="http://creativecommons.org/ns#" 
 xmlns:rdf="http://www.w3.org/1999/02/22-rdf-syntax-ns#" 
 xmlns:svg="http://www.w3.org/2000/svg" 
 xmlns="http://www.w3.org/2000/svg" 
 version="1.1" 
 width="400" 
 height="428" 
 id="svg2">
  <rect x="0" y="0" width="400" height="428" stroke-width="0.8" stroke="white" fill="white"/>
  <text x="5" y="12"
   font-family="Arial" font-size="10" fill="black" >
   Current time: 2 days, 4 hours, and 0.00 minutes, z = 0.00 &#956;m
  </text>
  <text x="5" y="23"
   font-family="Arial" font-size="9.5" fill="black" >
   978 agents
  </text>
 <g id="tissue" 
    transform="translate(0,428) scale(1,-1)">
  <g id="ECM">
  </g>
  <g id="cells">
   <g id="cell36">
  <circle cx="74.4382" cy="193.713" r="7.03554" stroke-width="0.5" stroke="black" fill="grey"/>
  <circle cx="74.4382" cy="193.713" r="2.06023" stroke-width="0.5" stroke="grey" fill="grey"/>
   </g>
   <g id="cell71">
  <circle cx="86.5441" cy="200.975" r="5.62121" stroke-width="0.5" stroke="black" fill="grey"/>
   </g>
   <g id="cell82">
  <circle cx="122.357" cy="217.779" r="7.43113" stroke-width="0.5" stroke="black" fill="grey"/>
  <circle cx="122.357" cy="217.779" r="3.1571" stroke-width="0.5" stroke="grey" fill="grey"/>
   </g>
   <g id="cell93">
  <circle cx="67.7257" cy="287.238" r="8.40533" stroke-width="0.5" stroke="black" fill="grey"/>
  <circle cx="67.7257" cy="287.238" r="5.03936" stroke-width="0.5" stroke="grey" fill="grey"/>
   </g>
   <g id="cell104">
  <circle cx="120.433" cy="120.796" r="8.15602" stroke-width="0.5" stroke="black" fill="grey"/>
  <circle cx="120.433" cy="120.796" r="4.61154" stroke-width="0.5" stroke="grey" fill="grey"/>
   </g>
   <g id="cell122">
  <circle cx="180.833" cy="150.973" r="6.62676" stroke-width="0.5" stroke="black" fill="grey"/>
   </g>
   <g id="cell164">
  <circle cx="134.712" cy="174.797" r="3.26626" stroke-width="0.5" stroke="black" fill="grey"/>
   </g>
   <g id="cell171">
  <circle cx="112.829" cy="339.713" r="6.57697" stroke-width="0.5" stroke="black" fill="grey"/>
   </g>
   <g id="cell172">
  <circle cx="138.993" cy="60.7133" r="7.66988" stroke-width="0.5" stroke="black" fill="grey"/>
  <circle cx="138.993" cy="60.7133" r="3.68411" stroke-width="0.5" stroke="grey" fill="grey"/>
   </g>
   <g id="cell173">
  <circle cx="123.927" cy="103.663" r="6.53895" stroke-width="0.5" stroke="black" fill="grey"/>
   </g>
   <g id="cell175">
  <circle cx="143.726" cy="154.937" r="6.1056" stroke-width="0.5" stroke="black" fill="grey"/>
   </g>
   <g id="cell182">
  <circle cx="173.767" cy="166.559" r="7.92717" stroke-width="0.5" stroke="black" fill="grey"/>
  <circle cx="173.767" cy="166.559" r="4.19354" stroke-width="0.5" stroke="grey" fill="grey"/>
   </g>
   <g id="cell190">
  <circle cx="199.674" cy="120.506" r="6.49541" stroke-width="0.5" stroke="black" fill="grey"/>
   </g>
   <g id="cell191">
  <circle cx="180.945" cy="241.433" r="8.37658" stroke-width="0.5" stroke="black" fill="grey"/>
  <circle cx="180.945" cy="241.433" r="4.99128" stroke-width="0.5" stroke="grey" fill="grey"/>
   </g>
   <g id="cell195">
  <circle cx="48.2792" cy="167.588" r="6.23441" stroke-width="0.5" stroke="black" fill="grey"/>
   </g>
   <g id="cell218">
  <circle cx="67.2891" cy="248.336" r="6.78143" stroke-width="0.5" stroke="black" fill="grey"/>
  <circle cx="67.2891" cy="248.336" r="0.856395" stroke-width="0.5" stroke="grey" fill="grey"/>
   </g>
   <g id="cell221">
  <circle cx="112.815" cy="130.558" r="6.333" stroke-width="0.5" stroke="black" fill="grey"/>
   </g>
   <g id="cell230">
  <circle cx="59.1623" cy="121.171" r="6.12191" stroke-width="0.5" stroke="black" fill="grey"/>
   </g>
   <g id="cell231">
  <circle cx="126.17" cy="195.909" r="6.13027" stroke-width="0.5" stroke="black" fill="grey"/>
   </g>
   <g id="cell245">
  <circle cx="189.803" cy="210.866" r="7.38599" stroke-width="0.5" stroke="black" fill="grey"/>
  <circle cx="189.803" cy="210.866" r="3.04936" stroke-width="0.5" stroke="grey" fill="grey"/>
   </g>
   <g id="cell251">
  <circle cx="91.1298" cy="292.602" r="8.22211" stroke-width="0.5" stroke="black" fill="grey"/>
  <circle cx="91.1298" cy="292.602" r="4.72745" stroke-width="0.5" stroke="grey" fill="grey"/>
   </g>
   <g id="cell255">
  <circle cx="160.332" cy="131.844" r="5.84334" stroke-width="0.5" stroke="black" fill="grey"/>
   </g>
   <g id="cell263">
  <circle cx="136.495" cy="291.054" r="5.03336" stroke-width="0.5" stroke="black" fill="grey"/>
   </g>
   <g id="cell264">
  <circle cx="175.378" cy="277.262" r="8.2542" stroke-width="0.5" stroke="black" fill="grey"/>
  <circle cx="175.378" cy="277.262" r="4.78304" stroke-width="0.5" stroke="grey" fill="grey"/>
   </g>
   <g id="cell275">
  <circle cx="26.2936" cy="217.192" r="3.3958" stroke-width="0.5" stroke="black" fill="grey"/>
   </g>
   <g id="cell292">
  <circle cx="81.2122" cy="244.324" r="6.4695" stroke-width="0.5" stroke="black" fill="grey"/>
   </g>
   <g id="cell329">
  <circle cx="150.033" cy="183.239" r="8.39495" stroke-width="0.5" stroke="black" fill="grey"/>
  <circle cx="150.033" cy="183.239" r="5.02204" stroke-width="0.5" stroke="grey" fill="grey"/>
   </g>
   <g id="cell346">
  <circle cx="77.6657" cy="271.208" r="7.53604" stroke-width="0.5" stroke="black" fill="grey"/>
  <circle cx="77.6657" cy="271.208" r="3.39671" stroke-width="0.5" stroke="grey" fill="grey"/>
   </g>
   <g id="cell394">
  <circle cx="206.216" cy="331.877" r="2.44916" stroke-width="0.5" stroke="black" fill="grey"/>
   </g>
   <g id="cell397">
  <circle cx="197.354" cy="250.952" r="8.29791" stroke-width="0.5" stroke="black" fill="grey"/>
  <circle cx="197.354" cy="250.952" r="4.85809" stroke-width="0.5" stroke="grey" fill="grey"/>
   </g>
   <g id="cell408">
  <circle cx="34.463" cy="158.237" r="8.29928" stroke-width="0.5" stroke="black" fill="grey"/>
  <circle cx="34.463" cy="158.237" r="4.86043" stroke-width="0.5" stroke="grey" fill="grey"/>
   </g>
   <g id="cell413">
  <circle cx="105.461" cy="95.0058" r="8.06854" stroke-width="0.5" stroke="black" fill="grey"/>
  <circle cx="105.461" cy="95.0058" r="4.45499" stroke-width="0.5" stroke="grey" fill="grey"/>
   </g>
   <g id="cell481">
  <circle cx="257.825" cy="206.406" r="7.34481" stroke-width="0.5" stroke="black" fill="grey"/>
  <circle cx="257.825" cy="206.406" r="2.9482" stroke-width="0.5" stroke="grey" fill="grey"/>
   </g>
   <g id="cell488">
  <circle cx="161.096" cy="321.853" r="8.09828" stroke-width="0.5" stroke="black" fill="grey"/>
  <circle cx="161.096" cy="321.853" r="4.50864" stroke-width="0.5" stroke="grey" fill="grey"/>
   </g>
   <g id="cell513">
  <circle cx="259.614" cy="222.208" r="3.74227" stroke-width="0.5" stroke="black" fill="red"/>
   </g>
   <g id="cell524">
  <circle cx="244.531" cy="139.325" r="7.41517" stroke-width="0.5" stroke="black" fill="red"/>
  <circle cx="244.531" cy="139.325" r="3.11936" stroke-width="0.5" stroke="red" fill="red"/>
   </g>
   <g id="cell539">
  <circle cx="285.967" cy="150.216" r="2.56228" stroke-width="0.5" stroke="black" fill="red"/>
   </g>
   <g id="cell566">
  <circle cx="213.955" cy="194.284" r="6.41505" stroke-width="0.5" stroke="black" fill="red"/>
   </g>
   <g id="cell589">
  <circle cx="324.681" cy="147.912" r="8.05331" stroke-width="0.5" stroke="black" fill="red"/>
  <circle cx="324.681" cy="147.912" r="4.42735" stroke-width="0.5" stroke="red" fill="red"/>
   </g>
   <g id="cell597">
  <circle cx="285.052" cy="263.914" r="8.03936" stroke-width="0.5" stroke="black" fill="red"/>
  <circle cx="285.052" cy="263.914" r="4.40193" stroke-width="0.5" stroke="red" fill="red"/>
   </g>
   <g id="cell605">
  <circle cx="337.207" cy="222.056" r="6.06991" stroke-width="0.5" stroke="black" fill="red"/>
   </g>
   <g id="cell625">
  <circle cx="238.582" cy="177.879" r="6.44166" stroke-width="0.5" stroke="black" fill="red"/>
   </g>
   <g id="cell626">
  <circle cx="222.888" cy="182.279" r="8.19765" stroke-width="0.5" stroke="black" fill="red"/>
  <circle cx="222.888" cy="182.279" r="4.68477" stroke-width="0.5" stroke="red" fill="red"/>
   </g>
   <g id="cell633">
  <circle cx="244.428" cy="265.938" r="8.30189" stroke-width="0.5" stroke="black" fill="red"/>
  <circle cx="244.428" cy="265.938" r="4.86488" stroke-width="0.5" stroke="red" fill="red"/>
   </g>
   <g id="cell636">
  <circle cx="255.612" cy="90.4492" r="6.43987" stroke-width="0.5" stroke="black" fill="red"/>
   </g>
   <g id="cell648">
  <circle cx="320.877" cy="228.673" r="4.17452" stroke-width="0.5" stroke="black" fill="red"/>
   </g>
   <g id="cell660">
  <circle cx="237.912" cy="325.993" r="3.5969" stroke-width="0.5" stroke="black" fill="red"/>
   </g>
   <g id="cell669">
  <circle cx="366.498" cy="126.728" r="8.40155" stroke-width="0.5" stroke="black" fill="red"/>
  <circle cx="366.498" cy="126.728" r="5.03307" stroke-width="0.5" stroke="red" fill="red"/>
   </g>
   <g id="cell677">
  <circle cx="345.976" cy="113.631" r="8.35286" stroke-width="0.5" stroke="black" fill="red"/>
  <circle cx="345.976" cy="113.631" r="4.95136" stroke-width="0.5" stroke="red" fill="red"/>
   </g>
   <g id="cell683">
  <circle cx="351.572" cy="165.233" r="8.24644" stroke-width="0.5" stroke="black" fill="red"/>
  <circle cx="351.572" cy="165.233" r="4.76964" stroke-width="0.5" stroke="red" fill="red"/>
   </g>
   <g id="cell685">
  <circle cx="222.934" cy="167.966" r="7.74818" stroke-width="0.5" stroke="black" fill="red"/>
  <circle cx="222.934" cy="167.966" r="3.84446" stroke-width="0.5" stroke="red" fill="red"/>
   </g>
   <g id="cell688">
  <circle cx="185.705" cy="194.943" r="6.11913" stroke-width="0.5" stroke="black" fill="red"/>
   </g>
   <g id="cell702">
  <circle cx="199.775" cy="194.173" r="7.1214" stroke-width="0.5" stroke="black" fill="red"/>
  <circle cx="199.775" cy="194.173" r="2.33667" stroke-width="0.5" stroke="red" fill="red"/>
   </g>
   <g id="cell706">
  <circle cx="167.326" cy="227.224" r="7.60305" stroke-width="0.5" stroke="black" fill="red"/>
  <circle cx="167.326" cy="227.224" r="3.5429" stroke-width="0.5" stroke="red" fill="red"/>
   </g>
   <g id="cell709">
  <circle cx="187.332" cy="106.585" r="7.97532" stroke-width="0.5" stroke="black" fill="red"/>
  <circle cx="187.332" cy="106.585" r="4.28385" stroke-width="0.5" stroke="red" fill="red"/>
   </g>
   <g id="cell710">
  <circle cx="249.716" cy="183.652" r="4.63663" stroke-width="0.5" stroke="black" fill="red"/>
   </g>
   <g id="cell726">
  <circle cx="285.003" cy="67.1994" r="6.23752" stroke-width="0.5" stroke="black" fill="red"/>
   </g>
   <g id="cell731">
  <circle cx="283.86" cy="288.129" r="5.41516" stroke-width="0.5" stroke="black" fill="red"/>
   </g>
   <g id="cell744">
  <circle cx="301.988" cy="160.914" r="7.67735" stroke-width="0.5" stroke="black" fill="red"/>
  <circle cx="301.988" cy="160.914" r="3.69965" stroke-width="0.5" stroke="red" fill="red"/>
   </g>
   <g id="cell746">
  <circle cx="304.66" cy="234.006" r="3.05175" stroke-width="0.5" stroke="black" fill="red"/>
   </g>
   <g id="cell766">
  <circle cx="270.525" cy="283.027" r="6.7122" stroke-width="0.5" stroke="black" fill="red"/>
   </g>
   <g id="cell769">
  <circle cx="275.829" cy="191.806" r="3.86876" stroke-width="0.5" stroke="black" fill="red"/>
   </g>
   <g id="cell776">
  <circle cx="161.415" cy="175.753" r="5.535" stroke-width="0.5" stroke="black" fill="red"/>
   </g>
   <g id="cell777">
  <circle cx="281.456" cy="235.54" r="5.63184" stroke-width="0.5" stroke="black" fill="red"/>
   </g>
   <g id="cell783">
  <circle cx="309.558" cy="84.4123" r="8.10646" stroke-width="0.5" stroke="black" fill="red"/>
  <circle cx="309.558" cy="84.4123" r="4.52332" stroke-width="0.5" stroke="red" fill="red"/>
   </g>
   <g id="cell786">
  <circle cx="235.789" cy="236.975" r="3.82358" stroke-width="0.5" stroke="black" fill="red"/>
   </g>
   <g id="cell787">
  <circle cx="261.649" cy="189.038" r="8.35564" stroke-width="0.5" stroke="black" fill="red"/>
  <circle cx="261.649" cy="189.038" r="4.95604" stroke-width="0.5" stroke="red" fill="red"/>
   </g>
   <g id="cell802">
  <circle cx="316.619" cy="128.716" r="5.70766" stroke-width="0.5" stroke="black" fill="red"/>
   </g>
   <g id="cell805">
  <circle cx="326.483" cy="309.403" r="8.24553" stroke-width="0.5" stroke="black" fill="red"/>
  <circle cx="326.483" cy="309.403" r="4.76807" stroke-width="0.5" stroke="red" fill="red"/>
   </g>
   <g id="cell812">
  <circle cx="375.909" cy="174.848" r="6.71477" stroke-width="0.5" stroke="black" fill="red"/>
   </g>
   <g id="cell829">
  <circle cx="145.582" cy="126.824" r="7.27099" stroke-width="0.5" stroke="black" fill="red"/>
  <circle cx="145.582" cy="126.824" r="2.75916" stroke-width="0.5" stroke="red" fill="red"/>
   </g>
   <g id="cell837">
  <circle cx="255.184" cy="163.53" r="5.41391" stroke-width="0.5" stroke="black" fill="red"/>
   </g>
   <g id="cell845">
  <circle cx="240.145" cy="124.595" r="8.02265" stroke-width="0.5" stroke="black" fill="red"/>
  <circle cx="240.145" cy="124.595" r="4.37135" stroke-width="0.5" stroke="red" fill="red"/>
   </g>
   <g id="cell855">
  <circle cx="275.972" cy="158.953" r="6.45629" stroke-width="0.5" stroke="black" fill="red"/>
   </g>
   <g id="cell872">
  <circle cx="332.455" cy="139.318" r="7.25905" stroke-width="0.5" stroke="black" fill="red"/>
  <circle cx="332.455" cy="139.318" r="2.72754" stroke-width="0.5" stroke="red" fill="red"/>
   </g>
   <g id="cell898">
  <circle cx="229.778" cy="156.138" r="4.36759" stroke-width="0.5" stroke="black" fill="red"/>
   </g>
   <g id="cell899">
  <circle cx="241.074" cy="289.828" r="8.02091" stroke-width="0.5" stroke="black" fill="red"/>
  <circle cx="241.074" cy="289.828" r="4.36815" stroke-width="0.5" stroke="red" fill="red"/>
   </g>
   <g id="cell909">
  <circle cx="215.473" cy="142.805" r="6.00117" stroke-width="0.5" stroke="black" fill="red"/>
   </g>
  </g>
 </g>
  <rect x="190" y="414" width="200" height="4" stroke-width="0.8" stroke="rgb(255,255,255)" fill="rgb(0,0,0)"/>
  <text x="192.5" y="411.5"
   font-family="Arial" font-size="10" fill="black" >
   200 &#956;m
  </text>
  <text x="10" y="418"
   font-family="Arial" font-size="7.5" fill="black" >
   0 days, 0 hours, 16 minutes, and 20.6413 seconds
  </text>
  <rect x="0" y="28" width="400" height="400" stroke-width="0.8" stroke="rgb(0,0,0)" fill="none"/>
</svg>
