<?xml version="1.0" encoding="UTF-8" standalone="no"?>
<!-- Created with PhysiCell (http://PhysiCell.MathCancer.org/) -->
<svg 
 xmlns:dc="http://purl.org/dc/elements/1.1/" 
 xmlns:cc="http://creativecommons.org/ns#" 
 xmlns:rdf="http://www.w3.org/1999/02/22-rdf-syntax-ns#" 
 xmlns:svg="http://www.w3.org/2000/svg" 
 xmlns="http://www.w3.org/2000/svg" 
 version="1.1" 
 width="400" 
 height="428" 
 id="svg2">
  <rect x="0" y="0" width="400" height="428" stroke-width="0.8" stroke="white" fill="white"/>
  <text x="5" y="12"
   font-family="Arial" font-size="10" fill="black" >
   Current time: 1 days, 4 hours, and 0.00 minutes, z = 0.00 &#956;m
  </text>
  <text x="5" y="23"
   font-family="Arial" font-size="9.5" fill="black" >
   978 agents
  </text>
 <g id="tissue" 
    transform="translate(0,428) scale(1,-1)">
  <g id="ECM">
  </g>
  <g id="cells">
   <g id="cell73">
  <circle cx="92.1165" cy="115.504" r="8.29142" stroke-width="0.5" stroke="black" fill="grey"/>
  <circle cx="92.1165" cy="115.504" r="4.847" stroke-width="0.5" stroke="grey" fill="grey"/>
   </g>
   <g id="cell101">
  <circle cx="60.4633" cy="231.384" r="8.41042" stroke-width="0.5" stroke="black" fill="grey"/>
  <circle cx="60.4633" cy="231.384" r="5.04785" stroke-width="0.5" stroke="grey" fill="grey"/>
   </g>
   <g id="cell104">
  <circle cx="127.535" cy="130.591" r="6.99524" stroke-width="0.5" stroke="black" fill="grey"/>
  <circle cx="127.535" cy="130.591" r="1.91809" stroke-width="0.5" stroke="grey" fill="grey"/>
   </g>
   <g id="cell105">
  <circle cx="101.628" cy="139.617" r="7.95366" stroke-width="0.5" stroke="black" fill="grey"/>
  <circle cx="101.628" cy="139.617" r="4.2434" stroke-width="0.5" stroke="grey" fill="grey"/>
   </g>
   <g id="cell110">
  <circle cx="141.344" cy="262.449" r="8.40955" stroke-width="0.5" stroke="black" fill="grey"/>
  <circle cx="141.344" cy="262.449" r="5.04641" stroke-width="0.5" stroke="grey" fill="grey"/>
   </g>
   <g id="cell131">
  <circle cx="32.6247" cy="223.809" r="6.48059" stroke-width="0.5" stroke="black" fill="grey"/>
   </g>
   <g id="cell135">
  <circle cx="75.4875" cy="185.391" r="4.88413" stroke-width="0.5" stroke="black" fill="grey"/>
   </g>
   <g id="cell143">
  <circle cx="83.6942" cy="205.44" r="8.40962" stroke-width="0.5" stroke="black" fill="grey"/>
  <circle cx="83.6942" cy="205.44" r="5.04653" stroke-width="0.5" stroke="grey" fill="grey"/>
   </g>
   <g id="cell150">
  <circle cx="126.529" cy="205.514" r="2.65894" stroke-width="0.5" stroke="black" fill="grey"/>
   </g>
   <g id="cell151">
  <circle cx="71.6702" cy="198.346" r="8.19381" stroke-width="0.5" stroke="black" fill="grey"/>
  <circle cx="71.6702" cy="198.346" r="4.67805" stroke-width="0.5" stroke="grey" fill="grey"/>
   </g>
   <g id="cell155">
  <circle cx="124.391" cy="118.73" r="5.91551" stroke-width="0.5" stroke="black" fill="grey"/>
   </g>
   <g id="cell159">
  <circle cx="92.1897" cy="196.206" r="7.97508" stroke-width="0.5" stroke="black" fill="grey"/>
  <circle cx="92.1897" cy="196.206" r="4.28341" stroke-width="0.5" stroke="grey" fill="grey"/>
   </g>
   <g id="cell166">
  <circle cx="146.426" cy="106.444" r="7.91429" stroke-width="0.5" stroke="black" fill="grey"/>
  <circle cx="146.426" cy="106.444" r="4.16913" stroke-width="0.5" stroke="grey" fill="grey"/>
   </g>
   <g id="cell175">
  <circle cx="154.277" cy="151.918" r="6.60641" stroke-width="0.5" stroke="black" fill="grey"/>
   </g>
   <g id="cell184">
  <circle cx="187.856" cy="223.834" r="8.37975" stroke-width="0.5" stroke="black" fill="grey"/>
  <circle cx="187.856" cy="223.834" r="4.99659" stroke-width="0.5" stroke="grey" fill="grey"/>
   </g>
   <g id="cell187">
  <circle cx="202.45" cy="260.794" r="6.48277" stroke-width="0.5" stroke="black" fill="grey"/>
   </g>
   <g id="cell192">
  <circle cx="156.208" cy="245.314" r="7.93222" stroke-width="0.5" stroke="black" fill="grey"/>
  <circle cx="156.208" cy="245.314" r="4.20308" stroke-width="0.5" stroke="grey" fill="grey"/>
   </g>
   <g id="cell194">
  <circle cx="188.298" cy="186.131" r="7.77893" stroke-width="0.5" stroke="black" fill="grey"/>
  <circle cx="188.298" cy="186.131" r="3.90608" stroke-width="0.5" stroke="grey" fill="grey"/>
   </g>
   <g id="cell197">
  <circle cx="71.4604" cy="277.976" r="7.45902" stroke-width="0.5" stroke="black" fill="grey"/>
  <circle cx="71.4604" cy="277.976" r="3.22221" stroke-width="0.5" stroke="grey" fill="grey"/>
   </g>
   <g id="cell204">
  <circle cx="69.7739" cy="124.77" r="2.7396" stroke-width="0.5" stroke="black" fill="grey"/>
   </g>
   <g id="cell208">
  <circle cx="77.953" cy="245.329" r="5.91981" stroke-width="0.5" stroke="black" fill="grey"/>
   </g>
   <g id="cell224">
  <circle cx="131.984" cy="230.276" r="8.41241" stroke-width="0.5" stroke="black" fill="grey"/>
  <circle cx="131.984" cy="230.276" r="5.05117" stroke-width="0.5" stroke="grey" fill="grey"/>
   </g>
   <g id="cell225">
  <circle cx="106.467" cy="248.956" r="8.41206" stroke-width="0.5" stroke="black" fill="grey"/>
  <circle cx="106.467" cy="248.956" r="5.05059" stroke-width="0.5" stroke="grey" fill="grey"/>
   </g>
   <g id="cell230">
  <circle cx="101.075" cy="174.115" r="5.46833" stroke-width="0.5" stroke="black" fill="grey"/>
   </g>
   <g id="cell241">
  <circle cx="148.06" cy="228.292" r="5.81546" stroke-width="0.5" stroke="black" fill="grey"/>
   </g>
   <g id="cell253">
  <circle cx="189.933" cy="127.712" r="8.34738" stroke-width="0.5" stroke="black" fill="grey"/>
  <circle cx="189.933" cy="127.712" r="4.94211" stroke-width="0.5" stroke="grey" fill="grey"/>
   </g>
   <g id="cell254">
  <circle cx="151.72" cy="176.161" r="6.91018" stroke-width="0.5" stroke="black" fill="grey"/>
  <circle cx="151.72" cy="176.161" r="1.57996" stroke-width="0.5" stroke="grey" fill="grey"/>
   </g>
   <g id="cell268">
  <circle cx="39.3146" cy="196.658" r="6.37786" stroke-width="0.5" stroke="black" fill="grey"/>
   </g>
   <g id="cell275">
  <circle cx="45.3709" cy="223.128" r="3.71069" stroke-width="0.5" stroke="black" fill="grey"/>
   </g>
   <g id="cell276">
  <circle cx="42.0551" cy="177.872" r="6.28054" stroke-width="0.5" stroke="black" fill="grey"/>
   </g>
   <g id="cell279">
  <circle cx="105.997" cy="179.359" r="5.29576" stroke-width="0.5" stroke="black" fill="grey"/>
   </g>
   <g id="cell284">
  <circle cx="87.2162" cy="266.124" r="6.57157" stroke-width="0.5" stroke="black" fill="grey"/>
   </g>
   <g id="cell298">
  <circle cx="128.228" cy="181.99" r="7.69371" stroke-width="0.5" stroke="black" fill="grey"/>
  <circle cx="128.228" cy="181.99" r="3.73347" stroke-width="0.5" stroke="grey" fill="grey"/>
   </g>
   <g id="cell300">
  <circle cx="102.92" cy="282.913" r="8.1916" stroke-width="0.5" stroke="black" fill="grey"/>
  <circle cx="102.92" cy="282.913" r="4.67418" stroke-width="0.5" stroke="grey" fill="grey"/>
   </g>
   <g id="cell305">
  <circle cx="149.351" cy="162.211" r="8.3869" stroke-width="0.5" stroke="black" fill="grey"/>
  <circle cx="149.351" cy="162.211" r="5.00857" stroke-width="0.5" stroke="grey" fill="grey"/>
   </g>
   <g id="cell309">
  <circle cx="176.529" cy="216.366" r="5.98035" stroke-width="0.5" stroke="black" fill="grey"/>
   </g>
   <g id="cell316">
  <circle cx="151.383" cy="214.649" r="3.56566" stroke-width="0.5" stroke="black" fill="grey"/>
   </g>
   <g id="cell318">
  <circle cx="146.974" cy="294.944" r="4.51943" stroke-width="0.5" stroke="black" fill="grey"/>
   </g>
   <g id="cell323">
  <circle cx="164.645" cy="208.981" r="0.249962" stroke-width="0.5" stroke="black" fill="grey"/>
   </g>
   <g id="cell347">
  <circle cx="80.5043" cy="82.6096" r="7.80255" stroke-width="0.5" stroke="black" fill="grey"/>
  <circle cx="80.5043" cy="82.6096" r="3.95291" stroke-width="0.5" stroke="grey" fill="grey"/>
   </g>
   <g id="cell352">
  <circle cx="92.3087" cy="225.372" r="5.60437" stroke-width="0.5" stroke="black" fill="grey"/>
   </g>
   <g id="cell353">
  <circle cx="82.5514" cy="228.465" r="5.27001" stroke-width="0.5" stroke="black" fill="grey"/>
   </g>
   <g id="cell356">
  <circle cx="141.3" cy="141.147" r="8.38077" stroke-width="0.5" stroke="black" fill="grey"/>
  <circle cx="141.3" cy="141.147" r="4.99831" stroke-width="0.5" stroke="grey" fill="grey"/>
   </g>
   <g id="cell369">
  <circle cx="102.31" cy="267.222" r="8.31057" stroke-width="0.5" stroke="black" fill="grey"/>
  <circle cx="102.31" cy="267.222" r="4.87968" stroke-width="0.5" stroke="grey" fill="grey"/>
   </g>
   <g id="cell386">
  <circle cx="145.047" cy="234.168" r="5.72428" stroke-width="0.5" stroke="black" fill="grey"/>
   </g>
   <g id="cell421">
  <circle cx="124.605" cy="144.453" r="7.94317" stroke-width="0.5" stroke="black" fill="grey"/>
  <circle cx="124.605" cy="144.453" r="4.2237" stroke-width="0.5" stroke="grey" fill="grey"/>
   </g>
   <g id="cell425">
  <circle cx="146.403" cy="248.742" r="2.59728" stroke-width="0.5" stroke="black" fill="grey"/>
   </g>
   <g id="cell435">
  <circle cx="161.636" cy="94.1888" r="5.63122" stroke-width="0.5" stroke="black" fill="grey"/>
   </g>
   <g id="cell464">
  <circle cx="110.744" cy="124.75" r="7.75834" stroke-width="0.5" stroke="black" fill="grey"/>
  <circle cx="110.744" cy="124.75" r="3.86491" stroke-width="0.5" stroke="grey" fill="grey"/>
   </g>
   <g id="cell536">
  <circle cx="230.873" cy="267.3" r="5.41985" stroke-width="0.5" stroke="black" fill="red"/>
   </g>
   <g id="cell548">
  <circle cx="347.404" cy="221.02" r="6.57218" stroke-width="0.5" stroke="black" fill="red"/>
   </g>
   <g id="cell582">
  <circle cx="271.25" cy="268.088" r="4.42749" stroke-width="0.5" stroke="black" fill="red"/>
   </g>
   <g id="cell597">
  <circle cx="283.107" cy="252.721" r="7.11475" stroke-width="0.5" stroke="black" fill="red"/>
  <circle cx="283.107" cy="252.721" r="2.31632" stroke-width="0.5" stroke="red" fill="red"/>
   </g>
   <g id="cell613">
  <circle cx="351.377" cy="204.245" r="5.26254" stroke-width="0.5" stroke="black" fill="red"/>
   </g>
   <g id="cell615">
  <circle cx="334.145" cy="168.23" r="8.35791" stroke-width="0.5" stroke="black" fill="red"/>
  <circle cx="334.145" cy="168.23" r="4.95987" stroke-width="0.5" stroke="red" fill="red"/>
   </g>
   <g id="cell619">
  <circle cx="185.029" cy="160.886" r="7.20079" stroke-width="0.5" stroke="black" fill="red"/>
  <circle cx="185.029" cy="160.886" r="2.56846" stroke-width="0.5" stroke="red" fill="red"/>
   </g>
   <g id="cell623">
  <circle cx="208.714" cy="137.346" r="5.55813" stroke-width="0.5" stroke="black" fill="red"/>
   </g>
   <g id="cell625">
  <circle cx="199.285" cy="177.071" r="7.11194" stroke-width="0.5" stroke="black" fill="red"/>
  <circle cx="199.285" cy="177.071" r="2.30769" stroke-width="0.5" stroke="red" fill="red"/>
   </g>
   <g id="cell626">
  <circle cx="207.081" cy="189.381" r="5.52233" stroke-width="0.5" stroke="black" fill="red"/>
   </g>
   <g id="cell646">
  <circle cx="304.206" cy="164.178" r="7.9834" stroke-width="0.5" stroke="black" fill="red"/>
  <circle cx="304.206" cy="164.178" r="4.29888" stroke-width="0.5" stroke="red" fill="red"/>
   </g>
   <g id="cell649">
  <circle cx="297.003" cy="185.812" r="5.97152" stroke-width="0.5" stroke="black" fill="red"/>
   </g>
   <g id="cell652">
  <circle cx="230.728" cy="253.897" r="4.68863" stroke-width="0.5" stroke="black" fill="red"/>
   </g>
   <g id="cell657">
  <circle cx="302.571" cy="199.073" r="8.41057" stroke-width="0.5" stroke="black" fill="red"/>
  <circle cx="302.571" cy="199.073" r="5.04811" stroke-width="0.5" stroke="red" fill="red"/>
   </g>
   <g id="cell659">
  <circle cx="280.701" cy="228.352" r="8.41271" stroke-width="0.5" stroke="black" fill="red"/>
  <circle cx="280.701" cy="228.352" r="5.05167" stroke-width="0.5" stroke="red" fill="red"/>
   </g>
   <g id="cell667">
  <circle cx="348.219" cy="275.534" r="7.04406" stroke-width="0.5" stroke="black" fill="red"/>
  <circle cx="348.219" cy="275.534" r="2.08911" stroke-width="0.5" stroke="red" fill="red"/>
   </g>
   <g id="cell668">
  <circle cx="320.722" cy="238.348" r="6.00131" stroke-width="0.5" stroke="black" fill="red"/>
   </g>
   <g id="cell669">
  <circle cx="364.081" cy="114.467" r="3.29945" stroke-width="0.5" stroke="black" fill="red"/>
   </g>
   <g id="cell675">
  <circle cx="357.76" cy="269.449" r="7.18086" stroke-width="0.5" stroke="black" fill="red"/>
  <circle cx="357.76" cy="269.449" r="2.51204" stroke-width="0.5" stroke="red" fill="red"/>
   </g>
   <g id="cell677">
  <circle cx="335.794" cy="94.3631" r="6.73721" stroke-width="0.5" stroke="black" fill="red"/>
  <circle cx="335.794" cy="94.3631" r="0.368424" stroke-width="0.5" stroke="red" fill="red"/>
   </g>
   <g id="cell692">
  <circle cx="171.364" cy="259.215" r="4.15009" stroke-width="0.5" stroke="black" fill="red"/>
   </g>
   <g id="cell694">
  <circle cx="274.914" cy="172.983" r="6.88498" stroke-width="0.5" stroke="black" fill="red"/>
  <circle cx="274.914" cy="172.983" r="1.46583" stroke-width="0.5" stroke="red" fill="red"/>
   </g>
   <g id="cell702">
  <circle cx="251.467" cy="223.276" r="7.39797" stroke-width="0.5" stroke="black" fill="red"/>
  <circle cx="251.467" cy="223.276" r="3.07826" stroke-width="0.5" stroke="red" fill="red"/>
   </g>
   <g id="cell709">
  <circle cx="209.599" cy="120.964" r="7.00539" stroke-width="0.5" stroke="black" fill="red"/>
  <circle cx="209.599" cy="120.964" r="1.9548" stroke-width="0.5" stroke="red" fill="red"/>
   </g>
   <g id="cell710">
  <circle cx="239.29" cy="161.497" r="7.1923" stroke-width="0.5" stroke="black" fill="red"/>
  <circle cx="239.29" cy="161.497" r="2.54456" stroke-width="0.5" stroke="red" fill="red"/>
   </g>
   <g id="cell716">
  <circle cx="268.178" cy="307.405" r="3.86343" stroke-width="0.5" stroke="black" fill="red"/>
   </g>
   <g id="cell724">
  <circle cx="235.776" cy="250.882" r="3.19425" stroke-width="0.5" stroke="black" fill="red"/>
   </g>
   <g id="cell729">
  <circle cx="264.664" cy="176.933" r="6.50009" stroke-width="0.5" stroke="black" fill="red"/>
   </g>
   <g id="cell731">
  <circle cx="294.311" cy="256.57" r="3.08783" stroke-width="0.5" stroke="black" fill="red"/>
   </g>
   <g id="cell734">
  <circle cx="316.384" cy="146.232" r="7.4388" stroke-width="0.5" stroke="black" fill="red"/>
  <circle cx="316.384" cy="146.232" r="3.17512" stroke-width="0.5" stroke="red" fill="red"/>
   </g>
   <g id="cell737">
  <circle cx="297.625" cy="232.554" r="6.50567" stroke-width="0.5" stroke="black" fill="red"/>
   </g>
   <g id="cell738">
  <circle cx="317.444" cy="191.617" r="6.71525" stroke-width="0.5" stroke="black" fill="red"/>
   </g>
   <g id="cell743">
  <circle cx="385.06" cy="169.476" r="4.19015" stroke-width="0.5" stroke="black" fill="red"/>
   </g>
   <g id="cell754">
  <circle cx="318.321" cy="301.034" r="7.42607" stroke-width="0.5" stroke="black" fill="red"/>
  <circle cx="318.321" cy="301.034" r="3.14518" stroke-width="0.5" stroke="red" fill="red"/>
   </g>
   <g id="cell756">
  <circle cx="221.2" cy="166.506" r="8.3785" stroke-width="0.5" stroke="black" fill="red"/>
  <circle cx="221.2" cy="166.506" r="4.99449" stroke-width="0.5" stroke="red" fill="red"/>
   </g>
   <g id="cell759">
  <circle cx="222.982" cy="240.127" r="2.90567" stroke-width="0.5" stroke="black" fill="red"/>
   </g>
   <g id="cell763">
  <circle cx="232.842" cy="219.415" r="2.23192" stroke-width="0.5" stroke="black" fill="red"/>
   </g>
   <g id="cell773">
  <circle cx="241.335" cy="232.199" r="5.94002" stroke-width="0.5" stroke="black" fill="red"/>
   </g>
   <g id="cell787">
  <circle cx="286.734" cy="151.504" r="8.40832" stroke-width="0.5" stroke="black" fill="red"/>
  <circle cx="286.734" cy="151.504" r="5.04436" stroke-width="0.5" stroke="red" fill="red"/>
   </g>
   <g id="cell795">
  <circle cx="286.789" cy="213.688" r="6.18579" stroke-width="0.5" stroke="black" fill="red"/>
   </g>
   <g id="cell797">
  <circle cx="325.618" cy="257.7" r="4.88854" stroke-width="0.5" stroke="black" fill="red"/>
   </g>
   <g id="cell810">
  <circle cx="331.323" cy="154.881" r="8.40853" stroke-width="0.5" stroke="black" fill="red"/>
  <circle cx="331.323" cy="154.881" r="5.04471" stroke-width="0.5" stroke="red" fill="red"/>
   </g>
   <g id="cell814">
  <circle cx="303.903" cy="218.819" r="8.37993" stroke-width="0.5" stroke="black" fill="red"/>
  <circle cx="303.903" cy="218.819" r="4.99688" stroke-width="0.5" stroke="red" fill="red"/>
   </g>
   <g id="cell823">
  <circle cx="387.755" cy="224.428" r="6.89958" stroke-width="0.5" stroke="black" fill="red"/>
  <circle cx="387.755" cy="224.428" r="1.53294" stroke-width="0.5" stroke="red" fill="red"/>
   </g>
   <g id="cell832">
  <circle cx="172.916" cy="192.619" r="1.30802" stroke-width="0.5" stroke="black" fill="red"/>
   </g>
   <g id="cell837">
  <circle cx="257.909" cy="154.639" r="6.63879" stroke-width="0.5" stroke="black" fill="red"/>
   </g>
   <g id="cell854">
  <circle cx="311.129" cy="125.968" r="1.87374" stroke-width="0.5" stroke="black" fill="red"/>
   </g>
   <g id="cell873">
  <circle cx="375.006" cy="201.324" r="5.2575" stroke-width="0.5" stroke="black" fill="red"/>
   </g>
   <g id="cell882">
  <circle cx="312.21" cy="269.89" r="4.21229" stroke-width="0.5" stroke="black" fill="red"/>
   </g>
   <g id="cell884">
  <circle cx="339.575" cy="186.444" r="8.41248" stroke-width="0.5" stroke="black" fill="red"/>
  <circle cx="339.575" cy="186.444" r="5.05129" stroke-width="0.5" stroke="red" fill="red"/>
   </g>
   <g id="cell894">
  <circle cx="247.858" cy="148.315" r="7.89825" stroke-width="0.5" stroke="black" fill="red"/>
  <circle cx="247.858" cy="148.315" r="4.13861" stroke-width="0.5" stroke="red" fill="red"/>
   </g>
   <g id="cell900">
  <circle cx="270.352" cy="290.924" r="1.55005" stroke-width="0.5" stroke="black" fill="red"/>
   </g>
   <g id="cell911">
  <circle cx="281.087" cy="241.477" r="6.44866" stroke-width="0.5" stroke="black" fill="red"/>
   </g>
   <g id="cell918">
  <circle cx="257.848" cy="119.094" r="8.39116" stroke-width="0.5" stroke="black" fill="red"/>
  <circle cx="257.848" cy="119.094" r="5.0157" stroke-width="0.5" stroke="red" fill="red"/>
   </g>
   <g id="cell939">
  <circle cx="369.413" cy="245.235" r="8.19989" stroke-width="0.5" stroke="black" fill="red"/>
  <circle cx="369.413" cy="245.235" r="4.68869" stroke-width="0.5" stroke="red" fill="red"/>
   </g>
  </g>
 </g>
  <rect x="190" y="414" width="200" height="4" stroke-width="0.8" stroke="rgb(255,255,255)" fill="rgb(0,0,0)"/>
  <text x="192.5" y="411.5"
   font-family="Arial" font-size="10" fill="black" >
   200 &#956;m
  </text>
  <text x="10" y="418"
   font-family="Arial" font-size="7.5" fill="black" >
   0 days, 0 hours, 9 minutes, and 7.8023 seconds
  </text>
  <rect x="0" y="28" width="400" height="400" stroke-width="0.8" stroke="rgb(0,0,0)" fill="none"/>
</svg>
