<?xml version="1.0" encoding="UTF-8" standalone="no"?>
<!-- Created with PhysiCell (http://PhysiCell.MathCancer.org/) -->
<svg 
 xmlns:dc="http://purl.org/dc/elements/1.1/" 
 xmlns:cc="http://creativecommons.org/ns#" 
 xmlns:rdf="http://www.w3.org/1999/02/22-rdf-syntax-ns#" 
 xmlns:svg="http://www.w3.org/2000/svg" 
 xmlns="http://www.w3.org/2000/svg" 
 version="1.1" 
 width="400" 
 height="428" 
 id="svg2">
  <rect x="0" y="0" width="400" height="428" stroke-width="0.8" stroke="white" fill="white"/>
  <text x="5" y="12"
   font-family="Arial" font-size="10" fill="black" >
   Current time: 4 days, 8 hours, and 0.00 minutes, z = 0.00 &#956;m
  </text>
  <text x="5" y="23"
   font-family="Arial" font-size="9.5" fill="black" >
   978 agents
  </text>
 <g id="tissue" 
    transform="translate(0,428) scale(1,-1)">
  <g id="ECM">
  </g>
  <g id="cells">
   <g id="cell7">
  <circle cx="47.8176" cy="159.015" r="7.18796" stroke-width="0.5" stroke="black" fill="grey"/>
  <circle cx="47.8176" cy="159.015" r="2.53228" stroke-width="0.5" stroke="grey" fill="grey"/>
   </g>
   <g id="cell37">
  <circle cx="188.754" cy="147.647" r="7.88128" stroke-width="0.5" stroke="black" fill="grey"/>
  <circle cx="188.754" cy="147.647" r="4.10612" stroke-width="0.5" stroke="grey" fill="grey"/>
   </g>
   <g id="cell59">
  <circle cx="45.2034" cy="188.9" r="5.72944" stroke-width="0.5" stroke="black" fill="grey"/>
   </g>
   <g id="cell81">
  <circle cx="88.0552" cy="35.522" r="7.37974" stroke-width="0.5" stroke="black" fill="grey"/>
  <circle cx="88.0552" cy="35.522" r="3.03418" stroke-width="0.5" stroke="grey" fill="grey"/>
   </g>
   <g id="cell87">
  <circle cx="25.2306" cy="206.634" r="8.08257" stroke-width="0.5" stroke="black" fill="grey"/>
  <circle cx="25.2306" cy="206.634" r="4.48037" stroke-width="0.5" stroke="grey" fill="grey"/>
   </g>
   <g id="cell105">
  <circle cx="96.691" cy="104.59" r="6.33974" stroke-width="0.5" stroke="black" fill="grey"/>
   </g>
   <g id="cell129">
  <circle cx="99.8496" cy="177.405" r="3.58336" stroke-width="0.5" stroke="black" fill="grey"/>
   </g>
   <g id="cell131">
  <circle cx="27.7074" cy="185.486" r="8.34812" stroke-width="0.5" stroke="black" fill="grey"/>
  <circle cx="27.7074" cy="185.486" r="4.94336" stroke-width="0.5" stroke="grey" fill="grey"/>
   </g>
   <g id="cell135">
  <circle cx="63.3408" cy="225.727" r="4.69054" stroke-width="0.5" stroke="black" fill="grey"/>
   </g>
   <g id="cell145">
  <circle cx="148.449" cy="206.234" r="8.32706" stroke-width="0.5" stroke="black" fill="grey"/>
  <circle cx="148.449" cy="206.234" r="4.9077" stroke-width="0.5" stroke="grey" fill="grey"/>
   </g>
   <g id="cell163">
  <circle cx="118.72" cy="326.718" r="2.95131" stroke-width="0.5" stroke="black" fill="grey"/>
   </g>
   <g id="cell165">
  <circle cx="168.582" cy="151.295" r="7.35734" stroke-width="0.5" stroke="black" fill="grey"/>
  <circle cx="168.582" cy="151.295" r="2.97928" stroke-width="0.5" stroke="grey" fill="grey"/>
   </g>
   <g id="cell178">
  <circle cx="125.271" cy="96.3353" r="8.36323" stroke-width="0.5" stroke="black" fill="grey"/>
  <circle cx="125.271" cy="96.3353" r="4.96884" stroke-width="0.5" stroke="grey" fill="grey"/>
   </g>
   <g id="cell204">
  <circle cx="53.8982" cy="124.967" r="8.39617" stroke-width="0.5" stroke="black" fill="grey"/>
  <circle cx="53.8982" cy="124.967" r="5.02408" stroke-width="0.5" stroke="grey" fill="grey"/>
   </g>
   <g id="cell216">
  <circle cx="113.956" cy="234.623" r="7.83408" stroke-width="0.5" stroke="black" fill="grey"/>
  <circle cx="113.956" cy="234.623" r="4.01479" stroke-width="0.5" stroke="grey" fill="grey"/>
   </g>
   <g id="cell241">
  <circle cx="213.143" cy="190.317" r="8.39522" stroke-width="0.5" stroke="black" fill="grey"/>
  <circle cx="213.143" cy="190.317" r="5.0225" stroke-width="0.5" stroke="grey" fill="grey"/>
   </g>
   <g id="cell250">
  <circle cx="158.505" cy="284.501" r="8.215" stroke-width="0.5" stroke="black" fill="grey"/>
  <circle cx="158.505" cy="284.501" r="4.71507" stroke-width="0.5" stroke="grey" fill="grey"/>
   </g>
   <g id="cell279">
  <circle cx="86.5638" cy="191.172" r="5.98995" stroke-width="0.5" stroke="black" fill="grey"/>
   </g>
   <g id="cell289">
  <circle cx="105.655" cy="164.585" r="5.82314" stroke-width="0.5" stroke="black" fill="grey"/>
   </g>
   <g id="cell292">
  <circle cx="69.2969" cy="197.764" r="7.04928" stroke-width="0.5" stroke="black" fill="grey"/>
  <circle cx="69.2969" cy="197.764" r="2.10665" stroke-width="0.5" stroke="grey" fill="grey"/>
   </g>
   <g id="cell306">
  <circle cx="247.038" cy="200.862" r="7.14482" stroke-width="0.5" stroke="black" fill="grey"/>
  <circle cx="247.038" cy="200.862" r="2.4071" stroke-width="0.5" stroke="grey" fill="grey"/>
   </g>
   <g id="cell314">
  <circle cx="179.345" cy="248.02" r="8.10436" stroke-width="0.5" stroke="black" fill="grey"/>
  <circle cx="179.345" cy="248.02" r="4.51956" stroke-width="0.5" stroke="grey" fill="grey"/>
   </g>
   <g id="cell339">
  <circle cx="114.096" cy="300.391" r="7.71592" stroke-width="0.5" stroke="black" fill="grey"/>
  <circle cx="114.096" cy="300.391" r="3.77903" stroke-width="0.5" stroke="grey" fill="grey"/>
   </g>
   <g id="cell347">
  <circle cx="142.692" cy="34.5" r="8.36007" stroke-width="0.5" stroke="black" fill="grey"/>
  <circle cx="142.692" cy="34.5" r="4.96351" stroke-width="0.5" stroke="grey" fill="grey"/>
   </g>
   <g id="cell381">
  <circle cx="101.926" cy="175.463" r="4.03114" stroke-width="0.5" stroke="black" fill="grey"/>
   </g>
   <g id="cell394">
  <circle cx="174.767" cy="305.634" r="7.26821" stroke-width="0.5" stroke="black" fill="grey"/>
  <circle cx="174.767" cy="305.634" r="2.75183" stroke-width="0.5" stroke="grey" fill="grey"/>
   </g>
   <g id="cell396">
  <circle cx="269.12" cy="131.658" r="8.41152" stroke-width="0.5" stroke="black" fill="grey"/>
  <circle cx="269.12" cy="131.658" r="5.04969" stroke-width="0.5" stroke="grey" fill="grey"/>
   </g>
   <g id="cell413">
  <circle cx="82.2702" cy="73.0986" r="8.41063" stroke-width="0.5" stroke="black" fill="grey"/>
  <circle cx="82.2702" cy="73.0986" r="5.0482" stroke-width="0.5" stroke="grey" fill="grey"/>
   </g>
   <g id="cell420">
  <circle cx="222.305" cy="89.4821" r="2.2482" stroke-width="0.5" stroke="black" fill="grey"/>
   </g>
   <g id="cell435">
  <circle cx="253.097" cy="70.5852" r="8.19121" stroke-width="0.5" stroke="black" fill="grey"/>
  <circle cx="253.097" cy="70.5852" r="4.67349" stroke-width="0.5" stroke="grey" fill="grey"/>
   </g>
   <g id="cell468">
  <circle cx="32.2288" cy="277.985" r="8.37368" stroke-width="0.5" stroke="black" fill="grey"/>
  <circle cx="32.2288" cy="277.985" r="4.9864" stroke-width="0.5" stroke="grey" fill="grey"/>
   </g>
   <g id="cell524">
  <circle cx="295.127" cy="136.612" r="8.41036" stroke-width="0.5" stroke="black" fill="red"/>
  <circle cx="295.127" cy="136.612" r="5.04775" stroke-width="0.5" stroke="red" fill="red"/>
   </g>
   <g id="cell537">
  <circle cx="339.68" cy="115.421" r="5.10003" stroke-width="0.5" stroke="black" fill="red"/>
   </g>
   <g id="cell633">
  <circle cx="218.738" cy="263.815" r="7.56963" stroke-width="0.5" stroke="black" fill="red"/>
  <circle cx="218.738" cy="263.815" r="3.47058" stroke-width="0.5" stroke="red" fill="red"/>
   </g>
   <g id="cell637">
  <circle cx="214.98" cy="151.209" r="7.8656" stroke-width="0.5" stroke="black" fill="red"/>
  <circle cx="214.98" cy="151.209" r="4.07595" stroke-width="0.5" stroke="red" fill="red"/>
   </g>
   <g id="cell649">
  <circle cx="374.725" cy="184.137" r="7.71636" stroke-width="0.5" stroke="black" fill="red"/>
  <circle cx="374.725" cy="184.137" r="3.77992" stroke-width="0.5" stroke="red" fill="red"/>
   </g>
   <g id="cell657">
  <circle cx="344.745" cy="133.967" r="8.40905" stroke-width="0.5" stroke="black" fill="red"/>
  <circle cx="344.745" cy="133.967" r="5.04558" stroke-width="0.5" stroke="red" fill="red"/>
   </g>
   <g id="cell677">
  <circle cx="314.459" cy="93.6617" r="3.25241" stroke-width="0.5" stroke="black" fill="red"/>
   </g>
   <g id="cell727">
  <circle cx="198.746" cy="223.467" r="7.79708" stroke-width="0.5" stroke="black" fill="red"/>
  <circle cx="198.746" cy="223.467" r="3.94209" stroke-width="0.5" stroke="red" fill="red"/>
   </g>
   <g id="cell742">
  <circle cx="307.459" cy="69.2563" r="3.71355" stroke-width="0.5" stroke="black" fill="red"/>
   </g>
   <g id="cell744">
  <circle cx="274.499" cy="162.302" r="2.54862" stroke-width="0.5" stroke="black" fill="red"/>
   </g>
   <g id="cell812">
  <circle cx="306.126" cy="147.856" r="8.04888" stroke-width="0.5" stroke="black" fill="red"/>
  <circle cx="306.126" cy="147.856" r="4.41929" stroke-width="0.5" stroke="red" fill="red"/>
   </g>
   <g id="cell834">
  <circle cx="190.305" cy="178.093" r="8.34928" stroke-width="0.5" stroke="black" fill="red"/>
  <circle cx="190.305" cy="178.093" r="4.94532" stroke-width="0.5" stroke="red" fill="red"/>
   </g>
   <g id="cell835">
  <circle cx="195.204" cy="243.236" r="8.35569" stroke-width="0.5" stroke="black" fill="red"/>
  <circle cx="195.204" cy="243.236" r="4.95614" stroke-width="0.5" stroke="red" fill="red"/>
   </g>
   <g id="cell836">
  <circle cx="304.282" cy="31.1054" r="6.89163" stroke-width="0.5" stroke="black" fill="red"/>
  <circle cx="304.282" cy="31.1054" r="1.49672" stroke-width="0.5" stroke="red" fill="red"/>
   </g>
   <g id="cell840">
  <circle cx="214.414" cy="112.581" r="6.27978" stroke-width="0.5" stroke="black" fill="red"/>
   </g>
   <g id="cell856">
  <circle cx="193.288" cy="162.257" r="8.35137" stroke-width="0.5" stroke="black" fill="red"/>
  <circle cx="193.288" cy="162.257" r="4.94884" stroke-width="0.5" stroke="red" fill="red"/>
   </g>
   <g id="cell886">
  <circle cx="346.617" cy="273.754" r="4.70091" stroke-width="0.5" stroke="black" fill="red"/>
   </g>
   <g id="cell894">
  <circle cx="195.784" cy="56.0935" r="8.38922" stroke-width="0.5" stroke="black" fill="red"/>
  <circle cx="195.784" cy="56.0935" r="5.01246" stroke-width="0.5" stroke="red" fill="red"/>
   </g>
   <g id="cell899">
  <circle cx="233.663" cy="300.461" r="5.03291" stroke-width="0.5" stroke="black" fill="red"/>
   </g>
   <g id="cell952">
  <circle cx="204.489" cy="285.846" r="8.40695" stroke-width="0.5" stroke="black" fill="red"/>
  <circle cx="204.489" cy="285.846" r="5.04207" stroke-width="0.5" stroke="red" fill="red"/>
   </g>
   <g id="cell974">
  <circle cx="270.378" cy="66.4231" r="8.40985" stroke-width="0.5" stroke="black" fill="red"/>
  <circle cx="270.378" cy="66.4231" r="5.04691" stroke-width="0.5" stroke="red" fill="red"/>
   </g>
  </g>
 </g>
  <rect x="190" y="414" width="200" height="4" stroke-width="0.8" stroke="rgb(255,255,255)" fill="rgb(0,0,0)"/>
  <text x="192.5" y="411.5"
   font-family="Arial" font-size="10" fill="black" >
   200 &#956;m
  </text>
  <text x="10" y="418"
   font-family="Arial" font-size="7.5" fill="black" >
   0 days, 0 hours, 27 minutes, and 18.4911 seconds
  </text>
  <rect x="0" y="28" width="400" height="400" stroke-width="0.8" stroke="rgb(0,0,0)" fill="none"/>
</svg>
