<?xml version="1.0" encoding="UTF-8" standalone="no"?>
<!-- Created with PhysiCell (http://PhysiCell.MathCancer.org/) -->
<svg 
 xmlns:dc="http://purl.org/dc/elements/1.1/" 
 xmlns:cc="http://creativecommons.org/ns#" 
 xmlns:rdf="http://www.w3.org/1999/02/22-rdf-syntax-ns#" 
 xmlns:svg="http://www.w3.org/2000/svg" 
 xmlns="http://www.w3.org/2000/svg" 
 version="1.1" 
 width="400" 
 height="428" 
 id="svg2">
  <rect x="0" y="0" width="400" height="428" stroke-width="0.8" stroke="white" fill="white"/>
  <text x="5" y="12"
   font-family="Arial" font-size="10" fill="black" >
   Current time: 3 days, 8 hours, and 0.00 minutes, z = 0.00 &#956;m
  </text>
  <text x="5" y="23"
   font-family="Arial" font-size="9.5" fill="black" >
   978 agents
  </text>
 <g id="tissue" 
    transform="translate(0,428) scale(1,-1)">
  <g id="ECM">
  </g>
  <g id="cells">
   <g id="cell4">
  <circle cx="116.187" cy="220.703" r="7.76022" stroke-width="0.5" stroke="black" fill="grey"/>
  <circle cx="116.187" cy="220.703" r="3.86869" stroke-width="0.5" stroke="grey" fill="grey"/>
   </g>
   <g id="cell35">
  <circle cx="202.889" cy="182.751" r="8.4121" stroke-width="0.5" stroke="black" fill="grey"/>
  <circle cx="202.889" cy="182.751" r="5.05065" stroke-width="0.5" stroke="grey" fill="grey"/>
   </g>
   <g id="cell54">
  <circle cx="219.231" cy="71.9744" r="6.28234" stroke-width="0.5" stroke="black" fill="grey"/>
   </g>
   <g id="cell58">
  <circle cx="196.779" cy="298.867" r="8.40849" stroke-width="0.5" stroke="black" fill="grey"/>
  <circle cx="196.779" cy="298.867" r="5.04464" stroke-width="0.5" stroke="grey" fill="grey"/>
   </g>
   <g id="cell71">
  <circle cx="89.3785" cy="205.297" r="6.89787" stroke-width="0.5" stroke="black" fill="grey"/>
  <circle cx="89.3785" cy="205.297" r="1.52524" stroke-width="0.5" stroke="grey" fill="grey"/>
   </g>
   <g id="cell81">
  <circle cx="124.72" cy="84.4795" r="8.18741" stroke-width="0.5" stroke="black" fill="grey"/>
  <circle cx="124.72" cy="84.4795" r="4.66684" stroke-width="0.5" stroke="grey" fill="grey"/>
   </g>
   <g id="cell93">
  <circle cx="19.9256" cy="298.592" r="1.76574" stroke-width="0.5" stroke="black" fill="grey"/>
   </g>
   <g id="cell159">
  <circle cx="70.0356" cy="244.79" r="8.13856" stroke-width="0.5" stroke="black" fill="grey"/>
  <circle cx="70.0356" cy="244.79" r="4.58059" stroke-width="0.5" stroke="grey" fill="grey"/>
   </g>
   <g id="cell166">
  <circle cx="148.115" cy="112.396" r="8.4095" stroke-width="0.5" stroke="black" fill="grey"/>
  <circle cx="148.115" cy="112.396" r="5.04633" stroke-width="0.5" stroke="grey" fill="grey"/>
   </g>
   <g id="cell174">
  <circle cx="141.806" cy="229.689" r="3.42358" stroke-width="0.5" stroke="black" fill="grey"/>
   </g>
   <g id="cell178">
  <circle cx="93.0767" cy="140.207" r="7.32449" stroke-width="0.5" stroke="black" fill="grey"/>
  <circle cx="93.0767" cy="140.207" r="2.89721" stroke-width="0.5" stroke="grey" fill="grey"/>
   </g>
   <g id="cell181">
  <circle cx="138.662" cy="94.532" r="8.011" stroke-width="0.5" stroke="black" fill="grey"/>
  <circle cx="138.662" cy="94.532" r="4.34992" stroke-width="0.5" stroke="grey" fill="grey"/>
   </g>
   <g id="cell195">
  <circle cx="82.0066" cy="149.32" r="7.96885" stroke-width="0.5" stroke="black" fill="grey"/>
  <circle cx="82.0066" cy="149.32" r="4.27181" stroke-width="0.5" stroke="grey" fill="grey"/>
   </g>
   <g id="cell199">
  <circle cx="63.1497" cy="176.127" r="7.67619" stroke-width="0.5" stroke="black" fill="grey"/>
  <circle cx="63.1497" cy="176.127" r="3.69724" stroke-width="0.5" stroke="grey" fill="grey"/>
   </g>
   <g id="cell203">
  <circle cx="37.9742" cy="296.419" r="3.89528" stroke-width="0.5" stroke="black" fill="grey"/>
   </g>
   <g id="cell205">
  <circle cx="15.9243" cy="159.682" r="7.74784" stroke-width="0.5" stroke="black" fill="grey"/>
  <circle cx="15.9243" cy="159.682" r="3.84379" stroke-width="0.5" stroke="grey" fill="grey"/>
   </g>
   <g id="cell226">
  <circle cx="93.6684" cy="294.379" r="8.21878" stroke-width="0.5" stroke="black" fill="grey"/>
  <circle cx="93.6684" cy="294.379" r="4.72166" stroke-width="0.5" stroke="grey" fill="grey"/>
   </g>
   <g id="cell231">
  <circle cx="161.611" cy="214.637" r="8.4095" stroke-width="0.5" stroke="black" fill="grey"/>
  <circle cx="161.611" cy="214.637" r="5.04633" stroke-width="0.5" stroke="grey" fill="grey"/>
   </g>
   <g id="cell232">
  <circle cx="97.4881" cy="189.9" r="6.09821" stroke-width="0.5" stroke="black" fill="grey"/>
   </g>
   <g id="cell251">
  <circle cx="51.77" cy="322.235" r="6.68246" stroke-width="0.5" stroke="black" fill="grey"/>
   </g>
   <g id="cell262">
  <circle cx="239.82" cy="161.118" r="6.16983" stroke-width="0.5" stroke="black" fill="grey"/>
   </g>
   <g id="cell264">
  <circle cx="207.389" cy="239.603" r="7.84591" stroke-width="0.5" stroke="black" fill="grey"/>
  <circle cx="207.389" cy="239.603" r="4.03782" stroke-width="0.5" stroke="grey" fill="grey"/>
   </g>
   <g id="cell271">
  <circle cx="10.8644" cy="256.521" r="6.30778" stroke-width="0.5" stroke="black" fill="grey"/>
   </g>
   <g id="cell275">
  <circle cx="27.2519" cy="190.997" r="8.12393" stroke-width="0.5" stroke="black" fill="grey"/>
  <circle cx="27.2519" cy="190.997" r="4.55455" stroke-width="0.5" stroke="grey" fill="grey"/>
   </g>
   <g id="cell286">
  <circle cx="129.506" cy="160.351" r="5.2763" stroke-width="0.5" stroke="black" fill="grey"/>
   </g>
   <g id="cell288">
  <circle cx="97.7771" cy="115.59" r="6.61393" stroke-width="0.5" stroke="black" fill="grey"/>
   </g>
   <g id="cell289">
  <circle cx="103.881" cy="212.373" r="7.49484" stroke-width="0.5" stroke="black" fill="grey"/>
  <circle cx="103.881" cy="212.373" r="3.30428" stroke-width="0.5" stroke="grey" fill="grey"/>
   </g>
   <g id="cell300">
  <circle cx="149.505" cy="272.761" r="8.36184" stroke-width="0.5" stroke="black" fill="grey"/>
  <circle cx="149.505" cy="272.761" r="4.96649" stroke-width="0.5" stroke="grey" fill="grey"/>
   </g>
   <g id="cell306">
  <circle cx="275.661" cy="217.677" r="5.83225" stroke-width="0.5" stroke="black" fill="grey"/>
   </g>
   <g id="cell310">
  <circle cx="173.227" cy="343.405" r="8.41235" stroke-width="0.5" stroke="black" fill="grey"/>
  <circle cx="173.227" cy="343.405" r="5.05106" stroke-width="0.5" stroke="grey" fill="grey"/>
   </g>
   <g id="cell317">
  <circle cx="116.037" cy="381.137" r="7.9037" stroke-width="0.5" stroke="black" fill="grey"/>
  <circle cx="116.037" cy="381.137" r="4.14899" stroke-width="0.5" stroke="grey" fill="grey"/>
   </g>
   <g id="cell328">
  <circle cx="166.818" cy="145.822" r="7.80025" stroke-width="0.5" stroke="black" fill="grey"/>
  <circle cx="166.818" cy="145.822" r="3.94837" stroke-width="0.5" stroke="grey" fill="grey"/>
   </g>
   <g id="cell339">
  <circle cx="107.898" cy="275.949" r="7.4018" stroke-width="0.5" stroke="black" fill="grey"/>
  <circle cx="107.898" cy="275.949" r="3.08745" stroke-width="0.5" stroke="grey" fill="grey"/>
   </g>
   <g id="cell382">
  <circle cx="129.821" cy="192.899" r="6.48967" stroke-width="0.5" stroke="black" fill="grey"/>
   </g>
   <g id="cell402">
  <circle cx="26.8403" cy="248.577" r="8.22145" stroke-width="0.5" stroke="black" fill="grey"/>
  <circle cx="26.8403" cy="248.577" r="4.7263" stroke-width="0.5" stroke="grey" fill="grey"/>
   </g>
   <g id="cell423">
  <circle cx="48.5751" cy="192.028" r="4.83566" stroke-width="0.5" stroke="black" fill="grey"/>
   </g>
   <g id="cell445">
  <circle cx="94.4956" cy="165.418" r="5.57469" stroke-width="0.5" stroke="black" fill="grey"/>
   </g>
   <g id="cell455">
  <circle cx="107.55" cy="167.971" r="7.57058" stroke-width="0.5" stroke="black" fill="grey"/>
  <circle cx="107.55" cy="167.971" r="3.47266" stroke-width="0.5" stroke="grey" fill="grey"/>
   </g>
   <g id="cell479">
  <circle cx="222.683" cy="208.766" r="6.81908" stroke-width="0.5" stroke="black" fill="grey"/>
  <circle cx="222.683" cy="208.766" r="1.11606" stroke-width="0.5" stroke="grey" fill="grey"/>
   </g>
   <g id="cell511">
  <circle cx="259.416" cy="171.495" r="1.08049" stroke-width="0.5" stroke="black" fill="red"/>
   </g>
   <g id="cell542">
  <circle cx="305.1" cy="314.78" r="8.35536" stroke-width="0.5" stroke="black" fill="red"/>
  <circle cx="305.1" cy="314.78" r="4.95558" stroke-width="0.5" stroke="red" fill="red"/>
   </g>
   <g id="cell550">
  <circle cx="361.112" cy="182.183" r="2.49552" stroke-width="0.5" stroke="black" fill="red"/>
   </g>
   <g id="cell558">
  <circle cx="278.625" cy="253.881" r="8.41124" stroke-width="0.5" stroke="black" fill="red"/>
  <circle cx="278.625" cy="253.881" r="5.04922" stroke-width="0.5" stroke="red" fill="red"/>
   </g>
   <g id="cell562">
  <circle cx="177.487" cy="259.504" r="7.84758" stroke-width="0.5" stroke="black" fill="red"/>
  <circle cx="177.487" cy="259.504" r="4.04107" stroke-width="0.5" stroke="red" fill="red"/>
   </g>
   <g id="cell566">
  <circle cx="187.778" cy="211.876" r="8.30009" stroke-width="0.5" stroke="black" fill="red"/>
  <circle cx="187.778" cy="211.876" r="4.86181" stroke-width="0.5" stroke="red" fill="red"/>
   </g>
   <g id="cell569">
  <circle cx="241.103" cy="130.18" r="8.36394" stroke-width="0.5" stroke="black" fill="red"/>
  <circle cx="241.103" cy="130.18" r="4.97002" stroke-width="0.5" stroke="red" fill="red"/>
   </g>
   <g id="cell605">
  <circle cx="350.857" cy="219.201" r="7.1346" stroke-width="0.5" stroke="black" fill="red"/>
  <circle cx="350.857" cy="219.201" r="2.37661" stroke-width="0.5" stroke="red" fill="red"/>
   </g>
   <g id="cell616">
  <circle cx="321.886" cy="240.155" r="4.98529" stroke-width="0.5" stroke="black" fill="red"/>
   </g>
   <g id="cell633">
  <circle cx="255.59" cy="279.24" r="2.93953" stroke-width="0.5" stroke="black" fill="red"/>
   </g>
   <g id="cell635">
  <circle cx="249.246" cy="315.909" r="7.61538" stroke-width="0.5" stroke="black" fill="red"/>
  <circle cx="249.246" cy="315.909" r="3.56926" stroke-width="0.5" stroke="red" fill="red"/>
   </g>
   <g id="cell636">
  <circle cx="286.836" cy="60.5762" r="8.27258" stroke-width="0.5" stroke="black" fill="red"/>
  <circle cx="286.836" cy="60.5762" r="4.8147" stroke-width="0.5" stroke="red" fill="red"/>
   </g>
   <g id="cell644">
  <circle cx="219.954" cy="108.196" r="8.39008" stroke-width="0.5" stroke="black" fill="red"/>
  <circle cx="219.954" cy="108.196" r="5.0139" stroke-width="0.5" stroke="red" fill="red"/>
   </g>
   <g id="cell652">
  <circle cx="215.258" cy="286.497" r="3.97013" stroke-width="0.5" stroke="black" fill="red"/>
   </g>
   <g id="cell657">
  <circle cx="317.193" cy="134.079" r="7.43585" stroke-width="0.5" stroke="black" fill="red"/>
  <circle cx="317.193" cy="134.079" r="3.16821" stroke-width="0.5" stroke="red" fill="red"/>
   </g>
   <g id="cell678">
  <circle cx="311.066" cy="148.988" r="7.93704" stroke-width="0.5" stroke="black" fill="red"/>
  <circle cx="311.066" cy="148.988" r="4.21216" stroke-width="0.5" stroke="red" fill="red"/>
   </g>
   <g id="cell686">
  <circle cx="211.632" cy="196.707" r="7.69728" stroke-width="0.5" stroke="black" fill="red"/>
  <circle cx="211.632" cy="196.707" r="3.74082" stroke-width="0.5" stroke="red" fill="red"/>
   </g>
   <g id="cell687">
  <circle cx="235.782" cy="91.2932" r="7.95751" stroke-width="0.5" stroke="black" fill="red"/>
  <circle cx="235.782" cy="91.2932" r="4.2506" stroke-width="0.5" stroke="red" fill="red"/>
   </g>
   <g id="cell688">
  <circle cx="214.271" cy="226.959" r="6.09701" stroke-width="0.5" stroke="black" fill="red"/>
   </g>
   <g id="cell702">
  <circle cx="142.254" cy="204.756" r="2.13667" stroke-width="0.5" stroke="black" fill="red"/>
   </g>
   <g id="cell710">
  <circle cx="238.786" cy="209.043" r="7.33818" stroke-width="0.5" stroke="black" fill="red"/>
  <circle cx="238.786" cy="209.043" r="2.93165" stroke-width="0.5" stroke="red" fill="red"/>
   </g>
   <g id="cell725">
  <circle cx="305.14" cy="85.9096" r="8.22679" stroke-width="0.5" stroke="black" fill="red"/>
  <circle cx="305.14" cy="85.9096" r="4.73559" stroke-width="0.5" stroke="red" fill="red"/>
   </g>
   <g id="cell728">
  <circle cx="292.702" cy="94.4163" r="7.96503" stroke-width="0.5" stroke="black" fill="red"/>
  <circle cx="292.702" cy="94.4163" r="4.26466" stroke-width="0.5" stroke="red" fill="red"/>
   </g>
   <g id="cell742">
  <circle cx="311.928" cy="90.9781" r="1.65195" stroke-width="0.5" stroke="black" fill="red"/>
   </g>
   <g id="cell743">
  <circle cx="368.81" cy="175.315" r="7.34089" stroke-width="0.5" stroke="black" fill="red"/>
  <circle cx="368.81" cy="175.315" r="2.93842" stroke-width="0.5" stroke="red" fill="red"/>
   </g>
   <g id="cell750">
  <circle cx="340.116" cy="83.4762" r="8.33019" stroke-width="0.5" stroke="black" fill="red"/>
  <circle cx="340.116" cy="83.4762" r="4.91302" stroke-width="0.5" stroke="red" fill="red"/>
   </g>
   <g id="cell771">
  <circle cx="188.276" cy="165.032" r="7.56076" stroke-width="0.5" stroke="black" fill="red"/>
  <circle cx="188.276" cy="165.032" r="3.45119" stroke-width="0.5" stroke="red" fill="red"/>
   </g>
   <g id="cell780">
  <circle cx="279.126" cy="232.742" r="6.82347" stroke-width="0.5" stroke="black" fill="red"/>
  <circle cx="279.126" cy="232.742" r="1.14255" stroke-width="0.5" stroke="red" fill="red"/>
   </g>
   <g id="cell783">
  <circle cx="330.902" cy="58.3222" r="8.34805" stroke-width="0.5" stroke="black" fill="red"/>
  <circle cx="330.902" cy="58.3222" r="4.94324" stroke-width="0.5" stroke="red" fill="red"/>
   </g>
   <g id="cell788">
  <circle cx="245.861" cy="145.089" r="5.69697" stroke-width="0.5" stroke="black" fill="red"/>
   </g>
   <g id="cell817">
  <circle cx="332.47" cy="136.433" r="7.07748" stroke-width="0.5" stroke="black" fill="red"/>
  <circle cx="332.47" cy="136.433" r="2.19919" stroke-width="0.5" stroke="red" fill="red"/>
   </g>
   <g id="cell819">
  <circle cx="340.246" cy="206.689" r="5.93672" stroke-width="0.5" stroke="black" fill="red"/>
   </g>
   <g id="cell831">
  <circle cx="181.26" cy="175.884" r="7.838" stroke-width="0.5" stroke="black" fill="red"/>
  <circle cx="181.26" cy="175.884" r="4.02243" stroke-width="0.5" stroke="red" fill="red"/>
   </g>
   <g id="cell834">
  <circle cx="193.377" cy="197.995" r="8.16135" stroke-width="0.5" stroke="black" fill="red"/>
  <circle cx="193.377" cy="197.995" r="4.62096" stroke-width="0.5" stroke="red" fill="red"/>
   </g>
   <g id="cell838">
  <circle cx="278.863" cy="91.9564" r="3.84931" stroke-width="0.5" stroke="black" fill="red"/>
   </g>
   <g id="cell944">
  <circle cx="267.246" cy="136.241" r="6.34426" stroke-width="0.5" stroke="black" fill="red"/>
   </g>
   <g id="cell948">
  <circle cx="201.882" cy="159.28" r="8.37156" stroke-width="0.5" stroke="black" fill="red"/>
  <circle cx="201.882" cy="159.28" r="4.98284" stroke-width="0.5" stroke="red" fill="red"/>
   </g>
   <g id="cell971">
  <circle cx="255.406" cy="216.216" r="7.58177" stroke-width="0.5" stroke="black" fill="red"/>
  <circle cx="255.406" cy="216.216" r="3.49698" stroke-width="0.5" stroke="red" fill="red"/>
   </g>
  </g>
 </g>
  <rect x="190" y="414" width="200" height="4" stroke-width="0.8" stroke="rgb(255,255,255)" fill="rgb(0,0,0)"/>
  <text x="192.5" y="411.5"
   font-family="Arial" font-size="10" fill="black" >
   200 &#956;m
  </text>
  <text x="10" y="418"
   font-family="Arial" font-size="7.5" fill="black" >
   0 days, 0 hours, 22 minutes, and 27.2029 seconds
  </text>
  <rect x="0" y="28" width="400" height="400" stroke-width="0.8" stroke="rgb(0,0,0)" fill="none"/>
</svg>
