<?xml version="1.0" encoding="UTF-8" standalone="no"?>
<!-- Created with PhysiCell (http://PhysiCell.MathCancer.org/) -->
<svg 
 xmlns:dc="http://purl.org/dc/elements/1.1/" 
 xmlns:cc="http://creativecommons.org/ns#" 
 xmlns:rdf="http://www.w3.org/1999/02/22-rdf-syntax-ns#" 
 xmlns:svg="http://www.w3.org/2000/svg" 
 xmlns="http://www.w3.org/2000/svg" 
 version="1.1" 
 width="400" 
 height="428" 
 id="svg2">
  <rect x="0" y="0" width="400" height="428" stroke-width="0.8" stroke="white" fill="white"/>
  <text x="5" y="12"
   font-family="Arial" font-size="10" fill="black" >
   Current time: 3 days, 17 hours, and 0.00 minutes, z = 0.00 &#956;m
  </text>
  <text x="5" y="23"
   font-family="Arial" font-size="9.5" fill="black" >
   978 agents
  </text>
 <g id="tissue" 
    transform="translate(0,428) scale(1,-1)">
  <g id="ECM">
  </g>
  <g id="cells">
   <g id="cell4">
  <circle cx="108.333" cy="242.793" r="6.65924" stroke-width="0.5" stroke="black" fill="grey"/>
   </g>
   <g id="cell6">
  <circle cx="128.139" cy="194.344" r="2.72363" stroke-width="0.5" stroke="black" fill="grey"/>
   </g>
   <g id="cell35">
  <circle cx="221.08" cy="172.515" r="7.71652" stroke-width="0.5" stroke="black" fill="grey"/>
  <circle cx="221.08" cy="172.515" r="3.78027" stroke-width="0.5" stroke="grey" fill="grey"/>
   </g>
   <g id="cell48">
  <circle cx="230.377" cy="154.427" r="6.09858" stroke-width="0.5" stroke="black" fill="grey"/>
   </g>
   <g id="cell71">
  <circle cx="72.806" cy="209.802" r="4.33321" stroke-width="0.5" stroke="black" fill="grey"/>
   </g>
   <g id="cell82">
  <circle cx="169.55" cy="234.817" r="7.85405" stroke-width="0.5" stroke="black" fill="grey"/>
  <circle cx="169.55" cy="234.817" r="4.05361" stroke-width="0.5" stroke="grey" fill="grey"/>
   </g>
   <g id="cell93">
  <circle cx="18.7232" cy="280.444" r="7.89511" stroke-width="0.5" stroke="black" fill="grey"/>
  <circle cx="18.7232" cy="280.444" r="4.13261" stroke-width="0.5" stroke="grey" fill="grey"/>
   </g>
   <g id="cell98">
  <circle cx="245.817" cy="138.199" r="5.94784" stroke-width="0.5" stroke="black" fill="grey"/>
   </g>
   <g id="cell125">
  <circle cx="123.368" cy="40.9464" r="4.20933" stroke-width="0.5" stroke="black" fill="grey"/>
   </g>
   <g id="cell142">
  <circle cx="115.49" cy="153.05" r="8.01563" stroke-width="0.5" stroke="black" fill="grey"/>
  <circle cx="115.49" cy="153.05" r="4.35844" stroke-width="0.5" stroke="grey" fill="grey"/>
   </g>
   <g id="cell145">
  <circle cx="155.864" cy="229.192" r="5.91733" stroke-width="0.5" stroke="black" fill="grey"/>
   </g>
   <g id="cell148">
  <circle cx="77.0929" cy="106.796" r="8.38845" stroke-width="0.5" stroke="black" fill="grey"/>
  <circle cx="77.0929" cy="106.796" r="5.01117" stroke-width="0.5" stroke="grey" fill="grey"/>
   </g>
   <g id="cell165">
  <circle cx="149.013" cy="167.92" r="6.98849" stroke-width="0.5" stroke="black" fill="grey"/>
  <circle cx="149.013" cy="167.92" r="1.89332" stroke-width="0.5" stroke="grey" fill="grey"/>
   </g>
   <g id="cell179">
  <circle cx="120.051" cy="255.747" r="8.40859" stroke-width="0.5" stroke="black" fill="grey"/>
  <circle cx="120.051" cy="255.747" r="5.0448" stroke-width="0.5" stroke="grey" fill="grey"/>
   </g>
   <g id="cell190">
  <circle cx="201.015" cy="72.4589" r="8.40829" stroke-width="0.5" stroke="black" fill="grey"/>
  <circle cx="201.015" cy="72.4589" r="5.0443" stroke-width="0.5" stroke="grey" fill="grey"/>
   </g>
   <g id="cell195">
  <circle cx="83.1899" cy="143.066" r="8.12305" stroke-width="0.5" stroke="black" fill="grey"/>
  <circle cx="83.1899" cy="143.066" r="4.55298" stroke-width="0.5" stroke="grey" fill="grey"/>
   </g>
   <g id="cell203">
  <circle cx="48.6958" cy="284.364" r="7.73225" stroke-width="0.5" stroke="black" fill="grey"/>
  <circle cx="48.6958" cy="284.364" r="3.81227" stroke-width="0.5" stroke="grey" fill="grey"/>
   </g>
   <g id="cell246">
  <circle cx="118.411" cy="27.0928" r="8.37497" stroke-width="0.5" stroke="black" fill="grey"/>
  <circle cx="118.411" cy="27.0928" r="4.98857" stroke-width="0.5" stroke="grey" fill="grey"/>
   </g>
   <g id="cell300">
  <circle cx="137.143" cy="291.185" r="2.63425" stroke-width="0.5" stroke="black" fill="grey"/>
   </g>
   <g id="cell314">
  <circle cx="200.286" cy="235.18" r="2.9398" stroke-width="0.5" stroke="black" fill="grey"/>
   </g>
   <g id="cell359">
  <circle cx="161.563" cy="281.822" r="1.17713" stroke-width="0.5" stroke="black" fill="grey"/>
   </g>
   <g id="cell375">
  <circle cx="131.676" cy="167.639" r="4.94099" stroke-width="0.5" stroke="black" fill="grey"/>
   </g>
   <g id="cell382">
  <circle cx="147.299" cy="204.295" r="8.26109" stroke-width="0.5" stroke="black" fill="grey"/>
  <circle cx="147.299" cy="204.295" r="4.79493" stroke-width="0.5" stroke="grey" fill="grey"/>
   </g>
   <g id="cell395">
  <circle cx="176.817" cy="179.333" r="2.39581" stroke-width="0.5" stroke="black" fill="grey"/>
   </g>
   <g id="cell402">
  <circle cx="11.4379" cy="263.996" r="8.40102" stroke-width="0.5" stroke="black" fill="grey"/>
  <circle cx="11.4379" cy="263.996" r="5.03218" stroke-width="0.5" stroke="grey" fill="grey"/>
   </g>
   <g id="cell468">
  <circle cx="53.0863" cy="298.748" r="2.32253" stroke-width="0.5" stroke="black" fill="grey"/>
   </g>
   <g id="cell497">
  <circle cx="342.976" cy="183.56" r="7.17766" stroke-width="0.5" stroke="black" fill="red"/>
  <circle cx="342.976" cy="183.56" r="2.50289" stroke-width="0.5" stroke="red" fill="red"/>
   </g>
   <g id="cell558">
  <circle cx="276.24" cy="286.497" r="8.41038" stroke-width="0.5" stroke="black" fill="red"/>
  <circle cx="276.24" cy="286.497" r="5.0478" stroke-width="0.5" stroke="red" fill="red"/>
   </g>
   <g id="cell581">
  <circle cx="286.768" cy="114.82" r="6.97172" stroke-width="0.5" stroke="black" fill="red"/>
  <circle cx="286.768" cy="114.82" r="1.83045" stroke-width="0.5" stroke="red" fill="red"/>
   </g>
   <g id="cell605">
  <circle cx="350.654" cy="216.569" r="3.35907" stroke-width="0.5" stroke="black" fill="red"/>
   </g>
   <g id="cell617">
  <circle cx="313.743" cy="177.467" r="8.24703" stroke-width="0.5" stroke="black" fill="red"/>
  <circle cx="313.743" cy="177.467" r="4.77066" stroke-width="0.5" stroke="red" fill="red"/>
   </g>
   <g id="cell626">
  <circle cx="204.801" cy="199.468" r="8.33411" stroke-width="0.5" stroke="black" fill="red"/>
  <circle cx="204.801" cy="199.468" r="4.91966" stroke-width="0.5" stroke="red" fill="red"/>
   </g>
   <g id="cell633">
  <circle cx="249.013" cy="298.485" r="3.71129" stroke-width="0.5" stroke="black" fill="red"/>
   </g>
   <g id="cell643">
  <circle cx="281.821" cy="234.078" r="4.50764" stroke-width="0.5" stroke="black" fill="red"/>
   </g>
   <g id="cell650">
  <circle cx="263.854" cy="257.719" r="3.48248" stroke-width="0.5" stroke="black" fill="red"/>
   </g>
   <g id="cell652">
  <circle cx="223.405" cy="277.727" r="8.35097" stroke-width="0.5" stroke="black" fill="red"/>
  <circle cx="223.405" cy="277.727" r="4.94817" stroke-width="0.5" stroke="red" fill="red"/>
   </g>
   <g id="cell655">
  <circle cx="286.683" cy="229.75" r="3.44216" stroke-width="0.5" stroke="black" fill="red"/>
   </g>
   <g id="cell657">
  <circle cx="311.286" cy="133.611" r="8.38886" stroke-width="0.5" stroke="black" fill="red"/>
  <circle cx="311.286" cy="133.611" r="5.01184" stroke-width="0.5" stroke="red" fill="red"/>
   </g>
   <g id="cell671">
  <circle cx="335.895" cy="234.628" r="7.699" stroke-width="0.5" stroke="black" fill="red"/>
  <circle cx="335.895" cy="234.628" r="3.74437" stroke-width="0.5" stroke="red" fill="red"/>
   </g>
   <g id="cell709">
  <circle cx="214.681" cy="116.565" r="8.36262" stroke-width="0.5" stroke="black" fill="red"/>
  <circle cx="214.681" cy="116.565" r="4.96781" stroke-width="0.5" stroke="red" fill="red"/>
   </g>
   <g id="cell710">
  <circle cx="251.625" cy="229.921" r="5.24888" stroke-width="0.5" stroke="black" fill="red"/>
   </g>
   <g id="cell726">
  <circle cx="279.811" cy="25.5691" r="4.85185" stroke-width="0.5" stroke="black" fill="red"/>
   </g>
   <g id="cell728">
  <circle cx="326.45" cy="88.426" r="8.20766" stroke-width="0.5" stroke="black" fill="red"/>
  <circle cx="326.45" cy="88.426" r="4.70227" stroke-width="0.5" stroke="red" fill="red"/>
   </g>
   <g id="cell729">
  <circle cx="273.037" cy="202.951" r="7.69593" stroke-width="0.5" stroke="black" fill="red"/>
  <circle cx="273.037" cy="202.951" r="3.73805" stroke-width="0.5" stroke="red" fill="red"/>
   </g>
   <g id="cell743">
  <circle cx="389.412" cy="191.37" r="7.4287" stroke-width="0.5" stroke="black" fill="red"/>
  <circle cx="389.412" cy="191.37" r="3.15139" stroke-width="0.5" stroke="red" fill="red"/>
   </g>
   <g id="cell771">
  <circle cx="190.028" cy="183.784" r="7.82908" stroke-width="0.5" stroke="black" fill="red"/>
  <circle cx="190.028" cy="183.784" r="4.00502" stroke-width="0.5" stroke="red" fill="red"/>
   </g>
   <g id="cell780">
  <circle cx="263.003" cy="240.422" r="8.23212" stroke-width="0.5" stroke="black" fill="red"/>
  <circle cx="263.003" cy="240.422" r="4.74484" stroke-width="0.5" stroke="red" fill="red"/>
   </g>
   <g id="cell788">
  <circle cx="243.072" cy="163.725" r="3.933" stroke-width="0.5" stroke="black" fill="red"/>
   </g>
   <g id="cell792">
  <circle cx="282.315" cy="101.052" r="8.16726" stroke-width="0.5" stroke="black" fill="red"/>
  <circle cx="282.315" cy="101.052" r="4.6314" stroke-width="0.5" stroke="red" fill="red"/>
   </g>
   <g id="cell815">
  <circle cx="308.848" cy="280.852" r="8.35676" stroke-width="0.5" stroke="black" fill="red"/>
  <circle cx="308.848" cy="280.852" r="4.95794" stroke-width="0.5" stroke="red" fill="red"/>
   </g>
   <g id="cell819">
  <circle cx="355.181" cy="213.59" r="4.99051" stroke-width="0.5" stroke="black" fill="red"/>
   </g>
   <g id="cell831">
  <circle cx="190.293" cy="205.999" r="7.32228" stroke-width="0.5" stroke="black" fill="red"/>
  <circle cx="190.293" cy="205.999" r="2.89161" stroke-width="0.5" stroke="red" fill="red"/>
   </g>
   <g id="cell845">
  <circle cx="262.894" cy="48.95" r="8.14095" stroke-width="0.5" stroke="black" fill="red"/>
  <circle cx="262.894" cy="48.95" r="4.58483" stroke-width="0.5" stroke="red" fill="red"/>
   </g>
   <g id="cell872">
  <circle cx="327.042" cy="131.319" r="8.01659" stroke-width="0.5" stroke="black" fill="red"/>
  <circle cx="327.042" cy="131.319" r="4.36021" stroke-width="0.5" stroke="red" fill="red"/>
   </g>
   <g id="cell881">
  <circle cx="317.101" cy="58.0464" r="4.85875" stroke-width="0.5" stroke="black" fill="red"/>
   </g>
   <g id="cell899">
  <circle cx="234.694" cy="310.798" r="7.78822" stroke-width="0.5" stroke="black" fill="red"/>
  <circle cx="234.694" cy="310.798" r="3.92455" stroke-width="0.5" stroke="red" fill="red"/>
   </g>
   <g id="cell909">
  <circle cx="272.259" cy="116.521" r="6.86926" stroke-width="0.5" stroke="black" fill="red"/>
  <circle cx="272.259" cy="116.521" r="1.39014" stroke-width="0.5" stroke="red" fill="red"/>
   </g>
   <g id="cell911">
  <circle cx="347.259" cy="248.825" r="3.84872" stroke-width="0.5" stroke="black" fill="red"/>
   </g>
   <g id="cell946">
  <circle cx="247.109" cy="182.687" r="8.40471" stroke-width="0.5" stroke="black" fill="red"/>
  <circle cx="247.109" cy="182.687" r="5.03833" stroke-width="0.5" stroke="red" fill="red"/>
   </g>
   <g id="cell974">
  <circle cx="247.339" cy="97.0865" r="6.25914" stroke-width="0.5" stroke="black" fill="red"/>
   </g>
  </g>
 </g>
  <rect x="190" y="414" width="200" height="4" stroke-width="0.8" stroke="rgb(255,255,255)" fill="rgb(0,0,0)"/>
  <text x="192.5" y="411.5"
   font-family="Arial" font-size="10" fill="black" >
   200 &#956;m
  </text>
  <text x="10" y="418"
   font-family="Arial" font-size="7.5" fill="black" >
   0 days, 0 hours, 24 minutes, and 14.9220 seconds
  </text>
  <rect x="0" y="28" width="400" height="400" stroke-width="0.8" stroke="rgb(0,0,0)" fill="none"/>
</svg>
