<?xml version="1.0" encoding="UTF-8" standalone="no"?>
<!-- Created with PhysiCell (http://PhysiCell.MathCancer.org/) -->
<svg 
 xmlns:dc="http://purl.org/dc/elements/1.1/" 
 xmlns:cc="http://creativecommons.org/ns#" 
 xmlns:rdf="http://www.w3.org/1999/02/22-rdf-syntax-ns#" 
 xmlns:svg="http://www.w3.org/2000/svg" 
 xmlns="http://www.w3.org/2000/svg" 
 version="1.1" 
 width="400" 
 height="428" 
 id="svg2">
  <rect x="0" y="0" width="400" height="428" stroke-width="0.8" stroke="white" fill="white"/>
  <text x="5" y="12"
   font-family="Arial" font-size="10" fill="black" >
   Current time: 1 days, 9 hours, and 0.00 minutes, z = 0.00 &#956;m
  </text>
  <text x="5" y="23"
   font-family="Arial" font-size="9.5" fill="black" >
   978 agents
  </text>
 <g id="tissue" 
    transform="translate(0,428) scale(1,-1)">
  <g id="ECM">
  </g>
  <g id="cells">
   <g id="cell3">
  <circle cx="124.104" cy="233.563" r="7.13892" stroke-width="0.5" stroke="black" fill="grey"/>
  <circle cx="124.104" cy="233.563" r="2.38954" stroke-width="0.5" stroke="grey" fill="grey"/>
   </g>
   <g id="cell35">
  <circle cx="170.335" cy="133.895" r="8.40505" stroke-width="0.5" stroke="black" fill="grey"/>
  <circle cx="170.335" cy="133.895" r="5.03891" stroke-width="0.5" stroke="grey" fill="grey"/>
   </g>
   <g id="cell71">
  <circle cx="78.9143" cy="202.716" r="7.24633" stroke-width="0.5" stroke="black" fill="grey"/>
  <circle cx="78.9143" cy="202.716" r="2.69351" stroke-width="0.5" stroke="grey" fill="grey"/>
   </g>
   <g id="cell82">
  <circle cx="114.978" cy="157.47" r="7.44794" stroke-width="0.5" stroke="black" fill="grey"/>
  <circle cx="114.978" cy="157.47" r="3.19649" stroke-width="0.5" stroke="grey" fill="grey"/>
   </g>
   <g id="cell93">
  <circle cx="64.093" cy="230.228" r="5.91432" stroke-width="0.5" stroke="black" fill="grey"/>
   </g>
   <g id="cell145">
  <circle cx="119.3" cy="206.584" r="7.90781" stroke-width="0.5" stroke="black" fill="grey"/>
  <circle cx="119.3" cy="206.584" r="4.15682" stroke-width="0.5" stroke="grey" fill="grey"/>
   </g>
   <g id="cell151">
  <circle cx="64.7406" cy="214.588" r="6.602" stroke-width="0.5" stroke="black" fill="grey"/>
   </g>
   <g id="cell159">
  <circle cx="96.9244" cy="194.752" r="8.32451" stroke-width="0.5" stroke="black" fill="grey"/>
  <circle cx="96.9244" cy="194.752" r="4.90339" stroke-width="0.5" stroke="grey" fill="grey"/>
   </g>
   <g id="cell168">
  <circle cx="150.548" cy="221.834" r="7.51721" stroke-width="0.5" stroke="black" fill="grey"/>
  <circle cx="150.548" cy="221.834" r="3.35472" stroke-width="0.5" stroke="grey" fill="grey"/>
   </g>
   <g id="cell173">
  <circle cx="129.927" cy="112.361" r="8.23366" stroke-width="0.5" stroke="black" fill="grey"/>
  <circle cx="129.927" cy="112.361" r="4.7475" stroke-width="0.5" stroke="grey" fill="grey"/>
   </g>
   <g id="cell191">
  <circle cx="171.62" cy="232.178" r="5.57171" stroke-width="0.5" stroke="black" fill="grey"/>
   </g>
   <g id="cell192">
  <circle cx="141.516" cy="251.697" r="6.7553" stroke-width="0.5" stroke="black" fill="grey"/>
  <circle cx="141.516" cy="251.697" r="0.616238" stroke-width="0.5" stroke="grey" fill="grey"/>
   </g>
   <g id="cell195">
  <circle cx="9.84089" cy="169.929" r="3.79146" stroke-width="0.5" stroke="black" fill="grey"/>
   </g>
   <g id="cell211">
  <circle cx="74.554" cy="142.669" r="7.11068" stroke-width="0.5" stroke="black" fill="grey"/>
  <circle cx="74.554" cy="142.669" r="2.3038" stroke-width="0.5" stroke="grey" fill="grey"/>
   </g>
   <g id="cell227">
  <circle cx="90.8406" cy="293.725" r="6.89082" stroke-width="0.5" stroke="black" fill="grey"/>
  <circle cx="90.8406" cy="293.725" r="1.49301" stroke-width="0.5" stroke="grey" fill="grey"/>
   </g>
   <g id="cell230">
  <circle cx="101.176" cy="167.005" r="6.52696" stroke-width="0.5" stroke="black" fill="grey"/>
   </g>
   <g id="cell249">
  <circle cx="199.033" cy="223.278" r="7.80627" stroke-width="0.5" stroke="black" fill="grey"/>
  <circle cx="199.033" cy="223.278" r="3.96025" stroke-width="0.5" stroke="grey" fill="grey"/>
   </g>
   <g id="cell254">
  <circle cx="158.789" cy="171.875" r="8.28105" stroke-width="0.5" stroke="black" fill="grey"/>
  <circle cx="158.789" cy="171.875" r="4.82923" stroke-width="0.5" stroke="grey" fill="grey"/>
   </g>
   <g id="cell261">
  <circle cx="186.686" cy="147.219" r="6.77396" stroke-width="0.5" stroke="black" fill="grey"/>
  <circle cx="186.686" cy="147.219" r="0.795131" stroke-width="0.5" stroke="grey" fill="grey"/>
   </g>
   <g id="cell263">
  <circle cx="157.664" cy="257.198" r="7.47498" stroke-width="0.5" stroke="black" fill="grey"/>
  <circle cx="157.664" cy="257.198" r="3.25899" stroke-width="0.5" stroke="grey" fill="grey"/>
   </g>
   <g id="cell271">
  <circle cx="80.4715" cy="245.166" r="7.38564" stroke-width="0.5" stroke="black" fill="grey"/>
  <circle cx="80.4715" cy="245.166" r="3.0485" stroke-width="0.5" stroke="grey" fill="grey"/>
   </g>
   <g id="cell298">
  <circle cx="132.07" cy="191.821" r="8.33496" stroke-width="0.5" stroke="black" fill="grey"/>
  <circle cx="132.07" cy="191.821" r="4.9211" stroke-width="0.5" stroke="grey" fill="grey"/>
   </g>
   <g id="cell300">
  <circle cx="111.614" cy="286.846" r="6.49675" stroke-width="0.5" stroke="black" fill="grey"/>
   </g>
   <g id="cell301">
  <circle cx="145.637" cy="286.213" r="4.69366" stroke-width="0.5" stroke="black" fill="grey"/>
   </g>
   <g id="cell305">
  <circle cx="138.785" cy="165.89" r="8.14899" stroke-width="0.5" stroke="black" fill="grey"/>
  <circle cx="138.785" cy="165.89" r="4.59911" stroke-width="0.5" stroke="grey" fill="grey"/>
   </g>
   <g id="cell309">
  <circle cx="176.334" cy="212.86" r="8.11206" stroke-width="0.5" stroke="black" fill="grey"/>
  <circle cx="176.334" cy="212.86" r="4.53335" stroke-width="0.5" stroke="grey" fill="grey"/>
   </g>
   <g id="cell331">
  <circle cx="180" cy="245.201" r="7.77268" stroke-width="0.5" stroke="black" fill="grey"/>
  <circle cx="180" cy="245.201" r="3.89361" stroke-width="0.5" stroke="grey" fill="grey"/>
   </g>
   <g id="cell344">
  <circle cx="24.0491" cy="202.147" r="8.00907" stroke-width="0.5" stroke="black" fill="grey"/>
  <circle cx="24.0491" cy="202.147" r="4.34637" stroke-width="0.5" stroke="grey" fill="grey"/>
   </g>
   <g id="cell352">
  <circle cx="88.5698" cy="233.362" r="5.49479" stroke-width="0.5" stroke="black" fill="grey"/>
   </g>
   <g id="cell363">
  <circle cx="129.812" cy="292.535" r="8.25864" stroke-width="0.5" stroke="black" fill="grey"/>
  <circle cx="129.812" cy="292.535" r="4.7907" stroke-width="0.5" stroke="grey" fill="grey"/>
   </g>
   <g id="cell366">
  <circle cx="110.907" cy="193.625" r="5.00545" stroke-width="0.5" stroke="black" fill="grey"/>
   </g>
   <g id="cell397">
  <circle cx="182.349" cy="226.37" r="6.01077" stroke-width="0.5" stroke="black" fill="grey"/>
   </g>
   <g id="cell403">
  <circle cx="23.8483" cy="135.682" r="4.68586" stroke-width="0.5" stroke="black" fill="grey"/>
   </g>
   <g id="cell413">
  <circle cx="106.664" cy="139.038" r="8.37438" stroke-width="0.5" stroke="black" fill="grey"/>
  <circle cx="106.664" cy="139.038" r="4.98757" stroke-width="0.5" stroke="grey" fill="grey"/>
   </g>
   <g id="cell445">
  <circle cx="128.018" cy="155.809" r="8.32746" stroke-width="0.5" stroke="black" fill="grey"/>
  <circle cx="128.018" cy="155.809" r="4.90839" stroke-width="0.5" stroke="grey" fill="grey"/>
   </g>
   <g id="cell464">
  <circle cx="122.456" cy="140.162" r="6.99213" stroke-width="0.5" stroke="black" fill="grey"/>
  <circle cx="122.456" cy="140.162" r="1.90672" stroke-width="0.5" stroke="grey" fill="grey"/>
   </g>
   <g id="cell524">
  <circle cx="225.229" cy="141.09" r="7.0715" stroke-width="0.5" stroke="black" fill="red"/>
  <circle cx="225.229" cy="141.09" r="2.17986" stroke-width="0.5" stroke="red" fill="red"/>
   </g>
   <g id="cell538">
  <circle cx="275.461" cy="170.566" r="6.75335" stroke-width="0.5" stroke="black" fill="red"/>
  <circle cx="275.461" cy="170.566" r="0.594447" stroke-width="0.5" stroke="red" fill="red"/>
   </g>
   <g id="cell542">
  <circle cx="302.541" cy="283.529" r="8.02474" stroke-width="0.5" stroke="black" fill="red"/>
  <circle cx="302.541" cy="283.529" r="4.37518" stroke-width="0.5" stroke="red" fill="red"/>
   </g>
   <g id="cell548">
  <circle cx="337.143" cy="206.688" r="6.27209" stroke-width="0.5" stroke="black" fill="red"/>
   </g>
   <g id="cell558">
  <circle cx="244.493" cy="175.417" r="3.13907" stroke-width="0.5" stroke="black" fill="red"/>
   </g>
   <g id="cell566">
  <circle cx="211.194" cy="211.667" r="6.36661" stroke-width="0.5" stroke="black" fill="red"/>
   </g>
   <g id="cell600">
  <circle cx="317.347" cy="131.754" r="7.17318" stroke-width="0.5" stroke="black" fill="red"/>
  <circle cx="317.347" cy="131.754" r="2.49003" stroke-width="0.5" stroke="red" fill="red"/>
   </g>
   <g id="cell603">
  <circle cx="325.11" cy="223.345" r="6.21513" stroke-width="0.5" stroke="black" fill="red"/>
   </g>
   <g id="cell605">
  <circle cx="355.295" cy="207.07" r="3.84751" stroke-width="0.5" stroke="black" fill="red"/>
   </g>
   <g id="cell606">
  <circle cx="338.975" cy="238.395" r="8.33488" stroke-width="0.5" stroke="black" fill="red"/>
  <circle cx="338.975" cy="238.395" r="4.92097" stroke-width="0.5" stroke="red" fill="red"/>
   </g>
   <g id="cell614">
  <circle cx="333.553" cy="160.992" r="7.42328" stroke-width="0.5" stroke="black" fill="red"/>
  <circle cx="333.553" cy="160.992" r="3.13859" stroke-width="0.5" stroke="red" fill="red"/>
   </g>
   <g id="cell615">
  <circle cx="356.183" cy="166.828" r="7.76675" stroke-width="0.5" stroke="black" fill="red"/>
  <circle cx="356.183" cy="166.828" r="3.88177" stroke-width="0.5" stroke="red" fill="red"/>
   </g>
   <g id="cell619">
  <circle cx="196.933" cy="155.333" r="8.11707" stroke-width="0.5" stroke="black" fill="red"/>
  <circle cx="196.933" cy="155.333" r="4.5423" stroke-width="0.5" stroke="red" fill="red"/>
   </g>
   <g id="cell630">
  <circle cx="155.532" cy="131.99" r="7.94663" stroke-width="0.5" stroke="black" fill="red"/>
  <circle cx="155.532" cy="131.99" r="4.23021" stroke-width="0.5" stroke="red" fill="red"/>
   </g>
   <g id="cell635">
  <circle cx="231.388" cy="309.001" r="1.85215" stroke-width="0.5" stroke="black" fill="red"/>
   </g>
   <g id="cell648">
  <circle cx="307.832" cy="186.943" r="3.66259" stroke-width="0.5" stroke="black" fill="red"/>
   </g>
   <g id="cell649">
  <circle cx="292.445" cy="176.436" r="4.50385" stroke-width="0.5" stroke="black" fill="red"/>
   </g>
   <g id="cell652">
  <circle cx="205.123" cy="264.815" r="3.39104" stroke-width="0.5" stroke="black" fill="red"/>
   </g>
   <g id="cell668">
  <circle cx="309.367" cy="252.028" r="8.27612" stroke-width="0.5" stroke="black" fill="red"/>
  <circle cx="309.367" cy="252.028" r="4.82077" stroke-width="0.5" stroke="red" fill="red"/>
   </g>
   <g id="cell679">
  <circle cx="344.979" cy="165.735" r="5.76755" stroke-width="0.5" stroke="black" fill="red"/>
   </g>
   <g id="cell694">
  <circle cx="273.131" cy="187.967" r="5.4584" stroke-width="0.5" stroke="black" fill="red"/>
   </g>
   <g id="cell702">
  <circle cx="249.979" cy="204.018" r="8.10891" stroke-width="0.5" stroke="black" fill="red"/>
  <circle cx="249.979" cy="204.018" r="4.5277" stroke-width="0.5" stroke="red" fill="red"/>
   </g>
   <g id="cell706">
  <circle cx="221.952" cy="236.659" r="3.53509" stroke-width="0.5" stroke="black" fill="red"/>
   </g>
   <g id="cell709">
  <circle cx="214.616" cy="116.878" r="8.11312" stroke-width="0.5" stroke="black" fill="red"/>
  <circle cx="214.616" cy="116.878" r="4.53525" stroke-width="0.5" stroke="red" fill="red"/>
   </g>
   <g id="cell713">
  <circle cx="262.398" cy="203.361" r="5.18558" stroke-width="0.5" stroke="black" fill="red"/>
   </g>
   <g id="cell718">
  <circle cx="248.487" cy="165.205" r="7.79969" stroke-width="0.5" stroke="black" fill="red"/>
  <circle cx="248.487" cy="165.205" r="3.94726" stroke-width="0.5" stroke="red" fill="red"/>
   </g>
   <g id="cell720">
  <circle cx="287.545" cy="160.566" r="7.51836" stroke-width="0.5" stroke="black" fill="red"/>
  <circle cx="287.545" cy="160.566" r="3.35729" stroke-width="0.5" stroke="red" fill="red"/>
   </g>
   <g id="cell734">
  <circle cx="356.716" cy="144.859" r="6.85874" stroke-width="0.5" stroke="black" fill="red"/>
  <circle cx="356.716" cy="144.859" r="1.33716" stroke-width="0.5" stroke="red" fill="red"/>
   </g>
   <g id="cell738">
  <circle cx="330.294" cy="179.58" r="7.95735" stroke-width="0.5" stroke="black" fill="red"/>
  <circle cx="330.294" cy="179.58" r="4.25031" stroke-width="0.5" stroke="red" fill="red"/>
   </g>
   <g id="cell743">
  <circle cx="389.279" cy="172.581" r="7.31077" stroke-width="0.5" stroke="black" fill="red"/>
  <circle cx="389.279" cy="172.581" r="2.86236" stroke-width="0.5" stroke="red" fill="red"/>
   </g>
   <g id="cell756">
  <circle cx="208.192" cy="159.903" r="5.32713" stroke-width="0.5" stroke="black" fill="red"/>
   </g>
   <g id="cell763">
  <circle cx="228.96" cy="221.586" r="6.6845" stroke-width="0.5" stroke="black" fill="red"/>
   </g>
   <g id="cell777">
  <circle cx="300.936" cy="192.824" r="6.92883" stroke-width="0.5" stroke="black" fill="red"/>
  <circle cx="300.936" cy="192.824" r="1.65964" stroke-width="0.5" stroke="red" fill="red"/>
   </g>
   <g id="cell780">
  <circle cx="273.593" cy="267.892" r="7.75388" stroke-width="0.5" stroke="black" fill="red"/>
  <circle cx="273.593" cy="267.892" r="3.85594" stroke-width="0.5" stroke="red" fill="red"/>
   </g>
   <g id="cell783">
  <circle cx="301.824" cy="92.8934" r="7.76175" stroke-width="0.5" stroke="black" fill="red"/>
  <circle cx="301.824" cy="92.8934" r="3.87175" stroke-width="0.5" stroke="red" fill="red"/>
   </g>
   <g id="cell787">
  <circle cx="257.083" cy="141.464" r="7.45635" stroke-width="0.5" stroke="black" fill="red"/>
  <circle cx="257.083" cy="141.464" r="3.21604" stroke-width="0.5" stroke="red" fill="red"/>
   </g>
   <g id="cell788">
  <circle cx="234.072" cy="211.799" r="7.48455" stroke-width="0.5" stroke="black" fill="red"/>
  <circle cx="234.072" cy="211.799" r="3.28088" stroke-width="0.5" stroke="red" fill="red"/>
   </g>
   <g id="cell795">
  <circle cx="278.766" cy="209.537" r="7.59585" stroke-width="0.5" stroke="black" fill="red"/>
  <circle cx="278.766" cy="209.537" r="3.52741" stroke-width="0.5" stroke="red" fill="red"/>
   </g>
   <g id="cell810">
  <circle cx="325.653" cy="145.404" r="8.39122" stroke-width="0.5" stroke="black" fill="red"/>
  <circle cx="325.653" cy="145.404" r="5.01579" stroke-width="0.5" stroke="red" fill="red"/>
   </g>
   <g id="cell814">
  <circle cx="295.091" cy="211.13" r="5.93453" stroke-width="0.5" stroke="black" fill="red"/>
   </g>
   <g id="cell816">
  <circle cx="313.44" cy="265.791" r="4.14791" stroke-width="0.5" stroke="black" fill="red"/>
   </g>
   <g id="cell821">
  <circle cx="377.01" cy="280.015" r="8.11" stroke-width="0.5" stroke="black" fill="red"/>
  <circle cx="377.01" cy="280.015" r="4.52966" stroke-width="0.5" stroke="red" fill="red"/>
   </g>
   <g id="cell827">
  <circle cx="198.598" cy="236.574" r="8.38651" stroke-width="0.5" stroke="black" fill="red"/>
  <circle cx="198.598" cy="236.574" r="5.00792" stroke-width="0.5" stroke="red" fill="red"/>
   </g>
   <g id="cell832">
  <circle cx="181.955" cy="201.268" r="3.9988" stroke-width="0.5" stroke="black" fill="red"/>
   </g>
   <g id="cell840">
  <circle cx="213.386" cy="199.948" r="6.49901" stroke-width="0.5" stroke="black" fill="red"/>
   </g>
   <g id="cell843">
  <circle cx="239.188" cy="283.499" r="8.34663" stroke-width="0.5" stroke="black" fill="red"/>
  <circle cx="239.188" cy="283.499" r="4.94083" stroke-width="0.5" stroke="red" fill="red"/>
   </g>
   <g id="cell845">
  <circle cx="252.215" cy="117.14" r="8.08057" stroke-width="0.5" stroke="black" fill="red"/>
  <circle cx="252.215" cy="117.14" r="4.47676" stroke-width="0.5" stroke="red" fill="red"/>
   </g>
   <g id="cell873">
  <circle cx="369.419" cy="194.071" r="4.18119" stroke-width="0.5" stroke="black" fill="red"/>
   </g>
   <g id="cell882">
  <circle cx="296.581" cy="271.032" r="7.97534" stroke-width="0.5" stroke="black" fill="red"/>
  <circle cx="296.581" cy="271.032" r="4.28389" stroke-width="0.5" stroke="red" fill="red"/>
   </g>
   <g id="cell894">
  <circle cx="245.518" cy="144.359" r="6.87401" stroke-width="0.5" stroke="black" fill="red"/>
  <circle cx="245.518" cy="144.359" r="1.41342" stroke-width="0.5" stroke="red" fill="red"/>
   </g>
   <g id="cell923">
  <circle cx="261.349" cy="287.447" r="6.65859" stroke-width="0.5" stroke="black" fill="red"/>
   </g>
  </g>
 </g>
  <rect x="190" y="414" width="200" height="4" stroke-width="0.8" stroke="rgb(255,255,255)" fill="rgb(0,0,0)"/>
  <text x="192.5" y="411.5"
   font-family="Arial" font-size="10" fill="black" >
   200 &#956;m
  </text>
  <text x="10" y="418"
   font-family="Arial" font-size="7.5" fill="black" >
   0 days, 0 hours, 10 minutes, and 26.4877 seconds
  </text>
  <rect x="0" y="28" width="400" height="400" stroke-width="0.8" stroke="rgb(0,0,0)" fill="none"/>
</svg>
