<?xml version="1.0" encoding="UTF-8" standalone="no"?>
<!-- Created with PhysiCell (http://PhysiCell.MathCancer.org/) -->
<svg 
 xmlns:dc="http://purl.org/dc/elements/1.1/" 
 xmlns:cc="http://creativecommons.org/ns#" 
 xmlns:rdf="http://www.w3.org/1999/02/22-rdf-syntax-ns#" 
 xmlns:svg="http://www.w3.org/2000/svg" 
 xmlns="http://www.w3.org/2000/svg" 
 version="1.1" 
 width="400" 
 height="428" 
 id="svg2">
  <rect x="0" y="0" width="400" height="428" stroke-width="0.8" stroke="white" fill="white"/>
  <text x="5" y="12"
   font-family="Arial" font-size="10" fill="black" >
   Current time: 2 days, 16 hours, and 0.00 minutes, z = 0.00 &#956;m
  </text>
  <text x="5" y="23"
   font-family="Arial" font-size="9.5" fill="black" >
   978 agents
  </text>
 <g id="tissue" 
    transform="translate(0,428) scale(1,-1)">
  <g id="ECM">
  </g>
  <g id="cells">
   <g id="cell4">
  <circle cx="123.226" cy="241.768" r="6.73425" stroke-width="0.5" stroke="black" fill="grey"/>
  <circle cx="123.226" cy="241.768" r="0.30956" stroke-width="0.5" stroke="grey" fill="grey"/>
   </g>
   <g id="cell21">
  <circle cx="176.423" cy="113.051" r="7.57628" stroke-width="0.5" stroke="black" fill="grey"/>
  <circle cx="176.423" cy="113.051" r="3.48506" stroke-width="0.5" stroke="grey" fill="grey"/>
   </g>
   <g id="cell37">
  <circle cx="145.05" cy="151.651" r="5.90346" stroke-width="0.5" stroke="black" fill="grey"/>
   </g>
   <g id="cell71">
  <circle cx="81.0749" cy="192.727" r="7.39068" stroke-width="0.5" stroke="black" fill="grey"/>
  <circle cx="81.0749" cy="192.727" r="3.0607" stroke-width="0.5" stroke="grey" fill="grey"/>
   </g>
   <g id="cell81">
  <circle cx="107.29" cy="88.1322" r="5.65371" stroke-width="0.5" stroke="black" fill="grey"/>
   </g>
   <g id="cell90">
  <circle cx="88.0779" cy="178.032" r="8.38126" stroke-width="0.5" stroke="black" fill="grey"/>
  <circle cx="88.0779" cy="178.032" r="4.99913" stroke-width="0.5" stroke="grey" fill="grey"/>
   </g>
   <g id="cell112">
  <circle cx="179.154" cy="85.2725" r="5.36464" stroke-width="0.5" stroke="black" fill="grey"/>
   </g>
   <g id="cell141">
  <circle cx="80.4958" cy="83.0242" r="6.94975" stroke-width="0.5" stroke="black" fill="grey"/>
  <circle cx="80.4958" cy="83.0242" r="1.74492" stroke-width="0.5" stroke="grey" fill="grey"/>
   </g>
   <g id="cell182">
  <circle cx="183.946" cy="176.213" r="5.50155" stroke-width="0.5" stroke="black" fill="grey"/>
   </g>
   <g id="cell196">
  <circle cx="91.0959" cy="225.847" r="8.24303" stroke-width="0.5" stroke="black" fill="grey"/>
  <circle cx="91.0959" cy="225.847" r="4.76374" stroke-width="0.5" stroke="grey" fill="grey"/>
   </g>
   <g id="cell197">
  <circle cx="91.1062" cy="280.897" r="4.60904" stroke-width="0.5" stroke="black" fill="grey"/>
   </g>
   <g id="cell199">
  <circle cx="38.4872" cy="174.9" r="6.19346" stroke-width="0.5" stroke="black" fill="grey"/>
   </g>
   <g id="cell204">
  <circle cx="48.2154" cy="157.597" r="6.51163" stroke-width="0.5" stroke="black" fill="grey"/>
   </g>
   <g id="cell205">
  <circle cx="14.2198" cy="158.939" r="2.76192" stroke-width="0.5" stroke="black" fill="grey"/>
   </g>
   <g id="cell218">
  <circle cx="71.772" cy="255.065" r="7.58013" stroke-width="0.5" stroke="black" fill="grey"/>
  <circle cx="71.772" cy="255.065" r="3.49343" stroke-width="0.5" stroke="grey" fill="grey"/>
   </g>
   <g id="cell223">
  <circle cx="124.773" cy="205.269" r="7.805" stroke-width="0.5" stroke="black" fill="grey"/>
  <circle cx="124.773" cy="205.269" r="3.95775" stroke-width="0.5" stroke="grey" fill="grey"/>
   </g>
   <g id="cell226">
  <circle cx="97.0924" cy="303.274" r="3.91887" stroke-width="0.5" stroke="black" fill="grey"/>
   </g>
   <g id="cell231">
  <circle cx="158.544" cy="189.302" r="7.1185" stroke-width="0.5" stroke="black" fill="grey"/>
  <circle cx="158.544" cy="189.302" r="2.32781" stroke-width="0.5" stroke="grey" fill="grey"/>
   </g>
   <g id="cell232">
  <circle cx="103.702" cy="188.648" r="7.96194" stroke-width="0.5" stroke="black" fill="grey"/>
  <circle cx="103.702" cy="188.648" r="4.25888" stroke-width="0.5" stroke="grey" fill="grey"/>
   </g>
   <g id="cell242">
  <circle cx="45.7057" cy="210.44" r="8.26813" stroke-width="0.5" stroke="black" fill="grey"/>
  <circle cx="45.7057" cy="210.44" r="4.80704" stroke-width="0.5" stroke="grey" fill="grey"/>
   </g>
   <g id="cell255">
  <circle cx="154.312" cy="116.663" r="5.53859" stroke-width="0.5" stroke="black" fill="grey"/>
   </g>
   <g id="cell289">
  <circle cx="76.0065" cy="209.855" r="7.35499" stroke-width="0.5" stroke="black" fill="grey"/>
  <circle cx="76.0065" cy="209.855" r="2.97348" stroke-width="0.5" stroke="grey" fill="grey"/>
   </g>
   <g id="cell301">
  <circle cx="146.685" cy="253.949" r="6.10142" stroke-width="0.5" stroke="black" fill="grey"/>
   </g>
   <g id="cell307">
  <circle cx="147.8" cy="212.189" r="8.06046" stroke-width="0.5" stroke="black" fill="grey"/>
  <circle cx="147.8" cy="212.189" r="4.44035" stroke-width="0.5" stroke="grey" fill="grey"/>
   </g>
   <g id="cell310">
  <circle cx="161.612" cy="356.335" r="8.20779" stroke-width="0.5" stroke="black" fill="grey"/>
  <circle cx="161.612" cy="356.335" r="4.7025" stroke-width="0.5" stroke="grey" fill="grey"/>
   </g>
   <g id="cell346">
  <circle cx="65.9762" cy="286.299" r="1.82992" stroke-width="0.5" stroke="black" fill="grey"/>
   </g>
   <g id="cell389">
  <circle cx="240.669" cy="49.4357" r="6.37967" stroke-width="0.5" stroke="black" fill="grey"/>
   </g>
   <g id="cell397">
  <circle cx="173.441" cy="248.265" r="8.41214" stroke-width="0.5" stroke="black" fill="grey"/>
  <circle cx="173.441" cy="248.265" r="5.05072" stroke-width="0.5" stroke="grey" fill="grey"/>
   </g>
   <g id="cell423">
  <circle cx="67.3445" cy="238.147" r="2.97259" stroke-width="0.5" stroke="black" fill="grey"/>
   </g>
   <g id="cell486">
  <circle cx="132.64" cy="184.189" r="5.33917" stroke-width="0.5" stroke="black" fill="grey"/>
   </g>
   <g id="cell511">
  <circle cx="276.473" cy="166.52" r="7.35155" stroke-width="0.5" stroke="black" fill="red"/>
  <circle cx="276.473" cy="166.52" r="2.96496" stroke-width="0.5" stroke="red" fill="red"/>
   </g>
   <g id="cell535">
  <circle cx="223.982" cy="299.816" r="8.35586" stroke-width="0.5" stroke="black" fill="red"/>
  <circle cx="223.982" cy="299.816" r="4.95642" stroke-width="0.5" stroke="red" fill="red"/>
   </g>
   <g id="cell556">
  <circle cx="353.213" cy="180.003" r="8.40379" stroke-width="0.5" stroke="black" fill="red"/>
  <circle cx="353.213" cy="180.003" r="5.0368" stroke-width="0.5" stroke="red" fill="red"/>
   </g>
   <g id="cell559">
  <circle cx="246.778" cy="242.889" r="5.93187" stroke-width="0.5" stroke="black" fill="red"/>
   </g>
   <g id="cell593">
  <circle cx="314.246" cy="137.101" r="4.06934" stroke-width="0.5" stroke="black" fill="red"/>
   </g>
   <g id="cell614">
  <circle cx="326.734" cy="162.424" r="7.45882" stroke-width="0.5" stroke="black" fill="red"/>
  <circle cx="326.734" cy="162.424" r="3.22175" stroke-width="0.5" stroke="red" fill="red"/>
   </g>
   <g id="cell619">
  <circle cx="168.517" cy="139.808" r="8.29808" stroke-width="0.5" stroke="black" fill="red"/>
  <circle cx="168.517" cy="139.808" r="4.85838" stroke-width="0.5" stroke="red" fill="red"/>
   </g>
   <g id="cell626">
  <circle cx="219.797" cy="185.436" r="7.88215" stroke-width="0.5" stroke="black" fill="red"/>
  <circle cx="219.797" cy="185.436" r="4.10779" stroke-width="0.5" stroke="red" fill="red"/>
   </g>
   <g id="cell627">
  <circle cx="233.379" cy="311.063" r="7.81899" stroke-width="0.5" stroke="black" fill="red"/>
  <circle cx="233.379" cy="311.063" r="3.98525" stroke-width="0.5" stroke="red" fill="red"/>
   </g>
   <g id="cell651">
  <circle cx="236.041" cy="273.891" r="6.50345" stroke-width="0.5" stroke="black" fill="red"/>
   </g>
   <g id="cell653">
  <circle cx="248.92" cy="101.439" r="3.49878" stroke-width="0.5" stroke="black" fill="red"/>
   </g>
   <g id="cell657">
  <circle cx="307.589" cy="124.841" r="7.95442" stroke-width="0.5" stroke="black" fill="red"/>
  <circle cx="307.589" cy="124.841" r="4.24481" stroke-width="0.5" stroke="red" fill="red"/>
   </g>
   <g id="cell675">
  <circle cx="383.432" cy="292.033" r="6.95013" stroke-width="0.5" stroke="black" fill="red"/>
  <circle cx="383.432" cy="292.033" r="1.74644" stroke-width="0.5" stroke="red" fill="red"/>
   </g>
   <g id="cell681">
  <circle cx="362.547" cy="317.563" r="8.24439" stroke-width="0.5" stroke="black" fill="red"/>
  <circle cx="362.547" cy="317.563" r="4.76609" stroke-width="0.5" stroke="red" fill="red"/>
   </g>
   <g id="cell683">
  <circle cx="355.881" cy="165.327" r="2.21406" stroke-width="0.5" stroke="black" fill="red"/>
   </g>
   <g id="cell685">
  <circle cx="204.417" cy="145.621" r="8.40267" stroke-width="0.5" stroke="black" fill="red"/>
  <circle cx="204.417" cy="145.621" r="5.03493" stroke-width="0.5" stroke="red" fill="red"/>
   </g>
   <g id="cell686">
  <circle cx="208.121" cy="223.742" r="5.20052" stroke-width="0.5" stroke="black" fill="red"/>
   </g>
   <g id="cell698">
  <circle cx="166.085" cy="325.813" r="7.33535" stroke-width="0.5" stroke="black" fill="red"/>
  <circle cx="166.085" cy="325.813" r="2.92457" stroke-width="0.5" stroke="red" fill="red"/>
   </g>
   <g id="cell704">
  <circle cx="184.166" cy="215.606" r="5.21523" stroke-width="0.5" stroke="black" fill="red"/>
   </g>
   <g id="cell710">
  <circle cx="250.485" cy="205.01" r="6.9527" stroke-width="0.5" stroke="black" fill="red"/>
  <circle cx="250.485" cy="205.01" r="1.75663" stroke-width="0.5" stroke="red" fill="red"/>
   </g>
   <g id="cell725">
  <circle cx="306.244" cy="72.5316" r="8.11654" stroke-width="0.5" stroke="black" fill="red"/>
  <circle cx="306.244" cy="72.5316" r="4.54135" stroke-width="0.5" stroke="red" fill="red"/>
   </g>
   <g id="cell726">
  <circle cx="264.891" cy="43.7657" r="8.08792" stroke-width="0.5" stroke="black" fill="red"/>
  <circle cx="264.891" cy="43.7657" r="4.49" stroke-width="0.5" stroke="red" fill="red"/>
   </g>
   <g id="cell733">
  <circle cx="313.444" cy="340.827" r="8.04679" stroke-width="0.5" stroke="black" fill="red"/>
  <circle cx="313.444" cy="340.827" r="4.41549" stroke-width="0.5" stroke="red" fill="red"/>
   </g>
   <g id="cell742">
  <circle cx="324.857" cy="96.9131" r="8.37658" stroke-width="0.5" stroke="black" fill="red"/>
  <circle cx="324.857" cy="96.9131" r="4.99126" stroke-width="0.5" stroke="red" fill="red"/>
   </g>
   <g id="cell744">
  <circle cx="294.748" cy="138.588" r="5.38957" stroke-width="0.5" stroke="black" fill="red"/>
   </g>
   <g id="cell746">
  <circle cx="306.961" cy="260.471" r="7.11991" stroke-width="0.5" stroke="black" fill="red"/>
  <circle cx="306.961" cy="260.471" r="2.33212" stroke-width="0.5" stroke="red" fill="red"/>
   </g>
   <g id="cell769">
  <circle cx="308.893" cy="186.234" r="3.3093" stroke-width="0.5" stroke="black" fill="red"/>
   </g>
   <g id="cell777">
  <circle cx="283.852" cy="239.606" r="7.25508" stroke-width="0.5" stroke="black" fill="red"/>
  <circle cx="283.852" cy="239.606" r="2.71697" stroke-width="0.5" stroke="red" fill="red"/>
   </g>
   <g id="cell783">
  <circle cx="291.206" cy="58.5716" r="5.05665" stroke-width="0.5" stroke="black" fill="red"/>
   </g>
   <g id="cell786">
  <circle cx="242.329" cy="259.44" r="5.87559" stroke-width="0.5" stroke="black" fill="red"/>
   </g>
   <g id="cell787">
  <circle cx="259.894" cy="210.118" r="2.76413" stroke-width="0.5" stroke="black" fill="red"/>
   </g>
   <g id="cell802">
  <circle cx="291.404" cy="101.927" r="4.2349" stroke-width="0.5" stroke="black" fill="red"/>
   </g>
   <g id="cell821">
  <circle cx="340.888" cy="280.948" r="7.81118" stroke-width="0.5" stroke="black" fill="red"/>
  <circle cx="340.888" cy="280.948" r="3.96992" stroke-width="0.5" stroke="red" fill="red"/>
   </g>
   <g id="cell831">
  <circle cx="180.095" cy="188.551" r="8.31863" stroke-width="0.5" stroke="black" fill="red"/>
  <circle cx="180.095" cy="188.551" r="4.89339" stroke-width="0.5" stroke="red" fill="red"/>
   </g>
   <g id="cell845">
  <circle cx="245.848" cy="101.031" r="5.00655" stroke-width="0.5" stroke="black" fill="red"/>
   </g>
   <g id="cell849">
  <circle cx="232.568" cy="159.906" r="4.46808" stroke-width="0.5" stroke="black" fill="red"/>
   </g>
   <g id="cell900">
  <circle cx="277.826" cy="287.908" r="7.79605" stroke-width="0.5" stroke="black" fill="red"/>
  <circle cx="277.826" cy="287.908" r="3.94007" stroke-width="0.5" stroke="red" fill="red"/>
   </g>
   <g id="cell913">
  <circle cx="297.211" cy="202.745" r="7.61683" stroke-width="0.5" stroke="black" fill="red"/>
  <circle cx="297.211" cy="202.745" r="3.57236" stroke-width="0.5" stroke="red" fill="red"/>
   </g>
   <g id="cell919">
  <circle cx="310.537" cy="139.138" r="4.79144" stroke-width="0.5" stroke="black" fill="red"/>
   </g>
  </g>
 </g>
  <rect x="190" y="414" width="200" height="4" stroke-width="0.8" stroke="rgb(255,255,255)" fill="rgb(0,0,0)"/>
  <text x="192.5" y="411.5"
   font-family="Arial" font-size="10" fill="black" >
   200 &#956;m
  </text>
  <text x="10" y="418"
   font-family="Arial" font-size="7.5" fill="black" >
   0 days, 0 hours, 19 minutes, and 11.2190 seconds
  </text>
  <rect x="0" y="28" width="400" height="400" stroke-width="0.8" stroke="rgb(0,0,0)" fill="none"/>
</svg>
