<?xml version="1.0" encoding="UTF-8" standalone="no"?>
<!-- Created with PhysiCell (http://PhysiCell.MathCancer.org/) -->
<svg 
 xmlns:dc="http://purl.org/dc/elements/1.1/" 
 xmlns:cc="http://creativecommons.org/ns#" 
 xmlns:rdf="http://www.w3.org/1999/02/22-rdf-syntax-ns#" 
 xmlns:svg="http://www.w3.org/2000/svg" 
 xmlns="http://www.w3.org/2000/svg" 
 version="1.1" 
 width="400" 
 height="428" 
 id="svg2">
  <rect x="0" y="0" width="400" height="428" stroke-width="0.8" stroke="white" fill="white"/>
  <text x="5" y="12"
   font-family="Arial" font-size="10" fill="black" >
   Current time: 2 days, 18 hours, and 0.00 minutes, z = 0.00 &#956;m
  </text>
  <text x="5" y="23"
   font-family="Arial" font-size="9.5" fill="black" >
   978 agents
  </text>
 <g id="tissue" 
    transform="translate(0,428) scale(1,-1)">
  <g id="ECM">
  </g>
  <g id="cells">
   <g id="cell4">
  <circle cx="140.959" cy="239.899" r="8.31064" stroke-width="0.5" stroke="black" fill="grey"/>
  <circle cx="140.959" cy="239.899" r="4.87979" stroke-width="0.5" stroke="grey" fill="grey"/>
   </g>
   <g id="cell30">
  <circle cx="119.434" cy="233.441" r="7.08836" stroke-width="0.5" stroke="black" fill="grey"/>
  <circle cx="119.434" cy="233.441" r="2.23396" stroke-width="0.5" stroke="grey" fill="grey"/>
   </g>
   <g id="cell71">
  <circle cx="91.141" cy="188.642" r="8.22451" stroke-width="0.5" stroke="black" fill="grey"/>
  <circle cx="91.141" cy="188.642" r="4.73162" stroke-width="0.5" stroke="grey" fill="grey"/>
   </g>
   <g id="cell88">
  <circle cx="152.089" cy="76.2085" r="8.16906" stroke-width="0.5" stroke="black" fill="grey"/>
  <circle cx="152.089" cy="76.2085" r="4.63457" stroke-width="0.5" stroke="grey" fill="grey"/>
   </g>
   <g id="cell141">
  <circle cx="82.8718" cy="101.246" r="7.8092" stroke-width="0.5" stroke="black" fill="grey"/>
  <circle cx="82.8718" cy="101.246" r="3.96602" stroke-width="0.5" stroke="grey" fill="grey"/>
   </g>
   <g id="cell147">
  <circle cx="84.6777" cy="116.572" r="8.34959" stroke-width="0.5" stroke="black" fill="grey"/>
  <circle cx="84.6777" cy="116.572" r="4.94585" stroke-width="0.5" stroke="grey" fill="grey"/>
   </g>
   <g id="cell171">
  <circle cx="58.0085" cy="349.602" r="6.54846" stroke-width="0.5" stroke="black" fill="grey"/>
   </g>
   <g id="cell174">
  <circle cx="147.421" cy="198.977" r="7.73524" stroke-width="0.5" stroke="black" fill="grey"/>
  <circle cx="147.421" cy="198.977" r="3.81832" stroke-width="0.5" stroke="grey" fill="grey"/>
   </g>
   <g id="cell196">
  <circle cx="89.4455" cy="238.75" r="8.41254" stroke-width="0.5" stroke="black" fill="grey"/>
  <circle cx="89.4455" cy="238.75" r="5.05139" stroke-width="0.5" stroke="grey" fill="grey"/>
   </g>
   <g id="cell199">
  <circle cx="39.0741" cy="182.65" r="8.30326" stroke-width="0.5" stroke="black" fill="grey"/>
  <circle cx="39.0741" cy="182.65" r="4.86721" stroke-width="0.5" stroke="grey" fill="grey"/>
   </g>
   <g id="cell204">
  <circle cx="49.2432" cy="173.958" r="8.34499" stroke-width="0.5" stroke="black" fill="grey"/>
  <circle cx="49.2432" cy="173.958" r="4.93808" stroke-width="0.5" stroke="grey" fill="grey"/>
   </g>
   <g id="cell205">
  <circle cx="15.6532" cy="159.214" r="7.64163" stroke-width="0.5" stroke="black" fill="grey"/>
  <circle cx="15.6532" cy="159.214" r="3.62494" stroke-width="0.5" stroke="grey" fill="grey"/>
   </g>
   <g id="cell217">
  <circle cx="91.4712" cy="214.294" r="4.20985" stroke-width="0.5" stroke="black" fill="grey"/>
   </g>
   <g id="cell218">
  <circle cx="61.7748" cy="274.526" r="8.32405" stroke-width="0.5" stroke="black" fill="grey"/>
  <circle cx="61.7748" cy="274.526" r="4.9026" stroke-width="0.5" stroke="grey" fill="grey"/>
   </g>
   <g id="cell226">
  <circle cx="83.172" cy="303.547" r="4.82103" stroke-width="0.5" stroke="black" fill="grey"/>
   </g>
   <g id="cell229">
  <circle cx="153.775" cy="105.307" r="7.04966" stroke-width="0.5" stroke="black" fill="grey"/>
  <circle cx="153.775" cy="105.307" r="2.10794" stroke-width="0.5" stroke="grey" fill="grey"/>
   </g>
   <g id="cell230">
  <circle cx="71.1267" cy="113.657" r="7.89406" stroke-width="0.5" stroke="black" fill="grey"/>
  <circle cx="71.1267" cy="113.657" r="4.13061" stroke-width="0.5" stroke="grey" fill="grey"/>
   </g>
   <g id="cell231">
  <circle cx="160.796" cy="190.429" r="8.16228" stroke-width="0.5" stroke="black" fill="grey"/>
  <circle cx="160.796" cy="190.429" r="4.62261" stroke-width="0.5" stroke="grey" fill="grey"/>
   </g>
   <g id="cell232">
  <circle cx="112.728" cy="202.46" r="8.21345" stroke-width="0.5" stroke="black" fill="grey"/>
  <circle cx="112.728" cy="202.46" r="4.71236" stroke-width="0.5" stroke="grey" fill="grey"/>
   </g>
   <g id="cell242">
  <circle cx="45.1104" cy="219.276" r="4.76422" stroke-width="0.5" stroke="black" fill="grey"/>
   </g>
   <g id="cell251">
  <circle cx="77.8134" cy="312.178" r="3.71856" stroke-width="0.5" stroke="black" fill="grey"/>
   </g>
   <g id="cell300">
  <circle cx="157.051" cy="281.42" r="7.90401" stroke-width="0.5" stroke="black" fill="grey"/>
  <circle cx="157.051" cy="281.42" r="4.14959" stroke-width="0.5" stroke="grey" fill="grey"/>
   </g>
   <g id="cell301">
  <circle cx="146.27" cy="252.694" r="7.9855" stroke-width="0.5" stroke="black" fill="grey"/>
  <circle cx="146.27" cy="252.694" r="4.30277" stroke-width="0.5" stroke="grey" fill="grey"/>
   </g>
   <g id="cell307">
  <circle cx="150.77" cy="215.873" r="8.3135" stroke-width="0.5" stroke="black" fill="grey"/>
  <circle cx="150.77" cy="215.873" r="4.88466" stroke-width="0.5" stroke="grey" fill="grey"/>
   </g>
   <g id="cell310">
  <circle cx="160.958" cy="333.29" r="7.18754" stroke-width="0.5" stroke="black" fill="grey"/>
  <circle cx="160.958" cy="333.29" r="2.53109" stroke-width="0.5" stroke="grey" fill="grey"/>
   </g>
   <g id="cell328">
  <circle cx="172.187" cy="133.388" r="7.29758" stroke-width="0.5" stroke="black" fill="grey"/>
  <circle cx="172.187" cy="133.388" r="2.82849" stroke-width="0.5" stroke="grey" fill="grey"/>
   </g>
   <g id="cell346">
  <circle cx="61.1207" cy="292.358" r="7.3981" stroke-width="0.5" stroke="black" fill="grey"/>
  <circle cx="61.1207" cy="292.358" r="3.07855" stroke-width="0.5" stroke="grey" fill="grey"/>
   </g>
   <g id="cell359">
  <circle cx="175.692" cy="220.569" r="7.68911" stroke-width="0.5" stroke="black" fill="grey"/>
  <circle cx="175.692" cy="220.569" r="3.724" stroke-width="0.5" stroke="grey" fill="grey"/>
   </g>
   <g id="cell375">
  <circle cx="153.196" cy="175.53" r="8.41204" stroke-width="0.5" stroke="black" fill="grey"/>
  <circle cx="153.196" cy="175.53" r="5.05055" stroke-width="0.5" stroke="grey" fill="grey"/>
   </g>
   <g id="cell378">
  <circle cx="141.866" cy="315.473" r="6.70355" stroke-width="0.5" stroke="black" fill="grey"/>
   </g>
   <g id="cell389">
  <circle cx="234.741" cy="55.5345" r="3.29406" stroke-width="0.5" stroke="black" fill="grey"/>
   </g>
   <g id="cell397">
  <circle cx="163.393" cy="250.966" r="8.40342" stroke-width="0.5" stroke="black" fill="grey"/>
  <circle cx="163.393" cy="250.966" r="5.03619" stroke-width="0.5" stroke="grey" fill="grey"/>
   </g>
   <g id="cell405">
  <circle cx="132.814" cy="172.371" r="8.29057" stroke-width="0.5" stroke="black" fill="grey"/>
  <circle cx="132.814" cy="172.371" r="4.84554" stroke-width="0.5" stroke="grey" fill="grey"/>
   </g>
   <g id="cell423">
  <circle cx="61.8033" cy="241.061" r="8.27423" stroke-width="0.5" stroke="black" fill="grey"/>
  <circle cx="61.8033" cy="241.061" r="4.81753" stroke-width="0.5" stroke="grey" fill="grey"/>
   </g>
   <g id="cell477">
  <circle cx="119.943" cy="214.137" r="2.46586" stroke-width="0.5" stroke="black" fill="grey"/>
   </g>
   <g id="cell523">
  <circle cx="208.68" cy="244.869" r="8.27761" stroke-width="0.5" stroke="black" fill="red"/>
  <circle cx="208.68" cy="244.869" r="4.82334" stroke-width="0.5" stroke="red" fill="red"/>
   </g>
   <g id="cell535">
  <circle cx="218.784" cy="297.096" r="8.36773" stroke-width="0.5" stroke="black" fill="red"/>
  <circle cx="218.784" cy="297.096" r="4.97641" stroke-width="0.5" stroke="red" fill="red"/>
   </g>
   <g id="cell556">
  <circle cx="354.331" cy="180.546" r="3.45982" stroke-width="0.5" stroke="black" fill="red"/>
   </g>
   <g id="cell558">
  <circle cx="285.055" cy="226.248" r="8.01012" stroke-width="0.5" stroke="black" fill="red"/>
  <circle cx="285.055" cy="226.248" r="4.34829" stroke-width="0.5" stroke="red" fill="red"/>
   </g>
   <g id="cell559">
  <circle cx="244.308" cy="238.882" r="7.61888" stroke-width="0.5" stroke="black" fill="red"/>
  <circle cx="244.308" cy="238.882" r="3.57674" stroke-width="0.5" stroke="red" fill="red"/>
   </g>
   <g id="cell573">
  <circle cx="267.203" cy="260.413" r="6.08104" stroke-width="0.5" stroke="black" fill="red"/>
   </g>
   <g id="cell614">
  <circle cx="322.482" cy="149.386" r="7.82132" stroke-width="0.5" stroke="black" fill="red"/>
  <circle cx="322.482" cy="149.386" r="3.98982" stroke-width="0.5" stroke="red" fill="red"/>
   </g>
   <g id="cell626">
  <circle cx="216.596" cy="193.176" r="3.95425" stroke-width="0.5" stroke="black" fill="red"/>
   </g>
   <g id="cell651">
  <circle cx="225.492" cy="284.53" r="5.18497" stroke-width="0.5" stroke="black" fill="red"/>
   </g>
   <g id="cell653">
  <circle cx="249.312" cy="99.4073" r="7.96404" stroke-width="0.5" stroke="black" fill="red"/>
  <circle cx="249.312" cy="99.4073" r="4.26281" stroke-width="0.5" stroke="red" fill="red"/>
   </g>
   <g id="cell659">
  <circle cx="324.236" cy="252.111" r="8.14264" stroke-width="0.5" stroke="black" fill="red"/>
  <circle cx="324.236" cy="252.111" r="4.58784" stroke-width="0.5" stroke="red" fill="red"/>
   </g>
   <g id="cell669">
  <circle cx="370.8" cy="137.677" r="8.41168" stroke-width="0.5" stroke="black" fill="red"/>
  <circle cx="370.8" cy="137.677" r="5.04995" stroke-width="0.5" stroke="red" fill="red"/>
   </g>
   <g id="cell675">
  <circle cx="389.685" cy="312.718" r="5.96211" stroke-width="0.5" stroke="black" fill="red"/>
   </g>
   <g id="cell678">
  <circle cx="274.98" cy="157.278" r="6.24675" stroke-width="0.5" stroke="black" fill="red"/>
   </g>
   <g id="cell681">
  <circle cx="373.944" cy="308.224" r="4.92221" stroke-width="0.5" stroke="black" fill="red"/>
   </g>
   <g id="cell698">
  <circle cx="164.659" cy="315.517" r="5.80058" stroke-width="0.5" stroke="black" fill="red"/>
   </g>
   <g id="cell710">
  <circle cx="247.28" cy="196.086" r="3.91155" stroke-width="0.5" stroke="black" fill="red"/>
   </g>
   <g id="cell711">
  <circle cx="294.873" cy="185.509" r="4.7389" stroke-width="0.5" stroke="black" fill="red"/>
   </g>
   <g id="cell714">
  <circle cx="313.571" cy="169.741" r="8.03292" stroke-width="0.5" stroke="black" fill="red"/>
  <circle cx="313.571" cy="169.741" r="4.39016" stroke-width="0.5" stroke="red" fill="red"/>
   </g>
   <g id="cell733">
  <circle cx="310.947" cy="339.817" r="8.25309" stroke-width="0.5" stroke="black" fill="red"/>
  <circle cx="310.947" cy="339.817" r="4.78113" stroke-width="0.5" stroke="red" fill="red"/>
   </g>
   <g id="cell746">
  <circle cx="306.35" cy="246.392" r="7.88035" stroke-width="0.5" stroke="black" fill="red"/>
  <circle cx="306.35" cy="246.392" r="4.10434" stroke-width="0.5" stroke="red" fill="red"/>
   </g>
   <g id="cell777">
  <circle cx="279.995" cy="241.638" r="7.52199" stroke-width="0.5" stroke="black" fill="red"/>
  <circle cx="279.995" cy="241.638" r="3.36541" stroke-width="0.5" stroke="red" fill="red"/>
   </g>
   <g id="cell787">
  <circle cx="264.548" cy="213.984" r="8.37012" stroke-width="0.5" stroke="black" fill="red"/>
  <circle cx="264.548" cy="213.984" r="4.98042" stroke-width="0.5" stroke="red" fill="red"/>
   </g>
   <g id="cell802">
  <circle cx="286.197" cy="93.773" r="4.16633" stroke-width="0.5" stroke="black" fill="red"/>
   </g>
   <g id="cell812">
  <circle cx="366.585" cy="167.978" r="3.97425" stroke-width="0.5" stroke="black" fill="red"/>
   </g>
   <g id="cell821">
  <circle cx="342.158" cy="278.482" r="8.40205" stroke-width="0.5" stroke="black" fill="red"/>
  <circle cx="342.158" cy="278.482" r="5.0339" stroke-width="0.5" stroke="red" fill="red"/>
   </g>
   <g id="cell831">
  <circle cx="185.36" cy="187.593" r="7.10809" stroke-width="0.5" stroke="black" fill="red"/>
  <circle cx="185.36" cy="187.593" r="2.29578" stroke-width="0.5" stroke="red" fill="red"/>
   </g>
   <g id="cell845">
  <circle cx="239.066" cy="95.1172" r="5.67326" stroke-width="0.5" stroke="black" fill="red"/>
   </g>
   <g id="cell849">
  <circle cx="233.465" cy="163.308" r="8.22552" stroke-width="0.5" stroke="black" fill="red"/>
  <circle cx="233.465" cy="163.308" r="4.73338" stroke-width="0.5" stroke="red" fill="red"/>
   </g>
   <g id="cell900">
  <circle cx="274.271" cy="275.488" r="8.32791" stroke-width="0.5" stroke="black" fill="red"/>
  <circle cx="274.271" cy="275.488" r="4.90916" stroke-width="0.5" stroke="red" fill="red"/>
   </g>
   <g id="cell913">
  <circle cx="296.485" cy="195.045" r="7.63899" stroke-width="0.5" stroke="black" fill="red"/>
  <circle cx="296.485" cy="195.045" r="3.61938" stroke-width="0.5" stroke="red" fill="red"/>
   </g>
   <g id="cell935">
  <circle cx="321.371" cy="293.416" r="7.74393" stroke-width="0.5" stroke="black" fill="red"/>
  <circle cx="321.371" cy="293.416" r="3.83589" stroke-width="0.5" stroke="red" fill="red"/>
   </g>
  </g>
 </g>
  <rect x="190" y="414" width="200" height="4" stroke-width="0.8" stroke="rgb(255,255,255)" fill="rgb(0,0,0)"/>
  <text x="192.5" y="411.5"
   font-family="Arial" font-size="10" fill="black" >
   200 &#956;m
  </text>
  <text x="10" y="418"
   font-family="Arial" font-size="7.5" fill="black" >
   0 days, 0 hours, 19 minutes, and 35.5382 seconds
  </text>
  <rect x="0" y="28" width="400" height="400" stroke-width="0.8" stroke="rgb(0,0,0)" fill="none"/>
</svg>
