<?xml version="1.0" encoding="UTF-8" standalone="no"?>
<!-- Created with PhysiCell (http://PhysiCell.MathCancer.org/) -->
<svg 
 xmlns:dc="http://purl.org/dc/elements/1.1/" 
 xmlns:cc="http://creativecommons.org/ns#" 
 xmlns:rdf="http://www.w3.org/1999/02/22-rdf-syntax-ns#" 
 xmlns:svg="http://www.w3.org/2000/svg" 
 xmlns="http://www.w3.org/2000/svg" 
 version="1.1" 
 width="400" 
 height="428" 
 id="svg2">
  <rect x="0" y="0" width="400" height="428" stroke-width="0.8" stroke="white" fill="white"/>
  <text x="5" y="12"
   font-family="Arial" font-size="10" fill="black" >
   Current time: 1 days, 16 hours, and 0.00 minutes, z = 0.00 &#956;m
  </text>
  <text x="5" y="23"
   font-family="Arial" font-size="9.5" fill="black" >
   978 agents
  </text>
 <g id="tissue" 
    transform="translate(0,428) scale(1,-1)">
  <g id="ECM">
  </g>
  <g id="cells">
   <g id="cell25">
  <circle cx="70.5416" cy="157.092" r="8.21655" stroke-width="0.5" stroke="black" fill="grey"/>
  <circle cx="70.5416" cy="157.092" r="4.71777" stroke-width="0.5" stroke="grey" fill="grey"/>
   </g>
   <g id="cell35">
  <circle cx="179.635" cy="127.631" r="8.2894" stroke-width="0.5" stroke="black" fill="grey"/>
  <circle cx="179.635" cy="127.631" r="4.84354" stroke-width="0.5" stroke="grey" fill="grey"/>
   </g>
   <g id="cell36">
  <circle cx="89.5142" cy="164.7" r="8.29812" stroke-width="0.5" stroke="black" fill="grey"/>
  <circle cx="89.5142" cy="164.7" r="4.85844" stroke-width="0.5" stroke="grey" fill="grey"/>
   </g>
   <g id="cell71">
  <circle cx="70.3047" cy="192.014" r="3.98999" stroke-width="0.5" stroke="black" fill="grey"/>
   </g>
   <g id="cell93">
  <circle cx="60.8939" cy="252.935" r="8.33314" stroke-width="0.5" stroke="black" fill="grey"/>
  <circle cx="60.8939" cy="252.935" r="4.91802" stroke-width="0.5" stroke="grey" fill="grey"/>
   </g>
   <g id="cell102">
  <circle cx="68.5945" cy="226.117" r="8.41267" stroke-width="0.5" stroke="black" fill="grey"/>
  <circle cx="68.5945" cy="226.117" r="5.0516" stroke-width="0.5" stroke="grey" fill="grey"/>
   </g>
   <g id="cell120">
  <circle cx="183.743" cy="168.802" r="8.01272" stroke-width="0.5" stroke="black" fill="grey"/>
  <circle cx="183.743" cy="168.802" r="4.35308" stroke-width="0.5" stroke="grey" fill="grey"/>
   </g>
   <g id="cell135">
  <circle cx="77.1658" cy="187.238" r="3.38882" stroke-width="0.5" stroke="black" fill="grey"/>
   </g>
   <g id="cell145">
  <circle cx="117.731" cy="226.695" r="4.19661" stroke-width="0.5" stroke="black" fill="grey"/>
   </g>
   <g id="cell164">
  <circle cx="123.015" cy="155.159" r="2.71808" stroke-width="0.5" stroke="black" fill="grey"/>
   </g>
   <g id="cell173">
  <circle cx="125.594" cy="107.139" r="2.00416" stroke-width="0.5" stroke="black" fill="grey"/>
   </g>
   <g id="cell174">
  <circle cx="168.528" cy="171.963" r="8.36568" stroke-width="0.5" stroke="black" fill="grey"/>
  <circle cx="168.528" cy="171.963" r="4.97295" stroke-width="0.5" stroke="grey" fill="grey"/>
   </g>
   <g id="cell178">
  <circle cx="107.166" cy="215.285" r="3.50095" stroke-width="0.5" stroke="black" fill="grey"/>
   </g>
   <g id="cell181">
  <circle cx="138.3" cy="88.0103" r="8.30989" stroke-width="0.5" stroke="black" fill="grey"/>
  <circle cx="138.3" cy="88.0103" r="4.87852" stroke-width="0.5" stroke="grey" fill="grey"/>
   </g>
   <g id="cell191">
  <circle cx="196.841" cy="217.748" r="7.17476" stroke-width="0.5" stroke="black" fill="grey"/>
  <circle cx="196.841" cy="217.748" r="2.49458" stroke-width="0.5" stroke="grey" fill="grey"/>
   </g>
   <g id="cell197">
  <circle cx="99.972" cy="257.443" r="5.80517" stroke-width="0.5" stroke="black" fill="grey"/>
   </g>
   <g id="cell211">
  <circle cx="71.1399" cy="128.448" r="7.61056" stroke-width="0.5" stroke="black" fill="grey"/>
  <circle cx="71.1399" cy="128.448" r="3.55898" stroke-width="0.5" stroke="grey" fill="grey"/>
   </g>
   <g id="cell220">
  <circle cx="78.966" cy="173.356" r="2.31829" stroke-width="0.5" stroke="black" fill="grey"/>
   </g>
   <g id="cell225">
  <circle cx="133.443" cy="255.724" r="6.39649" stroke-width="0.5" stroke="black" fill="grey"/>
   </g>
   <g id="cell252">
  <circle cx="150.506" cy="237.239" r="5.68215" stroke-width="0.5" stroke="black" fill="grey"/>
   </g>
   <g id="cell261">
  <circle cx="203.268" cy="151.587" r="5.09093" stroke-width="0.5" stroke="black" fill="grey"/>
   </g>
   <g id="cell279">
  <circle cx="104.07" cy="166.93" r="7.35546" stroke-width="0.5" stroke="black" fill="grey"/>
  <circle cx="104.07" cy="166.93" r="2.97465" stroke-width="0.5" stroke="grey" fill="grey"/>
   </g>
   <g id="cell281">
  <circle cx="107.244" cy="146.51" r="8.38734" stroke-width="0.5" stroke="black" fill="grey"/>
  <circle cx="107.244" cy="146.51" r="5.00931" stroke-width="0.5" stroke="grey" fill="grey"/>
   </g>
   <g id="cell288">
  <circle cx="81.9695" cy="137.882" r="8.30986" stroke-width="0.5" stroke="black" fill="grey"/>
  <circle cx="81.9695" cy="137.882" r="4.87848" stroke-width="0.5" stroke="grey" fill="grey"/>
   </g>
   <g id="cell292">
  <circle cx="112.224" cy="241.042" r="8.38084" stroke-width="0.5" stroke="black" fill="grey"/>
  <circle cx="112.224" cy="241.042" r="4.99841" stroke-width="0.5" stroke="grey" fill="grey"/>
   </g>
   <g id="cell298">
  <circle cx="105.028" cy="193.199" r="3.18558" stroke-width="0.5" stroke="black" fill="grey"/>
   </g>
   <g id="cell309">
  <circle cx="165.962" cy="186.164" r="7.49628" stroke-width="0.5" stroke="black" fill="grey"/>
  <circle cx="165.962" cy="186.164" r="3.30754" stroke-width="0.5" stroke="grey" fill="grey"/>
   </g>
   <g id="cell310">
  <circle cx="157.147" cy="338.351" r="7.63083" stroke-width="0.5" stroke="black" fill="grey"/>
  <circle cx="157.147" cy="338.351" r="3.60212" stroke-width="0.5" stroke="grey" fill="grey"/>
   </g>
   <g id="cell314">
  <circle cx="165.286" cy="221.439" r="7.20403" stroke-width="0.5" stroke="black" fill="grey"/>
  <circle cx="165.286" cy="221.439" r="2.57754" stroke-width="0.5" stroke="grey" fill="grey"/>
   </g>
   <g id="cell322">
  <circle cx="180.124" cy="217.727" r="8.31206" stroke-width="0.5" stroke="black" fill="grey"/>
  <circle cx="180.124" cy="217.727" r="4.88221" stroke-width="0.5" stroke="grey" fill="grey"/>
   </g>
   <g id="cell331">
  <circle cx="176.23" cy="234.427" r="8.22892" stroke-width="0.5" stroke="black" fill="grey"/>
  <circle cx="176.23" cy="234.427" r="4.73929" stroke-width="0.5" stroke="grey" fill="grey"/>
   </g>
   <g id="cell354">
  <circle cx="150.745" cy="280.139" r="8.16094" stroke-width="0.5" stroke="black" fill="grey"/>
  <circle cx="150.745" cy="280.139" r="4.62024" stroke-width="0.5" stroke="grey" fill="grey"/>
   </g>
   <g id="cell359">
  <circle cx="136.389" cy="243.68" r="7.93115" stroke-width="0.5" stroke="black" fill="grey"/>
  <circle cx="136.389" cy="243.68" r="4.20105" stroke-width="0.5" stroke="grey" fill="grey"/>
   </g>
   <g id="cell375">
  <circle cx="143.832" cy="165.149" r="5.28211" stroke-width="0.5" stroke="black" fill="grey"/>
   </g>
   <g id="cell394">
  <circle cx="202.76" cy="308.735" r="8.41251" stroke-width="0.5" stroke="black" fill="grey"/>
  <circle cx="202.76" cy="308.735" r="5.05134" stroke-width="0.5" stroke="grey" fill="grey"/>
   </g>
   <g id="cell435">
  <circle cx="167.585" cy="101.802" r="6.84888" stroke-width="0.5" stroke="black" fill="grey"/>
  <circle cx="167.585" cy="101.802" r="1.28562" stroke-width="0.5" stroke="grey" fill="grey"/>
   </g>
   <g id="cell437">
  <circle cx="130.745" cy="215.414" r="2.63199" stroke-width="0.5" stroke="black" fill="grey"/>
   </g>
   <g id="cell481">
  <circle cx="248.802" cy="190.378" r="4.12233" stroke-width="0.5" stroke="black" fill="grey"/>
   </g>
   <g id="cell536">
  <circle cx="205.992" cy="249.183" r="1.95371" stroke-width="0.5" stroke="black" fill="red"/>
   </g>
   <g id="cell558">
  <circle cx="249.676" cy="177.69" r="5.15661" stroke-width="0.5" stroke="black" fill="red"/>
   </g>
   <g id="cell566">
  <circle cx="214.309" cy="190.116" r="4.30076" stroke-width="0.5" stroke="black" fill="red"/>
   </g>
   <g id="cell600">
  <circle cx="293.536" cy="139.904" r="7.38154" stroke-width="0.5" stroke="black" fill="red"/>
  <circle cx="293.536" cy="139.904" r="3.03854" stroke-width="0.5" stroke="red" fill="red"/>
   </g>
   <g id="cell606">
  <circle cx="336.548" cy="223.91" r="8.24386" stroke-width="0.5" stroke="black" fill="red"/>
  <circle cx="336.548" cy="223.91" r="4.76518" stroke-width="0.5" stroke="red" fill="red"/>
   </g>
   <g id="cell613">
  <circle cx="354.472" cy="208.942" r="7.66293" stroke-width="0.5" stroke="black" fill="red"/>
  <circle cx="354.472" cy="208.942" r="3.66962" stroke-width="0.5" stroke="red" fill="red"/>
   </g>
   <g id="cell614">
  <circle cx="338.125" cy="173.161" r="8.38064" stroke-width="0.5" stroke="black" fill="red"/>
  <circle cx="338.125" cy="173.161" r="4.99807" stroke-width="0.5" stroke="red" fill="red"/>
   </g>
   <g id="cell625">
  <circle cx="226.558" cy="164.276" r="8.21527" stroke-width="0.5" stroke="black" fill="red"/>
  <circle cx="226.558" cy="164.276" r="4.71555" stroke-width="0.5" stroke="red" fill="red"/>
   </g>
   <g id="cell627">
  <circle cx="236.501" cy="289.045" r="4.49184" stroke-width="0.5" stroke="black" fill="red"/>
   </g>
   <g id="cell630">
  <circle cx="140.154" cy="121.26" r="4.95554" stroke-width="0.5" stroke="black" fill="red"/>
   </g>
   <g id="cell633">
  <circle cx="250.082" cy="238.77" r="8.1316" stroke-width="0.5" stroke="black" fill="red"/>
  <circle cx="250.082" cy="238.77" r="4.56821" stroke-width="0.5" stroke="red" fill="red"/>
   </g>
   <g id="cell635">
  <circle cx="226.988" cy="299.58" r="6.02985" stroke-width="0.5" stroke="black" fill="red"/>
   </g>
   <g id="cell646">
  <circle cx="305.93" cy="187.298" r="8.02609" stroke-width="0.5" stroke="black" fill="red"/>
  <circle cx="305.93" cy="187.298" r="4.37766" stroke-width="0.5" stroke="red" fill="red"/>
   </g>
   <g id="cell647">
  <circle cx="317.023" cy="206.905" r="6.9895" stroke-width="0.5" stroke="black" fill="red"/>
  <circle cx="317.023" cy="206.905" r="1.89704" stroke-width="0.5" stroke="red" fill="red"/>
   </g>
   <g id="cell668">
  <circle cx="302.068" cy="238.975" r="7.30965" stroke-width="0.5" stroke="black" fill="red"/>
  <circle cx="302.068" cy="238.975" r="2.85949" stroke-width="0.5" stroke="red" fill="red"/>
   </g>
   <g id="cell685">
  <circle cx="210.308" cy="213.086" r="7.62913" stroke-width="0.5" stroke="black" fill="red"/>
  <circle cx="210.308" cy="213.086" r="3.59852" stroke-width="0.5" stroke="red" fill="red"/>
   </g>
   <g id="cell692">
  <circle cx="155.204" cy="257.622" r="3.38941" stroke-width="0.5" stroke="black" fill="red"/>
   </g>
   <g id="cell702">
  <circle cx="237.955" cy="206.35" r="4.06874" stroke-width="0.5" stroke="black" fill="red"/>
   </g>
   <g id="cell705">
  <circle cx="265.244" cy="224.455" r="6.60004" stroke-width="0.5" stroke="black" fill="red"/>
   </g>
   <g id="cell706">
  <circle cx="205.803" cy="232.697" r="8.37798" stroke-width="0.5" stroke="black" fill="red"/>
  <circle cx="205.803" cy="232.697" r="4.99361" stroke-width="0.5" stroke="red" fill="red"/>
   </g>
   <g id="cell709">
  <circle cx="217.819" cy="119.753" r="2.33216" stroke-width="0.5" stroke="black" fill="red"/>
   </g>
   <g id="cell725">
  <circle cx="267.168" cy="91.9157" r="6.79055" stroke-width="0.5" stroke="black" fill="red"/>
  <circle cx="267.168" cy="91.9157" r="0.925914" stroke-width="0.5" stroke="red" fill="red"/>
   </g>
   <g id="cell731">
  <circle cx="289.923" cy="271.065" r="8.1946" stroke-width="0.5" stroke="black" fill="red"/>
  <circle cx="289.923" cy="271.065" r="4.67944" stroke-width="0.5" stroke="red" fill="red"/>
   </g>
   <g id="cell741">
  <circle cx="295.532" cy="355.789" r="4.51503" stroke-width="0.5" stroke="black" fill="red"/>
   </g>
   <g id="cell743">
  <circle cx="391.854" cy="187.297" r="8.41265" stroke-width="0.5" stroke="black" fill="red"/>
  <circle cx="391.854" cy="187.297" r="5.05158" stroke-width="0.5" stroke="red" fill="red"/>
   </g>
   <g id="cell745">
  <circle cx="344.791" cy="131.623" r="7.91661" stroke-width="0.5" stroke="black" fill="red"/>
  <circle cx="344.791" cy="131.623" r="4.17354" stroke-width="0.5" stroke="red" fill="red"/>
   </g>
   <g id="cell752">
  <circle cx="323.222" cy="249.223" r="6.07667" stroke-width="0.5" stroke="black" fill="red"/>
   </g>
   <g id="cell760">
  <circle cx="182.252" cy="266.377" r="4.90332" stroke-width="0.5" stroke="black" fill="red"/>
   </g>
   <g id="cell763">
  <circle cx="223.519" cy="209.573" r="6.91251" stroke-width="0.5" stroke="black" fill="red"/>
  <circle cx="223.519" cy="209.573" r="1.5901" stroke-width="0.5" stroke="red" fill="red"/>
   </g>
   <g id="cell771">
  <circle cx="201.198" cy="194.769" r="4.98003" stroke-width="0.5" stroke="black" fill="red"/>
   </g>
   <g id="cell787">
  <circle cx="260.655" cy="142.687" r="8.41105" stroke-width="0.5" stroke="black" fill="red"/>
  <circle cx="260.655" cy="142.687" r="5.04891" stroke-width="0.5" stroke="red" fill="red"/>
   </g>
   <g id="cell802">
  <circle cx="310.144" cy="131.8" r="8.21235" stroke-width="0.5" stroke="black" fill="red"/>
  <circle cx="310.144" cy="131.8" r="4.71046" stroke-width="0.5" stroke="red" fill="red"/>
   </g>
   <g id="cell810">
  <circle cx="309.913" cy="149.774" r="8.36275" stroke-width="0.5" stroke="black" fill="red"/>
  <circle cx="309.913" cy="149.774" r="4.96803" stroke-width="0.5" stroke="red" fill="red"/>
   </g>
   <g id="cell812">
  <circle cx="388.503" cy="171.611" r="2.05134" stroke-width="0.5" stroke="black" fill="red"/>
   </g>
   <g id="cell821">
  <circle cx="390.285" cy="281.386" r="4.40479" stroke-width="0.5" stroke="black" fill="red"/>
   </g>
   <g id="cell832">
  <circle cx="170.312" cy="207.272" r="3.09975" stroke-width="0.5" stroke="black" fill="red"/>
   </g>
   <g id="cell843">
  <circle cx="259.337" cy="281.65" r="8.17261" stroke-width="0.5" stroke="black" fill="red"/>
  <circle cx="259.337" cy="281.65" r="4.64083" stroke-width="0.5" stroke="red" fill="red"/>
   </g>
   <g id="cell845">
  <circle cx="249.126" cy="123.583" r="7.31586" stroke-width="0.5" stroke="black" fill="red"/>
  <circle cx="249.126" cy="123.583" r="2.87533" stroke-width="0.5" stroke="red" fill="red"/>
   </g>
   <g id="cell846">
  <circle cx="263.265" cy="165.75" r="8.15505" stroke-width="0.5" stroke="black" fill="red"/>
  <circle cx="263.265" cy="165.75" r="4.60982" stroke-width="0.5" stroke="red" fill="red"/>
   </g>
   <g id="cell861">
  <circle cx="254.171" cy="45.8891" r="7.45987" stroke-width="0.5" stroke="black" fill="red"/>
  <circle cx="254.171" cy="45.8891" r="3.22419" stroke-width="0.5" stroke="red" fill="red"/>
   </g>
   <g id="cell867">
  <circle cx="260.607" cy="252.703" r="7.89324" stroke-width="0.5" stroke="black" fill="red"/>
  <circle cx="260.607" cy="252.703" r="4.12903" stroke-width="0.5" stroke="red" fill="red"/>
   </g>
   <g id="cell870">
  <circle cx="326.726" cy="141.525" r="8.23232" stroke-width="0.5" stroke="black" fill="red"/>
  <circle cx="326.726" cy="141.525" r="4.74519" stroke-width="0.5" stroke="red" fill="red"/>
   </g>
   <g id="cell872">
  <circle cx="323.579" cy="165.296" r="8.3025" stroke-width="0.5" stroke="black" fill="red"/>
  <circle cx="323.579" cy="165.296" r="4.86593" stroke-width="0.5" stroke="red" fill="red"/>
   </g>
   <g id="cell882">
  <circle cx="299.576" cy="291.42" r="2.86809" stroke-width="0.5" stroke="black" fill="red"/>
   </g>
   <g id="cell899">
  <circle cx="212.4" cy="297.266" r="7.92028" stroke-width="0.5" stroke="black" fill="red"/>
  <circle cx="212.4" cy="297.266" r="4.18048" stroke-width="0.5" stroke="red" fill="red"/>
   </g>
   <g id="cell907">
  <circle cx="240.343" cy="273.005" r="8.33903" stroke-width="0.5" stroke="black" fill="red"/>
  <circle cx="240.343" cy="273.005" r="4.92799" stroke-width="0.5" stroke="red" fill="red"/>
   </g>
   <g id="cell913">
  <circle cx="255.189" cy="207.759" r="2.84599" stroke-width="0.5" stroke="black" fill="red"/>
   </g>
   <g id="cell925">
  <circle cx="301.943" cy="172.249" r="8.00395" stroke-width="0.5" stroke="black" fill="red"/>
  <circle cx="301.943" cy="172.249" r="4.33691" stroke-width="0.5" stroke="red" fill="red"/>
   </g>
   <g id="cell935">
  <circle cx="324.579" cy="266.121" r="4.01561" stroke-width="0.5" stroke="black" fill="red"/>
   </g>
  </g>
 </g>
  <rect x="190" y="414" width="200" height="4" stroke-width="0.8" stroke="rgb(255,255,255)" fill="rgb(0,0,0)"/>
  <text x="192.5" y="411.5"
   font-family="Arial" font-size="10" fill="black" >
   200 &#956;m
  </text>
  <text x="10" y="418"
   font-family="Arial" font-size="7.5" fill="black" >
   0 days, 0 hours, 12 minutes, and 16.6068 seconds
  </text>
  <rect x="0" y="28" width="400" height="400" stroke-width="0.8" stroke="rgb(0,0,0)" fill="none"/>
</svg>
