<?xml version="1.0" encoding="UTF-8" standalone="no"?>
<!-- Created with PhysiCell (http://PhysiCell.MathCancer.org/) -->
<svg 
 xmlns:dc="http://purl.org/dc/elements/1.1/" 
 xmlns:cc="http://creativecommons.org/ns#" 
 xmlns:rdf="http://www.w3.org/1999/02/22-rdf-syntax-ns#" 
 xmlns:svg="http://www.w3.org/2000/svg" 
 xmlns="http://www.w3.org/2000/svg" 
 version="1.1" 
 width="400" 
 height="428" 
 id="svg2">
  <rect x="0" y="0" width="400" height="428" stroke-width="0.8" stroke="white" fill="white"/>
  <text x="5" y="12"
   font-family="Arial" font-size="10" fill="black" >
   Current time: 0 days, 16 hours, and 0.00 minutes, z = 0.00 &#956;m
  </text>
  <text x="5" y="23"
   font-family="Arial" font-size="9.5" fill="black" >
   978 agents
  </text>
 <g id="tissue" 
    transform="translate(0,428) scale(1,-1)">
  <g id="ECM">
  </g>
  <g id="cells">
   <g id="cell82">
  <circle cx="86.1945" cy="151.004" r="7.13353" stroke-width="0.5" stroke="black" fill="grey"/>
  <circle cx="86.1945" cy="151.004" r="2.37337" stroke-width="0.5" stroke="grey" fill="grey"/>
   </g>
   <g id="cell96">
  <circle cx="139.144" cy="77.2026" r="4.10824" stroke-width="0.5" stroke="black" fill="grey"/>
   </g>
   <g id="cell110">
  <circle cx="137.515" cy="260.918" r="5.86794" stroke-width="0.5" stroke="black" fill="grey"/>
   </g>
   <g id="cell129">
  <circle cx="44.9032" cy="184.67" r="8.41056" stroke-width="0.5" stroke="black" fill="grey"/>
  <circle cx="44.9032" cy="184.67" r="5.04809" stroke-width="0.5" stroke="grey" fill="grey"/>
   </g>
   <g id="cell135">
  <circle cx="58.5298" cy="190.506" r="8.25876" stroke-width="0.5" stroke="black" fill="grey"/>
  <circle cx="58.5298" cy="190.506" r="4.7909" stroke-width="0.5" stroke="grey" fill="grey"/>
   </g>
   <g id="cell137">
  <circle cx="66.9704" cy="215.583" r="7.76549" stroke-width="0.5" stroke="black" fill="grey"/>
  <circle cx="66.9704" cy="215.583" r="3.87924" stroke-width="0.5" stroke="grey" fill="grey"/>
   </g>
   <g id="cell139">
  <circle cx="72.3863" cy="244.221" r="6.02157" stroke-width="0.5" stroke="black" fill="grey"/>
   </g>
   <g id="cell145">
  <circle cx="110.223" cy="228.538" r="6.45523" stroke-width="0.5" stroke="black" fill="grey"/>
   </g>
   <g id="cell150">
  <circle cx="117.232" cy="212.796" r="8.41216" stroke-width="0.5" stroke="black" fill="grey"/>
  <circle cx="117.232" cy="212.796" r="5.05075" stroke-width="0.5" stroke="grey" fill="grey"/>
   </g>
   <g id="cell155">
  <circle cx="133.377" cy="132.345" r="6.68895" stroke-width="0.5" stroke="black" fill="grey"/>
   </g>
   <g id="cell159">
  <circle cx="109.255" cy="197.681" r="8.34058" stroke-width="0.5" stroke="black" fill="grey"/>
  <circle cx="109.255" cy="197.681" r="4.93062" stroke-width="0.5" stroke="grey" fill="grey"/>
   </g>
   <g id="cell161">
  <circle cx="140.568" cy="245.933" r="7.78515" stroke-width="0.5" stroke="black" fill="grey"/>
  <circle cx="140.568" cy="245.933" r="3.91845" stroke-width="0.5" stroke="grey" fill="grey"/>
   </g>
   <g id="cell164">
  <circle cx="126.813" cy="143.017" r="8.40804" stroke-width="0.5" stroke="black" fill="grey"/>
  <circle cx="126.813" cy="143.017" r="5.04389" stroke-width="0.5" stroke="grey" fill="grey"/>
   </g>
   <g id="cell175">
  <circle cx="157.635" cy="165.9" r="7.63258" stroke-width="0.5" stroke="black" fill="grey"/>
  <circle cx="157.635" cy="165.9" r="3.60581" stroke-width="0.5" stroke="grey" fill="grey"/>
   </g>
   <g id="cell182">
  <circle cx="136.748" cy="194.012" r="3.92172" stroke-width="0.5" stroke="black" fill="grey"/>
   </g>
   <g id="cell184">
  <circle cx="177.397" cy="222.668" r="4.63084" stroke-width="0.5" stroke="black" fill="grey"/>
   </g>
   <g id="cell187">
  <circle cx="180.807" cy="280.535" r="7.5555" stroke-width="0.5" stroke="black" fill="grey"/>
  <circle cx="180.807" cy="280.535" r="3.43965" stroke-width="0.5" stroke="grey" fill="grey"/>
   </g>
   <g id="cell189">
  <circle cx="184.961" cy="175.405" r="2.97175" stroke-width="0.5" stroke="black" fill="grey"/>
   </g>
   <g id="cell197">
  <circle cx="96.3701" cy="286.337" r="3.71753" stroke-width="0.5" stroke="black" fill="grey"/>
   </g>
   <g id="cell204">
  <circle cx="70.3062" cy="119.138" r="8.31302" stroke-width="0.5" stroke="black" fill="grey"/>
  <circle cx="70.3062" cy="119.138" r="4.88385" stroke-width="0.5" stroke="grey" fill="grey"/>
   </g>
   <g id="cell211">
  <circle cx="69.9765" cy="157.797" r="7.94311" stroke-width="0.5" stroke="black" fill="grey"/>
  <circle cx="69.9765" cy="157.797" r="4.22359" stroke-width="0.5" stroke="grey" fill="grey"/>
   </g>
   <g id="cell216">
  <circle cx="98.9651" cy="215.087" r="4.95506" stroke-width="0.5" stroke="black" fill="grey"/>
   </g>
   <g id="cell219">
  <circle cx="120.822" cy="104.245" r="7.36579" stroke-width="0.5" stroke="black" fill="grey"/>
  <circle cx="120.822" cy="104.245" r="3.00009" stroke-width="0.5" stroke="grey" fill="grey"/>
   </g>
   <g id="cell220">
  <circle cx="115.818" cy="166.026" r="8.41095" stroke-width="0.5" stroke="black" fill="grey"/>
  <circle cx="115.818" cy="166.026" r="5.04874" stroke-width="0.5" stroke="grey" fill="grey"/>
   </g>
   <g id="cell224">
  <circle cx="143.746" cy="230.794" r="5.44471" stroke-width="0.5" stroke="black" fill="grey"/>
   </g>
   <g id="cell232">
  <circle cx="140.627" cy="210.181" r="8.0393" stroke-width="0.5" stroke="black" fill="grey"/>
  <circle cx="140.627" cy="210.181" r="4.40182" stroke-width="0.5" stroke="grey" fill="grey"/>
   </g>
   <g id="cell235">
  <circle cx="166.2" cy="284.889" r="6.82366" stroke-width="0.5" stroke="black" fill="grey"/>
  <circle cx="166.2" cy="284.889" r="1.14371" stroke-width="0.5" stroke="grey" fill="grey"/>
   </g>
   <g id="cell239">
  <circle cx="187.93" cy="215.326" r="6.20139" stroke-width="0.5" stroke="black" fill="grey"/>
   </g>
   <g id="cell249">
  <circle cx="174.901" cy="233.574" r="6.84419" stroke-width="0.5" stroke="black" fill="grey"/>
  <circle cx="174.901" cy="233.574" r="1.26041" stroke-width="0.5" stroke="grey" fill="grey"/>
   </g>
   <g id="cell251">
  <circle cx="156.072" cy="261.045" r="5.93893" stroke-width="0.5" stroke="black" fill="grey"/>
   </g>
   <g id="cell253">
  <circle cx="195.981" cy="143.378" r="4.61443" stroke-width="0.5" stroke="black" fill="grey"/>
   </g>
   <g id="cell255">
  <circle cx="169.257" cy="177.955" r="7.43202" stroke-width="0.5" stroke="black" fill="grey"/>
  <circle cx="169.257" cy="177.955" r="3.15922" stroke-width="0.5" stroke="grey" fill="grey"/>
   </g>
   <g id="cell256">
  <circle cx="194.075" cy="201.963" r="8.30164" stroke-width="0.5" stroke="black" fill="grey"/>
  <circle cx="194.075" cy="201.963" r="4.86446" stroke-width="0.5" stroke="grey" fill="grey"/>
   </g>
   <g id="cell260">
  <circle cx="184.805" cy="114.595" r="6.50275" stroke-width="0.5" stroke="black" fill="grey"/>
   </g>
   <g id="cell262">
  <circle cx="200.532" cy="172.705" r="7.97452" stroke-width="0.5" stroke="black" fill="grey"/>
  <circle cx="200.532" cy="172.705" r="4.28236" stroke-width="0.5" stroke="grey" fill="grey"/>
   </g>
   <g id="cell275">
  <circle cx="46.2092" cy="206.639" r="4.57932" stroke-width="0.5" stroke="black" fill="grey"/>
   </g>
   <g id="cell277">
  <circle cx="80.4707" cy="270.729" r="2.18316" stroke-width="0.5" stroke="black" fill="grey"/>
   </g>
   <g id="cell283">
  <circle cx="84.0785" cy="252.159" r="7.32591" stroke-width="0.5" stroke="black" fill="grey"/>
  <circle cx="84.0785" cy="252.159" r="2.90079" stroke-width="0.5" stroke="grey" fill="grey"/>
   </g>
   <g id="cell293">
  <circle cx="109.813" cy="280.748" r="7.71273" stroke-width="0.5" stroke="black" fill="grey"/>
  <circle cx="109.813" cy="280.748" r="3.77251" stroke-width="0.5" stroke="grey" fill="grey"/>
   </g>
   <g id="cell298">
  <circle cx="121.561" cy="194.261" r="5.61982" stroke-width="0.5" stroke="black" fill="grey"/>
   </g>
   <g id="cell304">
  <circle cx="146.04" cy="156.371" r="8.35018" stroke-width="0.5" stroke="black" fill="grey"/>
  <circle cx="146.04" cy="156.371" r="4.94683" stroke-width="0.5" stroke="grey" fill="grey"/>
   </g>
   <g id="cell308">
  <circle cx="122.969" cy="235.958" r="5.42338" stroke-width="0.5" stroke="black" fill="grey"/>
   </g>
   <g id="cell309">
  <circle cx="155.114" cy="241.261" r="7.56948" stroke-width="0.5" stroke="black" fill="grey"/>
  <circle cx="155.114" cy="241.261" r="3.47025" stroke-width="0.5" stroke="grey" fill="grey"/>
   </g>
   <g id="cell311">
  <circle cx="165.525" cy="107.777" r="3.02086" stroke-width="0.5" stroke="black" fill="grey"/>
   </g>
   <g id="cell314">
  <circle cx="178.955" cy="203.25" r="1.23709" stroke-width="0.5" stroke="black" fill="grey"/>
   </g>
   <g id="cell316">
  <circle cx="148.556" cy="218.135" r="3.98309" stroke-width="0.5" stroke="black" fill="grey"/>
   </g>
   <g id="cell323">
  <circle cx="159.356" cy="210.013" r="5.64238" stroke-width="0.5" stroke="black" fill="grey"/>
   </g>
   <g id="cell339">
  <circle cx="55.9468" cy="243.321" r="7.75322" stroke-width="0.5" stroke="black" fill="grey"/>
  <circle cx="55.9468" cy="243.321" r="3.85462" stroke-width="0.5" stroke="grey" fill="grey"/>
   </g>
   <g id="cell347">
  <circle cx="96.6452" cy="122.378" r="6.15573" stroke-width="0.5" stroke="black" fill="grey"/>
   </g>
   <g id="cell352">
  <circle cx="82.8108" cy="233.177" r="6.9604" stroke-width="0.5" stroke="black" fill="grey"/>
  <circle cx="82.8108" cy="233.177" r="1.78687" stroke-width="0.5" stroke="grey" fill="grey"/>
   </g>
   <g id="cell353">
  <circle cx="102.434" cy="247.947" r="8.25103" stroke-width="0.5" stroke="black" fill="grey"/>
  <circle cx="102.434" cy="247.947" r="4.77756" stroke-width="0.5" stroke="grey" fill="grey"/>
   </g>
   <g id="cell357">
  <circle cx="99.6422" cy="146.295" r="7.958" stroke-width="0.5" stroke="black" fill="grey"/>
  <circle cx="99.6422" cy="146.295" r="4.25151" stroke-width="0.5" stroke="grey" fill="grey"/>
   </g>
   <g id="cell369">
  <circle cx="123.742" cy="268.925" r="5.98904" stroke-width="0.5" stroke="black" fill="grey"/>
   </g>
   <g id="cell375">
  <circle cx="137.442" cy="182.845" r="8.34651" stroke-width="0.5" stroke="black" fill="grey"/>
  <circle cx="137.442" cy="182.845" r="4.94064" stroke-width="0.5" stroke="grey" fill="grey"/>
   </g>
   <g id="cell383">
  <circle cx="113.534" cy="179.793" r="6.40469" stroke-width="0.5" stroke="black" fill="grey"/>
   </g>
   <g id="cell386">
  <circle cx="129.183" cy="217.45" r="3.73553" stroke-width="0.5" stroke="black" fill="grey"/>
   </g>
   <g id="cell390">
  <circle cx="204.892" cy="186.932" r="2.81681" stroke-width="0.5" stroke="black" fill="grey"/>
   </g>
   <g id="cell400">
  <circle cx="16.2394" cy="155.705" r="7.69461" stroke-width="0.5" stroke="black" fill="grey"/>
  <circle cx="16.2394" cy="155.705" r="3.73533" stroke-width="0.5" stroke="grey" fill="grey"/>
   </g>
   <g id="cell419">
  <circle cx="111.494" cy="259.558" r="7.1476" stroke-width="0.5" stroke="black" fill="grey"/>
  <circle cx="111.494" cy="259.558" r="2.41534" stroke-width="0.5" stroke="grey" fill="grey"/>
   </g>
   <g id="cell453">
  <circle cx="68.7746" cy="206.529" r="4.36121" stroke-width="0.5" stroke="black" fill="grey"/>
   </g>
   <g id="cell518">
  <circle cx="242.664" cy="137.345" r="2.26237" stroke-width="0.5" stroke="black" fill="red"/>
   </g>
   <g id="cell536">
  <circle cx="248.656" cy="290.553" r="7.92523" stroke-width="0.5" stroke="black" fill="red"/>
  <circle cx="248.656" cy="290.553" r="4.18986" stroke-width="0.5" stroke="red" fill="red"/>
   </g>
   <g id="cell558">
  <circle cx="247.808" cy="152.776" r="5.13138" stroke-width="0.5" stroke="black" fill="red"/>
   </g>
   <g id="cell563">
  <circle cx="242.296" cy="172.769" r="7.75206" stroke-width="0.5" stroke="black" fill="red"/>
  <circle cx="242.296" cy="172.769" r="3.85229" stroke-width="0.5" stroke="red" fill="red"/>
   </g>
   <g id="cell567">
  <circle cx="248.29" cy="261.891" r="5.42576" stroke-width="0.5" stroke="black" fill="red"/>
   </g>
   <g id="cell582">
  <circle cx="278.929" cy="255.421" r="3.54669" stroke-width="0.5" stroke="black" fill="red"/>
   </g>
   <g id="cell605">
  <circle cx="325.207" cy="212.571" r="8.37626" stroke-width="0.5" stroke="black" fill="red"/>
  <circle cx="325.207" cy="212.571" r="4.99073" stroke-width="0.5" stroke="red" fill="red"/>
   </g>
   <g id="cell606">
  <circle cx="304.595" cy="226.877" r="7.61849" stroke-width="0.5" stroke="black" fill="red"/>
  <circle cx="304.595" cy="226.877" r="3.5759" stroke-width="0.5" stroke="red" fill="red"/>
   </g>
   <g id="cell615">
  <circle cx="342.422" cy="185.55" r="8.31284" stroke-width="0.5" stroke="black" fill="red"/>
  <circle cx="342.422" cy="185.55" r="4.88354" stroke-width="0.5" stroke="red" fill="red"/>
   </g>
   <g id="cell617">
  <circle cx="368.385" cy="230.449" r="6.11332" stroke-width="0.5" stroke="black" fill="red"/>
   </g>
   <g id="cell625">
  <circle cx="205.469" cy="157.15" r="8.37223" stroke-width="0.5" stroke="black" fill="red"/>
  <circle cx="205.469" cy="157.15" r="4.98396" stroke-width="0.5" stroke="red" fill="red"/>
   </g>
   <g id="cell633">
  <circle cx="266.246" cy="200.744" r="4.25558" stroke-width="0.5" stroke="black" fill="red"/>
   </g>
   <g id="cell645">
  <circle cx="254.685" cy="162.742" r="8.25241" stroke-width="0.5" stroke="black" fill="red"/>
  <circle cx="254.685" cy="162.742" r="4.77996" stroke-width="0.5" stroke="red" fill="red"/>
   </g>
   <g id="cell649">
  <circle cx="286.726" cy="177.96" r="6.42127" stroke-width="0.5" stroke="black" fill="red"/>
   </g>
   <g id="cell652">
  <circle cx="254.632" cy="238.302" r="7.0489" stroke-width="0.5" stroke="black" fill="red"/>
  <circle cx="254.632" cy="238.302" r="2.1054" stroke-width="0.5" stroke="red" fill="red"/>
   </g>
   <g id="cell653">
  <circle cx="271.504" cy="127.898" r="8.15964" stroke-width="0.5" stroke="black" fill="red"/>
  <circle cx="271.504" cy="127.898" r="4.61794" stroke-width="0.5" stroke="red" fill="red"/>
   </g>
   <g id="cell659">
  <circle cx="269.264" cy="240.406" r="5.12533" stroke-width="0.5" stroke="black" fill="red"/>
   </g>
   <g id="cell667">
  <circle cx="339.177" cy="244.383" r="3.31653" stroke-width="0.5" stroke="black" fill="red"/>
   </g>
   <g id="cell669">
  <circle cx="341.363" cy="129.884" r="6.23228" stroke-width="0.5" stroke="black" fill="red"/>
   </g>
   <g id="cell672">
  <circle cx="315.328" cy="186.184" r="3.30176" stroke-width="0.5" stroke="black" fill="red"/>
   </g>
   <g id="cell695">
  <circle cx="256.88" cy="177.141" r="6.5037" stroke-width="0.5" stroke="black" fill="red"/>
   </g>
   <g id="cell702">
  <circle cx="244.134" cy="203.768" r="3.36333" stroke-width="0.5" stroke="black" fill="red"/>
   </g>
   <g id="cell704">
  <circle cx="263.527" cy="226.037" r="8.32799" stroke-width="0.5" stroke="black" fill="red"/>
  <circle cx="263.527" cy="226.037" r="4.90928" stroke-width="0.5" stroke="red" fill="red"/>
   </g>
   <g id="cell706">
  <circle cx="239.378" cy="238.663" r="8.40125" stroke-width="0.5" stroke="black" fill="red"/>
  <circle cx="239.378" cy="238.663" r="5.03256" stroke-width="0.5" stroke="red" fill="red"/>
   </g>
   <g id="cell709">
  <circle cx="241.707" cy="124.033" r="8.0264" stroke-width="0.5" stroke="black" fill="red"/>
  <circle cx="241.707" cy="124.033" r="4.37821" stroke-width="0.5" stroke="red" fill="red"/>
   </g>
   <g id="cell716">
  <circle cx="237.792" cy="278.903" r="7.82527" stroke-width="0.5" stroke="black" fill="red"/>
  <circle cx="237.792" cy="278.903" r="3.99756" stroke-width="0.5" stroke="red" fill="red"/>
   </g>
   <g id="cell718">
  <circle cx="263.603" cy="139.553" r="3.29471" stroke-width="0.5" stroke="black" fill="red"/>
   </g>
   <g id="cell720">
  <circle cx="280.464" cy="159.343" r="8.4092" stroke-width="0.5" stroke="black" fill="red"/>
  <circle cx="280.464" cy="159.343" r="5.04582" stroke-width="0.5" stroke="red" fill="red"/>
   </g>
   <g id="cell724">
  <circle cx="256.952" cy="274.654" r="7.86675" stroke-width="0.5" stroke="black" fill="red"/>
  <circle cx="256.952" cy="274.654" r="4.07816" stroke-width="0.5" stroke="red" fill="red"/>
   </g>
   <g id="cell725">
  <circle cx="288.288" cy="108.047" r="8.40359" stroke-width="0.5" stroke="black" fill="red"/>
  <circle cx="288.288" cy="108.047" r="5.03647" stroke-width="0.5" stroke="red" fill="red"/>
   </g>
   <g id="cell730">
  <circle cx="299.183" cy="210.407" r="3.78385" stroke-width="0.5" stroke="black" fill="red"/>
   </g>
   <g id="cell736">
  <circle cx="316.187" cy="170.279" r="8.27021" stroke-width="0.5" stroke="black" fill="red"/>
  <circle cx="316.187" cy="170.279" r="4.81061" stroke-width="0.5" stroke="red" fill="red"/>
   </g>
   <g id="cell738">
  <circle cx="309.076" cy="203.125" r="8.3437" stroke-width="0.5" stroke="black" fill="red"/>
  <circle cx="309.076" cy="203.125" r="4.93589" stroke-width="0.5" stroke="red" fill="red"/>
   </g>
   <g id="cell752">
  <circle cx="334.485" cy="268.515" r="1.9637" stroke-width="0.5" stroke="black" fill="red"/>
   </g>
   <g id="cell758">
  <circle cx="177.176" cy="197.871" r="6.02242" stroke-width="0.5" stroke="black" fill="red"/>
   </g>
   <g id="cell762">
  <circle cx="225.895" cy="147.125" r="6.74517" stroke-width="0.5" stroke="black" fill="red"/>
  <circle cx="225.895" cy="147.125" r="0.492904" stroke-width="0.5" stroke="red" fill="red"/>
   </g>
   <g id="cell763">
  <circle cx="225.86" cy="208.779" r="5.47414" stroke-width="0.5" stroke="black" fill="red"/>
   </g>
   <g id="cell767">
  <circle cx="228.765" cy="133.482" r="8.07656" stroke-width="0.5" stroke="black" fill="red"/>
  <circle cx="228.765" cy="133.482" r="4.46951" stroke-width="0.5" stroke="red" fill="red"/>
   </g>
   <g id="cell771">
  <circle cx="231.781" cy="196.053" r="8.16259" stroke-width="0.5" stroke="black" fill="red"/>
  <circle cx="231.781" cy="196.053" r="4.62316" stroke-width="0.5" stroke="red" fill="red"/>
   </g>
   <g id="cell773">
  <circle cx="222.785" cy="243.967" r="4.43288" stroke-width="0.5" stroke="black" fill="red"/>
   </g>
   <g id="cell784">
  <circle cx="258.572" cy="112.438" r="2.24042" stroke-width="0.5" stroke="black" fill="red"/>
   </g>
   <g id="cell791">
  <circle cx="259.777" cy="301.36" r="5.50974" stroke-width="0.5" stroke="black" fill="red"/>
   </g>
   <g id="cell794">
  <circle cx="257.206" cy="194.277" r="5.63175" stroke-width="0.5" stroke="black" fill="red"/>
   </g>
   <g id="cell802">
  <circle cx="301.253" cy="181.042" r="8.18634" stroke-width="0.5" stroke="black" fill="red"/>
  <circle cx="301.253" cy="181.042" r="4.66496" stroke-width="0.5" stroke="red" fill="red"/>
   </g>
   <g id="cell805">
  <circle cx="325.981" cy="241.938" r="8.41165" stroke-width="0.5" stroke="black" fill="red"/>
  <circle cx="325.981" cy="241.938" r="5.0499" stroke-width="0.5" stroke="red" fill="red"/>
   </g>
   <g id="cell806">
  <circle cx="298.426" cy="251.252" r="6.67747" stroke-width="0.5" stroke="black" fill="red"/>
   </g>
   <g id="cell807">
  <circle cx="300.977" cy="267.932" r="6.24314" stroke-width="0.5" stroke="black" fill="red"/>
   </g>
   <g id="cell810">
  <circle cx="326.004" cy="141.326" r="6.99057" stroke-width="0.5" stroke="black" fill="red"/>
  <circle cx="326.004" cy="141.326" r="1.90098" stroke-width="0.5" stroke="red" fill="red"/>
   </g>
   <g id="cell821">
  <circle cx="351.907" cy="281.026" r="8.31297" stroke-width="0.5" stroke="black" fill="red"/>
  <circle cx="351.907" cy="281.026" r="4.88376" stroke-width="0.5" stroke="red" fill="red"/>
   </g>
   <g id="cell823">
  <circle cx="388.864" cy="237.423" r="5.26572" stroke-width="0.5" stroke="black" fill="red"/>
   </g>
   <g id="cell827">
  <circle cx="192.107" cy="240.949" r="2.49205" stroke-width="0.5" stroke="black" fill="red"/>
   </g>
   <g id="cell831">
  <circle cx="224.765" cy="177.917" r="8.29832" stroke-width="0.5" stroke="black" fill="red"/>
  <circle cx="224.765" cy="177.917" r="4.85879" stroke-width="0.5" stroke="red" fill="red"/>
   </g>
   <g id="cell849">
  <circle cx="237.853" cy="220.786" r="7.09774" stroke-width="0.5" stroke="black" fill="red"/>
  <circle cx="237.853" cy="220.786" r="2.26353" stroke-width="0.5" stroke="red" fill="red"/>
   </g>
   <g id="cell860">
  <circle cx="268.36" cy="255.007" r="6.86589" stroke-width="0.5" stroke="black" fill="red"/>
  <circle cx="268.36" cy="255.007" r="1.37337" stroke-width="0.5" stroke="red" fill="red"/>
   </g>
   <g id="cell862">
  <circle cx="296.205" cy="128.91" r="8.31313" stroke-width="0.5" stroke="black" fill="red"/>
  <circle cx="296.205" cy="128.91" r="4.88403" stroke-width="0.5" stroke="red" fill="red"/>
   </g>
   <g id="cell869">
  <circle cx="307.23" cy="119.495" r="7.16284" stroke-width="0.5" stroke="black" fill="red"/>
  <circle cx="307.23" cy="119.495" r="2.46006" stroke-width="0.5" stroke="red" fill="red"/>
   </g>
   <g id="cell873">
  <circle cx="318.401" cy="182.86" r="6.19309" stroke-width="0.5" stroke="black" fill="red"/>
   </g>
   <g id="cell876">
  <circle cx="308.175" cy="252.458" r="4.89009" stroke-width="0.5" stroke="black" fill="red"/>
   </g>
   <g id="cell911">
  <circle cx="282.602" cy="222.556" r="8.41097" stroke-width="0.5" stroke="black" fill="red"/>
  <circle cx="282.602" cy="222.556" r="5.04877" stroke-width="0.5" stroke="red" fill="red"/>
   </g>
  </g>
 </g>
  <rect x="190" y="414" width="200" height="4" stroke-width="0.8" stroke="rgb(255,255,255)" fill="rgb(0,0,0)"/>
  <text x="192.5" y="411.5"
   font-family="Arial" font-size="10" fill="black" >
   200 &#956;m
  </text>
  <text x="10" y="418"
   font-family="Arial" font-size="7.5" fill="black" >
   0 days, 0 hours, 5 minutes, and 44.1255 seconds
  </text>
  <rect x="0" y="28" width="400" height="400" stroke-width="0.8" stroke="rgb(0,0,0)" fill="none"/>
</svg>
