<?xml version="1.0" encoding="UTF-8" standalone="no"?>
<!-- Created with PhysiCell (http://PhysiCell.MathCancer.org/) -->
<svg 
 xmlns:dc="http://purl.org/dc/elements/1.1/" 
 xmlns:cc="http://creativecommons.org/ns#" 
 xmlns:rdf="http://www.w3.org/1999/02/22-rdf-syntax-ns#" 
 xmlns:svg="http://www.w3.org/2000/svg" 
 xmlns="http://www.w3.org/2000/svg" 
 version="1.1" 
 width="400" 
 height="428" 
 id="svg2">
  <rect x="0" y="0" width="400" height="428" stroke-width="0.8" stroke="white" fill="white"/>
  <text x="5" y="12"
   font-family="Arial" font-size="10" fill="black" >
   Current time: 3 days, 9 hours, and 0.00 minutes, z = 0.00 &#956;m
  </text>
  <text x="5" y="23"
   font-family="Arial" font-size="9.5" fill="black" >
   978 agents
  </text>
 <g id="tissue" 
    transform="translate(0,428) scale(1,-1)">
  <g id="ECM">
  </g>
  <g id="cells">
   <g id="cell4">
  <circle cx="116.861" cy="220.744" r="4.81624" stroke-width="0.5" stroke="black" fill="grey"/>
   </g>
   <g id="cell35">
  <circle cx="206.538" cy="178.524" r="8.38244" stroke-width="0.5" stroke="black" fill="grey"/>
  <circle cx="206.538" cy="178.524" r="5.00109" stroke-width="0.5" stroke="grey" fill="grey"/>
   </g>
   <g id="cell58">
  <circle cx="199.302" cy="293.086" r="1.76524" stroke-width="0.5" stroke="black" fill="grey"/>
   </g>
   <g id="cell71">
  <circle cx="91.1079" cy="207.547" r="7.8207" stroke-width="0.5" stroke="black" fill="grey"/>
  <circle cx="91.1079" cy="207.547" r="3.98861" stroke-width="0.5" stroke="grey" fill="grey"/>
   </g>
   <g id="cell93">
  <circle cx="23.6388" cy="294.929" r="3.99902" stroke-width="0.5" stroke="black" fill="grey"/>
   </g>
   <g id="cell108">
  <circle cx="126.884" cy="289.092" r="8.23179" stroke-width="0.5" stroke="black" fill="grey"/>
  <circle cx="126.884" cy="289.092" r="4.74427" stroke-width="0.5" stroke="grey" fill="grey"/>
   </g>
   <g id="cell159">
  <circle cx="67.2325" cy="244.364" r="3.81636" stroke-width="0.5" stroke="black" fill="grey"/>
   </g>
   <g id="cell166">
  <circle cx="157.343" cy="109.117" r="7.38888" stroke-width="0.5" stroke="black" fill="grey"/>
  <circle cx="157.343" cy="109.117" r="3.05635" stroke-width="0.5" stroke="grey" fill="grey"/>
   </g>
   <g id="cell171">
  <circle cx="48.4121" cy="344.564" r="3.35569" stroke-width="0.5" stroke="black" fill="grey"/>
   </g>
   <g id="cell174">
  <circle cx="137.692" cy="234.914" r="8.28759" stroke-width="0.5" stroke="black" fill="grey"/>
  <circle cx="137.692" cy="234.914" r="4.84044" stroke-width="0.5" stroke="grey" fill="grey"/>
   </g>
   <g id="cell178">
  <circle cx="100.163" cy="139.009" r="6.74657" stroke-width="0.5" stroke="black" fill="grey"/>
  <circle cx="100.163" cy="139.009" r="0.511781" stroke-width="0.5" stroke="grey" fill="grey"/>
   </g>
   <g id="cell181">
  <circle cx="134.322" cy="95.0949" r="8.33083" stroke-width="0.5" stroke="black" fill="grey"/>
  <circle cx="134.322" cy="95.0949" r="4.9141" stroke-width="0.5" stroke="grey" fill="grey"/>
   </g>
   <g id="cell195">
  <circle cx="76.1044" cy="149.624" r="3.90333" stroke-width="0.5" stroke="black" fill="grey"/>
   </g>
   <g id="cell205">
  <circle cx="15.1814" cy="151.305" r="8.37063" stroke-width="0.5" stroke="black" fill="grey"/>
  <circle cx="15.1814" cy="151.305" r="4.98127" stroke-width="0.5" stroke="grey" fill="grey"/>
   </g>
   <g id="cell207">
  <circle cx="63.2812" cy="243.777" r="4.78135" stroke-width="0.5" stroke="black" fill="grey"/>
   </g>
   <g id="cell226">
  <circle cx="101.895" cy="297.316" r="7.80434" stroke-width="0.5" stroke="black" fill="grey"/>
  <circle cx="101.895" cy="297.316" r="3.95643" stroke-width="0.5" stroke="grey" fill="grey"/>
   </g>
   <g id="cell227">
  <circle cx="118.932" cy="325.806" r="6.76278" stroke-width="0.5" stroke="black" fill="grey"/>
  <circle cx="118.932" cy="325.806" r="0.693443" stroke-width="0.5" stroke="grey" fill="grey"/>
   </g>
   <g id="cell246">
  <circle cx="134.486" cy="36.1435" r="6.52604" stroke-width="0.5" stroke="black" fill="grey"/>
   </g>
   <g id="cell251">
  <circle cx="52.2268" cy="325.25" r="3.25324" stroke-width="0.5" stroke="black" fill="grey"/>
   </g>
   <g id="cell264">
  <circle cx="211.034" cy="240.309" r="7.10364" stroke-width="0.5" stroke="black" fill="grey"/>
  <circle cx="211.034" cy="240.309" r="2.28196" stroke-width="0.5" stroke="grey" fill="grey"/>
   </g>
   <g id="cell271">
  <circle cx="9.90318" cy="247.559" r="6.70357" stroke-width="0.5" stroke="black" fill="grey"/>
   </g>
   <g id="cell275">
  <circle cx="26.8322" cy="180.412" r="6.90294" stroke-width="0.5" stroke="black" fill="grey"/>
  <circle cx="26.8322" cy="180.412" r="1.54798" stroke-width="0.5" stroke="grey" fill="grey"/>
   </g>
   <g id="cell279">
  <circle cx="120.863" cy="202.737" r="8.39435" stroke-width="0.5" stroke="black" fill="grey"/>
  <circle cx="120.863" cy="202.737" r="5.02103" stroke-width="0.5" stroke="grey" fill="grey"/>
   </g>
   <g id="cell286">
  <circle cx="127.958" cy="158.794" r="8.26978" stroke-width="0.5" stroke="black" fill="grey"/>
  <circle cx="127.958" cy="158.794" r="4.80988" stroke-width="0.5" stroke="grey" fill="grey"/>
   </g>
   <g id="cell288">
  <circle cx="103.84" cy="109.986" r="4.00467" stroke-width="0.5" stroke="black" fill="grey"/>
   </g>
   <g id="cell289">
  <circle cx="111.166" cy="210.565" r="7.82777" stroke-width="0.5" stroke="black" fill="grey"/>
  <circle cx="111.166" cy="210.565" r="4.00245" stroke-width="0.5" stroke="grey" fill="grey"/>
   </g>
   <g id="cell300">
  <circle cx="148.865" cy="272.528" r="7.19137" stroke-width="0.5" stroke="black" fill="grey"/>
  <circle cx="148.865" cy="272.528" r="2.54196" stroke-width="0.5" stroke="grey" fill="grey"/>
   </g>
   <g id="cell306">
  <circle cx="281.045" cy="215.693" r="7.65211" stroke-width="0.5" stroke="black" fill="grey"/>
  <circle cx="281.045" cy="215.693" r="3.64699" stroke-width="0.5" stroke="grey" fill="grey"/>
   </g>
   <g id="cell310">
  <circle cx="173.262" cy="348.458" r="6.46627" stroke-width="0.5" stroke="black" fill="grey"/>
   </g>
   <g id="cell312">
  <circle cx="224.725" cy="160.449" r="8.31479" stroke-width="0.5" stroke="black" fill="grey"/>
  <circle cx="224.725" cy="160.449" r="4.88686" stroke-width="0.5" stroke="grey" fill="grey"/>
   </g>
   <g id="cell317">
  <circle cx="112.707" cy="386.844" r="8.17449" stroke-width="0.5" stroke="black" fill="grey"/>
  <circle cx="112.707" cy="386.844" r="4.64414" stroke-width="0.5" stroke="grey" fill="grey"/>
   </g>
   <g id="cell328">
  <circle cx="162.237" cy="143.478" r="5.96844" stroke-width="0.5" stroke="black" fill="grey"/>
   </g>
   <g id="cell339">
  <circle cx="115.621" cy="279.691" r="8.34942" stroke-width="0.5" stroke="black" fill="grey"/>
  <circle cx="115.621" cy="279.691" r="4.94556" stroke-width="0.5" stroke="grey" fill="grey"/>
   </g>
   <g id="cell359">
  <circle cx="170.41" cy="245.857" r="7.10362" stroke-width="0.5" stroke="black" fill="grey"/>
  <circle cx="170.41" cy="245.857" r="2.28192" stroke-width="0.5" stroke="grey" fill="grey"/>
   </g>
   <g id="cell369">
  <circle cx="79.3906" cy="319.183" r="4.14567" stroke-width="0.5" stroke="black" fill="grey"/>
   </g>
   <g id="cell397">
  <circle cx="136.509" cy="255.122" r="7.42641" stroke-width="0.5" stroke="black" fill="grey"/>
  <circle cx="136.509" cy="255.122" r="3.14599" stroke-width="0.5" stroke="grey" fill="grey"/>
   </g>
   <g id="cell455">
  <circle cx="112.697" cy="177.382" r="5.07085" stroke-width="0.5" stroke="black" fill="grey"/>
   </g>
   <g id="cell459">
  <circle cx="120.304" cy="138.903" r="4.27485" stroke-width="0.5" stroke="black" fill="grey"/>
   </g>
   <g id="cell468">
  <circle cx="64.9006" cy="297.806" r="8.40552" stroke-width="0.5" stroke="black" fill="grey"/>
  <circle cx="64.9006" cy="297.806" r="5.03969" stroke-width="0.5" stroke="grey" fill="grey"/>
   </g>
   <g id="cell479">
  <circle cx="212.329" cy="206.47" r="6.70394" stroke-width="0.5" stroke="black" fill="grey"/>
   </g>
   <g id="cell511">
  <circle cx="258.436" cy="170.694" r="6.53836" stroke-width="0.5" stroke="black" fill="red"/>
   </g>
   <g id="cell542">
  <circle cx="305.015" cy="317.097" r="5.95461" stroke-width="0.5" stroke="black" fill="red"/>
   </g>
   <g id="cell558">
  <circle cx="284.733" cy="261.317" r="4.56764" stroke-width="0.5" stroke="black" fill="red"/>
   </g>
   <g id="cell566">
  <circle cx="188.332" cy="215.821" r="8.40586" stroke-width="0.5" stroke="black" fill="red"/>
  <circle cx="188.332" cy="215.821" r="5.04026" stroke-width="0.5" stroke="red" fill="red"/>
   </g>
   <g id="cell569">
  <circle cx="238.655" cy="126.784" r="3.49356" stroke-width="0.5" stroke="black" fill="red"/>
   </g>
   <g id="cell581">
  <circle cx="285.19" cy="138.707" r="6.72553" stroke-width="0.5" stroke="black" fill="red"/>
   </g>
   <g id="cell601">
  <circle cx="346.228" cy="124.408" r="2.17236" stroke-width="0.5" stroke="black" fill="red"/>
   </g>
   <g id="cell605">
  <circle cx="356.551" cy="220.634" r="8.39833" stroke-width="0.5" stroke="black" fill="red"/>
  <circle cx="356.551" cy="220.634" r="5.02769" stroke-width="0.5" stroke="red" fill="red"/>
   </g>
   <g id="cell633">
  <circle cx="259.738" cy="275.296" r="2.20026" stroke-width="0.5" stroke="black" fill="red"/>
   </g>
   <g id="cell635">
  <circle cx="232.052" cy="309.815" r="5.5671" stroke-width="0.5" stroke="black" fill="red"/>
   </g>
   <g id="cell636">
  <circle cx="286.603" cy="58.1843" r="7.2334" stroke-width="0.5" stroke="black" fill="red"/>
  <circle cx="286.603" cy="58.1843" r="2.65852" stroke-width="0.5" stroke="red" fill="red"/>
   </g>
   <g id="cell644">
  <circle cx="221.18" cy="111.63" r="5.64543" stroke-width="0.5" stroke="black" fill="red"/>
   </g>
   <g id="cell654">
  <circle cx="318.021" cy="66.7862" r="6.58793" stroke-width="0.5" stroke="black" fill="red"/>
   </g>
   <g id="cell657">
  <circle cx="313.251" cy="133.323" r="7.10783" stroke-width="0.5" stroke="black" fill="red"/>
  <circle cx="313.251" cy="133.323" r="2.29498" stroke-width="0.5" stroke="red" fill="red"/>
   </g>
   <g id="cell683">
  <circle cx="391.037" cy="169.253" r="4.06639" stroke-width="0.5" stroke="black" fill="red"/>
   </g>
   <g id="cell687">
  <circle cx="233.02" cy="94.1735" r="7.78586" stroke-width="0.5" stroke="black" fill="red"/>
  <circle cx="233.02" cy="94.1735" r="3.91987" stroke-width="0.5" stroke="red" fill="red"/>
   </g>
   <g id="cell702">
  <circle cx="146.231" cy="202.774" r="7.12144" stroke-width="0.5" stroke="black" fill="red"/>
  <circle cx="146.231" cy="202.774" r="2.33678" stroke-width="0.5" stroke="red" fill="red"/>
   </g>
   <g id="cell710">
  <circle cx="247.047" cy="203.32" r="8.09587" stroke-width="0.5" stroke="black" fill="red"/>
  <circle cx="247.047" cy="203.32" r="4.50431" stroke-width="0.5" stroke="red" fill="red"/>
   </g>
   <g id="cell725">
  <circle cx="295.909" cy="92.9536" r="4.7951" stroke-width="0.5" stroke="black" fill="red"/>
   </g>
   <g id="cell728">
  <circle cx="305.919" cy="88.6381" r="7.27154" stroke-width="0.5" stroke="black" fill="red"/>
  <circle cx="305.919" cy="88.6381" r="2.7606" stroke-width="0.5" stroke="red" fill="red"/>
   </g>
   <g id="cell742">
  <circle cx="315.554" cy="99.1364" r="8.29725" stroke-width="0.5" stroke="black" fill="red"/>
  <circle cx="315.554" cy="99.1364" r="4.85696" stroke-width="0.5" stroke="red" fill="red"/>
   </g>
   <g id="cell743">
  <circle cx="376.809" cy="172.841" r="6.16232" stroke-width="0.5" stroke="black" fill="red"/>
   </g>
   <g id="cell744">
  <circle cx="253.599" cy="109.562" r="7.31587" stroke-width="0.5" stroke="black" fill="red"/>
  <circle cx="253.599" cy="109.562" r="2.87534" stroke-width="0.5" stroke="red" fill="red"/>
   </g>
   <g id="cell750">
  <circle cx="347.629" cy="94.1926" r="7.43282" stroke-width="0.5" stroke="black" fill="red"/>
  <circle cx="347.629" cy="94.1926" r="3.1611" stroke-width="0.5" stroke="red" fill="red"/>
   </g>
   <g id="cell767">
  <circle cx="232.564" cy="120.583" r="3.73328" stroke-width="0.5" stroke="black" fill="red"/>
   </g>
   <g id="cell771">
  <circle cx="189.897" cy="163.182" r="2.47501" stroke-width="0.5" stroke="black" fill="red"/>
   </g>
   <g id="cell780">
  <circle cx="275.578" cy="233.063" r="7.47354" stroke-width="0.5" stroke="black" fill="red"/>
  <circle cx="275.578" cy="233.063" r="3.2557" stroke-width="0.5" stroke="red" fill="red"/>
   </g>
   <g id="cell786">
  <circle cx="235.682" cy="248.75" r="6.24624" stroke-width="0.5" stroke="black" fill="red"/>
   </g>
   <g id="cell788">
  <circle cx="255.09" cy="140.489" r="0.690081" stroke-width="0.5" stroke="black" fill="red"/>
   </g>
   <g id="cell817">
  <circle cx="336.647" cy="137.339" r="8.30326" stroke-width="0.5" stroke="black" fill="red"/>
  <circle cx="336.647" cy="137.339" r="4.86722" stroke-width="0.5" stroke="red" fill="red"/>
   </g>
   <g id="cell819">
  <circle cx="338.202" cy="208.846" r="7.85439" stroke-width="0.5" stroke="black" fill="red"/>
  <circle cx="338.202" cy="208.846" r="4.05428" stroke-width="0.5" stroke="red" fill="red"/>
   </g>
   <g id="cell834">
  <circle cx="197.494" cy="195.485" r="7.31092" stroke-width="0.5" stroke="black" fill="red"/>
  <circle cx="197.494" cy="195.485" r="2.86272" stroke-width="0.5" stroke="red" fill="red"/>
   </g>
   <g id="cell838">
  <circle cx="277.488" cy="87.5137" r="0.862363" stroke-width="0.5" stroke="black" fill="red"/>
   </g>
   <g id="cell898">
  <circle cx="244.438" cy="173.693" r="4.7802" stroke-width="0.5" stroke="black" fill="red"/>
   </g>
   <g id="cell944">
  <circle cx="271.498" cy="136.391" r="7.44922" stroke-width="0.5" stroke="black" fill="red"/>
  <circle cx="271.498" cy="136.391" r="3.19947" stroke-width="0.5" stroke="red" fill="red"/>
   </g>
   <g id="cell948">
  <circle cx="205.284" cy="162.617" r="7.89477" stroke-width="0.5" stroke="black" fill="red"/>
  <circle cx="205.284" cy="162.617" r="4.13196" stroke-width="0.5" stroke="red" fill="red"/>
   </g>
   <g id="cell967">
  <circle cx="228.251" cy="215.223" r="8.41048" stroke-width="0.5" stroke="black" fill="red"/>
  <circle cx="228.251" cy="215.223" r="5.04795" stroke-width="0.5" stroke="red" fill="red"/>
   </g>
   <g id="cell971">
  <circle cx="251.211" cy="212.816" r="2.67" stroke-width="0.5" stroke="black" fill="red"/>
   </g>
  </g>
 </g>
  <rect x="190" y="414" width="200" height="4" stroke-width="0.8" stroke="rgb(255,255,255)" fill="rgb(0,0,0)"/>
  <text x="192.5" y="411.5"
   font-family="Arial" font-size="10" fill="black" >
   200 &#956;m
  </text>
  <text x="10" y="418"
   font-family="Arial" font-size="7.5" fill="black" >
   0 days, 0 hours, 22 minutes, and 39.1430 seconds
  </text>
  <rect x="0" y="28" width="400" height="400" stroke-width="0.8" stroke="rgb(0,0,0)" fill="none"/>
</svg>
