<?xml version="1.0" encoding="UTF-8" standalone="no"?>
<!-- Created with PhysiCell (http://PhysiCell.MathCancer.org/) -->
<svg 
 xmlns:dc="http://purl.org/dc/elements/1.1/" 
 xmlns:cc="http://creativecommons.org/ns#" 
 xmlns:rdf="http://www.w3.org/1999/02/22-rdf-syntax-ns#" 
 xmlns:svg="http://www.w3.org/2000/svg" 
 xmlns="http://www.w3.org/2000/svg" 
 version="1.1" 
 width="400" 
 height="428" 
 id="svg2">
  <rect x="0" y="0" width="400" height="428" stroke-width="0.8" stroke="white" fill="white"/>
  <text x="5" y="12"
   font-family="Arial" font-size="10" fill="black" >
   Current time: 0 days, 21 hours, and 0.00 minutes, z = 0.00 &#956;m
  </text>
  <text x="5" y="23"
   font-family="Arial" font-size="9.5" fill="black" >
   978 agents
  </text>
 <g id="tissue" 
    transform="translate(0,428) scale(1,-1)">
  <g id="ECM">
  </g>
  <g id="cells">
   <g id="cell88">
  <circle cx="108.441" cy="74.2554" r="8.39713" stroke-width="0.5" stroke="black" fill="grey"/>
  <circle cx="108.441" cy="74.2554" r="5.02567" stroke-width="0.5" stroke="grey" fill="grey"/>
   </g>
   <g id="cell93">
  <circle cx="60.7993" cy="220.868" r="8.40413" stroke-width="0.5" stroke="black" fill="grey"/>
  <circle cx="60.7993" cy="220.868" r="5.03737" stroke-width="0.5" stroke="grey" fill="grey"/>
   </g>
   <g id="cell96">
  <circle cx="173.421" cy="56.0211" r="8.31622" stroke-width="0.5" stroke="black" fill="grey"/>
  <circle cx="173.421" cy="56.0211" r="4.88929" stroke-width="0.5" stroke="grey" fill="grey"/>
   </g>
   <g id="cell110">
  <circle cx="145.278" cy="267.545" r="8.39545" stroke-width="0.5" stroke="black" fill="grey"/>
  <circle cx="145.278" cy="267.545" r="5.02287" stroke-width="0.5" stroke="grey" fill="grey"/>
   </g>
   <g id="cell137">
  <circle cx="56.0856" cy="197.959" r="7.80665" stroke-width="0.5" stroke="black" fill="grey"/>
  <circle cx="56.0856" cy="197.959" r="3.961" stroke-width="0.5" stroke="grey" fill="grey"/>
   </g>
   <g id="cell149">
  <circle cx="127.125" cy="132.676" r="7.65223" stroke-width="0.5" stroke="black" fill="grey"/>
  <circle cx="127.125" cy="132.676" r="3.64723" stroke-width="0.5" stroke="grey" fill="grey"/>
   </g>
   <g id="cell150">
  <circle cx="130.845" cy="209.835" r="8.3741" stroke-width="0.5" stroke="black" fill="grey"/>
  <circle cx="130.845" cy="209.835" r="4.9871" stroke-width="0.5" stroke="grey" fill="grey"/>
   </g>
   <g id="cell155">
  <circle cx="145.09" cy="133.021" r="7.02143" stroke-width="0.5" stroke="black" fill="grey"/>
  <circle cx="145.09" cy="133.021" r="2.0115" stroke-width="0.5" stroke="grey" fill="grey"/>
   </g>
   <g id="cell159">
  <circle cx="116.226" cy="187.246" r="8.15495" stroke-width="0.5" stroke="black" fill="grey"/>
  <circle cx="116.226" cy="187.246" r="4.60965" stroke-width="0.5" stroke="grey" fill="grey"/>
   </g>
   <g id="cell163">
  <circle cx="93.0234" cy="328.46" r="7.37995" stroke-width="0.5" stroke="black" fill="grey"/>
  <circle cx="93.0234" cy="328.46" r="3.0347" stroke-width="0.5" stroke="grey" fill="grey"/>
   </g>
   <g id="cell164">
  <circle cx="112.616" cy="126.34" r="8.4045" stroke-width="0.5" stroke="black" fill="grey"/>
  <circle cx="112.616" cy="126.34" r="5.03798" stroke-width="0.5" stroke="grey" fill="grey"/>
   </g>
   <g id="cell166">
  <circle cx="140.34" cy="119.163" r="8.41234" stroke-width="0.5" stroke="black" fill="grey"/>
  <circle cx="140.34" cy="119.163" r="5.05105" stroke-width="0.5" stroke="grey" fill="grey"/>
   </g>
   <g id="cell179">
  <circle cx="120.153" cy="262.537" r="7.56686" stroke-width="0.5" stroke="black" fill="grey"/>
  <circle cx="120.153" cy="262.537" r="3.46454" stroke-width="0.5" stroke="grey" fill="grey"/>
   </g>
   <g id="cell189">
  <circle cx="171.844" cy="160.978" r="8.13598" stroke-width="0.5" stroke="black" fill="grey"/>
  <circle cx="171.844" cy="160.978" r="4.57602" stroke-width="0.5" stroke="grey" fill="grey"/>
   </g>
   <g id="cell195">
  <circle cx="15.07" cy="180.808" r="5.54259" stroke-width="0.5" stroke="black" fill="grey"/>
   </g>
   <g id="cell197">
  <circle cx="97.1465" cy="290.943" r="8.18582" stroke-width="0.5" stroke="black" fill="grey"/>
  <circle cx="97.1465" cy="290.943" r="4.66405" stroke-width="0.5" stroke="grey" fill="grey"/>
   </g>
   <g id="cell199">
  <circle cx="43.0471" cy="167.688" r="8.40595" stroke-width="0.5" stroke="black" fill="grey"/>
  <circle cx="43.0471" cy="167.688" r="5.0404" stroke-width="0.5" stroke="grey" fill="grey"/>
   </g>
   <g id="cell208">
  <circle cx="72.0099" cy="253.173" r="8.18021" stroke-width="0.5" stroke="black" fill="grey"/>
  <circle cx="72.0099" cy="253.173" r="4.65419" stroke-width="0.5" stroke="grey" fill="grey"/>
   </g>
   <g id="cell213">
  <circle cx="89.5417" cy="195.01" r="7.79886" stroke-width="0.5" stroke="black" fill="grey"/>
  <circle cx="89.5417" cy="195.01" r="3.94562" stroke-width="0.5" stroke="grey" fill="grey"/>
   </g>
   <g id="cell215">
  <circle cx="65.7763" cy="169.518" r="6.25421" stroke-width="0.5" stroke="black" fill="grey"/>
   </g>
   <g id="cell216">
  <circle cx="111.355" cy="202.048" r="6.73701" stroke-width="0.5" stroke="black" fill="grey"/>
  <circle cx="111.355" cy="202.048" r="0.364591" stroke-width="0.5" stroke="grey" fill="grey"/>
   </g>
   <g id="cell217">
  <circle cx="94.1171" cy="212.199" r="8.33395" stroke-width="0.5" stroke="black" fill="grey"/>
  <circle cx="94.1171" cy="212.199" r="4.91938" stroke-width="0.5" stroke="grey" fill="grey"/>
   </g>
   <g id="cell232">
  <circle cx="150.204" cy="205.162" r="7.74742" stroke-width="0.5" stroke="black" fill="grey"/>
  <circle cx="150.204" cy="205.162" r="3.84295" stroke-width="0.5" stroke="grey" fill="grey"/>
   </g>
   <g id="cell238">
  <circle cx="188.662" cy="147.009" r="4.48124" stroke-width="0.5" stroke="black" fill="grey"/>
   </g>
   <g id="cell239">
  <circle cx="170.75" cy="196.756" r="4.35812" stroke-width="0.5" stroke="black" fill="grey"/>
   </g>
   <g id="cell249">
  <circle cx="186.036" cy="233.303" r="8.1096" stroke-width="0.5" stroke="black" fill="grey"/>
  <circle cx="186.036" cy="233.303" r="4.52894" stroke-width="0.5" stroke="grey" fill="grey"/>
   </g>
   <g id="cell253">
  <circle cx="189.511" cy="134.335" r="7.58891" stroke-width="0.5" stroke="black" fill="grey"/>
  <circle cx="189.511" cy="134.335" r="3.51245" stroke-width="0.5" stroke="grey" fill="grey"/>
   </g>
   <g id="cell255">
  <circle cx="165.83" cy="178.075" r="7.07556" stroke-width="0.5" stroke="black" fill="grey"/>
  <circle cx="165.83" cy="178.075" r="2.19298" stroke-width="0.5" stroke="grey" fill="grey"/>
   </g>
   <g id="cell256">
  <circle cx="188.532" cy="194.37" r="7.9246" stroke-width="0.5" stroke="black" fill="grey"/>
  <circle cx="188.532" cy="194.37" r="4.18867" stroke-width="0.5" stroke="grey" fill="grey"/>
   </g>
   <g id="cell260">
  <circle cx="201.488" cy="109.957" r="8.3792" stroke-width="0.5" stroke="black" fill="grey"/>
  <circle cx="201.488" cy="109.957" r="4.99566" stroke-width="0.5" stroke="grey" fill="grey"/>
   </g>
   <g id="cell268">
  <circle cx="40.0128" cy="184.982" r="6.96394" stroke-width="0.5" stroke="black" fill="grey"/>
  <circle cx="40.0128" cy="184.982" r="1.80058" stroke-width="0.5" stroke="grey" fill="grey"/>
   </g>
   <g id="cell271">
  <circle cx="58.435" cy="244.455" r="6.60276" stroke-width="0.5" stroke="black" fill="grey"/>
   </g>
   <g id="cell279">
  <circle cx="93.9081" cy="169.626" r="8.40618" stroke-width="0.5" stroke="black" fill="grey"/>
  <circle cx="93.9081" cy="169.626" r="5.04078" stroke-width="0.5" stroke="grey" fill="grey"/>
   </g>
   <g id="cell284">
  <circle cx="98.2779" cy="257.096" r="8.33222" stroke-width="0.5" stroke="black" fill="grey"/>
  <circle cx="98.2779" cy="257.096" r="4.91645" stroke-width="0.5" stroke="grey" fill="grey"/>
   </g>
   <g id="cell285">
  <circle cx="73.4515" cy="228.532" r="5.77686" stroke-width="0.5" stroke="black" fill="grey"/>
   </g>
   <g id="cell286">
  <circle cx="108.023" cy="106.157" r="8.01947" stroke-width="0.5" stroke="black" fill="grey"/>
  <circle cx="108.023" cy="106.157" r="4.36551" stroke-width="0.5" stroke="grey" fill="grey"/>
   </g>
   <g id="cell293">
  <circle cx="103.372" cy="277.063" r="3.91569" stroke-width="0.5" stroke="black" fill="grey"/>
   </g>
   <g id="cell298">
  <circle cx="129.798" cy="182.218" r="8.33104" stroke-width="0.5" stroke="black" fill="grey"/>
  <circle cx="129.798" cy="182.218" r="4.91447" stroke-width="0.5" stroke="grey" fill="grey"/>
   </g>
   <g id="cell304">
  <circle cx="141.856" cy="159.814" r="6.28784" stroke-width="0.5" stroke="black" fill="grey"/>
   </g>
   <g id="cell308">
  <circle cx="107.76" cy="244.499" r="7.76481" stroke-width="0.5" stroke="black" fill="grey"/>
  <circle cx="107.76" cy="244.499" r="3.87788" stroke-width="0.5" stroke="grey" fill="grey"/>
   </g>
   <g id="cell309">
  <circle cx="167.09" cy="232.759" r="8.31771" stroke-width="0.5" stroke="black" fill="grey"/>
  <circle cx="167.09" cy="232.759" r="4.89183" stroke-width="0.5" stroke="grey" fill="grey"/>
   </g>
   <g id="cell314">
  <circle cx="173.891" cy="190.651" r="3.96533" stroke-width="0.5" stroke="black" fill="grey"/>
   </g>
   <g id="cell315">
  <circle cx="152.364" cy="182.74" r="3.66182" stroke-width="0.5" stroke="black" fill="grey"/>
   </g>
   <g id="cell325">
  <circle cx="218.548" cy="237.274" r="1.46291" stroke-width="0.5" stroke="black" fill="grey"/>
   </g>
   <g id="cell326">
  <circle cx="185.733" cy="248.119" r="7.33399" stroke-width="0.5" stroke="black" fill="grey"/>
  <circle cx="185.733" cy="248.119" r="2.92115" stroke-width="0.5" stroke="grey" fill="grey"/>
   </g>
   <g id="cell331">
  <circle cx="166.98" cy="215.352" r="7.38624" stroke-width="0.5" stroke="black" fill="grey"/>
  <circle cx="166.98" cy="215.352" r="3.04995" stroke-width="0.5" stroke="grey" fill="grey"/>
   </g>
   <g id="cell346">
  <circle cx="80.5553" cy="273.645" r="7.87521" stroke-width="0.5" stroke="black" fill="grey"/>
  <circle cx="80.5553" cy="273.645" r="4.09446" stroke-width="0.5" stroke="grey" fill="grey"/>
   </g>
   <g id="cell349">
  <circle cx="82.6936" cy="149.782" r="8.40756" stroke-width="0.5" stroke="black" fill="grey"/>
  <circle cx="82.6936" cy="149.782" r="5.04309" stroke-width="0.5" stroke="grey" fill="grey"/>
   </g>
   <g id="cell353">
  <circle cx="93.3427" cy="231.089" r="7.55713" stroke-width="0.5" stroke="black" fill="grey"/>
  <circle cx="93.3427" cy="231.089" r="3.44324" stroke-width="0.5" stroke="grey" fill="grey"/>
   </g>
   <g id="cell357">
  <circle cx="96.2382" cy="153.89" r="7.85934" stroke-width="0.5" stroke="black" fill="grey"/>
  <circle cx="96.2382" cy="153.89" r="4.06386" stroke-width="0.5" stroke="grey" fill="grey"/>
   </g>
   <g id="cell375">
  <circle cx="143.704" cy="171.132" r="5.08523" stroke-width="0.5" stroke="black" fill="grey"/>
   </g>
   <g id="cell386">
  <circle cx="137.755" cy="223.614" r="8.13236" stroke-width="0.5" stroke="black" fill="grey"/>
  <circle cx="137.755" cy="223.614" r="4.56957" stroke-width="0.5" stroke="grey" fill="grey"/>
   </g>
   <g id="cell400">
  <circle cx="33.3048" cy="160.558" r="5.29226" stroke-width="0.5" stroke="black" fill="grey"/>
   </g>
   <g id="cell423">
  <circle cx="103.493" cy="228.399" r="4.19972" stroke-width="0.5" stroke="black" fill="grey"/>
   </g>
   <g id="cell425">
  <circle cx="135.987" cy="241.18" r="7.57733" stroke-width="0.5" stroke="black" fill="grey"/>
  <circle cx="135.987" cy="241.18" r="3.48735" stroke-width="0.5" stroke="grey" fill="grey"/>
   </g>
   <g id="cell429">
  <circle cx="125.769" cy="164.017" r="7.75362" stroke-width="0.5" stroke="black" fill="grey"/>
  <circle cx="125.769" cy="164.017" r="3.85543" stroke-width="0.5" stroke="grey" fill="grey"/>
   </g>
   <g id="cell464">
  <circle cx="102.88" cy="136.426" r="1.83548" stroke-width="0.5" stroke="black" fill="grey"/>
   </g>
   <g id="cell567">
  <circle cx="247.626" cy="266.57" r="3.34355" stroke-width="0.5" stroke="black" fill="red"/>
   </g>
   <g id="cell597">
  <circle cx="285.004" cy="255.102" r="7.55513" stroke-width="0.5" stroke="black" fill="red"/>
  <circle cx="285.004" cy="255.102" r="3.43885" stroke-width="0.5" stroke="red" fill="red"/>
   </g>
   <g id="cell615">
  <circle cx="329.578" cy="182.082" r="3.65163" stroke-width="0.5" stroke="black" fill="red"/>
   </g>
   <g id="cell617">
  <circle cx="354.058" cy="241.879" r="8.40516" stroke-width="0.5" stroke="black" fill="red"/>
  <circle cx="354.058" cy="241.879" r="5.03908" stroke-width="0.5" stroke="red" fill="red"/>
   </g>
   <g id="cell626">
  <circle cx="210.729" cy="181.664" r="7.02955" stroke-width="0.5" stroke="black" fill="red"/>
  <circle cx="210.729" cy="181.664" r="2.03968" stroke-width="0.5" stroke="red" fill="red"/>
   </g>
   <g id="cell633">
  <circle cx="252.714" cy="201.788" r="6.62" stroke-width="0.5" stroke="black" fill="red"/>
   </g>
   <g id="cell645">
  <circle cx="250.319" cy="151.791" r="8.38852" stroke-width="0.5" stroke="black" fill="red"/>
  <circle cx="250.319" cy="151.791" r="5.01128" stroke-width="0.5" stroke="red" fill="red"/>
   </g>
   <g id="cell646">
  <circle cx="292.503" cy="157.814" r="8.09478" stroke-width="0.5" stroke="black" fill="red"/>
  <circle cx="292.503" cy="157.814" r="4.50235" stroke-width="0.5" stroke="red" fill="red"/>
   </g>
   <g id="cell647">
  <circle cx="302.39" cy="176.889" r="8.34183" stroke-width="0.5" stroke="black" fill="red"/>
  <circle cx="302.39" cy="176.889" r="4.93273" stroke-width="0.5" stroke="red" fill="red"/>
   </g>
   <g id="cell651">
  <circle cx="289.294" cy="294.202" r="8.01168" stroke-width="0.5" stroke="black" fill="red"/>
  <circle cx="289.294" cy="294.202" r="4.35117" stroke-width="0.5" stroke="red" fill="red"/>
   </g>
   <g id="cell652">
  <circle cx="249.01" cy="246.921" r="1.78214" stroke-width="0.5" stroke="black" fill="red"/>
   </g>
   <g id="cell659">
  <circle cx="274.658" cy="229.874" r="8.41041" stroke-width="0.5" stroke="black" fill="red"/>
  <circle cx="274.658" cy="229.874" r="5.04784" stroke-width="0.5" stroke="red" fill="red"/>
   </g>
   <g id="cell662">
  <circle cx="291.613" cy="135.717" r="8.16289" stroke-width="0.5" stroke="black" fill="red"/>
  <circle cx="291.613" cy="135.717" r="4.62369" stroke-width="0.5" stroke="red" fill="red"/>
   </g>
   <g id="cell667">
  <circle cx="359.016" cy="258.746" r="7.45692" stroke-width="0.5" stroke="black" fill="red"/>
  <circle cx="359.016" cy="258.746" r="3.21735" stroke-width="0.5" stroke="red" fill="red"/>
   </g>
   <g id="cell669">
  <circle cx="360.188" cy="117.161" r="8.13456" stroke-width="0.5" stroke="black" fill="red"/>
  <circle cx="360.188" cy="117.161" r="4.57348" stroke-width="0.5" stroke="red" fill="red"/>
   </g>
   <g id="cell679">
  <circle cx="348.109" cy="174.191" r="2.01832" stroke-width="0.5" stroke="black" fill="red"/>
   </g>
   <g id="cell681">
  <circle cx="325.771" cy="283.647" r="8.00181" stroke-width="0.5" stroke="black" fill="red"/>
  <circle cx="325.771" cy="283.647" r="4.33296" stroke-width="0.5" stroke="red" fill="red"/>
   </g>
   <g id="cell692">
  <circle cx="186.696" cy="271.873" r="6.18588" stroke-width="0.5" stroke="black" fill="red"/>
   </g>
   <g id="cell703">
  <circle cx="238.856" cy="185.044" r="8.31061" stroke-width="0.5" stroke="black" fill="red"/>
  <circle cx="238.856" cy="185.044" r="4.87975" stroke-width="0.5" stroke="red" fill="red"/>
   </g>
   <g id="cell704">
  <circle cx="253.533" cy="235.856" r="8.23058" stroke-width="0.5" stroke="black" fill="red"/>
  <circle cx="253.533" cy="235.856" r="4.74216" stroke-width="0.5" stroke="red" fill="red"/>
   </g>
   <g id="cell705">
  <circle cx="261.967" cy="212.641" r="7.58081" stroke-width="0.5" stroke="black" fill="red"/>
  <circle cx="261.967" cy="212.641" r="3.4949" stroke-width="0.5" stroke="red" fill="red"/>
   </g>
   <g id="cell706">
  <circle cx="241.024" cy="230.451" r="8.40883" stroke-width="0.5" stroke="black" fill="red"/>
  <circle cx="241.024" cy="230.451" r="5.0452" stroke-width="0.5" stroke="red" fill="red"/>
   </g>
   <g id="cell709">
  <circle cx="236.526" cy="133.753" r="8.36559" stroke-width="0.5" stroke="black" fill="red"/>
  <circle cx="236.526" cy="133.753" r="4.97281" stroke-width="0.5" stroke="red" fill="red"/>
   </g>
   <g id="cell718">
  <circle cx="270.743" cy="147.121" r="8.31033" stroke-width="0.5" stroke="black" fill="red"/>
  <circle cx="270.743" cy="147.121" r="4.87927" stroke-width="0.5" stroke="red" fill="red"/>
   </g>
   <g id="cell724">
  <circle cx="274.724" cy="266.373" r="3.59965" stroke-width="0.5" stroke="black" fill="red"/>
   </g>
   <g id="cell725">
  <circle cx="290.957" cy="97.0245" r="7.70957" stroke-width="0.5" stroke="black" fill="red"/>
  <circle cx="290.957" cy="97.0245" r="3.76605" stroke-width="0.5" stroke="red" fill="red"/>
   </g>
   <g id="cell741">
  <circle cx="297.234" cy="280.521" r="1.90059" stroke-width="0.5" stroke="black" fill="red"/>
   </g>
   <g id="cell746">
  <circle cx="314.153" cy="214.225" r="5.45275" stroke-width="0.5" stroke="black" fill="red"/>
   </g>
   <g id="cell759">
  <circle cx="230.639" cy="221.274" r="8.0168" stroke-width="0.5" stroke="black" fill="red"/>
  <circle cx="230.639" cy="221.274" r="4.36059" stroke-width="0.5" stroke="red" fill="red"/>
   </g>
   <g id="cell763">
  <circle cx="238.48" cy="203.227" r="7.94272" stroke-width="0.5" stroke="black" fill="red"/>
  <circle cx="238.48" cy="203.227" r="4.22286" stroke-width="0.5" stroke="red" fill="red"/>
   </g>
   <g id="cell766">
  <circle cx="262.509" cy="273.58" r="5.79914" stroke-width="0.5" stroke="black" fill="red"/>
   </g>
   <g id="cell767">
  <circle cx="235.379" cy="107.818" r="6.02006" stroke-width="0.5" stroke="black" fill="red"/>
   </g>
   <g id="cell772">
  <circle cx="205.707" cy="202.139" r="8.10834" stroke-width="0.5" stroke="black" fill="red"/>
  <circle cx="205.707" cy="202.139" r="4.52668" stroke-width="0.5" stroke="red" fill="red"/>
   </g>
   <g id="cell780">
  <circle cx="260.183" cy="262.634" r="7.092" stroke-width="0.5" stroke="black" fill="red"/>
  <circle cx="260.183" cy="262.634" r="2.24548" stroke-width="0.5" stroke="red" fill="red"/>
   </g>
   <g id="cell781">
  <circle cx="308.44" cy="247.457" r="6.80057" stroke-width="0.5" stroke="black" fill="red"/>
  <circle cx="308.44" cy="247.457" r="0.996702" stroke-width="0.5" stroke="red" fill="red"/>
   </g>
   <g id="cell787">
  <circle cx="280.085" cy="157.687" r="6.47627" stroke-width="0.5" stroke="black" fill="red"/>
   </g>
   <g id="cell791">
  <circle cx="267.353" cy="319.15" r="8.35964" stroke-width="0.5" stroke="black" fill="red"/>
  <circle cx="267.353" cy="319.15" r="4.9628" stroke-width="0.5" stroke="red" fill="red"/>
   </g>
   <g id="cell794">
  <circle cx="261.798" cy="181.023" r="8.41247" stroke-width="0.5" stroke="black" fill="red"/>
  <circle cx="261.798" cy="181.023" r="5.05127" stroke-width="0.5" stroke="red" fill="red"/>
   </g>
   <g id="cell795">
  <circle cx="289.224" cy="215.369" r="3.76771" stroke-width="0.5" stroke="black" fill="red"/>
   </g>
   <g id="cell802">
  <circle cx="319.972" cy="170.799" r="7.45123" stroke-width="0.5" stroke="black" fill="red"/>
  <circle cx="319.972" cy="170.799" r="3.20414" stroke-width="0.5" stroke="red" fill="red"/>
   </g>
   <g id="cell805">
  <circle cx="342.163" cy="250.329" r="7.92361" stroke-width="0.5" stroke="black" fill="red"/>
  <circle cx="342.163" cy="250.329" r="4.1868" stroke-width="0.5" stroke="red" fill="red"/>
   </g>
   <g id="cell807">
  <circle cx="297.222" cy="266.567" r="5.88961" stroke-width="0.5" stroke="black" fill="red"/>
   </g>
   <g id="cell808">
  <circle cx="346.29" cy="297.383" r="8.40598" stroke-width="0.5" stroke="black" fill="red"/>
  <circle cx="346.29" cy="297.383" r="5.04046" stroke-width="0.5" stroke="red" fill="red"/>
   </g>
   <g id="cell814">
  <circle cx="287.963" cy="227.895" r="7.78976" stroke-width="0.5" stroke="black" fill="red"/>
  <circle cx="287.963" cy="227.895" r="3.9276" stroke-width="0.5" stroke="red" fill="red"/>
   </g>
   <g id="cell837">
  <circle cx="256.643" cy="164.648" r="0.909478" stroke-width="0.5" stroke="black" fill="red"/>
   </g>
   <g id="cell845">
  <circle cx="252.975" cy="131.153" r="8.07778" stroke-width="0.5" stroke="black" fill="red"/>
  <circle cx="252.975" cy="131.153" r="4.4717" stroke-width="0.5" stroke="red" fill="red"/>
   </g>
   <g id="cell861">
  <circle cx="241.498" cy="93.0378" r="5.78586" stroke-width="0.5" stroke="black" fill="red"/>
   </g>
   <g id="cell862">
  <circle cx="300.212" cy="132.257" r="1.42593" stroke-width="0.5" stroke="black" fill="red"/>
   </g>
   <g id="cell873">
  <circle cx="328.258" cy="195.488" r="8.29886" stroke-width="0.5" stroke="black" fill="red"/>
  <circle cx="328.258" cy="195.488" r="4.85971" stroke-width="0.5" stroke="red" fill="red"/>
   </g>
   <g id="cell877">
  <circle cx="331.909" cy="100.401" r="8.3589" stroke-width="0.5" stroke="black" fill="red"/>
  <circle cx="331.909" cy="100.401" r="4.96154" stroke-width="0.5" stroke="red" fill="red"/>
   </g>
   <g id="cell884">
  <circle cx="342.192" cy="189.64" r="1.86596" stroke-width="0.5" stroke="black" fill="red"/>
   </g>
   <g id="cell890">
  <circle cx="236.093" cy="158.088" r="5.25261" stroke-width="0.5" stroke="black" fill="red"/>
   </g>
   <g id="cell935">
  <circle cx="312.631" cy="267.484" r="7.80817" stroke-width="0.5" stroke="black" fill="red"/>
  <circle cx="312.631" cy="267.484" r="3.96399" stroke-width="0.5" stroke="red" fill="red"/>
   </g>
   <g id="cell939">
  <circle cx="348.864" cy="223.881" r="6.28401" stroke-width="0.5" stroke="black" fill="red"/>
   </g>
  </g>
 </g>
  <rect x="190" y="414" width="200" height="4" stroke-width="0.8" stroke="rgb(255,255,255)" fill="rgb(0,0,0)"/>
  <text x="192.5" y="411.5"
   font-family="Arial" font-size="10" fill="black" >
   200 &#956;m
  </text>
  <text x="10" y="418"
   font-family="Arial" font-size="7.5" fill="black" >
   0 days, 0 hours, 7 minutes, and 28.6683 seconds
  </text>
  <rect x="0" y="28" width="400" height="400" stroke-width="0.8" stroke="rgb(0,0,0)" fill="none"/>
</svg>
