<?xml version="1.0" encoding="UTF-8" standalone="no"?>
<!-- Created with PhysiCell (http://PhysiCell.MathCancer.org/) -->
<svg 
 xmlns:dc="http://purl.org/dc/elements/1.1/" 
 xmlns:cc="http://creativecommons.org/ns#" 
 xmlns:rdf="http://www.w3.org/1999/02/22-rdf-syntax-ns#" 
 xmlns:svg="http://www.w3.org/2000/svg" 
 xmlns="http://www.w3.org/2000/svg" 
 version="1.1" 
 width="400" 
 height="428" 
 id="svg2">
  <rect x="0" y="0" width="400" height="428" stroke-width="0.8" stroke="white" fill="white"/>
  <text x="5" y="12"
   font-family="Arial" font-size="10" fill="black" >
   Current time: 1 days, 11 hours, and 0.00 minutes, z = 0.00 &#956;m
  </text>
  <text x="5" y="23"
   font-family="Arial" font-size="9.5" fill="black" >
   978 agents
  </text>
 <g id="tissue" 
    transform="translate(0,428) scale(1,-1)">
  <g id="ECM">
  </g>
  <g id="cells">
   <g id="cell3">
  <circle cx="128.901" cy="231.371" r="8.40604" stroke-width="0.5" stroke="black" fill="grey"/>
  <circle cx="128.901" cy="231.371" r="5.04055" stroke-width="0.5" stroke="grey" fill="grey"/>
   </g>
   <g id="cell35">
  <circle cx="176.633" cy="126.332" r="8.33236" stroke-width="0.5" stroke="black" fill="grey"/>
  <circle cx="176.633" cy="126.332" r="4.9167" stroke-width="0.5" stroke="grey" fill="grey"/>
   </g>
   <g id="cell46">
  <circle cx="52.2301" cy="284.56" r="6.41279" stroke-width="0.5" stroke="black" fill="grey"/>
   </g>
   <g id="cell82">
  <circle cx="117.231" cy="170.946" r="8.40928" stroke-width="0.5" stroke="black" fill="grey"/>
  <circle cx="117.231" cy="170.946" r="5.04596" stroke-width="0.5" stroke="grey" fill="grey"/>
   </g>
   <g id="cell88">
  <circle cx="127.543" cy="74.0111" r="6.8826" stroke-width="0.5" stroke="black" fill="grey"/>
  <circle cx="127.543" cy="74.0111" r="1.45462" stroke-width="0.5" stroke="grey" fill="grey"/>
   </g>
   <g id="cell120">
  <circle cx="194.462" cy="160.674" r="7.60275" stroke-width="0.5" stroke="black" fill="grey"/>
  <circle cx="194.462" cy="160.674" r="3.54224" stroke-width="0.5" stroke="grey" fill="grey"/>
   </g>
   <g id="cell137">
  <circle cx="24.0503" cy="188.32" r="7.81628" stroke-width="0.5" stroke="black" fill="grey"/>
  <circle cx="24.0503" cy="188.32" r="3.97994" stroke-width="0.5" stroke="grey" fill="grey"/>
   </g>
   <g id="cell145">
  <circle cx="117.857" cy="221.134" r="7.68118" stroke-width="0.5" stroke="black" fill="grey"/>
  <circle cx="117.857" cy="221.134" r="3.70759" stroke-width="0.5" stroke="grey" fill="grey"/>
   </g>
   <g id="cell168">
  <circle cx="137.28" cy="220.206" r="3.50917" stroke-width="0.5" stroke="black" fill="grey"/>
   </g>
   <g id="cell170">
  <circle cx="82.7007" cy="261.536" r="6.72645" stroke-width="0.5" stroke="black" fill="grey"/>
   </g>
   <g id="cell173">
  <circle cx="143.59" cy="108.672" r="1.6767" stroke-width="0.5" stroke="black" fill="grey"/>
   </g>
   <g id="cell181">
  <circle cx="145.238" cy="94.2517" r="8.08782" stroke-width="0.5" stroke="black" fill="grey"/>
  <circle cx="145.238" cy="94.2517" r="4.48983" stroke-width="0.5" stroke="grey" fill="grey"/>
   </g>
   <g id="cell197">
  <circle cx="111.468" cy="262.751" r="5.56892" stroke-width="0.5" stroke="black" fill="grey"/>
   </g>
   <g id="cell220">
  <circle cx="102.448" cy="177.908" r="5.55646" stroke-width="0.5" stroke="black" fill="grey"/>
   </g>
   <g id="cell221">
  <circle cx="96.5884" cy="134.689" r="4.06413" stroke-width="0.5" stroke="black" fill="grey"/>
   </g>
   <g id="cell224">
  <circle cx="145.472" cy="237.097" r="2.69414" stroke-width="0.5" stroke="black" fill="grey"/>
   </g>
   <g id="cell229">
  <circle cx="108.401" cy="89.7362" r="3.94405" stroke-width="0.5" stroke="black" fill="grey"/>
   </g>
   <g id="cell242">
  <circle cx="114.998" cy="193.673" r="4.8302" stroke-width="0.5" stroke="black" fill="grey"/>
   </g>
   <g id="cell249">
  <circle cx="187.857" cy="221.722" r="8.19837" stroke-width="0.5" stroke="black" fill="grey"/>
  <circle cx="187.857" cy="221.722" r="4.68605" stroke-width="0.5" stroke="grey" fill="grey"/>
   </g>
   <g id="cell251">
  <circle cx="132.213" cy="276.157" r="6.90485" stroke-width="0.5" stroke="black" fill="grey"/>
  <circle cx="132.213" cy="276.157" r="1.55648" stroke-width="0.5" stroke="grey" fill="grey"/>
   </g>
   <g id="cell254">
  <circle cx="150.884" cy="169.638" r="8.23716" stroke-width="0.5" stroke="black" fill="grey"/>
  <circle cx="150.884" cy="169.638" r="4.75358" stroke-width="0.5" stroke="grey" fill="grey"/>
   </g>
   <g id="cell261">
  <circle cx="178.367" cy="150.204" r="7.91054" stroke-width="0.5" stroke="black" fill="grey"/>
  <circle cx="178.367" cy="150.204" r="4.16201" stroke-width="0.5" stroke="grey" fill="grey"/>
   </g>
   <g id="cell284">
  <circle cx="67.0025" cy="270.084" r="7.40525" stroke-width="0.5" stroke="black" fill="grey"/>
  <circle cx="67.0025" cy="270.084" r="3.09571" stroke-width="0.5" stroke="grey" fill="grey"/>
   </g>
   <g id="cell298">
  <circle cx="122.658" cy="187.872" r="6.96697" stroke-width="0.5" stroke="black" fill="grey"/>
  <circle cx="122.658" cy="187.872" r="1.81229" stroke-width="0.5" stroke="grey" fill="grey"/>
   </g>
   <g id="cell300">
  <circle cx="121.527" cy="287.286" r="4.99103" stroke-width="0.5" stroke="black" fill="grey"/>
   </g>
   <g id="cell301">
  <circle cx="145.543" cy="287.137" r="7.68932" stroke-width="0.5" stroke="black" fill="grey"/>
  <circle cx="145.543" cy="287.137" r="3.72442" stroke-width="0.5" stroke="grey" fill="grey"/>
   </g>
   <g id="cell314">
  <circle cx="151.772" cy="220.51" r="8.41167" stroke-width="0.5" stroke="black" fill="grey"/>
  <circle cx="151.772" cy="220.51" r="5.04994" stroke-width="0.5" stroke="grey" fill="grey"/>
   </g>
   <g id="cell322">
  <circle cx="172.171" cy="213.54" r="5.53172" stroke-width="0.5" stroke="black" fill="grey"/>
   </g>
   <g id="cell326">
  <circle cx="205.42" cy="268.475" r="3.10518" stroke-width="0.5" stroke="black" fill="grey"/>
   </g>
   <g id="cell344">
  <circle cx="11.0984" cy="196.463" r="8.2651" stroke-width="0.5" stroke="black" fill="grey"/>
  <circle cx="11.0984" cy="196.463" r="4.80183" stroke-width="0.5" stroke="grey" fill="grey"/>
   </g>
   <g id="cell356">
  <circle cx="142.034" cy="132.674" r="4.70046" stroke-width="0.5" stroke="black" fill="grey"/>
   </g>
   <g id="cell375">
  <circle cx="146.585" cy="188.621" r="8.40666" stroke-width="0.5" stroke="black" fill="grey"/>
  <circle cx="146.585" cy="188.621" r="5.04158" stroke-width="0.5" stroke="grey" fill="grey"/>
   </g>
   <g id="cell395">
  <circle cx="183.773" cy="174.889" r="7.18138" stroke-width="0.5" stroke="black" fill="grey"/>
  <circle cx="183.773" cy="174.889" r="2.51353" stroke-width="0.5" stroke="grey" fill="grey"/>
   </g>
   <g id="cell413">
  <circle cx="101.361" cy="130.968" r="6.72969" stroke-width="0.5" stroke="black" fill="grey"/>
  <circle cx="101.361" cy="130.968" r="0.185468" stroke-width="0.5" stroke="grey" fill="grey"/>
   </g>
   <g id="cell421">
  <circle cx="121.437" cy="156.022" r="7.80741" stroke-width="0.5" stroke="black" fill="grey"/>
  <circle cx="121.437" cy="156.022" r="3.96248" stroke-width="0.5" stroke="grey" fill="grey"/>
   </g>
   <g id="cell423">
  <circle cx="112.576" cy="239.766" r="3.55167" stroke-width="0.5" stroke="black" fill="grey"/>
   </g>
   <g id="cell435">
  <circle cx="166.438" cy="96.6734" r="5.24465" stroke-width="0.5" stroke="black" fill="grey"/>
   </g>
   <g id="cell437">
  <circle cx="133.166" cy="200.298" r="6.57838" stroke-width="0.5" stroke="black" fill="grey"/>
   </g>
   <g id="cell445">
  <circle cx="132.307" cy="144.47" r="8.41132" stroke-width="0.5" stroke="black" fill="grey"/>
  <circle cx="132.307" cy="144.47" r="5.04935" stroke-width="0.5" stroke="grey" fill="grey"/>
   </g>
   <g id="cell464">
  <circle cx="113.659" cy="142.521" r="8.40478" stroke-width="0.5" stroke="black" fill="grey"/>
  <circle cx="113.659" cy="142.521" r="5.03846" stroke-width="0.5" stroke="grey" fill="grey"/>
   </g>
   <g id="cell499">
  <circle cx="239.912" cy="154.708" r="2.39442" stroke-width="0.5" stroke="black" fill="red"/>
   </g>
   <g id="cell558">
  <circle cx="241.077" cy="170.83" r="8.35917" stroke-width="0.5" stroke="black" fill="red"/>
  <circle cx="241.077" cy="170.83" r="4.96199" stroke-width="0.5" stroke="red" fill="red"/>
   </g>
   <g id="cell573">
  <circle cx="254.294" cy="215.395" r="4.98843" stroke-width="0.5" stroke="black" fill="red"/>
   </g>
   <g id="cell589">
  <circle cx="312.105" cy="188.807" r="4.33335" stroke-width="0.5" stroke="black" fill="red"/>
   </g>
   <g id="cell600">
  <circle cx="318.209" cy="125.935" r="4.90376" stroke-width="0.5" stroke="black" fill="red"/>
   </g>
   <g id="cell605">
  <circle cx="351.973" cy="209.952" r="8.4099" stroke-width="0.5" stroke="black" fill="red"/>
  <circle cx="351.973" cy="209.952" r="5.04699" stroke-width="0.5" stroke="red" fill="red"/>
   </g>
   <g id="cell606">
  <circle cx="342.562" cy="234.11" r="8.40202" stroke-width="0.5" stroke="black" fill="red"/>
  <circle cx="342.562" cy="234.11" r="5.03385" stroke-width="0.5" stroke="red" fill="red"/>
   </g>
   <g id="cell614">
  <circle cx="332.078" cy="170.377" r="6.37104" stroke-width="0.5" stroke="black" fill="red"/>
   </g>
   <g id="cell619">
  <circle cx="196.323" cy="148.403" r="8.41251" stroke-width="0.5" stroke="black" fill="red"/>
  <circle cx="196.323" cy="148.403" r="5.05134" stroke-width="0.5" stroke="red" fill="red"/>
   </g>
   <g id="cell625">
  <circle cx="208.956" cy="176.239" r="5.07261" stroke-width="0.5" stroke="black" fill="red"/>
   </g>
   <g id="cell626">
  <circle cx="217.094" cy="185.499" r="8.41032" stroke-width="0.5" stroke="black" fill="red"/>
  <circle cx="217.094" cy="185.499" r="5.04769" stroke-width="0.5" stroke="red" fill="red"/>
   </g>
   <g id="cell627">
  <circle cx="224.058" cy="272.688" r="0.899005" stroke-width="0.5" stroke="black" fill="red"/>
   </g>
   <g id="cell661">
  <circle cx="301.272" cy="116.256" r="8.13149" stroke-width="0.5" stroke="black" fill="red"/>
  <circle cx="301.272" cy="116.256" r="4.56803" stroke-width="0.5" stroke="red" fill="red"/>
   </g>
   <g id="cell667">
  <circle cx="341.599" cy="260.081" r="1.64879" stroke-width="0.5" stroke="black" fill="red"/>
   </g>
   <g id="cell669">
  <circle cx="387.389" cy="117.234" r="6.37246" stroke-width="0.5" stroke="black" fill="red"/>
   </g>
   <g id="cell677">
  <circle cx="350.953" cy="97.7521" r="4.09505" stroke-width="0.5" stroke="black" fill="red"/>
   </g>
   <g id="cell679">
  <circle cx="340.746" cy="165.265" r="4.33786" stroke-width="0.5" stroke="black" fill="red"/>
   </g>
   <g id="cell702">
  <circle cx="246.642" cy="199.787" r="7.36407" stroke-width="0.5" stroke="black" fill="red"/>
  <circle cx="246.642" cy="199.787" r="2.99586" stroke-width="0.5" stroke="red" fill="red"/>
   </g>
   <g id="cell713">
  <circle cx="260.898" cy="203.21" r="4.66223" stroke-width="0.5" stroke="black" fill="red"/>
   </g>
   <g id="cell720">
  <circle cx="297.232" cy="168.36" r="8.07059" stroke-width="0.5" stroke="black" fill="red"/>
  <circle cx="297.232" cy="168.36" r="4.45871" stroke-width="0.5" stroke="red" fill="red"/>
   </g>
   <g id="cell743">
  <circle cx="389.723" cy="183.489" r="6.88982" stroke-width="0.5" stroke="black" fill="red"/>
  <circle cx="389.723" cy="183.489" r="1.4884" stroke-width="0.5" stroke="red" fill="red"/>
   </g>
   <g id="cell756">
  <circle cx="210.008" cy="161.736" r="8.41263" stroke-width="0.5" stroke="black" fill="red"/>
  <circle cx="210.008" cy="161.736" r="5.05153" stroke-width="0.5" stroke="red" fill="red"/>
   </g>
   <g id="cell763">
  <circle cx="226.563" cy="220.095" r="8.28886" stroke-width="0.5" stroke="black" fill="red"/>
  <circle cx="226.563" cy="220.095" r="4.8426" stroke-width="0.5" stroke="red" fill="red"/>
   </g>
   <g id="cell780">
  <circle cx="280.058" cy="272.571" r="7.86276" stroke-width="0.5" stroke="black" fill="red"/>
  <circle cx="280.058" cy="272.571" r="4.07046" stroke-width="0.5" stroke="red" fill="red"/>
   </g>
   <g id="cell814">
  <circle cx="299.688" cy="230.893" r="8.41249" stroke-width="0.5" stroke="black" fill="red"/>
  <circle cx="299.688" cy="230.893" r="5.0513" stroke-width="0.5" stroke="red" fill="red"/>
   </g>
   <g id="cell819">
  <circle cx="371.744" cy="177.261" r="8.38855" stroke-width="0.5" stroke="black" fill="red"/>
  <circle cx="371.744" cy="177.261" r="5.01133" stroke-width="0.5" stroke="red" fill="red"/>
   </g>
   <g id="cell821">
  <circle cx="373.531" cy="268.392" r="3.10943" stroke-width="0.5" stroke="black" fill="red"/>
   </g>
   <g id="cell843">
  <circle cx="251.903" cy="281.406" r="6.48057" stroke-width="0.5" stroke="black" fill="red"/>
   </g>
   <g id="cell845">
  <circle cx="263.938" cy="119.466" r="7.43158" stroke-width="0.5" stroke="black" fill="red"/>
  <circle cx="263.938" cy="119.466" r="3.15818" stroke-width="0.5" stroke="red" fill="red"/>
   </g>
   <g id="cell846">
  <circle cx="279.129" cy="156.732" r="2.99674" stroke-width="0.5" stroke="black" fill="red"/>
   </g>
   <g id="cell850">
  <circle cx="251.666" cy="260.606" r="4.78935" stroke-width="0.5" stroke="black" fill="red"/>
   </g>
   <g id="cell860">
  <circle cx="255.622" cy="239.099" r="8.40823" stroke-width="0.5" stroke="black" fill="red"/>
  <circle cx="255.622" cy="239.099" r="5.04421" stroke-width="0.5" stroke="red" fill="red"/>
   </g>
   <g id="cell861">
  <circle cx="251.617" cy="53.2292" r="6.60208" stroke-width="0.5" stroke="black" fill="red"/>
   </g>
   <g id="cell864">
  <circle cx="320.252" cy="166.256" r="6.87204" stroke-width="0.5" stroke="black" fill="red"/>
  <circle cx="320.252" cy="166.256" r="1.40377" stroke-width="0.5" stroke="red" fill="red"/>
   </g>
   <g id="cell867">
  <circle cx="281.244" cy="239.043" r="7.32411" stroke-width="0.5" stroke="black" fill="red"/>
  <circle cx="281.244" cy="239.043" r="2.89624" stroke-width="0.5" stroke="red" fill="red"/>
   </g>
   <g id="cell870">
  <circle cx="334.405" cy="120.04" r="5.31515" stroke-width="0.5" stroke="black" fill="red"/>
   </g>
   <g id="cell873">
  <circle cx="355.809" cy="190.54" r="8.29083" stroke-width="0.5" stroke="black" fill="red"/>
  <circle cx="355.809" cy="190.54" r="4.84599" stroke-width="0.5" stroke="red" fill="red"/>
   </g>
   <g id="cell881">
  <circle cx="321.944" cy="150.407" r="8.16727" stroke-width="0.5" stroke="black" fill="red"/>
  <circle cx="321.944" cy="150.407" r="4.63142" stroke-width="0.5" stroke="red" fill="red"/>
   </g>
   <g id="cell882">
  <circle cx="295.686" cy="283.952" r="8.41268" stroke-width="0.5" stroke="black" fill="red"/>
  <circle cx="295.686" cy="283.952" r="5.05162" stroke-width="0.5" stroke="red" fill="red"/>
   </g>
   <g id="cell884">
  <circle cx="347.212" cy="173.574" r="6.06909" stroke-width="0.5" stroke="black" fill="red"/>
   </g>
   <g id="cell894">
  <circle cx="239.357" cy="156.968" r="4.85052" stroke-width="0.5" stroke="black" fill="red"/>
   </g>
   <g id="cell899">
  <circle cx="206.974" cy="283.343" r="1.968" stroke-width="0.5" stroke="black" fill="red"/>
   </g>
   <g id="cell900">
  <circle cx="279.399" cy="288.299" r="8.28913" stroke-width="0.5" stroke="black" fill="red"/>
  <circle cx="279.399" cy="288.299" r="4.84307" stroke-width="0.5" stroke="red" fill="red"/>
   </g>
   <g id="cell923">
  <circle cx="261.043" cy="291.588" r="8.40557" stroke-width="0.5" stroke="black" fill="red"/>
  <circle cx="261.043" cy="291.588" r="5.03978" stroke-width="0.5" stroke="red" fill="red"/>
   </g>
  </g>
 </g>
  <rect x="190" y="414" width="200" height="4" stroke-width="0.8" stroke="rgb(255,255,255)" fill="rgb(0,0,0)"/>
  <text x="192.5" y="411.5"
   font-family="Arial" font-size="10" fill="black" >
   200 &#956;m
  </text>
  <text x="10" y="418"
   font-family="Arial" font-size="7.5" fill="black" >
   0 days, 0 hours, 10 minutes, and 49.2906 seconds
  </text>
  <rect x="0" y="28" width="400" height="400" stroke-width="0.8" stroke="rgb(0,0,0)" fill="none"/>
</svg>
