<?xml version="1.0" encoding="UTF-8" standalone="no"?>
<!-- Created with PhysiCell (http://PhysiCell.MathCancer.org/) -->
<svg 
 xmlns:dc="http://purl.org/dc/elements/1.1/" 
 xmlns:cc="http://creativecommons.org/ns#" 
 xmlns:rdf="http://www.w3.org/1999/02/22-rdf-syntax-ns#" 
 xmlns:svg="http://www.w3.org/2000/svg" 
 xmlns="http://www.w3.org/2000/svg" 
 version="1.1" 
 width="400" 
 height="428" 
 id="svg2">
  <rect x="0" y="0" width="400" height="428" stroke-width="0.8" stroke="white" fill="white"/>
  <text x="5" y="12"
   font-family="Arial" font-size="10" fill="black" >
   Current time: 1 days, 5 hours, and 0.00 minutes, z = 0.00 &#956;m
  </text>
  <text x="5" y="23"
   font-family="Arial" font-size="9.5" fill="black" >
   978 agents
  </text>
 <g id="tissue" 
    transform="translate(0,428) scale(1,-1)">
  <g id="ECM">
  </g>
  <g id="cells">
   <g id="cell73">
  <circle cx="89.1877" cy="116.778" r="6.28667" stroke-width="0.5" stroke="black" fill="grey"/>
   </g>
   <g id="cell82">
  <circle cx="108.37" cy="162.701" r="5.03686" stroke-width="0.5" stroke="black" fill="grey"/>
   </g>
   <g id="cell101">
  <circle cx="58.4213" cy="237.724" r="8.41271" stroke-width="0.5" stroke="black" fill="grey"/>
  <circle cx="58.4213" cy="237.724" r="5.05167" stroke-width="0.5" stroke="grey" fill="grey"/>
   </g>
   <g id="cell104">
  <circle cx="127.797" cy="123.618" r="7.30341" stroke-width="0.5" stroke="black" fill="grey"/>
  <circle cx="127.797" cy="123.618" r="2.84351" stroke-width="0.5" stroke="grey" fill="grey"/>
   </g>
   <g id="cell105">
  <circle cx="103.821" cy="147.045" r="5.2147" stroke-width="0.5" stroke="black" fill="grey"/>
   </g>
   <g id="cell131">
  <circle cx="37.5605" cy="216.228" r="8.28313" stroke-width="0.5" stroke="black" fill="grey"/>
  <circle cx="37.5605" cy="216.228" r="4.8328" stroke-width="0.5" stroke="grey" fill="grey"/>
   </g>
   <g id="cell149">
  <circle cx="139.571" cy="135.51" r="6.13662" stroke-width="0.5" stroke="black" fill="grey"/>
   </g>
   <g id="cell150">
  <circle cx="137.211" cy="208.368" r="4.48206" stroke-width="0.5" stroke="black" fill="grey"/>
   </g>
   <g id="cell151">
  <circle cx="66.9587" cy="198.644" r="4.70503" stroke-width="0.5" stroke="black" fill="grey"/>
   </g>
   <g id="cell159">
  <circle cx="98.8818" cy="196.068" r="5.73649" stroke-width="0.5" stroke="black" fill="grey"/>
   </g>
   <g id="cell166">
  <circle cx="149.426" cy="105.476" r="8.40423" stroke-width="0.5" stroke="black" fill="grey"/>
  <circle cx="149.426" cy="105.476" r="5.03754" stroke-width="0.5" stroke="grey" fill="grey"/>
   </g>
   <g id="cell168">
  <circle cx="162.445" cy="218.01" r="1.46055" stroke-width="0.5" stroke="black" fill="grey"/>
   </g>
   <g id="cell175">
  <circle cx="152.852" cy="150.825" r="5.33607" stroke-width="0.5" stroke="black" fill="grey"/>
   </g>
   <g id="cell187">
  <circle cx="200.149" cy="258.495" r="8.26072" stroke-width="0.5" stroke="black" fill="grey"/>
  <circle cx="200.149" cy="258.495" r="4.79429" stroke-width="0.5" stroke="grey" fill="grey"/>
   </g>
   <g id="cell192">
  <circle cx="152.584" cy="245.1" r="8.17998" stroke-width="0.5" stroke="black" fill="grey"/>
  <circle cx="152.584" cy="245.1" r="4.65379" stroke-width="0.5" stroke="grey" fill="grey"/>
   </g>
   <g id="cell194">
  <circle cx="182.252" cy="181.722" r="7.89661" stroke-width="0.5" stroke="black" fill="grey"/>
  <circle cx="182.252" cy="181.722" r="4.13547" stroke-width="0.5" stroke="grey" fill="grey"/>
   </g>
   <g id="cell197">
  <circle cx="77.0358" cy="282.977" r="6.88709" stroke-width="0.5" stroke="black" fill="grey"/>
  <circle cx="77.0358" cy="282.977" r="1.47568" stroke-width="0.5" stroke="grey" fill="grey"/>
   </g>
   <g id="cell208">
  <circle cx="71.0732" cy="245.523" r="7.93487" stroke-width="0.5" stroke="black" fill="grey"/>
  <circle cx="71.0732" cy="245.523" r="4.20806" stroke-width="0.5" stroke="grey" fill="grey"/>
   </g>
   <g id="cell211">
  <circle cx="80.3957" cy="139.81" r="6.9198" stroke-width="0.5" stroke="black" fill="grey"/>
  <circle cx="80.3957" cy="139.81" r="1.62152" stroke-width="0.5" stroke="grey" fill="grey"/>
   </g>
   <g id="cell213">
  <circle cx="58.2039" cy="216.6" r="4.45513" stroke-width="0.5" stroke="black" fill="grey"/>
   </g>
   <g id="cell220">
  <circle cx="110.409" cy="187.538" r="5.6005" stroke-width="0.5" stroke="black" fill="grey"/>
   </g>
   <g id="cell224">
  <circle cx="127.229" cy="225.546" r="7.82505" stroke-width="0.5" stroke="black" fill="grey"/>
  <circle cx="127.229" cy="225.546" r="3.99714" stroke-width="0.5" stroke="grey" fill="grey"/>
   </g>
   <g id="cell253">
  <circle cx="187.303" cy="127.709" r="7.3593" stroke-width="0.5" stroke="black" fill="grey"/>
  <circle cx="187.303" cy="127.709" r="2.98413" stroke-width="0.5" stroke="grey" fill="grey"/>
   </g>
   <g id="cell260">
  <circle cx="184.386" cy="106.097" r="7.84183" stroke-width="0.5" stroke="black" fill="grey"/>
  <circle cx="184.386" cy="106.097" r="4.02989" stroke-width="0.5" stroke="grey" fill="grey"/>
   </g>
   <g id="cell271">
  <circle cx="78.8184" cy="252.928" r="3.97851" stroke-width="0.5" stroke="black" fill="grey"/>
   </g>
   <g id="cell275">
  <circle cx="43.7421" cy="227.844" r="8.38442" stroke-width="0.5" stroke="black" fill="grey"/>
  <circle cx="43.7421" cy="227.844" r="5.00442" stroke-width="0.5" stroke="grey" fill="grey"/>
   </g>
   <g id="cell277">
  <circle cx="66.5306" cy="289.871" r="1.67886" stroke-width="0.5" stroke="black" fill="grey"/>
   </g>
   <g id="cell279">
  <circle cx="118.866" cy="180.666" r="7.12142" stroke-width="0.5" stroke="black" fill="grey"/>
  <circle cx="118.866" cy="180.666" r="2.33672" stroke-width="0.5" stroke="grey" fill="grey"/>
   </g>
   <g id="cell284">
  <circle cx="85.4048" cy="268.107" r="6.19678" stroke-width="0.5" stroke="black" fill="grey"/>
   </g>
   <g id="cell291">
  <circle cx="106.74" cy="236.181" r="4.26762" stroke-width="0.5" stroke="black" fill="grey"/>
   </g>
   <g id="cell298">
  <circle cx="130.441" cy="192.814" r="6.3927" stroke-width="0.5" stroke="black" fill="grey"/>
   </g>
   <g id="cell300">
  <circle cx="104.89" cy="281.8" r="7.98285" stroke-width="0.5" stroke="black" fill="grey"/>
  <circle cx="104.89" cy="281.8" r="4.29786" stroke-width="0.5" stroke="grey" fill="grey"/>
   </g>
   <g id="cell301">
  <circle cx="133.716" cy="289.255" r="7.76139" stroke-width="0.5" stroke="black" fill="grey"/>
  <circle cx="133.716" cy="289.255" r="3.87103" stroke-width="0.5" stroke="grey" fill="grey"/>
   </g>
   <g id="cell305">
  <circle cx="139.275" cy="171.1" r="8.33597" stroke-width="0.5" stroke="black" fill="grey"/>
  <circle cx="139.275" cy="171.1" r="4.92281" stroke-width="0.5" stroke="grey" fill="grey"/>
   </g>
   <g id="cell309">
  <circle cx="179.401" cy="211.825" r="4.43841" stroke-width="0.5" stroke="black" fill="grey"/>
   </g>
   <g id="cell316">
  <circle cx="146.178" cy="213.27" r="5.66289" stroke-width="0.5" stroke="black" fill="grey"/>
   </g>
   <g id="cell323">
  <circle cx="158.835" cy="204.617" r="6.80965" stroke-width="0.5" stroke="black" fill="grey"/>
  <circle cx="158.835" cy="204.617" r="1.05688" stroke-width="0.5" stroke="grey" fill="grey"/>
   </g>
   <g id="cell331">
  <circle cx="173.555" cy="227.301" r="8.26365" stroke-width="0.5" stroke="black" fill="grey"/>
  <circle cx="173.555" cy="227.301" r="4.79933" stroke-width="0.5" stroke="grey" fill="grey"/>
   </g>
   <g id="cell352">
  <circle cx="95.0372" cy="228.845" r="7.21629" stroke-width="0.5" stroke="black" fill="grey"/>
  <circle cx="95.0372" cy="228.845" r="2.61162" stroke-width="0.5" stroke="grey" fill="grey"/>
   </g>
   <g id="cell368">
  <circle cx="113.057" cy="241.917" r="7.76208" stroke-width="0.5" stroke="black" fill="grey"/>
  <circle cx="113.057" cy="241.917" r="3.87241" stroke-width="0.5" stroke="grey" fill="grey"/>
   </g>
   <g id="cell369">
  <circle cx="102.855" cy="262.944" r="8.40111" stroke-width="0.5" stroke="black" fill="grey"/>
  <circle cx="102.855" cy="262.944" r="5.03233" stroke-width="0.5" stroke="grey" fill="grey"/>
   </g>
   <g id="cell386">
  <circle cx="144.161" cy="235.317" r="4.1788" stroke-width="0.5" stroke="black" fill="grey"/>
   </g>
   <g id="cell403">
  <circle cx="29.7709" cy="139.955" r="3.68588" stroke-width="0.5" stroke="black" fill="grey"/>
   </g>
   <g id="cell413">
  <circle cx="97.0068" cy="130.745" r="7.51312" stroke-width="0.5" stroke="black" fill="grey"/>
  <circle cx="97.0068" cy="130.745" r="3.34554" stroke-width="0.5" stroke="grey" fill="grey"/>
   </g>
   <g id="cell421">
  <circle cx="129.18" cy="148.604" r="8.01268" stroke-width="0.5" stroke="black" fill="grey"/>
  <circle cx="129.18" cy="148.604" r="4.35301" stroke-width="0.5" stroke="grey" fill="grey"/>
   </g>
   <g id="cell435">
  <circle cx="166.905" cy="100.114" r="8.38185" stroke-width="0.5" stroke="black" fill="grey"/>
  <circle cx="166.905" cy="100.114" r="5.00011" stroke-width="0.5" stroke="grey" fill="grey"/>
   </g>
   <g id="cell453">
  <circle cx="81.3915" cy="208.455" r="5.75657" stroke-width="0.5" stroke="black" fill="grey"/>
   </g>
   <g id="cell464">
  <circle cx="111.773" cy="134.436" r="7.18777" stroke-width="0.5" stroke="black" fill="grey"/>
  <circle cx="111.773" cy="134.436" r="2.53174" stroke-width="0.5" stroke="grey" fill="grey"/>
   </g>
   <g id="cell536">
  <circle cx="224.294" cy="268.323" r="7.97255" stroke-width="0.5" stroke="black" fill="red"/>
  <circle cx="224.294" cy="268.323" r="4.2787" stroke-width="0.5" stroke="red" fill="red"/>
   </g>
   <g id="cell548">
  <circle cx="355.654" cy="220.362" r="7.48243" stroke-width="0.5" stroke="black" fill="red"/>
  <circle cx="355.654" cy="220.362" r="3.27605" stroke-width="0.5" stroke="red" fill="red"/>
   </g>
   <g id="cell558">
  <circle cx="238.985" cy="163.107" r="6.22592" stroke-width="0.5" stroke="black" fill="red"/>
   </g>
   <g id="cell566">
  <circle cx="215.975" cy="227.276" r="3.27339" stroke-width="0.5" stroke="black" fill="red"/>
   </g>
   <g id="cell579">
  <circle cx="272.083" cy="200.986" r="7.92803" stroke-width="0.5" stroke="black" fill="red"/>
  <circle cx="272.083" cy="200.986" r="4.19515" stroke-width="0.5" stroke="red" fill="red"/>
   </g>
   <g id="cell583">
  <circle cx="232.359" cy="200.197" r="8.40969" stroke-width="0.5" stroke="black" fill="red"/>
  <circle cx="232.359" cy="200.197" r="5.04665" stroke-width="0.5" stroke="red" fill="red"/>
   </g>
   <g id="cell597">
  <circle cx="276.967" cy="256.336" r="7.59908" stroke-width="0.5" stroke="black" fill="red"/>
  <circle cx="276.967" cy="256.336" r="3.53435" stroke-width="0.5" stroke="red" fill="red"/>
   </g>
   <g id="cell600">
  <circle cx="305.627" cy="127.817" r="7.93855" stroke-width="0.5" stroke="black" fill="red"/>
  <circle cx="305.627" cy="127.817" r="4.215" stroke-width="0.5" stroke="red" fill="red"/>
   </g>
   <g id="cell607">
  <circle cx="312.296" cy="276.849" r="4.77353" stroke-width="0.5" stroke="black" fill="red"/>
   </g>
   <g id="cell613">
  <circle cx="343.849" cy="206.447" r="8.41122" stroke-width="0.5" stroke="black" fill="red"/>
  <circle cx="343.849" cy="206.447" r="5.04918" stroke-width="0.5" stroke="red" fill="red"/>
   </g>
   <g id="cell615">
  <circle cx="343.591" cy="168.36" r="8.38016" stroke-width="0.5" stroke="black" fill="red"/>
  <circle cx="343.591" cy="168.36" r="4.99728" stroke-width="0.5" stroke="red" fill="red"/>
   </g>
   <g id="cell619">
  <circle cx="180.624" cy="164.07" r="5.03316" stroke-width="0.5" stroke="black" fill="red"/>
   </g>
   <g id="cell623">
  <circle cx="210.034" cy="135.632" r="6.70435" stroke-width="0.5" stroke="black" fill="red"/>
   </g>
   <g id="cell625">
  <circle cx="208.002" cy="166.224" r="6.50143" stroke-width="0.5" stroke="black" fill="red"/>
   </g>
   <g id="cell646">
  <circle cx="307.859" cy="167.878" r="8.26972" stroke-width="0.5" stroke="black" fill="red"/>
  <circle cx="307.859" cy="167.878" r="4.80977" stroke-width="0.5" stroke="red" fill="red"/>
   </g>
   <g id="cell652">
  <circle cx="218.857" cy="255.928" r="6.77295" stroke-width="0.5" stroke="black" fill="red"/>
  <circle cx="218.857" cy="255.928" r="0.786436" stroke-width="0.5" stroke="red" fill="red"/>
   </g>
   <g id="cell653">
  <circle cx="230.027" cy="122.299" r="2.2897" stroke-width="0.5" stroke="black" fill="red"/>
   </g>
   <g id="cell656">
  <circle cx="300.566" cy="190.062" r="5.12786" stroke-width="0.5" stroke="black" fill="red"/>
   </g>
   <g id="cell659">
  <circle cx="284.843" cy="239.749" r="6.82966" stroke-width="0.5" stroke="black" fill="red"/>
  <circle cx="284.843" cy="239.749" r="1.17895" stroke-width="0.5" stroke="red" fill="red"/>
   </g>
   <g id="cell667">
  <circle cx="351.328" cy="271.917" r="1.8534" stroke-width="0.5" stroke="black" fill="red"/>
   </g>
   <g id="cell668">
  <circle cx="312.289" cy="229.433" r="2.81345" stroke-width="0.5" stroke="black" fill="red"/>
   </g>
   <g id="cell669">
  <circle cx="370.754" cy="119.107" r="6.3223" stroke-width="0.5" stroke="black" fill="red"/>
   </g>
   <g id="cell675">
  <circle cx="363.916" cy="270.637" r="7.25939" stroke-width="0.5" stroke="black" fill="red"/>
  <circle cx="363.916" cy="270.637" r="2.72844" stroke-width="0.5" stroke="red" fill="red"/>
   </g>
   <g id="cell694">
  <circle cx="267.578" cy="174.856" r="5.60428" stroke-width="0.5" stroke="black" fill="red"/>
   </g>
   <g id="cell702">
  <circle cx="250.335" cy="215.371" r="3.95059" stroke-width="0.5" stroke="black" fill="red"/>
   </g>
   <g id="cell710">
  <circle cx="233.775" cy="159.089" r="1.31304" stroke-width="0.5" stroke="black" fill="red"/>
   </g>
   <g id="cell720">
  <circle cx="296.994" cy="154.698" r="3.92433" stroke-width="0.5" stroke="black" fill="red"/>
   </g>
   <g id="cell724">
  <circle cx="233.219" cy="254.531" r="7.7207" stroke-width="0.5" stroke="black" fill="red"/>
  <circle cx="233.219" cy="254.531" r="3.78879" stroke-width="0.5" stroke="red" fill="red"/>
   </g>
   <g id="cell731">
  <circle cx="296.808" cy="260.917" r="3.31632" stroke-width="0.5" stroke="black" fill="red"/>
   </g>
   <g id="cell734">
  <circle cx="319.027" cy="134.584" r="5.58441" stroke-width="0.5" stroke="black" fill="red"/>
   </g>
   <g id="cell738">
  <circle cx="322.118" cy="180.952" r="7.8296" stroke-width="0.5" stroke="black" fill="red"/>
  <circle cx="322.118" cy="180.952" r="4.00603" stroke-width="0.5" stroke="red" fill="red"/>
   </g>
   <g id="cell743">
  <circle cx="391.888" cy="176.68" r="5.59411" stroke-width="0.5" stroke="black" fill="red"/>
   </g>
   <g id="cell749">
  <circle cx="354.867" cy="130.615" r="5.6465" stroke-width="0.5" stroke="black" fill="red"/>
   </g>
   <g id="cell759">
  <circle cx="222.187" cy="239.803" r="7.29252" stroke-width="0.5" stroke="black" fill="red"/>
  <circle cx="222.187" cy="239.803" r="2.81541" stroke-width="0.5" stroke="red" fill="red"/>
   </g>
   <g id="cell763">
  <circle cx="241.112" cy="220.75" r="4.21433" stroke-width="0.5" stroke="black" fill="red"/>
   </g>
   <g id="cell787">
  <circle cx="277.516" cy="148.276" r="6.93473" stroke-width="0.5" stroke="black" fill="red"/>
  <circle cx="277.516" cy="148.276" r="1.68408" stroke-width="0.5" stroke="red" fill="red"/>
   </g>
   <g id="cell788">
  <circle cx="223.461" cy="209.776" r="6.84124" stroke-width="0.5" stroke="black" fill="red"/>
  <circle cx="223.461" cy="209.776" r="1.24428" stroke-width="0.5" stroke="red" fill="red"/>
   </g>
   <g id="cell795">
  <circle cx="283.93" cy="207.618" r="5.94629" stroke-width="0.5" stroke="black" fill="red"/>
   </g>
   <g id="cell797">
  <circle cx="325.851" cy="260.728" r="7.41488" stroke-width="0.5" stroke="black" fill="red"/>
  <circle cx="325.851" cy="260.728" r="3.11867" stroke-width="0.5" stroke="red" fill="red"/>
   </g>
   <g id="cell814">
  <circle cx="295.673" cy="219.525" r="8.38801" stroke-width="0.5" stroke="black" fill="red"/>
  <circle cx="295.673" cy="219.525" r="5.01042" stroke-width="0.5" stroke="red" fill="red"/>
   </g>
   <g id="cell821">
  <circle cx="361.654" cy="285.38" r="6.00058" stroke-width="0.5" stroke="black" fill="red"/>
   </g>
   <g id="cell823">
  <circle cx="385.776" cy="225.387" r="8.12682" stroke-width="0.5" stroke="black" fill="red"/>
  <circle cx="385.776" cy="225.387" r="4.5597" stroke-width="0.5" stroke="red" fill="red"/>
   </g>
   <g id="cell832">
  <circle cx="172.725" cy="196.942" r="8.40882" stroke-width="0.5" stroke="black" fill="red"/>
  <circle cx="172.725" cy="196.942" r="5.04519" stroke-width="0.5" stroke="red" fill="red"/>
   </g>
   <g id="cell837">
  <circle cx="263.893" cy="159.648" r="8.37019" stroke-width="0.5" stroke="black" fill="red"/>
  <circle cx="263.893" cy="159.648" r="4.98053" stroke-width="0.5" stroke="red" fill="red"/>
   </g>
   <g id="cell847">
  <circle cx="227.236" cy="181.587" r="8.31788" stroke-width="0.5" stroke="black" fill="red"/>
  <circle cx="227.236" cy="181.587" r="4.89212" stroke-width="0.5" stroke="red" fill="red"/>
   </g>
   <g id="cell873">
  <circle cx="376.209" cy="207.262" r="7.66215" stroke-width="0.5" stroke="black" fill="red"/>
  <circle cx="376.209" cy="207.262" r="3.66799" stroke-width="0.5" stroke="red" fill="red"/>
   </g>
   <g id="cell880">
  <circle cx="327.957" cy="209.525" r="4.50142" stroke-width="0.5" stroke="black" fill="red"/>
   </g>
   <g id="cell884">
  <circle cx="339.012" cy="191.936" r="8.34205" stroke-width="0.5" stroke="black" fill="red"/>
  <circle cx="339.012" cy="191.936" r="4.93309" stroke-width="0.5" stroke="red" fill="red"/>
   </g>
   <g id="cell894">
  <circle cx="249.533" cy="146.295" r="8.41257" stroke-width="0.5" stroke="black" fill="red"/>
  <circle cx="249.533" cy="146.295" r="5.05143" stroke-width="0.5" stroke="red" fill="red"/>
   </g>
   <g id="cell900">
  <circle cx="277.657" cy="288.754" r="7.81519" stroke-width="0.5" stroke="black" fill="red"/>
  <circle cx="277.657" cy="288.754" r="3.97779" stroke-width="0.5" stroke="red" fill="red"/>
   </g>
   <g id="cell918">
  <circle cx="254.964" cy="118.291" r="2.56906" stroke-width="0.5" stroke="black" fill="red"/>
   </g>
   <g id="cell939">
  <circle cx="368.738" cy="249.629" r="8.41178" stroke-width="0.5" stroke="black" fill="red"/>
  <circle cx="368.738" cy="249.629" r="5.05011" stroke-width="0.5" stroke="red" fill="red"/>
   </g>
  </g>
 </g>
  <rect x="190" y="414" width="200" height="4" stroke-width="0.8" stroke="rgb(255,255,255)" fill="rgb(0,0,0)"/>
  <text x="192.5" y="411.5"
   font-family="Arial" font-size="10" fill="black" >
   200 &#956;m
  </text>
  <text x="10" y="418"
   font-family="Arial" font-size="7.5" fill="black" >
   0 days, 0 hours, 9 minutes, and 19.9808 seconds
  </text>
  <rect x="0" y="28" width="400" height="400" stroke-width="0.8" stroke="rgb(0,0,0)" fill="none"/>
</svg>
