<?xml version="1.0" encoding="UTF-8" standalone="no"?>
<!-- Created with PhysiCell (http://PhysiCell.MathCancer.org/) -->
<svg 
 xmlns:dc="http://purl.org/dc/elements/1.1/" 
 xmlns:cc="http://creativecommons.org/ns#" 
 xmlns:rdf="http://www.w3.org/1999/02/22-rdf-syntax-ns#" 
 xmlns:svg="http://www.w3.org/2000/svg" 
 xmlns="http://www.w3.org/2000/svg" 
 version="1.1" 
 width="400" 
 height="428" 
 id="svg2">
  <rect x="0" y="0" width="400" height="428" stroke-width="0.8" stroke="white" fill="white"/>
  <text x="5" y="12"
   font-family="Arial" font-size="10" fill="black" >
   Current time: 2 days, 23 hours, and 0.00 minutes, z = 0.00 &#956;m
  </text>
  <text x="5" y="23"
   font-family="Arial" font-size="9.5" fill="black" >
   978 agents
  </text>
 <g id="tissue" 
    transform="translate(0,428) scale(1,-1)">
  <g id="ECM">
  </g>
  <g id="cells">
   <g id="cell4">
  <circle cx="127.432" cy="231.981" r="6.8405" stroke-width="0.5" stroke="black" fill="grey"/>
  <circle cx="127.432" cy="231.981" r="1.24023" stroke-width="0.5" stroke="grey" fill="grey"/>
   </g>
   <g id="cell30">
  <circle cx="108.89" cy="216.976" r="7.38334" stroke-width="0.5" stroke="black" fill="grey"/>
  <circle cx="108.89" cy="216.976" r="3.04293" stroke-width="0.5" stroke="grey" fill="grey"/>
   </g>
   <g id="cell35">
  <circle cx="178.95" cy="175.165" r="3.98858" stroke-width="0.5" stroke="black" fill="grey"/>
   </g>
   <g id="cell37">
  <circle cx="161.966" cy="151.618" r="8.08053" stroke-width="0.5" stroke="black" fill="grey"/>
  <circle cx="161.966" cy="151.618" r="4.47667" stroke-width="0.5" stroke="grey" fill="grey"/>
   </g>
   <g id="cell71">
  <circle cx="85.7429" cy="189.137" r="7.5338" stroke-width="0.5" stroke="black" fill="grey"/>
  <circle cx="85.7429" cy="189.137" r="3.39174" stroke-width="0.5" stroke="grey" fill="grey"/>
   </g>
   <g id="cell88">
  <circle cx="153.591" cy="68.108" r="8.297" stroke-width="0.5" stroke="black" fill="grey"/>
  <circle cx="153.591" cy="68.108" r="4.85654" stroke-width="0.5" stroke="grey" fill="grey"/>
   </g>
   <g id="cell104">
  <circle cx="123.012" cy="159.834" r="8.00789" stroke-width="0.5" stroke="black" fill="grey"/>
  <circle cx="123.012" cy="159.834" r="4.34419" stroke-width="0.5" stroke="grey" fill="grey"/>
   </g>
   <g id="cell107">
  <circle cx="155.495" cy="281.356" r="7.65347" stroke-width="0.5" stroke="black" fill="grey"/>
  <circle cx="155.495" cy="281.356" r="3.64983" stroke-width="0.5" stroke="grey" fill="grey"/>
   </g>
   <g id="cell124">
  <circle cx="121.581" cy="263.871" r="4.12638" stroke-width="0.5" stroke="black" fill="grey"/>
   </g>
   <g id="cell147">
  <circle cx="91.8079" cy="122.305" r="4.50195" stroke-width="0.5" stroke="black" fill="grey"/>
   </g>
   <g id="cell171">
  <circle cx="52.5699" cy="355.065" r="3.77269" stroke-width="0.5" stroke="black" fill="grey"/>
   </g>
   <g id="cell187">
  <circle cx="191.165" cy="268.625" r="3.30132" stroke-width="0.5" stroke="black" fill="grey"/>
   </g>
   <g id="cell195">
  <circle cx="68.1985" cy="132.096" r="8.38807" stroke-width="0.5" stroke="black" fill="grey"/>
  <circle cx="68.1985" cy="132.096" r="5.01053" stroke-width="0.5" stroke="grey" fill="grey"/>
   </g>
   <g id="cell196">
  <circle cx="95.1177" cy="213.769" r="7.26096" stroke-width="0.5" stroke="black" fill="grey"/>
  <circle cx="95.1177" cy="213.769" r="2.73263" stroke-width="0.5" stroke="grey" fill="grey"/>
   </g>
   <g id="cell199">
  <circle cx="54.7436" cy="193.905" r="6.96153" stroke-width="0.5" stroke="black" fill="grey"/>
  <circle cx="54.7436" cy="193.905" r="1.79124" stroke-width="0.5" stroke="grey" fill="grey"/>
   </g>
   <g id="cell204">
  <circle cx="57.0715" cy="156.687" r="2.2467" stroke-width="0.5" stroke="black" fill="grey"/>
   </g>
   <g id="cell205">
  <circle cx="12.2168" cy="166.41" r="8.39288" stroke-width="0.5" stroke="black" fill="grey"/>
  <circle cx="12.2168" cy="166.41" r="5.01858" stroke-width="0.5" stroke="grey" fill="grey"/>
   </g>
   <g id="cell218">
  <circle cx="58.4" cy="287.301" r="8.39536" stroke-width="0.5" stroke="black" fill="grey"/>
  <circle cx="58.4" cy="287.301" r="5.02272" stroke-width="0.5" stroke="grey" fill="grey"/>
   </g>
   <g id="cell220">
  <circle cx="70.5175" cy="155.679" r="7.22806" stroke-width="0.5" stroke="black" fill="grey"/>
  <circle cx="70.5175" cy="155.679" r="2.64397" stroke-width="0.5" stroke="grey" fill="grey"/>
   </g>
   <g id="cell226">
  <circle cx="89.8402" cy="296.933" r="3.49242" stroke-width="0.5" stroke="black" fill="grey"/>
   </g>
   <g id="cell231">
  <circle cx="158.565" cy="194.75" r="7.65946" stroke-width="0.5" stroke="black" fill="grey"/>
  <circle cx="158.565" cy="194.75" r="3.66238" stroke-width="0.5" stroke="grey" fill="grey"/>
   </g>
   <g id="cell232">
  <circle cx="125.448" cy="194.087" r="5.43984" stroke-width="0.5" stroke="black" fill="grey"/>
   </g>
   <g id="cell237">
  <circle cx="189.185" cy="42.8986" r="5.35963" stroke-width="0.5" stroke="black" fill="grey"/>
   </g>
   <g id="cell241">
  <circle cx="156.926" cy="179.6" r="8.41235" stroke-width="0.5" stroke="black" fill="grey"/>
  <circle cx="156.926" cy="179.6" r="5.05107" stroke-width="0.5" stroke="grey" fill="grey"/>
   </g>
   <g id="cell263">
  <circle cx="141.052" cy="296.044" r="8.23791" stroke-width="0.5" stroke="black" fill="grey"/>
  <circle cx="141.052" cy="296.044" r="4.75488" stroke-width="0.5" stroke="grey" fill="grey"/>
   </g>
   <g id="cell264">
  <circle cx="204.662" cy="244.846" r="7.29276" stroke-width="0.5" stroke="black" fill="grey"/>
  <circle cx="204.662" cy="244.846" r="2.81603" stroke-width="0.5" stroke="grey" fill="grey"/>
   </g>
   <g id="cell271">
  <circle cx="30.2427" cy="239.535" r="8.00742" stroke-width="0.5" stroke="black" fill="grey"/>
  <circle cx="30.2427" cy="239.535" r="4.34332" stroke-width="0.5" stroke="grey" fill="grey"/>
   </g>
   <g id="cell275">
  <circle cx="28.2668" cy="189.157" r="8.41141" stroke-width="0.5" stroke="black" fill="grey"/>
  <circle cx="28.2668" cy="189.157" r="5.04951" stroke-width="0.5" stroke="grey" fill="grey"/>
   </g>
   <g id="cell309">
  <circle cx="183.818" cy="210.16" r="6.83488" stroke-width="0.5" stroke="black" fill="grey"/>
  <circle cx="183.818" cy="210.16" r="1.20882" stroke-width="0.5" stroke="grey" fill="grey"/>
   </g>
   <g id="cell310">
  <circle cx="172.321" cy="322.868" r="3.07724" stroke-width="0.5" stroke="black" fill="grey"/>
   </g>
   <g id="cell325">
  <circle cx="190.794" cy="234.807" r="6.37852" stroke-width="0.5" stroke="black" fill="grey"/>
   </g>
   <g id="cell346">
  <circle cx="41.5712" cy="282.586" r="7.32226" stroke-width="0.5" stroke="black" fill="grey"/>
  <circle cx="41.5712" cy="282.586" r="2.89157" stroke-width="0.5" stroke="grey" fill="grey"/>
   </g>
   <g id="cell359">
  <circle cx="165.531" cy="240.213" r="7.73138" stroke-width="0.5" stroke="black" fill="grey"/>
  <circle cx="165.531" cy="240.213" r="3.8105" stroke-width="0.5" stroke="grey" fill="grey"/>
   </g>
   <g id="cell378">
  <circle cx="137.395" cy="311.854" r="7.53222" stroke-width="0.5" stroke="black" fill="grey"/>
  <circle cx="137.395" cy="311.854" r="3.38822" stroke-width="0.5" stroke="grey" fill="grey"/>
   </g>
   <g id="cell389">
  <circle cx="245.704" cy="45.0163" r="4.11964" stroke-width="0.5" stroke="black" fill="grey"/>
   </g>
   <g id="cell397">
  <circle cx="155.606" cy="264.978" r="7.70279" stroke-width="0.5" stroke="black" fill="grey"/>
  <circle cx="155.606" cy="264.978" r="3.75216" stroke-width="0.5" stroke="grey" fill="grey"/>
   </g>
   <g id="cell405">
  <circle cx="120.12" cy="173.529" r="7.70461" stroke-width="0.5" stroke="black" fill="grey"/>
  <circle cx="120.12" cy="173.529" r="3.75589" stroke-width="0.5" stroke="grey" fill="grey"/>
   </g>
   <g id="cell424">
  <circle cx="15.1004" cy="246.065" r="8.31171" stroke-width="0.5" stroke="black" fill="grey"/>
  <circle cx="15.1004" cy="246.065" r="4.88162" stroke-width="0.5" stroke="grey" fill="grey"/>
   </g>
   <g id="cell425">
  <circle cx="123.974" cy="288.489" r="8.41031" stroke-width="0.5" stroke="black" fill="grey"/>
  <circle cx="123.974" cy="288.489" r="5.04767" stroke-width="0.5" stroke="grey" fill="grey"/>
   </g>
   <g id="cell453">
  <circle cx="113.628" cy="209.517" r="6.41868" stroke-width="0.5" stroke="black" fill="grey"/>
   </g>
   <g id="cell477">
  <circle cx="125.13" cy="211.819" r="7.83006" stroke-width="0.5" stroke="black" fill="grey"/>
  <circle cx="125.13" cy="211.819" r="4.00694" stroke-width="0.5" stroke="grey" fill="grey"/>
   </g>
   <g id="cell511">
  <circle cx="275.033" cy="174.324" r="7.50346" stroke-width="0.5" stroke="black" fill="red"/>
  <circle cx="275.033" cy="174.324" r="3.3238" stroke-width="0.5" stroke="red" fill="red"/>
   </g>
   <g id="cell535">
  <circle cx="222.009" cy="291.414" r="6.63383" stroke-width="0.5" stroke="black" fill="red"/>
   </g>
   <g id="cell542">
  <circle cx="292.456" cy="325.401" r="5.29919" stroke-width="0.5" stroke="black" fill="red"/>
   </g>
   <g id="cell550">
  <circle cx="347.794" cy="179.84" r="5.07396" stroke-width="0.5" stroke="black" fill="red"/>
   </g>
   <g id="cell554">
  <circle cx="327.593" cy="337.076" r="2.3994" stroke-width="0.5" stroke="black" fill="red"/>
   </g>
   <g id="cell562">
  <circle cx="189.252" cy="250.599" r="2.10233" stroke-width="0.5" stroke="black" fill="red"/>
   </g>
   <g id="cell569">
  <circle cx="266.308" cy="124.264" r="7.98618" stroke-width="0.5" stroke="black" fill="red"/>
  <circle cx="266.308" cy="124.264" r="4.30404" stroke-width="0.5" stroke="red" fill="red"/>
   </g>
   <g id="cell581">
  <circle cx="272.263" cy="136.277" r="3.85346" stroke-width="0.5" stroke="black" fill="red"/>
   </g>
   <g id="cell593">
  <circle cx="322.823" cy="129.291" r="3.33731" stroke-width="0.5" stroke="black" fill="red"/>
   </g>
   <g id="cell598">
  <circle cx="385.858" cy="265.017" r="6.10881" stroke-width="0.5" stroke="black" fill="red"/>
   </g>
   <g id="cell605">
  <circle cx="361.713" cy="222.691" r="6.87333" stroke-width="0.5" stroke="black" fill="red"/>
  <circle cx="361.713" cy="222.691" r="1.41007" stroke-width="0.5" stroke="red" fill="red"/>
   </g>
   <g id="cell606">
  <circle cx="336.651" cy="260.417" r="8.15197" stroke-width="0.5" stroke="black" fill="red"/>
  <circle cx="336.651" cy="260.417" r="4.60438" stroke-width="0.5" stroke="red" fill="red"/>
   </g>
   <g id="cell625">
  <circle cx="250.394" cy="173.085" r="5.69907" stroke-width="0.5" stroke="black" fill="red"/>
   </g>
   <g id="cell626">
  <circle cx="217.067" cy="192.634" r="4.35361" stroke-width="0.5" stroke="black" fill="red"/>
   </g>
   <g id="cell627">
  <circle cx="234.643" cy="323.172" r="4.7294" stroke-width="0.5" stroke="black" fill="red"/>
   </g>
   <g id="cell633">
  <circle cx="247.557" cy="284.269" r="2.45508" stroke-width="0.5" stroke="black" fill="red"/>
   </g>
   <g id="cell655">
  <circle cx="285.741" cy="237.86" r="7.82516" stroke-width="0.5" stroke="black" fill="red"/>
  <circle cx="285.741" cy="237.86" r="3.99734" stroke-width="0.5" stroke="red" fill="red"/>
   </g>
   <g id="cell657">
  <circle cx="301.343" cy="119.984" r="6.68685" stroke-width="0.5" stroke="black" fill="red"/>
   </g>
   <g id="cell681">
  <circle cx="372.219" cy="329.041" r="3.15358" stroke-width="0.5" stroke="black" fill="red"/>
   </g>
   <g id="cell686">
  <circle cx="213.268" cy="207.905" r="8.41236" stroke-width="0.5" stroke="black" fill="red"/>
  <circle cx="213.268" cy="207.905" r="5.05109" stroke-width="0.5" stroke="red" fill="red"/>
   </g>
   <g id="cell687">
  <circle cx="243.331" cy="105.673" r="8.38067" stroke-width="0.5" stroke="black" fill="red"/>
  <circle cx="243.331" cy="105.673" r="4.99814" stroke-width="0.5" stroke="red" fill="red"/>
   </g>
   <g id="cell688">
  <circle cx="196.055" cy="212.989" r="8.19053" stroke-width="0.5" stroke="black" fill="red"/>
  <circle cx="196.055" cy="212.989" r="4.67231" stroke-width="0.5" stroke="red" fill="red"/>
   </g>
   <g id="cell710">
  <circle cx="255.448" cy="197.244" r="8.32534" stroke-width="0.5" stroke="black" fill="red"/>
  <circle cx="255.448" cy="197.244" r="4.90479" stroke-width="0.5" stroke="red" fill="red"/>
   </g>
   <g id="cell726">
  <circle cx="264.73" cy="44.0457" r="8.3882" stroke-width="0.5" stroke="black" fill="red"/>
  <circle cx="264.73" cy="44.0457" r="5.01075" stroke-width="0.5" stroke="red" fill="red"/>
   </g>
   <g id="cell733">
  <circle cx="309.78" cy="340.706" r="2.18021" stroke-width="0.5" stroke="black" fill="red"/>
   </g>
   <g id="cell742">
  <circle cx="322.663" cy="111.601" r="8.32781" stroke-width="0.5" stroke="black" fill="red"/>
  <circle cx="322.663" cy="111.601" r="4.90898" stroke-width="0.5" stroke="red" fill="red"/>
   </g>
   <g id="cell743">
  <circle cx="392.168" cy="181.445" r="7.92995" stroke-width="0.5" stroke="black" fill="red"/>
  <circle cx="392.168" cy="181.445" r="4.19878" stroke-width="0.5" stroke="red" fill="red"/>
   </g>
   <g id="cell750">
  <circle cx="376.074" cy="103.303" r="8.14598" stroke-width="0.5" stroke="black" fill="red"/>
  <circle cx="376.074" cy="103.303" r="4.59376" stroke-width="0.5" stroke="red" fill="red"/>
   </g>
   <g id="cell760">
  <circle cx="208.247" cy="301.506" r="7.2086" stroke-width="0.5" stroke="black" fill="red"/>
  <circle cx="208.247" cy="301.506" r="2.5903" stroke-width="0.5" stroke="red" fill="red"/>
   </g>
   <g id="cell782">
  <circle cx="304.873" cy="281.224" r="4.13561" stroke-width="0.5" stroke="black" fill="red"/>
   </g>
   <g id="cell788">
  <circle cx="252.052" cy="141.782" r="4.12476" stroke-width="0.5" stroke="black" fill="red"/>
   </g>
   <g id="cell802">
  <circle cx="296.915" cy="94.4171" r="8.35547" stroke-width="0.5" stroke="black" fill="red"/>
  <circle cx="296.915" cy="94.4171" r="4.95576" stroke-width="0.5" stroke="red" fill="red"/>
   </g>
   <g id="cell803">
  <circle cx="379.567" cy="170.159" r="8.32057" stroke-width="0.5" stroke="black" fill="red"/>
  <circle cx="379.567" cy="170.159" r="4.89668" stroke-width="0.5" stroke="red" fill="red"/>
   </g>
   <g id="cell819">
  <circle cx="334.326" cy="213.245" r="8.14901" stroke-width="0.5" stroke="black" fill="red"/>
  <circle cx="334.326" cy="213.245" r="4.59914" stroke-width="0.5" stroke="red" fill="red"/>
   </g>
   <g id="cell821">
  <circle cx="358.842" cy="259.496" r="4.75984" stroke-width="0.5" stroke="black" fill="red"/>
   </g>
   <g id="cell838">
  <circle cx="292.179" cy="78.5829" r="8.27978" stroke-width="0.5" stroke="black" fill="red"/>
  <circle cx="292.179" cy="78.5829" r="4.82705" stroke-width="0.5" stroke="red" fill="red"/>
   </g>
   <g id="cell845">
  <circle cx="232.217" cy="67.8744" r="5.85978" stroke-width="0.5" stroke="black" fill="red"/>
   </g>
   <g id="cell849">
  <circle cx="229.718" cy="181.804" r="5.59696" stroke-width="0.5" stroke="black" fill="red"/>
   </g>
   <g id="cell854">
  <circle cx="276.258" cy="112.605" r="7.09986" stroke-width="0.5" stroke="black" fill="red"/>
  <circle cx="276.258" cy="112.605" r="2.27018" stroke-width="0.5" stroke="red" fill="red"/>
   </g>
   <g id="cell867">
  <circle cx="251.483" cy="358.639" r="7.22638" stroke-width="0.5" stroke="black" fill="red"/>
  <circle cx="251.483" cy="358.639" r="2.63936" stroke-width="0.5" stroke="red" fill="red"/>
   </g>
   <g id="cell898">
  <circle cx="258.578" cy="173.818" r="4.77786" stroke-width="0.5" stroke="black" fill="red"/>
   </g>
   <g id="cell899">
  <circle cx="273.06" cy="310.064" r="5.96994" stroke-width="0.5" stroke="black" fill="red"/>
   </g>
   <g id="cell900">
  <circle cx="287.403" cy="293.989" r="8.04969" stroke-width="0.5" stroke="black" fill="red"/>
  <circle cx="287.403" cy="293.989" r="4.42077" stroke-width="0.5" stroke="red" fill="red"/>
   </g>
   <g id="cell935">
  <circle cx="320.502" cy="279.247" r="8.37789" stroke-width="0.5" stroke="black" fill="red"/>
  <circle cx="320.502" cy="279.247" r="4.99347" stroke-width="0.5" stroke="red" fill="red"/>
   </g>
   <g id="cell949">
  <circle cx="184.24" cy="160.064" r="8.09328" stroke-width="0.5" stroke="black" fill="red"/>
  <circle cx="184.24" cy="160.064" r="4.49965" stroke-width="0.5" stroke="red" fill="red"/>
   </g>
  </g>
 </g>
  <rect x="190" y="414" width="200" height="4" stroke-width="0.8" stroke="rgb(255,255,255)" fill="rgb(0,0,0)"/>
  <text x="192.5" y="411.5"
   font-family="Arial" font-size="10" fill="black" >
   200 &#956;m
  </text>
  <text x="10" y="418"
   font-family="Arial" font-size="7.5" fill="black" >
   0 days, 0 hours, 20 minutes, and 37.8699 seconds
  </text>
  <rect x="0" y="28" width="400" height="400" stroke-width="0.8" stroke="rgb(0,0,0)" fill="none"/>
</svg>
