<?xml version="1.0" encoding="UTF-8" standalone="no"?>
<!-- Created with PhysiCell (http://PhysiCell.MathCancer.org/) -->
<svg 
 xmlns:dc="http://purl.org/dc/elements/1.1/" 
 xmlns:cc="http://creativecommons.org/ns#" 
 xmlns:rdf="http://www.w3.org/1999/02/22-rdf-syntax-ns#" 
 xmlns:svg="http://www.w3.org/2000/svg" 
 xmlns="http://www.w3.org/2000/svg" 
 version="1.1" 
 width="400" 
 height="428" 
 id="svg2">
  <rect x="0" y="0" width="400" height="428" stroke-width="0.8" stroke="white" fill="white"/>
  <text x="5" y="12"
   font-family="Arial" font-size="10" fill="black" >
   Current time: 3 days, 7 hours, and 0.00 minutes, z = 0.00 &#956;m
  </text>
  <text x="5" y="23"
   font-family="Arial" font-size="9.5" fill="black" >
   978 agents
  </text>
 <g id="tissue" 
    transform="translate(0,428) scale(1,-1)">
  <g id="ECM">
  </g>
  <g id="cells">
   <g id="cell4">
  <circle cx="118.626" cy="228.073" r="7.80165" stroke-width="0.5" stroke="black" fill="grey"/>
  <circle cx="118.626" cy="228.073" r="3.95112" stroke-width="0.5" stroke="grey" fill="grey"/>
   </g>
   <g id="cell35">
  <circle cx="203.269" cy="180.694" r="8.28546" stroke-width="0.5" stroke="black" fill="grey"/>
  <circle cx="203.269" cy="180.694" r="4.83679" stroke-width="0.5" stroke="grey" fill="grey"/>
   </g>
   <g id="cell37">
  <circle cx="177.515" cy="160.665" r="8.38833" stroke-width="0.5" stroke="black" fill="grey"/>
  <circle cx="177.515" cy="160.665" r="5.01096" stroke-width="0.5" stroke="grey" fill="grey"/>
   </g>
   <g id="cell54">
  <circle cx="223.911" cy="78.6" r="8.36579" stroke-width="0.5" stroke="black" fill="grey"/>
  <circle cx="223.911" cy="78.6" r="4.97314" stroke-width="0.5" stroke="grey" fill="grey"/>
   </g>
   <g id="cell58">
  <circle cx="190.623" cy="294.998" r="5.17895" stroke-width="0.5" stroke="black" fill="grey"/>
   </g>
   <g id="cell71">
  <circle cx="93.0468" cy="203.507" r="3.24233" stroke-width="0.5" stroke="black" fill="grey"/>
   </g>
   <g id="cell81">
  <circle cx="129.63" cy="91.5024" r="8.34647" stroke-width="0.5" stroke="black" fill="grey"/>
  <circle cx="129.63" cy="91.5024" r="4.94058" stroke-width="0.5" stroke="grey" fill="grey"/>
   </g>
   <g id="cell82">
  <circle cx="160.331" cy="232.617" r="4.55003" stroke-width="0.5" stroke="black" fill="grey"/>
   </g>
   <g id="cell139">
  <circle cx="41.0483" cy="265.671" r="4.62908" stroke-width="0.5" stroke="black" fill="grey"/>
   </g>
   <g id="cell159">
  <circle cx="68.8607" cy="249.925" r="8.19271" stroke-width="0.5" stroke="black" fill="grey"/>
  <circle cx="68.8607" cy="249.925" r="4.67613" stroke-width="0.5" stroke="grey" fill="grey"/>
   </g>
   <g id="cell166">
  <circle cx="144.891" cy="112.914" r="8.19018" stroke-width="0.5" stroke="black" fill="grey"/>
  <circle cx="144.891" cy="112.914" r="4.67169" stroke-width="0.5" stroke="grey" fill="grey"/>
   </g>
   <g id="cell178">
  <circle cx="99.1541" cy="136.756" r="8.2629" stroke-width="0.5" stroke="black" fill="grey"/>
  <circle cx="99.1541" cy="136.756" r="4.79805" stroke-width="0.5" stroke="grey" fill="grey"/>
   </g>
   <g id="cell179">
  <circle cx="126.634" cy="255.658" r="5.83866" stroke-width="0.5" stroke="black" fill="grey"/>
   </g>
   <g id="cell191">
  <circle cx="189.349" cy="198.758" r="3.17447" stroke-width="0.5" stroke="black" fill="grey"/>
   </g>
   <g id="cell195">
  <circle cx="82.875" cy="139.546" r="3.90213" stroke-width="0.5" stroke="black" fill="grey"/>
   </g>
   <g id="cell196">
  <circle cx="121.195" cy="213.646" r="3.44036" stroke-width="0.5" stroke="black" fill="grey"/>
   </g>
   <g id="cell199">
  <circle cx="56.3022" cy="178.099" r="7.02179" stroke-width="0.5" stroke="black" fill="grey"/>
  <circle cx="56.3022" cy="178.099" r="2.01276" stroke-width="0.5" stroke="grey" fill="grey"/>
   </g>
   <g id="cell207">
  <circle cx="55.3476" cy="239" r="3.75547" stroke-width="0.5" stroke="black" fill="grey"/>
   </g>
   <g id="cell216">
  <circle cx="113.399" cy="253.291" r="4.49073" stroke-width="0.5" stroke="black" fill="grey"/>
   </g>
   <g id="cell226">
  <circle cx="99.1757" cy="300.189" r="4.63954" stroke-width="0.5" stroke="black" fill="grey"/>
   </g>
   <g id="cell227">
  <circle cx="110.268" cy="339.117" r="8.34828" stroke-width="0.5" stroke="black" fill="grey"/>
  <circle cx="110.268" cy="339.117" r="4.94363" stroke-width="0.5" stroke="grey" fill="grey"/>
   </g>
   <g id="cell232">
  <circle cx="102.49" cy="193.276" r="8.30827" stroke-width="0.5" stroke="black" fill="grey"/>
  <circle cx="102.49" cy="193.276" r="4.87577" stroke-width="0.5" stroke="grey" fill="grey"/>
   </g>
   <g id="cell251">
  <circle cx="53.925" cy="318.384" r="4.44971" stroke-width="0.5" stroke="black" fill="grey"/>
   </g>
   <g id="cell255">
  <circle cx="144.729" cy="146.772" r="6.24598" stroke-width="0.5" stroke="black" fill="grey"/>
   </g>
   <g id="cell262">
  <circle cx="235.289" cy="160.387" r="8.25787" stroke-width="0.5" stroke="black" fill="grey"/>
  <circle cx="235.289" cy="160.387" r="4.78937" stroke-width="0.5" stroke="grey" fill="grey"/>
   </g>
   <g id="cell275">
  <circle cx="27.7867" cy="185.505" r="8.35886" stroke-width="0.5" stroke="black" fill="grey"/>
  <circle cx="27.7867" cy="185.505" r="4.96147" stroke-width="0.5" stroke="grey" fill="grey"/>
   </g>
   <g id="cell286">
  <circle cx="119.672" cy="153.113" r="8.19092" stroke-width="0.5" stroke="black" fill="grey"/>
  <circle cx="119.672" cy="153.113" r="4.673" stroke-width="0.5" stroke="grey" fill="grey"/>
   </g>
   <g id="cell288">
  <circle cx="98.9633" cy="106.084" r="8.29106" stroke-width="0.5" stroke="black" fill="grey"/>
  <circle cx="98.9633" cy="106.084" r="4.84638" stroke-width="0.5" stroke="grey" fill="grey"/>
   </g>
   <g id="cell300">
  <circle cx="161.581" cy="278.124" r="6.90288" stroke-width="0.5" stroke="black" fill="grey"/>
  <circle cx="161.581" cy="278.124" r="1.54773" stroke-width="0.5" stroke="grey" fill="grey"/>
   </g>
   <g id="cell306">
  <circle cx="270.481" cy="222.883" r="4.73217" stroke-width="0.5" stroke="black" fill="grey"/>
   </g>
   <g id="cell312">
  <circle cx="220.692" cy="165.875" r="7.10346" stroke-width="0.5" stroke="black" fill="grey"/>
  <circle cx="220.692" cy="165.875" r="2.2814" stroke-width="0.5" stroke="grey" fill="grey"/>
   </g>
   <g id="cell317">
  <circle cx="117.84" cy="383.865" r="8.33029" stroke-width="0.5" stroke="black" fill="grey"/>
  <circle cx="117.84" cy="383.865" r="4.91318" stroke-width="0.5" stroke="grey" fill="grey"/>
   </g>
   <g id="cell339">
  <circle cx="108.406" cy="275.544" r="8.00379" stroke-width="0.5" stroke="black" fill="grey"/>
  <circle cx="108.406" cy="275.544" r="4.33662" stroke-width="0.5" stroke="grey" fill="grey"/>
   </g>
   <g id="cell369">
  <circle cx="85.0245" cy="319.716" r="7.47618" stroke-width="0.5" stroke="black" fill="grey"/>
  <circle cx="85.0245" cy="319.716" r="3.26175" stroke-width="0.5" stroke="grey" fill="grey"/>
   </g>
   <g id="cell382">
  <circle cx="127.265" cy="194.081" r="8.40708" stroke-width="0.5" stroke="black" fill="grey"/>
  <circle cx="127.265" cy="194.081" r="5.04229" stroke-width="0.5" stroke="grey" fill="grey"/>
   </g>
   <g id="cell423">
  <circle cx="46.9583" cy="192.144" r="8.21216" stroke-width="0.5" stroke="black" fill="grey"/>
  <circle cx="46.9583" cy="192.144" r="4.71012" stroke-width="0.5" stroke="grey" fill="grey"/>
   </g>
   <g id="cell445">
  <circle cx="89.4489" cy="164.182" r="5.59039" stroke-width="0.5" stroke="black" fill="grey"/>
   </g>
   <g id="cell479">
  <circle cx="222.194" cy="209.52" r="6.34825" stroke-width="0.5" stroke="black" fill="grey"/>
   </g>
   <g id="cell542">
  <circle cx="291.337" cy="322.411" r="7.34631" stroke-width="0.5" stroke="black" fill="red"/>
  <circle cx="291.337" cy="322.411" r="2.95193" stroke-width="0.5" stroke="red" fill="red"/>
   </g>
   <g id="cell558">
  <circle cx="271.279" cy="243.61" r="8.00609" stroke-width="0.5" stroke="black" fill="red"/>
  <circle cx="271.279" cy="243.61" r="4.34087" stroke-width="0.5" stroke="red" fill="red"/>
   </g>
   <g id="cell562">
  <circle cx="171.026" cy="253.957" r="8.15883" stroke-width="0.5" stroke="black" fill="red"/>
  <circle cx="171.026" cy="253.957" r="4.61652" stroke-width="0.5" stroke="red" fill="red"/>
   </g>
   <g id="cell566">
  <circle cx="188.462" cy="212.667" r="8.32104" stroke-width="0.5" stroke="black" fill="red"/>
  <circle cx="188.462" cy="212.667" r="4.89748" stroke-width="0.5" stroke="red" fill="red"/>
   </g>
   <g id="cell569">
  <circle cx="246.532" cy="122.472" r="5.14417" stroke-width="0.5" stroke="black" fill="red"/>
   </g>
   <g id="cell601">
  <circle cx="342.942" cy="129.25" r="5.65893" stroke-width="0.5" stroke="black" fill="red"/>
   </g>
   <g id="cell606">
  <circle cx="319.536" cy="250.632" r="6.03181" stroke-width="0.5" stroke="black" fill="red"/>
   </g>
   <g id="cell616">
  <circle cx="313.56" cy="239.089" r="3.39943" stroke-width="0.5" stroke="black" fill="red"/>
   </g>
   <g id="cell635">
  <circle cx="249.696" cy="324.78" r="3.5606" stroke-width="0.5" stroke="black" fill="red"/>
   </g>
   <g id="cell636">
  <circle cx="281.152" cy="56.948" r="6.34816" stroke-width="0.5" stroke="black" fill="red"/>
   </g>
   <g id="cell642">
  <circle cx="286.907" cy="215.905" r="3.52543" stroke-width="0.5" stroke="black" fill="red"/>
   </g>
   <g id="cell649">
  <circle cx="364.621" cy="170.338" r="1.3715" stroke-width="0.5" stroke="black" fill="red"/>
   </g>
   <g id="cell650">
  <circle cx="299.516" cy="262.417" r="4.59588" stroke-width="0.5" stroke="black" fill="red"/>
   </g>
   <g id="cell655">
  <circle cx="290.76" cy="234.126" r="7.93139" stroke-width="0.5" stroke="black" fill="red"/>
  <circle cx="290.76" cy="234.126" r="4.2015" stroke-width="0.5" stroke="red" fill="red"/>
   </g>
   <g id="cell657">
  <circle cx="315.532" cy="132.33" r="7.86483" stroke-width="0.5" stroke="black" fill="red"/>
  <circle cx="315.532" cy="132.33" r="4.07447" stroke-width="0.5" stroke="red" fill="red"/>
   </g>
   <g id="cell678">
  <circle cx="302.045" cy="156.238" r="6.17447" stroke-width="0.5" stroke="black" fill="red"/>
   </g>
   <g id="cell686">
  <circle cx="213.086" cy="204.276" r="3.27066" stroke-width="0.5" stroke="black" fill="red"/>
   </g>
   <g id="cell687">
  <circle cx="229.786" cy="93.8708" r="8.41242" stroke-width="0.5" stroke="black" fill="red"/>
  <circle cx="229.786" cy="93.8708" r="5.05118" stroke-width="0.5" stroke="red" fill="red"/>
   </g>
   <g id="cell688">
  <circle cx="211.713" cy="231.096" r="7.18908" stroke-width="0.5" stroke="black" fill="red"/>
  <circle cx="211.713" cy="231.096" r="2.53546" stroke-width="0.5" stroke="red" fill="red"/>
   </g>
   <g id="cell689">
  <circle cx="193.226" cy="118.697" r="0.414583" stroke-width="0.5" stroke="black" fill="red"/>
   </g>
   <g id="cell728">
  <circle cx="293.249" cy="89.4193" r="8.40734" stroke-width="0.5" stroke="black" fill="red"/>
  <circle cx="293.249" cy="89.4193" r="5.04272" stroke-width="0.5" stroke="red" fill="red"/>
   </g>
   <g id="cell750">
  <circle cx="342.238" cy="79.5507" r="7.66947" stroke-width="0.5" stroke="black" fill="red"/>
  <circle cx="342.238" cy="79.5507" r="3.68326" stroke-width="0.5" stroke="red" fill="red"/>
   </g>
   <g id="cell817">
  <circle cx="329.405" cy="133.065" r="4.25059" stroke-width="0.5" stroke="black" fill="red"/>
   </g>
   <g id="cell819">
  <circle cx="342.899" cy="210.426" r="8.39971" stroke-width="0.5" stroke="black" fill="red"/>
  <circle cx="342.899" cy="210.426" r="5.03" stroke-width="0.5" stroke="red" fill="red"/>
   </g>
   <g id="cell822">
  <circle cx="388.082" cy="129.923" r="3.51176" stroke-width="0.5" stroke="black" fill="red"/>
   </g>
   <g id="cell831">
  <circle cx="182.155" cy="178.165" r="7.71714" stroke-width="0.5" stroke="black" fill="red"/>
  <circle cx="182.155" cy="178.165" r="3.78153" stroke-width="0.5" stroke="red" fill="red"/>
   </g>
   <g id="cell834">
  <circle cx="199.454" cy="193.165" r="7.9285" stroke-width="0.5" stroke="black" fill="red"/>
  <circle cx="199.454" cy="193.165" r="4.19604" stroke-width="0.5" stroke="red" fill="red"/>
   </g>
   <g id="cell838">
  <circle cx="278.916" cy="88.9169" r="3.06032" stroke-width="0.5" stroke="black" fill="red"/>
   </g>
   <g id="cell900">
  <circle cx="295.591" cy="284.376" r="7.64269" stroke-width="0.5" stroke="black" fill="red"/>
  <circle cx="295.591" cy="284.376" r="3.62717" stroke-width="0.5" stroke="red" fill="red"/>
   </g>
   <g id="cell935">
  <circle cx="327.094" cy="290.347" r="4.80462" stroke-width="0.5" stroke="black" fill="red"/>
   </g>
   <g id="cell944">
  <circle cx="263.49" cy="136.335" r="8.21869" stroke-width="0.5" stroke="black" fill="red"/>
  <circle cx="263.49" cy="136.335" r="4.7215" stroke-width="0.5" stroke="red" fill="red"/>
   </g>
  </g>
 </g>
  <rect x="190" y="414" width="200" height="4" stroke-width="0.8" stroke="rgb(255,255,255)" fill="rgb(0,0,0)"/>
  <text x="192.5" y="411.5"
   font-family="Arial" font-size="10" fill="black" >
   200 &#956;m
  </text>
  <text x="10" y="418"
   font-family="Arial" font-size="7.5" fill="black" >
   0 days, 0 hours, 22 minutes, and 14.7051 seconds
  </text>
  <rect x="0" y="28" width="400" height="400" stroke-width="0.8" stroke="rgb(0,0,0)" fill="none"/>
</svg>
