<?xml version="1.0" encoding="UTF-8" standalone="no"?>
<!-- Created with PhysiCell (http://PhysiCell.MathCancer.org/) -->
<svg 
 xmlns:dc="http://purl.org/dc/elements/1.1/" 
 xmlns:cc="http://creativecommons.org/ns#" 
 xmlns:rdf="http://www.w3.org/1999/02/22-rdf-syntax-ns#" 
 xmlns:svg="http://www.w3.org/2000/svg" 
 xmlns="http://www.w3.org/2000/svg" 
 version="1.1" 
 width="400" 
 height="428" 
 id="svg2">
  <rect x="0" y="0" width="400" height="428" stroke-width="0.8" stroke="white" fill="white"/>
  <text x="5" y="12"
   font-family="Arial" font-size="10" fill="black" >
   Current time: 0 days, 19 hours, and 0.00 minutes, z = 0.00 &#956;m
  </text>
  <text x="5" y="23"
   font-family="Arial" font-size="9.5" fill="black" >
   978 agents
  </text>
 <g id="tissue" 
    transform="translate(0,428) scale(1,-1)">
  <g id="ECM">
  </g>
  <g id="cells">
   <g id="cell25">
  <circle cx="73.3655" cy="183.238" r="8.31555" stroke-width="0.5" stroke="black" fill="grey"/>
  <circle cx="73.3655" cy="183.238" r="4.88815" stroke-width="0.5" stroke="grey" fill="grey"/>
   </g>
   <g id="cell96">
  <circle cx="152.419" cy="56.8125" r="7.50018" stroke-width="0.5" stroke="black" fill="grey"/>
  <circle cx="152.419" cy="56.8125" r="3.31638" stroke-width="0.5" stroke="grey" fill="grey"/>
   </g>
   <g id="cell110">
  <circle cx="142.709" cy="269.19" r="8.36411" stroke-width="0.5" stroke="black" fill="grey"/>
  <circle cx="142.709" cy="269.19" r="4.97031" stroke-width="0.5" stroke="grey" fill="grey"/>
   </g>
   <g id="cell135">
  <circle cx="64.4036" cy="196.588" r="6.4678" stroke-width="0.5" stroke="black" fill="grey"/>
   </g>
   <g id="cell137">
  <circle cx="61.25" cy="204.691" r="6.04607" stroke-width="0.5" stroke="black" fill="grey"/>
   </g>
   <g id="cell141">
  <circle cx="56.4748" cy="138.63" r="8.23063" stroke-width="0.5" stroke="black" fill="grey"/>
  <circle cx="56.4748" cy="138.63" r="4.74225" stroke-width="0.5" stroke="grey" fill="grey"/>
   </g>
   <g id="cell149">
  <circle cx="132.002" cy="144.187" r="7.99403" stroke-width="0.5" stroke="black" fill="grey"/>
  <circle cx="132.002" cy="144.187" r="4.31859" stroke-width="0.5" stroke="grey" fill="grey"/>
   </g>
   <g id="cell150">
  <circle cx="122.682" cy="211.117" r="3.41991" stroke-width="0.5" stroke="black" fill="grey"/>
   </g>
   <g id="cell151">
  <circle cx="101.603" cy="221.852" r="4.41303" stroke-width="0.5" stroke="black" fill="grey"/>
   </g>
   <g id="cell155">
  <circle cx="141.607" cy="127.422" r="2.31816" stroke-width="0.5" stroke="black" fill="grey"/>
   </g>
   <g id="cell159">
  <circle cx="111.211" cy="195.194" r="8.4082" stroke-width="0.5" stroke="black" fill="grey"/>
  <circle cx="111.211" cy="195.194" r="5.04415" stroke-width="0.5" stroke="grey" fill="grey"/>
   </g>
   <g id="cell160">
  <circle cx="116.548" cy="219.397" r="3.0055" stroke-width="0.5" stroke="black" fill="grey"/>
   </g>
   <g id="cell161">
  <circle cx="136.462" cy="248.851" r="6.38247" stroke-width="0.5" stroke="black" fill="grey"/>
   </g>
   <g id="cell166">
  <circle cx="140.708" cy="115.52" r="5.78588" stroke-width="0.5" stroke="black" fill="grey"/>
   </g>
   <g id="cell175">
  <circle cx="166.807" cy="151.123" r="4.36712" stroke-width="0.5" stroke="black" fill="grey"/>
   </g>
   <g id="cell177">
  <circle cx="205.325" cy="247.691" r="6.78336" stroke-width="0.5" stroke="black" fill="grey"/>
  <circle cx="205.325" cy="247.691" r="0.871594" stroke-width="0.5" stroke="grey" fill="grey"/>
   </g>
   <g id="cell179">
  <circle cx="114.966" cy="259.416" r="5.13747" stroke-width="0.5" stroke="black" fill="grey"/>
   </g>
   <g id="cell184">
  <circle cx="173.893" cy="228.816" r="8.09789" stroke-width="0.5" stroke="black" fill="grey"/>
  <circle cx="173.893" cy="228.816" r="4.50794" stroke-width="0.5" stroke="grey" fill="grey"/>
   </g>
   <g id="cell195">
  <circle cx="15.9405" cy="180.038" r="5.52001" stroke-width="0.5" stroke="black" fill="grey"/>
   </g>
   <g id="cell199">
  <circle cx="42.8483" cy="172.489" r="5.13564" stroke-width="0.5" stroke="black" fill="grey"/>
   </g>
   <g id="cell202">
  <circle cx="33.4635" cy="238.145" r="8.14521" stroke-width="0.5" stroke="black" fill="grey"/>
  <circle cx="33.4635" cy="238.145" r="4.59239" stroke-width="0.5" stroke="grey" fill="grey"/>
   </g>
   <g id="cell213">
  <circle cx="88.5581" cy="193.231" r="8.32793" stroke-width="0.5" stroke="black" fill="grey"/>
  <circle cx="88.5581" cy="193.231" r="4.90919" stroke-width="0.5" stroke="grey" fill="grey"/>
   </g>
   <g id="cell216">
  <circle cx="102.622" cy="207.406" r="7.90398" stroke-width="0.5" stroke="black" fill="grey"/>
  <circle cx="102.622" cy="207.406" r="4.14953" stroke-width="0.5" stroke="grey" fill="grey"/>
   </g>
   <g id="cell217">
  <circle cx="92.5418" cy="219.597" r="5.74786" stroke-width="0.5" stroke="black" fill="grey"/>
   </g>
   <g id="cell218">
  <circle cx="97.0155" cy="255.845" r="8.06973" stroke-width="0.5" stroke="black" fill="grey"/>
  <circle cx="97.0155" cy="255.845" r="4.45715" stroke-width="0.5" stroke="grey" fill="grey"/>
   </g>
   <g id="cell221">
  <circle cx="96.9096" cy="133.75" r="7.93914" stroke-width="0.5" stroke="black" fill="grey"/>
  <circle cx="96.9096" cy="133.75" r="4.21611" stroke-width="0.5" stroke="grey" fill="grey"/>
   </g>
   <g id="cell224">
  <circle cx="136.307" cy="236.051" r="7.32967" stroke-width="0.5" stroke="black" fill="grey"/>
  <circle cx="136.307" cy="236.051" r="2.91029" stroke-width="0.5" stroke="grey" fill="grey"/>
   </g>
   <g id="cell232">
  <circle cx="146.223" cy="215.629" r="6.54609" stroke-width="0.5" stroke="black" fill="grey"/>
   </g>
   <g id="cell234">
  <circle cx="167.479" cy="276.567" r="1.53603" stroke-width="0.5" stroke="black" fill="grey"/>
   </g>
   <g id="cell235">
  <circle cx="169.389" cy="290.129" r="8.24367" stroke-width="0.5" stroke="black" fill="grey"/>
  <circle cx="169.389" cy="290.129" r="4.76485" stroke-width="0.5" stroke="grey" fill="grey"/>
   </g>
   <g id="cell238">
  <circle cx="177.056" cy="149.87" r="2.63853" stroke-width="0.5" stroke="black" fill="grey"/>
   </g>
   <g id="cell243">
  <circle cx="197.499" cy="258.242" r="4.37716" stroke-width="0.5" stroke="black" fill="grey"/>
   </g>
   <g id="cell249">
  <circle cx="181.789" cy="239.182" r="7.68204" stroke-width="0.5" stroke="black" fill="grey"/>
  <circle cx="181.789" cy="239.182" r="3.70936" stroke-width="0.5" stroke="grey" fill="grey"/>
   </g>
   <g id="cell252">
  <circle cx="152.749" cy="251.46" r="8.41265" stroke-width="0.5" stroke="black" fill="grey"/>
  <circle cx="152.749" cy="251.46" r="5.05156" stroke-width="0.5" stroke="grey" fill="grey"/>
   </g>
   <g id="cell253">
  <circle cx="195.692" cy="134.194" r="2.94255" stroke-width="0.5" stroke="black" fill="grey"/>
   </g>
   <g id="cell255">
  <circle cx="171.239" cy="178.603" r="6.43669" stroke-width="0.5" stroke="black" fill="grey"/>
   </g>
   <g id="cell260">
  <circle cx="201.166" cy="115.326" r="7.51119" stroke-width="0.5" stroke="black" fill="grey"/>
  <circle cx="201.166" cy="115.326" r="3.34121" stroke-width="0.5" stroke="grey" fill="grey"/>
   </g>
   <g id="cell262">
  <circle cx="197.534" cy="161.055" r="7.16428" stroke-width="0.5" stroke="black" fill="grey"/>
  <circle cx="197.534" cy="161.055" r="2.46426" stroke-width="0.5" stroke="grey" fill="grey"/>
   </g>
   <g id="cell281">
  <circle cx="116.238" cy="150.373" r="7.66629" stroke-width="0.5" stroke="black" fill="grey"/>
  <circle cx="116.238" cy="150.373" r="3.67664" stroke-width="0.5" stroke="grey" fill="grey"/>
   </g>
   <g id="cell284">
  <circle cx="91.6412" cy="269.893" r="7.10691" stroke-width="0.5" stroke="black" fill="grey"/>
  <circle cx="91.6412" cy="269.893" r="2.29213" stroke-width="0.5" stroke="grey" fill="grey"/>
   </g>
   <g id="cell285">
  <circle cx="71.4032" cy="232.019" r="7.98861" stroke-width="0.5" stroke="black" fill="grey"/>
  <circle cx="71.4032" cy="232.019" r="4.30855" stroke-width="0.5" stroke="grey" fill="grey"/>
   </g>
   <g id="cell292">
  <circle cx="83.5006" cy="250.116" r="3.44679" stroke-width="0.5" stroke="black" fill="grey"/>
   </g>
   <g id="cell294">
  <circle cx="153.557" cy="113.016" r="8.20114" stroke-width="0.5" stroke="black" fill="grey"/>
  <circle cx="153.557" cy="113.016" r="4.69089" stroke-width="0.5" stroke="grey" fill="grey"/>
   </g>
   <g id="cell298">
  <circle cx="132.807" cy="183.462" r="8.27649" stroke-width="0.5" stroke="black" fill="grey"/>
  <circle cx="132.807" cy="183.462" r="4.8214" stroke-width="0.5" stroke="grey" fill="grey"/>
   </g>
   <g id="cell301">
  <circle cx="120.261" cy="280.845" r="8.30722" stroke-width="0.5" stroke="black" fill="grey"/>
  <circle cx="120.261" cy="280.845" r="4.87397" stroke-width="0.5" stroke="grey" fill="grey"/>
   </g>
   <g id="cell304">
  <circle cx="147.984" cy="158.375" r="8.40896" stroke-width="0.5" stroke="black" fill="grey"/>
  <circle cx="147.984" cy="158.375" r="5.04543" stroke-width="0.5" stroke="grey" fill="grey"/>
   </g>
   <g id="cell308">
  <circle cx="116.464" cy="239.225" r="4.67264" stroke-width="0.5" stroke="black" fill="grey"/>
   </g>
   <g id="cell309">
  <circle cx="160.998" cy="236.99" r="7.10955" stroke-width="0.5" stroke="black" fill="grey"/>
  <circle cx="160.998" cy="236.99" r="2.30029" stroke-width="0.5" stroke="grey" fill="grey"/>
   </g>
   <g id="cell314">
  <circle cx="177.102" cy="198.133" r="7.62476" stroke-width="0.5" stroke="black" fill="grey"/>
  <circle cx="177.102" cy="198.133" r="3.58925" stroke-width="0.5" stroke="grey" fill="grey"/>
   </g>
   <g id="cell323">
  <circle cx="159.535" cy="200.837" r="4.07367" stroke-width="0.5" stroke="black" fill="grey"/>
   </g>
   <g id="cell331">
  <circle cx="158.713" cy="223.807" r="7.65417" stroke-width="0.5" stroke="black" fill="grey"/>
  <circle cx="158.713" cy="223.807" r="3.6513" stroke-width="0.5" stroke="grey" fill="grey"/>
   </g>
   <g id="cell352">
  <circle cx="86.4049" cy="234.72" r="8.38254" stroke-width="0.5" stroke="black" fill="grey"/>
  <circle cx="86.4049" cy="234.72" r="5.00127" stroke-width="0.5" stroke="grey" fill="grey"/>
   </g>
   <g id="cell353">
  <circle cx="100.002" cy="241.097" r="8.24493" stroke-width="0.5" stroke="black" fill="grey"/>
  <circle cx="100.002" cy="241.097" r="4.76703" stroke-width="0.5" stroke="grey" fill="grey"/>
   </g>
   <g id="cell357">
  <circle cx="95.7325" cy="149.901" r="8.38702" stroke-width="0.5" stroke="black" fill="grey"/>
  <circle cx="95.7325" cy="149.901" r="5.00878" stroke-width="0.5" stroke="grey" fill="grey"/>
   </g>
   <g id="cell375">
  <circle cx="143.552" cy="175.55" r="7.83307" stroke-width="0.5" stroke="black" fill="grey"/>
  <circle cx="143.552" cy="175.55" r="4.01281" stroke-width="0.5" stroke="grey" fill="grey"/>
   </g>
   <g id="cell379">
  <circle cx="150.464" cy="235.062" r="5.55494" stroke-width="0.5" stroke="black" fill="grey"/>
   </g>
   <g id="cell386">
  <circle cx="136.991" cy="219.595" r="7.00483" stroke-width="0.5" stroke="black" fill="grey"/>
  <circle cx="136.991" cy="219.595" r="1.95278" stroke-width="0.5" stroke="grey" fill="grey"/>
   </g>
   <g id="cell390">
  <circle cx="202.304" cy="182.624" r="7.83673" stroke-width="0.5" stroke="black" fill="grey"/>
  <circle cx="202.304" cy="182.624" r="4.01996" stroke-width="0.5" stroke="grey" fill="grey"/>
   </g>
   <g id="cell400">
  <circle cx="33.5599" cy="163.149" r="7.81458" stroke-width="0.5" stroke="black" fill="grey"/>
  <circle cx="33.5599" cy="163.149" r="3.9766" stroke-width="0.5" stroke="grey" fill="grey"/>
   </g>
   <g id="cell453">
  <circle cx="77.2307" cy="210.441" r="2.74386" stroke-width="0.5" stroke="black" fill="grey"/>
   </g>
   <g id="cell488">
  <circle cx="177.085" cy="257.796" r="4.92606" stroke-width="0.5" stroke="black" fill="grey"/>
   </g>
   <g id="cell518">
  <circle cx="254.484" cy="130.613" r="5.98557" stroke-width="0.5" stroke="black" fill="red"/>
   </g>
   <g id="cell536">
  <circle cx="251.58" cy="288.029" r="8.28521" stroke-width="0.5" stroke="black" fill="red"/>
  <circle cx="251.58" cy="288.029" r="4.83636" stroke-width="0.5" stroke="red" fill="red"/>
   </g>
   <g id="cell563">
  <circle cx="244.399" cy="173.695" r="6.57782" stroke-width="0.5" stroke="black" fill="red"/>
   </g>
   <g id="cell582">
  <circle cx="273.528" cy="259.434" r="6.63054" stroke-width="0.5" stroke="black" fill="red"/>
   </g>
   <g id="cell617">
  <circle cx="351.982" cy="235.483" r="7.03556" stroke-width="0.5" stroke="black" fill="red"/>
  <circle cx="351.982" cy="235.483" r="2.0603" stroke-width="0.5" stroke="red" fill="red"/>
   </g>
   <g id="cell619">
  <circle cx="186.877" cy="181.739" r="3.52416" stroke-width="0.5" stroke="black" fill="red"/>
   </g>
   <g id="cell625">
  <circle cx="212.723" cy="157.177" r="7.2529" stroke-width="0.5" stroke="black" fill="red"/>
  <circle cx="212.723" cy="157.177" r="2.71114" stroke-width="0.5" stroke="red" fill="red"/>
   </g>
   <g id="cell626">
  <circle cx="217.939" cy="191.045" r="7.81672" stroke-width="0.5" stroke="black" fill="red"/>
  <circle cx="217.939" cy="191.045" r="3.98081" stroke-width="0.5" stroke="red" fill="red"/>
   </g>
   <g id="cell633">
  <circle cx="268.358" cy="204.319" r="7.3869" stroke-width="0.5" stroke="black" fill="red"/>
  <circle cx="268.358" cy="204.319" r="3.05156" stroke-width="0.5" stroke="red" fill="red"/>
   </g>
   <g id="cell645">
  <circle cx="247.925" cy="157.13" r="8.23878" stroke-width="0.5" stroke="black" fill="red"/>
  <circle cx="247.925" cy="157.13" r="4.75639" stroke-width="0.5" stroke="red" fill="red"/>
   </g>
   <g id="cell646">
  <circle cx="288.435" cy="151.546" r="3.38118" stroke-width="0.5" stroke="black" fill="red"/>
   </g>
   <g id="cell647">
  <circle cx="297.393" cy="173.783" r="8.3002" stroke-width="0.5" stroke="black" fill="red"/>
  <circle cx="297.393" cy="173.783" r="4.862" stroke-width="0.5" stroke="red" fill="red"/>
   </g>
   <g id="cell651">
  <circle cx="292.629" cy="280.581" r="4.98094" stroke-width="0.5" stroke="black" fill="red"/>
   </g>
   <g id="cell652">
  <circle cx="247.217" cy="240.857" r="7.32492" stroke-width="0.5" stroke="black" fill="red"/>
  <circle cx="247.217" cy="240.857" r="2.89829" stroke-width="0.5" stroke="red" fill="red"/>
   </g>
   <g id="cell668">
  <circle cx="329.337" cy="259.935" r="7.01349" stroke-width="0.5" stroke="black" fill="red"/>
  <circle cx="329.337" cy="259.935" r="1.98363" stroke-width="0.5" stroke="red" fill="red"/>
   </g>
   <g id="cell673">
  <circle cx="317.798" cy="243.694" r="3.86334" stroke-width="0.5" stroke="black" fill="red"/>
   </g>
   <g id="cell681">
  <circle cx="320.586" cy="284.846" r="5.51612" stroke-width="0.5" stroke="black" fill="red"/>
   </g>
   <g id="cell703">
  <circle cx="230.996" cy="182.578" r="8.36431" stroke-width="0.5" stroke="black" fill="red"/>
  <circle cx="230.996" cy="182.578" r="4.97064" stroke-width="0.5" stroke="red" fill="red"/>
   </g>
   <g id="cell705">
  <circle cx="264.125" cy="233.58" r="7.29085" stroke-width="0.5" stroke="black" fill="red"/>
  <circle cx="264.125" cy="233.58" r="2.81108" stroke-width="0.5" stroke="red" fill="red"/>
   </g>
   <g id="cell706">
  <circle cx="241.194" cy="226.971" r="8.39686" stroke-width="0.5" stroke="black" fill="red"/>
  <circle cx="241.194" cy="226.971" r="5.02522" stroke-width="0.5" stroke="red" fill="red"/>
   </g>
   <g id="cell709">
  <circle cx="244.155" cy="134.259" r="7.08693" stroke-width="0.5" stroke="black" fill="red"/>
  <circle cx="244.155" cy="134.259" r="2.22941" stroke-width="0.5" stroke="red" fill="red"/>
   </g>
   <g id="cell718">
  <circle cx="253.725" cy="144.561" r="8.41049" stroke-width="0.5" stroke="black" fill="red"/>
  <circle cx="253.725" cy="144.561" r="5.04797" stroke-width="0.5" stroke="red" fill="red"/>
   </g>
   <g id="cell724">
  <circle cx="269.001" cy="275.965" r="7.45684" stroke-width="0.5" stroke="black" fill="red"/>
  <circle cx="269.001" cy="275.965" r="3.21716" stroke-width="0.5" stroke="red" fill="red"/>
   </g>
   <g id="cell725">
  <circle cx="291.947" cy="103.962" r="2.55741" stroke-width="0.5" stroke="black" fill="red"/>
   </g>
   <g id="cell726">
  <circle cx="298.325" cy="82.3403" r="7.03417" stroke-width="0.5" stroke="black" fill="red"/>
  <circle cx="298.325" cy="82.3403" r="2.05553" stroke-width="0.5" stroke="red" fill="red"/>
   </g>
   <g id="cell730">
  <circle cx="294.734" cy="219.488" r="6.55375" stroke-width="0.5" stroke="black" fill="red"/>
   </g>
   <g id="cell746">
  <circle cx="312.94" cy="221.682" r="8.3556" stroke-width="0.5" stroke="black" fill="red"/>
  <circle cx="312.94" cy="221.682" r="4.95599" stroke-width="0.5" stroke="red" fill="red"/>
   </g>
   <g id="cell753">
  <circle cx="347.74" cy="277.802" r="6.77046" stroke-width="0.5" stroke="black" fill="red"/>
  <circle cx="347.74" cy="277.802" r="0.764686" stroke-width="0.5" stroke="red" fill="red"/>
   </g>
   <g id="cell754">
  <circle cx="348.778" cy="314.059" r="8.3942" stroke-width="0.5" stroke="black" fill="red"/>
  <circle cx="348.778" cy="314.059" r="5.02078" stroke-width="0.5" stroke="red" fill="red"/>
   </g>
   <g id="cell758">
  <circle cx="178.052" cy="211.575" r="7.31234" stroke-width="0.5" stroke="black" fill="red"/>
  <circle cx="178.052" cy="211.575" r="2.86635" stroke-width="0.5" stroke="red" fill="red"/>
   </g>
   <g id="cell759">
  <circle cx="220.732" cy="227.337" r="7.25558" stroke-width="0.5" stroke="black" fill="red"/>
  <circle cx="220.732" cy="227.337" r="2.71829" stroke-width="0.5" stroke="red" fill="red"/>
   </g>
   <g id="cell766">
  <circle cx="260.499" cy="266.746" r="4.47385" stroke-width="0.5" stroke="black" fill="red"/>
   </g>
   <g id="cell769">
  <circle cx="247.887" cy="189.196" r="4.37348" stroke-width="0.5" stroke="black" fill="red"/>
   </g>
   <g id="cell772">
  <circle cx="212.781" cy="206.036" r="7.17987" stroke-width="0.5" stroke="black" fill="red"/>
  <circle cx="212.781" cy="206.036" r="2.50924" stroke-width="0.5" stroke="red" fill="red"/>
   </g>
   <g id="cell780">
  <circle cx="259.287" cy="250.492" r="7.79321" stroke-width="0.5" stroke="black" fill="red"/>
  <circle cx="259.287" cy="250.492" r="3.93445" stroke-width="0.5" stroke="red" fill="red"/>
   </g>
   <g id="cell781">
  <circle cx="304.283" cy="240.553" r="5.11256" stroke-width="0.5" stroke="black" fill="red"/>
   </g>
   <g id="cell794">
  <circle cx="259.121" cy="190.524" r="7.74978" stroke-width="0.5" stroke="black" fill="red"/>
  <circle cx="259.121" cy="190.524" r="3.84769" stroke-width="0.5" stroke="red" fill="red"/>
   </g>
   <g id="cell795">
  <circle cx="280.763" cy="207.259" r="6.59981" stroke-width="0.5" stroke="black" fill="red"/>
   </g>
   <g id="cell797">
  <circle cx="331.889" cy="235.002" r="2.927" stroke-width="0.5" stroke="black" fill="red"/>
   </g>
   <g id="cell802">
  <circle cx="314.146" cy="173.319" r="7.61771" stroke-width="0.5" stroke="black" fill="red"/>
  <circle cx="314.146" cy="173.319" r="3.57425" stroke-width="0.5" stroke="red" fill="red"/>
   </g>
   <g id="cell806">
  <circle cx="294.92" cy="259.251" r="7.83707" stroke-width="0.5" stroke="black" fill="red"/>
  <circle cx="294.92" cy="259.251" r="4.02062" stroke-width="0.5" stroke="red" fill="red"/>
   </g>
   <g id="cell807">
  <circle cx="283.857" cy="267.753" r="7.19773" stroke-width="0.5" stroke="black" fill="red"/>
  <circle cx="283.857" cy="267.753" r="2.55988" stroke-width="0.5" stroke="red" fill="red"/>
   </g>
   <g id="cell810">
  <circle cx="335.174" cy="146.386" r="6.76162" stroke-width="0.5" stroke="black" fill="red"/>
  <circle cx="335.174" cy="146.386" r="0.682048" stroke-width="0.5" stroke="red" fill="red"/>
   </g>
   <g id="cell814">
  <circle cx="292.033" cy="223.979" r="1.85299" stroke-width="0.5" stroke="black" fill="red"/>
   </g>
   <g id="cell827">
  <circle cx="190.538" cy="224.827" r="5.03337" stroke-width="0.5" stroke="black" fill="red"/>
   </g>
   <g id="cell843">
  <circle cx="233.407" cy="274.408" r="8.13046" stroke-width="0.5" stroke="black" fill="red"/>
  <circle cx="233.407" cy="274.408" r="4.56619" stroke-width="0.5" stroke="red" fill="red"/>
   </g>
   <g id="cell861">
  <circle cx="242.7" cy="99.0736" r="8.39887" stroke-width="0.5" stroke="black" fill="red"/>
  <circle cx="242.7" cy="99.0736" r="5.02859" stroke-width="0.5" stroke="red" fill="red"/>
   </g>
   <g id="cell862">
  <circle cx="299.392" cy="129.297" r="6.70473" stroke-width="0.5" stroke="black" fill="red"/>
   </g>
   <g id="cell869">
  <circle cx="302.253" cy="112.972" r="5.81907" stroke-width="0.5" stroke="black" fill="red"/>
   </g>
   <g id="cell890">
  <circle cx="230.732" cy="159.005" r="8.1208" stroke-width="0.5" stroke="black" fill="red"/>
  <circle cx="230.732" cy="159.005" r="4.54896" stroke-width="0.5" stroke="red" fill="red"/>
   </g>
   <g id="cell900">
  <circle cx="264.332" cy="285.525" r="5.6305" stroke-width="0.5" stroke="black" fill="red"/>
   </g>
   <g id="cell906">
  <circle cx="255.778" cy="209.949" r="6.40538" stroke-width="0.5" stroke="black" fill="red"/>
   </g>
   <g id="cell939">
  <circle cx="343.405" cy="226.264" r="4.77159" stroke-width="0.5" stroke="black" fill="red"/>
   </g>
  </g>
 </g>
  <rect x="190" y="414" width="200" height="4" stroke-width="0.8" stroke="rgb(255,255,255)" fill="rgb(0,0,0)"/>
  <text x="192.5" y="411.5"
   font-family="Arial" font-size="10" fill="black" >
   200 &#956;m
  </text>
  <text x="10" y="418"
   font-family="Arial" font-size="7.5" fill="black" >
   0 days, 0 hours, 6 minutes, and 54.2647 seconds
  </text>
  <rect x="0" y="28" width="400" height="400" stroke-width="0.8" stroke="rgb(0,0,0)" fill="none"/>
</svg>
