<?xml version="1.0" encoding="UTF-8" standalone="no"?>
<!-- Created with PhysiCell (http://PhysiCell.MathCancer.org/) -->
<svg 
 xmlns:dc="http://purl.org/dc/elements/1.1/" 
 xmlns:cc="http://creativecommons.org/ns#" 
 xmlns:rdf="http://www.w3.org/1999/02/22-rdf-syntax-ns#" 
 xmlns:svg="http://www.w3.org/2000/svg" 
 xmlns="http://www.w3.org/2000/svg" 
 version="1.1" 
 width="400" 
 height="428" 
 id="svg2">
  <rect x="0" y="0" width="400" height="428" stroke-width="0.8" stroke="white" fill="white"/>
  <text x="5" y="12"
   font-family="Arial" font-size="10" fill="black" >
   Current time: 2 days, 13 hours, and 0.00 minutes, z = 0.00 &#956;m
  </text>
  <text x="5" y="23"
   font-family="Arial" font-size="9.5" fill="black" >
   978 agents
  </text>
 <g id="tissue" 
    transform="translate(0,428) scale(1,-1)">
  <g id="ECM">
  </g>
  <g id="cells">
   <g id="cell21">
  <circle cx="173.664" cy="114.806" r="3.13987" stroke-width="0.5" stroke="black" fill="grey"/>
   </g>
   <g id="cell37">
  <circle cx="143.831" cy="141.902" r="8.41268" stroke-width="0.5" stroke="black" fill="grey"/>
  <circle cx="143.831" cy="141.902" r="5.05162" stroke-width="0.5" stroke="grey" fill="grey"/>
   </g>
   <g id="cell81">
  <circle cx="108.387" cy="81.4763" r="3.26993" stroke-width="0.5" stroke="black" fill="grey"/>
   </g>
   <g id="cell88">
  <circle cx="120.2" cy="68.4228" r="5.19536" stroke-width="0.5" stroke="black" fill="grey"/>
   </g>
   <g id="cell112">
  <circle cx="180.851" cy="72.4408" r="8.3925" stroke-width="0.5" stroke="black" fill="grey"/>
  <circle cx="180.851" cy="72.4408" r="5.01794" stroke-width="0.5" stroke="grey" fill="grey"/>
   </g>
   <g id="cell113">
  <circle cx="123.586" cy="213.644" r="7.76145" stroke-width="0.5" stroke="black" fill="grey"/>
  <circle cx="123.586" cy="213.644" r="3.87114" stroke-width="0.5" stroke="grey" fill="grey"/>
   </g>
   <g id="cell135">
  <circle cx="56.3927" cy="215.144" r="6.07173" stroke-width="0.5" stroke="black" fill="grey"/>
   </g>
   <g id="cell141">
  <circle cx="78.0578" cy="85.035" r="8.33398" stroke-width="0.5" stroke="black" fill="grey"/>
  <circle cx="78.0578" cy="85.035" r="4.91944" stroke-width="0.5" stroke="grey" fill="grey"/>
   </g>
   <g id="cell145">
  <circle cx="144.885" cy="241.308" r="7.4432" stroke-width="0.5" stroke="black" fill="grey"/>
  <circle cx="144.885" cy="241.308" r="3.18543" stroke-width="0.5" stroke="grey" fill="grey"/>
   </g>
   <g id="cell147">
  <circle cx="88.562" cy="132.306" r="4.39073" stroke-width="0.5" stroke="black" fill="grey"/>
   </g>
   <g id="cell164">
  <circle cx="124.817" cy="168.066" r="8.33663" stroke-width="0.5" stroke="black" fill="grey"/>
  <circle cx="124.817" cy="168.066" r="4.92392" stroke-width="0.5" stroke="grey" fill="grey"/>
   </g>
   <g id="cell168">
  <circle cx="126.904" cy="263.2" r="6.61896" stroke-width="0.5" stroke="black" fill="grey"/>
   </g>
   <g id="cell169">
  <circle cx="121.622" cy="237.073" r="8.40676" stroke-width="0.5" stroke="black" fill="grey"/>
  <circle cx="121.622" cy="237.073" r="5.04175" stroke-width="0.5" stroke="grey" fill="grey"/>
   </g>
   <g id="cell182">
  <circle cx="171.715" cy="158.956" r="6.60712" stroke-width="0.5" stroke="black" fill="grey"/>
   </g>
   <g id="cell190">
  <circle cx="188.766" cy="105.003" r="8.33712" stroke-width="0.5" stroke="black" fill="grey"/>
  <circle cx="188.766" cy="105.003" r="4.92475" stroke-width="0.5" stroke="grey" fill="grey"/>
   </g>
   <g id="cell195">
  <circle cx="54.357" cy="152.062" r="7.90528" stroke-width="0.5" stroke="black" fill="grey"/>
  <circle cx="54.357" cy="152.062" r="4.15201" stroke-width="0.5" stroke="grey" fill="grey"/>
   </g>
   <g id="cell196">
  <circle cx="80.7704" cy="234.385" r="7.40794" stroke-width="0.5" stroke="black" fill="grey"/>
  <circle cx="80.7704" cy="234.385" r="3.10214" stroke-width="0.5" stroke="grey" fill="grey"/>
   </g>
   <g id="cell199">
  <circle cx="40.6203" cy="160.648" r="7.91626" stroke-width="0.5" stroke="black" fill="grey"/>
  <circle cx="40.6203" cy="160.648" r="4.17286" stroke-width="0.5" stroke="grey" fill="grey"/>
   </g>
   <g id="cell217">
  <circle cx="99.2263" cy="216.044" r="6.34711" stroke-width="0.5" stroke="black" fill="grey"/>
   </g>
   <g id="cell218">
  <circle cx="69.426" cy="261.791" r="8.22795" stroke-width="0.5" stroke="black" fill="grey"/>
  <circle cx="69.426" cy="261.791" r="4.73761" stroke-width="0.5" stroke="grey" fill="grey"/>
   </g>
   <g id="cell221">
  <circle cx="124.282" cy="108.41" r="6.72339" stroke-width="0.5" stroke="black" fill="grey"/>
   </g>
   <g id="cell223">
  <circle cx="132.851" cy="200.832" r="8.25688" stroke-width="0.5" stroke="black" fill="grey"/>
  <circle cx="132.851" cy="200.832" r="4.78767" stroke-width="0.5" stroke="grey" fill="grey"/>
   </g>
   <g id="cell226">
  <circle cx="106.475" cy="315.27" r="7.49148" stroke-width="0.5" stroke="black" fill="grey"/>
  <circle cx="106.475" cy="315.27" r="3.29665" stroke-width="0.5" stroke="grey" fill="grey"/>
   </g>
   <g id="cell231">
  <circle cx="155.927" cy="192.362" r="8.30503" stroke-width="0.5" stroke="black" fill="grey"/>
  <circle cx="155.927" cy="192.362" r="4.87023" stroke-width="0.5" stroke="grey" fill="grey"/>
   </g>
   <g id="cell242">
  <circle cx="40.0748" cy="219.965" r="7.74668" stroke-width="0.5" stroke="black" fill="grey"/>
  <circle cx="40.0748" cy="219.965" r="3.84145" stroke-width="0.5" stroke="grey" fill="grey"/>
   </g>
   <g id="cell255">
  <circle cx="157.593" cy="110.004" r="7.54365" stroke-width="0.5" stroke="black" fill="grey"/>
  <circle cx="157.593" cy="110.004" r="3.41355" stroke-width="0.5" stroke="grey" fill="grey"/>
   </g>
   <g id="cell261">
  <circle cx="180.898" cy="134.194" r="7.43803" stroke-width="0.5" stroke="black" fill="grey"/>
  <circle cx="180.898" cy="134.194" r="3.17332" stroke-width="0.5" stroke="grey" fill="grey"/>
   </g>
   <g id="cell263">
  <circle cx="142.26" cy="299.077" r="7.67103" stroke-width="0.5" stroke="black" fill="grey"/>
  <circle cx="142.26" cy="299.077" r="3.68651" stroke-width="0.5" stroke="grey" fill="grey"/>
   </g>
   <g id="cell287">
  <circle cx="33.1328" cy="128.878" r="2.99427" stroke-width="0.5" stroke="black" fill="grey"/>
   </g>
   <g id="cell289">
  <circle cx="73.2121" cy="204.033" r="8.08589" stroke-width="0.5" stroke="black" fill="grey"/>
  <circle cx="73.2121" cy="204.033" r="4.48635" stroke-width="0.5" stroke="grey" fill="grey"/>
   </g>
   <g id="cell300">
  <circle cx="154.082" cy="278.56" r="8.40286" stroke-width="0.5" stroke="black" fill="grey"/>
  <circle cx="154.082" cy="278.56" r="5.03526" stroke-width="0.5" stroke="grey" fill="grey"/>
   </g>
   <g id="cell301">
  <circle cx="139.221" cy="269.604" r="8.1424" stroke-width="0.5" stroke="black" fill="grey"/>
  <circle cx="139.221" cy="269.604" r="4.58742" stroke-width="0.5" stroke="grey" fill="grey"/>
   </g>
   <g id="cell309">
  <circle cx="150.639" cy="209.684" r="7.99595" stroke-width="0.5" stroke="black" fill="grey"/>
  <circle cx="150.639" cy="209.684" r="4.32213" stroke-width="0.5" stroke="grey" fill="grey"/>
   </g>
   <g id="cell312">
  <circle cx="165.321" cy="142.979" r="7.0319" stroke-width="0.5" stroke="black" fill="grey"/>
  <circle cx="165.321" cy="142.979" r="2.04775" stroke-width="0.5" stroke="grey" fill="grey"/>
   </g>
   <g id="cell375">
  <circle cx="153.694" cy="176.085" r="6.48906" stroke-width="0.5" stroke="black" fill="grey"/>
   </g>
   <g id="cell389">
  <circle cx="236.141" cy="67.0197" r="7.59258" stroke-width="0.5" stroke="black" fill="grey"/>
  <circle cx="236.141" cy="67.0197" r="3.52035" stroke-width="0.5" stroke="grey" fill="grey"/>
   </g>
   <g id="cell394">
  <circle cx="209.228" cy="319.764" r="2.01628" stroke-width="0.5" stroke="black" fill="grey"/>
   </g>
   <g id="cell397">
  <circle cx="170.528" cy="252.962" r="8.20738" stroke-width="0.5" stroke="black" fill="grey"/>
  <circle cx="170.528" cy="252.962" r="4.70179" stroke-width="0.5" stroke="grey" fill="grey"/>
   </g>
   <g id="cell408">
  <circle cx="39.9006" cy="137.285" r="8.14686" stroke-width="0.5" stroke="black" fill="grey"/>
  <circle cx="39.9006" cy="137.285" r="4.59532" stroke-width="0.5" stroke="grey" fill="grey"/>
   </g>
   <g id="cell445">
  <circle cx="109.727" cy="186.911" r="6.24706" stroke-width="0.5" stroke="black" fill="grey"/>
   </g>
   <g id="cell477">
  <circle cx="137.405" cy="228.5" r="7.86442" stroke-width="0.5" stroke="black" fill="grey"/>
  <circle cx="137.405" cy="228.5" r="4.07366" stroke-width="0.5" stroke="grey" fill="grey"/>
   </g>
   <g id="cell481">
  <circle cx="275.636" cy="197.073" r="7.44435" stroke-width="0.5" stroke="black" fill="grey"/>
  <circle cx="275.636" cy="197.073" r="3.18811" stroke-width="0.5" stroke="grey" fill="grey"/>
   </g>
   <g id="cell486">
  <circle cx="128.81" cy="184.293" r="8.36005" stroke-width="0.5" stroke="black" fill="grey"/>
  <circle cx="128.81" cy="184.293" r="4.96348" stroke-width="0.5" stroke="grey" fill="grey"/>
   </g>
   <g id="cell512">
  <circle cx="365.092" cy="198.881" r="8.22164" stroke-width="0.5" stroke="black" fill="red"/>
  <circle cx="365.092" cy="198.881" r="4.72663" stroke-width="0.5" stroke="red" fill="red"/>
   </g>
   <g id="cell524">
  <circle cx="249.492" cy="139.899" r="7.86571" stroke-width="0.5" stroke="black" fill="red"/>
  <circle cx="249.492" cy="139.899" r="4.07615" stroke-width="0.5" stroke="red" fill="red"/>
   </g>
   <g id="cell540">
  <circle cx="332.298" cy="176.488" r="7.23891" stroke-width="0.5" stroke="black" fill="red"/>
  <circle cx="332.298" cy="176.488" r="2.67349" stroke-width="0.5" stroke="red" fill="red"/>
   </g>
   <g id="cell556">
  <circle cx="367.128" cy="181.074" r="7.16624" stroke-width="0.5" stroke="black" fill="red"/>
  <circle cx="367.128" cy="181.074" r="2.46997" stroke-width="0.5" stroke="red" fill="red"/>
   </g>
   <g id="cell558">
  <circle cx="279.308" cy="215.982" r="6.55948" stroke-width="0.5" stroke="black" fill="red"/>
   </g>
   <g id="cell559">
  <circle cx="240.882" cy="249.012" r="7.93641" stroke-width="0.5" stroke="black" fill="red"/>
  <circle cx="240.882" cy="249.012" r="4.21098" stroke-width="0.5" stroke="red" fill="red"/>
   </g>
   <g id="cell625">
  <circle cx="251.936" cy="161.699" r="5.48891" stroke-width="0.5" stroke="black" fill="red"/>
   </g>
   <g id="cell626">
  <circle cx="212.76" cy="181.732" r="8.00944" stroke-width="0.5" stroke="black" fill="red"/>
  <circle cx="212.76" cy="181.732" r="4.34704" stroke-width="0.5" stroke="red" fill="red"/>
   </g>
   <g id="cell627">
  <circle cx="239.272" cy="305.05" r="8.17459" stroke-width="0.5" stroke="black" fill="red"/>
  <circle cx="239.272" cy="305.05" r="4.64431" stroke-width="0.5" stroke="red" fill="red"/>
   </g>
   <g id="cell631">
  <circle cx="263.625" cy="218.483" r="2.33148" stroke-width="0.5" stroke="black" fill="red"/>
   </g>
   <g id="cell655">
  <circle cx="299.734" cy="217.047" r="4.34666" stroke-width="0.5" stroke="black" fill="red"/>
   </g>
   <g id="cell657">
  <circle cx="297.595" cy="129.661" r="8.41086" stroke-width="0.5" stroke="black" fill="red"/>
  <circle cx="297.595" cy="129.661" r="5.04858" stroke-width="0.5" stroke="red" fill="red"/>
   </g>
   <g id="cell681">
  <circle cx="346.539" cy="323.165" r="6.52802" stroke-width="0.5" stroke="black" fill="red"/>
   </g>
   <g id="cell683">
  <circle cx="353.731" cy="164.268" r="5.22178" stroke-width="0.5" stroke="black" fill="red"/>
   </g>
   <g id="cell686">
  <circle cx="216.998" cy="233.635" r="4.60587" stroke-width="0.5" stroke="black" fill="red"/>
   </g>
   <g id="cell704">
  <circle cx="180.392" cy="225.89" r="7.74695" stroke-width="0.5" stroke="black" fill="red"/>
  <circle cx="180.392" cy="225.89" r="3.84199" stroke-width="0.5" stroke="red" fill="red"/>
   </g>
   <g id="cell706">
  <circle cx="172.898" cy="209.577" r="8.00198" stroke-width="0.5" stroke="black" fill="red"/>
  <circle cx="172.898" cy="209.577" r="4.33329" stroke-width="0.5" stroke="red" fill="red"/>
   </g>
   <g id="cell709">
  <circle cx="207.866" cy="109.585" r="8.39746" stroke-width="0.5" stroke="black" fill="red"/>
  <circle cx="207.866" cy="109.585" r="5.02624" stroke-width="0.5" stroke="red" fill="red"/>
   </g>
   <g id="cell714">
  <circle cx="306.759" cy="159.091" r="7.85745" stroke-width="0.5" stroke="black" fill="red"/>
  <circle cx="306.759" cy="159.091" r="4.0602" stroke-width="0.5" stroke="red" fill="red"/>
   </g>
   <g id="cell716">
  <circle cx="279.737" cy="353.928" r="7.72197" stroke-width="0.5" stroke="black" fill="red"/>
  <circle cx="279.737" cy="353.928" r="3.79137" stroke-width="0.5" stroke="red" fill="red"/>
   </g>
   <g id="cell726">
  <circle cx="259.114" cy="64.0552" r="6.18829" stroke-width="0.5" stroke="black" fill="red"/>
   </g>
   <g id="cell732">
  <circle cx="251.641" cy="263.772" r="5.27636" stroke-width="0.5" stroke="black" fill="red"/>
   </g>
   <g id="cell733">
  <circle cx="313.386" cy="331.934" r="5.17022" stroke-width="0.5" stroke="black" fill="red"/>
   </g>
   <g id="cell745">
  <circle cx="332.913" cy="113.743" r="2.53859" stroke-width="0.5" stroke="black" fill="red"/>
   </g>
   <g id="cell783">
  <circle cx="301.657" cy="64.6173" r="4.22187" stroke-width="0.5" stroke="black" fill="red"/>
   </g>
   <g id="cell787">
  <circle cx="251.238" cy="202.148" r="8.36026" stroke-width="0.5" stroke="black" fill="red"/>
  <circle cx="251.238" cy="202.148" r="4.96383" stroke-width="0.5" stroke="red" fill="red"/>
   </g>
   <g id="cell805">
  <circle cx="338.261" cy="313.522" r="7.46957" stroke-width="0.5" stroke="black" fill="red"/>
  <circle cx="338.261" cy="313.522" r="3.24657" stroke-width="0.5" stroke="red" fill="red"/>
   </g>
   <g id="cell814">
  <circle cx="302.502" cy="207.077" r="7.57675" stroke-width="0.5" stroke="black" fill="red"/>
  <circle cx="302.502" cy="207.077" r="3.48609" stroke-width="0.5" stroke="red" fill="red"/>
   </g>
   <g id="cell821">
  <circle cx="360.899" cy="276.81" r="7.69338" stroke-width="0.5" stroke="black" fill="red"/>
  <circle cx="360.899" cy="276.81" r="3.73279" stroke-width="0.5" stroke="red" fill="red"/>
   </g>
   <g id="cell831">
  <circle cx="186.611" cy="183.778" r="4.9539" stroke-width="0.5" stroke="black" fill="red"/>
   </g>
   <g id="cell841">
  <circle cx="239.187" cy="232.944" r="8.39061" stroke-width="0.5" stroke="black" fill="red"/>
  <circle cx="239.187" cy="232.944" r="5.01478" stroke-width="0.5" stroke="red" fill="red"/>
   </g>
   <g id="cell852">
  <circle cx="293.482" cy="278.159" r="1.20794" stroke-width="0.5" stroke="black" fill="red"/>
   </g>
   <g id="cell861">
  <circle cx="222.476" cy="72.6004" r="6.16421" stroke-width="0.5" stroke="black" fill="red"/>
   </g>
   <g id="cell867">
  <circle cx="247.932" cy="347.657" r="8.36304" stroke-width="0.5" stroke="black" fill="red"/>
  <circle cx="247.932" cy="347.657" r="4.96852" stroke-width="0.5" stroke="red" fill="red"/>
   </g>
   <g id="cell898">
  <circle cx="253.725" cy="161.208" r="5.07051" stroke-width="0.5" stroke="black" fill="red"/>
   </g>
   <g id="cell900">
  <circle cx="273.921" cy="286.097" r="7.1879" stroke-width="0.5" stroke="black" fill="red"/>
  <circle cx="273.921" cy="286.097" r="2.5321" stroke-width="0.5" stroke="red" fill="red"/>
   </g>
   <g id="cell919">
  <circle cx="312.965" cy="121.305" r="8.05158" stroke-width="0.5" stroke="black" fill="red"/>
  <circle cx="312.965" cy="121.305" r="4.42421" stroke-width="0.5" stroke="red" fill="red"/>
   </g>
   <g id="cell935">
  <circle cx="324.414" cy="294.482" r="8.05608" stroke-width="0.5" stroke="black" fill="red"/>
  <circle cx="324.414" cy="294.482" r="4.4324" stroke-width="0.5" stroke="red" fill="red"/>
   </g>
   <g id="cell949">
  <circle cx="190.359" cy="171.674" r="3.7149" stroke-width="0.5" stroke="black" fill="red"/>
   </g>
  </g>
 </g>
  <rect x="190" y="414" width="200" height="4" stroke-width="0.8" stroke="rgb(255,255,255)" fill="rgb(0,0,0)"/>
  <text x="192.5" y="411.5"
   font-family="Arial" font-size="10" fill="black" >
   200 &#956;m
  </text>
  <text x="10" y="418"
   font-family="Arial" font-size="7.5" fill="black" >
   0 days, 0 hours, 18 minutes, and 35.5952 seconds
  </text>
  <rect x="0" y="28" width="400" height="400" stroke-width="0.8" stroke="rgb(0,0,0)" fill="none"/>
</svg>
