<?xml version="1.0" encoding="UTF-8" standalone="no"?>
<!-- Created with PhysiCell (http://PhysiCell.MathCancer.org/) -->
<svg 
 xmlns:dc="http://purl.org/dc/elements/1.1/" 
 xmlns:cc="http://creativecommons.org/ns#" 
 xmlns:rdf="http://www.w3.org/1999/02/22-rdf-syntax-ns#" 
 xmlns:svg="http://www.w3.org/2000/svg" 
 xmlns="http://www.w3.org/2000/svg" 
 version="1.1" 
 width="400" 
 height="428" 
 id="svg2">
  <rect x="0" y="0" width="400" height="428" stroke-width="0.8" stroke="white" fill="white"/>
  <text x="5" y="12"
   font-family="Arial" font-size="10" fill="black" >
   Current time: 1 days, 23 hours, and 0.00 minutes, z = 0.00 &#956;m
  </text>
  <text x="5" y="23"
   font-family="Arial" font-size="9.5" fill="black" >
   978 agents
  </text>
 <g id="tissue" 
    transform="translate(0,428) scale(1,-1)">
  <g id="ECM">
  </g>
  <g id="cells">
   <g id="cell20">
  <circle cx="128.263" cy="261.342" r="7.50709" stroke-width="0.5" stroke="black" fill="grey"/>
  <circle cx="128.263" cy="261.342" r="3.33197" stroke-width="0.5" stroke="grey" fill="grey"/>
   </g>
   <g id="cell35">
  <circle cx="182.202" cy="133.831" r="6.82435" stroke-width="0.5" stroke="black" fill="grey"/>
  <circle cx="182.202" cy="133.831" r="1.14779" stroke-width="0.5" stroke="grey" fill="grey"/>
   </g>
   <g id="cell36">
  <circle cx="74.1977" cy="175.984" r="6.95776" stroke-width="0.5" stroke="black" fill="grey"/>
  <circle cx="74.1977" cy="175.984" r="1.77655" stroke-width="0.5" stroke="grey" fill="grey"/>
   </g>
   <g id="cell77">
  <circle cx="31.0232" cy="257.662" r="7.97343" stroke-width="0.5" stroke="black" fill="grey"/>
  <circle cx="31.0232" cy="257.662" r="4.28034" stroke-width="0.5" stroke="grey" fill="grey"/>
   </g>
   <g id="cell82">
  <circle cx="111.226" cy="203.289" r="8.37717" stroke-width="0.5" stroke="black" fill="grey"/>
  <circle cx="111.226" cy="203.289" r="4.99227" stroke-width="0.5" stroke="grey" fill="grey"/>
   </g>
   <g id="cell88">
  <circle cx="132.471" cy="53.5828" r="4.89687" stroke-width="0.5" stroke="black" fill="grey"/>
   </g>
   <g id="cell151">
  <circle cx="61.5088" cy="186.233" r="8.40526" stroke-width="0.5" stroke="black" fill="grey"/>
  <circle cx="61.5088" cy="186.233" r="5.03925" stroke-width="0.5" stroke="grey" fill="grey"/>
   </g>
   <g id="cell168">
  <circle cx="142.082" cy="244.524" r="6.94945" stroke-width="0.5" stroke="black" fill="grey"/>
  <circle cx="142.082" cy="244.524" r="1.7437" stroke-width="0.5" stroke="grey" fill="grey"/>
   </g>
   <g id="cell170">
  <circle cx="86.622" cy="272.493" r="7.292" stroke-width="0.5" stroke="black" fill="grey"/>
  <circle cx="86.622" cy="272.493" r="2.81406" stroke-width="0.5" stroke="grey" fill="grey"/>
   </g>
   <g id="cell173">
  <circle cx="134.982" cy="95.1176" r="8.10892" stroke-width="0.5" stroke="black" fill="grey"/>
  <circle cx="134.982" cy="95.1176" r="4.52771" stroke-width="0.5" stroke="grey" fill="grey"/>
   </g>
   <g id="cell174">
  <circle cx="166.49" cy="184.379" r="8.02886" stroke-width="0.5" stroke="black" fill="grey"/>
  <circle cx="166.49" cy="184.379" r="4.38272" stroke-width="0.5" stroke="grey" fill="grey"/>
   </g>
   <g id="cell178">
  <circle cx="96.6633" cy="194.898" r="1.11713" stroke-width="0.5" stroke="black" fill="grey"/>
   </g>
   <g id="cell182">
  <circle cx="176.829" cy="159.392" r="8.23745" stroke-width="0.5" stroke="black" fill="grey"/>
  <circle cx="176.829" cy="159.392" r="4.75408" stroke-width="0.5" stroke="grey" fill="grey"/>
   </g>
   <g id="cell190">
  <circle cx="197.904" cy="155.039" r="2.44098" stroke-width="0.5" stroke="black" fill="grey"/>
   </g>
   <g id="cell195">
  <circle cx="46.6735" cy="157.962" r="8.06044" stroke-width="0.5" stroke="black" fill="grey"/>
  <circle cx="46.6735" cy="157.962" r="4.44032" stroke-width="0.5" stroke="grey" fill="grey"/>
   </g>
   <g id="cell207">
  <circle cx="66.991" cy="201.095" r="8.2521" stroke-width="0.5" stroke="black" fill="grey"/>
  <circle cx="66.991" cy="201.095" r="4.77942" stroke-width="0.5" stroke="grey" fill="grey"/>
   </g>
   <g id="cell218">
  <circle cx="73.2295" cy="238.069" r="3.75731" stroke-width="0.5" stroke="black" fill="grey"/>
   </g>
   <g id="cell223">
  <circle cx="134.801" cy="211.153" r="7.45568" stroke-width="0.5" stroke="black" fill="grey"/>
  <circle cx="134.801" cy="211.153" r="3.21446" stroke-width="0.5" stroke="grey" fill="grey"/>
   </g>
   <g id="cell226">
  <circle cx="110.864" cy="299.387" r="8.0859" stroke-width="0.5" stroke="black" fill="grey"/>
  <circle cx="110.864" cy="299.387" r="4.48637" stroke-width="0.5" stroke="grey" fill="grey"/>
   </g>
   <g id="cell229">
  <circle cx="106.056" cy="102.832" r="5.90427" stroke-width="0.5" stroke="black" fill="grey"/>
   </g>
   <g id="cell237">
  <circle cx="189.631" cy="84.1963" r="6.34141" stroke-width="0.5" stroke="black" fill="grey"/>
   </g>
   <g id="cell241">
  <circle cx="166.844" cy="198.326" r="7.71063" stroke-width="0.5" stroke="black" fill="grey"/>
  <circle cx="166.844" cy="198.326" r="3.76823" stroke-width="0.5" stroke="grey" fill="grey"/>
   </g>
   <g id="cell254">
  <circle cx="138.47" cy="159.215" r="2.46704" stroke-width="0.5" stroke="black" fill="grey"/>
   </g>
   <g id="cell255">
  <circle cx="157.665" cy="153.056" r="6.64563" stroke-width="0.5" stroke="black" fill="grey"/>
   </g>
   <g id="cell275">
  <circle cx="10.9809" cy="222.962" r="8.08093" stroke-width="0.5" stroke="black" fill="grey"/>
  <circle cx="10.9809" cy="222.962" r="4.4774" stroke-width="0.5" stroke="grey" fill="grey"/>
   </g>
   <g id="cell281">
  <circle cx="102.552" cy="149.484" r="6.2359" stroke-width="0.5" stroke="black" fill="grey"/>
   </g>
   <g id="cell288">
  <circle cx="96.9078" cy="122.717" r="5.08505" stroke-width="0.5" stroke="black" fill="grey"/>
   </g>
   <g id="cell292">
  <circle cx="93.2132" cy="251.474" r="5.10121" stroke-width="0.5" stroke="black" fill="grey"/>
   </g>
   <g id="cell300">
  <circle cx="142.385" cy="273.586" r="4.76871" stroke-width="0.5" stroke="black" fill="grey"/>
   </g>
   <g id="cell344">
  <circle cx="11.4948" cy="189.609" r="7.90347" stroke-width="0.5" stroke="black" fill="grey"/>
  <circle cx="11.4948" cy="189.609" r="4.14855" stroke-width="0.5" stroke="grey" fill="grey"/>
   </g>
   <g id="cell355">
  <circle cx="127.468" cy="67.6799" r="6.88562" stroke-width="0.5" stroke="black" fill="grey"/>
  <circle cx="127.468" cy="67.6799" r="1.46882" stroke-width="0.5" stroke="grey" fill="grey"/>
   </g>
   <g id="cell359">
  <circle cx="109.712" cy="234.368" r="6.20986" stroke-width="0.5" stroke="black" fill="grey"/>
   </g>
   <g id="cell375">
  <circle cx="130.835" cy="182.482" r="6.04362" stroke-width="0.5" stroke="black" fill="grey"/>
   </g>
   <g id="cell396">
  <circle cx="247.469" cy="177.093" r="8.05588" stroke-width="0.5" stroke="black" fill="grey"/>
  <circle cx="247.469" cy="177.093" r="4.43202" stroke-width="0.5" stroke="grey" fill="grey"/>
   </g>
   <g id="cell397">
  <circle cx="194.213" cy="227.477" r="7.01529" stroke-width="0.5" stroke="black" fill="grey"/>
  <circle cx="194.213" cy="227.477" r="1.98996" stroke-width="0.5" stroke="grey" fill="grey"/>
   </g>
   <g id="cell423">
  <circle cx="118.988" cy="249.364" r="8.09777" stroke-width="0.5" stroke="black" fill="grey"/>
  <circle cx="118.988" cy="249.364" r="4.50771" stroke-width="0.5" stroke="grey" fill="grey"/>
   </g>
   <g id="cell464">
  <circle cx="129.779" cy="148.493" r="8.18547" stroke-width="0.5" stroke="black" fill="grey"/>
  <circle cx="129.779" cy="148.493" r="4.66343" stroke-width="0.5" stroke="grey" fill="grey"/>
   </g>
   <g id="cell481">
  <circle cx="246.44" cy="202.348" r="4.59042" stroke-width="0.5" stroke="black" fill="grey"/>
   </g>
   <g id="cell513">
  <circle cx="264.804" cy="224.357" r="7.65673" stroke-width="0.5" stroke="black" fill="red"/>
  <circle cx="264.804" cy="224.357" r="3.65667" stroke-width="0.5" stroke="red" fill="red"/>
   </g>
   <g id="cell543">
  <circle cx="319.59" cy="123.691" r="7.96186" stroke-width="0.5" stroke="black" fill="red"/>
  <circle cx="319.59" cy="123.691" r="4.25875" stroke-width="0.5" stroke="red" fill="red"/>
   </g>
   <g id="cell559">
  <circle cx="236.619" cy="213.896" r="7.78543" stroke-width="0.5" stroke="black" fill="red"/>
  <circle cx="236.619" cy="213.896" r="3.919" stroke-width="0.5" stroke="red" fill="red"/>
   </g>
   <g id="cell597">
  <circle cx="290.419" cy="257.263" r="7.65062" stroke-width="0.5" stroke="black" fill="red"/>
  <circle cx="290.419" cy="257.263" r="3.64386" stroke-width="0.5" stroke="red" fill="red"/>
   </g>
   <g id="cell603">
  <circle cx="317.694" cy="211.25" r="7.53869" stroke-width="0.5" stroke="black" fill="red"/>
  <circle cx="317.694" cy="211.25" r="3.40258" stroke-width="0.5" stroke="red" fill="red"/>
   </g>
   <g id="cell606">
  <circle cx="332.958" cy="212.968" r="7.99353" stroke-width="0.5" stroke="black" fill="red"/>
  <circle cx="332.958" cy="212.968" r="4.31766" stroke-width="0.5" stroke="red" fill="red"/>
   </g>
   <g id="cell625">
  <circle cx="230.226" cy="175.393" r="3.52565" stroke-width="0.5" stroke="black" fill="red"/>
   </g>
   <g id="cell626">
  <circle cx="225.459" cy="190.289" r="8.27509" stroke-width="0.5" stroke="black" fill="red"/>
  <circle cx="225.459" cy="190.289" r="4.819" stroke-width="0.5" stroke="red" fill="red"/>
   </g>
   <g id="cell627">
  <circle cx="229.468" cy="310.864" r="8.1864" stroke-width="0.5" stroke="black" fill="red"/>
  <circle cx="229.468" cy="310.864" r="4.66506" stroke-width="0.5" stroke="red" fill="red"/>
   </g>
   <g id="cell633">
  <circle cx="250.687" cy="260.856" r="8.40005" stroke-width="0.5" stroke="black" fill="red"/>
  <circle cx="250.687" cy="260.856" r="5.03056" stroke-width="0.5" stroke="red" fill="red"/>
   </g>
   <g id="cell636">
  <circle cx="262.158" cy="94.3391" r="5.96302" stroke-width="0.5" stroke="black" fill="red"/>
   </g>
   <g id="cell646">
  <circle cx="308.974" cy="186.142" r="7.57218" stroke-width="0.5" stroke="black" fill="red"/>
  <circle cx="308.974" cy="186.142" r="3.47615" stroke-width="0.5" stroke="red" fill="red"/>
   </g>
   <g id="cell648">
  <circle cx="299.586" cy="216.576" r="7.80413" stroke-width="0.5" stroke="black" fill="red"/>
  <circle cx="299.586" cy="216.576" r="3.95603" stroke-width="0.5" stroke="red" fill="red"/>
   </g>
   <g id="cell649">
  <circle cx="295.347" cy="176.4" r="6.46386" stroke-width="0.5" stroke="black" fill="red"/>
   </g>
   <g id="cell669">
  <circle cx="367.704" cy="108.584" r="7.95285" stroke-width="0.5" stroke="black" fill="red"/>
  <circle cx="367.704" cy="108.584" r="4.24188" stroke-width="0.5" stroke="red" fill="red"/>
   </g>
   <g id="cell675">
  <circle cx="371.709" cy="269.717" r="7.31716" stroke-width="0.5" stroke="black" fill="red"/>
  <circle cx="371.709" cy="269.717" r="2.87863" stroke-width="0.5" stroke="red" fill="red"/>
   </g>
   <g id="cell678">
  <circle cx="304.411" cy="155.011" r="7.7644" stroke-width="0.5" stroke="black" fill="red"/>
  <circle cx="304.411" cy="155.011" r="3.87707" stroke-width="0.5" stroke="red" fill="red"/>
   </g>
   <g id="cell683">
  <circle cx="372.044" cy="175.336" r="6.43046" stroke-width="0.5" stroke="black" fill="red"/>
   </g>
   <g id="cell687">
  <circle cx="201.614" cy="121.655" r="8.39344" stroke-width="0.5" stroke="black" fill="red"/>
  <circle cx="201.614" cy="121.655" r="5.01951" stroke-width="0.5" stroke="red" fill="red"/>
   </g>
   <g id="cell688">
  <circle cx="186.706" cy="175.437" r="7.99828" stroke-width="0.5" stroke="black" fill="red"/>
  <circle cx="186.706" cy="175.437" r="4.32645" stroke-width="0.5" stroke="red" fill="red"/>
   </g>
   <g id="cell704">
  <circle cx="207.522" cy="229.677" r="8.22035" stroke-width="0.5" stroke="black" fill="red"/>
  <circle cx="207.522" cy="229.677" r="4.72439" stroke-width="0.5" stroke="red" fill="red"/>
   </g>
   <g id="cell705">
  <circle cx="263.589" cy="209.107" r="8.41091" stroke-width="0.5" stroke="black" fill="red"/>
  <circle cx="263.589" cy="209.107" r="5.04867" stroke-width="0.5" stroke="red" fill="red"/>
   </g>
   <g id="cell706">
  <circle cx="173.189" cy="230.196" r="4.68619" stroke-width="0.5" stroke="black" fill="red"/>
   </g>
   <g id="cell709">
  <circle cx="190.096" cy="111.218" r="6.01376" stroke-width="0.5" stroke="black" fill="red"/>
   </g>
   <g id="cell760">
  <circle cx="200.518" cy="275.409" r="8.36418" stroke-width="0.5" stroke="black" fill="red"/>
  <circle cx="200.518" cy="275.409" r="4.97043" stroke-width="0.5" stroke="red" fill="red"/>
   </g>
   <g id="cell769">
  <circle cx="267.698" cy="193.135" r="6.00162" stroke-width="0.5" stroke="black" fill="red"/>
   </g>
   <g id="cell777">
  <circle cx="288.389" cy="229.196" r="8.28134" stroke-width="0.5" stroke="black" fill="red"/>
  <circle cx="288.389" cy="229.196" r="4.82972" stroke-width="0.5" stroke="red" fill="red"/>
   </g>
   <g id="cell786">
  <circle cx="250.837" cy="217.274" r="6.53922" stroke-width="0.5" stroke="black" fill="red"/>
   </g>
   <g id="cell787">
  <circle cx="277.314" cy="157.516" r="7.91209" stroke-width="0.5" stroke="black" fill="red"/>
  <circle cx="277.314" cy="157.516" r="4.16495" stroke-width="0.5" stroke="red" fill="red"/>
   </g>
   <g id="cell837">
  <circle cx="245.838" cy="151.908" r="8.39033" stroke-width="0.5" stroke="black" fill="red"/>
  <circle cx="245.838" cy="151.908" r="5.01431" stroke-width="0.5" stroke="red" fill="red"/>
   </g>
   <g id="cell845">
  <circle cx="243.154" cy="121.468" r="3.15323" stroke-width="0.5" stroke="black" fill="red"/>
   </g>
   <g id="cell860">
  <circle cx="271.824" cy="240.108" r="7.12007" stroke-width="0.5" stroke="black" fill="red"/>
  <circle cx="271.824" cy="240.108" r="2.33262" stroke-width="0.5" stroke="red" fill="red"/>
   </g>
   <g id="cell867">
  <circle cx="279.292" cy="279.371" r="2.95182" stroke-width="0.5" stroke="black" fill="red"/>
   </g>
   <g id="cell872">
  <circle cx="331.394" cy="141.009" r="7.90259" stroke-width="0.5" stroke="black" fill="red"/>
  <circle cx="331.394" cy="141.009" r="4.14689" stroke-width="0.5" stroke="red" fill="red"/>
   </g>
   <g id="cell894">
  <circle cx="216.606" cy="117.669" r="7.97918" stroke-width="0.5" stroke="black" fill="red"/>
  <circle cx="216.606" cy="117.669" r="4.29105" stroke-width="0.5" stroke="red" fill="red"/>
   </g>
   <g id="cell898">
  <circle cx="227.759" cy="156.303" r="3.58222" stroke-width="0.5" stroke="black" fill="red"/>
   </g>
   <g id="cell931">
  <circle cx="383.919" cy="164.442" r="6.0398" stroke-width="0.5" stroke="black" fill="red"/>
   </g>
   <g id="cell935">
  <circle cx="303.987" cy="274.177" r="7.03552" stroke-width="0.5" stroke="black" fill="red"/>
  <circle cx="303.987" cy="274.177" r="2.06013" stroke-width="0.5" stroke="red" fill="red"/>
   </g>
  </g>
 </g>
  <rect x="190" y="414" width="200" height="4" stroke-width="0.8" stroke="rgb(255,255,255)" fill="rgb(0,0,0)"/>
  <text x="192.5" y="411.5"
   font-family="Arial" font-size="10" fill="black" >
   200 &#956;m
  </text>
  <text x="10" y="418"
   font-family="Arial" font-size="7.5" fill="black" >
   0 days, 0 hours, 14 minutes, and 23.9906 seconds
  </text>
  <rect x="0" y="28" width="400" height="400" stroke-width="0.8" stroke="rgb(0,0,0)" fill="none"/>
</svg>
