<?xml version="1.0" encoding="UTF-8" standalone="no"?>
<!-- Created with PhysiCell (http://PhysiCell.MathCancer.org/) -->
<svg 
 xmlns:dc="http://purl.org/dc/elements/1.1/" 
 xmlns:cc="http://creativecommons.org/ns#" 
 xmlns:rdf="http://www.w3.org/1999/02/22-rdf-syntax-ns#" 
 xmlns:svg="http://www.w3.org/2000/svg" 
 xmlns="http://www.w3.org/2000/svg" 
 version="1.1" 
 width="400" 
 height="428" 
 id="svg2">
  <rect x="0" y="0" width="400" height="428" stroke-width="0.8" stroke="white" fill="white"/>
  <text x="5" y="12"
   font-family="Arial" font-size="10" fill="black" >
   Current time: 3 days, 23 hours, and 0.00 minutes, z = 0.00 &#956;m
  </text>
  <text x="5" y="23"
   font-family="Arial" font-size="9.5" fill="black" >
   978 agents
  </text>
 <g id="tissue" 
    transform="translate(0,428) scale(1,-1)">
  <g id="ECM">
  </g>
  <g id="cells">
   <g id="cell1">
  <circle cx="31.3101" cy="225.923" r="4.52629" stroke-width="0.5" stroke="black" fill="grey"/>
   </g>
   <g id="cell4">
  <circle cx="119.743" cy="244.765" r="4.79332" stroke-width="0.5" stroke="black" fill="grey"/>
   </g>
   <g id="cell30">
  <circle cx="101.187" cy="291.457" r="6.82267" stroke-width="0.5" stroke="black" fill="grey"/>
  <circle cx="101.187" cy="291.457" r="1.13776" stroke-width="0.5" stroke="grey" fill="grey"/>
   </g>
   <g id="cell35">
  <circle cx="224.871" cy="166.142" r="6.78748" stroke-width="0.5" stroke="black" fill="grey"/>
  <circle cx="224.871" cy="166.142" r="0.903063" stroke-width="0.5" stroke="grey" fill="grey"/>
   </g>
   <g id="cell39">
  <circle cx="47.8069" cy="192.66" r="8.35089" stroke-width="0.5" stroke="black" fill="grey"/>
  <circle cx="47.8069" cy="192.66" r="4.94804" stroke-width="0.5" stroke="grey" fill="grey"/>
   </g>
   <g id="cell59">
  <circle cx="60.6518" cy="203.206" r="7.66424" stroke-width="0.5" stroke="black" fill="grey"/>
  <circle cx="60.6518" cy="203.206" r="3.67235" stroke-width="0.5" stroke="grey" fill="grey"/>
   </g>
   <g id="cell81">
  <circle cx="106.176" cy="70.7166" r="8.38881" stroke-width="0.5" stroke="black" fill="grey"/>
  <circle cx="106.176" cy="70.7166" r="5.01178" stroke-width="0.5" stroke="grey" fill="grey"/>
   </g>
   <g id="cell82">
  <circle cx="167.114" cy="239.536" r="5.40463" stroke-width="0.5" stroke="black" fill="grey"/>
   </g>
   <g id="cell105">
  <circle cx="103.624" cy="103.963" r="8.39417" stroke-width="0.5" stroke="black" fill="grey"/>
  <circle cx="103.624" cy="103.963" r="5.02074" stroke-width="0.5" stroke="grey" fill="grey"/>
   </g>
   <g id="cell124">
  <circle cx="165.832" cy="255.185" r="6.71684" stroke-width="0.5" stroke="black" fill="grey"/>
   </g>
   <g id="cell125">
  <circle cx="128.765" cy="45.4354" r="8.28683" stroke-width="0.5" stroke="black" fill="grey"/>
  <circle cx="128.765" cy="45.4354" r="4.83914" stroke-width="0.5" stroke="grey" fill="grey"/>
   </g>
   <g id="cell165">
  <circle cx="156.333" cy="158.29" r="1.68602" stroke-width="0.5" stroke="black" fill="grey"/>
   </g>
   <g id="cell166">
  <circle cx="172.734" cy="114.904" r="3.07384" stroke-width="0.5" stroke="black" fill="grey"/>
   </g>
   <g id="cell174">
  <circle cx="137.948" cy="248.155" r="5.85782" stroke-width="0.5" stroke="black" fill="grey"/>
   </g>
   <g id="cell190">
  <circle cx="214.948" cy="85.0074" r="2.34992" stroke-width="0.5" stroke="black" fill="grey"/>
   </g>
   <g id="cell195">
  <circle cx="68.7919" cy="133.949" r="7.79999" stroke-width="0.5" stroke="black" fill="grey"/>
  <circle cx="68.7919" cy="133.949" r="3.94786" stroke-width="0.5" stroke="grey" fill="grey"/>
   </g>
   <g id="cell205">
  <circle cx="22.5334" cy="163.369" r="8.24003" stroke-width="0.5" stroke="black" fill="grey"/>
  <circle cx="22.5334" cy="163.369" r="4.75854" stroke-width="0.5" stroke="grey" fill="grey"/>
   </g>
   <g id="cell246">
  <circle cx="133.947" cy="14.7713" r="6.35516" stroke-width="0.5" stroke="black" fill="grey"/>
   </g>
   <g id="cell251">
  <circle cx="42.4095" cy="351.762" r="1.30246" stroke-width="0.5" stroke="black" fill="grey"/>
   </g>
   <g id="cell288">
  <circle cx="134.624" cy="106.561" r="6.52935" stroke-width="0.5" stroke="black" fill="grey"/>
   </g>
   <g id="cell289">
  <circle cx="88.6244" cy="182.716" r="8.30437" stroke-width="0.5" stroke="black" fill="grey"/>
  <circle cx="88.6244" cy="182.716" r="4.86911" stroke-width="0.5" stroke="grey" fill="grey"/>
   </g>
   <g id="cell297">
  <circle cx="134.255" cy="174.024" r="8.36925" stroke-width="0.5" stroke="black" fill="grey"/>
  <circle cx="134.255" cy="174.024" r="4.97896" stroke-width="0.5" stroke="grey" fill="grey"/>
   </g>
   <g id="cell302">
  <circle cx="97.2615" cy="247.351" r="4.29173" stroke-width="0.5" stroke="black" fill="grey"/>
   </g>
   <g id="cell312">
  <circle cx="208.059" cy="172.853" r="6.24281" stroke-width="0.5" stroke="black" fill="grey"/>
   </g>
   <g id="cell314">
  <circle cx="191.452" cy="249.943" r="8.38035" stroke-width="0.5" stroke="black" fill="grey"/>
  <circle cx="191.452" cy="249.943" r="4.9976" stroke-width="0.5" stroke="grey" fill="grey"/>
   </g>
   <g id="cell339">
  <circle cx="110.658" cy="297.67" r="6.72022" stroke-width="0.5" stroke="black" fill="grey"/>
   </g>
   <g id="cell359">
  <circle cx="153.245" cy="274.74" r="6.40762" stroke-width="0.5" stroke="black" fill="grey"/>
   </g>
   <g id="cell365">
  <circle cx="142.624" cy="89.6443" r="7.91541" stroke-width="0.5" stroke="black" fill="grey"/>
  <circle cx="142.624" cy="89.6443" r="4.17126" stroke-width="0.5" stroke="grey" fill="grey"/>
   </g>
   <g id="cell382">
  <circle cx="144.776" cy="193.361" r="7.88217" stroke-width="0.5" stroke="black" fill="grey"/>
  <circle cx="144.776" cy="193.361" r="4.10784" stroke-width="0.5" stroke="grey" fill="grey"/>
   </g>
   <g id="cell388">
  <circle cx="230.848" cy="94.2552" r="4.51202" stroke-width="0.5" stroke="black" fill="grey"/>
   </g>
   <g id="cell396">
  <circle cx="254.213" cy="124.038" r="2.07316" stroke-width="0.5" stroke="black" fill="grey"/>
   </g>
   <g id="cell397">
  <circle cx="147.451" cy="284.883" r="5.21926" stroke-width="0.5" stroke="black" fill="grey"/>
   </g>
   <g id="cell402">
  <circle cx="13.0568" cy="276.87" r="1.54917" stroke-width="0.5" stroke="black" fill="grey"/>
   </g>
   <g id="cell423">
  <circle cx="83.2014" cy="213.68" r="4.82929" stroke-width="0.5" stroke="black" fill="grey"/>
   </g>
   <g id="cell468">
  <circle cx="33.8067" cy="280.697" r="7.50144" stroke-width="0.5" stroke="black" fill="grey"/>
  <circle cx="33.8067" cy="280.697" r="3.31922" stroke-width="0.5" stroke="grey" fill="grey"/>
   </g>
   <g id="cell479">
  <circle cx="202.487" cy="184.815" r="6.57604" stroke-width="0.5" stroke="black" fill="grey"/>
   </g>
   <g id="cell486">
  <circle cx="117.79" cy="233.431" r="6.11662" stroke-width="0.5" stroke="black" fill="grey"/>
   </g>
   <g id="cell497">
  <circle cx="340.527" cy="194.764" r="5.6332" stroke-width="0.5" stroke="black" fill="red"/>
   </g>
   <g id="cell537">
  <circle cx="343.17" cy="120.572" r="8.40587" stroke-width="0.5" stroke="black" fill="red"/>
  <circle cx="343.17" cy="120.572" r="5.04027" stroke-width="0.5" stroke="red" fill="red"/>
   </g>
   <g id="cell542">
  <circle cx="292.873" cy="331.065" r="7.94645" stroke-width="0.5" stroke="black" fill="red"/>
  <circle cx="292.873" cy="331.065" r="4.22987" stroke-width="0.5" stroke="red" fill="red"/>
   </g>
   <g id="cell601">
  <circle cx="362.327" cy="144.971" r="6.86585" stroke-width="0.5" stroke="black" fill="red"/>
  <circle cx="362.327" cy="144.971" r="1.37314" stroke-width="0.5" stroke="red" fill="red"/>
   </g>
   <g id="cell605">
  <circle cx="361.805" cy="220.829" r="8.05792" stroke-width="0.5" stroke="black" fill="red"/>
  <circle cx="361.805" cy="220.829" r="4.43574" stroke-width="0.5" stroke="red" fill="red"/>
   </g>
   <g id="cell633">
  <circle cx="250.108" cy="286.96" r="7.13626" stroke-width="0.5" stroke="black" fill="red"/>
  <circle cx="250.108" cy="286.96" r="2.38157" stroke-width="0.5" stroke="red" fill="red"/>
   </g>
   <g id="cell650">
  <circle cx="266.369" cy="263.336" r="4.76752" stroke-width="0.5" stroke="black" fill="red"/>
   </g>
   <g id="cell652">
  <circle cx="242.108" cy="275.528" r="8.01231" stroke-width="0.5" stroke="black" fill="red"/>
  <circle cx="242.108" cy="275.528" r="4.35234" stroke-width="0.5" stroke="red" fill="red"/>
   </g>
   <g id="cell657">
  <circle cx="333.786" cy="129.913" r="7.6452" stroke-width="0.5" stroke="black" fill="red"/>
  <circle cx="333.786" cy="129.913" r="3.63245" stroke-width="0.5" stroke="red" fill="red"/>
   </g>
   <g id="cell671">
  <circle cx="354.903" cy="251.763" r="6.52596" stroke-width="0.5" stroke="black" fill="red"/>
   </g>
   <g id="cell699">
  <circle cx="247.413" cy="252.812" r="5.32689" stroke-width="0.5" stroke="black" fill="red"/>
   </g>
   <g id="cell708">
  <circle cx="316.269" cy="187.789" r="6.55557" stroke-width="0.5" stroke="black" fill="red"/>
   </g>
   <g id="cell739">
  <circle cx="338.464" cy="237.013" r="8.13791" stroke-width="0.5" stroke="black" fill="red"/>
  <circle cx="338.464" cy="237.013" r="4.57943" stroke-width="0.5" stroke="red" fill="red"/>
   </g>
   <g id="cell742">
  <circle cx="326.506" cy="74.2874" r="7.97427" stroke-width="0.5" stroke="black" fill="red"/>
  <circle cx="326.506" cy="74.2874" r="4.28189" stroke-width="0.5" stroke="red" fill="red"/>
   </g>
   <g id="cell743">
  <circle cx="388.998" cy="209.347" r="8.3459" stroke-width="0.5" stroke="black" fill="red"/>
  <circle cx="388.998" cy="209.347" r="4.93961" stroke-width="0.5" stroke="red" fill="red"/>
   </g>
   <g id="cell744">
  <circle cx="270.427" cy="137.553" r="7.61977" stroke-width="0.5" stroke="black" fill="red"/>
  <circle cx="270.427" cy="137.553" r="3.57862" stroke-width="0.5" stroke="red" fill="red"/>
   </g>
   <g id="cell757">
  <circle cx="233.687" cy="193.841" r="7.00384" stroke-width="0.5" stroke="black" fill="red"/>
  <circle cx="233.687" cy="193.841" r="1.94922" stroke-width="0.5" stroke="red" fill="red"/>
   </g>
   <g id="cell766">
  <circle cx="267.116" cy="289.056" r="5.38263" stroke-width="0.5" stroke="black" fill="red"/>
   </g>
   <g id="cell767">
  <circle cx="235.086" cy="109.09" r="6.72214" stroke-width="0.5" stroke="black" fill="red"/>
   </g>
   <g id="cell792">
  <circle cx="288.994" cy="89.898" r="7.97587" stroke-width="0.5" stroke="black" fill="red"/>
  <circle cx="288.994" cy="89.898" r="4.28488" stroke-width="0.5" stroke="red" fill="red"/>
   </g>
   <g id="cell836">
  <circle cx="274.908" cy="41.4727" r="6.74423" stroke-width="0.5" stroke="black" fill="red"/>
  <circle cx="274.908" cy="41.4727" r="0.479903" stroke-width="0.5" stroke="red" fill="red"/>
   </g>
   <g id="cell840">
  <circle cx="214.237" cy="155.049" r="8.08168" stroke-width="0.5" stroke="black" fill="red"/>
  <circle cx="214.237" cy="155.049" r="4.47876" stroke-width="0.5" stroke="red" fill="red"/>
   </g>
   <g id="cell845">
  <circle cx="267.512" cy="43.2629" r="2.24033" stroke-width="0.5" stroke="black" fill="red"/>
   </g>
   <g id="cell875">
  <circle cx="350.534" cy="257.608" r="6.72414" stroke-width="0.5" stroke="black" fill="red"/>
   </g>
   <g id="cell889">
  <circle cx="297.071" cy="163.959" r="7.54564" stroke-width="0.5" stroke="black" fill="red"/>
  <circle cx="297.071" cy="163.959" r="3.41795" stroke-width="0.5" stroke="red" fill="red"/>
   </g>
   <g id="cell894">
  <circle cx="191.304" cy="67.0671" r="2.10732" stroke-width="0.5" stroke="black" fill="red"/>
   </g>
   <g id="cell920">
  <circle cx="276.496" cy="201.86" r="6.86435" stroke-width="0.5" stroke="black" fill="red"/>
  <circle cx="276.496" cy="201.86" r="1.36564" stroke-width="0.5" stroke="red" fill="red"/>
   </g>
   <g id="cell935">
  <circle cx="330.621" cy="326.309" r="6.61804" stroke-width="0.5" stroke="black" fill="red"/>
   </g>
   <g id="cell945">
  <circle cx="193.563" cy="108.051" r="5.08872" stroke-width="0.5" stroke="black" fill="red"/>
   </g>
   <g id="cell971">
  <circle cx="256.958" cy="179.639" r="7.87886" stroke-width="0.5" stroke="black" fill="red"/>
  <circle cx="256.958" cy="179.639" r="4.10148" stroke-width="0.5" stroke="red" fill="red"/>
   </g>
  </g>
 </g>
  <rect x="190" y="414" width="200" height="4" stroke-width="0.8" stroke="rgb(255,255,255)" fill="rgb(0,0,0)"/>
  <text x="192.5" y="411.5"
   font-family="Arial" font-size="10" fill="black" >
   200 &#956;m
  </text>
  <text x="10" y="418"
   font-family="Arial" font-size="7.5" fill="black" >
   0 days, 0 hours, 25 minutes, and 30.2279 seconds
  </text>
  <rect x="0" y="28" width="400" height="400" stroke-width="0.8" stroke="rgb(0,0,0)" fill="none"/>
</svg>
