<?xml version="1.0" encoding="UTF-8" standalone="no"?>
<!-- Created with PhysiCell (http://PhysiCell.MathCancer.org/) -->
<svg 
 xmlns:dc="http://purl.org/dc/elements/1.1/" 
 xmlns:cc="http://creativecommons.org/ns#" 
 xmlns:rdf="http://www.w3.org/1999/02/22-rdf-syntax-ns#" 
 xmlns:svg="http://www.w3.org/2000/svg" 
 xmlns="http://www.w3.org/2000/svg" 
 version="1.1" 
 width="400" 
 height="428" 
 id="svg2">
  <rect x="0" y="0" width="400" height="428" stroke-width="0.8" stroke="white" fill="white"/>
  <text x="5" y="12"
   font-family="Arial" font-size="10" fill="black" >
   Current time: 2 days, 10 hours, and 0.00 minutes, z = 0.00 &#956;m
  </text>
  <text x="5" y="23"
   font-family="Arial" font-size="9.5" fill="black" >
   978 agents
  </text>
 <g id="tissue" 
    transform="translate(0,428) scale(1,-1)">
  <g id="ECM">
  </g>
  <g id="cells">
   <g id="cell4">
  <circle cx="113.953" cy="240.782" r="8.24789" stroke-width="0.5" stroke="black" fill="grey"/>
  <circle cx="113.953" cy="240.782" r="4.77215" stroke-width="0.5" stroke="grey" fill="grey"/>
   </g>
   <g id="cell21">
  <circle cx="173.836" cy="129.286" r="5.20684" stroke-width="0.5" stroke="black" fill="grey"/>
   </g>
   <g id="cell36">
  <circle cx="34.3925" cy="190.234" r="4.65991" stroke-width="0.5" stroke="black" fill="grey"/>
   </g>
   <g id="cell63">
  <circle cx="179.275" cy="236.292" r="6.8033" stroke-width="0.5" stroke="black" fill="grey"/>
  <circle cx="179.275" cy="236.292" r="1.01519" stroke-width="0.5" stroke="grey" fill="grey"/>
   </g>
   <g id="cell81">
  <circle cx="95.7859" cy="97.8423" r="7.83581" stroke-width="0.5" stroke="black" fill="grey"/>
  <circle cx="95.7859" cy="97.8423" r="4.01815" stroke-width="0.5" stroke="grey" fill="grey"/>
   </g>
   <g id="cell88">
  <circle cx="132.666" cy="72.4151" r="6.84906" stroke-width="0.5" stroke="black" fill="grey"/>
  <circle cx="132.666" cy="72.4151" r="1.28658" stroke-width="0.5" stroke="grey" fill="grey"/>
   </g>
   <g id="cell90">
  <circle cx="102.45" cy="200.376" r="8.3842" stroke-width="0.5" stroke="black" fill="grey"/>
  <circle cx="102.45" cy="200.376" r="5.00404" stroke-width="0.5" stroke="grey" fill="grey"/>
   </g>
   <g id="cell93">
  <circle cx="57.0107" cy="283.064" r="7.98569" stroke-width="0.5" stroke="black" fill="grey"/>
  <circle cx="57.0107" cy="283.064" r="4.30313" stroke-width="0.5" stroke="grey" fill="grey"/>
   </g>
   <g id="cell124">
  <circle cx="139.467" cy="285.13" r="7.84816" stroke-width="0.5" stroke="black" fill="grey"/>
  <circle cx="139.467" cy="285.13" r="4.04219" stroke-width="0.5" stroke="grey" fill="grey"/>
   </g>
   <g id="cell125">
  <circle cx="154.29" cy="91.4665" r="2.34697" stroke-width="0.5" stroke="black" fill="grey"/>
   </g>
   <g id="cell135">
  <circle cx="67.069" cy="217.05" r="6.6838" stroke-width="0.5" stroke="black" fill="grey"/>
   </g>
   <g id="cell147">
  <circle cx="79.7543" cy="123.552" r="7.82632" stroke-width="0.5" stroke="black" fill="grey"/>
  <circle cx="79.7543" cy="123.552" r="3.99963" stroke-width="0.5" stroke="grey" fill="grey"/>
   </g>
   <g id="cell164">
  <circle cx="122.221" cy="166.402" r="8.32695" stroke-width="0.5" stroke="black" fill="grey"/>
  <circle cx="122.221" cy="166.402" r="4.90752" stroke-width="0.5" stroke="grey" fill="grey"/>
   </g>
   <g id="cell168">
  <circle cx="120.538" cy="257.833" r="4.97419" stroke-width="0.5" stroke="black" fill="grey"/>
   </g>
   <g id="cell173">
  <circle cx="116.025" cy="92.029" r="8.01071" stroke-width="0.5" stroke="black" fill="grey"/>
  <circle cx="116.025" cy="92.029" r="4.34939" stroke-width="0.5" stroke="grey" fill="grey"/>
   </g>
   <g id="cell182">
  <circle cx="166.518" cy="155.804" r="3.90156" stroke-width="0.5" stroke="black" fill="grey"/>
   </g>
   <g id="cell190">
  <circle cx="202.15" cy="105.527" r="8.1476" stroke-width="0.5" stroke="black" fill="grey"/>
  <circle cx="202.15" cy="105.527" r="4.59664" stroke-width="0.5" stroke="grey" fill="grey"/>
   </g>
   <g id="cell195">
  <circle cx="51.219" cy="167.106" r="8.35334" stroke-width="0.5" stroke="black" fill="grey"/>
  <circle cx="51.219" cy="167.106" r="4.95218" stroke-width="0.5" stroke="grey" fill="grey"/>
   </g>
   <g id="cell196">
  <circle cx="57.2697" cy="232.572" r="8.39331" stroke-width="0.5" stroke="black" fill="grey"/>
  <circle cx="57.2697" cy="232.572" r="5.0193" stroke-width="0.5" stroke="grey" fill="grey"/>
   </g>
   <g id="cell197">
  <circle cx="95.2921" cy="279.102" r="8.34789" stroke-width="0.5" stroke="black" fill="grey"/>
  <circle cx="95.2921" cy="279.102" r="4.94297" stroke-width="0.5" stroke="grey" fill="grey"/>
   </g>
   <g id="cell199">
  <circle cx="36.0782" cy="169.36" r="8.0674" stroke-width="0.5" stroke="black" fill="grey"/>
  <circle cx="36.0782" cy="169.36" r="4.45294" stroke-width="0.5" stroke="grey" fill="grey"/>
   </g>
   <g id="cell201">
  <circle cx="38.9262" cy="236.042" r="2.47567" stroke-width="0.5" stroke="black" fill="grey"/>
   </g>
   <g id="cell204">
  <circle cx="55.4614" cy="147.828" r="8.35117" stroke-width="0.5" stroke="black" fill="grey"/>
  <circle cx="55.4614" cy="147.828" r="4.94851" stroke-width="0.5" stroke="grey" fill="grey"/>
   </g>
   <g id="cell217">
  <circle cx="105.203" cy="217.687" r="7.99038" stroke-width="0.5" stroke="black" fill="grey"/>
  <circle cx="105.203" cy="217.687" r="4.31182" stroke-width="0.5" stroke="grey" fill="grey"/>
   </g>
   <g id="cell221">
  <circle cx="118.3" cy="116.962" r="8.10151" stroke-width="0.5" stroke="black" fill="grey"/>
  <circle cx="118.3" cy="116.962" r="4.51443" stroke-width="0.5" stroke="grey" fill="grey"/>
   </g>
   <g id="cell223">
  <circle cx="140.586" cy="206.94" r="4.15234" stroke-width="0.5" stroke="black" fill="grey"/>
   </g>
   <g id="cell226">
  <circle cx="109.729" cy="314.504" r="6.22099" stroke-width="0.5" stroke="black" fill="grey"/>
   </g>
   <g id="cell231">
  <circle cx="130.737" cy="192.24" r="8.25578" stroke-width="0.5" stroke="black" fill="grey"/>
  <circle cx="130.737" cy="192.24" r="4.78576" stroke-width="0.5" stroke="grey" fill="grey"/>
   </g>
   <g id="cell232">
  <circle cx="119.345" cy="203.152" r="8.40962" stroke-width="0.5" stroke="black" fill="grey"/>
  <circle cx="119.345" cy="203.152" r="5.04652" stroke-width="0.5" stroke="grey" fill="grey"/>
   </g>
   <g id="cell242">
  <circle cx="53.3476" cy="212.957" r="3.11798" stroke-width="0.5" stroke="black" fill="grey"/>
   </g>
   <g id="cell243">
  <circle cx="184.109" cy="281.259" r="5.03445" stroke-width="0.5" stroke="black" fill="grey"/>
   </g>
   <g id="cell250">
  <circle cx="161.236" cy="264.121" r="7.93431" stroke-width="0.5" stroke="black" fill="grey"/>
  <circle cx="161.236" cy="264.121" r="4.20701" stroke-width="0.5" stroke="grey" fill="grey"/>
   </g>
   <g id="cell255">
  <circle cx="162.93" cy="117.951" r="7.86474" stroke-width="0.5" stroke="black" fill="grey"/>
  <circle cx="162.93" cy="117.951" r="4.07429" stroke-width="0.5" stroke="grey" fill="grey"/>
   </g>
   <g id="cell259">
  <circle cx="219.033" cy="285.267" r="5.32302" stroke-width="0.5" stroke="black" fill="grey"/>
   </g>
   <g id="cell263">
  <circle cx="142.977" cy="304.712" r="7.65636" stroke-width="0.5" stroke="black" fill="grey"/>
  <circle cx="142.977" cy="304.712" r="3.65589" stroke-width="0.5" stroke="grey" fill="grey"/>
   </g>
   <g id="cell275">
  <circle cx="20.8084" cy="206.374" r="7.34633" stroke-width="0.5" stroke="black" fill="grey"/>
  <circle cx="20.8084" cy="206.374" r="2.95199" stroke-width="0.5" stroke="grey" fill="grey"/>
   </g>
   <g id="cell291">
  <circle cx="90.5638" cy="230.076" r="3.38039" stroke-width="0.5" stroke="black" fill="grey"/>
   </g>
   <g id="cell301">
  <circle cx="144.921" cy="264.692" r="7.94603" stroke-width="0.5" stroke="black" fill="grey"/>
  <circle cx="144.921" cy="264.692" r="4.22908" stroke-width="0.5" stroke="grey" fill="grey"/>
   </g>
   <g id="cell310">
  <circle cx="149.578" cy="325.538" r="5.73555" stroke-width="0.5" stroke="black" fill="grey"/>
   </g>
   <g id="cell346">
  <circle cx="80.4885" cy="297.109" r="7.67287" stroke-width="0.5" stroke="black" fill="grey"/>
  <circle cx="80.4885" cy="297.109" r="3.69035" stroke-width="0.5" stroke="grey" fill="grey"/>
   </g>
   <g id="cell397">
  <circle cx="187.573" cy="260.627" r="7.30324" stroke-width="0.5" stroke="black" fill="grey"/>
  <circle cx="187.573" cy="260.627" r="2.84306" stroke-width="0.5" stroke="grey" fill="grey"/>
   </g>
   <g id="cell408">
  <circle cx="28.855" cy="156.002" r="7.92118" stroke-width="0.5" stroke="black" fill="grey"/>
  <circle cx="28.855" cy="156.002" r="4.1822" stroke-width="0.5" stroke="grey" fill="grey"/>
   </g>
   <g id="cell438">
  <circle cx="170.008" cy="142.172" r="8.36751" stroke-width="0.5" stroke="black" fill="grey"/>
  <circle cx="170.008" cy="142.172" r="4.97603" stroke-width="0.5" stroke="grey" fill="grey"/>
   </g>
   <g id="cell455">
  <circle cx="103.815" cy="169.797" r="7.76269" stroke-width="0.5" stroke="black" fill="grey"/>
  <circle cx="103.815" cy="169.797" r="3.87364" stroke-width="0.5" stroke="grey" fill="grey"/>
   </g>
   <g id="cell477">
  <circle cx="128.784" cy="224.201" r="8.41269" stroke-width="0.5" stroke="black" fill="grey"/>
  <circle cx="128.784" cy="224.201" r="5.05164" stroke-width="0.5" stroke="grey" fill="grey"/>
   </g>
   <g id="cell481">
  <circle cx="263.048" cy="211.497" r="6.25145" stroke-width="0.5" stroke="black" fill="grey"/>
   </g>
   <g id="cell508">
  <circle cx="262.757" cy="194.273" r="7.40876" stroke-width="0.5" stroke="black" fill="red"/>
  <circle cx="262.757" cy="194.273" r="3.1041" stroke-width="0.5" stroke="red" fill="red"/>
   </g>
   <g id="cell511">
  <circle cx="279.864" cy="151.663" r="3.79201" stroke-width="0.5" stroke="black" fill="red"/>
   </g>
   <g id="cell536">
  <circle cx="191.782" cy="246.476" r="8.24115" stroke-width="0.5" stroke="black" fill="red"/>
  <circle cx="191.782" cy="246.476" r="4.76049" stroke-width="0.5" stroke="red" fill="red"/>
   </g>
   <g id="cell559">
  <circle cx="239.412" cy="247.507" r="8.19695" stroke-width="0.5" stroke="black" fill="red"/>
  <circle cx="239.412" cy="247.507" r="4.68355" stroke-width="0.5" stroke="red" fill="red"/>
   </g>
   <g id="cell569">
  <circle cx="292.441" cy="147.216" r="7.74337" stroke-width="0.5" stroke="black" fill="red"/>
  <circle cx="292.441" cy="147.216" r="3.83476" stroke-width="0.5" stroke="red" fill="red"/>
   </g>
   <g id="cell606">
  <circle cx="350.993" cy="223.212" r="5.0057" stroke-width="0.5" stroke="black" fill="red"/>
   </g>
   <g id="cell624">
  <circle cx="260.625" cy="178.376" r="7.36514" stroke-width="0.5" stroke="black" fill="red"/>
  <circle cx="260.625" cy="178.376" r="2.99848" stroke-width="0.5" stroke="red" fill="red"/>
   </g>
   <g id="cell626">
  <circle cx="215.438" cy="169.646" r="3.23489" stroke-width="0.5" stroke="black" fill="red"/>
   </g>
   <g id="cell627">
  <circle cx="231.627" cy="309.421" r="6.27239" stroke-width="0.5" stroke="black" fill="red"/>
   </g>
   <g id="cell647">
  <circle cx="320.04" cy="194.584" r="5.83621" stroke-width="0.5" stroke="black" fill="red"/>
   </g>
   <g id="cell651">
  <circle cx="254.656" cy="291.922" r="8.01251" stroke-width="0.5" stroke="black" fill="red"/>
  <circle cx="254.656" cy="291.922" r="4.3527" stroke-width="0.5" stroke="red" fill="red"/>
   </g>
   <g id="cell675">
  <circle cx="383.909" cy="277.465" r="8.15106" stroke-width="0.5" stroke="black" fill="red"/>
  <circle cx="383.909" cy="277.465" r="4.60276" stroke-width="0.5" stroke="red" fill="red"/>
   </g>
   <g id="cell681">
  <circle cx="363.764" cy="312.177" r="7.24186" stroke-width="0.5" stroke="black" fill="red"/>
  <circle cx="363.764" cy="312.177" r="2.68147" stroke-width="0.5" stroke="red" fill="red"/>
   </g>
   <g id="cell702">
  <circle cx="197.557" cy="204.704" r="8.40355" stroke-width="0.5" stroke="black" fill="red"/>
  <circle cx="197.557" cy="204.704" r="5.03641" stroke-width="0.5" stroke="red" fill="red"/>
   </g>
   <g id="cell714">
  <circle cx="286.381" cy="165.667" r="6.79275" stroke-width="0.5" stroke="black" fill="red"/>
  <circle cx="286.381" cy="165.667" r="0.941863" stroke-width="0.5" stroke="red" fill="red"/>
   </g>
   <g id="cell718">
  <circle cx="242.502" cy="163.314" r="7.50283" stroke-width="0.5" stroke="black" fill="red"/>
  <circle cx="242.502" cy="163.314" r="3.32236" stroke-width="0.5" stroke="red" fill="red"/>
   </g>
   <g id="cell725">
  <circle cx="310.264" cy="101.087" r="7.08988" stroke-width="0.5" stroke="black" fill="red"/>
  <circle cx="310.264" cy="101.087" r="2.23877" stroke-width="0.5" stroke="red" fill="red"/>
   </g>
   <g id="cell726">
  <circle cx="268.534" cy="77.3733" r="7.78416" stroke-width="0.5" stroke="black" fill="red"/>
  <circle cx="268.534" cy="77.3733" r="3.91647" stroke-width="0.5" stroke="red" fill="red"/>
   </g>
   <g id="cell743">
  <circle cx="387.898" cy="195.213" r="8.29832" stroke-width="0.5" stroke="black" fill="red"/>
  <circle cx="387.898" cy="195.213" r="4.85878" stroke-width="0.5" stroke="red" fill="red"/>
   </g>
   <g id="cell745">
  <circle cx="315.977" cy="117.763" r="2.73947" stroke-width="0.5" stroke="black" fill="red"/>
   </g>
   <g id="cell752">
  <circle cx="322.493" cy="281.234" r="7.06571" stroke-width="0.5" stroke="black" fill="red"/>
  <circle cx="322.493" cy="281.234" r="2.161" stroke-width="0.5" stroke="red" fill="red"/>
   </g>
   <g id="cell760">
  <circle cx="206.284" cy="273.406" r="4.93591" stroke-width="0.5" stroke="black" fill="red"/>
   </g>
   <g id="cell769">
  <circle cx="295.243" cy="200.609" r="7.63377" stroke-width="0.5" stroke="black" fill="red"/>
  <circle cx="295.243" cy="200.609" r="3.60835" stroke-width="0.5" stroke="red" fill="red"/>
   </g>
   <g id="cell780">
  <circle cx="251.634" cy="260.849" r="5.24577" stroke-width="0.5" stroke="black" fill="red"/>
   </g>
   <g id="cell783">
  <circle cx="314.068" cy="66.2247" r="7.89302" stroke-width="0.5" stroke="black" fill="red"/>
  <circle cx="314.068" cy="66.2247" r="4.12862" stroke-width="0.5" stroke="red" fill="red"/>
   </g>
   <g id="cell787">
  <circle cx="251.009" cy="204.277" r="3.62348" stroke-width="0.5" stroke="black" fill="red"/>
   </g>
   <g id="cell831">
  <circle cx="202.289" cy="186.696" r="7.83303" stroke-width="0.5" stroke="black" fill="red"/>
  <circle cx="202.289" cy="186.696" r="4.01274" stroke-width="0.5" stroke="red" fill="red"/>
   </g>
   <g id="cell841">
  <circle cx="235.706" cy="232.103" r="5.88252" stroke-width="0.5" stroke="black" fill="red"/>
   </g>
   <g id="cell849">
  <circle cx="216.265" cy="158.752" r="2.92127" stroke-width="0.5" stroke="black" fill="red"/>
   </g>
   <g id="cell852">
  <circle cx="290.18" cy="278.45" r="7.60695" stroke-width="0.5" stroke="black" fill="red"/>
  <circle cx="290.18" cy="278.45" r="3.55126" stroke-width="0.5" stroke="red" fill="red"/>
   </g>
   <g id="cell878">
  <circle cx="313.558" cy="213.769" r="8.34087" stroke-width="0.5" stroke="black" fill="red"/>
  <circle cx="313.558" cy="213.769" r="4.9311" stroke-width="0.5" stroke="red" fill="red"/>
   </g>
   <g id="cell898">
  <circle cx="245.945" cy="148.199" r="7.55935" stroke-width="0.5" stroke="black" fill="red"/>
  <circle cx="245.945" cy="148.199" r="3.4481" stroke-width="0.5" stroke="red" fill="red"/>
   </g>
   <g id="cell909">
  <circle cx="229.873" cy="134.922" r="8.41224" stroke-width="0.5" stroke="black" fill="red"/>
  <circle cx="229.873" cy="134.922" r="5.05089" stroke-width="0.5" stroke="red" fill="red"/>
   </g>
  </g>
 </g>
  <rect x="190" y="414" width="200" height="4" stroke-width="0.8" stroke="rgb(255,255,255)" fill="rgb(0,0,0)"/>
  <text x="192.5" y="411.5"
   font-family="Arial" font-size="10" fill="black" >
   200 &#956;m
  </text>
  <text x="10" y="418"
   font-family="Arial" font-size="7.5" fill="black" >
   0 days, 0 hours, 17 minutes, and 58.9351 seconds
  </text>
  <rect x="0" y="28" width="400" height="400" stroke-width="0.8" stroke="rgb(0,0,0)" fill="none"/>
</svg>
