<?xml version="1.0" encoding="UTF-8" standalone="no"?>
<!-- Created with PhysiCell (http://PhysiCell.MathCancer.org/) -->
<svg 
 xmlns:dc="http://purl.org/dc/elements/1.1/" 
 xmlns:cc="http://creativecommons.org/ns#" 
 xmlns:rdf="http://www.w3.org/1999/02/22-rdf-syntax-ns#" 
 xmlns:svg="http://www.w3.org/2000/svg" 
 xmlns="http://www.w3.org/2000/svg" 
 version="1.1" 
 width="400" 
 height="428" 
 id="svg2">
  <rect x="0" y="0" width="400" height="428" stroke-width="0.8" stroke="white" fill="white"/>
  <text x="5" y="12"
   font-family="Arial" font-size="10" fill="black" >
   Current time: 0 days, 17 hours, and 0.00 minutes, z = 0.00 &#956;m
  </text>
  <text x="5" y="23"
   font-family="Arial" font-size="9.5" fill="black" >
   978 agents
  </text>
 <g id="tissue" 
    transform="translate(0,428) scale(1,-1)">
  <g id="ECM">
  </g>
  <g id="cells">
   <g id="cell25">
  <circle cx="64.7319" cy="178.808" r="8.36121" stroke-width="0.5" stroke="black" fill="grey"/>
  <circle cx="64.7319" cy="178.808" r="4.96543" stroke-width="0.5" stroke="grey" fill="grey"/>
   </g>
   <g id="cell74">
  <circle cx="91.5754" cy="171.52" r="6.37459" stroke-width="0.5" stroke="black" fill="grey"/>
   </g>
   <g id="cell96">
  <circle cx="148.905" cy="69.4933" r="8.26091" stroke-width="0.5" stroke="black" fill="grey"/>
  <circle cx="148.905" cy="69.4933" r="4.79461" stroke-width="0.5" stroke="grey" fill="grey"/>
   </g>
   <g id="cell101">
  <circle cx="93.4928" cy="234.691" r="7.3405" stroke-width="0.5" stroke="black" fill="grey"/>
  <circle cx="93.4928" cy="234.691" r="2.93744" stroke-width="0.5" stroke="grey" fill="grey"/>
   </g>
   <g id="cell103">
  <circle cx="157.741" cy="280.365" r="5.33971" stroke-width="0.5" stroke="black" fill="grey"/>
   </g>
   <g id="cell110">
  <circle cx="134.452" cy="265.603" r="7.82819" stroke-width="0.5" stroke="black" fill="grey"/>
  <circle cx="134.452" cy="265.603" r="4.00327" stroke-width="0.5" stroke="grey" fill="grey"/>
   </g>
   <g id="cell129">
  <circle cx="46.4914" cy="191.271" r="8.32531" stroke-width="0.5" stroke="black" fill="grey"/>
  <circle cx="46.4914" cy="191.271" r="4.90474" stroke-width="0.5" stroke="grey" fill="grey"/>
   </g>
   <g id="cell135">
  <circle cx="61.56" cy="192.924" r="8.25088" stroke-width="0.5" stroke="black" fill="grey"/>
  <circle cx="61.56" cy="192.924" r="4.77731" stroke-width="0.5" stroke="grey" fill="grey"/>
   </g>
   <g id="cell139">
  <circle cx="70.3667" cy="248.464" r="8.17096" stroke-width="0.5" stroke="black" fill="grey"/>
  <circle cx="70.3667" cy="248.464" r="4.63792" stroke-width="0.5" stroke="grey" fill="grey"/>
   </g>
   <g id="cell150">
  <circle cx="115.086" cy="216.443" r="8.40589" stroke-width="0.5" stroke="black" fill="grey"/>
  <circle cx="115.086" cy="216.443" r="5.0403" stroke-width="0.5" stroke="grey" fill="grey"/>
   </g>
   <g id="cell155">
  <circle cx="142.168" cy="133.642" r="7.68846" stroke-width="0.5" stroke="black" fill="grey"/>
  <circle cx="142.168" cy="133.642" r="3.72265" stroke-width="0.5" stroke="grey" fill="grey"/>
   </g>
   <g id="cell161">
  <circle cx="145.772" cy="244.415" r="7.7129" stroke-width="0.5" stroke="black" fill="grey"/>
  <circle cx="145.772" cy="244.415" r="3.77287" stroke-width="0.5" stroke="grey" fill="grey"/>
   </g>
   <g id="cell164">
  <circle cx="130.336" cy="142.911" r="7.98261" stroke-width="0.5" stroke="black" fill="grey"/>
  <circle cx="130.336" cy="142.911" r="4.29741" stroke-width="0.5" stroke="grey" fill="grey"/>
   </g>
   <g id="cell166">
  <circle cx="135.239" cy="123.212" r="6.93196" stroke-width="0.5" stroke="black" fill="grey"/>
  <circle cx="135.239" cy="123.212" r="1.67266" stroke-width="0.5" stroke="grey" fill="grey"/>
   </g>
   <g id="cell171">
  <circle cx="136.215" cy="309.267" r="8.00323" stroke-width="0.5" stroke="black" fill="grey"/>
  <circle cx="136.215" cy="309.267" r="4.3356" stroke-width="0.5" stroke="grey" fill="grey"/>
   </g>
   <g id="cell175">
  <circle cx="167.387" cy="162.376" r="7.70551" stroke-width="0.5" stroke="black" fill="grey"/>
  <circle cx="167.387" cy="162.376" r="3.75774" stroke-width="0.5" stroke="grey" fill="grey"/>
   </g>
   <g id="cell184">
  <circle cx="172.331" cy="222.66" r="8.38331" stroke-width="0.5" stroke="black" fill="grey"/>
  <circle cx="172.331" cy="222.66" r="5.00256" stroke-width="0.5" stroke="grey" fill="grey"/>
   </g>
   <g id="cell189">
  <circle cx="181.234" cy="183.106" r="4.2322" stroke-width="0.5" stroke="black" fill="grey"/>
   </g>
   <g id="cell204">
  <circle cx="71.5094" cy="119.102" r="8.30564" stroke-width="0.5" stroke="black" fill="grey"/>
  <circle cx="71.5094" cy="119.102" r="4.87128" stroke-width="0.5" stroke="grey" fill="grey"/>
   </g>
   <g id="cell213">
  <circle cx="95.7488" cy="193.206" r="7.22689" stroke-width="0.5" stroke="black" fill="grey"/>
  <circle cx="95.7488" cy="193.206" r="2.64076" stroke-width="0.5" stroke="grey" fill="grey"/>
   </g>
   <g id="cell216">
  <circle cx="98.9461" cy="221.084" r="7.44106" stroke-width="0.5" stroke="black" fill="grey"/>
  <circle cx="98.9461" cy="221.084" r="3.18041" stroke-width="0.5" stroke="grey" fill="grey"/>
   </g>
   <g id="cell220">
  <circle cx="113.413" cy="164.55" r="6.68371" stroke-width="0.5" stroke="black" fill="grey"/>
   </g>
   <g id="cell224">
  <circle cx="142.353" cy="228.159" r="7.96709" stroke-width="0.5" stroke="black" fill="grey"/>
  <circle cx="142.353" cy="228.159" r="4.26852" stroke-width="0.5" stroke="grey" fill="grey"/>
   </g>
   <g id="cell229">
  <circle cx="106.434" cy="122.436" r="7.07247" stroke-width="0.5" stroke="black" fill="grey"/>
  <circle cx="106.434" cy="122.436" r="2.18301" stroke-width="0.5" stroke="grey" fill="grey"/>
   </g>
   <g id="cell232">
  <circle cx="147.451" cy="210.277" r="7.50203" stroke-width="0.5" stroke="black" fill="grey"/>
  <circle cx="147.451" cy="210.277" r="3.32055" stroke-width="0.5" stroke="grey" fill="grey"/>
   </g>
   <g id="cell235">
  <circle cx="165.797" cy="288.026" r="7.05983" stroke-width="0.5" stroke="black" fill="grey"/>
  <circle cx="165.797" cy="288.026" r="2.14171" stroke-width="0.5" stroke="grey" fill="grey"/>
   </g>
   <g id="cell236">
  <circle cx="157.45" cy="137.457" r="7.37599" stroke-width="0.5" stroke="black" fill="grey"/>
  <circle cx="157.45" cy="137.457" r="3.02506" stroke-width="0.5" stroke="grey" fill="grey"/>
   </g>
   <g id="cell239">
  <circle cx="186.825" cy="211.908" r="8.37976" stroke-width="0.5" stroke="black" fill="grey"/>
  <circle cx="186.825" cy="211.908" r="4.99661" stroke-width="0.5" stroke="grey" fill="grey"/>
   </g>
   <g id="cell249">
  <circle cx="174.999" cy="241.484" r="8.36437" stroke-width="0.5" stroke="black" fill="grey"/>
  <circle cx="174.999" cy="241.484" r="4.97075" stroke-width="0.5" stroke="grey" fill="grey"/>
   </g>
   <g id="cell251">
  <circle cx="153.004" cy="266.621" r="8.06905" stroke-width="0.5" stroke="black" fill="grey"/>
  <circle cx="153.004" cy="266.621" r="4.45591" stroke-width="0.5" stroke="grey" fill="grey"/>
   </g>
   <g id="cell253">
  <circle cx="200.495" cy="143.355" r="8.05376" stroke-width="0.5" stroke="black" fill="grey"/>
  <circle cx="200.495" cy="143.355" r="4.42818" stroke-width="0.5" stroke="grey" fill="grey"/>
   </g>
   <g id="cell255">
  <circle cx="162.305" cy="181.459" r="5.71139" stroke-width="0.5" stroke="black" fill="grey"/>
   </g>
   <g id="cell256">
  <circle cx="195.739" cy="202.54" r="3.23592" stroke-width="0.5" stroke="black" fill="grey"/>
   </g>
   <g id="cell275">
  <circle cx="48.9759" cy="211.656" r="0.658156" stroke-width="0.5" stroke="black" fill="grey"/>
   </g>
   <g id="cell277">
  <circle cx="80.5384" cy="276.978" r="6.62791" stroke-width="0.5" stroke="black" fill="grey"/>
   </g>
   <g id="cell279">
  <circle cx="97.4386" cy="164.696" r="3.54702" stroke-width="0.5" stroke="black" fill="grey"/>
   </g>
   <g id="cell284">
  <circle cx="91.1081" cy="267.625" r="4.04948" stroke-width="0.5" stroke="black" fill="grey"/>
   </g>
   <g id="cell285">
  <circle cx="71.3251" cy="223.55" r="2.57432" stroke-width="0.5" stroke="black" fill="grey"/>
   </g>
   <g id="cell292">
  <circle cx="86.9662" cy="248.009" r="6.46751" stroke-width="0.5" stroke="black" fill="grey"/>
   </g>
   <g id="cell293">
  <circle cx="106.592" cy="280.153" r="4.29404" stroke-width="0.5" stroke="black" fill="grey"/>
   </g>
   <g id="cell298">
  <circle cx="125.18" cy="192.356" r="7.40598" stroke-width="0.5" stroke="black" fill="grey"/>
  <circle cx="125.18" cy="192.356" r="3.09746" stroke-width="0.5" stroke="grey" fill="grey"/>
   </g>
   <g id="cell304">
  <circle cx="146.111" cy="155.791" r="8.18589" stroke-width="0.5" stroke="black" fill="grey"/>
  <circle cx="146.111" cy="155.791" r="4.66417" stroke-width="0.5" stroke="grey" fill="grey"/>
   </g>
   <g id="cell308">
  <circle cx="121.3" cy="228.307" r="5.82332" stroke-width="0.5" stroke="black" fill="grey"/>
   </g>
   <g id="cell309">
  <circle cx="161.678" cy="232.478" r="7.88097" stroke-width="0.5" stroke="black" fill="grey"/>
  <circle cx="161.678" cy="232.478" r="4.10553" stroke-width="0.5" stroke="grey" fill="grey"/>
   </g>
   <g id="cell323">
  <circle cx="161.103" cy="205.177" r="6.54298" stroke-width="0.5" stroke="black" fill="grey"/>
   </g>
   <g id="cell326">
  <circle cx="183.103" cy="253.947" r="8.39404" stroke-width="0.5" stroke="black" fill="grey"/>
  <circle cx="183.103" cy="253.947" r="5.02051" stroke-width="0.5" stroke="grey" fill="grey"/>
   </g>
   <g id="cell331">
  <circle cx="160.931" cy="218.121" r="5.51898" stroke-width="0.5" stroke="black" fill="grey"/>
   </g>
   <g id="cell339">
  <circle cx="54.1949" cy="248.88" r="5.47422" stroke-width="0.5" stroke="black" fill="grey"/>
   </g>
   <g id="cell352">
  <circle cx="79.5728" cy="233.004" r="8.41102" stroke-width="0.5" stroke="black" fill="grey"/>
  <circle cx="79.5728" cy="233.004" r="5.04885" stroke-width="0.5" stroke="grey" fill="grey"/>
   </g>
   <g id="cell357">
  <circle cx="98.0185" cy="146.767" r="7.90351" stroke-width="0.5" stroke="black" fill="grey"/>
  <circle cx="98.0185" cy="146.767" r="4.14864" stroke-width="0.5" stroke="grey" fill="grey"/>
   </g>
   <g id="cell390">
  <circle cx="203.513" cy="185.73" r="7.80685" stroke-width="0.5" stroke="black" fill="grey"/>
  <circle cx="203.513" cy="185.73" r="3.96139" stroke-width="0.5" stroke="grey" fill="grey"/>
   </g>
   <g id="cell400">
  <circle cx="24.1048" cy="159.038" r="7.75558" stroke-width="0.5" stroke="black" fill="grey"/>
  <circle cx="24.1048" cy="159.038" r="3.85937" stroke-width="0.5" stroke="grey" fill="grey"/>
   </g>
   <g id="cell419">
  <circle cx="118.883" cy="256.587" r="5.91043" stroke-width="0.5" stroke="black" fill="grey"/>
   </g>
   <g id="cell425">
  <circle cx="128.451" cy="231.892" r="5.80055" stroke-width="0.5" stroke="black" fill="grey"/>
   </g>
   <g id="cell429">
  <circle cx="134.708" cy="164.768" r="4.9377" stroke-width="0.5" stroke="black" fill="grey"/>
   </g>
   <g id="cell453">
  <circle cx="70.0634" cy="206.003" r="7.63311" stroke-width="0.5" stroke="black" fill="grey"/>
  <circle cx="70.0634" cy="206.003" r="3.60695" stroke-width="0.5" stroke="grey" fill="grey"/>
   </g>
   <g id="cell518">
  <circle cx="240.148" cy="135.403" r="7.61648" stroke-width="0.5" stroke="black" fill="red"/>
  <circle cx="240.148" cy="135.403" r="3.57162" stroke-width="0.5" stroke="red" fill="red"/>
   </g>
   <g id="cell563">
  <circle cx="242.504" cy="175.853" r="8.29165" stroke-width="0.5" stroke="black" fill="red"/>
  <circle cx="242.504" cy="175.853" r="4.84738" stroke-width="0.5" stroke="red" fill="red"/>
   </g>
   <g id="cell567">
  <circle cx="249.351" cy="269.777" r="2.59694" stroke-width="0.5" stroke="black" fill="red"/>
   </g>
   <g id="cell582">
  <circle cx="278.485" cy="254.867" r="4.77171" stroke-width="0.5" stroke="black" fill="red"/>
   </g>
   <g id="cell605">
  <circle cx="327.658" cy="212.563" r="8.19494" stroke-width="0.5" stroke="black" fill="red"/>
  <circle cx="327.658" cy="212.563" r="4.68003" stroke-width="0.5" stroke="red" fill="red"/>
   </g>
   <g id="cell606">
  <circle cx="313.203" cy="223.999" r="8.13501" stroke-width="0.5" stroke="black" fill="red"/>
  <circle cx="313.203" cy="223.999" r="4.57428" stroke-width="0.5" stroke="red" fill="red"/>
   </g>
   <g id="cell617">
  <circle cx="365.308" cy="226.46" r="8.32021" stroke-width="0.5" stroke="black" fill="red"/>
  <circle cx="365.308" cy="226.46" r="4.89607" stroke-width="0.5" stroke="red" fill="red"/>
   </g>
   <g id="cell623">
  <circle cx="219.263" cy="126.69" r="3.09316" stroke-width="0.5" stroke="black" fill="red"/>
   </g>
   <g id="cell624">
  <circle cx="194.374" cy="181.692" r="2.70816" stroke-width="0.5" stroke="black" fill="red"/>
   </g>
   <g id="cell625">
  <circle cx="208.747" cy="156.812" r="5.33092" stroke-width="0.5" stroke="black" fill="red"/>
   </g>
   <g id="cell633">
  <circle cx="263.935" cy="200.418" r="8.38472" stroke-width="0.5" stroke="black" fill="red"/>
  <circle cx="263.935" cy="200.418" r="5.00491" stroke-width="0.5" stroke="red" fill="red"/>
   </g>
   <g id="cell645">
  <circle cx="254.268" cy="157.561" r="5.33712" stroke-width="0.5" stroke="black" fill="red"/>
   </g>
   <g id="cell652">
  <circle cx="253.569" cy="244.232" r="6.62735" stroke-width="0.5" stroke="black" fill="red"/>
   </g>
   <g id="cell653">
  <circle cx="271.253" cy="125.285" r="7.7542" stroke-width="0.5" stroke="black" fill="red"/>
  <circle cx="271.253" cy="125.285" r="3.85659" stroke-width="0.5" stroke="red" fill="red"/>
   </g>
   <g id="cell659">
  <circle cx="275.005" cy="239.625" r="8.14808" stroke-width="0.5" stroke="black" fill="red"/>
  <circle cx="275.005" cy="239.625" r="4.59748" stroke-width="0.5" stroke="red" fill="red"/>
   </g>
   <g id="cell669">
  <circle cx="345.06" cy="121.825" r="8.17598" stroke-width="0.5" stroke="black" fill="red"/>
  <circle cx="345.06" cy="121.825" r="4.64675" stroke-width="0.5" stroke="red" fill="red"/>
   </g>
   <g id="cell671">
  <circle cx="302.943" cy="193.157" r="8.33526" stroke-width="0.5" stroke="black" fill="red"/>
  <circle cx="302.943" cy="193.157" r="4.92161" stroke-width="0.5" stroke="red" fill="red"/>
   </g>
   <g id="cell704">
  <circle cx="264.67" cy="225.772" r="3.40895" stroke-width="0.5" stroke="black" fill="red"/>
   </g>
   <g id="cell706">
  <circle cx="247.819" cy="229.755" r="7.99512" stroke-width="0.5" stroke="black" fill="red"/>
  <circle cx="247.819" cy="229.755" r="4.32061" stroke-width="0.5" stroke="red" fill="red"/>
   </g>
   <g id="cell709">
  <circle cx="240.598" cy="121.98" r="5.68186" stroke-width="0.5" stroke="black" fill="red"/>
   </g>
   <g id="cell718">
  <circle cx="264.206" cy="140.984" r="8.13312" stroke-width="0.5" stroke="black" fill="red"/>
  <circle cx="264.206" cy="140.984" r="4.57093" stroke-width="0.5" stroke="red" fill="red"/>
   </g>
   <g id="cell722">
  <circle cx="271.511" cy="209.973" r="3.83176" stroke-width="0.5" stroke="black" fill="red"/>
   </g>
   <g id="cell724">
  <circle cx="264.638" cy="272.662" r="8.4099" stroke-width="0.5" stroke="black" fill="red"/>
  <circle cx="264.638" cy="272.662" r="5.04699" stroke-width="0.5" stroke="red" fill="red"/>
   </g>
   <g id="cell725">
  <circle cx="282.612" cy="111.967" r="5.8697" stroke-width="0.5" stroke="black" fill="red"/>
   </g>
   <g id="cell730">
  <circle cx="301.768" cy="208.802" r="8.1781" stroke-width="0.5" stroke="black" fill="red"/>
  <circle cx="301.768" cy="208.802" r="4.65049" stroke-width="0.5" stroke="red" fill="red"/>
   </g>
   <g id="cell736">
  <circle cx="322.678" cy="166.882" r="7.76011" stroke-width="0.5" stroke="black" fill="red"/>
  <circle cx="322.678" cy="166.882" r="3.86845" stroke-width="0.5" stroke="red" fill="red"/>
   </g>
   <g id="cell738">
  <circle cx="318.354" cy="201.318" r="7.39147" stroke-width="0.5" stroke="black" fill="red"/>
  <circle cx="318.354" cy="201.318" r="3.06259" stroke-width="0.5" stroke="red" fill="red"/>
   </g>
   <g id="cell751">
  <circle cx="356.76" cy="205.081" r="8.03753" stroke-width="0.5" stroke="black" fill="red"/>
  <circle cx="356.76" cy="205.081" r="4.39859" stroke-width="0.5" stroke="red" fill="red"/>
   </g>
   <g id="cell753">
  <circle cx="353.803" cy="266.007" r="1.79553" stroke-width="0.5" stroke="black" fill="red"/>
   </g>
   <g id="cell754">
  <circle cx="344.054" cy="317.318" r="8.41104" stroke-width="0.5" stroke="black" fill="red"/>
  <circle cx="344.054" cy="317.318" r="5.04888" stroke-width="0.5" stroke="red" fill="red"/>
   </g>
   <g id="cell762">
  <circle cx="225.904" cy="140.525" r="8.37769" stroke-width="0.5" stroke="black" fill="red"/>
  <circle cx="225.904" cy="140.525" r="4.99312" stroke-width="0.5" stroke="red" fill="red"/>
   </g>
   <g id="cell767">
  <circle cx="228.818" cy="121.407" r="7.58227" stroke-width="0.5" stroke="black" fill="red"/>
  <circle cx="228.818" cy="121.407" r="3.49807" stroke-width="0.5" stroke="red" fill="red"/>
   </g>
   <g id="cell769">
  <circle cx="255.319" cy="187.72" r="7.87475" stroke-width="0.5" stroke="black" fill="red"/>
  <circle cx="255.319" cy="187.72" r="4.09358" stroke-width="0.5" stroke="red" fill="red"/>
   </g>
   <g id="cell771">
  <circle cx="229.172" cy="190.989" r="2.14508" stroke-width="0.5" stroke="black" fill="red"/>
   </g>
   <g id="cell772">
  <circle cx="220.604" cy="202.912" r="8.40798" stroke-width="0.5" stroke="black" fill="red"/>
  <circle cx="220.604" cy="202.912" r="5.0438" stroke-width="0.5" stroke="red" fill="red"/>
   </g>
   <g id="cell780">
  <circle cx="250.311" cy="255.779" r="6.46606" stroke-width="0.5" stroke="black" fill="red"/>
   </g>
   <g id="cell791">
  <circle cx="261.274" cy="299.269" r="7.19015" stroke-width="0.5" stroke="black" fill="red"/>
  <circle cx="261.274" cy="299.269" r="2.5385" stroke-width="0.5" stroke="red" fill="red"/>
   </g>
   <g id="cell795">
  <circle cx="284.909" cy="210.139" r="6.91247" stroke-width="0.5" stroke="black" fill="red"/>
  <circle cx="284.909" cy="210.139" r="1.58996" stroke-width="0.5" stroke="red" fill="red"/>
   </g>
   <g id="cell800">
  <circle cx="340.918" cy="93.8273" r="6.70511" stroke-width="0.5" stroke="black" fill="red"/>
   </g>
   <g id="cell802">
  <circle cx="298.115" cy="177.672" r="8.34689" stroke-width="0.5" stroke="black" fill="red"/>
  <circle cx="298.115" cy="177.672" r="4.94128" stroke-width="0.5" stroke="red" fill="red"/>
   </g>
   <g id="cell805">
  <circle cx="332.103" cy="240.844" r="8.36726" stroke-width="0.5" stroke="black" fill="red"/>
  <circle cx="332.103" cy="240.844" r="4.97562" stroke-width="0.5" stroke="red" fill="red"/>
   </g>
   <g id="cell806">
  <circle cx="293.406" cy="255.596" r="7.43469" stroke-width="0.5" stroke="black" fill="red"/>
  <circle cx="293.406" cy="255.596" r="3.16549" stroke-width="0.5" stroke="red" fill="red"/>
   </g>
   <g id="cell807">
  <circle cx="290.028" cy="269.986" r="8.37436" stroke-width="0.5" stroke="black" fill="red"/>
  <circle cx="290.028" cy="269.986" r="4.98755" stroke-width="0.5" stroke="red" fill="red"/>
   </g>
   <g id="cell808">
  <circle cx="330.224" cy="289.384" r="5.94212" stroke-width="0.5" stroke="black" fill="red"/>
   </g>
   <g id="cell814">
  <circle cx="293.384" cy="225.07" r="6.55314" stroke-width="0.5" stroke="black" fill="red"/>
   </g>
   <g id="cell821">
  <circle cx="344.697" cy="288.922" r="5.49507" stroke-width="0.5" stroke="black" fill="red"/>
   </g>
   <g id="cell823">
  <circle cx="389.213" cy="240.552" r="8.41152" stroke-width="0.5" stroke="black" fill="red"/>
  <circle cx="389.213" cy="240.552" r="5.0497" stroke-width="0.5" stroke="red" fill="red"/>
   </g>
   <g id="cell827">
  <circle cx="189.132" cy="233.857" r="5.21125" stroke-width="0.5" stroke="black" fill="red"/>
   </g>
   <g id="cell837">
  <circle cx="254.495" cy="163.577" r="4.78916" stroke-width="0.5" stroke="black" fill="red"/>
   </g>
   <g id="cell843">
  <circle cx="232.315" cy="269.738" r="7.22267" stroke-width="0.5" stroke="black" fill="red"/>
  <circle cx="232.315" cy="269.738" r="2.62918" stroke-width="0.5" stroke="red" fill="red"/>
   </g>
   <g id="cell860">
  <circle cx="262.999" cy="247.844" r="6.81399" stroke-width="0.5" stroke="black" fill="red"/>
  <circle cx="262.999" cy="247.844" r="1.08451" stroke-width="0.5" stroke="red" fill="red"/>
   </g>
   <g id="cell862">
  <circle cx="289.913" cy="136.154" r="7.69313" stroke-width="0.5" stroke="black" fill="red"/>
  <circle cx="289.913" cy="136.154" r="3.73229" stroke-width="0.5" stroke="red" fill="red"/>
   </g>
   <g id="cell868">
  <circle cx="286.421" cy="284.303" r="5.58088" stroke-width="0.5" stroke="black" fill="red"/>
   </g>
   <g id="cell869">
  <circle cx="306.057" cy="117.691" r="8.03336" stroke-width="0.5" stroke="black" fill="red"/>
  <circle cx="306.057" cy="117.691" r="4.39097" stroke-width="0.5" stroke="red" fill="red"/>
   </g>
   <g id="cell873">
  <circle cx="328.545" cy="186.945" r="8.21055" stroke-width="0.5" stroke="black" fill="red"/>
  <circle cx="328.545" cy="186.945" r="4.70731" stroke-width="0.5" stroke="red" fill="red"/>
   </g>
   <g id="cell898">
  <circle cx="216.865" cy="182.416" r="5.56551" stroke-width="0.5" stroke="black" fill="red"/>
   </g>
   <g id="cell911">
  <circle cx="282.041" cy="223.586" r="6.2624" stroke-width="0.5" stroke="black" fill="red"/>
   </g>
  </g>
 </g>
  <rect x="190" y="414" width="200" height="4" stroke-width="0.8" stroke="rgb(255,255,255)" fill="rgb(0,0,0)"/>
  <text x="192.5" y="411.5"
   font-family="Arial" font-size="10" fill="black" >
   200 &#956;m
  </text>
  <text x="10" y="418"
   font-family="Arial" font-size="7.5" fill="black" >
   0 days, 0 hours, 6 minutes, and 3.7612 seconds
  </text>
  <rect x="0" y="28" width="400" height="400" stroke-width="0.8" stroke="rgb(0,0,0)" fill="none"/>
</svg>
