<?xml version="1.0" encoding="UTF-8" standalone="no"?>
<!-- Created with PhysiCell (http://PhysiCell.MathCancer.org/) -->
<svg 
 xmlns:dc="http://purl.org/dc/elements/1.1/" 
 xmlns:cc="http://creativecommons.org/ns#" 
 xmlns:rdf="http://www.w3.org/1999/02/22-rdf-syntax-ns#" 
 xmlns:svg="http://www.w3.org/2000/svg" 
 xmlns="http://www.w3.org/2000/svg" 
 version="1.1" 
 width="400" 
 height="428" 
 id="svg2">
  <rect x="0" y="0" width="400" height="428" stroke-width="0.8" stroke="white" fill="white"/>
  <text x="5" y="12"
   font-family="Arial" font-size="10" fill="black" >
   Current time: 3 days, 13 hours, and 0.00 minutes, z = 0.00 &#956;m
  </text>
  <text x="5" y="23"
   font-family="Arial" font-size="9.5" fill="black" >
   978 agents
  </text>
 <g id="tissue" 
    transform="translate(0,428) scale(1,-1)">
  <g id="ECM">
  </g>
  <g id="cells">
   <g id="cell4">
  <circle cx="105.32" cy="229.8" r="8.4007" stroke-width="0.5" stroke="black" fill="grey"/>
  <circle cx="105.32" cy="229.8" r="5.03165" stroke-width="0.5" stroke="grey" fill="grey"/>
   </g>
   <g id="cell6">
  <circle cx="114.77" cy="206.694" r="5.21841" stroke-width="0.5" stroke="black" fill="grey"/>
   </g>
   <g id="cell35">
  <circle cx="229.879" cy="183.592" r="7.33897" stroke-width="0.5" stroke="black" fill="grey"/>
  <circle cx="229.879" cy="183.592" r="2.93363" stroke-width="0.5" stroke="grey" fill="grey"/>
   </g>
   <g id="cell41">
  <circle cx="49.2338" cy="138.838" r="7.94507" stroke-width="0.5" stroke="black" fill="grey"/>
  <circle cx="49.2338" cy="138.838" r="4.22727" stroke-width="0.5" stroke="grey" fill="grey"/>
   </g>
   <g id="cell48">
  <circle cx="214.4" cy="146.532" r="7.84433" stroke-width="0.5" stroke="black" fill="grey"/>
  <circle cx="214.4" cy="146.532" r="4.03474" stroke-width="0.5" stroke="grey" fill="grey"/>
   </g>
   <g id="cell58">
  <circle cx="206.019" cy="264.924" r="8.40474" stroke-width="0.5" stroke="black" fill="grey"/>
  <circle cx="206.019" cy="264.924" r="5.03839" stroke-width="0.5" stroke="grey" fill="grey"/>
   </g>
   <g id="cell82">
  <circle cx="165.776" cy="240.291" r="1.4793" stroke-width="0.5" stroke="black" fill="grey"/>
   </g>
   <g id="cell87">
  <circle cx="51.9925" cy="231.827" r="7.41382" stroke-width="0.5" stroke="black" fill="grey"/>
  <circle cx="51.9925" cy="231.827" r="3.11614" stroke-width="0.5" stroke="grey" fill="grey"/>
   </g>
   <g id="cell104">
  <circle cx="132.597" cy="167.187" r="7.78817" stroke-width="0.5" stroke="black" fill="grey"/>
  <circle cx="132.597" cy="167.187" r="3.92445" stroke-width="0.5" stroke="grey" fill="grey"/>
   </g>
   <g id="cell166">
  <circle cx="173.894" cy="122.831" r="8.20011" stroke-width="0.5" stroke="black" fill="grey"/>
  <circle cx="173.894" cy="122.831" r="4.68909" stroke-width="0.5" stroke="grey" fill="grey"/>
   </g>
   <g id="cell181">
  <circle cx="139.897" cy="100.594" r="6.0565" stroke-width="0.5" stroke="black" fill="grey"/>
   </g>
   <g id="cell203">
  <circle cx="40.7739" cy="277.22" r="6.65092" stroke-width="0.5" stroke="black" fill="grey"/>
   </g>
   <g id="cell227">
  <circle cx="138.427" cy="337.564" r="8.0807" stroke-width="0.5" stroke="black" fill="grey"/>
  <circle cx="138.427" cy="337.564" r="4.47698" stroke-width="0.5" stroke="grey" fill="grey"/>
   </g>
   <g id="cell264">
  <circle cx="197.075" cy="242.805" r="6.40728" stroke-width="0.5" stroke="black" fill="grey"/>
   </g>
   <g id="cell288">
  <circle cx="128.746" cy="102.173" r="7.04754" stroke-width="0.5" stroke="black" fill="grey"/>
  <circle cx="128.746" cy="102.173" r="2.10083" stroke-width="0.5" stroke="grey" fill="grey"/>
   </g>
   <g id="cell289">
  <circle cx="105.928" cy="191.869" r="7.40356" stroke-width="0.5" stroke="black" fill="grey"/>
  <circle cx="105.928" cy="191.869" r="3.09167" stroke-width="0.5" stroke="grey" fill="grey"/>
   </g>
   <g id="cell306">
  <circle cx="285.934" cy="224.021" r="1.79014" stroke-width="0.5" stroke="black" fill="grey"/>
   </g>
   <g id="cell310">
  <circle cx="189.061" cy="354.435" r="8.34892" stroke-width="0.5" stroke="black" fill="grey"/>
  <circle cx="189.061" cy="354.435" r="4.9447" stroke-width="0.5" stroke="grey" fill="grey"/>
   </g>
   <g id="cell312">
  <circle cx="232.649" cy="162.625" r="3.508" stroke-width="0.5" stroke="black" fill="grey"/>
   </g>
   <g id="cell317">
  <circle cx="121.637" cy="390.956" r="5.55925" stroke-width="0.5" stroke="black" fill="grey"/>
   </g>
   <g id="cell339">
  <circle cx="112.568" cy="283.698" r="8.40703" stroke-width="0.5" stroke="black" fill="grey"/>
  <circle cx="112.568" cy="283.698" r="5.04221" stroke-width="0.5" stroke="grey" fill="grey"/>
   </g>
   <g id="cell359">
  <circle cx="152.766" cy="263.428" r="8.38923" stroke-width="0.5" stroke="black" fill="grey"/>
  <circle cx="152.766" cy="263.428" r="5.01247" stroke-width="0.5" stroke="grey" fill="grey"/>
   </g>
   <g id="cell369">
  <circle cx="77.1631" cy="308.516" r="5.98453" stroke-width="0.5" stroke="black" fill="grey"/>
   </g>
   <g id="cell382">
  <circle cx="136.412" cy="187.884" r="7.10081" stroke-width="0.5" stroke="black" fill="grey"/>
  <circle cx="136.412" cy="187.884" r="2.27314" stroke-width="0.5" stroke="grey" fill="grey"/>
   </g>
   <g id="cell388">
  <circle cx="243.914" cy="97.1382" r="7.37802" stroke-width="0.5" stroke="black" fill="grey"/>
  <circle cx="243.914" cy="97.1382" r="3.03" stroke-width="0.5" stroke="grey" fill="grey"/>
   </g>
   <g id="cell395">
  <circle cx="178.843" cy="191.755" r="7.48623" stroke-width="0.5" stroke="black" fill="grey"/>
  <circle cx="178.843" cy="191.755" r="3.2847" stroke-width="0.5" stroke="grey" fill="grey"/>
   </g>
   <g id="cell397">
  <circle cx="136.305" cy="263.146" r="7.61104" stroke-width="0.5" stroke="black" fill="grey"/>
  <circle cx="136.305" cy="263.146" r="3.56001" stroke-width="0.5" stroke="grey" fill="grey"/>
   </g>
   <g id="cell402">
  <circle cx="34.9402" cy="248.675" r="8.41218" stroke-width="0.5" stroke="black" fill="grey"/>
  <circle cx="34.9402" cy="248.675" r="5.05078" stroke-width="0.5" stroke="grey" fill="grey"/>
   </g>
   <g id="cell425">
  <circle cx="98.5379" cy="321.845" r="6.83203" stroke-width="0.5" stroke="black" fill="grey"/>
  <circle cx="98.5379" cy="321.845" r="1.1926" stroke-width="0.5" stroke="grey" fill="grey"/>
   </g>
   <g id="cell455">
  <circle cx="121.997" cy="178.704" r="5.55849" stroke-width="0.5" stroke="black" fill="grey"/>
   </g>
   <g id="cell459">
  <circle cx="121.526" cy="119.294" r="5.5675" stroke-width="0.5" stroke="black" fill="grey"/>
   </g>
   <g id="cell468">
  <circle cx="54.489" cy="293.241" r="6.37834" stroke-width="0.5" stroke="black" fill="grey"/>
   </g>
   <g id="cell497">
  <circle cx="336.141" cy="200.498" r="6.06978" stroke-width="0.5" stroke="black" fill="red"/>
   </g>
   <g id="cell542">
  <circle cx="298.728" cy="315.958" r="8.3854" stroke-width="0.5" stroke="black" fill="red"/>
  <circle cx="298.728" cy="315.958" r="5.00605" stroke-width="0.5" stroke="red" fill="red"/>
   </g>
   <g id="cell550">
  <circle cx="350.448" cy="168.217" r="8.30528" stroke-width="0.5" stroke="black" fill="red"/>
  <circle cx="350.448" cy="168.217" r="4.87067" stroke-width="0.5" stroke="red" fill="red"/>
   </g>
   <g id="cell558">
  <circle cx="273.528" cy="286.237" r="3.49373" stroke-width="0.5" stroke="black" fill="red"/>
   </g>
   <g id="cell566">
  <circle cx="175.891" cy="213.642" r="6.02705" stroke-width="0.5" stroke="black" fill="red"/>
   </g>
   <g id="cell569">
  <circle cx="228.659" cy="140.187" r="8.38489" stroke-width="0.5" stroke="black" fill="red"/>
  <circle cx="228.659" cy="140.187" r="5.0052" stroke-width="0.5" stroke="red" fill="red"/>
   </g>
   <g id="cell581">
  <circle cx="275.755" cy="117.222" r="3.97278" stroke-width="0.5" stroke="black" fill="red"/>
   </g>
   <g id="cell605">
  <circle cx="357.554" cy="209.298" r="8.32094" stroke-width="0.5" stroke="black" fill="red"/>
  <circle cx="357.554" cy="209.298" r="4.89733" stroke-width="0.5" stroke="red" fill="red"/>
   </g>
   <g id="cell619">
  <circle cx="179.701" cy="136.283" r="8.16099" stroke-width="0.5" stroke="black" fill="red"/>
  <circle cx="179.701" cy="136.283" r="4.62033" stroke-width="0.5" stroke="red" fill="red"/>
   </g>
   <g id="cell626">
  <circle cx="201.658" cy="201.677" r="7.84865" stroke-width="0.5" stroke="black" fill="red"/>
  <circle cx="201.658" cy="201.677" r="4.04313" stroke-width="0.5" stroke="red" fill="red"/>
   </g>
   <g id="cell636">
  <circle cx="311.941" cy="79.3145" r="8.22474" stroke-width="0.5" stroke="black" fill="red"/>
  <circle cx="311.941" cy="79.3145" r="4.73202" stroke-width="0.5" stroke="red" fill="red"/>
   </g>
   <g id="cell643">
  <circle cx="281.148" cy="245.562" r="8.25443" stroke-width="0.5" stroke="black" fill="red"/>
  <circle cx="281.148" cy="245.562" r="4.78343" stroke-width="0.5" stroke="red" fill="red"/>
   </g>
   <g id="cell644">
  <circle cx="195.661" cy="94.0586" r="8.39854" stroke-width="0.5" stroke="black" fill="red"/>
  <circle cx="195.661" cy="94.0586" r="5.02804" stroke-width="0.5" stroke="red" fill="red"/>
   </g>
   <g id="cell652">
  <circle cx="229.9" cy="270.326" r="7.28673" stroke-width="0.5" stroke="black" fill="red"/>
  <circle cx="229.9" cy="270.326" r="2.80038" stroke-width="0.5" stroke="red" fill="red"/>
   </g>
   <g id="cell668">
  <circle cx="297.405" cy="222.599" r="6.94666" stroke-width="0.5" stroke="black" fill="red"/>
  <circle cx="297.405" cy="222.599" r="1.73255" stroke-width="0.5" stroke="red" fill="red"/>
   </g>
   <g id="cell678">
  <circle cx="312.308" cy="165.678" r="6.36652" stroke-width="0.5" stroke="black" fill="red"/>
   </g>
   <g id="cell683">
  <circle cx="389.769" cy="178.399" r="7.77994" stroke-width="0.5" stroke="black" fill="red"/>
  <circle cx="389.769" cy="178.399" r="3.90809" stroke-width="0.5" stroke="red" fill="red"/>
   </g>
   <g id="cell685">
  <circle cx="222.017" cy="165.798" r="8.05453" stroke-width="0.5" stroke="black" fill="red"/>
  <circle cx="222.017" cy="165.798" r="4.42957" stroke-width="0.5" stroke="red" fill="red"/>
   </g>
   <g id="cell689">
  <circle cx="212.002" cy="122.983" r="2.5364" stroke-width="0.5" stroke="black" fill="red"/>
   </g>
   <g id="cell709">
  <circle cx="211.885" cy="122.258" r="3.54138" stroke-width="0.5" stroke="black" fill="red"/>
   </g>
   <g id="cell711">
  <circle cx="292.703" cy="201.963" r="8.01242" stroke-width="0.5" stroke="black" fill="red"/>
  <circle cx="292.703" cy="201.963" r="4.35253" stroke-width="0.5" stroke="red" fill="red"/>
   </g>
   <g id="cell726">
  <circle cx="261.322" cy="42.6235" r="8.38754" stroke-width="0.5" stroke="black" fill="red"/>
  <circle cx="261.322" cy="42.6235" r="5.00965" stroke-width="0.5" stroke="red" fill="red"/>
   </g>
   <g id="cell743">
  <circle cx="377.909" cy="184.751" r="6.64191" stroke-width="0.5" stroke="black" fill="red"/>
   </g>
   <g id="cell744">
  <circle cx="267.213" cy="132.143" r="5.94405" stroke-width="0.5" stroke="black" fill="red"/>
   </g>
   <g id="cell766">
  <circle cx="241.69" cy="285.689" r="8.32686" stroke-width="0.5" stroke="black" fill="red"/>
  <circle cx="241.69" cy="285.689" r="4.90738" stroke-width="0.5" stroke="red" fill="red"/>
   </g>
   <g id="cell767">
  <circle cx="206.469" cy="102.457" r="7.1438" stroke-width="0.5" stroke="black" fill="red"/>
  <circle cx="206.469" cy="102.457" r="2.40406" stroke-width="0.5" stroke="red" fill="red"/>
   </g>
   <g id="cell778">
  <circle cx="256.247" cy="216.409" r="8.32653" stroke-width="0.5" stroke="black" fill="red"/>
  <circle cx="256.247" cy="216.409" r="4.90681" stroke-width="0.5" stroke="red" fill="red"/>
   </g>
   <g id="cell788">
  <circle cx="246.709" cy="155.946" r="1.31669" stroke-width="0.5" stroke="black" fill="red"/>
   </g>
   <g id="cell815">
  <circle cx="304.381" cy="293.309" r="6.84788" stroke-width="0.5" stroke="black" fill="red"/>
  <circle cx="304.381" cy="293.309" r="1.28031" stroke-width="0.5" stroke="red" fill="red"/>
   </g>
   <g id="cell819">
  <circle cx="343.099" cy="215.987" r="7.87321" stroke-width="0.5" stroke="black" fill="red"/>
  <circle cx="343.099" cy="215.987" r="4.09061" stroke-width="0.5" stroke="red" fill="red"/>
   </g>
   <g id="cell838">
  <circle cx="278.652" cy="82.496" r="1.89472" stroke-width="0.5" stroke="black" fill="red"/>
   </g>
   <g id="cell923">
  <circle cx="255.103" cy="250.007" r="4.17609" stroke-width="0.5" stroke="black" fill="red"/>
   </g>
   <g id="cell967">
  <circle cx="211.027" cy="219.179" r="7.37355" stroke-width="0.5" stroke="black" fill="red"/>
  <circle cx="211.027" cy="219.179" r="3.01909" stroke-width="0.5" stroke="red" fill="red"/>
   </g>
   <g id="cell971">
  <circle cx="241.121" cy="205.936" r="7.51961" stroke-width="0.5" stroke="black" fill="red"/>
  <circle cx="241.121" cy="205.936" r="3.36008" stroke-width="0.5" stroke="red" fill="red"/>
   </g>
  </g>
 </g>
  <rect x="190" y="414" width="200" height="4" stroke-width="0.8" stroke="rgb(255,255,255)" fill="rgb(0,0,0)"/>
  <text x="192.5" y="411.5"
   font-family="Arial" font-size="10" fill="black" >
   200 &#956;m
  </text>
  <text x="10" y="418"
   font-family="Arial" font-size="7.5" fill="black" >
   0 days, 0 hours, 23 minutes, and 26.7867 seconds
  </text>
  <rect x="0" y="28" width="400" height="400" stroke-width="0.8" stroke="rgb(0,0,0)" fill="none"/>
</svg>
