<?xml version="1.0" encoding="UTF-8" standalone="no"?>
<!-- Created with PhysiCell (http://PhysiCell.MathCancer.org/) -->
<svg 
 xmlns:dc="http://purl.org/dc/elements/1.1/" 
 xmlns:cc="http://creativecommons.org/ns#" 
 xmlns:rdf="http://www.w3.org/1999/02/22-rdf-syntax-ns#" 
 xmlns:svg="http://www.w3.org/2000/svg" 
 xmlns="http://www.w3.org/2000/svg" 
 version="1.1" 
 width="400" 
 height="428" 
 id="svg2">
  <rect x="0" y="0" width="400" height="428" stroke-width="0.8" stroke="white" fill="white"/>
  <text x="5" y="12"
   font-family="Arial" font-size="10" fill="black" >
   Current time: 0 days, 22 hours, and 0.00 minutes, z = 0.00 &#956;m
  </text>
  <text x="5" y="23"
   font-family="Arial" font-size="9.5" fill="black" >
   978 agents
  </text>
 <g id="tissue" 
    transform="translate(0,428) scale(1,-1)">
  <g id="ECM">
  </g>
  <g id="cells">
   <g id="cell88">
  <circle cx="104.349" cy="77.8999" r="8.38903" stroke-width="0.5" stroke="black" fill="grey"/>
  <circle cx="104.349" cy="77.8999" r="5.01214" stroke-width="0.5" stroke="grey" fill="grey"/>
   </g>
   <g id="cell93">
  <circle cx="56.4769" cy="218.899" r="7.96146" stroke-width="0.5" stroke="black" fill="grey"/>
  <circle cx="56.4769" cy="218.899" r="4.258" stroke-width="0.5" stroke="grey" fill="grey"/>
   </g>
   <g id="cell96">
  <circle cx="178.998" cy="67.4473" r="8.27541" stroke-width="0.5" stroke="black" fill="grey"/>
  <circle cx="178.998" cy="67.4473" r="4.81956" stroke-width="0.5" stroke="grey" fill="grey"/>
   </g>
   <g id="cell110">
  <circle cx="142.633" cy="267.202" r="7.16214" stroke-width="0.5" stroke="black" fill="grey"/>
  <circle cx="142.633" cy="267.202" r="2.45802" stroke-width="0.5" stroke="grey" fill="grey"/>
   </g>
   <g id="cell131">
  <circle cx="37.0839" cy="226.431" r="8.41114" stroke-width="0.5" stroke="black" fill="grey"/>
  <circle cx="37.0839" cy="226.431" r="5.04906" stroke-width="0.5" stroke="grey" fill="grey"/>
   </g>
   <g id="cell137">
  <circle cx="53.5112" cy="200.821" r="7.06588" stroke-width="0.5" stroke="black" fill="grey"/>
  <circle cx="53.5112" cy="200.821" r="2.16156" stroke-width="0.5" stroke="grey" fill="grey"/>
   </g>
   <g id="cell139">
  <circle cx="58.2277" cy="270.235" r="4.21977" stroke-width="0.5" stroke="black" fill="grey"/>
   </g>
   <g id="cell149">
  <circle cx="127.258" cy="130.481" r="8.41102" stroke-width="0.5" stroke="black" fill="grey"/>
  <circle cx="127.258" cy="130.481" r="5.04885" stroke-width="0.5" stroke="grey" fill="grey"/>
   </g>
   <g id="cell155">
  <circle cx="143.081" cy="133.939" r="8.38147" stroke-width="0.5" stroke="black" fill="grey"/>
  <circle cx="143.081" cy="133.939" r="4.99948" stroke-width="0.5" stroke="grey" fill="grey"/>
   </g>
   <g id="cell159">
  <circle cx="104.035" cy="186.372" r="6.80413" stroke-width="0.5" stroke="black" fill="grey"/>
  <circle cx="104.035" cy="186.372" r="1.02071" stroke-width="0.5" stroke="grey" fill="grey"/>
   </g>
   <g id="cell163">
  <circle cx="89.1362" cy="330.877" r="8.25485" stroke-width="0.5" stroke="black" fill="grey"/>
  <circle cx="89.1362" cy="330.877" r="4.78416" stroke-width="0.5" stroke="grey" fill="grey"/>
   </g>
   <g id="cell164">
  <circle cx="113.421" cy="123.193" r="8.36048" stroke-width="0.5" stroke="black" fill="grey"/>
  <circle cx="113.421" cy="123.193" r="4.9642" stroke-width="0.5" stroke="grey" fill="grey"/>
   </g>
   <g id="cell168">
  <circle cx="160.033" cy="203.403" r="8.41228" stroke-width="0.5" stroke="black" fill="grey"/>
  <circle cx="160.033" cy="203.403" r="5.05095" stroke-width="0.5" stroke="grey" fill="grey"/>
   </g>
   <g id="cell177">
  <circle cx="209.331" cy="241.665" r="6.97357" stroke-width="0.5" stroke="black" fill="grey"/>
  <circle cx="209.331" cy="241.665" r="1.8375" stroke-width="0.5" stroke="grey" fill="grey"/>
   </g>
   <g id="cell179">
  <circle cx="119.829" cy="268.34" r="7.54435" stroke-width="0.5" stroke="black" fill="grey"/>
  <circle cx="119.829" cy="268.34" r="3.41511" stroke-width="0.5" stroke="grey" fill="grey"/>
   </g>
   <g id="cell184">
  <circle cx="181.137" cy="207.357" r="7.58772" stroke-width="0.5" stroke="black" fill="grey"/>
  <circle cx="181.137" cy="207.357" r="3.50987" stroke-width="0.5" stroke="grey" fill="grey"/>
   </g>
   <g id="cell189">
  <circle cx="163.573" cy="157.216" r="8.37455" stroke-width="0.5" stroke="black" fill="grey"/>
  <circle cx="163.573" cy="157.216" r="4.98787" stroke-width="0.5" stroke="grey" fill="grey"/>
   </g>
   <g id="cell195">
  <circle cx="14.2346" cy="182.364" r="6.40419" stroke-width="0.5" stroke="black" fill="grey"/>
   </g>
   <g id="cell199">
  <circle cx="49.0255" cy="176.962" r="7.27103" stroke-width="0.5" stroke="black" fill="grey"/>
  <circle cx="49.0255" cy="176.962" r="2.75927" stroke-width="0.5" stroke="grey" fill="grey"/>
   </g>
   <g id="cell204">
  <circle cx="66.2683" cy="116.835" r="6.5263" stroke-width="0.5" stroke="black" fill="grey"/>
   </g>
   <g id="cell208">
  <circle cx="74.1009" cy="255.321" r="7.85952" stroke-width="0.5" stroke="black" fill="grey"/>
  <circle cx="74.1009" cy="255.321" r="4.0642" stroke-width="0.5" stroke="grey" fill="grey"/>
   </g>
   <g id="cell213">
  <circle cx="82.3934" cy="194.93" r="7.79417" stroke-width="0.5" stroke="black" fill="grey"/>
  <circle cx="82.3934" cy="194.93" r="3.93634" stroke-width="0.5" stroke="grey" fill="grey"/>
   </g>
   <g id="cell215">
  <circle cx="65.6443" cy="169.74" r="7.13242" stroke-width="0.5" stroke="black" fill="grey"/>
  <circle cx="65.6443" cy="169.74" r="2.37005" stroke-width="0.5" stroke="grey" fill="grey"/>
   </g>
   <g id="cell216">
  <circle cx="112.686" cy="206.066" r="7.26537" stroke-width="0.5" stroke="black" fill="grey"/>
  <circle cx="112.686" cy="206.066" r="2.74432" stroke-width="0.5" stroke="grey" fill="grey"/>
   </g>
   <g id="cell217">
  <circle cx="97.0748" cy="217.149" r="8.03426" stroke-width="0.5" stroke="black" fill="grey"/>
  <circle cx="97.0748" cy="217.149" r="4.39262" stroke-width="0.5" stroke="grey" fill="grey"/>
   </g>
   <g id="cell218">
  <circle cx="87.6597" cy="252.598" r="6.21852" stroke-width="0.5" stroke="black" fill="grey"/>
   </g>
   <g id="cell231">
  <circle cx="135.272" cy="192.542" r="8.39043" stroke-width="0.5" stroke="black" fill="grey"/>
  <circle cx="135.272" cy="192.542" r="5.01448" stroke-width="0.5" stroke="grey" fill="grey"/>
   </g>
   <g id="cell238">
  <circle cx="183.116" cy="154.27" r="8.10488" stroke-width="0.5" stroke="black" fill="grey"/>
  <circle cx="183.116" cy="154.27" r="4.52047" stroke-width="0.5" stroke="grey" fill="grey"/>
   </g>
   <g id="cell239">
  <circle cx="171.256" cy="197.827" r="2.40291" stroke-width="0.5" stroke="black" fill="grey"/>
   </g>
   <g id="cell249">
  <circle cx="178.927" cy="227.001" r="5.81119" stroke-width="0.5" stroke="black" fill="grey"/>
   </g>
   <g id="cell252">
  <circle cx="162.986" cy="247.853" r="6.22955" stroke-width="0.5" stroke="black" fill="grey"/>
   </g>
   <g id="cell253">
  <circle cx="192.281" cy="134.377" r="8.16864" stroke-width="0.5" stroke="black" fill="grey"/>
  <circle cx="192.281" cy="134.377" r="4.63382" stroke-width="0.5" stroke="grey" fill="grey"/>
   </g>
   <g id="cell260">
  <circle cx="212.561" cy="112.713" r="4.79716" stroke-width="0.5" stroke="black" fill="grey"/>
   </g>
   <g id="cell262">
  <circle cx="194.596" cy="144.607" r="3.06828" stroke-width="0.5" stroke="black" fill="grey"/>
   </g>
   <g id="cell271">
  <circle cx="59.354" cy="252.937" r="6.31498" stroke-width="0.5" stroke="black" fill="grey"/>
   </g>
   <g id="cell277">
  <circle cx="59.4886" cy="289.545" r="6.34607" stroke-width="0.5" stroke="black" fill="grey"/>
   </g>
   <g id="cell279">
  <circle cx="94.7155" cy="174.555" r="6.74168" stroke-width="0.5" stroke="black" fill="grey"/>
  <circle cx="94.7155" cy="174.555" r="0.442615" stroke-width="0.5" stroke="grey" fill="grey"/>
   </g>
   <g id="cell281">
  <circle cx="109.834" cy="163.472" r="6.29829" stroke-width="0.5" stroke="black" fill="grey"/>
   </g>
   <g id="cell284">
  <circle cx="100.152" cy="260.28" r="8.27671" stroke-width="0.5" stroke="black" fill="grey"/>
  <circle cx="100.152" cy="260.28" r="4.82178" stroke-width="0.5" stroke="grey" fill="grey"/>
   </g>
   <g id="cell286">
  <circle cx="108.045" cy="99.5427" r="8.23705" stroke-width="0.5" stroke="black" fill="grey"/>
  <circle cx="108.045" cy="99.5427" r="4.75339" stroke-width="0.5" stroke="grey" fill="grey"/>
   </g>
   <g id="cell291">
  <circle cx="120.571" cy="252.863" r="6.71477" stroke-width="0.5" stroke="black" fill="grey"/>
   </g>
   <g id="cell293">
  <circle cx="98.1826" cy="282.974" r="6.08224" stroke-width="0.5" stroke="black" fill="grey"/>
   </g>
   <g id="cell298">
  <circle cx="122.325" cy="186.466" r="7.36675" stroke-width="0.5" stroke="black" fill="grey"/>
  <circle cx="122.325" cy="186.466" r="3.00245" stroke-width="0.5" stroke="grey" fill="grey"/>
   </g>
   <g id="cell300">
  <circle cx="113.994" cy="285.918" r="7.29896" stroke-width="0.5" stroke="black" fill="grey"/>
  <circle cx="113.994" cy="285.918" r="2.83205" stroke-width="0.5" stroke="grey" fill="grey"/>
   </g>
   <g id="cell304">
  <circle cx="142.342" cy="150.601" r="3.18893" stroke-width="0.5" stroke="black" fill="grey"/>
   </g>
   <g id="cell308">
  <circle cx="107.519" cy="246.937" r="8.3171" stroke-width="0.5" stroke="black" fill="grey"/>
  <circle cx="107.519" cy="246.937" r="4.89079" stroke-width="0.5" stroke="grey" fill="grey"/>
   </g>
   <g id="cell309">
  <circle cx="165.882" cy="229.583" r="6.64778" stroke-width="0.5" stroke="black" fill="grey"/>
   </g>
   <g id="cell314">
  <circle cx="173.611" cy="186.619" r="7.76825" stroke-width="0.5" stroke="black" fill="grey"/>
  <circle cx="173.611" cy="186.619" r="3.88476" stroke-width="0.5" stroke="grey" fill="grey"/>
   </g>
   <g id="cell315">
  <circle cx="154.282" cy="189.448" r="8.11726" stroke-width="0.5" stroke="black" fill="grey"/>
  <circle cx="154.282" cy="189.448" r="4.54265" stroke-width="0.5" stroke="grey" fill="grey"/>
   </g>
   <g id="cell326">
  <circle cx="183.684" cy="249.45" r="6.97555" stroke-width="0.5" stroke="black" fill="grey"/>
  <circle cx="183.684" cy="249.45" r="1.845" stroke-width="0.5" stroke="grey" fill="grey"/>
   </g>
   <g id="cell331">
  <circle cx="168.799" cy="214.999" r="3.47264" stroke-width="0.5" stroke="black" fill="grey"/>
   </g>
   <g id="cell346">
  <circle cx="85.7923" cy="272.703" r="6.88737" stroke-width="0.5" stroke="black" fill="grey"/>
  <circle cx="85.7923" cy="272.703" r="1.47701" stroke-width="0.5" stroke="grey" fill="grey"/>
   </g>
   <g id="cell347">
  <circle cx="88.7266" cy="84.1638" r="1.08934" stroke-width="0.5" stroke="black" fill="grey"/>
   </g>
   <g id="cell349">
  <circle cx="88.1275" cy="153.027" r="8.38618" stroke-width="0.5" stroke="black" fill="grey"/>
  <circle cx="88.1275" cy="153.027" r="5.00736" stroke-width="0.5" stroke="grey" fill="grey"/>
   </g>
   <g id="cell353">
  <circle cx="94.5313" cy="238.209" r="7.95856" stroke-width="0.5" stroke="black" fill="grey"/>
  <circle cx="94.5313" cy="238.209" r="4.25256" stroke-width="0.5" stroke="grey" fill="grey"/>
   </g>
   <g id="cell357">
  <circle cx="98.0591" cy="161.488" r="7.09881" stroke-width="0.5" stroke="black" fill="grey"/>
  <circle cx="98.0591" cy="161.488" r="2.26687" stroke-width="0.5" stroke="grey" fill="grey"/>
   </g>
   <g id="cell368">
  <circle cx="83.1553" cy="222.075" r="3.19456" stroke-width="0.5" stroke="black" fill="grey"/>
   </g>
   <g id="cell369">
  <circle cx="113.601" cy="270.541" r="3.15875" stroke-width="0.5" stroke="black" fill="grey"/>
   </g>
   <g id="cell375">
  <circle cx="147.241" cy="166.509" r="7.58561" stroke-width="0.5" stroke="black" fill="grey"/>
  <circle cx="147.241" cy="166.509" r="3.50529" stroke-width="0.5" stroke="grey" fill="grey"/>
   </g>
   <g id="cell386">
  <circle cx="133.217" cy="219.762" r="8.36816" stroke-width="0.5" stroke="black" fill="grey"/>
  <circle cx="133.217" cy="219.762" r="4.97712" stroke-width="0.5" stroke="grey" fill="grey"/>
   </g>
   <g id="cell400">
  <circle cx="29.6396" cy="162.348" r="6.99946" stroke-width="0.5" stroke="black" fill="grey"/>
  <circle cx="29.6396" cy="162.348" r="1.93341" stroke-width="0.5" stroke="grey" fill="grey"/>
   </g>
   <g id="cell425">
  <circle cx="137.144" cy="253.983" r="4.97626" stroke-width="0.5" stroke="black" fill="grey"/>
   </g>
   <g id="cell429">
  <circle cx="127.04" cy="165.934" r="5.32735" stroke-width="0.5" stroke="black" fill="grey"/>
   </g>
   <g id="cell567">
  <circle cx="248.793" cy="266.244" r="3.57384" stroke-width="0.5" stroke="black" fill="red"/>
   </g>
   <g id="cell593">
  <circle cx="325.711" cy="121.895" r="6.91993" stroke-width="0.5" stroke="black" fill="red"/>
  <circle cx="325.711" cy="121.895" r="1.62207" stroke-width="0.5" stroke="red" fill="red"/>
   </g>
   <g id="cell606">
  <circle cx="316.266" cy="219.379" r="2.07589" stroke-width="0.5" stroke="black" fill="red"/>
   </g>
   <g id="cell613">
  <circle cx="340.652" cy="185.35" r="6.87915" stroke-width="0.5" stroke="black" fill="red"/>
  <circle cx="340.652" cy="185.35" r="1.43818" stroke-width="0.5" stroke="red" fill="red"/>
   </g>
   <g id="cell615">
  <circle cx="325.299" cy="177.635" r="5.89982" stroke-width="0.5" stroke="black" fill="red"/>
   </g>
   <g id="cell616">
  <circle cx="345.772" cy="235.178" r="5.64233" stroke-width="0.5" stroke="black" fill="red"/>
   </g>
   <g id="cell617">
  <circle cx="353.539" cy="238.72" r="5.50419" stroke-width="0.5" stroke="black" fill="red"/>
   </g>
   <g id="cell623">
  <circle cx="207.588" cy="137.432" r="8.36464" stroke-width="0.5" stroke="black" fill="red"/>
  <circle cx="207.588" cy="137.432" r="4.9712" stroke-width="0.5" stroke="red" fill="red"/>
   </g>
   <g id="cell625">
  <circle cx="198.162" cy="165.175" r="5.94351" stroke-width="0.5" stroke="black" fill="red"/>
   </g>
   <g id="cell626">
  <circle cx="209.888" cy="184.061" r="8.21484" stroke-width="0.5" stroke="black" fill="red"/>
  <circle cx="209.888" cy="184.061" r="4.7148" stroke-width="0.5" stroke="red" fill="red"/>
   </g>
   <g id="cell645">
  <circle cx="253.47" cy="151.819" r="7.68398" stroke-width="0.5" stroke="black" fill="red"/>
  <circle cx="253.47" cy="151.819" r="3.71339" stroke-width="0.5" stroke="red" fill="red"/>
   </g>
   <g id="cell646">
  <circle cx="297.278" cy="155.048" r="8.41184" stroke-width="0.5" stroke="black" fill="red"/>
  <circle cx="297.278" cy="155.048" r="5.05022" stroke-width="0.5" stroke="red" fill="red"/>
   </g>
   <g id="cell647">
  <circle cx="306.635" cy="182.039" r="5.79862" stroke-width="0.5" stroke="black" fill="red"/>
   </g>
   <g id="cell651">
  <circle cx="288.812" cy="294.159" r="6.5837" stroke-width="0.5" stroke="black" fill="red"/>
   </g>
   <g id="cell652">
  <circle cx="241.897" cy="253.751" r="8.32879" stroke-width="0.5" stroke="black" fill="red"/>
  <circle cx="241.897" cy="253.751" r="4.91064" stroke-width="0.5" stroke="red" fill="red"/>
   </g>
   <g id="cell659">
  <circle cx="266.606" cy="226.218" r="8.23844" stroke-width="0.5" stroke="black" fill="red"/>
  <circle cx="266.606" cy="226.218" r="4.7558" stroke-width="0.5" stroke="red" fill="red"/>
   </g>
   <g id="cell661">
  <circle cx="314.193" cy="103.109" r="2.11033" stroke-width="0.5" stroke="black" fill="red"/>
   </g>
   <g id="cell662">
  <circle cx="299.338" cy="139.502" r="7.07357" stroke-width="0.5" stroke="black" fill="red"/>
  <circle cx="299.338" cy="139.502" r="2.18656" stroke-width="0.5" stroke="red" fill="red"/>
   </g>
   <g id="cell663">
  <circle cx="303.092" cy="170.866" r="7.85048" stroke-width="0.5" stroke="black" fill="red"/>
  <circle cx="303.092" cy="170.866" r="4.04669" stroke-width="0.5" stroke="red" fill="red"/>
   </g>
   <g id="cell667">
  <circle cx="359.365" cy="258.573" r="3.39392" stroke-width="0.5" stroke="black" fill="red"/>
   </g>
   <g id="cell668">
  <circle cx="326.212" cy="262.286" r="3.76268" stroke-width="0.5" stroke="black" fill="red"/>
   </g>
   <g id="cell669">
  <circle cx="364.381" cy="113.861" r="7.78675" stroke-width="0.5" stroke="black" fill="red"/>
  <circle cx="364.381" cy="113.861" r="3.92162" stroke-width="0.5" stroke="red" fill="red"/>
   </g>
   <g id="cell677">
  <circle cx="337.827" cy="122.214" r="2.27007" stroke-width="0.5" stroke="black" fill="red"/>
   </g>
   <g id="cell681">
  <circle cx="324.211" cy="276.466" r="6.72495" stroke-width="0.5" stroke="black" fill="red"/>
   </g>
   <g id="cell692">
  <circle cx="179.915" cy="280.661" r="1.60159" stroke-width="0.5" stroke="black" fill="red"/>
   </g>
   <g id="cell694">
  <circle cx="266.257" cy="169.089" r="6.72203" stroke-width="0.5" stroke="black" fill="red"/>
   </g>
   <g id="cell704">
  <circle cx="254.764" cy="228.809" r="4.07772" stroke-width="0.5" stroke="black" fill="red"/>
   </g>
   <g id="cell706">
  <circle cx="241.398" cy="231.657" r="8.4077" stroke-width="0.5" stroke="black" fill="red"/>
  <circle cx="241.398" cy="231.657" r="5.04332" stroke-width="0.5" stroke="red" fill="red"/>
   </g>
   <g id="cell709">
  <circle cx="232.278" cy="122.962" r="6.75907" stroke-width="0.5" stroke="black" fill="red"/>
  <circle cx="232.278" cy="122.962" r="0.656317" stroke-width="0.5" stroke="red" fill="red"/>
   </g>
   <g id="cell710">
  <circle cx="220.113" cy="149.267" r="4.25167" stroke-width="0.5" stroke="black" fill="red"/>
   </g>
   <g id="cell716">
  <circle cx="245.514" cy="298.022" r="7.49388" stroke-width="0.5" stroke="black" fill="red"/>
  <circle cx="245.514" cy="298.022" r="3.3021" stroke-width="0.5" stroke="red" fill="red"/>
   </g>
   <g id="cell738">
  <circle cx="321.43" cy="203.149" r="7.98311" stroke-width="0.5" stroke="black" fill="red"/>
  <circle cx="321.43" cy="203.149" r="4.29835" stroke-width="0.5" stroke="red" fill="red"/>
   </g>
   <g id="cell741">
  <circle cx="300.877" cy="280.272" r="8.14647" stroke-width="0.5" stroke="black" fill="red"/>
  <circle cx="300.877" cy="280.272" r="4.59463" stroke-width="0.5" stroke="red" fill="red"/>
   </g>
   <g id="cell743">
  <circle cx="349.544" cy="173.619" r="3.28957" stroke-width="0.5" stroke="black" fill="red"/>
   </g>
   <g id="cell746">
  <circle cx="320.144" cy="222.931" r="5.27389" stroke-width="0.5" stroke="black" fill="red"/>
   </g>
   <g id="cell759">
  <circle cx="225.663" cy="228.745" r="7.96591" stroke-width="0.5" stroke="black" fill="red"/>
  <circle cx="225.663" cy="228.745" r="4.26631" stroke-width="0.5" stroke="red" fill="red"/>
   </g>
   <g id="cell763">
  <circle cx="241.951" cy="206.421" r="4.04012" stroke-width="0.5" stroke="black" fill="red"/>
   </g>
   <g id="cell767">
  <circle cx="225.562" cy="112.843" r="6.10222" stroke-width="0.5" stroke="black" fill="red"/>
   </g>
   <g id="cell769">
  <circle cx="246.638" cy="188.607" r="8.35763" stroke-width="0.5" stroke="black" fill="red"/>
  <circle cx="246.638" cy="188.607" r="4.9594" stroke-width="0.5" stroke="red" fill="red"/>
   </g>
   <g id="cell772">
  <circle cx="192.48" cy="200.086" r="7.80917" stroke-width="0.5" stroke="black" fill="red"/>
  <circle cx="192.48" cy="200.086" r="3.96596" stroke-width="0.5" stroke="red" fill="red"/>
   </g>
   <g id="cell787">
  <circle cx="284.09" cy="162.166" r="8.30665" stroke-width="0.5" stroke="black" fill="red"/>
  <circle cx="284.09" cy="162.166" r="4.873" stroke-width="0.5" stroke="red" fill="red"/>
   </g>
   <g id="cell794">
  <circle cx="256.077" cy="178.785" r="8.33544" stroke-width="0.5" stroke="black" fill="red"/>
  <circle cx="256.077" cy="178.785" r="4.92192" stroke-width="0.5" stroke="red" fill="red"/>
   </g>
   <g id="cell805">
  <circle cx="342.876" cy="251.863" r="8.23423" stroke-width="0.5" stroke="black" fill="red"/>
  <circle cx="342.876" cy="251.863" r="4.74849" stroke-width="0.5" stroke="red" fill="red"/>
   </g>
   <g id="cell807">
  <circle cx="293.804" cy="266.076" r="8.38762" stroke-width="0.5" stroke="black" fill="red"/>
  <circle cx="293.804" cy="266.076" r="5.00977" stroke-width="0.5" stroke="red" fill="red"/>
   </g>
   <g id="cell814">
  <circle cx="298.241" cy="221.047" r="8.35774" stroke-width="0.5" stroke="black" fill="red"/>
  <circle cx="298.241" cy="221.047" r="4.95959" stroke-width="0.5" stroke="red" fill="red"/>
   </g>
   <g id="cell843">
  <circle cx="236.928" cy="262.86" r="3.09052" stroke-width="0.5" stroke="black" fill="red"/>
   </g>
   <g id="cell845">
  <circle cx="256.3" cy="136.313" r="8.33528" stroke-width="0.5" stroke="black" fill="red"/>
  <circle cx="256.3" cy="136.313" r="4.92164" stroke-width="0.5" stroke="red" fill="red"/>
   </g>
   <g id="cell862">
  <circle cx="300.716" cy="123.918" r="4.17258" stroke-width="0.5" stroke="black" fill="red"/>
   </g>
   <g id="cell873">
  <circle cx="335.438" cy="196.937" r="8.40089" stroke-width="0.5" stroke="black" fill="red"/>
  <circle cx="335.438" cy="196.937" r="5.03195" stroke-width="0.5" stroke="red" fill="red"/>
   </g>
   <g id="cell877">
  <circle cx="325.004" cy="100.9" r="8.40164" stroke-width="0.5" stroke="black" fill="red"/>
  <circle cx="325.004" cy="100.9" r="5.03321" stroke-width="0.5" stroke="red" fill="red"/>
   </g>
   <g id="cell890">
  <circle cx="232.785" cy="157.232" r="8.40001" stroke-width="0.5" stroke="black" fill="red"/>
  <circle cx="232.785" cy="157.232" r="5.0305" stroke-width="0.5" stroke="red" fill="red"/>
   </g>
   <g id="cell906">
  <circle cx="243.382" cy="200.25" r="6.6756" stroke-width="0.5" stroke="black" fill="red"/>
   </g>
   <g id="cell911">
  <circle cx="287.087" cy="228.147" r="7.28153" stroke-width="0.5" stroke="black" fill="red"/>
  <circle cx="287.087" cy="228.147" r="2.78681" stroke-width="0.5" stroke="red" fill="red"/>
   </g>
   <g id="cell935">
  <circle cx="312.459" cy="264.331" r="7.26656" stroke-width="0.5" stroke="black" fill="red"/>
  <circle cx="312.459" cy="264.331" r="2.74747" stroke-width="0.5" stroke="red" fill="red"/>
   </g>
   <g id="cell939">
  <circle cx="348.41" cy="225.168" r="6.94652" stroke-width="0.5" stroke="black" fill="red"/>
  <circle cx="348.41" cy="225.168" r="1.732" stroke-width="0.5" stroke="red" fill="red"/>
   </g>
  </g>
 </g>
  <rect x="190" y="414" width="200" height="4" stroke-width="0.8" stroke="rgb(255,255,255)" fill="rgb(0,0,0)"/>
  <text x="192.5" y="411.5"
   font-family="Arial" font-size="10" fill="black" >
   200 &#956;m
  </text>
  <text x="10" y="418"
   font-family="Arial" font-size="7.5" fill="black" >
   0 days, 0 hours, 7 minutes, and 48.9156 seconds
  </text>
  <rect x="0" y="28" width="400" height="400" stroke-width="0.8" stroke="rgb(0,0,0)" fill="none"/>
</svg>
