<?xml version="1.0" encoding="UTF-8" standalone="no"?>
<!-- Created with PhysiCell (http://PhysiCell.MathCancer.org/) -->
<svg 
 xmlns:dc="http://purl.org/dc/elements/1.1/" 
 xmlns:cc="http://creativecommons.org/ns#" 
 xmlns:rdf="http://www.w3.org/1999/02/22-rdf-syntax-ns#" 
 xmlns:svg="http://www.w3.org/2000/svg" 
 xmlns="http://www.w3.org/2000/svg" 
 version="1.1" 
 width="400" 
 height="428" 
 id="svg2">
  <rect x="0" y="0" width="400" height="428" stroke-width="0.8" stroke="white" fill="white"/>
  <text x="5" y="12"
   font-family="Arial" font-size="10" fill="black" >
   Current time: 3 days, 19 hours, and 0.00 minutes, z = 0.00 &#956;m
  </text>
  <text x="5" y="23"
   font-family="Arial" font-size="9.5" fill="black" >
   978 agents
  </text>
 <g id="tissue" 
    transform="translate(0,428) scale(1,-1)">
  <g id="ECM">
  </g>
  <g id="cells">
   <g id="cell4">
  <circle cx="114.054" cy="240.921" r="6.2004" stroke-width="0.5" stroke="black" fill="grey"/>
   </g>
   <g id="cell7">
  <circle cx="76.7953" cy="171.162" r="5.75621" stroke-width="0.5" stroke="black" fill="grey"/>
   </g>
   <g id="cell35">
  <circle cx="214.411" cy="168.204" r="7.84613" stroke-width="0.5" stroke="black" fill="grey"/>
  <circle cx="214.411" cy="168.204" r="4.03824" stroke-width="0.5" stroke="grey" fill="grey"/>
   </g>
   <g id="cell39">
  <circle cx="49.4312" cy="189.52" r="5.40855" stroke-width="0.5" stroke="black" fill="grey"/>
   </g>
   <g id="cell58">
  <circle cx="203.237" cy="263.41" r="8.41243" stroke-width="0.5" stroke="black" fill="grey"/>
  <circle cx="203.237" cy="263.41" r="5.05121" stroke-width="0.5" stroke="grey" fill="grey"/>
   </g>
   <g id="cell59">
  <circle cx="66.2329" cy="216.249" r="5.26926" stroke-width="0.5" stroke="black" fill="grey"/>
   </g>
   <g id="cell90">
  <circle cx="82.8465" cy="154.58" r="4.37359" stroke-width="0.5" stroke="black" fill="grey"/>
   </g>
   <g id="cell93">
  <circle cx="8.29353" cy="275.258" r="3.52552" stroke-width="0.5" stroke="black" fill="grey"/>
   </g>
   <g id="cell125">
  <circle cx="120.126" cy="43.0016" r="8.41236" stroke-width="0.5" stroke="black" fill="grey"/>
  <circle cx="120.126" cy="43.0016" r="5.05108" stroke-width="0.5" stroke="grey" fill="grey"/>
   </g>
   <g id="cell142">
  <circle cx="124.608" cy="148.825" r="4.31102" stroke-width="0.5" stroke="black" fill="grey"/>
   </g>
   <g id="cell145">
  <circle cx="156.634" cy="215.42" r="6.18818" stroke-width="0.5" stroke="black" fill="grey"/>
   </g>
   <g id="cell148">
  <circle cx="82.1244" cy="124.992" r="8.32915" stroke-width="0.5" stroke="black" fill="grey"/>
  <circle cx="82.1244" cy="124.992" r="4.91125" stroke-width="0.5" stroke="grey" fill="grey"/>
   </g>
   <g id="cell166">
  <circle cx="179.626" cy="122.734" r="3.85767" stroke-width="0.5" stroke="black" fill="grey"/>
   </g>
   <g id="cell174">
  <circle cx="141.163" cy="254.375" r="7.83463" stroke-width="0.5" stroke="black" fill="grey"/>
  <circle cx="141.163" cy="254.375" r="4.01585" stroke-width="0.5" stroke="grey" fill="grey"/>
   </g>
   <g id="cell181">
  <circle cx="141.648" cy="81.502" r="2.75536" stroke-width="0.5" stroke="black" fill="grey"/>
   </g>
   <g id="cell190">
  <circle cx="201.349" cy="75.5749" r="6.26819" stroke-width="0.5" stroke="black" fill="grey"/>
   </g>
   <g id="cell204">
  <circle cx="32.7247" cy="147.919" r="4.35528" stroke-width="0.5" stroke="black" fill="grey"/>
   </g>
   <g id="cell205">
  <circle cx="11.8924" cy="163.524" r="6.60697" stroke-width="0.5" stroke="black" fill="grey"/>
   </g>
   <g id="cell231">
  <circle cx="160.615" cy="238.465" r="6.6829" stroke-width="0.5" stroke="black" fill="grey"/>
   </g>
   <g id="cell232">
  <circle cx="72.7529" cy="194.407" r="8.18526" stroke-width="0.5" stroke="black" fill="grey"/>
  <circle cx="72.7529" cy="194.407" r="4.66307" stroke-width="0.5" stroke="grey" fill="grey"/>
   </g>
   <g id="cell246">
  <circle cx="121.846" cy="27.718" r="8.10992" stroke-width="0.5" stroke="black" fill="grey"/>
  <circle cx="121.846" cy="27.718" r="4.52952" stroke-width="0.5" stroke="grey" fill="grey"/>
   </g>
   <g id="cell300">
  <circle cx="136.699" cy="300.223" r="2.59342" stroke-width="0.5" stroke="black" fill="grey"/>
   </g>
   <g id="cell302">
  <circle cx="108.243" cy="250.999" r="6.60616" stroke-width="0.5" stroke="black" fill="grey"/>
   </g>
   <g id="cell306">
  <circle cx="271.824" cy="211.98" r="5.03587" stroke-width="0.5" stroke="black" fill="grey"/>
   </g>
   <g id="cell339">
  <circle cx="124.133" cy="296.921" r="8.24502" stroke-width="0.5" stroke="black" fill="grey"/>
  <circle cx="124.133" cy="296.921" r="4.76719" stroke-width="0.5" stroke="grey" fill="grey"/>
   </g>
   <g id="cell375">
  <circle cx="129.508" cy="161.451" r="7.84646" stroke-width="0.5" stroke="black" fill="grey"/>
  <circle cx="129.508" cy="161.451" r="4.03889" stroke-width="0.5" stroke="grey" fill="grey"/>
   </g>
   <g id="cell388">
  <circle cx="232.644" cy="92.9513" r="6.38891" stroke-width="0.5" stroke="black" fill="grey"/>
   </g>
   <g id="cell402">
  <circle cx="11.9186" cy="269.529" r="3.64083" stroke-width="0.5" stroke="black" fill="grey"/>
   </g>
   <g id="cell468">
  <circle cx="45.8159" cy="302.554" r="6.32298" stroke-width="0.5" stroke="black" fill="grey"/>
   </g>
   <g id="cell479">
  <circle cx="203.476" cy="194.68" r="8.21462" stroke-width="0.5" stroke="black" fill="grey"/>
  <circle cx="203.476" cy="194.68" r="4.7144" stroke-width="0.5" stroke="grey" fill="grey"/>
   </g>
   <g id="cell497">
  <circle cx="339.666" cy="189.611" r="8.01825" stroke-width="0.5" stroke="black" fill="red"/>
  <circle cx="339.666" cy="189.611" r="4.36325" stroke-width="0.5" stroke="red" fill="red"/>
   </g>
   <g id="cell511">
  <circle cx="272.808" cy="170.725" r="7.84436" stroke-width="0.5" stroke="black" fill="red"/>
  <circle cx="272.808" cy="170.725" r="4.0348" stroke-width="0.5" stroke="red" fill="red"/>
   </g>
   <g id="cell542">
  <circle cx="296.376" cy="325.979" r="8.39518" stroke-width="0.5" stroke="black" fill="red"/>
  <circle cx="296.376" cy="325.979" r="5.02242" stroke-width="0.5" stroke="red" fill="red"/>
   </g>
   <g id="cell550">
  <circle cx="347.626" cy="173.942" r="7.37683" stroke-width="0.5" stroke="black" fill="red"/>
  <circle cx="347.626" cy="173.942" r="3.02708" stroke-width="0.5" stroke="red" fill="red"/>
   </g>
   <g id="cell558">
  <circle cx="271.567" cy="294.264" r="6.94397" stroke-width="0.5" stroke="black" fill="red"/>
  <circle cx="271.567" cy="294.264" r="1.72173" stroke-width="0.5" stroke="red" fill="red"/>
   </g>
   <g id="cell581">
  <circle cx="296.318" cy="109.315" r="8.38296" stroke-width="0.5" stroke="black" fill="red"/>
  <circle cx="296.318" cy="109.315" r="5.00196" stroke-width="0.5" stroke="red" fill="red"/>
   </g>
   <g id="cell601">
  <circle cx="361.321" cy="141.71" r="3.02314" stroke-width="0.5" stroke="black" fill="red"/>
   </g>
   <g id="cell605">
  <circle cx="353.838" cy="222.191" r="7.04267" stroke-width="0.5" stroke="black" fill="red"/>
  <circle cx="353.838" cy="222.191" r="2.08445" stroke-width="0.5" stroke="red" fill="red"/>
   </g>
   <g id="cell635">
  <circle cx="247.478" cy="310.086" r="6.04986" stroke-width="0.5" stroke="black" fill="red"/>
   </g>
   <g id="cell636">
  <circle cx="294.76" cy="60.2811" r="8.41039" stroke-width="0.5" stroke="black" fill="red"/>
  <circle cx="294.76" cy="60.2811" r="5.04781" stroke-width="0.5" stroke="red" fill="red"/>
   </g>
   <g id="cell643">
  <circle cx="278.619" cy="221.344" r="6.79374" stroke-width="0.5" stroke="black" fill="red"/>
  <circle cx="278.619" cy="221.344" r="0.948993" stroke-width="0.5" stroke="red" fill="red"/>
   </g>
   <g id="cell649">
  <circle cx="362.651" cy="159.935" r="2.64794" stroke-width="0.5" stroke="black" fill="red"/>
   </g>
   <g id="cell652">
  <circle cx="231.862" cy="282.987" r="8.02583" stroke-width="0.5" stroke="black" fill="red"/>
  <circle cx="231.862" cy="282.987" r="4.37718" stroke-width="0.5" stroke="red" fill="red"/>
   </g>
   <g id="cell671">
  <circle cx="331.799" cy="251.385" r="8.26951" stroke-width="0.5" stroke="black" fill="red"/>
  <circle cx="331.799" cy="251.385" r="4.80941" stroke-width="0.5" stroke="red" fill="red"/>
   </g>
   <g id="cell709">
  <circle cx="216.864" cy="117.003" r="5.02813" stroke-width="0.5" stroke="black" fill="red"/>
   </g>
   <g id="cell710">
  <circle cx="234.98" cy="247.126" r="2.58616" stroke-width="0.5" stroke="black" fill="red"/>
   </g>
   <g id="cell728">
  <circle cx="325.522" cy="95.6114" r="6.94868" stroke-width="0.5" stroke="black" fill="red"/>
  <circle cx="325.522" cy="95.6114" r="1.74063" stroke-width="0.5" stroke="red" fill="red"/>
   </g>
   <g id="cell742">
  <circle cx="302.029" cy="78.3575" r="8.40875" stroke-width="0.5" stroke="black" fill="red"/>
  <circle cx="302.029" cy="78.3575" r="5.04507" stroke-width="0.5" stroke="red" fill="red"/>
   </g>
   <g id="cell751">
  <circle cx="315.726" cy="161.748" r="8.2238" stroke-width="0.5" stroke="black" fill="red"/>
  <circle cx="315.726" cy="161.748" r="4.73039" stroke-width="0.5" stroke="red" fill="red"/>
   </g>
   <g id="cell788">
  <circle cx="248.778" cy="172.527" r="8.40435" stroke-width="0.5" stroke="black" fill="red"/>
  <circle cx="248.778" cy="172.527" r="5.03774" stroke-width="0.5" stroke="red" fill="red"/>
   </g>
   <g id="cell802">
  <circle cx="295.904" cy="132.808" r="7.47662" stroke-width="0.5" stroke="black" fill="red"/>
  <circle cx="295.904" cy="132.808" r="3.26275" stroke-width="0.5" stroke="red" fill="red"/>
   </g>
   <g id="cell819">
  <circle cx="360.401" cy="207.342" r="8.39906" stroke-width="0.5" stroke="black" fill="red"/>
  <circle cx="360.401" cy="207.342" r="5.0289" stroke-width="0.5" stroke="red" fill="red"/>
   </g>
   <g id="cell831">
  <circle cx="185.402" cy="200.751" r="8.4122" stroke-width="0.5" stroke="black" fill="red"/>
  <circle cx="185.402" cy="200.751" r="5.05083" stroke-width="0.5" stroke="red" fill="red"/>
   </g>
   <g id="cell859">
  <circle cx="314.11" cy="207.655" r="6.40996" stroke-width="0.5" stroke="black" fill="red"/>
   </g>
   <g id="cell867">
  <circle cx="266.31" cy="367.822" r="8.41175" stroke-width="0.5" stroke="black" fill="red"/>
  <circle cx="266.31" cy="367.822" r="5.05008" stroke-width="0.5" stroke="red" fill="red"/>
   </g>
   <g id="cell881">
  <circle cx="317.252" cy="74.3378" r="4.1368" stroke-width="0.5" stroke="black" fill="red"/>
   </g>
   <g id="cell886">
  <circle cx="335.588" cy="269.858" r="7.72524" stroke-width="0.5" stroke="black" fill="red"/>
  <circle cx="335.588" cy="269.858" r="3.79803" stroke-width="0.5" stroke="red" fill="red"/>
   </g>
   <g id="cell899">
  <circle cx="237.111" cy="321.189" r="7.96855" stroke-width="0.5" stroke="black" fill="red"/>
  <circle cx="237.111" cy="321.189" r="4.27123" stroke-width="0.5" stroke="red" fill="red"/>
   </g>
   <g id="cell911">
  <circle cx="356.699" cy="259.699" r="7.53532" stroke-width="0.5" stroke="black" fill="red"/>
  <circle cx="356.699" cy="259.699" r="3.39511" stroke-width="0.5" stroke="red" fill="red"/>
   </g>
   <g id="cell935">
  <circle cx="330.488" cy="296.457" r="8.15555" stroke-width="0.5" stroke="black" fill="red"/>
  <circle cx="330.488" cy="296.457" r="4.61071" stroke-width="0.5" stroke="red" fill="red"/>
   </g>
   <g id="cell971">
  <circle cx="224.618" cy="187.356" r="8.3879" stroke-width="0.5" stroke="black" fill="red"/>
  <circle cx="224.618" cy="187.356" r="5.01024" stroke-width="0.5" stroke="red" fill="red"/>
   </g>
   <g id="cell974">
  <circle cx="258.24" cy="91.5868" r="6.62548" stroke-width="0.5" stroke="black" fill="red"/>
   </g>
  </g>
 </g>
  <rect x="190" y="414" width="200" height="4" stroke-width="0.8" stroke="rgb(255,255,255)" fill="rgb(0,0,0)"/>
  <text x="192.5" y="411.5"
   font-family="Arial" font-size="10" fill="black" >
   200 &#956;m
  </text>
  <text x="10" y="418"
   font-family="Arial" font-size="7.5" fill="black" >
   0 days, 0 hours, 24 minutes, and 40.2877 seconds
  </text>
  <rect x="0" y="28" width="400" height="400" stroke-width="0.8" stroke="rgb(0,0,0)" fill="none"/>
</svg>
