<?xml version="1.0" encoding="UTF-8" standalone="no"?>
<!-- Created with PhysiCell (http://PhysiCell.MathCancer.org/) -->
<svg 
 xmlns:dc="http://purl.org/dc/elements/1.1/" 
 xmlns:cc="http://creativecommons.org/ns#" 
 xmlns:rdf="http://www.w3.org/1999/02/22-rdf-syntax-ns#" 
 xmlns:svg="http://www.w3.org/2000/svg" 
 xmlns="http://www.w3.org/2000/svg" 
 version="1.1" 
 width="400" 
 height="428" 
 id="svg2">
  <rect x="0" y="0" width="400" height="428" stroke-width="0.8" stroke="white" fill="white"/>
  <text x="5" y="12"
   font-family="Arial" font-size="10" fill="black" >
   Current time: 1 days, 13 hours, and 0.00 minutes, z = 0.00 &#956;m
  </text>
  <text x="5" y="23"
   font-family="Arial" font-size="9.5" fill="black" >
   978 agents
  </text>
 <g id="tissue" 
    transform="translate(0,428) scale(1,-1)">
  <g id="ECM">
  </g>
  <g id="cells">
   <g id="cell102">
  <circle cx="86.3082" cy="221.923" r="8.00681" stroke-width="0.5" stroke="black" fill="grey"/>
  <circle cx="86.3082" cy="221.923" r="4.3422" stroke-width="0.5" stroke="grey" fill="grey"/>
   </g>
   <g id="cell120">
  <circle cx="192.366" cy="162.936" r="8.07341" stroke-width="0.5" stroke="black" fill="grey"/>
  <circle cx="192.366" cy="162.936" r="4.46382" stroke-width="0.5" stroke="grey" fill="grey"/>
   </g>
   <g id="cell137">
  <circle cx="31.4675" cy="189.179" r="6.75816" stroke-width="0.5" stroke="black" fill="grey"/>
  <circle cx="31.4675" cy="189.179" r="0.646796" stroke-width="0.5" stroke="grey" fill="grey"/>
   </g>
   <g id="cell159">
  <circle cx="94.3233" cy="208.712" r="7.40956" stroke-width="0.5" stroke="black" fill="grey"/>
  <circle cx="94.3233" cy="208.712" r="3.106" stroke-width="0.5" stroke="grey" fill="grey"/>
   </g>
   <g id="cell170">
  <circle cx="76.8744" cy="260.023" r="3.15203" stroke-width="0.5" stroke="black" fill="grey"/>
   </g>
   <g id="cell173">
  <circle cx="129.563" cy="104.891" r="7.06075" stroke-width="0.5" stroke="black" fill="grey"/>
  <circle cx="129.563" cy="104.891" r="2.14472" stroke-width="0.5" stroke="grey" fill="grey"/>
   </g>
   <g id="cell178">
  <circle cx="117.943" cy="207.575" r="8.18931" stroke-width="0.5" stroke="black" fill="grey"/>
  <circle cx="117.943" cy="207.575" r="4.67017" stroke-width="0.5" stroke="grey" fill="grey"/>
   </g>
   <g id="cell179">
  <circle cx="133.098" cy="244.872" r="6.03257" stroke-width="0.5" stroke="black" fill="grey"/>
   </g>
   <g id="cell181">
  <circle cx="135.925" cy="91.2073" r="8.131" stroke-width="0.5" stroke="black" fill="grey"/>
  <circle cx="135.925" cy="91.2073" r="4.56715" stroke-width="0.5" stroke="grey" fill="grey"/>
   </g>
   <g id="cell195">
  <circle cx="12.118" cy="159.531" r="2.44878" stroke-width="0.5" stroke="black" fill="grey"/>
   </g>
   <g id="cell221">
  <circle cx="94.2842" cy="123.734" r="7.8125" stroke-width="0.5" stroke="black" fill="grey"/>
  <circle cx="94.2842" cy="123.734" r="3.9725" stroke-width="0.5" stroke="grey" fill="grey"/>
   </g>
   <g id="cell229">
  <circle cx="101.086" cy="101.612" r="7.85758" stroke-width="0.5" stroke="black" fill="grey"/>
  <circle cx="101.086" cy="101.612" r="4.06046" stroke-width="0.5" stroke="grey" fill="grey"/>
   </g>
   <g id="cell251">
  <circle cx="115.591" cy="279.052" r="8.41067" stroke-width="0.5" stroke="black" fill="grey"/>
  <circle cx="115.591" cy="279.052" r="5.04827" stroke-width="0.5" stroke="grey" fill="grey"/>
   </g>
   <g id="cell252">
  <circle cx="144.246" cy="230.784" r="4.63663" stroke-width="0.5" stroke="black" fill="grey"/>
   </g>
   <g id="cell261">
  <circle cx="191.754" cy="148.308" r="8.24992" stroke-width="0.5" stroke="black" fill="grey"/>
  <circle cx="191.754" cy="148.308" r="4.77565" stroke-width="0.5" stroke="grey" fill="grey"/>
   </g>
   <g id="cell271">
  <circle cx="74.0568" cy="243.298" r="5.74526" stroke-width="0.5" stroke="black" fill="grey"/>
   </g>
   <g id="cell276">
  <circle cx="65.1873" cy="156.258" r="7.74655" stroke-width="0.5" stroke="black" fill="grey"/>
  <circle cx="65.1873" cy="156.258" r="3.84118" stroke-width="0.5" stroke="grey" fill="grey"/>
   </g>
   <g id="cell277">
  <circle cx="85.0925" cy="279.466" r="7.01305" stroke-width="0.5" stroke="black" fill="grey"/>
  <circle cx="85.0925" cy="279.466" r="1.98205" stroke-width="0.5" stroke="grey" fill="grey"/>
   </g>
   <g id="cell281">
  <circle cx="105.145" cy="136.999" r="7.49999" stroke-width="0.5" stroke="black" fill="grey"/>
  <circle cx="105.145" cy="136.999" r="3.31595" stroke-width="0.5" stroke="grey" fill="grey"/>
   </g>
   <g id="cell284">
  <circle cx="57.1177" cy="270.406" r="7.74362" stroke-width="0.5" stroke="black" fill="grey"/>
  <circle cx="57.1177" cy="270.406" r="3.83527" stroke-width="0.5" stroke="grey" fill="grey"/>
   </g>
   <g id="cell286">
  <circle cx="159.465" cy="91.0252" r="6.78737" stroke-width="0.5" stroke="black" fill="grey"/>
  <circle cx="159.465" cy="91.0252" r="0.90224" stroke-width="0.5" stroke="grey" fill="grey"/>
   </g>
   <g id="cell288">
  <circle cx="68.7341" cy="137.051" r="8.39698" stroke-width="0.5" stroke="black" fill="grey"/>
  <circle cx="68.7341" cy="137.051" r="5.02543" stroke-width="0.5" stroke="grey" fill="grey"/>
   </g>
   <g id="cell298">
  <circle cx="115.214" cy="190.722" r="0.754527" stroke-width="0.5" stroke="black" fill="grey"/>
   </g>
   <g id="cell300">
  <circle cx="120.939" cy="299.044" r="6.33864" stroke-width="0.5" stroke="black" fill="grey"/>
   </g>
   <g id="cell309">
  <circle cx="178.932" cy="203.304" r="8.11572" stroke-width="0.5" stroke="black" fill="grey"/>
  <circle cx="178.932" cy="203.304" r="4.53988" stroke-width="0.5" stroke="grey" fill="grey"/>
   </g>
   <g id="cell314">
  <circle cx="156.426" cy="222.331" r="5.35237" stroke-width="0.5" stroke="black" fill="grey"/>
   </g>
   <g id="cell326">
  <circle cx="202.447" cy="254.957" r="3.47945" stroke-width="0.5" stroke="black" fill="grey"/>
   </g>
   <g id="cell344">
  <circle cx="14.7084" cy="193.261" r="6.74311" stroke-width="0.5" stroke="black" fill="grey"/>
  <circle cx="14.7084" cy="193.261" r="0.463953" stroke-width="0.5" stroke="grey" fill="grey"/>
   </g>
   <g id="cell375">
  <circle cx="136.6" cy="186.312" r="5.15982" stroke-width="0.5" stroke="black" fill="grey"/>
   </g>
   <g id="cell394">
  <circle cx="202.246" cy="303.004" r="8.33605" stroke-width="0.5" stroke="black" fill="grey"/>
  <circle cx="202.246" cy="303.004" r="4.92294" stroke-width="0.5" stroke="grey" fill="grey"/>
   </g>
   <g id="cell397">
  <circle cx="187.231" cy="234.789" r="8.22586" stroke-width="0.5" stroke="black" fill="grey"/>
  <circle cx="187.231" cy="234.789" r="4.73396" stroke-width="0.5" stroke="grey" fill="grey"/>
   </g>
   <g id="cell421">
  <circle cx="112.649" cy="154.199" r="5.10402" stroke-width="0.5" stroke="black" fill="grey"/>
   </g>
   <g id="cell423">
  <circle cx="108.145" cy="237.206" r="7.08897" stroke-width="0.5" stroke="black" fill="grey"/>
  <circle cx="108.145" cy="237.206" r="2.23587" stroke-width="0.5" stroke="grey" fill="grey"/>
   </g>
   <g id="cell435">
  <circle cx="162.969" cy="107.277" r="8.39354" stroke-width="0.5" stroke="black" fill="grey"/>
  <circle cx="162.969" cy="107.277" r="5.01969" stroke-width="0.5" stroke="grey" fill="grey"/>
   </g>
   <g id="cell437">
  <circle cx="132.253" cy="201.162" r="8.27003" stroke-width="0.5" stroke="black" fill="grey"/>
  <circle cx="132.253" cy="201.162" r="4.81031" stroke-width="0.5" stroke="grey" fill="grey"/>
   </g>
   <g id="cell464">
  <circle cx="121.229" cy="139.576" r="8.39781" stroke-width="0.5" stroke="black" fill="grey"/>
  <circle cx="121.229" cy="139.576" r="5.02682" stroke-width="0.5" stroke="grey" fill="grey"/>
   </g>
   <g id="cell524">
  <circle cx="229.215" cy="141.189" r="2.79606" stroke-width="0.5" stroke="black" fill="red"/>
   </g>
   <g id="cell536">
  <circle cx="219.126" cy="258.665" r="6.92587" stroke-width="0.5" stroke="black" fill="red"/>
  <circle cx="219.126" cy="258.665" r="1.64721" stroke-width="0.5" stroke="red" fill="red"/>
   </g>
   <g id="cell538">
  <circle cx="285.186" cy="170.47" r="8.40565" stroke-width="0.5" stroke="black" fill="red"/>
  <circle cx="285.186" cy="170.47" r="5.03991" stroke-width="0.5" stroke="red" fill="red"/>
   </g>
   <g id="cell600">
  <circle cx="314.03" cy="142.006" r="6.54152" stroke-width="0.5" stroke="black" fill="red"/>
   </g>
   <g id="cell605">
  <circle cx="341.941" cy="205.344" r="5.1586" stroke-width="0.5" stroke="black" fill="red"/>
   </g>
   <g id="cell623">
  <circle cx="213.153" cy="139.53" r="8.31236" stroke-width="0.5" stroke="black" fill="red"/>
  <circle cx="213.153" cy="139.53" r="4.88273" stroke-width="0.5" stroke="red" fill="red"/>
   </g>
   <g id="cell626">
  <circle cx="221.869" cy="185.895" r="8.40616" stroke-width="0.5" stroke="black" fill="red"/>
  <circle cx="221.869" cy="185.895" r="5.04076" stroke-width="0.5" stroke="red" fill="red"/>
   </g>
   <g id="cell630">
  <circle cx="150.106" cy="121.325" r="8.4123" stroke-width="0.5" stroke="black" fill="red"/>
  <circle cx="150.106" cy="121.325" r="5.05098" stroke-width="0.5" stroke="red" fill="red"/>
   </g>
   <g id="cell633">
  <circle cx="246.078" cy="236.367" r="5.25956" stroke-width="0.5" stroke="black" fill="red"/>
   </g>
   <g id="cell635">
  <circle cx="227.452" cy="305.58" r="6.73266" stroke-width="0.5" stroke="black" fill="red"/>
  <circle cx="227.452" cy="305.58" r="0.272793" stroke-width="0.5" stroke="red" fill="red"/>
   </g>
   <g id="cell647">
  <circle cx="318.991" cy="202.872" r="8.24298" stroke-width="0.5" stroke="black" fill="red"/>
  <circle cx="318.991" cy="202.872" r="4.76365" stroke-width="0.5" stroke="red" fill="red"/>
   </g>
   <g id="cell649">
  <circle cx="295.748" cy="178.496" r="7.00339" stroke-width="0.5" stroke="black" fill="red"/>
  <circle cx="295.748" cy="178.496" r="1.94762" stroke-width="0.5" stroke="red" fill="red"/>
   </g>
   <g id="cell652">
  <circle cx="194.92" cy="266.439" r="5.42675" stroke-width="0.5" stroke="black" fill="red"/>
   </g>
   <g id="cell656">
  <circle cx="298.357" cy="192.77" r="7.19609" stroke-width="0.5" stroke="black" fill="red"/>
  <circle cx="298.357" cy="192.77" r="2.55528" stroke-width="0.5" stroke="red" fill="red"/>
   </g>
   <g id="cell661">
  <circle cx="305.745" cy="118.841" r="6.57362" stroke-width="0.5" stroke="black" fill="red"/>
   </g>
   <g id="cell667">
  <circle cx="346.066" cy="255.287" r="8.41112" stroke-width="0.5" stroke="black" fill="red"/>
  <circle cx="346.066" cy="255.287" r="5.04901" stroke-width="0.5" stroke="red" fill="red"/>
   </g>
   <g id="cell668">
  <circle cx="311.205" cy="250.508" r="7.62985" stroke-width="0.5" stroke="black" fill="red"/>
  <circle cx="311.205" cy="250.508" r="3.60004" stroke-width="0.5" stroke="red" fill="red"/>
   </g>
   <g id="cell702">
  <circle cx="242.875" cy="206.476" r="6.89615" stroke-width="0.5" stroke="black" fill="red"/>
  <circle cx="242.875" cy="206.476" r="1.51742" stroke-width="0.5" stroke="red" fill="red"/>
   </g>
   <g id="cell705">
  <circle cx="259.989" cy="221.126" r="8.40439" stroke-width="0.5" stroke="black" fill="red"/>
  <circle cx="259.989" cy="221.126" r="5.03781" stroke-width="0.5" stroke="red" fill="red"/>
   </g>
   <g id="cell706">
  <circle cx="220.041" cy="231.843" r="3.07418" stroke-width="0.5" stroke="black" fill="red"/>
   </g>
   <g id="cell709">
  <circle cx="220.552" cy="125.07" r="5.4633" stroke-width="0.5" stroke="black" fill="red"/>
   </g>
   <g id="cell725">
  <circle cx="285.117" cy="80.9753" r="3.65757" stroke-width="0.5" stroke="black" fill="red"/>
   </g>
   <g id="cell743">
  <circle cx="391.644" cy="185.402" r="5.75709" stroke-width="0.5" stroke="black" fill="red"/>
   </g>
   <g id="cell751">
  <circle cx="359.401" cy="188.593" r="4.33051" stroke-width="0.5" stroke="black" fill="red"/>
   </g>
   <g id="cell756">
  <circle cx="209.798" cy="166.942" r="8.3635" stroke-width="0.5" stroke="black" fill="red"/>
  <circle cx="209.798" cy="166.942" r="4.96928" stroke-width="0.5" stroke="red" fill="red"/>
   </g>
   <g id="cell763">
  <circle cx="222.533" cy="216.994" r="7.00575" stroke-width="0.5" stroke="black" fill="red"/>
  <circle cx="222.533" cy="216.994" r="1.95606" stroke-width="0.5" stroke="red" fill="red"/>
   </g>
   <g id="cell771">
  <circle cx="208.678" cy="202.372" r="8.34751" stroke-width="0.5" stroke="black" fill="red"/>
  <circle cx="208.678" cy="202.372" r="4.94233" stroke-width="0.5" stroke="red" fill="red"/>
   </g>
   <g id="cell780">
  <circle cx="273.487" cy="268.77" r="7.68514" stroke-width="0.5" stroke="black" fill="red"/>
  <circle cx="273.487" cy="268.77" r="3.71578" stroke-width="0.5" stroke="red" fill="red"/>
   </g>
   <g id="cell787">
  <circle cx="250.114" cy="140.745" r="2.96353" stroke-width="0.5" stroke="black" fill="red"/>
   </g>
   <g id="cell805">
  <circle cx="327.695" cy="274.632" r="1.29589" stroke-width="0.5" stroke="black" fill="red"/>
   </g>
   <g id="cell814">
  <circle cx="300.695" cy="230.7" r="8.12837" stroke-width="0.5" stroke="black" fill="red"/>
  <circle cx="300.695" cy="230.7" r="4.56247" stroke-width="0.5" stroke="red" fill="red"/>
   </g>
   <g id="cell821">
  <circle cx="378.865" cy="270.938" r="8.41267" stroke-width="0.5" stroke="black" fill="red"/>
  <circle cx="378.865" cy="270.938" r="5.05161" stroke-width="0.5" stroke="red" fill="red"/>
   </g>
   <g id="cell825">
  <circle cx="259.694" cy="179.156" r="7.25343" stroke-width="0.5" stroke="black" fill="red"/>
  <circle cx="259.694" cy="179.156" r="2.71256" stroke-width="0.5" stroke="red" fill="red"/>
   </g>
   <g id="cell827">
  <circle cx="202.664" cy="239.145" r="8.1652" stroke-width="0.5" stroke="black" fill="red"/>
  <circle cx="202.664" cy="239.145" r="4.62776" stroke-width="0.5" stroke="red" fill="red"/>
   </g>
   <g id="cell843">
  <circle cx="249.309" cy="285.372" r="3.44218" stroke-width="0.5" stroke="black" fill="red"/>
   </g>
   <g id="cell845">
  <circle cx="265.88" cy="130.749" r="8.34834" stroke-width="0.5" stroke="black" fill="red"/>
  <circle cx="265.88" cy="130.749" r="4.94373" stroke-width="0.5" stroke="red" fill="red"/>
   </g>
   <g id="cell846">
  <circle cx="279.036" cy="153.784" r="7.70649" stroke-width="0.5" stroke="black" fill="red"/>
  <circle cx="279.036" cy="153.784" r="3.75974" stroke-width="0.5" stroke="red" fill="red"/>
   </g>
   <g id="cell850">
  <circle cx="256.744" cy="254.216" r="4.75921" stroke-width="0.5" stroke="black" fill="red"/>
   </g>
   <g id="cell861">
  <circle cx="252.096" cy="52.81" r="7.10062" stroke-width="0.5" stroke="black" fill="red"/>
  <circle cx="252.096" cy="52.81" r="2.27254" stroke-width="0.5" stroke="red" fill="red"/>
   </g>
   <g id="cell864">
  <circle cx="319.786" cy="157.186" r="4.95826" stroke-width="0.5" stroke="black" fill="red"/>
   </g>
   <g id="cell867">
  <circle cx="285.216" cy="249.524" r="8.06266" stroke-width="0.5" stroke="black" fill="red"/>
  <circle cx="285.216" cy="249.524" r="4.44435" stroke-width="0.5" stroke="red" fill="red"/>
   </g>
   <g id="cell870">
  <circle cx="323.869" cy="123.758" r="8.38922" stroke-width="0.5" stroke="black" fill="red"/>
  <circle cx="323.869" cy="123.758" r="5.01245" stroke-width="0.5" stroke="red" fill="red"/>
   </g>
   <g id="cell872">
  <circle cx="323.759" cy="171.896" r="8.32632" stroke-width="0.5" stroke="black" fill="red"/>
  <circle cx="323.759" cy="171.896" r="4.90645" stroke-width="0.5" stroke="red" fill="red"/>
   </g>
   <g id="cell882">
  <circle cx="300.08" cy="289.033" r="8.39207" stroke-width="0.5" stroke="black" fill="red"/>
  <circle cx="300.08" cy="289.033" r="5.01722" stroke-width="0.5" stroke="red" fill="red"/>
   </g>
   <g id="cell884">
  <circle cx="358.797" cy="170.674" r="2.13384" stroke-width="0.5" stroke="black" fill="red"/>
   </g>
   <g id="cell894">
  <circle cx="240.53" cy="148.965" r="8.40219" stroke-width="0.5" stroke="black" fill="red"/>
  <circle cx="240.53" cy="148.965" r="5.03414" stroke-width="0.5" stroke="red" fill="red"/>
   </g>
   <g id="cell899">
  <circle cx="211.225" cy="291.408" r="5.47931" stroke-width="0.5" stroke="black" fill="red"/>
   </g>
   <g id="cell900">
  <circle cx="272.697" cy="304.101" r="8.31111" stroke-width="0.5" stroke="black" fill="red"/>
  <circle cx="272.697" cy="304.101" r="4.8806" stroke-width="0.5" stroke="red" fill="red"/>
   </g>
   <g id="cell923">
  <circle cx="261.923" cy="282.366" r="8.3384" stroke-width="0.5" stroke="black" fill="red"/>
  <circle cx="261.923" cy="282.366" r="4.92692" stroke-width="0.5" stroke="red" fill="red"/>
   </g>
   <g id="cell925">
  <circle cx="302.263" cy="160.72" r="5.83972" stroke-width="0.5" stroke="black" fill="red"/>
   </g>
  </g>
 </g>
  <rect x="190" y="414" width="200" height="4" stroke-width="0.8" stroke="rgb(255,255,255)" fill="rgb(0,0,0)"/>
  <text x="192.5" y="411.5"
   font-family="Arial" font-size="10" fill="black" >
   200 &#956;m
  </text>
  <text x="10" y="418"
   font-family="Arial" font-size="7.5" fill="black" >
   0 days, 0 hours, 11 minutes, and 14.8847 seconds
  </text>
  <rect x="0" y="28" width="400" height="400" stroke-width="0.8" stroke="rgb(0,0,0)" fill="none"/>
</svg>
