<?xml version="1.0" encoding="UTF-8" standalone="no"?>
<!-- Created with PhysiCell (http://PhysiCell.MathCancer.org/) -->
<svg 
 xmlns:dc="http://purl.org/dc/elements/1.1/" 
 xmlns:cc="http://creativecommons.org/ns#" 
 xmlns:rdf="http://www.w3.org/1999/02/22-rdf-syntax-ns#" 
 xmlns:svg="http://www.w3.org/2000/svg" 
 xmlns="http://www.w3.org/2000/svg" 
 version="1.1" 
 width="400" 
 height="428" 
 id="svg2">
  <rect x="0" y="0" width="400" height="428" stroke-width="0.8" stroke="white" fill="white"/>
  <text x="5" y="12"
   font-family="Arial" font-size="10" fill="black" >
   Current time: 2 days, 2 hours, and 0.00 minutes, z = 0.00 &#956;m
  </text>
  <text x="5" y="23"
   font-family="Arial" font-size="9.5" fill="black" >
   978 agents
  </text>
 <g id="tissue" 
    transform="translate(0,428) scale(1,-1)">
  <g id="ECM">
  </g>
  <g id="cells">
   <g id="cell20">
  <circle cx="128.145" cy="251.773" r="6.19494" stroke-width="0.5" stroke="black" fill="grey"/>
   </g>
   <g id="cell25">
  <circle cx="96.8025" cy="148.777" r="4.83868" stroke-width="0.5" stroke="black" fill="grey"/>
   </g>
   <g id="cell71">
  <circle cx="81.7554" cy="201.524" r="1.81316" stroke-width="0.5" stroke="black" fill="grey"/>
   </g>
   <g id="cell82">
  <circle cx="123.404" cy="204.893" r="8.33758" stroke-width="0.5" stroke="black" fill="grey"/>
  <circle cx="123.404" cy="204.893" r="4.92553" stroke-width="0.5" stroke="grey" fill="grey"/>
   </g>
   <g id="cell90">
  <circle cx="106.487" cy="172.312" r="1.94304" stroke-width="0.5" stroke="black" fill="grey"/>
   </g>
   <g id="cell104">
  <circle cx="130.549" cy="120.35" r="6.3687" stroke-width="0.5" stroke="black" fill="grey"/>
   </g>
   <g id="cell164">
  <circle cx="134.924" cy="173.421" r="8.37744" stroke-width="0.5" stroke="black" fill="grey"/>
  <circle cx="134.924" cy="173.421" r="4.99271" stroke-width="0.5" stroke="grey" fill="grey"/>
   </g>
   <g id="cell168">
  <circle cx="135.445" cy="255.162" r="4.28747" stroke-width="0.5" stroke="black" fill="grey"/>
   </g>
   <g id="cell172">
  <circle cx="142.035" cy="58.0679" r="8.0605" stroke-width="0.5" stroke="black" fill="grey"/>
  <circle cx="142.035" cy="58.0679" r="4.44043" stroke-width="0.5" stroke="grey" fill="grey"/>
   </g>
   <g id="cell175">
  <circle cx="155.437" cy="159.802" r="7.12563" stroke-width="0.5" stroke="black" fill="grey"/>
  <circle cx="155.437" cy="159.802" r="2.34954" stroke-width="0.5" stroke="grey" fill="grey"/>
   </g>
   <g id="cell182">
  <circle cx="181.737" cy="162.04" r="2.42588" stroke-width="0.5" stroke="black" fill="grey"/>
   </g>
   <g id="cell190">
  <circle cx="194.495" cy="131.739" r="6.1965" stroke-width="0.5" stroke="black" fill="grey"/>
   </g>
   <g id="cell191">
  <circle cx="182.812" cy="232.288" r="7.89271" stroke-width="0.5" stroke="black" fill="grey"/>
  <circle cx="182.812" cy="232.288" r="4.12803" stroke-width="0.5" stroke="grey" fill="grey"/>
   </g>
   <g id="cell195">
  <circle cx="60.9315" cy="168.29" r="8.24391" stroke-width="0.5" stroke="black" fill="grey"/>
  <circle cx="60.9315" cy="168.29" r="4.76527" stroke-width="0.5" stroke="grey" fill="grey"/>
   </g>
   <g id="cell201">
  <circle cx="52.533" cy="251.43" r="3.9725" stroke-width="0.5" stroke="black" fill="grey"/>
   </g>
   <g id="cell207">
  <circle cx="65.2826" cy="196.613" r="8.21387" stroke-width="0.5" stroke="black" fill="grey"/>
  <circle cx="65.2826" cy="196.613" r="4.71311" stroke-width="0.5" stroke="grey" fill="grey"/>
   </g>
   <g id="cell221">
  <circle cx="111.865" cy="142.001" r="7.99775" stroke-width="0.5" stroke="black" fill="grey"/>
  <circle cx="111.865" cy="142.001" r="4.32546" stroke-width="0.5" stroke="grey" fill="grey"/>
   </g>
   <g id="cell230">
  <circle cx="63.7711" cy="114.969" r="6.78893" stroke-width="0.5" stroke="black" fill="grey"/>
  <circle cx="63.7711" cy="114.969" r="0.913951" stroke-width="0.5" stroke="grey" fill="grey"/>
   </g>
   <g id="cell231">
  <circle cx="130.056" cy="190.569" r="8.40421" stroke-width="0.5" stroke="black" fill="grey"/>
  <circle cx="130.056" cy="190.569" r="5.03751" stroke-width="0.5" stroke="grey" fill="grey"/>
   </g>
   <g id="cell242">
  <circle cx="60.7458" cy="214.495" r="7.39113" stroke-width="0.5" stroke="black" fill="grey"/>
  <circle cx="60.7458" cy="214.495" r="3.06178" stroke-width="0.5" stroke="grey" fill="grey"/>
   </g>
   <g id="cell245">
  <circle cx="184.253" cy="209.218" r="8.27862" stroke-width="0.5" stroke="black" fill="grey"/>
  <circle cx="184.253" cy="209.218" r="4.82507" stroke-width="0.5" stroke="grey" fill="grey"/>
   </g>
   <g id="cell251">
  <circle cx="100.84" cy="287.034" r="7.79336" stroke-width="0.5" stroke="black" fill="grey"/>
  <circle cx="100.84" cy="287.034" r="3.93474" stroke-width="0.5" stroke="grey" fill="grey"/>
   </g>
   <g id="cell255">
  <circle cx="160.73" cy="144.873" r="8.37589" stroke-width="0.5" stroke="black" fill="grey"/>
  <circle cx="160.73" cy="144.873" r="4.99012" stroke-width="0.5" stroke="grey" fill="grey"/>
   </g>
   <g id="cell264">
  <circle cx="181.654" cy="270.621" r="5.06164" stroke-width="0.5" stroke="black" fill="grey"/>
   </g>
   <g id="cell275">
  <circle cx="16.2313" cy="220.031" r="7.7393" stroke-width="0.5" stroke="black" fill="grey"/>
  <circle cx="16.2313" cy="220.031" r="3.82653" stroke-width="0.5" stroke="grey" fill="grey"/>
   </g>
   <g id="cell281">
  <circle cx="107.383" cy="150.594" r="2.14226" stroke-width="0.5" stroke="black" fill="grey"/>
   </g>
   <g id="cell292">
  <circle cx="81.053" cy="238.678" r="5.52873" stroke-width="0.5" stroke="black" fill="grey"/>
   </g>
   <g id="cell309">
  <circle cx="185.91" cy="191.807" r="1.48283" stroke-width="0.5" stroke="black" fill="grey"/>
   </g>
   <g id="cell310">
  <circle cx="169.893" cy="337.084" r="7.22155" stroke-width="0.5" stroke="black" fill="grey"/>
  <circle cx="169.893" cy="337.084" r="2.62611" stroke-width="0.5" stroke="grey" fill="grey"/>
   </g>
   <g id="cell359">
  <circle cx="125.865" cy="227.446" r="6.95269" stroke-width="0.5" stroke="black" fill="grey"/>
  <circle cx="125.865" cy="227.446" r="1.75657" stroke-width="0.5" stroke="grey" fill="grey"/>
   </g>
   <g id="cell375">
  <circle cx="147.085" cy="183.572" r="6.36209" stroke-width="0.5" stroke="black" fill="grey"/>
   </g>
   <g id="cell396">
  <circle cx="259.116" cy="186.866" r="8.35639" stroke-width="0.5" stroke="black" fill="grey"/>
  <circle cx="259.116" cy="186.866" r="4.95732" stroke-width="0.5" stroke="grey" fill="grey"/>
   </g>
   <g id="cell397">
  <circle cx="190.621" cy="243.249" r="6.09008" stroke-width="0.5" stroke="black" fill="grey"/>
   </g>
   <g id="cell423">
  <circle cx="110.058" cy="255.911" r="7.63395" stroke-width="0.5" stroke="black" fill="grey"/>
  <circle cx="110.058" cy="255.911" r="3.60872" stroke-width="0.5" stroke="grey" fill="grey"/>
   </g>
   <g id="cell464">
  <circle cx="133.713" cy="135.723" r="8.24004" stroke-width="0.5" stroke="black" fill="grey"/>
  <circle cx="133.713" cy="135.723" r="4.75857" stroke-width="0.5" stroke="grey" fill="grey"/>
   </g>
   <g id="cell477">
  <circle cx="113.176" cy="206.502" r="1.17866" stroke-width="0.5" stroke="black" fill="grey"/>
   </g>
   <g id="cell488">
  <circle cx="161.372" cy="317.107" r="5.11159" stroke-width="0.5" stroke="black" fill="grey"/>
   </g>
   <g id="cell513">
  <circle cx="255.392" cy="217.455" r="7.70862" stroke-width="0.5" stroke="black" fill="red"/>
  <circle cx="255.392" cy="217.455" r="3.76412" stroke-width="0.5" stroke="red" fill="red"/>
   </g>
   <g id="cell524">
  <circle cx="240.332" cy="142.194" r="3.57154" stroke-width="0.5" stroke="black" fill="red"/>
   </g>
   <g id="cell559">
  <circle cx="218.561" cy="223.841" r="3.64985" stroke-width="0.5" stroke="black" fill="red"/>
   </g>
   <g id="cell566">
  <circle cx="206.02" cy="198.319" r="7.17978" stroke-width="0.5" stroke="black" fill="red"/>
  <circle cx="206.02" cy="198.319" r="2.50896" stroke-width="0.5" stroke="red" fill="red"/>
   </g>
   <g id="cell589">
  <circle cx="320.557" cy="154.424" r="7.98521" stroke-width="0.5" stroke="black" fill="red"/>
  <circle cx="320.557" cy="154.424" r="4.30223" stroke-width="0.5" stroke="red" fill="red"/>
   </g>
   <g id="cell597">
  <circle cx="297.326" cy="265.173" r="8.25221" stroke-width="0.5" stroke="black" fill="red"/>
  <circle cx="297.326" cy="265.173" r="4.77961" stroke-width="0.5" stroke="red" fill="red"/>
   </g>
   <g id="cell606">
  <circle cx="342.561" cy="216.885" r="4.27169" stroke-width="0.5" stroke="black" fill="red"/>
   </g>
   <g id="cell625">
  <circle cx="243.182" cy="168.368" r="8.33914" stroke-width="0.5" stroke="black" fill="red"/>
  <circle cx="243.182" cy="168.368" r="4.92818" stroke-width="0.5" stroke="red" fill="red"/>
   </g>
   <g id="cell626">
  <circle cx="210.744" cy="185.053" r="8.3591" stroke-width="0.5" stroke="black" fill="red"/>
  <circle cx="210.744" cy="185.053" r="4.96187" stroke-width="0.5" stroke="red" fill="red"/>
   </g>
   <g id="cell633">
  <circle cx="249.484" cy="255.824" r="8.40792" stroke-width="0.5" stroke="black" fill="red"/>
  <circle cx="249.484" cy="255.824" r="5.04368" stroke-width="0.5" stroke="red" fill="red"/>
   </g>
   <g id="cell636">
  <circle cx="254.524" cy="87.7703" r="8.3337" stroke-width="0.5" stroke="black" fill="red"/>
  <circle cx="254.524" cy="87.7703" r="4.91896" stroke-width="0.5" stroke="red" fill="red"/>
   </g>
   <g id="cell660">
  <circle cx="244.825" cy="317.767" r="3.50666" stroke-width="0.5" stroke="black" fill="red"/>
   </g>
   <g id="cell669">
  <circle cx="365.309" cy="113.732" r="7.67345" stroke-width="0.5" stroke="black" fill="red"/>
  <circle cx="365.309" cy="113.732" r="3.69155" stroke-width="0.5" stroke="red" fill="red"/>
   </g>
   <g id="cell685">
  <circle cx="210.73" cy="159.856" r="4.04174" stroke-width="0.5" stroke="black" fill="red"/>
   </g>
   <g id="cell687">
  <circle cx="197.599" cy="109.342" r="6.33337" stroke-width="0.5" stroke="black" fill="red"/>
   </g>
   <g id="cell688">
  <circle cx="177.838" cy="187.461" r="4.85325" stroke-width="0.5" stroke="black" fill="red"/>
   </g>
   <g id="cell704">
  <circle cx="192.793" cy="226.817" r="2.44356" stroke-width="0.5" stroke="black" fill="red"/>
   </g>
   <g id="cell705">
  <circle cx="270.443" cy="212.464" r="5.92192" stroke-width="0.5" stroke="black" fill="red"/>
   </g>
   <g id="cell706">
  <circle cx="175.193" cy="217.167" r="7.25935" stroke-width="0.5" stroke="black" fill="red"/>
  <circle cx="175.193" cy="217.167" r="2.72834" stroke-width="0.5" stroke="red" fill="red"/>
   </g>
   <g id="cell731">
  <circle cx="289.488" cy="297.244" r="6.23531" stroke-width="0.5" stroke="black" fill="red"/>
   </g>
   <g id="cell744">
  <circle cx="292.895" cy="159.785" r="8.05732" stroke-width="0.5" stroke="black" fill="red"/>
  <circle cx="292.895" cy="159.785" r="4.43464" stroke-width="0.5" stroke="red" fill="red"/>
   </g>
   <g id="cell763">
  <circle cx="207.847" cy="242.016" r="7.02596" stroke-width="0.5" stroke="black" fill="red"/>
  <circle cx="207.847" cy="242.016" r="2.02726" stroke-width="0.5" stroke="red" fill="red"/>
   </g>
   <g id="cell777">
  <circle cx="295.407" cy="236.399" r="8.0658" stroke-width="0.5" stroke="black" fill="red"/>
  <circle cx="295.407" cy="236.399" r="4.45003" stroke-width="0.5" stroke="red" fill="red"/>
   </g>
   <g id="cell786">
  <circle cx="233.985" cy="235.13" r="8.3841" stroke-width="0.5" stroke="black" fill="red"/>
  <circle cx="233.985" cy="235.13" r="5.00388" stroke-width="0.5" stroke="red" fill="red"/>
   </g>
   <g id="cell787">
  <circle cx="271.51" cy="162.45" r="6.16794" stroke-width="0.5" stroke="black" fill="red"/>
   </g>
   <g id="cell819">
  <circle cx="363.152" cy="205.073" r="5.72007" stroke-width="0.5" stroke="black" fill="red"/>
   </g>
   <g id="cell825">
  <circle cx="285.959" cy="200.274" r="7.44183" stroke-width="0.5" stroke="black" fill="red"/>
  <circle cx="285.959" cy="200.274" r="3.18222" stroke-width="0.5" stroke="red" fill="red"/>
   </g>
   <g id="cell829">
  <circle cx="159.245" cy="126.717" r="7.55113" stroke-width="0.5" stroke="black" fill="red"/>
  <circle cx="159.245" cy="126.717" r="3.43005" stroke-width="0.5" stroke="red" fill="red"/>
   </g>
   <g id="cell837">
  <circle cx="255.102" cy="156.056" r="8.05169" stroke-width="0.5" stroke="black" fill="red"/>
  <circle cx="255.102" cy="156.056" r="4.42441" stroke-width="0.5" stroke="red" fill="red"/>
   </g>
   <g id="cell845">
  <circle cx="234.54" cy="125.297" r="8.39958" stroke-width="0.5" stroke="black" fill="red"/>
  <circle cx="234.54" cy="125.297" r="5.02978" stroke-width="0.5" stroke="red" fill="red"/>
   </g>
   <g id="cell860">
  <circle cx="279.207" cy="246.632" r="8.3482" stroke-width="0.5" stroke="black" fill="red"/>
  <circle cx="279.207" cy="246.632" r="4.94349" stroke-width="0.5" stroke="red" fill="red"/>
   </g>
   <g id="cell867">
  <circle cx="277.151" cy="306.236" r="8.40425" stroke-width="0.5" stroke="black" fill="red"/>
  <circle cx="277.151" cy="306.236" r="5.03757" stroke-width="0.5" stroke="red" fill="red"/>
   </g>
   <g id="cell872">
  <circle cx="332.965" cy="138.42" r="8.08826" stroke-width="0.5" stroke="black" fill="red"/>
  <circle cx="332.965" cy="138.42" r="4.49061" stroke-width="0.5" stroke="red" fill="red"/>
   </g>
   <g id="cell899">
  <circle cx="241.026" cy="289.762" r="5.32271" stroke-width="0.5" stroke="black" fill="red"/>
   </g>
   <g id="cell935">
  <circle cx="296.337" cy="278.337" r="4.16874" stroke-width="0.5" stroke="black" fill="red"/>
   </g>
  </g>
 </g>
  <rect x="190" y="414" width="200" height="4" stroke-width="0.8" stroke="rgb(255,255,255)" fill="rgb(0,0,0)"/>
  <text x="192.5" y="411.5"
   font-family="Arial" font-size="10" fill="black" >
   200 &#956;m
  </text>
  <text x="10" y="418"
   font-family="Arial" font-size="7.5" fill="black" >
   0 days, 0 hours, 15 minutes, and 13.7024 seconds
  </text>
  <rect x="0" y="28" width="400" height="400" stroke-width="0.8" stroke="rgb(0,0,0)" fill="none"/>
</svg>
