<?xml version="1.0" encoding="UTF-8" standalone="no"?>
<!-- Created with PhysiCell (http://PhysiCell.MathCancer.org/) -->
<svg 
 xmlns:dc="http://purl.org/dc/elements/1.1/" 
 xmlns:cc="http://creativecommons.org/ns#" 
 xmlns:rdf="http://www.w3.org/1999/02/22-rdf-syntax-ns#" 
 xmlns:svg="http://www.w3.org/2000/svg" 
 xmlns="http://www.w3.org/2000/svg" 
 version="1.1" 
 width="400" 
 height="428" 
 id="svg2">
  <rect x="0" y="0" width="400" height="428" stroke-width="0.8" stroke="white" fill="white"/>
  <text x="5" y="12"
   font-family="Arial" font-size="10" fill="black" >
   Current time: 2 days, 21 hours, and 0.00 minutes, z = 0.00 &#956;m
  </text>
  <text x="5" y="23"
   font-family="Arial" font-size="9.5" fill="black" >
   978 agents
  </text>
 <g id="tissue" 
    transform="translate(0,428) scale(1,-1)">
  <g id="ECM">
  </g>
  <g id="cells">
   <g id="cell4">
  <circle cx="131.675" cy="220.204" r="0.219098" stroke-width="0.5" stroke="black" fill="grey"/>
   </g>
   <g id="cell35">
  <circle cx="172.474" cy="175.677" r="8.01466" stroke-width="0.5" stroke="black" fill="grey"/>
  <circle cx="172.474" cy="175.677" r="4.35665" stroke-width="0.5" stroke="grey" fill="grey"/>
   </g>
   <g id="cell37">
  <circle cx="148.062" cy="150.324" r="3.36115" stroke-width="0.5" stroke="black" fill="grey"/>
   </g>
   <g id="cell59">
  <circle cx="71.0424" cy="232.773" r="7.14218" stroke-width="0.5" stroke="black" fill="grey"/>
  <circle cx="71.0424" cy="232.773" r="2.39924" stroke-width="0.5" stroke="grey" fill="grey"/>
   </g>
   <g id="cell71">
  <circle cx="80.176" cy="187.33" r="2.13004" stroke-width="0.5" stroke="black" fill="grey"/>
   </g>
   <g id="cell104">
  <circle cx="116.941" cy="154.94" r="8.39207" stroke-width="0.5" stroke="black" fill="grey"/>
  <circle cx="116.941" cy="154.94" r="5.01722" stroke-width="0.5" stroke="grey" fill="grey"/>
   </g>
   <g id="cell112">
  <circle cx="172.96" cy="100.476" r="8.3972" stroke-width="0.5" stroke="black" fill="grey"/>
  <circle cx="172.96" cy="100.476" r="5.02579" stroke-width="0.5" stroke="grey" fill="grey"/>
   </g>
   <g id="cell124">
  <circle cx="127.475" cy="269.001" r="4.17039" stroke-width="0.5" stroke="black" fill="grey"/>
   </g>
   <g id="cell147">
  <circle cx="86.192" cy="125.337" r="5.67712" stroke-width="0.5" stroke="black" fill="grey"/>
   </g>
   <g id="cell150">
  <circle cx="168.042" cy="251.342" r="7.13171" stroke-width="0.5" stroke="black" fill="grey"/>
  <circle cx="168.042" cy="251.342" r="2.36792" stroke-width="0.5" stroke="grey" fill="grey"/>
   </g>
   <g id="cell160">
  <circle cx="139.752" cy="103.65" r="6.88066" stroke-width="0.5" stroke="black" fill="grey"/>
  <circle cx="139.752" cy="103.65" r="1.44537" stroke-width="0.5" stroke="grey" fill="grey"/>
   </g>
   <g id="cell171">
  <circle cx="54.5509" cy="353.718" r="5.6022" stroke-width="0.5" stroke="black" fill="grey"/>
   </g>
   <g id="cell196">
  <circle cx="90.2499" cy="232.051" r="8.36335" stroke-width="0.5" stroke="black" fill="grey"/>
  <circle cx="90.2499" cy="232.051" r="4.96903" stroke-width="0.5" stroke="grey" fill="grey"/>
   </g>
   <g id="cell199">
  <circle cx="53.2854" cy="192.353" r="5.45393" stroke-width="0.5" stroke="black" fill="grey"/>
   </g>
   <g id="cell204">
  <circle cx="64.3605" cy="168.465" r="8.30802" stroke-width="0.5" stroke="black" fill="grey"/>
  <circle cx="64.3605" cy="168.465" r="4.87534" stroke-width="0.5" stroke="grey" fill="grey"/>
   </g>
   <g id="cell205">
  <circle cx="21.8724" cy="160.426" r="8.20385" stroke-width="0.5" stroke="black" fill="grey"/>
  <circle cx="21.8724" cy="160.426" r="4.69562" stroke-width="0.5" stroke="grey" fill="grey"/>
   </g>
   <g id="cell218">
  <circle cx="59.1522" cy="287.613" r="5.70317" stroke-width="0.5" stroke="black" fill="grey"/>
   </g>
   <g id="cell221">
  <circle cx="118.562" cy="112.6" r="8.41271" stroke-width="0.5" stroke="black" fill="grey"/>
  <circle cx="118.562" cy="112.6" r="5.05167" stroke-width="0.5" stroke="grey" fill="grey"/>
   </g>
   <g id="cell229">
  <circle cx="162.231" cy="93.8523" r="8.12842" stroke-width="0.5" stroke="black" fill="grey"/>
  <circle cx="162.231" cy="93.8523" r="4.56256" stroke-width="0.5" stroke="grey" fill="grey"/>
   </g>
   <g id="cell231">
  <circle cx="151.143" cy="187.379" r="5.30639" stroke-width="0.5" stroke="black" fill="grey"/>
   </g>
   <g id="cell246">
  <circle cx="146.459" cy="12.758" r="2.86825" stroke-width="0.5" stroke="black" fill="grey"/>
   </g>
   <g id="cell263">
  <circle cx="123.83" cy="291.672" r="3.9547" stroke-width="0.5" stroke="black" fill="grey"/>
   </g>
   <g id="cell264">
  <circle cx="205.688" cy="247.837" r="8.26768" stroke-width="0.5" stroke="black" fill="grey"/>
  <circle cx="205.688" cy="247.837" r="4.80627" stroke-width="0.5" stroke="grey" fill="grey"/>
   </g>
   <g id="cell271">
  <circle cx="30.1355" cy="230.781" r="7.07903" stroke-width="0.5" stroke="black" fill="grey"/>
  <circle cx="30.1355" cy="230.781" r="2.20417" stroke-width="0.5" stroke="grey" fill="grey"/>
   </g>
   <g id="cell275">
  <circle cx="34.7241" cy="201.495" r="7.48319" stroke-width="0.5" stroke="black" fill="grey"/>
  <circle cx="34.7241" cy="201.495" r="3.27777" stroke-width="0.5" stroke="grey" fill="grey"/>
   </g>
   <g id="cell300">
  <circle cx="169.898" cy="264.418" r="5.05861" stroke-width="0.5" stroke="black" fill="grey"/>
   </g>
   <g id="cell301">
  <circle cx="148.916" cy="240.236" r="7.06315" stroke-width="0.5" stroke="black" fill="grey"/>
  <circle cx="148.916" cy="240.236" r="2.15262" stroke-width="0.5" stroke="grey" fill="grey"/>
   </g>
   <g id="cell346">
  <circle cx="43.39" cy="288.654" r="8.25369" stroke-width="0.5" stroke="black" fill="grey"/>
  <circle cx="43.39" cy="288.654" r="4.78217" stroke-width="0.5" stroke="grey" fill="grey"/>
   </g>
   <g id="cell359">
  <circle cx="163.929" cy="234.704" r="2.37694" stroke-width="0.5" stroke="black" fill="grey"/>
   </g>
   <g id="cell378">
  <circle cx="146.719" cy="325.377" r="8.40424" stroke-width="0.5" stroke="black" fill="grey"/>
  <circle cx="146.719" cy="325.377" r="5.03754" stroke-width="0.5" stroke="grey" fill="grey"/>
   </g>
   <g id="cell397">
  <circle cx="156.399" cy="259.673" r="6.93115" stroke-width="0.5" stroke="black" fill="grey"/>
  <circle cx="156.399" cy="259.673" r="1.66931" stroke-width="0.5" stroke="grey" fill="grey"/>
   </g>
   <g id="cell405">
  <circle cx="113.724" cy="171.396" r="7.07511" stroke-width="0.5" stroke="black" fill="grey"/>
  <circle cx="113.724" cy="171.396" r="2.19155" stroke-width="0.5" stroke="grey" fill="grey"/>
   </g>
   <g id="cell424">
  <circle cx="15.8762" cy="245.36" r="7.72394" stroke-width="0.5" stroke="black" fill="grey"/>
  <circle cx="15.8762" cy="245.36" r="3.79539" stroke-width="0.5" stroke="grey" fill="grey"/>
   </g>
   <g id="cell425">
  <circle cx="111.777" cy="290.352" r="8.3977" stroke-width="0.5" stroke="black" fill="grey"/>
  <circle cx="111.777" cy="290.352" r="5.02664" stroke-width="0.5" stroke="grey" fill="grey"/>
   </g>
   <g id="cell453">
  <circle cx="105.125" cy="211.963" r="7.15775" stroke-width="0.5" stroke="black" fill="grey"/>
  <circle cx="105.125" cy="211.963" r="2.44521" stroke-width="0.5" stroke="grey" fill="grey"/>
   </g>
   <g id="cell477">
  <circle cx="118.241" cy="210.294" r="7.28354" stroke-width="0.5" stroke="black" fill="grey"/>
  <circle cx="118.241" cy="210.294" r="2.79206" stroke-width="0.5" stroke="grey" fill="grey"/>
   </g>
   <g id="cell479">
  <circle cx="229.821" cy="198.984" r="7.79355" stroke-width="0.5" stroke="black" fill="grey"/>
  <circle cx="229.821" cy="198.984" r="3.9351" stroke-width="0.5" stroke="grey" fill="grey"/>
   </g>
   <g id="cell511">
  <circle cx="276.206" cy="183.389" r="5.97516" stroke-width="0.5" stroke="black" fill="red"/>
   </g>
   <g id="cell527">
  <circle cx="243.694" cy="182.169" r="4.04192" stroke-width="0.5" stroke="black" fill="red"/>
   </g>
   <g id="cell535">
  <circle cx="222.203" cy="286.425" r="7.96148" stroke-width="0.5" stroke="black" fill="red"/>
  <circle cx="222.203" cy="286.425" r="4.25804" stroke-width="0.5" stroke="red" fill="red"/>
   </g>
   <g id="cell542">
  <circle cx="291.358" cy="331.257" r="7.95822" stroke-width="0.5" stroke="black" fill="red"/>
  <circle cx="291.358" cy="331.257" r="4.25193" stroke-width="0.5" stroke="red" fill="red"/>
   </g>
   <g id="cell554">
  <circle cx="340.449" cy="346.003" r="8.05782" stroke-width="0.5" stroke="black" fill="red"/>
  <circle cx="340.449" cy="346.003" r="4.43556" stroke-width="0.5" stroke="red" fill="red"/>
   </g>
   <g id="cell556">
  <circle cx="346.512" cy="183.966" r="3.50611" stroke-width="0.5" stroke="black" fill="red"/>
   </g>
   <g id="cell566">
  <circle cx="203.625" cy="182.446" r="7.44403" stroke-width="0.5" stroke="black" fill="red"/>
  <circle cx="203.625" cy="182.446" r="3.18735" stroke-width="0.5" stroke="red" fill="red"/>
   </g>
   <g id="cell569">
  <circle cx="276.896" cy="132.727" r="6.85349" stroke-width="0.5" stroke="black" fill="red"/>
  <circle cx="276.896" cy="132.727" r="1.30998" stroke-width="0.5" stroke="red" fill="red"/>
   </g>
   <g id="cell593">
  <circle cx="319.724" cy="125.826" r="8.39101" stroke-width="0.5" stroke="black" fill="red"/>
  <circle cx="319.724" cy="125.826" r="5.01544" stroke-width="0.5" stroke="red" fill="red"/>
   </g>
   <g id="cell606">
  <circle cx="334.362" cy="257.793" r="3.22036" stroke-width="0.5" stroke="black" fill="red"/>
   </g>
   <g id="cell614">
  <circle cx="315.081" cy="157.966" r="2.16136" stroke-width="0.5" stroke="black" fill="red"/>
   </g>
   <g id="cell626">
  <circle cx="208.074" cy="205.511" r="8.19219" stroke-width="0.5" stroke="black" fill="red"/>
  <circle cx="208.074" cy="205.511" r="4.67522" stroke-width="0.5" stroke="red" fill="red"/>
   </g>
   <g id="cell654">
  <circle cx="300.522" cy="97.9748" r="8.27619" stroke-width="0.5" stroke="black" fill="red"/>
  <circle cx="300.522" cy="97.9748" r="4.8209" stroke-width="0.5" stroke="red" fill="red"/>
   </g>
   <g id="cell657">
  <circle cx="302.968" cy="121.3" r="6.31259" stroke-width="0.5" stroke="black" fill="red"/>
   </g>
   <g id="cell678">
  <circle cx="283.169" cy="158.744" r="8.41198" stroke-width="0.5" stroke="black" fill="red"/>
  <circle cx="283.169" cy="158.744" r="5.05046" stroke-width="0.5" stroke="red" fill="red"/>
   </g>
   <g id="cell681">
  <circle cx="372.526" cy="322.067" r="4.11213" stroke-width="0.5" stroke="black" fill="red"/>
   </g>
   <g id="cell688">
  <circle cx="192.553" cy="220.688" r="7.16692" stroke-width="0.5" stroke="black" fill="red"/>
  <circle cx="192.553" cy="220.688" r="2.47194" stroke-width="0.5" stroke="red" fill="red"/>
   </g>
   <g id="cell710">
  <circle cx="260.117" cy="193.891" r="6.40409" stroke-width="0.5" stroke="black" fill="red"/>
   </g>
   <g id="cell733">
  <circle cx="323.438" cy="324.998" r="7.74242" stroke-width="0.5" stroke="black" fill="red"/>
  <circle cx="323.438" cy="324.998" r="3.83286" stroke-width="0.5" stroke="red" fill="red"/>
   </g>
   <g id="cell742">
  <circle cx="321.025" cy="106.528" r="8.0954" stroke-width="0.5" stroke="black" fill="red"/>
  <circle cx="321.025" cy="106.528" r="4.50347" stroke-width="0.5" stroke="red" fill="red"/>
   </g>
   <g id="cell743">
  <circle cx="391.4" cy="177.454" r="6.38839" stroke-width="0.5" stroke="black" fill="red"/>
   </g>
   <g id="cell769">
  <circle cx="310.457" cy="200.493" r="7.76413" stroke-width="0.5" stroke="black" fill="red"/>
  <circle cx="310.457" cy="200.493" r="3.87651" stroke-width="0.5" stroke="red" fill="red"/>
   </g>
   <g id="cell777">
  <circle cx="281.716" cy="245.447" r="7.15759" stroke-width="0.5" stroke="black" fill="red"/>
  <circle cx="281.716" cy="245.447" r="2.44475" stroke-width="0.5" stroke="red" fill="red"/>
   </g>
   <g id="cell778">
  <circle cx="247.901" cy="207.221" r="8.28415" stroke-width="0.5" stroke="black" fill="red"/>
  <circle cx="247.901" cy="207.221" r="4.83455" stroke-width="0.5" stroke="red" fill="red"/>
   </g>
   <g id="cell787">
  <circle cx="268.772" cy="209.407" r="3.54477" stroke-width="0.5" stroke="black" fill="red"/>
   </g>
   <g id="cell817">
  <circle cx="342.493" cy="147.329" r="2.99477" stroke-width="0.5" stroke="black" fill="red"/>
   </g>
   <g id="cell821">
  <circle cx="351.013" cy="268.023" r="6.54029" stroke-width="0.5" stroke="black" fill="red"/>
   </g>
   <g id="cell836">
  <circle cx="278.739" cy="98.5034" r="5.47608" stroke-width="0.5" stroke="black" fill="red"/>
   </g>
   <g id="cell838">
  <circle cx="286.171" cy="79.2665" r="8.07598" stroke-width="0.5" stroke="black" fill="red"/>
  <circle cx="286.171" cy="79.2665" r="4.46846" stroke-width="0.5" stroke="red" fill="red"/>
   </g>
   <g id="cell845">
  <circle cx="232.87" cy="91.7154" r="6.64698" stroke-width="0.5" stroke="black" fill="red"/>
   </g>
   <g id="cell849">
  <circle cx="233.838" cy="169.236" r="6.32678" stroke-width="0.5" stroke="black" fill="red"/>
   </g>
   <g id="cell854">
  <circle cx="277.951" cy="116.849" r="6.85073" stroke-width="0.5" stroke="black" fill="red"/>
  <circle cx="277.951" cy="116.849" r="1.29543" stroke-width="0.5" stroke="red" fill="red"/>
   </g>
   <g id="cell886">
  <circle cx="351.324" cy="253.85" r="3.69745" stroke-width="0.5" stroke="black" fill="red"/>
   </g>
   <g id="cell899">
  <circle cx="273.347" cy="296.595" r="8.40007" stroke-width="0.5" stroke="black" fill="red"/>
  <circle cx="273.347" cy="296.595" r="5.03059" stroke-width="0.5" stroke="red" fill="red"/>
   </g>
   <g id="cell900">
  <circle cx="272.211" cy="269.31" r="8.1653" stroke-width="0.5" stroke="black" fill="red"/>
  <circle cx="272.211" cy="269.31" r="4.62794" stroke-width="0.5" stroke="red" fill="red"/>
   </g>
   <g id="cell949">
  <circle cx="191.452" cy="163.682" r="7.84101" stroke-width="0.5" stroke="black" fill="red"/>
  <circle cx="191.452" cy="163.682" r="4.02829" stroke-width="0.5" stroke="red" fill="red"/>
   </g>
  </g>
 </g>
  <rect x="190" y="414" width="200" height="4" stroke-width="0.8" stroke="rgb(255,255,255)" fill="rgb(0,0,0)"/>
  <text x="192.5" y="411.5"
   font-family="Arial" font-size="10" fill="black" >
   200 &#956;m
  </text>
  <text x="10" y="418"
   font-family="Arial" font-size="7.5" fill="black" >
   0 days, 0 hours, 20 minutes, and 11.0599 seconds
  </text>
  <rect x="0" y="28" width="400" height="400" stroke-width="0.8" stroke="rgb(0,0,0)" fill="none"/>
</svg>
