<?xml version="1.0" encoding="UTF-8" standalone="no"?>
<!-- Created with PhysiCell (http://PhysiCell.MathCancer.org/) -->
<svg 
 xmlns:dc="http://purl.org/dc/elements/1.1/" 
 xmlns:cc="http://creativecommons.org/ns#" 
 xmlns:rdf="http://www.w3.org/1999/02/22-rdf-syntax-ns#" 
 xmlns:svg="http://www.w3.org/2000/svg" 
 xmlns="http://www.w3.org/2000/svg" 
 version="1.1" 
 width="400" 
 height="428" 
 id="svg2">
  <rect x="0" y="0" width="400" height="428" stroke-width="0.8" stroke="white" fill="white"/>
  <text x="5" y="12"
   font-family="Arial" font-size="10" fill="black" >
   Current time: 1 days, 19 hours, and 0.00 minutes, z = 0.00 &#956;m
  </text>
  <text x="5" y="23"
   font-family="Arial" font-size="9.5" fill="black" >
   978 agents
  </text>
 <g id="tissue" 
    transform="translate(0,428) scale(1,-1)">
  <g id="ECM">
  </g>
  <g id="cells">
   <g id="cell35">
  <circle cx="180.984" cy="130.569" r="6.7441" stroke-width="0.5" stroke="black" fill="grey"/>
  <circle cx="180.984" cy="130.569" r="0.478125" stroke-width="0.5" stroke="grey" fill="grey"/>
   </g>
   <g id="cell47">
  <circle cx="80.9775" cy="341.634" r="6.77887" stroke-width="0.5" stroke="black" fill="grey"/>
  <circle cx="80.9775" cy="341.634" r="0.835893" stroke-width="0.5" stroke="grey" fill="grey"/>
   </g>
   <g id="cell82">
  <circle cx="122.031" cy="182.734" r="6.87096" stroke-width="0.5" stroke="black" fill="grey"/>
  <circle cx="122.031" cy="182.734" r="1.39849" stroke-width="0.5" stroke="grey" fill="grey"/>
   </g>
   <g id="cell92">
  <circle cx="122.117" cy="223.895" r="7.70512" stroke-width="0.5" stroke="black" fill="grey"/>
  <circle cx="122.117" cy="223.895" r="3.75694" stroke-width="0.5" stroke="grey" fill="grey"/>
   </g>
   <g id="cell135">
  <circle cx="76.4301" cy="190.831" r="7.16461" stroke-width="0.5" stroke="black" fill="grey"/>
  <circle cx="76.4301" cy="190.831" r="2.46522" stroke-width="0.5" stroke="grey" fill="grey"/>
   </g>
   <g id="cell137">
  <circle cx="47.4006" cy="192.547" r="4.28038" stroke-width="0.5" stroke="black" fill="grey"/>
   </g>
   <g id="cell144">
  <circle cx="99.054" cy="248.152" r="8.40693" stroke-width="0.5" stroke="black" fill="grey"/>
  <circle cx="99.054" cy="248.152" r="5.04204" stroke-width="0.5" stroke="grey" fill="grey"/>
   </g>
   <g id="cell159">
  <circle cx="87.5178" cy="232.824" r="5.77108" stroke-width="0.5" stroke="black" fill="grey"/>
   </g>
   <g id="cell164">
  <circle cx="121.05" cy="168.508" r="8.32019" stroke-width="0.5" stroke="black" fill="grey"/>
  <circle cx="121.05" cy="168.508" r="4.89604" stroke-width="0.5" stroke="grey" fill="grey"/>
   </g>
   <g id="cell166">
  <circle cx="147.475" cy="141.248" r="6.80633" stroke-width="0.5" stroke="black" fill="grey"/>
  <circle cx="147.475" cy="141.248" r="1.03527" stroke-width="0.5" stroke="grey" fill="grey"/>
   </g>
   <g id="cell168">
  <circle cx="148.41" cy="243.477" r="8.19995" stroke-width="0.5" stroke="black" fill="grey"/>
  <circle cx="148.41" cy="243.477" r="4.6888" stroke-width="0.5" stroke="grey" fill="grey"/>
   </g>
   <g id="cell170">
  <circle cx="70.724" cy="270.25" r="5.69052" stroke-width="0.5" stroke="black" fill="grey"/>
   </g>
   <g id="cell174">
  <circle cx="163.61" cy="175.925" r="8.31954" stroke-width="0.5" stroke="black" fill="grey"/>
  <circle cx="163.61" cy="175.925" r="4.89494" stroke-width="0.5" stroke="grey" fill="grey"/>
   </g>
   <g id="cell178">
  <circle cx="102.923" cy="208.614" r="8.15217" stroke-width="0.5" stroke="black" fill="grey"/>
  <circle cx="102.923" cy="208.614" r="4.60473" stroke-width="0.5" stroke="grey" fill="grey"/>
   </g>
   <g id="cell179">
  <circle cx="127.37" cy="264.618" r="3.7993" stroke-width="0.5" stroke="black" fill="grey"/>
   </g>
   <g id="cell182">
  <circle cx="182.593" cy="171.107" r="8.32002" stroke-width="0.5" stroke="black" fill="grey"/>
  <circle cx="182.593" cy="171.107" r="4.89576" stroke-width="0.5" stroke="grey" fill="grey"/>
   </g>
   <g id="cell191">
  <circle cx="195.172" cy="224.027" r="7.058" stroke-width="0.5" stroke="black" fill="grey"/>
  <circle cx="195.172" cy="224.027" r="2.13566" stroke-width="0.5" stroke="grey" fill="grey"/>
   </g>
   <g id="cell197">
  <circle cx="99.1446" cy="273.248" r="8.35792" stroke-width="0.5" stroke="black" fill="grey"/>
  <circle cx="99.1446" cy="273.248" r="4.95989" stroke-width="0.5" stroke="grey" fill="grey"/>
   </g>
   <g id="cell223">
  <circle cx="131.969" cy="201.252" r="5.59763" stroke-width="0.5" stroke="black" fill="grey"/>
   </g>
   <g id="cell225">
  <circle cx="143.351" cy="261.031" r="8.40535" stroke-width="0.5" stroke="black" fill="grey"/>
  <circle cx="143.351" cy="261.031" r="5.03941" stroke-width="0.5" stroke="grey" fill="grey"/>
   </g>
   <g id="cell245">
  <circle cx="170.7" cy="194.33" r="4.00205" stroke-width="0.5" stroke="black" fill="grey"/>
   </g>
   <g id="cell254">
  <circle cx="134.052" cy="149.598" r="0.921993" stroke-width="0.5" stroke="black" fill="grey"/>
   </g>
   <g id="cell255">
  <circle cx="149.706" cy="170.022" r="8.20187" stroke-width="0.5" stroke="black" fill="grey"/>
  <circle cx="149.706" cy="170.022" r="4.69215" stroke-width="0.5" stroke="grey" fill="grey"/>
   </g>
   <g id="cell275">
  <circle cx="11.15" cy="230.667" r="8.39799" stroke-width="0.5" stroke="black" fill="grey"/>
  <circle cx="11.15" cy="230.667" r="5.02712" stroke-width="0.5" stroke="grey" fill="grey"/>
   </g>
   <g id="cell279">
  <circle cx="107.685" cy="176.667" r="8.20772" stroke-width="0.5" stroke="black" fill="grey"/>
  <circle cx="107.685" cy="176.667" r="4.70237" stroke-width="0.5" stroke="grey" fill="grey"/>
   </g>
   <g id="cell281">
  <circle cx="112.786" cy="144.58" r="8.29816" stroke-width="0.5" stroke="black" fill="grey"/>
  <circle cx="112.786" cy="144.58" r="4.85852" stroke-width="0.5" stroke="grey" fill="grey"/>
   </g>
   <g id="cell288">
  <circle cx="97.5329" cy="137.172" r="8.12199" stroke-width="0.5" stroke="black" fill="grey"/>
  <circle cx="97.5329" cy="137.172" r="4.55108" stroke-width="0.5" stroke="grey" fill="grey"/>
   </g>
   <g id="cell300">
  <circle cx="135.638" cy="276.772" r="0.863436" stroke-width="0.5" stroke="black" fill="grey"/>
   </g>
   <g id="cell306">
  <circle cx="227.181" cy="200.744" r="5.62772" stroke-width="0.5" stroke="black" fill="grey"/>
   </g>
   <g id="cell309">
  <circle cx="175.252" cy="187.093" r="4.18772" stroke-width="0.5" stroke="black" fill="grey"/>
   </g>
   <g id="cell310">
  <circle cx="153.412" cy="335.427" r="8.37464" stroke-width="0.5" stroke="black" fill="grey"/>
  <circle cx="153.412" cy="335.427" r="4.98801" stroke-width="0.5" stroke="grey" fill="grey"/>
   </g>
   <g id="cell314">
  <circle cx="166.932" cy="228.863" r="8.37919" stroke-width="0.5" stroke="black" fill="grey"/>
  <circle cx="166.932" cy="228.863" r="4.99565" stroke-width="0.5" stroke="grey" fill="grey"/>
   </g>
   <g id="cell322">
  <circle cx="189.14" cy="209.283" r="7.62118" stroke-width="0.5" stroke="black" fill="grey"/>
  <circle cx="189.14" cy="209.283" r="3.58162" stroke-width="0.5" stroke="grey" fill="grey"/>
   </g>
   <g id="cell348">
  <circle cx="66.7402" cy="115.889" r="7.67006" stroke-width="0.5" stroke="black" fill="grey"/>
  <circle cx="66.7402" cy="115.889" r="3.68449" stroke-width="0.5" stroke="grey" fill="grey"/>
   </g>
   <g id="cell395">
  <circle cx="189.94" cy="182.769" r="5.15525" stroke-width="0.5" stroke="black" fill="grey"/>
   </g>
   <g id="cell396">
  <circle cx="233.929" cy="174.832" r="7.34245" stroke-width="0.5" stroke="black" fill="grey"/>
  <circle cx="233.929" cy="174.832" r="2.94233" stroke-width="0.5" stroke="grey" fill="grey"/>
   </g>
   <g id="cell423">
  <circle cx="130.345" cy="242.929" r="7.88498" stroke-width="0.5" stroke="black" fill="grey"/>
  <circle cx="130.345" cy="242.929" r="4.11323" stroke-width="0.5" stroke="grey" fill="grey"/>
   </g>
   <g id="cell424">
  <circle cx="51.1436" cy="211.927" r="1.90746" stroke-width="0.5" stroke="black" fill="grey"/>
   </g>
   <g id="cell435">
  <circle cx="185.223" cy="86.2156" r="4.99693" stroke-width="0.5" stroke="black" fill="grey"/>
   </g>
   <g id="cell437">
  <circle cx="138.592" cy="232.546" r="8.22173" stroke-width="0.5" stroke="black" fill="grey"/>
  <circle cx="138.592" cy="232.546" r="4.72679" stroke-width="0.5" stroke="grey" fill="grey"/>
   </g>
   <g id="cell543">
  <circle cx="304.934" cy="136.39" r="3.36393" stroke-width="0.5" stroke="black" fill="red"/>
   </g>
   <g id="cell613">
  <circle cx="354.242" cy="225.409" r="5.20293" stroke-width="0.5" stroke="black" fill="red"/>
   </g>
   <g id="cell617">
  <circle cx="362.152" cy="184.394" r="4.81906" stroke-width="0.5" stroke="black" fill="red"/>
   </g>
   <g id="cell625">
  <circle cx="219.212" cy="172.674" r="6.35678" stroke-width="0.5" stroke="black" fill="red"/>
   </g>
   <g id="cell626">
  <circle cx="231.76" cy="188.165" r="8.37654" stroke-width="0.5" stroke="black" fill="red"/>
  <circle cx="231.76" cy="188.165" r="4.9912" stroke-width="0.5" stroke="red" fill="red"/>
   </g>
   <g id="cell627">
  <circle cx="240.039" cy="285.911" r="8.09389" stroke-width="0.5" stroke="black" fill="red"/>
  <circle cx="240.039" cy="285.911" r="4.50075" stroke-width="0.5" stroke="red" fill="red"/>
   </g>
   <g id="cell648">
  <circle cx="308.498" cy="222.107" r="6.61757" stroke-width="0.5" stroke="black" fill="red"/>
   </g>
   <g id="cell656">
  <circle cx="292.765" cy="189.335" r="5.68771" stroke-width="0.5" stroke="black" fill="red"/>
   </g>
   <g id="cell668">
  <circle cx="304.462" cy="235.915" r="8.05573" stroke-width="0.5" stroke="black" fill="red"/>
  <circle cx="304.462" cy="235.915" r="4.43177" stroke-width="0.5" stroke="red" fill="red"/>
   </g>
   <g id="cell675">
  <circle cx="383.15" cy="274.159" r="8.11276" stroke-width="0.5" stroke="black" fill="red"/>
  <circle cx="383.15" cy="274.159" r="4.53459" stroke-width="0.5" stroke="red" fill="red"/>
   </g>
   <g id="cell677">
  <circle cx="343.319" cy="107.475" r="8.37878" stroke-width="0.5" stroke="black" fill="red"/>
  <circle cx="343.319" cy="107.475" r="4.99497" stroke-width="0.5" stroke="red" fill="red"/>
   </g>
   <g id="cell685">
  <circle cx="204.933" cy="201.635" r="8.39073" stroke-width="0.5" stroke="black" fill="red"/>
  <circle cx="204.933" cy="201.635" r="5.01499" stroke-width="0.5" stroke="red" fill="red"/>
   </g>
   <g id="cell686">
  <circle cx="209.53" cy="245.497" r="5.09442" stroke-width="0.5" stroke="black" fill="red"/>
   </g>
   <g id="cell694">
  <circle cx="266.901" cy="170.857" r="7.32495" stroke-width="0.5" stroke="black" fill="red"/>
  <circle cx="266.901" cy="170.857" r="2.89837" stroke-width="0.5" stroke="red" fill="red"/>
   </g>
   <g id="cell700">
  <circle cx="208.352" cy="93.4333" r="7.75651" stroke-width="0.5" stroke="black" fill="red"/>
  <circle cx="208.352" cy="93.4333" r="3.86123" stroke-width="0.5" stroke="red" fill="red"/>
   </g>
   <g id="cell704">
  <circle cx="213.388" cy="228.736" r="8.38031" stroke-width="0.5" stroke="black" fill="red"/>
  <circle cx="213.388" cy="228.736" r="4.99753" stroke-width="0.5" stroke="red" fill="red"/>
   </g>
   <g id="cell731">
  <circle cx="289.016" cy="267.764" r="8.40728" stroke-width="0.5" stroke="black" fill="red"/>
  <circle cx="289.016" cy="267.764" r="5.04261" stroke-width="0.5" stroke="red" fill="red"/>
   </g>
   <g id="cell733">
  <circle cx="277.433" cy="299.333" r="6.69854" stroke-width="0.5" stroke="black" fill="red"/>
   </g>
   <g id="cell745">
  <circle cx="332.299" cy="120.903" r="7.84957" stroke-width="0.5" stroke="black" fill="red"/>
  <circle cx="332.299" cy="120.903" r="4.04492" stroke-width="0.5" stroke="red" fill="red"/>
   </g>
   <g id="cell777">
  <circle cx="293.889" cy="226.208" r="5.95447" stroke-width="0.5" stroke="black" fill="red"/>
   </g>
   <g id="cell787">
  <circle cx="264.589" cy="142.511" r="7.6535" stroke-width="0.5" stroke="black" fill="red"/>
  <circle cx="264.589" cy="142.511" r="3.6499" stroke-width="0.5" stroke="red" fill="red"/>
   </g>
   <g id="cell818">
  <circle cx="320.626" cy="153.11" r="5.8015" stroke-width="0.5" stroke="black" fill="red"/>
   </g>
   <g id="cell836">
  <circle cx="250.366" cy="136.358" r="7.41389" stroke-width="0.5" stroke="black" fill="red"/>
  <circle cx="250.366" cy="136.358" r="3.11633" stroke-width="0.5" stroke="red" fill="red"/>
   </g>
   <g id="cell837">
  <circle cx="256.022" cy="153.045" r="7.30058" stroke-width="0.5" stroke="black" fill="red"/>
  <circle cx="256.022" cy="153.045" r="2.83623" stroke-width="0.5" stroke="red" fill="red"/>
   </g>
   <g id="cell843">
  <circle cx="262.99" cy="273.688" r="7.59449" stroke-width="0.5" stroke="black" fill="red"/>
  <circle cx="262.99" cy="273.688" r="3.52448" stroke-width="0.5" stroke="red" fill="red"/>
   </g>
   <g id="cell867">
  <circle cx="273.1" cy="252.938" r="8.28568" stroke-width="0.5" stroke="black" fill="red"/>
  <circle cx="273.1" cy="252.938" r="4.83716" stroke-width="0.5" stroke="red" fill="red"/>
   </g>
   <g id="cell872">
  <circle cx="339.268" cy="152.608" r="8.4093" stroke-width="0.5" stroke="black" fill="red"/>
  <circle cx="339.268" cy="152.608" r="5.04599" stroke-width="0.5" stroke="red" fill="red"/>
   </g>
   <g id="cell882">
  <circle cx="301.3" cy="311.81" r="8.10155" stroke-width="0.5" stroke="black" fill="red"/>
  <circle cx="301.3" cy="311.81" r="4.51451" stroke-width="0.5" stroke="red" fill="red"/>
   </g>
   <g id="cell894">
  <circle cx="237.847" cy="132.767" r="4.87594" stroke-width="0.5" stroke="black" fill="red"/>
   </g>
   <g id="cell896">
  <circle cx="272.777" cy="128.557" r="8.38321" stroke-width="0.5" stroke="black" fill="red"/>
  <circle cx="272.777" cy="128.557" r="5.00239" stroke-width="0.5" stroke="red" fill="red"/>
   </g>
   <g id="cell899">
  <circle cx="219.225" cy="286.606" r="0.763707" stroke-width="0.5" stroke="black" fill="red"/>
   </g>
   <g id="cell935">
  <circle cx="298.831" cy="259.658" r="8.15317" stroke-width="0.5" stroke="black" fill="red"/>
  <circle cx="298.831" cy="259.658" r="4.60651" stroke-width="0.5" stroke="red" fill="red"/>
   </g>
  </g>
 </g>
  <rect x="190" y="414" width="200" height="4" stroke-width="0.8" stroke="rgb(255,255,255)" fill="rgb(0,0,0)"/>
  <text x="192.5" y="411.5"
   font-family="Arial" font-size="10" fill="black" >
   200 &#956;m
  </text>
  <text x="10" y="418"
   font-family="Arial" font-size="7.5" fill="black" >
   0 days, 0 hours, 12 minutes, and 52.8129 seconds
  </text>
  <rect x="0" y="28" width="400" height="400" stroke-width="0.8" stroke="rgb(0,0,0)" fill="none"/>
</svg>
