<?xml version="1.0" encoding="UTF-8" standalone="no"?>
<!-- Created with PhysiCell (http://PhysiCell.MathCancer.org/) -->
<svg 
 xmlns:dc="http://purl.org/dc/elements/1.1/" 
 xmlns:cc="http://creativecommons.org/ns#" 
 xmlns:rdf="http://www.w3.org/1999/02/22-rdf-syntax-ns#" 
 xmlns:svg="http://www.w3.org/2000/svg" 
 xmlns="http://www.w3.org/2000/svg" 
 version="1.1" 
 width="400" 
 height="428" 
 id="svg2">
  <rect x="0" y="0" width="400" height="428" stroke-width="0.8" stroke="white" fill="white"/>
  <text x="5" y="12"
   font-family="Arial" font-size="10" fill="black" >
   Current time: 0 days, 8 hours, and 0.00 minutes, z = 0.00 &#956;m
  </text>
  <text x="5" y="23"
   font-family="Arial" font-size="9.5" fill="black" >
   978 agents
  </text>
 <g id="tissue" 
    transform="translate(0,428) scale(1,-1)">
  <g id="ECM">
  </g>
  <g id="cells">
   <g id="cell69">
  <circle cx="51.0954" cy="176.944" r="8.20412" stroke-width="0.5" stroke="black" fill="grey"/>
  <circle cx="51.0954" cy="176.944" r="4.69609" stroke-width="0.5" stroke="grey" fill="grey"/>
   </g>
   <g id="cell96">
  <circle cx="141.48" cy="100.353" r="8.19352" stroke-width="0.5" stroke="black" fill="grey"/>
  <circle cx="141.48" cy="100.353" r="4.67756" stroke-width="0.5" stroke="grey" fill="grey"/>
   </g>
   <g id="cell110">
  <circle cx="138.161" cy="253.082" r="8.32775" stroke-width="0.5" stroke="black" fill="grey"/>
  <circle cx="138.161" cy="253.082" r="4.90888" stroke-width="0.5" stroke="grey" fill="grey"/>
   </g>
   <g id="cell129">
  <circle cx="70.1051" cy="177.638" r="7.98177" stroke-width="0.5" stroke="black" fill="grey"/>
  <circle cx="70.1051" cy="177.638" r="4.29584" stroke-width="0.5" stroke="grey" fill="grey"/>
   </g>
   <g id="cell137">
  <circle cx="70.756" cy="225.144" r="5.6916" stroke-width="0.5" stroke="black" fill="grey"/>
   </g>
   <g id="cell141">
  <circle cx="97.3912" cy="154.634" r="6.08525" stroke-width="0.5" stroke="black" fill="grey"/>
   </g>
   <g id="cell149">
  <circle cx="117.84" cy="165.853" r="6.15738" stroke-width="0.5" stroke="black" fill="grey"/>
   </g>
   <g id="cell151">
  <circle cx="103.053" cy="210.044" r="8.31495" stroke-width="0.5" stroke="black" fill="grey"/>
  <circle cx="103.053" cy="210.044" r="4.88713" stroke-width="0.5" stroke="grey" fill="grey"/>
   </g>
   <g id="cell152">
  <circle cx="122.187" cy="232.415" r="8.40387" stroke-width="0.5" stroke="black" fill="grey"/>
  <circle cx="122.187" cy="232.415" r="5.03693" stroke-width="0.5" stroke="grey" fill="grey"/>
   </g>
   <g id="cell160">
  <circle cx="112.974" cy="222.198" r="6.93722" stroke-width="0.5" stroke="black" fill="grey"/>
  <circle cx="112.974" cy="222.198" r="1.69433" stroke-width="0.5" stroke="grey" fill="grey"/>
   </g>
   <g id="cell164">
  <circle cx="130.654" cy="151.426" r="7.61553" stroke-width="0.5" stroke="black" fill="grey"/>
  <circle cx="130.654" cy="151.426" r="3.56959" stroke-width="0.5" stroke="grey" fill="grey"/>
   </g>
   <g id="cell165">
  <circle cx="145.92" cy="150.017" r="5.25658" stroke-width="0.5" stroke="black" fill="grey"/>
   </g>
   <g id="cell166">
  <circle cx="132.981" cy="133.523" r="8.37033" stroke-width="0.5" stroke="black" fill="grey"/>
  <circle cx="132.981" cy="133.523" r="4.98077" stroke-width="0.5" stroke="grey" fill="grey"/>
   </g>
   <g id="cell171">
  <circle cx="132.728" cy="298.215" r="6.40437" stroke-width="0.5" stroke="black" fill="grey"/>
   </g>
   <g id="cell172">
  <circle cx="123.864" cy="110.785" r="7.46365" stroke-width="0.5" stroke="black" fill="grey"/>
  <circle cx="123.864" cy="110.785" r="3.23291" stroke-width="0.5" stroke="grey" fill="grey"/>
   </g>
   <g id="cell174">
  <circle cx="150.576" cy="163.744" r="8.40154" stroke-width="0.5" stroke="black" fill="grey"/>
  <circle cx="150.576" cy="163.744" r="5.03304" stroke-width="0.5" stroke="grey" fill="grey"/>
   </g>
   <g id="cell175">
  <circle cx="143.981" cy="176.261" r="6.96088" stroke-width="0.5" stroke="black" fill="grey"/>
  <circle cx="143.981" cy="176.261" r="1.78873" stroke-width="0.5" stroke="grey" fill="grey"/>
   </g>
   <g id="cell186">
  <circle cx="165.681" cy="260.714" r="6.12243" stroke-width="0.5" stroke="black" fill="grey"/>
   </g>
   <g id="cell189">
  <circle cx="175.909" cy="165.845" r="7.87546" stroke-width="0.5" stroke="black" fill="grey"/>
  <circle cx="175.909" cy="165.845" r="4.09495" stroke-width="0.5" stroke="grey" fill="grey"/>
   </g>
   <g id="cell202">
  <circle cx="51.8245" cy="227.972" r="8.41236" stroke-width="0.5" stroke="black" fill="grey"/>
  <circle cx="51.8245" cy="227.972" r="5.05108" stroke-width="0.5" stroke="grey" fill="grey"/>
   </g>
   <g id="cell203">
  <circle cx="40.3252" cy="257.452" r="8.40718" stroke-width="0.5" stroke="black" fill="grey"/>
  <circle cx="40.3252" cy="257.452" r="5.04246" stroke-width="0.5" stroke="grey" fill="grey"/>
   </g>
   <g id="cell209">
  <circle cx="62.2675" cy="244.492" r="7.01642" stroke-width="0.5" stroke="black" fill="grey"/>
  <circle cx="62.2675" cy="244.492" r="1.99395" stroke-width="0.5" stroke="grey" fill="grey"/>
   </g>
   <g id="cell229">
  <circle cx="107.673" cy="126.758" r="3.08744" stroke-width="0.5" stroke="black" fill="grey"/>
   </g>
   <g id="cell232">
  <circle cx="144.589" cy="208.544" r="7.1481" stroke-width="0.5" stroke="black" fill="grey"/>
  <circle cx="144.589" cy="208.544" r="2.41682" stroke-width="0.5" stroke="grey" fill="grey"/>
   </g>
   <g id="cell241">
  <circle cx="146.906" cy="228.372" r="7.93836" stroke-width="0.5" stroke="black" fill="grey"/>
  <circle cx="146.906" cy="228.372" r="4.21466" stroke-width="0.5" stroke="grey" fill="grey"/>
   </g>
   <g id="cell245">
  <circle cx="185.032" cy="157.079" r="7.01716" stroke-width="0.5" stroke="black" fill="grey"/>
  <circle cx="185.032" cy="157.079" r="1.99657" stroke-width="0.5" stroke="grey" fill="grey"/>
   </g>
   <g id="cell249">
  <circle cx="168.14" cy="244.502" r="8.10012" stroke-width="0.5" stroke="black" fill="grey"/>
  <circle cx="168.14" cy="244.502" r="4.51194" stroke-width="0.5" stroke="grey" fill="grey"/>
   </g>
   <g id="cell250">
  <circle cx="155.768" cy="238.581" r="8.40684" stroke-width="0.5" stroke="black" fill="grey"/>
  <circle cx="155.768" cy="238.581" r="5.04188" stroke-width="0.5" stroke="grey" fill="grey"/>
   </g>
   <g id="cell256">
  <circle cx="176.182" cy="200.391" r="7.44541" stroke-width="0.5" stroke="black" fill="grey"/>
  <circle cx="176.182" cy="200.391" r="3.19058" stroke-width="0.5" stroke="grey" fill="grey"/>
   </g>
   <g id="cell257">
  <circle cx="179.759" cy="224.404" r="7.49736" stroke-width="0.5" stroke="black" fill="grey"/>
  <circle cx="179.759" cy="224.404" r="3.31" stroke-width="0.5" stroke="grey" fill="grey"/>
   </g>
   <g id="cell260">
  <circle cx="183.767" cy="135.759" r="7.3487" stroke-width="0.5" stroke="black" fill="grey"/>
  <circle cx="183.767" cy="135.759" r="2.95789" stroke-width="0.5" stroke="grey" fill="grey"/>
   </g>
   <g id="cell266">
  <circle cx="196.088" cy="208.881" r="4.09107" stroke-width="0.5" stroke="black" fill="grey"/>
   </g>
   <g id="cell269">
  <circle cx="74.8575" cy="202.566" r="8.21308" stroke-width="0.5" stroke="black" fill="grey"/>
  <circle cx="74.8575" cy="202.566" r="4.71173" stroke-width="0.5" stroke="grey" fill="grey"/>
   </g>
   <g id="cell277">
  <circle cx="68.6515" cy="256.526" r="6.59987" stroke-width="0.5" stroke="black" fill="grey"/>
   </g>
   <g id="cell279">
  <circle cx="80.8044" cy="161.204" r="8.23393" stroke-width="0.5" stroke="black" fill="grey"/>
  <circle cx="80.8044" cy="161.204" r="4.74798" stroke-width="0.5" stroke="grey" fill="grey"/>
   </g>
   <g id="cell281">
  <circle cx="103.065" cy="164.83" r="8.25077" stroke-width="0.5" stroke="black" fill="grey"/>
  <circle cx="103.065" cy="164.83" r="4.77711" stroke-width="0.5" stroke="grey" fill="grey"/>
   </g>
   <g id="cell285">
  <circle cx="75.2355" cy="236.903" r="7.04509" stroke-width="0.5" stroke="black" fill="grey"/>
  <circle cx="75.2355" cy="236.903" r="2.09258" stroke-width="0.5" stroke="grey" fill="grey"/>
   </g>
   <g id="cell288">
  <circle cx="118.112" cy="170.194" r="4.8987" stroke-width="0.5" stroke="black" fill="grey"/>
   </g>
   <g id="cell291">
  <circle cx="104.682" cy="242.944" r="7.67544" stroke-width="0.5" stroke="black" fill="grey"/>
  <circle cx="104.682" cy="242.944" r="3.69568" stroke-width="0.5" stroke="grey" fill="grey"/>
   </g>
   <g id="cell292">
  <circle cx="99.1283" cy="257.446" r="8.0832" stroke-width="0.5" stroke="black" fill="grey"/>
  <circle cx="99.1283" cy="257.446" r="4.48149" stroke-width="0.5" stroke="grey" fill="grey"/>
   </g>
   <g id="cell298">
  <circle cx="130.583" cy="205.855" r="8.38029" stroke-width="0.5" stroke="black" fill="grey"/>
  <circle cx="130.583" cy="205.855" r="4.99749" stroke-width="0.5" stroke="grey" fill="grey"/>
   </g>
   <g id="cell299">
  <circle cx="128.494" cy="244.196" r="2.59219" stroke-width="0.5" stroke="black" fill="grey"/>
   </g>
   <g id="cell301">
  <circle cx="128.885" cy="268.414" r="6.9282" stroke-width="0.5" stroke="black" fill="grey"/>
  <circle cx="128.885" cy="268.414" r="1.65698" stroke-width="0.5" stroke="grey" fill="grey"/>
   </g>
   <g id="cell306">
  <circle cx="152.818" cy="196.668" r="5.47591" stroke-width="0.5" stroke="black" fill="grey"/>
   </g>
   <g id="cell307">
  <circle cx="136.652" cy="220.728" r="8.12386" stroke-width="0.5" stroke="black" fill="grey"/>
  <circle cx="136.652" cy="220.728" r="4.55442" stroke-width="0.5" stroke="grey" fill="grey"/>
   </g>
   <g id="cell308">
  <circle cx="130.749" cy="243.134" r="4.04139" stroke-width="0.5" stroke="black" fill="grey"/>
   </g>
   <g id="cell311">
  <circle cx="156.309" cy="119.556" r="8.40848" stroke-width="0.5" stroke="black" fill="grey"/>
  <circle cx="156.309" cy="119.556" r="5.04463" stroke-width="0.5" stroke="grey" fill="grey"/>
   </g>
   <g id="cell315">
  <circle cx="161.128" cy="180.099" r="8.2133" stroke-width="0.5" stroke="black" fill="grey"/>
  <circle cx="161.128" cy="180.099" r="4.71211" stroke-width="0.5" stroke="grey" fill="grey"/>
   </g>
   <g id="cell316">
  <circle cx="159.315" cy="215.957" r="3.81463" stroke-width="0.5" stroke="black" fill="grey"/>
   </g>
   <g id="cell318">
  <circle cx="144.342" cy="278.949" r="8.32519" stroke-width="0.5" stroke="black" fill="grey"/>
  <circle cx="144.342" cy="278.949" r="4.90454" stroke-width="0.5" stroke="grey" fill="grey"/>
   </g>
   <g id="cell323">
  <circle cx="168.574" cy="206.331" r="4.20352" stroke-width="0.5" stroke="black" fill="grey"/>
   </g>
   <g id="cell330">
  <circle cx="187.517" cy="207.519" r="3.83247" stroke-width="0.5" stroke="black" fill="grey"/>
   </g>
   <g id="cell344">
  <circle cx="83.7841" cy="215.344" r="8.2651" stroke-width="0.5" stroke="black" fill="grey"/>
  <circle cx="83.7841" cy="215.344" r="4.80182" stroke-width="0.5" stroke="grey" fill="grey"/>
   </g>
   <g id="cell353">
  <circle cx="109.289" cy="259.702" r="4.78337" stroke-width="0.5" stroke="black" fill="grey"/>
   </g>
   <g id="cell363">
  <circle cx="114.112" cy="274.083" r="6.55432" stroke-width="0.5" stroke="black" fill="grey"/>
   </g>
   <g id="cell368">
  <circle cx="108.728" cy="196.49" r="8.16577" stroke-width="0.5" stroke="black" fill="grey"/>
  <circle cx="108.728" cy="196.49" r="4.62877" stroke-width="0.5" stroke="grey" fill="grey"/>
   </g>
   <g id="cell386">
  <circle cx="163.123" cy="220.501" r="5.9417" stroke-width="0.5" stroke="black" fill="grey"/>
   </g>
   <g id="cell390">
  <circle cx="174.126" cy="183.088" r="7.76169" stroke-width="0.5" stroke="black" fill="grey"/>
  <circle cx="174.126" cy="183.088" r="3.87163" stroke-width="0.5" stroke="grey" fill="grey"/>
   </g>
   <g id="cell425">
  <circle cx="97.8596" cy="229.964" r="7.47873" stroke-width="0.5" stroke="black" fill="grey"/>
  <circle cx="97.8596" cy="229.964" r="3.26758" stroke-width="0.5" stroke="grey" fill="grey"/>
   </g>
   <g id="cell615">
  <circle cx="348.845" cy="187.501" r="5.63307" stroke-width="0.5" stroke="black" fill="red"/>
   </g>
   <g id="cell619">
  <circle cx="191.258" cy="169.376" r="6.59854" stroke-width="0.5" stroke="black" fill="red"/>
   </g>
   <g id="cell625">
  <circle cx="204.525" cy="172.098" r="8.30418" stroke-width="0.5" stroke="black" fill="red"/>
  <circle cx="204.525" cy="172.098" r="4.86878" stroke-width="0.5" stroke="red" fill="red"/>
   </g>
   <g id="cell646">
  <circle cx="297.006" cy="159.688" r="0.812586" stroke-width="0.5" stroke="black" fill="red"/>
   </g>
   <g id="cell647">
  <circle cx="286.419" cy="169.218" r="4.25254" stroke-width="0.5" stroke="black" fill="red"/>
   </g>
   <g id="cell649">
  <circle cx="273.709" cy="206.965" r="8.11691" stroke-width="0.5" stroke="black" fill="red"/>
  <circle cx="273.709" cy="206.965" r="4.54201" stroke-width="0.5" stroke="red" fill="red"/>
   </g>
   <g id="cell651">
  <circle cx="284.094" cy="261.548" r="8.34939" stroke-width="0.5" stroke="black" fill="red"/>
  <circle cx="284.094" cy="261.548" r="4.94551" stroke-width="0.5" stroke="red" fill="red"/>
   </g>
   <g id="cell669">
  <circle cx="334.81" cy="144.778" r="8.38575" stroke-width="0.5" stroke="black" fill="red"/>
  <circle cx="334.81" cy="144.778" r="5.00665" stroke-width="0.5" stroke="red" fill="red"/>
   </g>
   <g id="cell673">
  <circle cx="302.007" cy="204.835" r="2.84468" stroke-width="0.5" stroke="black" fill="red"/>
   </g>
   <g id="cell677">
  <circle cx="315.851" cy="141.472" r="5.21276" stroke-width="0.5" stroke="black" fill="red"/>
   </g>
   <g id="cell685">
  <circle cx="202.598" cy="214.912" r="6.64977" stroke-width="0.5" stroke="black" fill="red"/>
   </g>
   <g id="cell686">
  <circle cx="210.61" cy="247.736" r="7.54466" stroke-width="0.5" stroke="black" fill="red"/>
  <circle cx="210.61" cy="247.736" r="3.41578" stroke-width="0.5" stroke="red" fill="red"/>
   </g>
   <g id="cell691">
  <circle cx="209.147" cy="226.301" r="7.9251" stroke-width="0.5" stroke="black" fill="red"/>
  <circle cx="209.147" cy="226.301" r="4.18961" stroke-width="0.5" stroke="red" fill="red"/>
   </g>
   <g id="cell694">
  <circle cx="242.656" cy="161.838" r="7.6695" stroke-width="0.5" stroke="black" fill="red"/>
  <circle cx="242.656" cy="161.838" r="3.68332" stroke-width="0.5" stroke="red" fill="red"/>
   </g>
   <g id="cell695">
  <circle cx="249.247" cy="179.13" r="7.95695" stroke-width="0.5" stroke="black" fill="red"/>
  <circle cx="249.247" cy="179.13" r="4.24956" stroke-width="0.5" stroke="red" fill="red"/>
   </g>
   <g id="cell702">
  <circle cx="254.175" cy="192.261" r="5.60017" stroke-width="0.5" stroke="black" fill="red"/>
   </g>
   <g id="cell703">
  <circle cx="220.974" cy="170.935" r="1.28383" stroke-width="0.5" stroke="black" fill="red"/>
   </g>
   <g id="cell706">
  <circle cx="240.438" cy="246.291" r="4.84451" stroke-width="0.5" stroke="black" fill="red"/>
   </g>
   <g id="cell709">
  <circle cx="246.675" cy="126.559" r="8.08773" stroke-width="0.5" stroke="black" fill="red"/>
  <circle cx="246.675" cy="126.559" r="4.48967" stroke-width="0.5" stroke="red" fill="red"/>
   </g>
   <g id="cell712">
  <circle cx="238.944" cy="205.852" r="7.0609" stroke-width="0.5" stroke="black" fill="red"/>
  <circle cx="238.944" cy="205.852" r="2.14522" stroke-width="0.5" stroke="red" fill="red"/>
   </g>
   <g id="cell717">
  <circle cx="268.001" cy="122.908" r="6.01416" stroke-width="0.5" stroke="black" fill="red"/>
   </g>
   <g id="cell718">
  <circle cx="273.127" cy="165.143" r="4.25838" stroke-width="0.5" stroke="black" fill="red"/>
   </g>
   <g id="cell720">
  <circle cx="277.951" cy="188.554" r="8.37886" stroke-width="0.5" stroke="black" fill="red"/>
  <circle cx="277.951" cy="188.554" r="4.99509" stroke-width="0.5" stroke="red" fill="red"/>
   </g>
   <g id="cell721">
  <circle cx="275.431" cy="227.454" r="8.02821" stroke-width="0.5" stroke="black" fill="red"/>
  <circle cx="275.431" cy="227.454" r="4.38153" stroke-width="0.5" stroke="red" fill="red"/>
   </g>
   <g id="cell724">
  <circle cx="272.855" cy="271.328" r="8.4035" stroke-width="0.5" stroke="black" fill="red"/>
  <circle cx="272.855" cy="271.328" r="5.03632" stroke-width="0.5" stroke="red" fill="red"/>
   </g>
   <g id="cell725">
  <circle cx="284.626" cy="104.618" r="8.08133" stroke-width="0.5" stroke="black" fill="red"/>
  <circle cx="284.626" cy="104.618" r="4.47811" stroke-width="0.5" stroke="red" fill="red"/>
   </g>
   <g id="cell727">
  <circle cx="288.758" cy="164.349" r="4.36898" stroke-width="0.5" stroke="black" fill="red"/>
   </g>
   <g id="cell729">
  <circle cx="286.669" cy="210.448" r="6.34134" stroke-width="0.5" stroke="black" fill="red"/>
   </g>
   <g id="cell737">
  <circle cx="306.568" cy="213.2" r="8.21712" stroke-width="0.5" stroke="black" fill="red"/>
  <circle cx="306.568" cy="213.2" r="4.71876" stroke-width="0.5" stroke="red" fill="red"/>
   </g>
   <g id="cell739">
  <circle cx="318.91" cy="222.398" r="6.60418" stroke-width="0.5" stroke="black" fill="red"/>
   </g>
   <g id="cell740">
  <circle cx="298.519" cy="250.794" r="6.77503" stroke-width="0.5" stroke="black" fill="red"/>
  <circle cx="298.519" cy="250.794" r="0.804225" stroke-width="0.5" stroke="red" fill="red"/>
   </g>
   <g id="cell744">
  <circle cx="330.124" cy="178.243" r="8.3807" stroke-width="0.5" stroke="black" fill="red"/>
  <circle cx="330.124" cy="178.243" r="4.99818" stroke-width="0.5" stroke="red" fill="red"/>
   </g>
   <g id="cell747">
  <circle cx="325.141" cy="249.793" r="5.43407" stroke-width="0.5" stroke="black" fill="red"/>
   </g>
   <g id="cell748">
  <circle cx="334" cy="261.399" r="8.40048" stroke-width="0.5" stroke="black" fill="red"/>
  <circle cx="334" cy="261.399" r="5.03127" stroke-width="0.5" stroke="red" fill="red"/>
   </g>
   <g id="cell751">
  <circle cx="340.888" cy="203.758" r="8.30591" stroke-width="0.5" stroke="black" fill="red"/>
  <circle cx="340.888" cy="203.758" r="4.87173" stroke-width="0.5" stroke="red" fill="red"/>
   </g>
   <g id="cell753">
  <circle cx="362.753" cy="235.016" r="8.24019" stroke-width="0.5" stroke="black" fill="red"/>
  <circle cx="362.753" cy="235.016" r="4.75882" stroke-width="0.5" stroke="red" fill="red"/>
   </g>
   <g id="cell761">
  <circle cx="208.158" cy="136.421" r="4.65423" stroke-width="0.5" stroke="black" fill="red"/>
   </g>
   <g id="cell762">
  <circle cx="228.165" cy="162.686" r="7.27854" stroke-width="0.5" stroke="black" fill="red"/>
  <circle cx="228.165" cy="162.686" r="2.779" stroke-width="0.5" stroke="red" fill="red"/>
   </g>
   <g id="cell763">
  <circle cx="224.973" cy="196.554" r="2.13719" stroke-width="0.5" stroke="black" fill="red"/>
   </g>
   <g id="cell764">
  <circle cx="231.047" cy="228.275" r="8.38724" stroke-width="0.5" stroke="black" fill="red"/>
  <circle cx="231.047" cy="228.275" r="5.00914" stroke-width="0.5" stroke="red" fill="red"/>
   </g>
   <g id="cell768">
  <circle cx="250.887" cy="152.389" r="5.0826" stroke-width="0.5" stroke="black" fill="red"/>
   </g>
   <g id="cell782">
  <circle cx="252.973" cy="266.25" r="8.28431" stroke-width="0.5" stroke="black" fill="red"/>
  <circle cx="252.973" cy="266.25" r="4.83482" stroke-width="0.5" stroke="red" fill="red"/>
   </g>
   <g id="cell787">
  <circle cx="265.45" cy="172.681" r="7.93598" stroke-width="0.5" stroke="black" fill="red"/>
  <circle cx="265.45" cy="172.681" r="4.21016" stroke-width="0.5" stroke="red" fill="red"/>
   </g>
   <g id="cell789">
  <circle cx="252.9" cy="237.053" r="8.39749" stroke-width="0.5" stroke="black" fill="red"/>
  <circle cx="252.9" cy="237.053" r="5.02628" stroke-width="0.5" stroke="red" fill="red"/>
   </g>
   <g id="cell790">
  <circle cx="282.216" cy="282.462" r="8.13887" stroke-width="0.5" stroke="black" fill="red"/>
  <circle cx="282.216" cy="282.462" r="4.58115" stroke-width="0.5" stroke="red" fill="red"/>
   </g>
   <g id="cell792">
  <circle cx="299.103" cy="131.204" r="4.97479" stroke-width="0.5" stroke="black" fill="red"/>
   </g>
   <g id="cell802">
  <circle cx="311.677" cy="162.165" r="8.41268" stroke-width="0.5" stroke="black" fill="red"/>
  <circle cx="311.677" cy="162.165" r="5.05162" stroke-width="0.5" stroke="red" fill="red"/>
   </g>
   <g id="cell803">
  <circle cx="325.397" cy="208.71" r="8.20859" stroke-width="0.5" stroke="black" fill="red"/>
  <circle cx="325.397" cy="208.71" r="4.70389" stroke-width="0.5" stroke="red" fill="red"/>
   </g>
   <g id="cell807">
  <circle cx="292.632" cy="248.301" r="3.91616" stroke-width="0.5" stroke="black" fill="red"/>
   </g>
   <g id="cell811">
  <circle cx="315.304" cy="176.046" r="8.40981" stroke-width="0.5" stroke="black" fill="red"/>
  <circle cx="315.304" cy="176.046" r="5.04685" stroke-width="0.5" stroke="red" fill="red"/>
   </g>
   <g id="cell819">
  <circle cx="355.272" cy="169.238" r="0.519491" stroke-width="0.5" stroke="black" fill="red"/>
   </g>
   <g id="cell820">
  <circle cx="323.268" cy="239.543" r="6.36601" stroke-width="0.5" stroke="black" fill="red"/>
   </g>
   <g id="cell825">
  <circle cx="205.837" cy="156.4" r="4.73008" stroke-width="0.5" stroke="black" fill="red"/>
   </g>
   <g id="cell827">
  <circle cx="197.898" cy="236.008" r="6.39696" stroke-width="0.5" stroke="black" fill="red"/>
   </g>
   <g id="cell831">
  <circle cx="213.646" cy="188.159" r="7.77744" stroke-width="0.5" stroke="black" fill="red"/>
  <circle cx="213.646" cy="188.159" r="3.90311" stroke-width="0.5" stroke="red" fill="red"/>
   </g>
   <g id="cell854">
  <circle cx="281.353" cy="120.583" r="8.37959" stroke-width="0.5" stroke="black" fill="red"/>
  <circle cx="281.353" cy="120.583" r="4.99631" stroke-width="0.5" stroke="red" fill="red"/>
   </g>
   <g id="cell860">
  <circle cx="264.361" cy="253.445" r="8.15753" stroke-width="0.5" stroke="black" fill="red"/>
  <circle cx="264.361" cy="253.445" r="4.61421" stroke-width="0.5" stroke="red" fill="red"/>
   </g>
   <g id="cell877">
  <circle cx="339.162" cy="114.702" r="7.47236" stroke-width="0.5" stroke="black" fill="red"/>
  <circle cx="339.162" cy="114.702" r="3.25297" stroke-width="0.5" stroke="red" fill="red"/>
   </g>
  </g>
 </g>
  <rect x="190" y="414" width="200" height="4" stroke-width="0.8" stroke="rgb(255,255,255)" fill="rgb(0,0,0)"/>
  <text x="192.5" y="411.5"
   font-family="Arial" font-size="10" fill="black" >
   200 &#956;m
  </text>
  <text x="10" y="418"
   font-family="Arial" font-size="7.5" fill="black" >
   0 days, 0 hours, 1 minutes, and 47.9428 seconds
  </text>
  <rect x="0" y="28" width="400" height="400" stroke-width="0.8" stroke="rgb(0,0,0)" fill="none"/>
</svg>
