<?xml version="1.0" encoding="UTF-8" standalone="no"?>
<!-- Created with PhysiCell (http://PhysiCell.MathCancer.org/) -->
<svg 
 xmlns:dc="http://purl.org/dc/elements/1.1/" 
 xmlns:cc="http://creativecommons.org/ns#" 
 xmlns:rdf="http://www.w3.org/1999/02/22-rdf-syntax-ns#" 
 xmlns:svg="http://www.w3.org/2000/svg" 
 xmlns="http://www.w3.org/2000/svg" 
 version="1.1" 
 width="400" 
 height="428" 
 id="svg2">
  <rect x="0" y="0" width="400" height="428" stroke-width="0.8" stroke="white" fill="white"/>
  <text x="5" y="12"
   font-family="Arial" font-size="10" fill="black" >
   Current time: 4 days, 10 hours, and 0.00 minutes, z = 0.00 &#956;m
  </text>
  <text x="5" y="23"
   font-family="Arial" font-size="9.5" fill="black" >
   978 agents
  </text>
 <g id="tissue" 
    transform="translate(0,428) scale(1,-1)">
  <g id="ECM">
  </g>
  <g id="cells">
   <g id="cell7">
  <circle cx="60.7176" cy="164.936" r="5.57261" stroke-width="0.5" stroke="black" fill="grey"/>
   </g>
   <g id="cell20">
  <circle cx="147.84" cy="295.185" r="8.28453" stroke-width="0.5" stroke="black" fill="grey"/>
  <circle cx="147.84" cy="295.185" r="4.83519" stroke-width="0.5" stroke="grey" fill="grey"/>
   </g>
   <g id="cell36">
  <circle cx="11.3995" cy="221.588" r="8.07209" stroke-width="0.5" stroke="black" fill="grey"/>
  <circle cx="11.3995" cy="221.588" r="4.46142" stroke-width="0.5" stroke="grey" fill="grey"/>
   </g>
   <g id="cell37">
  <circle cx="174.695" cy="154.29" r="6.33765" stroke-width="0.5" stroke="black" fill="grey"/>
   </g>
   <g id="cell59">
  <circle cx="47.1585" cy="176.39" r="6.28777" stroke-width="0.5" stroke="black" fill="grey"/>
   </g>
   <g id="cell64">
  <circle cx="218.352" cy="224.752" r="1.95556" stroke-width="0.5" stroke="black" fill="grey"/>
   </g>
   <g id="cell105">
  <circle cx="91.7346" cy="112.286" r="6.83885" stroke-width="0.5" stroke="black" fill="grey"/>
  <circle cx="91.7346" cy="112.286" r="1.23106" stroke-width="0.5" stroke="grey" fill="grey"/>
   </g>
   <g id="cell129">
  <circle cx="98.6739" cy="166.802" r="6.38417" stroke-width="0.5" stroke="black" fill="grey"/>
   </g>
   <g id="cell131">
  <circle cx="29.6529" cy="185.514" r="5.54802" stroke-width="0.5" stroke="black" fill="grey"/>
   </g>
   <g id="cell139">
  <circle cx="87.3923" cy="293.809" r="1.10286" stroke-width="0.5" stroke="black" fill="grey"/>
   </g>
   <g id="cell141">
  <circle cx="41.315" cy="120.833" r="8.41271" stroke-width="0.5" stroke="black" fill="grey"/>
  <circle cx="41.315" cy="120.833" r="5.05167" stroke-width="0.5" stroke="grey" fill="grey"/>
   </g>
   <g id="cell145">
  <circle cx="137.669" cy="196.785" r="7.97052" stroke-width="0.5" stroke="black" fill="grey"/>
  <circle cx="137.669" cy="196.785" r="4.27492" stroke-width="0.5" stroke="grey" fill="grey"/>
   </g>
   <g id="cell165">
  <circle cx="163.66" cy="153.929" r="8.04993" stroke-width="0.5" stroke="black" fill="grey"/>
  <circle cx="163.66" cy="153.929" r="4.4212" stroke-width="0.5" stroke="grey" fill="grey"/>
   </g>
   <g id="cell171">
  <circle cx="64.9798" cy="335.224" r="7.97349" stroke-width="0.5" stroke="black" fill="grey"/>
  <circle cx="64.9798" cy="335.224" r="4.28045" stroke-width="0.5" stroke="grey" fill="grey"/>
   </g>
   <g id="cell178">
  <circle cx="126.75" cy="94.7924" r="8.07889" stroke-width="0.5" stroke="black" fill="grey"/>
  <circle cx="126.75" cy="94.7924" r="4.47371" stroke-width="0.5" stroke="grey" fill="grey"/>
   </g>
   <g id="cell203">
  <circle cx="43.0393" cy="301.378" r="5.53451" stroke-width="0.5" stroke="black" fill="grey"/>
   </g>
   <g id="cell204">
  <circle cx="55.3804" cy="123.068" r="0.669959" stroke-width="0.5" stroke="black" fill="grey"/>
   </g>
   <g id="cell241">
  <circle cx="211.531" cy="183.352" r="6.58589" stroke-width="0.5" stroke="black" fill="grey"/>
   </g>
   <g id="cell246">
  <circle cx="141.869" cy="25.5954" r="6.47665" stroke-width="0.5" stroke="black" fill="grey"/>
   </g>
   <g id="cell289">
  <circle cx="129.353" cy="159.2" r="6.77735" stroke-width="0.5" stroke="black" fill="grey"/>
  <circle cx="129.353" cy="159.2" r="0.823492" stroke-width="0.5" stroke="grey" fill="grey"/>
   </g>
   <g id="cell292">
  <circle cx="84.7509" cy="206.76" r="0.920533" stroke-width="0.5" stroke="black" fill="grey"/>
   </g>
   <g id="cell306">
  <circle cx="256.899" cy="213.681" r="5.2775" stroke-width="0.5" stroke="black" fill="grey"/>
   </g>
   <g id="cell341">
  <circle cx="67.7129" cy="119.269" r="8.14217" stroke-width="0.5" stroke="black" fill="grey"/>
  <circle cx="67.7129" cy="119.269" r="4.58701" stroke-width="0.5" stroke="grey" fill="grey"/>
   </g>
   <g id="cell387">
  <circle cx="146.442" cy="332.359" r="7.11695" stroke-width="0.5" stroke="black" fill="grey"/>
  <circle cx="146.442" cy="332.359" r="2.32307" stroke-width="0.5" stroke="grey" fill="grey"/>
   </g>
   <g id="cell394">
  <circle cx="176.267" cy="310.233" r="8.40826" stroke-width="0.5" stroke="black" fill="grey"/>
  <circle cx="176.267" cy="310.233" r="5.04425" stroke-width="0.5" stroke="grey" fill="grey"/>
   </g>
   <g id="cell397">
  <circle cx="130.776" cy="305.34" r="7.99342" stroke-width="0.5" stroke="black" fill="grey"/>
  <circle cx="130.776" cy="305.34" r="4.31745" stroke-width="0.5" stroke="grey" fill="grey"/>
   </g>
   <g id="cell402">
  <circle cx="11.5045" cy="267.274" r="6.91099" stroke-width="0.5" stroke="black" fill="grey"/>
  <circle cx="11.5045" cy="267.274" r="1.58351" stroke-width="0.5" stroke="grey" fill="grey"/>
   </g>
   <g id="cell413">
  <circle cx="83.19" cy="85.8126" r="5.26223" stroke-width="0.5" stroke="black" fill="grey"/>
   </g>
   <g id="cell416">
  <circle cx="70.2822" cy="201.888" r="7.89748" stroke-width="0.5" stroke="black" fill="grey"/>
  <circle cx="70.2822" cy="201.888" r="4.13713" stroke-width="0.5" stroke="grey" fill="grey"/>
   </g>
   <g id="cell420">
  <circle cx="232.602" cy="90.6215" r="8.39492" stroke-width="0.5" stroke="black" fill="grey"/>
  <circle cx="232.602" cy="90.6215" r="5.02199" stroke-width="0.5" stroke="grey" fill="grey"/>
   </g>
   <g id="cell422">
  <circle cx="134.369" cy="207.302" r="6.5696" stroke-width="0.5" stroke="black" fill="grey"/>
   </g>
   <g id="cell459">
  <circle cx="139.074" cy="154.509" r="8.13882" stroke-width="0.5" stroke="black" fill="grey"/>
  <circle cx="139.074" cy="154.509" r="4.58105" stroke-width="0.5" stroke="grey" fill="grey"/>
   </g>
   <g id="cell527">
  <circle cx="238.219" cy="160.099" r="6.31054" stroke-width="0.5" stroke="black" fill="red"/>
   </g>
   <g id="cell531">
  <circle cx="265.104" cy="57.2306" r="7.32814" stroke-width="0.5" stroke="black" fill="red"/>
  <circle cx="265.104" cy="57.2306" r="2.90644" stroke-width="0.5" stroke="red" fill="red"/>
   </g>
   <g id="cell537">
  <circle cx="342.123" cy="116.909" r="8.41271" stroke-width="0.5" stroke="black" fill="red"/>
  <circle cx="342.123" cy="116.909" r="5.05167" stroke-width="0.5" stroke="red" fill="red"/>
   </g>
   <g id="cell556">
  <circle cx="336.443" cy="168.923" r="7.66122" stroke-width="0.5" stroke="black" fill="red"/>
  <circle cx="336.443" cy="168.923" r="3.66605" stroke-width="0.5" stroke="red" fill="red"/>
   </g>
   <g id="cell562">
  <circle cx="178.926" cy="227.608" r="3.4559" stroke-width="0.5" stroke="black" fill="red"/>
   </g>
   <g id="cell579">
  <circle cx="270.016" cy="245.029" r="8.37192" stroke-width="0.5" stroke="black" fill="red"/>
  <circle cx="270.016" cy="245.029" r="4.98344" stroke-width="0.5" stroke="red" fill="red"/>
   </g>
   <g id="cell581">
  <circle cx="265.635" cy="118.131" r="8.13408" stroke-width="0.5" stroke="black" fill="red"/>
  <circle cx="265.635" cy="118.131" r="4.57263" stroke-width="0.5" stroke="red" fill="red"/>
   </g>
   <g id="cell637">
  <circle cx="201.911" cy="145.078" r="4.71502" stroke-width="0.5" stroke="black" fill="red"/>
   </g>
   <g id="cell657">
  <circle cx="338.619" cy="129.712" r="8.24699" stroke-width="0.5" stroke="black" fill="red"/>
  <circle cx="338.619" cy="129.712" r="4.77059" stroke-width="0.5" stroke="red" fill="red"/>
   </g>
   <g id="cell680">
  <circle cx="309.653" cy="227.967" r="8.36398" stroke-width="0.5" stroke="black" fill="red"/>
  <circle cx="309.653" cy="227.967" r="4.97009" stroke-width="0.5" stroke="red" fill="red"/>
   </g>
   <g id="cell708">
  <circle cx="298.101" cy="209.375" r="5.70631" stroke-width="0.5" stroke="black" fill="red"/>
   </g>
   <g id="cell726">
  <circle cx="252.501" cy="19.6493" r="6.09578" stroke-width="0.5" stroke="black" fill="red"/>
   </g>
   <g id="cell742">
  <circle cx="318.321" cy="85.0219" r="4.53254" stroke-width="0.5" stroke="black" fill="red"/>
   </g>
   <g id="cell743">
  <circle cx="366.689" cy="190.937" r="8.36777" stroke-width="0.5" stroke="black" fill="red"/>
  <circle cx="366.689" cy="190.937" r="4.97646" stroke-width="0.5" stroke="red" fill="red"/>
   </g>
   <g id="cell744">
  <circle cx="273.542" cy="156.34" r="7.95004" stroke-width="0.5" stroke="black" fill="red"/>
  <circle cx="273.542" cy="156.34" r="4.23661" stroke-width="0.5" stroke="red" fill="red"/>
   </g>
   <g id="cell767">
  <circle cx="240.854" cy="98.9757" r="2.98247" stroke-width="0.5" stroke="black" fill="red"/>
   </g>
   <g id="cell800">
  <circle cx="324.232" cy="72.2192" r="7.94255" stroke-width="0.5" stroke="black" fill="red"/>
  <circle cx="324.232" cy="72.2192" r="4.22254" stroke-width="0.5" stroke="red" fill="red"/>
   </g>
   <g id="cell812">
  <circle cx="308.285" cy="147.946" r="7.92767" stroke-width="0.5" stroke="black" fill="red"/>
  <circle cx="308.285" cy="147.946" r="4.19448" stroke-width="0.5" stroke="red" fill="red"/>
   </g>
   <g id="cell834">
  <circle cx="171.674" cy="182.819" r="8.4125" stroke-width="0.5" stroke="black" fill="red"/>
  <circle cx="171.674" cy="182.819" r="5.05132" stroke-width="0.5" stroke="red" fill="red"/>
   </g>
   <g id="cell894">
  <circle cx="189.506" cy="57.5249" r="7.73024" stroke-width="0.5" stroke="black" fill="red"/>
  <circle cx="189.506" cy="57.5249" r="3.80818" stroke-width="0.5" stroke="red" fill="red"/>
   </g>
   <g id="cell905">
  <circle cx="136.321" cy="273.358" r="5.71223" stroke-width="0.5" stroke="black" fill="red"/>
   </g>
   <g id="cell923">
  <circle cx="257.761" cy="257.867" r="2.07938" stroke-width="0.5" stroke="black" fill="red"/>
   </g>
   <g id="cell952">
  <circle cx="198.17" cy="282.453" r="6.1096" stroke-width="0.5" stroke="black" fill="red"/>
   </g>
   <g id="cell971">
  <circle cx="252.725" cy="192.349" r="6.85161" stroke-width="0.5" stroke="black" fill="red"/>
  <circle cx="252.725" cy="192.349" r="1.30009" stroke-width="0.5" stroke="red" fill="red"/>
   </g>
  </g>
 </g>
  <rect x="190" y="414" width="200" height="4" stroke-width="0.8" stroke="rgb(255,255,255)" fill="rgb(0,0,0)"/>
  <text x="192.5" y="411.5"
   font-family="Arial" font-size="10" fill="black" >
   200 &#956;m
  </text>
  <text x="10" y="418"
   font-family="Arial" font-size="7.5" fill="black" >
   0 days, 0 hours, 27 minutes, and 42.4465 seconds
  </text>
  <rect x="0" y="28" width="400" height="400" stroke-width="0.8" stroke="rgb(0,0,0)" fill="none"/>
</svg>
