<?xml version="1.0" encoding="UTF-8" standalone="no"?>
<!-- Created with PhysiCell (http://PhysiCell.MathCancer.org/) -->
<svg 
 xmlns:dc="http://purl.org/dc/elements/1.1/" 
 xmlns:cc="http://creativecommons.org/ns#" 
 xmlns:rdf="http://www.w3.org/1999/02/22-rdf-syntax-ns#" 
 xmlns:svg="http://www.w3.org/2000/svg" 
 xmlns="http://www.w3.org/2000/svg" 
 version="1.1" 
 width="400" 
 height="428" 
 id="svg2">
  <rect x="0" y="0" width="400" height="428" stroke-width="0.8" stroke="white" fill="white"/>
  <text x="5" y="12"
   font-family="Arial" font-size="10" fill="black" >
   Current time: 2 days, 20 hours, and 0.00 minutes, z = 0.00 &#956;m
  </text>
  <text x="5" y="23"
   font-family="Arial" font-size="9.5" fill="black" >
   978 agents
  </text>
 <g id="tissue" 
    transform="translate(0,428) scale(1,-1)">
  <g id="ECM">
  </g>
  <g id="cells">
   <g id="cell4">
  <circle cx="135.652" cy="216.824" r="8.28879" stroke-width="0.5" stroke="black" fill="grey"/>
  <circle cx="135.652" cy="216.824" r="4.84249" stroke-width="0.5" stroke="grey" fill="grey"/>
   </g>
   <g id="cell20">
  <circle cx="121.352" cy="253.952" r="0.777729" stroke-width="0.5" stroke="black" fill="grey"/>
   </g>
   <g id="cell21">
  <circle cx="192.07" cy="139.643" r="5.80904" stroke-width="0.5" stroke="black" fill="grey"/>
   </g>
   <g id="cell30">
  <circle cx="119.468" cy="234.483" r="8.38064" stroke-width="0.5" stroke="black" fill="grey"/>
  <circle cx="119.468" cy="234.483" r="4.99807" stroke-width="0.5" stroke="grey" fill="grey"/>
   </g>
   <g id="cell35">
  <circle cx="163.905" cy="172.966" r="7.70684" stroke-width="0.5" stroke="black" fill="grey"/>
  <circle cx="163.905" cy="172.966" r="3.76046" stroke-width="0.5" stroke="grey" fill="grey"/>
   </g>
   <g id="cell59">
  <circle cx="74.9624" cy="240.75" r="7.74635" stroke-width="0.5" stroke="black" fill="grey"/>
  <circle cx="74.9624" cy="240.75" r="3.84079" stroke-width="0.5" stroke="grey" fill="grey"/>
   </g>
   <g id="cell71">
  <circle cx="90.0763" cy="188.72" r="7.96887" stroke-width="0.5" stroke="black" fill="grey"/>
  <circle cx="90.0763" cy="188.72" r="4.27184" stroke-width="0.5" stroke="grey" fill="grey"/>
   </g>
   <g id="cell90">
  <circle cx="69.3354" cy="177.409" r="4.80353" stroke-width="0.5" stroke="black" fill="grey"/>
   </g>
   <g id="cell104">
  <circle cx="118.444" cy="144.94" r="8.1188" stroke-width="0.5" stroke="black" fill="grey"/>
  <circle cx="118.444" cy="144.94" r="4.5454" stroke-width="0.5" stroke="grey" fill="grey"/>
   </g>
   <g id="cell112">
  <circle cx="177.194" cy="102.348" r="8.34671" stroke-width="0.5" stroke="black" fill="grey"/>
  <circle cx="177.194" cy="102.348" r="4.94097" stroke-width="0.5" stroke="grey" fill="grey"/>
   </g>
   <g id="cell141">
  <circle cx="89.822" cy="100.329" r="8.36441" stroke-width="0.5" stroke="black" fill="grey"/>
  <circle cx="89.822" cy="100.329" r="4.97081" stroke-width="0.5" stroke="grey" fill="grey"/>
   </g>
   <g id="cell147">
  <circle cx="87.4835" cy="127.853" r="7.24642" stroke-width="0.5" stroke="black" fill="grey"/>
  <circle cx="87.4835" cy="127.853" r="2.69376" stroke-width="0.5" stroke="grey" fill="grey"/>
   </g>
   <g id="cell150">
  <circle cx="167.991" cy="249.519" r="4.74112" stroke-width="0.5" stroke="black" fill="grey"/>
   </g>
   <g id="cell171">
  <circle cx="54.6695" cy="359.782" r="7.11354" stroke-width="0.5" stroke="black" fill="grey"/>
  <circle cx="54.6695" cy="359.782" r="2.31261" stroke-width="0.5" stroke="grey" fill="grey"/>
   </g>
   <g id="cell196">
  <circle cx="89.0245" cy="238.586" r="8.02413" stroke-width="0.5" stroke="black" fill="grey"/>
  <circle cx="89.0245" cy="238.586" r="4.37406" stroke-width="0.5" stroke="grey" fill="grey"/>
   </g>
   <g id="cell204">
  <circle cx="57.0688" cy="171.702" r="7.85598" stroke-width="0.5" stroke="black" fill="grey"/>
  <circle cx="57.0688" cy="171.702" r="4.05735" stroke-width="0.5" stroke="grey" fill="grey"/>
   </g>
   <g id="cell226">
  <circle cx="82.1794" cy="293.667" r="4.9543" stroke-width="0.5" stroke="black" fill="grey"/>
   </g>
   <g id="cell231">
  <circle cx="153.053" cy="191.621" r="7.26636" stroke-width="0.5" stroke="black" fill="grey"/>
  <circle cx="153.053" cy="191.621" r="2.74693" stroke-width="0.5" stroke="grey" fill="grey"/>
   </g>
   <g id="cell232">
  <circle cx="109.834" cy="199.668" r="7.32413" stroke-width="0.5" stroke="black" fill="grey"/>
  <circle cx="109.834" cy="199.668" r="2.89629" stroke-width="0.5" stroke="grey" fill="grey"/>
   </g>
   <g id="cell242">
  <circle cx="41.4018" cy="215.326" r="4.94261" stroke-width="0.5" stroke="black" fill="grey"/>
   </g>
   <g id="cell300">
  <circle cx="164.957" cy="269.182" r="7.46605" stroke-width="0.5" stroke="black" fill="grey"/>
  <circle cx="164.957" cy="269.182" r="3.23846" stroke-width="0.5" stroke="grey" fill="grey"/>
   </g>
   <g id="cell301">
  <circle cx="145.822" cy="244.967" r="6.93225" stroke-width="0.5" stroke="black" fill="grey"/>
  <circle cx="145.822" cy="244.967" r="1.67383" stroke-width="0.5" stroke="grey" fill="grey"/>
   </g>
   <g id="cell310">
  <circle cx="159.646" cy="328.22" r="2.76144" stroke-width="0.5" stroke="black" fill="grey"/>
   </g>
   <g id="cell346">
  <circle cx="41.424" cy="290.255" r="8.01563" stroke-width="0.5" stroke="black" fill="grey"/>
  <circle cx="41.424" cy="290.255" r="4.35843" stroke-width="0.5" stroke="grey" fill="grey"/>
   </g>
   <g id="cell359">
  <circle cx="170.485" cy="224.314" r="4.31947" stroke-width="0.5" stroke="black" fill="grey"/>
   </g>
   <g id="cell378">
  <circle cx="146.795" cy="321.948" r="3.83062" stroke-width="0.5" stroke="black" fill="grey"/>
   </g>
   <g id="cell397">
  <circle cx="153.716" cy="256.737" r="6.38254" stroke-width="0.5" stroke="black" fill="grey"/>
   </g>
   <g id="cell405">
  <circle cx="114.056" cy="175.587" r="8.22468" stroke-width="0.5" stroke="black" fill="grey"/>
  <circle cx="114.056" cy="175.587" r="4.73191" stroke-width="0.5" stroke="grey" fill="grey"/>
   </g>
   <g id="cell423">
  <circle cx="72.6887" cy="226.399" r="7.91364" stroke-width="0.5" stroke="black" fill="grey"/>
  <circle cx="72.6887" cy="226.399" r="4.16789" stroke-width="0.5" stroke="grey" fill="grey"/>
   </g>
   <g id="cell424">
  <circle cx="18.0107" cy="238.406" r="8.10904" stroke-width="0.5" stroke="black" fill="grey"/>
  <circle cx="18.0107" cy="238.406" r="4.52794" stroke-width="0.5" stroke="grey" fill="grey"/>
   </g>
   <g id="cell453">
  <circle cx="100.863" cy="212.047" r="8.38913" stroke-width="0.5" stroke="black" fill="grey"/>
  <circle cx="100.863" cy="212.047" r="5.0123" stroke-width="0.5" stroke="grey" fill="grey"/>
   </g>
   <g id="cell477">
  <circle cx="116.884" cy="213.344" r="6.98114" stroke-width="0.5" stroke="black" fill="grey"/>
  <circle cx="116.884" cy="213.344" r="1.86601" stroke-width="0.5" stroke="grey" fill="grey"/>
   </g>
   <g id="cell479">
  <circle cx="231.141" cy="197.841" r="6.7029" stroke-width="0.5" stroke="black" fill="grey"/>
   </g>
   <g id="cell511">
  <circle cx="280.573" cy="177.079" r="8.1854" stroke-width="0.5" stroke="black" fill="red"/>
  <circle cx="280.573" cy="177.079" r="4.66331" stroke-width="0.5" stroke="red" fill="red"/>
   </g>
   <g id="cell523">
  <circle cx="217.189" cy="251.978" r="3.80835" stroke-width="0.5" stroke="black" fill="red"/>
   </g>
   <g id="cell524">
  <circle cx="263.55" cy="146.303" r="8.40027" stroke-width="0.5" stroke="black" fill="red"/>
  <circle cx="263.55" cy="146.303" r="5.03093" stroke-width="0.5" stroke="red" fill="red"/>
   </g>
   <g id="cell535">
  <circle cx="219.272" cy="290.545" r="7.15232" stroke-width="0.5" stroke="black" fill="red"/>
  <circle cx="219.272" cy="290.545" r="2.42928" stroke-width="0.5" stroke="red" fill="red"/>
   </g>
   <g id="cell554">
  <circle cx="334.486" cy="343.252" r="4.25045" stroke-width="0.5" stroke="black" fill="red"/>
   </g>
   <g id="cell556">
  <circle cx="350.713" cy="184.666" r="8.4124" stroke-width="0.5" stroke="black" fill="red"/>
  <circle cx="350.713" cy="184.666" r="5.05115" stroke-width="0.5" stroke="red" fill="red"/>
   </g>
   <g id="cell558">
  <circle cx="277.4" cy="219.382" r="1.51326" stroke-width="0.5" stroke="black" fill="red"/>
   </g>
   <g id="cell566">
  <circle cx="206.693" cy="190.157" r="8.1065" stroke-width="0.5" stroke="black" fill="red"/>
  <circle cx="206.693" cy="190.157" r="4.52339" stroke-width="0.5" stroke="red" fill="red"/>
   </g>
   <g id="cell569">
  <circle cx="280.846" cy="145.213" r="8.34211" stroke-width="0.5" stroke="black" fill="red"/>
  <circle cx="280.846" cy="145.213" r="4.9332" stroke-width="0.5" stroke="red" fill="red"/>
   </g>
   <g id="cell573">
  <circle cx="269.16" cy="262.046" r="7.21532" stroke-width="0.5" stroke="black" fill="red"/>
  <circle cx="269.16" cy="262.046" r="2.60893" stroke-width="0.5" stroke="red" fill="red"/>
   </g>
   <g id="cell614">
  <circle cx="315.605" cy="158.348" r="8.29546" stroke-width="0.5" stroke="black" fill="red"/>
  <circle cx="315.605" cy="158.348" r="4.85389" stroke-width="0.5" stroke="red" fill="red"/>
   </g>
   <g id="cell624">
  <circle cx="276.035" cy="156.251" r="3.52584" stroke-width="0.5" stroke="black" fill="red"/>
   </g>
   <g id="cell626">
  <circle cx="212.467" cy="208.153" r="4.59648" stroke-width="0.5" stroke="black" fill="red"/>
   </g>
   <g id="cell633">
  <circle cx="246.879" cy="294.176" r="7.91891" stroke-width="0.5" stroke="black" fill="red"/>
  <circle cx="246.879" cy="294.176" r="4.1779" stroke-width="0.5" stroke="red" fill="red"/>
   </g>
   <g id="cell635">
  <circle cx="264.786" cy="311.029" r="3.52304" stroke-width="0.5" stroke="black" fill="red"/>
   </g>
   <g id="cell654">
  <circle cx="297.256" cy="108.623" r="8.39876" stroke-width="0.5" stroke="black" fill="red"/>
  <circle cx="297.256" cy="108.623" r="5.0284" stroke-width="0.5" stroke="red" fill="red"/>
   </g>
   <g id="cell659">
  <circle cx="319.099" cy="254.562" r="8.41184" stroke-width="0.5" stroke="black" fill="red"/>
  <circle cx="319.099" cy="254.562" r="5.05023" stroke-width="0.5" stroke="red" fill="red"/>
   </g>
   <g id="cell669">
  <circle cx="358.685" cy="127.521" r="6.11065" stroke-width="0.5" stroke="black" fill="red"/>
   </g>
   <g id="cell675">
  <circle cx="388.388" cy="312.229" r="7.22038" stroke-width="0.5" stroke="black" fill="red"/>
  <circle cx="388.388" cy="312.229" r="2.62289" stroke-width="0.5" stroke="red" fill="red"/>
   </g>
   <g id="cell678">
  <circle cx="286.595" cy="159.543" r="8.25208" stroke-width="0.5" stroke="black" fill="red"/>
  <circle cx="286.595" cy="159.543" r="4.77938" stroke-width="0.5" stroke="red" fill="red"/>
   </g>
   <g id="cell681">
  <circle cx="370.214" cy="318.581" r="8.04613" stroke-width="0.5" stroke="black" fill="red"/>
  <circle cx="370.214" cy="318.581" r="4.41429" stroke-width="0.5" stroke="red" fill="red"/>
   </g>
   <g id="cell710">
  <circle cx="259.091" cy="189.53" r="8.39165" stroke-width="0.5" stroke="black" fill="red"/>
  <circle cx="259.091" cy="189.53" r="5.01652" stroke-width="0.5" stroke="red" fill="red"/>
   </g>
   <g id="cell726">
  <circle cx="260.188" cy="43.3858" r="8.25621" stroke-width="0.5" stroke="black" fill="red"/>
  <circle cx="260.188" cy="43.3858" r="4.78652" stroke-width="0.5" stroke="red" fill="red"/>
   </g>
   <g id="cell733">
  <circle cx="319.595" cy="330.361" r="1.56109" stroke-width="0.5" stroke="black" fill="red"/>
   </g>
   <g id="cell741">
  <circle cx="265.851" cy="330.333" r="8.37472" stroke-width="0.5" stroke="black" fill="red"/>
  <circle cx="265.851" cy="330.333" r="4.98815" stroke-width="0.5" stroke="red" fill="red"/>
   </g>
   <g id="cell742">
  <circle cx="327.89" cy="102.363" r="8.39122" stroke-width="0.5" stroke="black" fill="red"/>
  <circle cx="327.89" cy="102.363" r="5.01579" stroke-width="0.5" stroke="red" fill="red"/>
   </g>
   <g id="cell769">
  <circle cx="307.494" cy="206.941" r="7.70933" stroke-width="0.5" stroke="black" fill="red"/>
  <circle cx="307.494" cy="206.941" r="3.76556" stroke-width="0.5" stroke="red" fill="red"/>
   </g>
   <g id="cell777">
  <circle cx="284.03" cy="237.834" r="5.7871" stroke-width="0.5" stroke="black" fill="red"/>
   </g>
   <g id="cell778">
  <circle cx="248.085" cy="209.013" r="8.22086" stroke-width="0.5" stroke="black" fill="red"/>
  <circle cx="248.085" cy="209.013" r="4.72528" stroke-width="0.5" stroke="red" fill="red"/>
   </g>
   <g id="cell819">
  <circle cx="344.394" cy="216.266" r="1.91557" stroke-width="0.5" stroke="black" fill="red"/>
   </g>
   <g id="cell831">
  <circle cx="185.117" cy="196.884" r="4.70863" stroke-width="0.5" stroke="black" fill="red"/>
   </g>
   <g id="cell836">
  <circle cx="275.818" cy="95.2651" r="7.4202" stroke-width="0.5" stroke="black" fill="red"/>
  <circle cx="275.818" cy="95.2651" r="3.1313" stroke-width="0.5" stroke="red" fill="red"/>
   </g>
   <g id="cell838">
  <circle cx="284.49" cy="83.5485" r="8.14175" stroke-width="0.5" stroke="black" fill="red"/>
  <circle cx="284.49" cy="83.5485" r="4.58625" stroke-width="0.5" stroke="red" fill="red"/>
   </g>
   <g id="cell845">
  <circle cx="232.446" cy="86.616" r="1.47841" stroke-width="0.5" stroke="black" fill="red"/>
   </g>
   <g id="cell849">
  <circle cx="226.541" cy="166.052" r="6.48411" stroke-width="0.5" stroke="black" fill="red"/>
   </g>
   <g id="cell854">
  <circle cx="280.066" cy="111.842" r="4.45275" stroke-width="0.5" stroke="black" fill="red"/>
   </g>
   <g id="cell867">
  <circle cx="264.869" cy="365.751" r="8.23274" stroke-width="0.5" stroke="black" fill="red"/>
  <circle cx="264.869" cy="365.751" r="4.74591" stroke-width="0.5" stroke="red" fill="red"/>
   </g>
   <g id="cell899">
  <circle cx="271.015" cy="295.434" r="7.8706" stroke-width="0.5" stroke="black" fill="red"/>
  <circle cx="271.015" cy="295.434" r="4.08559" stroke-width="0.5" stroke="red" fill="red"/>
   </g>
   <g id="cell935">
  <circle cx="329.644" cy="288.425" r="7.5645" stroke-width="0.5" stroke="black" fill="red"/>
  <circle cx="329.644" cy="288.425" r="3.45938" stroke-width="0.5" stroke="red" fill="red"/>
   </g>
   <g id="cell949">
  <circle cx="195.971" cy="157.27" r="7.63495" stroke-width="0.5" stroke="black" fill="red"/>
  <circle cx="195.971" cy="157.27" r="3.61083" stroke-width="0.5" stroke="red" fill="red"/>
   </g>
  </g>
 </g>
  <rect x="190" y="414" width="200" height="4" stroke-width="0.8" stroke="rgb(255,255,255)" fill="rgb(0,0,0)"/>
  <text x="192.5" y="411.5"
   font-family="Arial" font-size="10" fill="black" >
   200 &#956;m
  </text>
  <text x="10" y="418"
   font-family="Arial" font-size="7.5" fill="black" >
   0 days, 0 hours, 19 minutes, and 59.6361 seconds
  </text>
  <rect x="0" y="28" width="400" height="400" stroke-width="0.8" stroke="rgb(0,0,0)" fill="none"/>
</svg>
