<?xml version="1.0" encoding="UTF-8" standalone="no"?>
<!-- Created with PhysiCell (http://PhysiCell.MathCancer.org/) -->
<svg 
 xmlns:dc="http://purl.org/dc/elements/1.1/" 
 xmlns:cc="http://creativecommons.org/ns#" 
 xmlns:rdf="http://www.w3.org/1999/02/22-rdf-syntax-ns#" 
 xmlns:svg="http://www.w3.org/2000/svg" 
 xmlns="http://www.w3.org/2000/svg" 
 version="1.1" 
 width="400" 
 height="428" 
 id="svg2">
  <rect x="0" y="0" width="400" height="428" stroke-width="0.8" stroke="white" fill="white"/>
  <text x="5" y="12"
   font-family="Arial" font-size="10" fill="black" >
   Current time: 3 days, 5 hours, and 0.00 minutes, z = 0.00 &#956;m
  </text>
  <text x="5" y="23"
   font-family="Arial" font-size="9.5" fill="black" >
   978 agents
  </text>
 <g id="tissue" 
    transform="translate(0,428) scale(1,-1)">
  <g id="ECM">
  </g>
  <g id="cells">
   <g id="cell4">
  <circle cx="129.885" cy="227.49" r="6.95804" stroke-width="0.5" stroke="black" fill="grey"/>
  <circle cx="129.885" cy="227.49" r="1.77764" stroke-width="0.5" stroke="grey" fill="grey"/>
   </g>
   <g id="cell35">
  <circle cx="177.328" cy="177.584" r="3.36238" stroke-width="0.5" stroke="black" fill="grey"/>
   </g>
   <g id="cell37">
  <circle cx="171.726" cy="151.708" r="8.40826" stroke-width="0.5" stroke="black" fill="grey"/>
  <circle cx="171.726" cy="151.708" r="5.04426" stroke-width="0.5" stroke="grey" fill="grey"/>
   </g>
   <g id="cell58">
  <circle cx="195.012" cy="286.233" r="8.34632" stroke-width="0.5" stroke="black" fill="grey"/>
  <circle cx="195.012" cy="286.233" r="4.94032" stroke-width="0.5" stroke="grey" fill="grey"/>
   </g>
   <g id="cell71">
  <circle cx="98.4119" cy="203.225" r="6.84039" stroke-width="0.5" stroke="black" fill="grey"/>
  <circle cx="98.4119" cy="203.225" r="1.23958" stroke-width="0.5" stroke="grey" fill="grey"/>
   </g>
   <g id="cell81">
  <circle cx="122.485" cy="95.5849" r="7.13535" stroke-width="0.5" stroke="black" fill="grey"/>
  <circle cx="122.485" cy="95.5849" r="2.37885" stroke-width="0.5" stroke="grey" fill="grey"/>
   </g>
   <g id="cell88">
  <circle cx="172.274" cy="78.5879" r="7.56719" stroke-width="0.5" stroke="black" fill="grey"/>
  <circle cx="172.274" cy="78.5879" r="3.46527" stroke-width="0.5" stroke="grey" fill="grey"/>
   </g>
   <g id="cell93">
  <circle cx="39.2194" cy="297.115" r="7.60341" stroke-width="0.5" stroke="black" fill="grey"/>
  <circle cx="39.2194" cy="297.115" r="3.54366" stroke-width="0.5" stroke="grey" fill="grey"/>
   </g>
   <g id="cell104">
  <circle cx="122.708" cy="174.731" r="5.45054" stroke-width="0.5" stroke="black" fill="grey"/>
   </g>
   <g id="cell107">
  <circle cx="148.278" cy="300.978" r="8.18781" stroke-width="0.5" stroke="black" fill="grey"/>
  <circle cx="148.278" cy="300.978" r="4.66754" stroke-width="0.5" stroke="grey" fill="grey"/>
   </g>
   <g id="cell108">
  <circle cx="141.619" cy="271.632" r="8.30797" stroke-width="0.5" stroke="black" fill="grey"/>
  <circle cx="141.619" cy="271.632" r="4.87525" stroke-width="0.5" stroke="grey" fill="grey"/>
   </g>
   <g id="cell139">
  <circle cx="42.4884" cy="266.455" r="7.18496" stroke-width="0.5" stroke="black" fill="grey"/>
  <circle cx="42.4884" cy="266.455" r="2.52375" stroke-width="0.5" stroke="grey" fill="grey"/>
   </g>
   <g id="cell159">
  <circle cx="69.1762" cy="246.264" r="8.35692" stroke-width="0.5" stroke="black" fill="grey"/>
  <circle cx="69.1762" cy="246.264" r="4.95821" stroke-width="0.5" stroke="grey" fill="grey"/>
   </g>
   <g id="cell166">
  <circle cx="148.457" cy="112.27" r="4.09161" stroke-width="0.5" stroke="black" fill="grey"/>
   </g>
   <g id="cell175">
  <circle cx="152.948" cy="164.903" r="6.43034" stroke-width="0.5" stroke="black" fill="grey"/>
   </g>
   <g id="cell178">
  <circle cx="94.8613" cy="152.179" r="8.17357" stroke-width="0.5" stroke="black" fill="grey"/>
  <circle cx="94.8613" cy="152.179" r="4.64252" stroke-width="0.5" stroke="grey" fill="grey"/>
   </g>
   <g id="cell179">
  <circle cx="132.039" cy="251.526" r="7.42341" stroke-width="0.5" stroke="black" fill="grey"/>
  <circle cx="132.039" cy="251.526" r="3.13891" stroke-width="0.5" stroke="grey" fill="grey"/>
   </g>
   <g id="cell195">
  <circle cx="87.5133" cy="131.218" r="7.41627" stroke-width="0.5" stroke="black" fill="grey"/>
  <circle cx="87.5133" cy="131.218" r="3.12199" stroke-width="0.5" stroke="grey" fill="grey"/>
   </g>
   <g id="cell199">
  <circle cx="54.7578" cy="173.883" r="6.82067" stroke-width="0.5" stroke="black" fill="grey"/>
  <circle cx="54.7578" cy="173.883" r="1.12571" stroke-width="0.5" stroke="grey" fill="grey"/>
   </g>
   <g id="cell207">
  <circle cx="37.5188" cy="241.422" r="7.22226" stroke-width="0.5" stroke="black" fill="grey"/>
  <circle cx="37.5188" cy="241.422" r="2.62807" stroke-width="0.5" stroke="grey" fill="grey"/>
   </g>
   <g id="cell226">
  <circle cx="107.342" cy="290.747" r="4.42677" stroke-width="0.5" stroke="black" fill="grey"/>
   </g>
   <g id="cell251">
  <circle cx="45.9968" cy="326.677" r="3.79386" stroke-width="0.5" stroke="black" fill="grey"/>
   </g>
   <g id="cell255">
  <circle cx="150.835" cy="139.101" r="0.803634" stroke-width="0.5" stroke="black" fill="grey"/>
   </g>
   <g id="cell271">
  <circle cx="29.4281" cy="253.417" r="7.25641" stroke-width="0.5" stroke="black" fill="grey"/>
  <circle cx="29.4281" cy="253.417" r="2.72052" stroke-width="0.5" stroke="grey" fill="grey"/>
   </g>
   <g id="cell275">
  <circle cx="22.4407" cy="178.346" r="8.38029" stroke-width="0.5" stroke="black" fill="grey"/>
  <circle cx="22.4407" cy="178.346" r="4.99749" stroke-width="0.5" stroke="grey" fill="grey"/>
   </g>
   <g id="cell279">
  <circle cx="119.593" cy="210.185" r="8.4075" stroke-width="0.5" stroke="black" fill="grey"/>
  <circle cx="119.593" cy="210.185" r="5.04299" stroke-width="0.5" stroke="grey" fill="grey"/>
   </g>
   <g id="cell288">
  <circle cx="99.3086" cy="112.155" r="8.13127" stroke-width="0.5" stroke="black" fill="grey"/>
  <circle cx="99.3086" cy="112.155" r="4.56763" stroke-width="0.5" stroke="grey" fill="grey"/>
   </g>
   <g id="cell300">
  <circle cx="165.418" cy="274.202" r="8.14521" stroke-width="0.5" stroke="black" fill="grey"/>
  <circle cx="165.418" cy="274.202" r="4.59239" stroke-width="0.5" stroke="grey" fill="grey"/>
   </g>
   <g id="cell312">
  <circle cx="228.891" cy="156.283" r="3.09518" stroke-width="0.5" stroke="black" fill="grey"/>
   </g>
   <g id="cell317">
  <circle cx="113.476" cy="383.948" r="8.40702" stroke-width="0.5" stroke="black" fill="grey"/>
  <circle cx="113.476" cy="383.948" r="5.04218" stroke-width="0.5" stroke="grey" fill="grey"/>
   </g>
   <g id="cell339">
  <circle cx="108.089" cy="263.305" r="6.85551" stroke-width="0.5" stroke="black" fill="grey"/>
  <circle cx="108.089" cy="263.305" r="1.32049" stroke-width="0.5" stroke="grey" fill="grey"/>
   </g>
   <g id="cell355">
  <circle cx="82.2603" cy="81.9541" r="5.2988" stroke-width="0.5" stroke="black" fill="grey"/>
   </g>
   <g id="cell369">
  <circle cx="92.8496" cy="326.436" r="4.42963" stroke-width="0.5" stroke="black" fill="grey"/>
   </g>
   <g id="cell382">
  <circle cx="141.138" cy="193.367" r="8.37033" stroke-width="0.5" stroke="black" fill="grey"/>
  <circle cx="141.138" cy="193.367" r="4.98077" stroke-width="0.5" stroke="grey" fill="grey"/>
   </g>
   <g id="cell395">
  <circle cx="166.466" cy="182.905" r="8.29401" stroke-width="0.5" stroke="black" fill="grey"/>
  <circle cx="166.466" cy="182.905" r="4.85142" stroke-width="0.5" stroke="grey" fill="grey"/>
   </g>
   <g id="cell423">
  <circle cx="57.3919" cy="195.502" r="5.23831" stroke-width="0.5" stroke="black" fill="grey"/>
   </g>
   <g id="cell445">
  <circle cx="96.4208" cy="167.022" r="8.40397" stroke-width="0.5" stroke="black" fill="grey"/>
  <circle cx="96.4208" cy="167.022" r="5.0371" stroke-width="0.5" stroke="grey" fill="grey"/>
   </g>
   <g id="cell542">
  <circle cx="289.363" cy="324.255" r="5.65625" stroke-width="0.5" stroke="black" fill="red"/>
   </g>
   <g id="cell558">
  <circle cx="269.59" cy="244.134" r="7.25153" stroke-width="0.5" stroke="black" fill="red"/>
  <circle cx="269.59" cy="244.134" r="2.70748" stroke-width="0.5" stroke="red" fill="red"/>
   </g>
   <g id="cell562">
  <circle cx="170.252" cy="248.836" r="6.98523" stroke-width="0.5" stroke="black" fill="red"/>
  <circle cx="170.252" cy="248.836" r="1.88127" stroke-width="0.5" stroke="red" fill="red"/>
   </g>
   <g id="cell601">
  <circle cx="347.98" cy="114.463" r="7.22853" stroke-width="0.5" stroke="black" fill="red"/>
  <circle cx="347.98" cy="114.463" r="2.64525" stroke-width="0.5" stroke="red" fill="red"/>
   </g>
   <g id="cell616">
  <circle cx="315.687" cy="230.879" r="8.18122" stroke-width="0.5" stroke="black" fill="red"/>
  <circle cx="315.687" cy="230.879" r="4.65597" stroke-width="0.5" stroke="red" fill="red"/>
   </g>
   <g id="cell624">
  <circle cx="266.985" cy="145.376" r="8.11833" stroke-width="0.5" stroke="black" fill="red"/>
  <circle cx="266.985" cy="145.376" r="4.54456" stroke-width="0.5" stroke="red" fill="red"/>
   </g>
   <g id="cell633">
  <circle cx="237.461" cy="289.854" r="3.28973" stroke-width="0.5" stroke="black" fill="red"/>
   </g>
   <g id="cell642">
  <circle cx="280.515" cy="224.455" r="8.39105" stroke-width="0.5" stroke="black" fill="red"/>
  <circle cx="280.515" cy="224.455" r="5.01552" stroke-width="0.5" stroke="red" fill="red"/>
   </g>
   <g id="cell649">
  <circle cx="360.519" cy="165.062" r="6.00827" stroke-width="0.5" stroke="black" fill="red"/>
   </g>
   <g id="cell650">
  <circle cx="305.91" cy="261.83" r="6.34764" stroke-width="0.5" stroke="black" fill="red"/>
   </g>
   <g id="cell652">
  <circle cx="215.485" cy="280.32" r="8.40405" stroke-width="0.5" stroke="black" fill="red"/>
  <circle cx="215.485" cy="280.32" r="5.03723" stroke-width="0.5" stroke="red" fill="red"/>
   </g>
   <g id="cell654">
  <circle cx="298.63" cy="81.0026" r="7.79298" stroke-width="0.5" stroke="black" fill="red"/>
  <circle cx="298.63" cy="81.0026" r="3.93397" stroke-width="0.5" stroke="red" fill="red"/>
   </g>
   <g id="cell655">
  <circle cx="290.676" cy="239.468" r="7.09388" stroke-width="0.5" stroke="black" fill="red"/>
  <circle cx="290.676" cy="239.468" r="2.2514" stroke-width="0.5" stroke="red" fill="red"/>
   </g>
   <g id="cell657">
  <circle cx="303.643" cy="134.112" r="8.13276" stroke-width="0.5" stroke="black" fill="red"/>
  <circle cx="303.643" cy="134.112" r="4.57028" stroke-width="0.5" stroke="red" fill="red"/>
   </g>
   <g id="cell683">
  <circle cx="390.713" cy="162.182" r="8.25294" stroke-width="0.5" stroke="black" fill="red"/>
  <circle cx="390.713" cy="162.182" r="4.78087" stroke-width="0.5" stroke="red" fill="red"/>
   </g>
   <g id="cell687">
  <circle cx="226.363" cy="95.0171" r="6.55104" stroke-width="0.5" stroke="black" fill="red"/>
   </g>
   <g id="cell688">
  <circle cx="211.289" cy="219.13" r="5.26862" stroke-width="0.5" stroke="black" fill="red"/>
   </g>
   <g id="cell710">
  <circle cx="243.337" cy="203.644" r="8.40974" stroke-width="0.5" stroke="black" fill="red"/>
  <circle cx="243.337" cy="203.644" r="5.04672" stroke-width="0.5" stroke="red" fill="red"/>
   </g>
   <g id="cell743">
  <circle cx="370.893" cy="179.652" r="5.92781" stroke-width="0.5" stroke="black" fill="red"/>
   </g>
   <g id="cell750">
  <circle cx="360.617" cy="91.9344" r="7.81567" stroke-width="0.5" stroke="black" fill="red"/>
  <circle cx="360.617" cy="91.9344" r="3.97874" stroke-width="0.5" stroke="red" fill="red"/>
   </g>
   <g id="cell751">
  <circle cx="315.26" cy="187.197" r="5.41276" stroke-width="0.5" stroke="black" fill="red"/>
   </g>
   <g id="cell760">
  <circle cx="210.896" cy="295.071" r="8.34626" stroke-width="0.5" stroke="black" fill="red"/>
  <circle cx="210.896" cy="295.071" r="4.94022" stroke-width="0.5" stroke="red" fill="red"/>
   </g>
   <g id="cell767">
  <circle cx="243.304" cy="103.557" r="8.3764" stroke-width="0.5" stroke="black" fill="red"/>
  <circle cx="243.304" cy="103.557" r="4.99097" stroke-width="0.5" stroke="red" fill="red"/>
   </g>
   <g id="cell768">
  <circle cx="194.988" cy="190.572" r="4.16268" stroke-width="0.5" stroke="black" fill="red"/>
   </g>
   <g id="cell769">
  <circle cx="323.806" cy="202.062" r="6.46521" stroke-width="0.5" stroke="black" fill="red"/>
   </g>
   <g id="cell777">
  <circle cx="277.173" cy="257.942" r="7.84978" stroke-width="0.5" stroke="black" fill="red"/>
  <circle cx="277.173" cy="257.942" r="4.04534" stroke-width="0.5" stroke="red" fill="red"/>
   </g>
   <g id="cell780">
  <circle cx="279.459" cy="238.9" r="5.27989" stroke-width="0.5" stroke="black" fill="red"/>
   </g>
   <g id="cell783">
  <circle cx="316.204" cy="40.3586" r="5.13256" stroke-width="0.5" stroke="black" fill="red"/>
   </g>
   <g id="cell786">
  <circle cx="243.349" cy="267.214" r="6.59736" stroke-width="0.5" stroke="black" fill="red"/>
   </g>
   <g id="cell788">
  <circle cx="240.913" cy="145.58" r="5.37671" stroke-width="0.5" stroke="black" fill="red"/>
   </g>
   <g id="cell805">
  <circle cx="302.37" cy="307.091" r="5.16856" stroke-width="0.5" stroke="black" fill="red"/>
   </g>
   <g id="cell817">
  <circle cx="335.47" cy="131.674" r="4.67345" stroke-width="0.5" stroke="black" fill="red"/>
   </g>
   <g id="cell821">
  <circle cx="386.36" cy="258.493" r="6.3695" stroke-width="0.5" stroke="black" fill="red"/>
   </g>
   <g id="cell834">
  <circle cx="205.665" cy="201.616" r="7.45103" stroke-width="0.5" stroke="black" fill="red"/>
  <circle cx="205.665" cy="201.616" r="3.20366" stroke-width="0.5" stroke="red" fill="red"/>
   </g>
   <g id="cell886">
  <circle cx="329.669" cy="259.393" r="8.37768" stroke-width="0.5" stroke="black" fill="red"/>
  <circle cx="329.669" cy="259.393" r="4.99311" stroke-width="0.5" stroke="red" fill="red"/>
   </g>
   <g id="cell900">
  <circle cx="302.323" cy="285.528" r="6.4383" stroke-width="0.5" stroke="black" fill="red"/>
   </g>
   <g id="cell945">
  <circle cx="224.429" cy="109.221" r="5.63009" stroke-width="0.5" stroke="black" fill="red"/>
   </g>
   <g id="cell948">
  <circle cx="212.364" cy="162.996" r="8.21" stroke-width="0.5" stroke="black" fill="red"/>
  <circle cx="212.364" cy="162.996" r="4.70636" stroke-width="0.5" stroke="red" fill="red"/>
   </g>
   <g id="cell959">
  <circle cx="234.519" cy="192.164" r="6.9538" stroke-width="0.5" stroke="black" fill="red"/>
  <circle cx="234.519" cy="192.164" r="1.76096" stroke-width="0.5" stroke="red" fill="red"/>
   </g>
  </g>
 </g>
  <rect x="190" y="414" width="200" height="4" stroke-width="0.8" stroke="rgb(255,255,255)" fill="rgb(0,0,0)"/>
  <text x="192.5" y="411.5"
   font-family="Arial" font-size="10" fill="black" >
   200 &#956;m
  </text>
  <text x="10" y="418"
   font-family="Arial" font-size="7.5" fill="black" >
   0 days, 0 hours, 21 minutes, and 50.6584 seconds
  </text>
  <rect x="0" y="28" width="400" height="400" stroke-width="0.8" stroke="rgb(0,0,0)" fill="none"/>
</svg>
