<?xml version="1.0" encoding="UTF-8" standalone="no"?>
<!-- Created with PhysiCell (http://PhysiCell.MathCancer.org/) -->
<svg 
 xmlns:dc="http://purl.org/dc/elements/1.1/" 
 xmlns:cc="http://creativecommons.org/ns#" 
 xmlns:rdf="http://www.w3.org/1999/02/22-rdf-syntax-ns#" 
 xmlns:svg="http://www.w3.org/2000/svg" 
 xmlns="http://www.w3.org/2000/svg" 
 version="1.1" 
 width="400" 
 height="428" 
 id="svg2">
  <rect x="0" y="0" width="400" height="428" stroke-width="0.8" stroke="white" fill="white"/>
  <text x="5" y="12"
   font-family="Arial" font-size="10" fill="black" >
   Current time: 1 days, 9 hours, and 0.00 minutes, z = 0.00 &#956;m
  </text>
  <text x="5" y="23"
   font-family="Arial" font-size="9.5" fill="black" >
   978 agents
  </text>
 <g id="tissue" 
    transform="translate(0,428) scale(1,-1)">
  <g id="ECM">
  </g>
  <g id="cells">
   <g id="cell83">
  <circle cx="97.8179" cy="173.856" r="6.78921" stroke-width="0.5" stroke="black" fill="grey"/>
  <circle cx="97.8179" cy="173.856" r="0.915986" stroke-width="0.5" stroke="grey" fill="grey"/>
   </g>
   <g id="cell136">
  <circle cx="43.2614" cy="181.159" r="5.45935" stroke-width="0.5" stroke="black" fill="grey"/>
   </g>
   <g id="cell140">
  <circle cx="81.3265" cy="152.743" r="7.93293" stroke-width="0.5" stroke="black" fill="grey"/>
  <circle cx="81.3265" cy="152.743" r="4.20441" stroke-width="0.5" stroke="grey" fill="grey"/>
   </g>
   <g id="cell146">
  <circle cx="54.0831" cy="243.803" r="7.75997" stroke-width="0.5" stroke="black" fill="grey"/>
  <circle cx="54.0831" cy="243.803" r="3.86818" stroke-width="0.5" stroke="grey" fill="grey"/>
   </g>
   <g id="cell150">
  <circle cx="110.635" cy="190.197" r="8.23741" stroke-width="0.5" stroke="black" fill="grey"/>
  <circle cx="110.635" cy="190.197" r="4.75401" stroke-width="0.5" stroke="grey" fill="grey"/>
   </g>
   <g id="cell162">
  <circle cx="102.46" cy="267.871" r="6.73338" stroke-width="0.5" stroke="black" fill="grey"/>
  <circle cx="102.46" cy="267.871" r="0.290019" stroke-width="0.5" stroke="grey" fill="grey"/>
   </g>
   <g id="cell164">
  <circle cx="126.828" cy="122.337" r="6.72852" stroke-width="0.5" stroke="black" fill="grey"/>
  <circle cx="126.828" cy="122.337" r="0.136587" stroke-width="0.5" stroke="grey" fill="grey"/>
   </g>
   <g id="cell167">
  <circle cx="152.235" cy="180.768" r="7.77453" stroke-width="0.5" stroke="black" fill="grey"/>
  <circle cx="152.235" cy="180.768" r="3.89732" stroke-width="0.5" stroke="grey" fill="grey"/>
   </g>
   <g id="cell170">
  <circle cx="147.163" cy="280.514" r="4.53808" stroke-width="0.5" stroke="black" fill="grey"/>
   </g>
   <g id="cell175">
  <circle cx="165.53" cy="169.963" r="5.05411" stroke-width="0.5" stroke="black" fill="grey"/>
   </g>
   <g id="cell176">
  <circle cx="140.52" cy="193.287" r="6.49887" stroke-width="0.5" stroke="black" fill="grey"/>
   </g>
   <g id="cell184">
  <circle cx="194.323" cy="228.628" r="3.14014" stroke-width="0.5" stroke="black" fill="grey"/>
   </g>
   <g id="cell185">
  <circle cx="166.396" cy="239.297" r="1.53538" stroke-width="0.5" stroke="black" fill="grey"/>
   </g>
   <g id="cell187">
  <circle cx="177.202" cy="268.579" r="6.92" stroke-width="0.5" stroke="black" fill="grey"/>
  <circle cx="177.202" cy="268.579" r="1.62236" stroke-width="0.5" stroke="grey" fill="grey"/>
   </g>
   <g id="cell193">
  <circle cx="199.523" cy="170.966" r="8.38507" stroke-width="0.5" stroke="black" fill="grey"/>
  <circle cx="199.523" cy="170.966" r="5.0055" stroke-width="0.5" stroke="grey" fill="grey"/>
   </g>
   <g id="cell201">
  <circle cx="49.1831" cy="206.559" r="5.64668" stroke-width="0.5" stroke="black" fill="grey"/>
   </g>
   <g id="cell202">
  <circle cx="45.1017" cy="223.278" r="4.68376" stroke-width="0.5" stroke="black" fill="grey"/>
   </g>
   <g id="cell207">
  <circle cx="77.5819" cy="202.83" r="8.06065" stroke-width="0.5" stroke="black" fill="grey"/>
  <circle cx="77.5819" cy="202.83" r="4.44069" stroke-width="0.5" stroke="grey" fill="grey"/>
   </g>
   <g id="cell208">
  <circle cx="64.2474" cy="215.051" r="6.05757" stroke-width="0.5" stroke="black" fill="grey"/>
   </g>
   <g id="cell211">
  <circle cx="79.419" cy="115.613" r="4.66795" stroke-width="0.5" stroke="black" fill="grey"/>
   </g>
   <g id="cell215">
  <circle cx="129.05" cy="230.597" r="7.31574" stroke-width="0.5" stroke="black" fill="grey"/>
  <circle cx="129.05" cy="230.597" r="2.87503" stroke-width="0.5" stroke="grey" fill="grey"/>
   </g>
   <g id="cell217">
  <circle cx="78.5841" cy="277.112" r="8.40336" stroke-width="0.5" stroke="black" fill="grey"/>
  <circle cx="78.5841" cy="277.112" r="5.03609" stroke-width="0.5" stroke="grey" fill="grey"/>
   </g>
   <g id="cell221">
  <circle cx="102.476" cy="165.719" r="4.74021" stroke-width="0.5" stroke="black" fill="grey"/>
   </g>
   <g id="cell222">
  <circle cx="86.1207" cy="190.3" r="8.37456" stroke-width="0.5" stroke="black" fill="grey"/>
  <circle cx="86.1207" cy="190.3" r="4.98788" stroke-width="0.5" stroke="grey" fill="grey"/>
   </g>
   <g id="cell229">
  <circle cx="104.891" cy="131.43" r="7.59288" stroke-width="0.5" stroke="black" fill="grey"/>
  <circle cx="104.891" cy="131.43" r="3.521" stroke-width="0.5" stroke="grey" fill="grey"/>
   </g>
   <g id="cell230">
  <circle cx="138.873" cy="178.718" r="6.77802" stroke-width="0.5" stroke="black" fill="grey"/>
  <circle cx="138.873" cy="178.718" r="0.829027" stroke-width="0.5" stroke="grey" fill="grey"/>
   </g>
   <g id="cell231">
  <circle cx="127.128" cy="188.281" r="8.30378" stroke-width="0.5" stroke="black" fill="grey"/>
  <circle cx="127.128" cy="188.281" r="4.86811" stroke-width="0.5" stroke="grey" fill="grey"/>
   </g>
   <g id="cell232">
  <circle cx="113.813" cy="208.531" r="5.88736" stroke-width="0.5" stroke="black" fill="grey"/>
   </g>
   <g id="cell233">
  <circle cx="110.978" cy="225.297" r="6.10586" stroke-width="0.5" stroke="black" fill="grey"/>
   </g>
   <g id="cell237">
  <circle cx="149.364" cy="150.349" r="4.50344" stroke-width="0.5" stroke="black" fill="grey"/>
   </g>
   <g id="cell238">
  <circle cx="137.695" cy="164.093" r="6.16822" stroke-width="0.5" stroke="black" fill="grey"/>
   </g>
   <g id="cell240">
  <circle cx="137.131" cy="218.702" r="7.66351" stroke-width="0.5" stroke="black" fill="grey"/>
  <circle cx="137.131" cy="218.702" r="3.67084" stroke-width="0.5" stroke="grey" fill="grey"/>
   </g>
   <g id="cell243">
  <circle cx="182.76" cy="249.566" r="0.455714" stroke-width="0.5" stroke="black" fill="grey"/>
   </g>
   <g id="cell244">
  <circle cx="119.697" cy="286.246" r="8.34394" stroke-width="0.5" stroke="black" fill="grey"/>
  <circle cx="119.697" cy="286.246" r="4.9363" stroke-width="0.5" stroke="grey" fill="grey"/>
   </g>
   <g id="cell247">
  <circle cx="168.55" cy="156.334" r="8.39441" stroke-width="0.5" stroke="black" fill="grey"/>
  <circle cx="168.55" cy="156.334" r="5.02113" stroke-width="0.5" stroke="grey" fill="grey"/>
   </g>
   <g id="cell248">
  <circle cx="157.749" cy="208.827" r="1.34991" stroke-width="0.5" stroke="black" fill="grey"/>
   </g>
   <g id="cell254">
  <circle cx="179.467" cy="166.781" r="7.93167" stroke-width="0.5" stroke="black" fill="grey"/>
  <circle cx="179.467" cy="166.781" r="4.20203" stroke-width="0.5" stroke="grey" fill="grey"/>
   </g>
   <g id="cell267">
  <circle cx="45.3388" cy="117.369" r="3.87699" stroke-width="0.5" stroke="black" fill="grey"/>
   </g>
   <g id="cell270">
  <circle cx="43.2178" cy="240.75" r="0.572987" stroke-width="0.5" stroke="black" fill="grey"/>
   </g>
   <g id="cell280">
  <circle cx="108.639" cy="161.294" r="3.90687" stroke-width="0.5" stroke="black" fill="grey"/>
   </g>
   <g id="cell292">
  <circle cx="73.3786" cy="240.262" r="5.90023" stroke-width="0.5" stroke="black" fill="grey"/>
   </g>
   <g id="cell293">
  <circle cx="112.162" cy="257.19" r="7.58372" stroke-width="0.5" stroke="black" fill="grey"/>
  <circle cx="112.162" cy="257.19" r="3.50121" stroke-width="0.5" stroke="grey" fill="grey"/>
   </g>
   <g id="cell296">
  <circle cx="134.749" cy="141.802" r="6.37453" stroke-width="0.5" stroke="black" fill="grey"/>
   </g>
   <g id="cell300">
  <circle cx="138.182" cy="237.293" r="6.71759" stroke-width="0.5" stroke="black" fill="grey"/>
   </g>
   <g id="cell306">
  <circle cx="127.807" cy="203.919" r="8.41269" stroke-width="0.5" stroke="black" fill="grey"/>
  <circle cx="127.807" cy="203.919" r="5.05164" stroke-width="0.5" stroke="grey" fill="grey"/>
   </g>
   <g id="cell314">
  <circle cx="156.157" cy="194.956" r="7.50078" stroke-width="0.5" stroke="black" fill="grey"/>
  <circle cx="156.157" cy="194.956" r="3.31773" stroke-width="0.5" stroke="grey" fill="grey"/>
   </g>
   <g id="cell316">
  <circle cx="161.054" cy="255.787" r="5.09303" stroke-width="0.5" stroke="black" fill="grey"/>
   </g>
   <g id="cell329">
  <circle cx="187.46" cy="190.839" r="5.90542" stroke-width="0.5" stroke="black" fill="grey"/>
   </g>
   <g id="cell334">
  <circle cx="175.745" cy="208.915" r="6.99078" stroke-width="0.5" stroke="black" fill="grey"/>
  <circle cx="175.745" cy="208.915" r="1.90175" stroke-width="0.5" stroke="grey" fill="grey"/>
   </g>
   <g id="cell335">
  <circle cx="70.9821" cy="130.073" r="8.38655" stroke-width="0.5" stroke="black" fill="grey"/>
  <circle cx="70.9821" cy="130.073" r="5.00798" stroke-width="0.5" stroke="grey" fill="grey"/>
   </g>
   <g id="cell338">
  <circle cx="59.8663" cy="196.568" r="8.02264" stroke-width="0.5" stroke="black" fill="grey"/>
  <circle cx="59.8663" cy="196.568" r="4.37132" stroke-width="0.5" stroke="grey" fill="grey"/>
   </g>
   <g id="cell350">
  <circle cx="73.3602" cy="167.298" r="5.7477" stroke-width="0.5" stroke="black" fill="grey"/>
   </g>
   <g id="cell352">
  <circle cx="97.639" cy="208.936" r="4.26847" stroke-width="0.5" stroke="black" fill="grey"/>
   </g>
   <g id="cell353">
  <circle cx="74.1064" cy="260.843" r="8.13625" stroke-width="0.5" stroke="black" fill="grey"/>
  <circle cx="74.1064" cy="260.843" r="4.57649" stroke-width="0.5" stroke="grey" fill="grey"/>
   </g>
   <g id="cell379">
  <circle cx="157.653" cy="269.906" r="8.30284" stroke-width="0.5" stroke="black" fill="grey"/>
  <circle cx="157.653" cy="269.906" r="4.86651" stroke-width="0.5" stroke="grey" fill="grey"/>
   </g>
   <g id="cell386">
  <circle cx="176.561" cy="242.059" r="4.84945" stroke-width="0.5" stroke="black" fill="grey"/>
   </g>
   <g id="cell441">
  <circle cx="156.751" cy="241.38" r="6.36072" stroke-width="0.5" stroke="black" fill="grey"/>
   </g>
   <g id="cell443">
  <circle cx="183.674" cy="154.363" r="5.26681" stroke-width="0.5" stroke="black" fill="grey"/>
   </g>
   <g id="cell569">
  <circle cx="251.407" cy="122.595" r="7.10697" stroke-width="0.5" stroke="black" fill="red"/>
  <circle cx="251.407" cy="122.595" r="2.2923" stroke-width="0.5" stroke="red" fill="red"/>
   </g>
   <g id="cell624">
  <circle cx="218.193" cy="177.388" r="8.41271" stroke-width="0.5" stroke="black" fill="red"/>
  <circle cx="218.193" cy="177.388" r="5.05167" stroke-width="0.5" stroke="red" fill="red"/>
   </g>
   <g id="cell643">
  <circle cx="262.794" cy="267.955" r="7.8633" stroke-width="0.5" stroke="black" fill="red"/>
  <circle cx="262.794" cy="267.955" r="4.07151" stroke-width="0.5" stroke="red" fill="red"/>
   </g>
   <g id="cell654">
  <circle cx="288.053" cy="161.031" r="0.975034" stroke-width="0.5" stroke="black" fill="red"/>
   </g>
   <g id="cell661">
  <circle cx="311.206" cy="121.602" r="7.46639" stroke-width="0.5" stroke="black" fill="red"/>
  <circle cx="311.206" cy="121.602" r="3.23924" stroke-width="0.5" stroke="red" fill="red"/>
   </g>
   <g id="cell669">
  <circle cx="322.806" cy="134.703" r="4.48353" stroke-width="0.5" stroke="black" fill="red"/>
   </g>
   <g id="cell676">
  <circle cx="317.468" cy="265.161" r="7.72065" stroke-width="0.5" stroke="black" fill="red"/>
  <circle cx="317.468" cy="265.161" r="3.78868" stroke-width="0.5" stroke="red" fill="red"/>
   </g>
   <g id="cell681">
  <circle cx="340.185" cy="235.038" r="8.40897" stroke-width="0.5" stroke="black" fill="red"/>
  <circle cx="340.185" cy="235.038" r="5.04543" stroke-width="0.5" stroke="red" fill="red"/>
   </g>
   <g id="cell685">
  <circle cx="206.716" cy="206.903" r="8.39055" stroke-width="0.5" stroke="black" fill="red"/>
  <circle cx="206.716" cy="206.903" r="5.01469" stroke-width="0.5" stroke="red" fill="red"/>
   </g>
   <g id="cell686">
  <circle cx="200.831" cy="220.682" r="6.55126" stroke-width="0.5" stroke="black" fill="red"/>
   </g>
   <g id="cell688">
  <circle cx="219.663" cy="160.651" r="8.36693" stroke-width="0.5" stroke="black" fill="red"/>
  <circle cx="219.663" cy="160.651" r="4.97505" stroke-width="0.5" stroke="red" fill="red"/>
   </g>
   <g id="cell689">
  <circle cx="219.55" cy="194.617" r="8.411" stroke-width="0.5" stroke="black" fill="red"/>
  <circle cx="219.55" cy="194.617" r="5.04883" stroke-width="0.5" stroke="red" fill="red"/>
   </g>
   <g id="cell690">
  <circle cx="222.136" cy="209.915" r="7.52012" stroke-width="0.5" stroke="black" fill="red"/>
  <circle cx="222.136" cy="209.915" r="3.36122" stroke-width="0.5" stroke="red" fill="red"/>
   </g>
   <g id="cell691">
  <circle cx="221.43" cy="226.763" r="7.65656" stroke-width="0.5" stroke="black" fill="red"/>
  <circle cx="221.43" cy="226.763" r="3.6563" stroke-width="0.5" stroke="red" fill="red"/>
   </g>
   <g id="cell692">
  <circle cx="217.733" cy="243.846" r="7.31281" stroke-width="0.5" stroke="black" fill="red"/>
  <circle cx="217.733" cy="243.846" r="2.86756" stroke-width="0.5" stroke="red" fill="red"/>
   </g>
   <g id="cell694">
  <circle cx="233.902" cy="170.734" r="6.81588" stroke-width="0.5" stroke="black" fill="red"/>
  <circle cx="233.902" cy="170.734" r="1.0963" stroke-width="0.5" stroke="red" fill="red"/>
   </g>
   <g id="cell695">
  <circle cx="233.449" cy="185.143" r="8.178" stroke-width="0.5" stroke="black" fill="red"/>
  <circle cx="233.449" cy="185.143" r="4.65031" stroke-width="0.5" stroke="red" fill="red"/>
   </g>
   <g id="cell696">
  <circle cx="234.582" cy="200.399" r="8.22036" stroke-width="0.5" stroke="black" fill="red"/>
  <circle cx="234.582" cy="200.399" r="4.72441" stroke-width="0.5" stroke="red" fill="red"/>
   </g>
   <g id="cell697">
  <circle cx="235.299" cy="218.785" r="7.89902" stroke-width="0.5" stroke="black" fill="red"/>
  <circle cx="235.299" cy="218.785" r="4.14007" stroke-width="0.5" stroke="red" fill="red"/>
   </g>
   <g id="cell698">
  <circle cx="234.987" cy="233.986" r="6.98264" stroke-width="0.5" stroke="black" fill="red"/>
  <circle cx="234.987" cy="233.986" r="1.87162" stroke-width="0.5" stroke="red" fill="red"/>
   </g>
   <g id="cell699">
  <circle cx="238.242" cy="255.088" r="7.79137" stroke-width="0.5" stroke="black" fill="red"/>
  <circle cx="238.242" cy="255.088" r="3.93078" stroke-width="0.5" stroke="red" fill="red"/>
   </g>
   <g id="cell700">
  <circle cx="238.326" cy="154.633" r="8.35879" stroke-width="0.5" stroke="black" fill="red"/>
  <circle cx="238.326" cy="154.633" r="4.96136" stroke-width="0.5" stroke="red" fill="red"/>
   </g>
   <g id="cell702">
  <circle cx="248.155" cy="178.973" r="7.47602" stroke-width="0.5" stroke="black" fill="red"/>
  <circle cx="248.155" cy="178.973" r="3.26138" stroke-width="0.5" stroke="red" fill="red"/>
   </g>
   <g id="cell703">
  <circle cx="250.481" cy="193.756" r="8.31126" stroke-width="0.5" stroke="black" fill="red"/>
  <circle cx="250.481" cy="193.756" r="4.88086" stroke-width="0.5" stroke="red" fill="red"/>
   </g>
   <g id="cell704">
  <circle cx="249.275" cy="209.891" r="7.51209" stroke-width="0.5" stroke="black" fill="red"/>
  <circle cx="249.275" cy="209.891" r="3.34323" stroke-width="0.5" stroke="red" fill="red"/>
   </g>
   <g id="cell705">
  <circle cx="249.163" cy="226.585" r="6.99475" stroke-width="0.5" stroke="black" fill="red"/>
  <circle cx="249.163" cy="226.585" r="1.91629" stroke-width="0.5" stroke="red" fill="red"/>
   </g>
   <g id="cell706">
  <circle cx="248.832" cy="242.271" r="8.4115" stroke-width="0.5" stroke="black" fill="red"/>
  <circle cx="248.832" cy="242.271" r="5.04966" stroke-width="0.5" stroke="red" fill="red"/>
   </g>
   <g id="cell707">
  <circle cx="248.531" cy="265.633" r="2.26446" stroke-width="0.5" stroke="black" fill="red"/>
   </g>
   <g id="cell708">
  <circle cx="257.256" cy="113.648" r="4.91559" stroke-width="0.5" stroke="black" fill="red"/>
   </g>
   <g id="cell709">
  <circle cx="264.328" cy="142.945" r="4.92382" stroke-width="0.5" stroke="black" fill="red"/>
   </g>
   <g id="cell710">
  <circle cx="266.373" cy="168.282" r="3.67034" stroke-width="0.5" stroke="black" fill="red"/>
   </g>
   <g id="cell711">
  <circle cx="264.149" cy="184.213" r="8.11982" stroke-width="0.5" stroke="black" fill="red"/>
  <circle cx="264.149" cy="184.213" r="4.54721" stroke-width="0.5" stroke="red" fill="red"/>
   </g>
   <g id="cell712">
  <circle cx="264.344" cy="202.466" r="8.38897" stroke-width="0.5" stroke="black" fill="red"/>
  <circle cx="264.344" cy="202.466" r="5.01203" stroke-width="0.5" stroke="red" fill="red"/>
   </g>
   <g id="cell713">
  <circle cx="263.319" cy="219.012" r="6.51741" stroke-width="0.5" stroke="black" fill="red"/>
   </g>
   <g id="cell714">
  <circle cx="262.322" cy="234.971" r="8.36524" stroke-width="0.5" stroke="black" fill="red"/>
  <circle cx="262.322" cy="234.971" r="4.97221" stroke-width="0.5" stroke="red" fill="red"/>
   </g>
   <g id="cell715">
  <circle cx="263.91" cy="251.697" r="8.12088" stroke-width="0.5" stroke="black" fill="red"/>
  <circle cx="263.91" cy="251.697" r="4.54912" stroke-width="0.5" stroke="red" fill="red"/>
   </g>
   <g id="cell716">
  <circle cx="254.169" cy="280.106" r="8.1693" stroke-width="0.5" stroke="black" fill="red"/>
  <circle cx="254.169" cy="280.106" r="4.635" stroke-width="0.5" stroke="red" fill="red"/>
   </g>
   <g id="cell717">
  <circle cx="269.757" cy="126.689" r="7.63229" stroke-width="0.5" stroke="black" fill="red"/>
  <circle cx="269.757" cy="126.689" r="3.6052" stroke-width="0.5" stroke="red" fill="red"/>
   </g>
   <g id="cell718">
  <circle cx="280.328" cy="148.063" r="7.77911" stroke-width="0.5" stroke="black" fill="red"/>
  <circle cx="280.328" cy="148.063" r="3.90643" stroke-width="0.5" stroke="red" fill="red"/>
   </g>
   <g id="cell719">
  <circle cx="278.719" cy="175.905" r="8.31517" stroke-width="0.5" stroke="black" fill="red"/>
  <circle cx="278.719" cy="175.905" r="4.88751" stroke-width="0.5" stroke="red" fill="red"/>
   </g>
   <g id="cell720">
  <circle cx="277.362" cy="194.084" r="7.38079" stroke-width="0.5" stroke="black" fill="red"/>
  <circle cx="277.362" cy="194.084" r="3.03674" stroke-width="0.5" stroke="red" fill="red"/>
   </g>
   <g id="cell721">
  <circle cx="277.124" cy="209.498" r="6.91016" stroke-width="0.5" stroke="black" fill="red"/>
  <circle cx="277.124" cy="209.498" r="1.57987" stroke-width="0.5" stroke="red" fill="red"/>
   </g>
   <g id="cell722">
  <circle cx="278.049" cy="225.052" r="7.4075" stroke-width="0.5" stroke="black" fill="red"/>
  <circle cx="278.049" cy="225.052" r="3.10109" stroke-width="0.5" stroke="red" fill="red"/>
   </g>
   <g id="cell723">
  <circle cx="280.423" cy="249.378" r="8.41262" stroke-width="0.5" stroke="black" fill="red"/>
  <circle cx="280.423" cy="249.378" r="5.05151" stroke-width="0.5" stroke="red" fill="red"/>
   </g>
   <g id="cell724">
  <circle cx="277.629" cy="264.321" r="7.51569" stroke-width="0.5" stroke="black" fill="red"/>
  <circle cx="277.629" cy="264.321" r="3.35131" stroke-width="0.5" stroke="red" fill="red"/>
   </g>
   <g id="cell725">
  <circle cx="294.064" cy="123.211" r="7.24432" stroke-width="0.5" stroke="black" fill="red"/>
  <circle cx="294.064" cy="123.211" r="2.68808" stroke-width="0.5" stroke="red" fill="red"/>
   </g>
   <g id="cell727">
  <circle cx="296.342" cy="163.559" r="7.12238" stroke-width="0.5" stroke="black" fill="red"/>
  <circle cx="296.342" cy="163.559" r="2.33967" stroke-width="0.5" stroke="red" fill="red"/>
   </g>
   <g id="cell728">
  <circle cx="290.403" cy="186.264" r="8.34328" stroke-width="0.5" stroke="black" fill="red"/>
  <circle cx="290.403" cy="186.264" r="4.93517" stroke-width="0.5" stroke="red" fill="red"/>
   </g>
   <g id="cell729">
  <circle cx="291.26" cy="201.825" r="8.09006" stroke-width="0.5" stroke="black" fill="red"/>
  <circle cx="291.26" cy="201.825" r="4.49385" stroke-width="0.5" stroke="red" fill="red"/>
   </g>
   <g id="cell730">
  <circle cx="292.341" cy="216.396" r="8.29564" stroke-width="0.5" stroke="black" fill="red"/>
  <circle cx="292.341" cy="216.396" r="4.8542" stroke-width="0.5" stroke="red" fill="red"/>
   </g>
   <g id="cell731">
  <circle cx="288.832" cy="236.76" r="8.35335" stroke-width="0.5" stroke="black" fill="red"/>
  <circle cx="288.832" cy="236.76" r="4.95219" stroke-width="0.5" stroke="red" fill="red"/>
   </g>
   <g id="cell732">
  <circle cx="294.245" cy="253.196" r="1.53366" stroke-width="0.5" stroke="black" fill="red"/>
   </g>
   <g id="cell734">
  <circle cx="305.705" cy="137.241" r="7.79236" stroke-width="0.5" stroke="black" fill="red"/>
  <circle cx="305.705" cy="137.241" r="3.93275" stroke-width="0.5" stroke="red" fill="red"/>
   </g>
   <g id="cell735">
  <circle cx="306.465" cy="160.717" r="1.24026" stroke-width="0.5" stroke="black" fill="red"/>
   </g>
   <g id="cell736">
  <circle cx="304.514" cy="176.132" r="8.41159" stroke-width="0.5" stroke="black" fill="red"/>
  <circle cx="304.514" cy="176.132" r="5.0498" stroke-width="0.5" stroke="red" fill="red"/>
   </g>
   <g id="cell737">
  <circle cx="308.441" cy="193.144" r="7.58676" stroke-width="0.5" stroke="black" fill="red"/>
  <circle cx="308.441" cy="193.144" r="3.50779" stroke-width="0.5" stroke="red" fill="red"/>
   </g>
   <g id="cell738">
  <circle cx="306.437" cy="208.827" r="7.32409" stroke-width="0.5" stroke="black" fill="red"/>
  <circle cx="306.437" cy="208.827" r="2.8962" stroke-width="0.5" stroke="red" fill="red"/>
   </g>
   <g id="cell739">
  <circle cx="305.46" cy="225.118" r="6.87019" stroke-width="0.5" stroke="black" fill="red"/>
  <circle cx="305.46" cy="225.118" r="1.3947" stroke-width="0.5" stroke="red" fill="red"/>
   </g>
   <g id="cell740">
  <circle cx="313.926" cy="240.234" r="4.46081" stroke-width="0.5" stroke="black" fill="red"/>
   </g>
   <g id="cell741">
  <circle cx="305.279" cy="263.392" r="6.8029" stroke-width="0.5" stroke="black" fill="red"/>
  <circle cx="305.279" cy="263.392" r="1.01251" stroke-width="0.5" stroke="red" fill="red"/>
   </g>
   <g id="cell742">
  <circle cx="316.271" cy="149.317" r="8.0555" stroke-width="0.5" stroke="black" fill="red"/>
  <circle cx="316.271" cy="149.317" r="4.43134" stroke-width="0.5" stroke="red" fill="red"/>
   </g>
   <g id="cell743">
  <circle cx="320.635" cy="165.69" r="8.2583" stroke-width="0.5" stroke="black" fill="red"/>
  <circle cx="320.635" cy="165.69" r="4.79011" stroke-width="0.5" stroke="red" fill="red"/>
   </g>
   <g id="cell744">
  <circle cx="318.897" cy="181.326" r="8.02489" stroke-width="0.5" stroke="black" fill="red"/>
  <circle cx="318.897" cy="181.326" r="4.37545" stroke-width="0.5" stroke="red" fill="red"/>
   </g>
   <g id="cell745">
  <circle cx="323.895" cy="196.151" r="5.56251" stroke-width="0.5" stroke="black" fill="red"/>
   </g>
   <g id="cell746">
  <circle cx="319.174" cy="218.197" r="8.40715" stroke-width="0.5" stroke="black" fill="red"/>
  <circle cx="319.174" cy="218.197" r="5.04241" stroke-width="0.5" stroke="red" fill="red"/>
   </g>
   <g id="cell747">
  <circle cx="324.764" cy="233.35" r="7.89" stroke-width="0.5" stroke="black" fill="red"/>
  <circle cx="324.764" cy="233.35" r="4.12283" stroke-width="0.5" stroke="red" fill="red"/>
   </g>
   <g id="cell748">
  <circle cx="323.63" cy="252.519" r="7.14919" stroke-width="0.5" stroke="black" fill="red"/>
  <circle cx="323.63" cy="252.519" r="2.42004" stroke-width="0.5" stroke="red" fill="red"/>
   </g>
   <g id="cell749">
  <circle cx="345.597" cy="162.791" r="8.38953" stroke-width="0.5" stroke="black" fill="red"/>
  <circle cx="345.597" cy="162.791" r="5.01297" stroke-width="0.5" stroke="red" fill="red"/>
   </g>
   <g id="cell751">
  <circle cx="339.018" cy="192.24" r="5.64649" stroke-width="0.5" stroke="black" fill="red"/>
   </g>
   <g id="cell752">
  <circle cx="332.936" cy="207.907" r="7.60135" stroke-width="0.5" stroke="black" fill="red"/>
  <circle cx="332.936" cy="207.907" r="3.53923" stroke-width="0.5" stroke="red" fill="red"/>
   </g>
   <g id="cell753">
  <circle cx="344.612" cy="219.821" r="7.46425" stroke-width="0.5" stroke="black" fill="red"/>
  <circle cx="344.612" cy="219.821" r="3.2343" stroke-width="0.5" stroke="red" fill="red"/>
   </g>
   <g id="cell754">
  <circle cx="334.621" cy="257.464" r="6.5924" stroke-width="0.5" stroke="black" fill="red"/>
   </g>
   <g id="cell755">
  <circle cx="348.588" cy="203.352" r="8.19559" stroke-width="0.5" stroke="black" fill="red"/>
  <circle cx="348.588" cy="203.352" r="4.68118" stroke-width="0.5" stroke="red" fill="red"/>
   </g>
   <g id="cell760">
  <circle cx="210.382" cy="233.358" r="5.91881" stroke-width="0.5" stroke="black" fill="red"/>
   </g>
   <g id="cell767">
  <circle cx="234.539" cy="140.52" r="7.33997" stroke-width="0.5" stroke="black" fill="red"/>
  <circle cx="234.539" cy="140.52" r="2.93612" stroke-width="0.5" stroke="red" fill="red"/>
   </g>
   <g id="cell769">
  <circle cx="244.819" cy="167.745" r="5.3406" stroke-width="0.5" stroke="black" fill="red"/>
   </g>
   <g id="cell776">
  <circle cx="253.686" cy="154.709" r="6.63817" stroke-width="0.5" stroke="black" fill="red"/>
   </g>
   <g id="cell785">
  <circle cx="279.838" cy="162.523" r="4.94271" stroke-width="0.5" stroke="black" fill="red"/>
   </g>
   <g id="cell800">
  <circle cx="313.243" cy="108.401" r="7.07758" stroke-width="0.5" stroke="black" fill="red"/>
  <circle cx="313.243" cy="108.401" r="2.19949" stroke-width="0.5" stroke="red" fill="red"/>
   </g>
   <g id="cell804">
  <circle cx="303.34" cy="202.467" r="0.941664" stroke-width="0.5" stroke="black" fill="red"/>
   </g>
   <g id="cell818">
  <circle cx="335.303" cy="182.123" r="5.16587" stroke-width="0.5" stroke="black" fill="red"/>
   </g>
  </g>
 </g>
  <rect x="190" y="414" width="200" height="4" stroke-width="0.8" stroke="rgb(255,255,255)" fill="rgb(0,0,0)"/>
  <text x="192.5" y="411.5"
   font-family="Arial" font-size="10" fill="black" >
   200 &#956;m
  </text>
  <text x="10" y="418"
   font-family="Arial" font-size="7.5" fill="black" >
   0 days, 0 hours, 3 minutes, and 13.1655 seconds
  </text>
  <rect x="0" y="28" width="400" height="400" stroke-width="0.8" stroke="rgb(0,0,0)" fill="none"/>
</svg>
