<?xml version="1.0" encoding="UTF-8" standalone="no"?>
<!-- Created with PhysiCell (http://PhysiCell.MathCancer.org/) -->
<svg 
 xmlns:dc="http://purl.org/dc/elements/1.1/" 
 xmlns:cc="http://creativecommons.org/ns#" 
 xmlns:rdf="http://www.w3.org/1999/02/22-rdf-syntax-ns#" 
 xmlns:svg="http://www.w3.org/2000/svg" 
 xmlns="http://www.w3.org/2000/svg" 
 version="1.1" 
 width="400" 
 height="428" 
 id="svg2">
  <rect x="0" y="0" width="400" height="428" stroke-width="0.8" stroke="white" fill="white"/>
  <text x="5" y="12"
   font-family="Arial" font-size="10" fill="black" >
   Current time: 0 days, 2 hours, and 0.00 minutes, z = 0.00 &#956;m
  </text>
  <text x="5" y="23"
   font-family="Arial" font-size="9.5" fill="black" >
   978 agents
  </text>
 <g id="tissue" 
    transform="translate(0,428) scale(1,-1)">
  <g id="ECM">
  </g>
  <g id="cells">
   <g id="cell131">
  <circle cx="63.952" cy="203.011" r="5.91851" stroke-width="0.5" stroke="black" fill="grey"/>
   </g>
   <g id="cell195">
  <circle cx="49.6676" cy="184.353" r="3.92957" stroke-width="0.5" stroke="black" fill="grey"/>
   </g>
   <g id="cell196">
  <circle cx="46.6519" cy="200.159" r="5.71937" stroke-width="0.5" stroke="black" fill="grey"/>
   </g>
   <g id="cell197">
  <circle cx="55.6557" cy="215.17" r="8.0198" stroke-width="0.5" stroke="black" fill="grey"/>
  <circle cx="55.6557" cy="215.17" r="4.36611" stroke-width="0.5" stroke="grey" fill="grey"/>
   </g>
   <g id="cell199">
  <circle cx="70.3311" cy="171.01" r="2.30087" stroke-width="0.5" stroke="black" fill="grey"/>
   </g>
   <g id="cell200">
  <circle cx="66.318" cy="188.374" r="6.03831" stroke-width="0.5" stroke="black" fill="grey"/>
   </g>
   <g id="cell201">
  <circle cx="71.9649" cy="213.171" r="8.06283" stroke-width="0.5" stroke="black" fill="grey"/>
  <circle cx="71.9649" cy="213.171" r="4.44465" stroke-width="0.5" stroke="grey" fill="grey"/>
   </g>
   <g id="cell202">
  <circle cx="65.3748" cy="228.085" r="7.48136" stroke-width="0.5" stroke="black" fill="grey"/>
  <circle cx="65.3748" cy="228.085" r="3.2736" stroke-width="0.5" stroke="grey" fill="grey"/>
   </g>
   <g id="cell203">
  <circle cx="62.0146" cy="249.571" r="5.02559" stroke-width="0.5" stroke="black" fill="grey"/>
   </g>
   <g id="cell204">
  <circle cx="81.62" cy="149.613" r="8.31901" stroke-width="0.5" stroke="black" fill="grey"/>
  <circle cx="81.62" cy="149.613" r="4.89405" stroke-width="0.5" stroke="grey" fill="grey"/>
   </g>
   <g id="cell205">
  <circle cx="83.6619" cy="165.189" r="8.38908" stroke-width="0.5" stroke="black" fill="grey"/>
  <circle cx="83.6619" cy="165.189" r="5.01221" stroke-width="0.5" stroke="grey" fill="grey"/>
   </g>
   <g id="cell206">
  <circle cx="81.2487" cy="184.626" r="8.16232" stroke-width="0.5" stroke="black" fill="grey"/>
  <circle cx="81.2487" cy="184.626" r="4.62267" stroke-width="0.5" stroke="grey" fill="grey"/>
   </g>
   <g id="cell207">
  <circle cx="83.6352" cy="200.812" r="8.04749" stroke-width="0.5" stroke="black" fill="grey"/>
  <circle cx="83.6352" cy="200.812" r="4.41676" stroke-width="0.5" stroke="grey" fill="grey"/>
   </g>
   <g id="cell208">
  <circle cx="84.8959" cy="217.871" r="8.32285" stroke-width="0.5" stroke="black" fill="grey"/>
  <circle cx="84.8959" cy="217.871" r="4.90056" stroke-width="0.5" stroke="grey" fill="grey"/>
   </g>
   <g id="cell209">
  <circle cx="82.3832" cy="232.297" r="8.15847" stroke-width="0.5" stroke="black" fill="grey"/>
  <circle cx="82.3832" cy="232.297" r="4.61587" stroke-width="0.5" stroke="grey" fill="grey"/>
   </g>
   <g id="cell210">
  <circle cx="79.2587" cy="251.881" r="7.95263" stroke-width="0.5" stroke="black" fill="grey"/>
  <circle cx="79.2587" cy="251.881" r="4.24146" stroke-width="0.5" stroke="grey" fill="grey"/>
   </g>
   <g id="cell211">
  <circle cx="91.1907" cy="137.71" r="8.1233" stroke-width="0.5" stroke="black" fill="grey"/>
  <circle cx="91.1907" cy="137.71" r="4.55343" stroke-width="0.5" stroke="grey" fill="grey"/>
   </g>
   <g id="cell212">
  <circle cx="96.7211" cy="158.213" r="8.02667" stroke-width="0.5" stroke="black" fill="grey"/>
  <circle cx="96.7211" cy="158.213" r="4.37871" stroke-width="0.5" stroke="grey" fill="grey"/>
   </g>
   <g id="cell213">
  <circle cx="96.0175" cy="174.699" r="7.63334" stroke-width="0.5" stroke="black" fill="grey"/>
  <circle cx="96.0175" cy="174.699" r="3.60744" stroke-width="0.5" stroke="grey" fill="grey"/>
   </g>
   <g id="cell214">
  <circle cx="96.9909" cy="192.946" r="8.01134" stroke-width="0.5" stroke="black" fill="grey"/>
  <circle cx="96.9909" cy="192.946" r="4.35055" stroke-width="0.5" stroke="grey" fill="grey"/>
   </g>
   <g id="cell215">
  <circle cx="97.4885" cy="209.331" r="8.01702" stroke-width="0.5" stroke="black" fill="grey"/>
  <circle cx="97.4885" cy="209.331" r="4.36099" stroke-width="0.5" stroke="grey" fill="grey"/>
   </g>
   <g id="cell216">
  <circle cx="96.2668" cy="227.617" r="8.35193" stroke-width="0.5" stroke="black" fill="grey"/>
  <circle cx="96.2668" cy="227.617" r="4.94979" stroke-width="0.5" stroke="grey" fill="grey"/>
   </g>
   <g id="cell217">
  <circle cx="93.1688" cy="243.46" r="6.69674" stroke-width="0.5" stroke="black" fill="grey"/>
   </g>
   <g id="cell218">
  <circle cx="90.1346" cy="262.421" r="6.00496" stroke-width="0.5" stroke="black" fill="grey"/>
   </g>
   <g id="cell219">
  <circle cx="112.441" cy="129.041" r="3.23073" stroke-width="0.5" stroke="black" fill="grey"/>
   </g>
   <g id="cell220">
  <circle cx="108.709" cy="149.134" r="8.15996" stroke-width="0.5" stroke="black" fill="grey"/>
  <circle cx="108.709" cy="149.134" r="4.6185" stroke-width="0.5" stroke="grey" fill="grey"/>
   </g>
   <g id="cell221">
  <circle cx="109.708" cy="165.218" r="8.24713" stroke-width="0.5" stroke="black" fill="grey"/>
  <circle cx="109.708" cy="165.218" r="4.77083" stroke-width="0.5" stroke="grey" fill="grey"/>
   </g>
   <g id="cell222">
  <circle cx="108.734" cy="181.78" r="8.40911" stroke-width="0.5" stroke="black" fill="grey"/>
  <circle cx="108.734" cy="181.78" r="5.04567" stroke-width="0.5" stroke="grey" fill="grey"/>
   </g>
   <g id="cell223">
  <circle cx="111.629" cy="201.121" r="7.74622" stroke-width="0.5" stroke="black" fill="grey"/>
  <circle cx="111.629" cy="201.121" r="3.84051" stroke-width="0.5" stroke="grey" fill="grey"/>
   </g>
   <g id="cell224">
  <circle cx="109.628" cy="220.337" r="3.8655" stroke-width="0.5" stroke="black" fill="grey"/>
   </g>
   <g id="cell225">
  <circle cx="110.647" cy="235.956" r="7.4072" stroke-width="0.5" stroke="black" fill="grey"/>
  <circle cx="110.647" cy="235.956" r="3.10037" stroke-width="0.5" stroke="grey" fill="grey"/>
   </g>
   <g id="cell226">
  <circle cx="108.406" cy="250.99" r="7.65632" stroke-width="0.5" stroke="black" fill="grey"/>
  <circle cx="108.406" cy="250.99" r="3.65581" stroke-width="0.5" stroke="grey" fill="grey"/>
   </g>
   <g id="cell227">
  <circle cx="108.902" cy="282.896" r="6.64599" stroke-width="0.5" stroke="black" fill="grey"/>
   </g>
   <g id="cell228">
  <circle cx="125.743" cy="143.363" r="8.39025" stroke-width="0.5" stroke="black" fill="grey"/>
  <circle cx="125.743" cy="143.363" r="5.01418" stroke-width="0.5" stroke="grey" fill="grey"/>
   </g>
   <g id="cell229">
  <circle cx="123.604" cy="159.237" r="8.05686" stroke-width="0.5" stroke="black" fill="grey"/>
  <circle cx="123.604" cy="159.237" r="4.43381" stroke-width="0.5" stroke="grey" fill="grey"/>
   </g>
   <g id="cell230">
  <circle cx="128.393" cy="176.953" r="8.37719" stroke-width="0.5" stroke="black" fill="grey"/>
  <circle cx="128.393" cy="176.953" r="4.99229" stroke-width="0.5" stroke="grey" fill="grey"/>
   </g>
   <g id="cell231">
  <circle cx="127.606" cy="197.53" r="8.25027" stroke-width="0.5" stroke="black" fill="grey"/>
  <circle cx="127.606" cy="197.53" r="4.77626" stroke-width="0.5" stroke="grey" fill="grey"/>
   </g>
   <g id="cell232">
  <circle cx="120.828" cy="211.609" r="8.14429" stroke-width="0.5" stroke="black" fill="grey"/>
  <circle cx="120.828" cy="211.609" r="4.59077" stroke-width="0.5" stroke="grey" fill="grey"/>
   </g>
   <g id="cell233">
  <circle cx="124.851" cy="227.595" r="8.19375" stroke-width="0.5" stroke="black" fill="grey"/>
  <circle cx="124.851" cy="227.595" r="4.67795" stroke-width="0.5" stroke="grey" fill="grey"/>
   </g>
   <g id="cell234">
  <circle cx="125.105" cy="242.755" r="8.40362" stroke-width="0.5" stroke="black" fill="grey"/>
  <circle cx="125.105" cy="242.755" r="5.03652" stroke-width="0.5" stroke="grey" fill="grey"/>
   </g>
   <g id="cell235">
  <circle cx="121.315" cy="259.008" r="8.40205" stroke-width="0.5" stroke="black" fill="grey"/>
  <circle cx="121.315" cy="259.008" r="5.0339" stroke-width="0.5" stroke="grey" fill="grey"/>
   </g>
   <g id="cell236">
  <circle cx="141.346" cy="132.093" r="5.48993" stroke-width="0.5" stroke="black" fill="grey"/>
   </g>
   <g id="cell237">
  <circle cx="143.779" cy="150.039" r="7.07881" stroke-width="0.5" stroke="black" fill="grey"/>
  <circle cx="143.779" cy="150.039" r="2.20345" stroke-width="0.5" stroke="grey" fill="grey"/>
   </g>
   <g id="cell238">
  <circle cx="140.721" cy="167.562" r="8.25101" stroke-width="0.5" stroke="black" fill="grey"/>
  <circle cx="140.721" cy="167.562" r="4.77754" stroke-width="0.5" stroke="grey" fill="grey"/>
   </g>
   <g id="cell239">
  <circle cx="142.051" cy="184.425" r="8.3846" stroke-width="0.5" stroke="black" fill="grey"/>
  <circle cx="142.051" cy="184.425" r="5.00472" stroke-width="0.5" stroke="grey" fill="grey"/>
   </g>
   <g id="cell240">
  <circle cx="142.737" cy="202.529" r="4.28648" stroke-width="0.5" stroke="black" fill="grey"/>
   </g>
   <g id="cell241">
  <circle cx="136.98" cy="216.463" r="7.66269" stroke-width="0.5" stroke="black" fill="grey"/>
  <circle cx="136.98" cy="216.463" r="3.66913" stroke-width="0.5" stroke="grey" fill="grey"/>
   </g>
   <g id="cell242">
  <circle cx="138.994" cy="236.305" r="7.56364" stroke-width="0.5" stroke="black" fill="grey"/>
  <circle cx="138.994" cy="236.305" r="3.4575" stroke-width="0.5" stroke="grey" fill="grey"/>
   </g>
   <g id="cell243">
  <circle cx="138.702" cy="251.068" r="7.00612" stroke-width="0.5" stroke="black" fill="grey"/>
  <circle cx="138.702" cy="251.068" r="1.95739" stroke-width="0.5" stroke="grey" fill="grey"/>
   </g>
   <g id="cell245">
  <circle cx="154.292" cy="138.776" r="8.38529" stroke-width="0.5" stroke="black" fill="grey"/>
  <circle cx="154.292" cy="138.776" r="5.00587" stroke-width="0.5" stroke="grey" fill="grey"/>
   </g>
   <g id="cell246">
  <circle cx="157.772" cy="156.318" r="8.40605" stroke-width="0.5" stroke="black" fill="grey"/>
  <circle cx="157.772" cy="156.318" r="5.04056" stroke-width="0.5" stroke="grey" fill="grey"/>
   </g>
   <g id="cell247">
  <circle cx="155.712" cy="175.663" r="8.41239" stroke-width="0.5" stroke="black" fill="grey"/>
  <circle cx="155.712" cy="175.663" r="5.05114" stroke-width="0.5" stroke="grey" fill="grey"/>
   </g>
   <g id="cell248">
  <circle cx="158.411" cy="192.551" r="8.07158" stroke-width="0.5" stroke="black" fill="grey"/>
  <circle cx="158.411" cy="192.551" r="4.4605" stroke-width="0.5" stroke="grey" fill="grey"/>
   </g>
   <g id="cell249">
  <circle cx="154.855" cy="208.853" r="8.30842" stroke-width="0.5" stroke="black" fill="grey"/>
  <circle cx="154.855" cy="208.853" r="4.87602" stroke-width="0.5" stroke="grey" fill="grey"/>
   </g>
   <g id="cell250">
  <circle cx="152.264" cy="229.614" r="3.88073" stroke-width="0.5" stroke="black" fill="grey"/>
   </g>
   <g id="cell251">
  <circle cx="153.922" cy="242.913" r="7.07609" stroke-width="0.5" stroke="black" fill="grey"/>
  <circle cx="153.922" cy="242.913" r="2.19471" stroke-width="0.5" stroke="grey" fill="grey"/>
   </g>
   <g id="cell252">
  <circle cx="155.454" cy="264.35" r="5.00591" stroke-width="0.5" stroke="black" fill="grey"/>
   </g>
   <g id="cell253">
  <circle cx="172.332" cy="149.029" r="8.34938" stroke-width="0.5" stroke="black" fill="grey"/>
  <circle cx="172.332" cy="149.029" r="4.94548" stroke-width="0.5" stroke="grey" fill="grey"/>
   </g>
   <g id="cell254">
  <circle cx="168.006" cy="166.922" r="8.36323" stroke-width="0.5" stroke="black" fill="grey"/>
  <circle cx="168.006" cy="166.922" r="4.96883" stroke-width="0.5" stroke="grey" fill="grey"/>
   </g>
   <g id="cell255">
  <circle cx="169.042" cy="181.967" r="7.94019" stroke-width="0.5" stroke="black" fill="grey"/>
  <circle cx="169.042" cy="181.967" r="4.2181" stroke-width="0.5" stroke="grey" fill="grey"/>
   </g>
   <g id="cell256">
  <circle cx="170.372" cy="200.897" r="8.08774" stroke-width="0.5" stroke="black" fill="grey"/>
  <circle cx="170.372" cy="200.897" r="4.48968" stroke-width="0.5" stroke="grey" fill="grey"/>
   </g>
   <g id="cell257">
  <circle cx="169.149" cy="217.323" r="8.22027" stroke-width="0.5" stroke="black" fill="grey"/>
  <circle cx="169.149" cy="217.323" r="4.72425" stroke-width="0.5" stroke="grey" fill="grey"/>
   </g>
   <g id="cell258">
  <circle cx="170.761" cy="234.262" r="6.02058" stroke-width="0.5" stroke="black" fill="grey"/>
   </g>
   <g id="cell259">
  <circle cx="172.557" cy="250.89" r="8.20986" stroke-width="0.5" stroke="black" fill="grey"/>
  <circle cx="172.557" cy="250.89" r="4.70612" stroke-width="0.5" stroke="grey" fill="grey"/>
   </g>
   <g id="cell260">
  <circle cx="187.908" cy="154.589" r="6.62367" stroke-width="0.5" stroke="black" fill="grey"/>
   </g>
   <g id="cell261">
  <circle cx="181.007" cy="174.54" r="8.40939" stroke-width="0.5" stroke="black" fill="grey"/>
  <circle cx="181.007" cy="174.54" r="5.04614" stroke-width="0.5" stroke="grey" fill="grey"/>
   </g>
   <g id="cell262">
  <circle cx="181.007" cy="189.577" r="7.8965" stroke-width="0.5" stroke="black" fill="grey"/>
  <circle cx="181.007" cy="189.577" r="4.13525" stroke-width="0.5" stroke="grey" fill="grey"/>
   </g>
   <g id="cell263">
  <circle cx="183.483" cy="208.657" r="8.38376" stroke-width="0.5" stroke="black" fill="grey"/>
  <circle cx="183.483" cy="208.657" r="5.00331" stroke-width="0.5" stroke="grey" fill="grey"/>
   </g>
   <g id="cell264">
  <circle cx="183.973" cy="227.429" r="5.73715" stroke-width="0.5" stroke="black" fill="grey"/>
   </g>
   <g id="cell266">
  <circle cx="192.066" cy="196.724" r="7.06426" stroke-width="0.5" stroke="black" fill="grey"/>
  <circle cx="192.066" cy="196.724" r="2.15625" stroke-width="0.5" stroke="grey" fill="grey"/>
   </g>
   <g id="cell268">
  <circle cx="59.8152" cy="177.904" r="6.06858" stroke-width="0.5" stroke="black" fill="grey"/>
   </g>
   <g id="cell294">
  <circle cx="127.853" cy="128.595" r="5.54214" stroke-width="0.5" stroke="black" fill="grey"/>
   </g>
   <g id="cell310">
  <circle cx="139.444" cy="261.237" r="6.49113" stroke-width="0.5" stroke="black" fill="grey"/>
   </g>
   <g id="cell320">
  <circle cx="170.739" cy="137.369" r="2.92459" stroke-width="0.5" stroke="black" fill="grey"/>
   </g>
   <g id="cell326">
  <circle cx="165.585" cy="241.403" r="4.87996" stroke-width="0.5" stroke="black" fill="grey"/>
   </g>
   <g id="cell334">
  <circle cx="195.642" cy="207.652" r="3.56563" stroke-width="0.5" stroke="black" fill="grey"/>
   </g>
   <g id="cell684">
  <circle cx="207.029" cy="182.964" r="8.41211" stroke-width="0.5" stroke="black" fill="red"/>
  <circle cx="207.029" cy="182.964" r="5.05067" stroke-width="0.5" stroke="red" fill="red"/>
   </g>
   <g id="cell685">
  <circle cx="208.943" cy="200.713" r="8.31711" stroke-width="0.5" stroke="black" fill="red"/>
  <circle cx="208.943" cy="200.713" r="4.89081" stroke-width="0.5" stroke="red" fill="red"/>
   </g>
   <g id="cell686">
  <circle cx="204.348" cy="215.397" r="7.4039" stroke-width="0.5" stroke="black" fill="red"/>
  <circle cx="204.348" cy="215.397" r="3.09248" stroke-width="0.5" stroke="red" fill="red"/>
   </g>
   <g id="cell687">
  <circle cx="219.271" cy="157.677" r="7.22257" stroke-width="0.5" stroke="black" fill="red"/>
  <circle cx="219.271" cy="157.677" r="2.62892" stroke-width="0.5" stroke="red" fill="red"/>
   </g>
   <g id="cell688">
  <circle cx="218.769" cy="174.096" r="6.80385" stroke-width="0.5" stroke="black" fill="red"/>
  <circle cx="218.769" cy="174.096" r="1.01888" stroke-width="0.5" stroke="red" fill="red"/>
   </g>
   <g id="cell689">
  <circle cx="221.806" cy="189.758" r="8.38115" stroke-width="0.5" stroke="black" fill="red"/>
  <circle cx="221.806" cy="189.758" r="4.99894" stroke-width="0.5" stroke="red" fill="red"/>
   </g>
   <g id="cell690">
  <circle cx="220.224" cy="211.734" r="5.55335" stroke-width="0.5" stroke="black" fill="red"/>
   </g>
   <g id="cell691">
  <circle cx="218.908" cy="228.152" r="8.15786" stroke-width="0.5" stroke="black" fill="red"/>
  <circle cx="218.908" cy="228.152" r="4.61479" stroke-width="0.5" stroke="red" fill="red"/>
   </g>
   <g id="cell692">
  <circle cx="219.55" cy="244.445" r="8.1005" stroke-width="0.5" stroke="black" fill="red"/>
  <circle cx="219.55" cy="244.445" r="4.51262" stroke-width="0.5" stroke="red" fill="red"/>
   </g>
   <g id="cell693">
  <circle cx="233.682" cy="150.678" r="8.32939" stroke-width="0.5" stroke="black" fill="red"/>
  <circle cx="233.682" cy="150.678" r="4.91166" stroke-width="0.5" stroke="red" fill="red"/>
   </g>
   <g id="cell694">
  <circle cx="234.084" cy="165.63" r="8.10761" stroke-width="0.5" stroke="black" fill="red"/>
  <circle cx="234.084" cy="165.63" r="4.52537" stroke-width="0.5" stroke="red" fill="red"/>
   </g>
   <g id="cell695">
  <circle cx="236.024" cy="180.467" r="8.39354" stroke-width="0.5" stroke="black" fill="red"/>
  <circle cx="236.024" cy="180.467" r="5.01968" stroke-width="0.5" stroke="red" fill="red"/>
   </g>
   <g id="cell696">
  <circle cx="230.735" cy="203.395" r="8.14591" stroke-width="0.5" stroke="black" fill="red"/>
  <circle cx="230.735" cy="203.395" r="4.59364" stroke-width="0.5" stroke="red" fill="red"/>
   </g>
   <g id="cell697">
  <circle cx="234.867" cy="217.34" r="8.40875" stroke-width="0.5" stroke="black" fill="red"/>
  <circle cx="234.867" cy="217.34" r="5.04507" stroke-width="0.5" stroke="red" fill="red"/>
   </g>
   <g id="cell698">
  <circle cx="234.33" cy="234.894" r="8.36322" stroke-width="0.5" stroke="black" fill="red"/>
  <circle cx="234.33" cy="234.894" r="4.96882" stroke-width="0.5" stroke="red" fill="red"/>
   </g>
   <g id="cell699">
  <circle cx="233.762" cy="252.675" r="7.8594" stroke-width="0.5" stroke="black" fill="red"/>
  <circle cx="233.762" cy="252.675" r="4.06397" stroke-width="0.5" stroke="red" fill="red"/>
   </g>
   <g id="cell700">
  <circle cx="248.761" cy="143.346" r="7.85435" stroke-width="0.5" stroke="black" fill="red"/>
  <circle cx="248.761" cy="143.346" r="4.0542" stroke-width="0.5" stroke="red" fill="red"/>
   </g>
   <g id="cell701">
  <circle cx="249.855" cy="159.293" r="8.41267" stroke-width="0.5" stroke="black" fill="red"/>
  <circle cx="249.855" cy="159.293" r="5.05161" stroke-width="0.5" stroke="red" fill="red"/>
   </g>
   <g id="cell702">
  <circle cx="250.269" cy="176.744" r="7.66715" stroke-width="0.5" stroke="black" fill="red"/>
  <circle cx="250.269" cy="176.744" r="3.67843" stroke-width="0.5" stroke="red" fill="red"/>
   </g>
   <g id="cell703">
  <circle cx="249.317" cy="191.594" r="7.79705" stroke-width="0.5" stroke="black" fill="red"/>
  <circle cx="249.317" cy="191.594" r="3.94204" stroke-width="0.5" stroke="red" fill="red"/>
   </g>
   <g id="cell704">
  <circle cx="247.912" cy="208.581" r="8.41001" stroke-width="0.5" stroke="black" fill="red"/>
  <circle cx="247.912" cy="208.581" r="5.04717" stroke-width="0.5" stroke="red" fill="red"/>
   </g>
   <g id="cell705">
  <circle cx="250.652" cy="226.784" r="7.99074" stroke-width="0.5" stroke="black" fill="red"/>
  <circle cx="250.652" cy="226.784" r="4.3125" stroke-width="0.5" stroke="red" fill="red"/>
   </g>
   <g id="cell706">
  <circle cx="248.661" cy="242.43" r="8.1222" stroke-width="0.5" stroke="black" fill="red"/>
  <circle cx="248.661" cy="242.43" r="4.55147" stroke-width="0.5" stroke="red" fill="red"/>
   </g>
   <g id="cell707">
  <circle cx="247.516" cy="260.425" r="7.1852" stroke-width="0.5" stroke="black" fill="red"/>
  <circle cx="247.516" cy="260.425" r="2.52444" stroke-width="0.5" stroke="red" fill="red"/>
   </g>
   <g id="cell708">
  <circle cx="262.034" cy="131.698" r="8.4087" stroke-width="0.5" stroke="black" fill="red"/>
  <circle cx="262.034" cy="131.698" r="5.04498" stroke-width="0.5" stroke="red" fill="red"/>
   </g>
   <g id="cell709">
  <circle cx="263.628" cy="151.795" r="8.04943" stroke-width="0.5" stroke="black" fill="red"/>
  <circle cx="263.628" cy="151.795" r="4.42029" stroke-width="0.5" stroke="red" fill="red"/>
   </g>
   <g id="cell710">
  <circle cx="262.565" cy="167.766" r="7.82539" stroke-width="0.5" stroke="black" fill="red"/>
  <circle cx="262.565" cy="167.766" r="3.99781" stroke-width="0.5" stroke="red" fill="red"/>
   </g>
   <g id="cell711">
  <circle cx="263.639" cy="184.333" r="8.41269" stroke-width="0.5" stroke="black" fill="red"/>
  <circle cx="263.639" cy="184.333" r="5.05163" stroke-width="0.5" stroke="red" fill="red"/>
   </g>
   <g id="cell712">
  <circle cx="263.155" cy="200.139" r="8.30605" stroke-width="0.5" stroke="black" fill="red"/>
  <circle cx="263.155" cy="200.139" r="4.87198" stroke-width="0.5" stroke="red" fill="red"/>
   </g>
   <g id="cell713">
  <circle cx="261.965" cy="215.936" r="8.37954" stroke-width="0.5" stroke="black" fill="red"/>
  <circle cx="261.965" cy="215.936" r="4.99624" stroke-width="0.5" stroke="red" fill="red"/>
   </g>
   <g id="cell714">
  <circle cx="265.082" cy="234.084" r="8.38259" stroke-width="0.5" stroke="black" fill="red"/>
  <circle cx="265.082" cy="234.084" r="5.00136" stroke-width="0.5" stroke="red" fill="red"/>
   </g>
   <g id="cell715">
  <circle cx="263.647" cy="249.913" r="7.91567" stroke-width="0.5" stroke="black" fill="red"/>
  <circle cx="263.647" cy="249.913" r="4.17175" stroke-width="0.5" stroke="red" fill="red"/>
   </g>
   <g id="cell716">
  <circle cx="265.282" cy="267.116" r="7.82691" stroke-width="0.5" stroke="black" fill="red"/>
  <circle cx="265.282" cy="267.116" r="4.00078" stroke-width="0.5" stroke="red" fill="red"/>
   </g>
   <g id="cell717">
  <circle cx="276.456" cy="143.437" r="8.08366" stroke-width="0.5" stroke="black" fill="red"/>
  <circle cx="276.456" cy="143.437" r="4.48232" stroke-width="0.5" stroke="red" fill="red"/>
   </g>
   <g id="cell718">
  <circle cx="277" cy="160.157" r="8.39498" stroke-width="0.5" stroke="black" fill="red"/>
  <circle cx="277" cy="160.157" r="5.02209" stroke-width="0.5" stroke="red" fill="red"/>
   </g>
   <g id="cell719">
  <circle cx="279.141" cy="175.398" r="8.21805" stroke-width="0.5" stroke="black" fill="red"/>
  <circle cx="279.141" cy="175.398" r="4.72038" stroke-width="0.5" stroke="red" fill="red"/>
   </g>
   <g id="cell720">
  <circle cx="276.733" cy="192.278" r="8.328" stroke-width="0.5" stroke="black" fill="red"/>
  <circle cx="276.733" cy="192.278" r="4.90931" stroke-width="0.5" stroke="red" fill="red"/>
   </g>
   <g id="cell721">
  <circle cx="278.117" cy="209.261" r="8.36824" stroke-width="0.5" stroke="black" fill="red"/>
  <circle cx="278.117" cy="209.261" r="4.97726" stroke-width="0.5" stroke="red" fill="red"/>
   </g>
   <g id="cell722">
  <circle cx="278.412" cy="226.317" r="8.35327" stroke-width="0.5" stroke="black" fill="red"/>
  <circle cx="278.412" cy="226.317" r="4.95205" stroke-width="0.5" stroke="red" fill="red"/>
   </g>
   <g id="cell723">
  <circle cx="279.186" cy="242.541" r="6.90826" stroke-width="0.5" stroke="black" fill="red"/>
  <circle cx="279.186" cy="242.541" r="1.57155" stroke-width="0.5" stroke="red" fill="red"/>
   </g>
   <g id="cell724">
  <circle cx="277.766" cy="258.298" r="8.29637" stroke-width="0.5" stroke="black" fill="red"/>
  <circle cx="277.766" cy="258.298" r="4.85545" stroke-width="0.5" stroke="red" fill="red"/>
   </g>
   <g id="cell725">
  <circle cx="293.139" cy="133.333" r="7.80053" stroke-width="0.5" stroke="black" fill="red"/>
  <circle cx="293.139" cy="133.333" r="3.94891" stroke-width="0.5" stroke="red" fill="red"/>
   </g>
   <g id="cell726">
  <circle cx="290.281" cy="151.097" r="8.40963" stroke-width="0.5" stroke="black" fill="red"/>
  <circle cx="290.281" cy="151.097" r="5.04654" stroke-width="0.5" stroke="red" fill="red"/>
   </g>
   <g id="cell727">
  <circle cx="291.766" cy="166.451" r="8.1694" stroke-width="0.5" stroke="black" fill="red"/>
  <circle cx="291.766" cy="166.451" r="4.63516" stroke-width="0.5" stroke="red" fill="red"/>
   </g>
   <g id="cell728">
  <circle cx="293.466" cy="181.658" r="7.99399" stroke-width="0.5" stroke="black" fill="red"/>
  <circle cx="293.466" cy="181.658" r="4.31852" stroke-width="0.5" stroke="red" fill="red"/>
   </g>
   <g id="cell729">
  <circle cx="292.313" cy="197.958" r="8.41125" stroke-width="0.5" stroke="black" fill="red"/>
  <circle cx="292.313" cy="197.958" r="5.04923" stroke-width="0.5" stroke="red" fill="red"/>
   </g>
   <g id="cell730">
  <circle cx="292.019" cy="216.298" r="8.03674" stroke-width="0.5" stroke="black" fill="red"/>
  <circle cx="292.019" cy="216.298" r="4.39714" stroke-width="0.5" stroke="red" fill="red"/>
   </g>
   <g id="cell731">
  <circle cx="291.793" cy="233.767" r="7.76206" stroke-width="0.5" stroke="black" fill="red"/>
  <circle cx="291.793" cy="233.767" r="3.87237" stroke-width="0.5" stroke="red" fill="red"/>
   </g>
   <g id="cell732">
  <circle cx="292.07" cy="252.167" r="8.06048" stroke-width="0.5" stroke="black" fill="red"/>
  <circle cx="292.07" cy="252.167" r="4.44038" stroke-width="0.5" stroke="red" fill="red"/>
   </g>
   <g id="cell733">
  <circle cx="290.673" cy="267.744" r="6.18571" stroke-width="0.5" stroke="black" fill="red"/>
   </g>
   <g id="cell734">
  <circle cx="307.023" cy="142.045" r="7.49214" stroke-width="0.5" stroke="black" fill="red"/>
  <circle cx="307.023" cy="142.045" r="3.29816" stroke-width="0.5" stroke="red" fill="red"/>
   </g>
   <g id="cell735">
  <circle cx="304.349" cy="158.803" r="7.13608" stroke-width="0.5" stroke="black" fill="red"/>
  <circle cx="304.349" cy="158.803" r="2.38104" stroke-width="0.5" stroke="red" fill="red"/>
   </g>
   <g id="cell736">
  <circle cx="307.675" cy="174.499" r="7.55543" stroke-width="0.5" stroke="black" fill="red"/>
  <circle cx="307.675" cy="174.499" r="3.43951" stroke-width="0.5" stroke="red" fill="red"/>
   </g>
   <g id="cell737">
  <circle cx="306.418" cy="190.696" r="7.94936" stroke-width="0.5" stroke="black" fill="red"/>
  <circle cx="306.418" cy="190.696" r="4.23532" stroke-width="0.5" stroke="red" fill="red"/>
   </g>
   <g id="cell738">
  <circle cx="306.913" cy="208.765" r="8.26317" stroke-width="0.5" stroke="black" fill="red"/>
  <circle cx="306.913" cy="208.765" r="4.79851" stroke-width="0.5" stroke="red" fill="red"/>
   </g>
   <g id="cell739">
  <circle cx="305.046" cy="224.342" r="7.91533" stroke-width="0.5" stroke="black" fill="red"/>
  <circle cx="305.046" cy="224.342" r="4.17111" stroke-width="0.5" stroke="red" fill="red"/>
   </g>
   <g id="cell740">
  <circle cx="305.21" cy="241.724" r="8.06499" stroke-width="0.5" stroke="black" fill="red"/>
  <circle cx="305.21" cy="241.724" r="4.44857" stroke-width="0.5" stroke="red" fill="red"/>
   </g>
   <g id="cell741">
  <circle cx="306.669" cy="259.239" r="7.74946" stroke-width="0.5" stroke="black" fill="red"/>
  <circle cx="306.669" cy="259.239" r="3.84706" stroke-width="0.5" stroke="red" fill="red"/>
   </g>
   <g id="cell742">
  <circle cx="318.501" cy="151.786" r="8.19247" stroke-width="0.5" stroke="black" fill="red"/>
  <circle cx="318.501" cy="151.786" r="4.67571" stroke-width="0.5" stroke="red" fill="red"/>
   </g>
   <g id="cell743">
  <circle cx="320.886" cy="166.89" r="7.94333" stroke-width="0.5" stroke="black" fill="red"/>
  <circle cx="320.886" cy="166.89" r="4.22399" stroke-width="0.5" stroke="red" fill="red"/>
   </g>
   <g id="cell744">
  <circle cx="320.443" cy="183.968" r="8.12403" stroke-width="0.5" stroke="black" fill="red"/>
  <circle cx="320.443" cy="183.968" r="4.55472" stroke-width="0.5" stroke="red" fill="red"/>
   </g>
   <g id="cell745">
  <circle cx="321.224" cy="200.328" r="8.02485" stroke-width="0.5" stroke="black" fill="red"/>
  <circle cx="321.224" cy="200.328" r="4.37538" stroke-width="0.5" stroke="red" fill="red"/>
   </g>
   <g id="cell746">
  <circle cx="321.301" cy="216.831" r="8.10797" stroke-width="0.5" stroke="black" fill="red"/>
  <circle cx="321.301" cy="216.831" r="4.52602" stroke-width="0.5" stroke="red" fill="red"/>
   </g>
   <g id="cell747">
  <circle cx="322.295" cy="233.296" r="8.12809" stroke-width="0.5" stroke="black" fill="red"/>
  <circle cx="322.295" cy="233.296" r="4.56197" stroke-width="0.5" stroke="red" fill="red"/>
   </g>
   <g id="cell748">
  <circle cx="320.187" cy="251.033" r="8.40396" stroke-width="0.5" stroke="black" fill="red"/>
  <circle cx="320.187" cy="251.033" r="5.03709" stroke-width="0.5" stroke="red" fill="red"/>
   </g>
   <g id="cell749">
  <circle cx="334.359" cy="159.703" r="7.75319" stroke-width="0.5" stroke="black" fill="red"/>
  <circle cx="334.359" cy="159.703" r="3.85455" stroke-width="0.5" stroke="red" fill="red"/>
   </g>
   <g id="cell750">
  <circle cx="335.189" cy="175.739" r="7.72309" stroke-width="0.5" stroke="black" fill="red"/>
  <circle cx="335.189" cy="175.739" r="3.79365" stroke-width="0.5" stroke="red" fill="red"/>
   </g>
   <g id="cell751">
  <circle cx="336.191" cy="191.065" r="8.05988" stroke-width="0.5" stroke="black" fill="red"/>
  <circle cx="336.191" cy="191.065" r="4.4393" stroke-width="0.5" stroke="red" fill="red"/>
   </g>
   <g id="cell752">
  <circle cx="337.059" cy="210.686" r="8.36765" stroke-width="0.5" stroke="black" fill="red"/>
  <circle cx="337.059" cy="210.686" r="4.97627" stroke-width="0.5" stroke="red" fill="red"/>
   </g>
   <g id="cell753">
  <circle cx="335.218" cy="225.298" r="5.1914" stroke-width="0.5" stroke="black" fill="red"/>
   </g>
   <g id="cell754">
  <circle cx="334.005" cy="245.917" r="8.0465" stroke-width="0.5" stroke="black" fill="red"/>
  <circle cx="334.005" cy="245.917" r="4.41496" stroke-width="0.5" stroke="red" fill="red"/>
   </g>
   <g id="cell755">
  <circle cx="351.94" cy="198.665" r="6.73919" stroke-width="0.5" stroke="black" fill="red"/>
  <circle cx="351.94" cy="198.665" r="0.402893" stroke-width="0.5" stroke="red" fill="red"/>
   </g>
   <g id="cell759">
  <circle cx="214.789" cy="215.794" r="2.88311" stroke-width="0.5" stroke="black" fill="red"/>
   </g>
  </g>
 </g>
  <rect x="190" y="414" width="200" height="4" stroke-width="0.8" stroke="rgb(255,255,255)" fill="rgb(0,0,0)"/>
  <text x="192.5" y="411.5"
   font-family="Arial" font-size="10" fill="black" >
   200 &#956;m
  </text>
  <text x="10" y="418"
   font-family="Arial" font-size="7.5" fill="black" >
   0 days, 0 hours, 0 minutes, and 8.9203 seconds
  </text>
  <rect x="0" y="28" width="400" height="400" stroke-width="0.8" stroke="rgb(0,0,0)" fill="none"/>
</svg>
