<?xml version="1.0" encoding="UTF-8" standalone="no"?>
<!-- Created with PhysiCell (http://PhysiCell.MathCancer.org/) -->
<svg 
 xmlns:dc="http://purl.org/dc/elements/1.1/" 
 xmlns:cc="http://creativecommons.org/ns#" 
 xmlns:rdf="http://www.w3.org/1999/02/22-rdf-syntax-ns#" 
 xmlns:svg="http://www.w3.org/2000/svg" 
 xmlns="http://www.w3.org/2000/svg" 
 version="1.1" 
 width="400" 
 height="428" 
 id="svg2">
  <rect x="0" y="0" width="400" height="428" stroke-width="0.8" stroke="white" fill="white"/>
  <text x="5" y="12"
   font-family="Arial" font-size="10" fill="black" >
   Current time: 2 days, 2 hours, and 0.00 minutes, z = 0.00 &#956;m
  </text>
  <text x="5" y="23"
   font-family="Arial" font-size="9.5" fill="black" >
   978 agents
  </text>
 <g id="tissue" 
    transform="translate(0,428) scale(1,-1)">
  <g id="ECM">
  </g>
  <g id="cells">
   <g id="cell88">
  <circle cx="127.102" cy="114.338" r="7.64017" stroke-width="0.5" stroke="black" fill="grey"/>
  <circle cx="127.102" cy="114.338" r="3.62186" stroke-width="0.5" stroke="grey" fill="grey"/>
   </g>
   <g id="cell91">
  <circle cx="87.3872" cy="183.582" r="5.12616" stroke-width="0.5" stroke="black" fill="grey"/>
   </g>
   <g id="cell130">
  <circle cx="33.0213" cy="173.167" r="8.39654" stroke-width="0.5" stroke="black" fill="grey"/>
  <circle cx="33.0213" cy="173.167" r="5.02469" stroke-width="0.5" stroke="grey" fill="grey"/>
   </g>
   <g id="cell134">
  <circle cx="46.9408" cy="127.561" r="6.69988" stroke-width="0.5" stroke="black" fill="grey"/>
   </g>
   <g id="cell136">
  <circle cx="58.2893" cy="178.298" r="7.27885" stroke-width="0.5" stroke="black" fill="grey"/>
  <circle cx="58.2893" cy="178.298" r="2.77981" stroke-width="0.5" stroke="grey" fill="grey"/>
   </g>
   <g id="cell144">
  <circle cx="81.8029" cy="221.338" r="6.34252" stroke-width="0.5" stroke="black" fill="grey"/>
   </g>
   <g id="cell146">
  <circle cx="58.9655" cy="242.724" r="6.37832" stroke-width="0.5" stroke="black" fill="grey"/>
   </g>
   <g id="cell147">
  <circle cx="74.8294" cy="118.728" r="5.7615" stroke-width="0.5" stroke="black" fill="grey"/>
   </g>
   <g id="cell149">
  <circle cx="136.4" cy="189.945" r="6.80671" stroke-width="0.5" stroke="black" fill="grey"/>
  <circle cx="136.4" cy="189.945" r="1.03778" stroke-width="0.5" stroke="grey" fill="grey"/>
   </g>
   <g id="cell158">
  <circle cx="103.657" cy="196.617" r="7.59875" stroke-width="0.5" stroke="black" fill="grey"/>
  <circle cx="103.657" cy="196.617" r="3.53365" stroke-width="0.5" stroke="grey" fill="grey"/>
   </g>
   <g id="cell162">
  <circle cx="110.14" cy="270.372" r="7.32609" stroke-width="0.5" stroke="black" fill="grey"/>
  <circle cx="110.14" cy="270.372" r="2.90125" stroke-width="0.5" stroke="grey" fill="grey"/>
   </g>
   <g id="cell175">
  <circle cx="165.027" cy="159.772" r="8.37203" stroke-width="0.5" stroke="black" fill="grey"/>
  <circle cx="165.027" cy="159.772" r="4.98364" stroke-width="0.5" stroke="grey" fill="grey"/>
   </g>
   <g id="cell178">
  <circle cx="149.107" cy="235.259" r="8.21806" stroke-width="0.5" stroke="black" fill="grey"/>
  <circle cx="149.107" cy="235.259" r="4.72039" stroke-width="0.5" stroke="grey" fill="grey"/>
   </g>
   <g id="cell181">
  <circle cx="170.047" cy="133.728" r="7.78493" stroke-width="0.5" stroke="black" fill="grey"/>
  <circle cx="170.047" cy="133.728" r="3.91802" stroke-width="0.5" stroke="grey" fill="grey"/>
   </g>
   <g id="cell185">
  <circle cx="175.798" cy="249.012" r="8.34465" stroke-width="0.5" stroke="black" fill="grey"/>
  <circle cx="175.798" cy="249.012" r="4.93749" stroke-width="0.5" stroke="grey" fill="grey"/>
   </g>
   <g id="cell188">
  <circle cx="192.433" cy="157.754" r="5.29394" stroke-width="0.5" stroke="black" fill="grey"/>
   </g>
   <g id="cell196">
  <circle cx="12.9989" cy="224.241" r="7.12645" stroke-width="0.5" stroke="black" fill="grey"/>
  <circle cx="12.9989" cy="224.241" r="2.35201" stroke-width="0.5" stroke="grey" fill="grey"/>
   </g>
   <g id="cell206">
  <circle cx="59.2096" cy="134.342" r="4.49866" stroke-width="0.5" stroke="black" fill="grey"/>
   </g>
   <g id="cell207">
  <circle cx="62.0147" cy="195.064" r="8.08519" stroke-width="0.5" stroke="black" fill="grey"/>
  <circle cx="62.0147" cy="195.064" r="4.48508" stroke-width="0.5" stroke="grey" fill="grey"/>
   </g>
   <g id="cell211">
  <circle cx="78.3346" cy="103.539" r="8.32256" stroke-width="0.5" stroke="black" fill="grey"/>
  <circle cx="78.3346" cy="103.539" r="4.90007" stroke-width="0.5" stroke="grey" fill="grey"/>
   </g>
   <g id="cell215">
  <circle cx="134.023" cy="233.716" r="7.62548" stroke-width="0.5" stroke="black" fill="grey"/>
  <circle cx="134.023" cy="233.716" r="3.59076" stroke-width="0.5" stroke="grey" fill="grey"/>
   </g>
   <g id="cell224">
  <circle cx="76.6167" cy="238.383" r="7.74853" stroke-width="0.5" stroke="black" fill="grey"/>
  <circle cx="76.6167" cy="238.383" r="3.84519" stroke-width="0.5" stroke="grey" fill="grey"/>
   </g>
   <g id="cell229">
  <circle cx="101.164" cy="147.162" r="7.45756" stroke-width="0.5" stroke="black" fill="grey"/>
  <circle cx="101.164" cy="147.162" r="3.21884" stroke-width="0.5" stroke="grey" fill="grey"/>
   </g>
   <g id="cell230">
  <circle cx="143.862" cy="175.733" r="7.79487" stroke-width="0.5" stroke="black" fill="grey"/>
  <circle cx="143.862" cy="175.733" r="3.93773" stroke-width="0.5" stroke="grey" fill="grey"/>
   </g>
   <g id="cell231">
  <circle cx="129.807" cy="206.855" r="8.05914" stroke-width="0.5" stroke="black" fill="grey"/>
  <circle cx="129.807" cy="206.855" r="4.43795" stroke-width="0.5" stroke="grey" fill="grey"/>
   </g>
   <g id="cell233">
  <circle cx="96.1161" cy="244.514" r="8.23739" stroke-width="0.5" stroke="black" fill="grey"/>
  <circle cx="96.1161" cy="244.514" r="4.75397" stroke-width="0.5" stroke="grey" fill="grey"/>
   </g>
   <g id="cell235">
  <circle cx="75.1095" cy="281.987" r="6.32032" stroke-width="0.5" stroke="black" fill="grey"/>
   </g>
   <g id="cell237">
  <circle cx="150.97" cy="142.673" r="8.0852" stroke-width="0.5" stroke="black" fill="grey"/>
  <circle cx="150.97" cy="142.673" r="4.48511" stroke-width="0.5" stroke="grey" fill="grey"/>
   </g>
   <g id="cell241">
  <circle cx="144.196" cy="205.922" r="4.72339" stroke-width="0.5" stroke="black" fill="grey"/>
   </g>
   <g id="cell244">
  <circle cx="133.918" cy="275.344" r="8.34989" stroke-width="0.5" stroke="black" fill="grey"/>
  <circle cx="133.918" cy="275.344" r="4.94635" stroke-width="0.5" stroke="grey" fill="grey"/>
   </g>
   <g id="cell247">
  <circle cx="165.522" cy="146.337" r="6.08938" stroke-width="0.5" stroke="black" fill="grey"/>
   </g>
   <g id="cell250">
  <circle cx="103.816" cy="234.084" r="6.65282" stroke-width="0.5" stroke="black" fill="grey"/>
   </g>
   <g id="cell253">
  <circle cx="197.55" cy="114.067" r="8.25835" stroke-width="0.5" stroke="black" fill="grey"/>
  <circle cx="197.55" cy="114.067" r="4.7902" stroke-width="0.5" stroke="grey" fill="grey"/>
   </g>
   <g id="cell254">
  <circle cx="186.276" cy="140.567" r="5.17433" stroke-width="0.5" stroke="black" fill="grey"/>
   </g>
   <g id="cell259">
  <circle cx="185.027" cy="309.83" r="7.8041" stroke-width="0.5" stroke="black" fill="grey"/>
  <circle cx="185.027" cy="309.83" r="3.95596" stroke-width="0.5" stroke="grey" fill="grey"/>
   </g>
   <g id="cell260">
  <circle cx="192.144" cy="128.95" r="5.71541" stroke-width="0.5" stroke="black" fill="grey"/>
   </g>
   <g id="cell283">
  <circle cx="88.6327" cy="206.438" r="8.38171" stroke-width="0.5" stroke="black" fill="grey"/>
  <circle cx="88.6327" cy="206.438" r="4.99988" stroke-width="0.5" stroke="grey" fill="grey"/>
   </g>
   <g id="cell286">
  <circle cx="97.636" cy="134.508" r="7.83034" stroke-width="0.5" stroke="black" fill="grey"/>
  <circle cx="97.636" cy="134.508" r="4.00748" stroke-width="0.5" stroke="grey" fill="grey"/>
   </g>
   <g id="cell290">
  <circle cx="120.899" cy="240.892" r="6.74369" stroke-width="0.5" stroke="black" fill="grey"/>
  <circle cx="120.899" cy="240.892" r="0.472321" stroke-width="0.5" stroke="grey" fill="grey"/>
   </g>
   <g id="cell291">
  <circle cx="119.852" cy="218.022" r="4.01496" stroke-width="0.5" stroke="black" fill="grey"/>
   </g>
   <g id="cell293">
  <circle cx="121.854" cy="260.795" r="3.4675" stroke-width="0.5" stroke="black" fill="grey"/>
   </g>
   <g id="cell305">
  <circle cx="159.472" cy="177.437" r="7.26791" stroke-width="0.5" stroke="black" fill="grey"/>
  <circle cx="159.472" cy="177.437" r="2.75104" stroke-width="0.5" stroke="grey" fill="grey"/>
   </g>
   <g id="cell314">
  <circle cx="162.326" cy="204.433" r="5.5822" stroke-width="0.5" stroke="black" fill="grey"/>
   </g>
   <g id="cell318">
  <circle cx="168.337" cy="298.3" r="5.15677" stroke-width="0.5" stroke="black" fill="grey"/>
   </g>
   <g id="cell324">
  <circle cx="173.168" cy="194.375" r="7.47009" stroke-width="0.5" stroke="black" fill="grey"/>
  <circle cx="173.168" cy="194.375" r="3.24775" stroke-width="0.5" stroke="grey" fill="grey"/>
   </g>
   <g id="cell329">
  <circle cx="188.129" cy="183.799" r="5.40943" stroke-width="0.5" stroke="black" fill="grey"/>
   </g>
   <g id="cell332">
  <circle cx="216.327" cy="252.514" r="6.50905" stroke-width="0.5" stroke="black" fill="grey"/>
   </g>
   <g id="cell350">
  <circle cx="92.4013" cy="167.699" r="8.38271" stroke-width="0.5" stroke="black" fill="grey"/>
  <circle cx="92.4013" cy="167.699" r="5.00155" stroke-width="0.5" stroke="grey" fill="grey"/>
   </g>
   <g id="cell352">
  <circle cx="100.668" cy="216.938" r="5.78911" stroke-width="0.5" stroke="black" fill="grey"/>
   </g>
   <g id="cell367">
  <circle cx="142.151" cy="155.966" r="5.26106" stroke-width="0.5" stroke="black" fill="grey"/>
   </g>
   <g id="cell382">
  <circle cx="122.347" cy="187.181" r="8.37924" stroke-width="0.5" stroke="black" fill="grey"/>
  <circle cx="122.347" cy="187.181" r="4.99574" stroke-width="0.5" stroke="grey" fill="grey"/>
   </g>
   <g id="cell390">
  <circle cx="179.465" cy="171.319" r="5.20739" stroke-width="0.5" stroke="black" fill="grey"/>
   </g>
   <g id="cell434">
  <circle cx="146.628" cy="302.701" r="6.3046" stroke-width="0.5" stroke="black" fill="grey"/>
   </g>
   <g id="cell569">
  <circle cx="242.077" cy="121.939" r="7.95914" stroke-width="0.5" stroke="black" fill="red"/>
  <circle cx="242.077" cy="121.939" r="4.25365" stroke-width="0.5" stroke="red" fill="red"/>
   </g>
   <g id="cell621">
  <circle cx="208.166" cy="216.781" r="8.32787" stroke-width="0.5" stroke="black" fill="red"/>
  <circle cx="208.166" cy="216.781" r="4.90908" stroke-width="0.5" stroke="red" fill="red"/>
   </g>
   <g id="cell624">
  <circle cx="222.3" cy="176.481" r="7.65266" stroke-width="0.5" stroke="black" fill="red"/>
  <circle cx="222.3" cy="176.481" r="3.64813" stroke-width="0.5" stroke="red" fill="red"/>
   </g>
   <g id="cell643">
  <circle cx="262.966" cy="266.716" r="3.98477" stroke-width="0.5" stroke="black" fill="red"/>
   </g>
   <g id="cell653">
  <circle cx="285.293" cy="135.352" r="6.18523" stroke-width="0.5" stroke="black" fill="red"/>
   </g>
   <g id="cell661">
  <circle cx="311.365" cy="122.94" r="7.9403" stroke-width="0.5" stroke="black" fill="red"/>
  <circle cx="311.365" cy="122.94" r="4.21829" stroke-width="0.5" stroke="red" fill="red"/>
   </g>
   <g id="cell671">
  <circle cx="312.877" cy="174.432" r="4.05976" stroke-width="0.5" stroke="black" fill="red"/>
   </g>
   <g id="cell676">
  <circle cx="323.409" cy="280.282" r="6.32397" stroke-width="0.5" stroke="black" fill="red"/>
   </g>
   <g id="cell681">
  <circle cx="356.068" cy="231.194" r="4.60231" stroke-width="0.5" stroke="black" fill="red"/>
   </g>
   <g id="cell686">
  <circle cx="190.771" cy="215.024" r="7.82646" stroke-width="0.5" stroke="black" fill="red"/>
  <circle cx="190.771" cy="215.024" r="3.99989" stroke-width="0.5" stroke="red" fill="red"/>
   </g>
   <g id="cell687">
  <circle cx="209.361" cy="150.661" r="6.30058" stroke-width="0.5" stroke="black" fill="red"/>
   </g>
   <g id="cell689">
  <circle cx="222.829" cy="199.867" r="6.80217" stroke-width="0.5" stroke="black" fill="red"/>
  <circle cx="222.829" cy="199.867" r="1.00756" stroke-width="0.5" stroke="red" fill="red"/>
   </g>
   <g id="cell690">
  <circle cx="223.452" cy="211.076" r="3.94163" stroke-width="0.5" stroke="black" fill="red"/>
   </g>
   <g id="cell691">
  <circle cx="219.172" cy="229.131" r="7.10272" stroke-width="0.5" stroke="black" fill="red"/>
  <circle cx="219.172" cy="229.131" r="2.27911" stroke-width="0.5" stroke="red" fill="red"/>
   </g>
   <g id="cell692">
  <circle cx="228.146" cy="241.514" r="7.15771" stroke-width="0.5" stroke="black" fill="red"/>
  <circle cx="228.146" cy="241.514" r="2.44509" stroke-width="0.5" stroke="red" fill="red"/>
   </g>
   <g id="cell693">
  <circle cx="221.441" cy="143.693" r="8.08453" stroke-width="0.5" stroke="black" fill="red"/>
  <circle cx="221.441" cy="143.693" r="4.4839" stroke-width="0.5" stroke="red" fill="red"/>
   </g>
   <g id="cell694">
  <circle cx="237.561" cy="166.903" r="5.65485" stroke-width="0.5" stroke="black" fill="red"/>
   </g>
   <g id="cell695">
  <circle cx="233.603" cy="191.904" r="8.04619" stroke-width="0.5" stroke="black" fill="red"/>
  <circle cx="233.603" cy="191.904" r="4.41438" stroke-width="0.5" stroke="red" fill="red"/>
   </g>
   <g id="cell697">
  <circle cx="237.726" cy="216.773" r="7.81031" stroke-width="0.5" stroke="black" fill="red"/>
  <circle cx="237.726" cy="216.773" r="3.96819" stroke-width="0.5" stroke="red" fill="red"/>
   </g>
   <g id="cell700">
  <circle cx="237.725" cy="153.969" r="8.35529" stroke-width="0.5" stroke="black" fill="red"/>
  <circle cx="237.725" cy="153.969" r="4.95545" stroke-width="0.5" stroke="red" fill="red"/>
   </g>
   <g id="cell702">
  <circle cx="251.937" cy="174.081" r="7.90682" stroke-width="0.5" stroke="black" fill="red"/>
  <circle cx="251.937" cy="174.081" r="4.15494" stroke-width="0.5" stroke="red" fill="red"/>
   </g>
   <g id="cell703">
  <circle cx="248.924" cy="193.905" r="7.94205" stroke-width="0.5" stroke="black" fill="red"/>
  <circle cx="248.924" cy="193.905" r="4.22159" stroke-width="0.5" stroke="red" fill="red"/>
   </g>
   <g id="cell704">
  <circle cx="251.338" cy="208.891" r="6.55326" stroke-width="0.5" stroke="black" fill="red"/>
   </g>
   <g id="cell706">
  <circle cx="252.378" cy="245.141" r="8.28676" stroke-width="0.5" stroke="black" fill="red"/>
  <circle cx="252.378" cy="245.141" r="4.83902" stroke-width="0.5" stroke="red" fill="red"/>
   </g>
   <g id="cell709">
  <circle cx="260.812" cy="140.219" r="7.38895" stroke-width="0.5" stroke="black" fill="red"/>
  <circle cx="260.812" cy="140.219" r="3.05651" stroke-width="0.5" stroke="red" fill="red"/>
   </g>
   <g id="cell710">
  <circle cx="268.419" cy="169.541" r="5.6522" stroke-width="0.5" stroke="black" fill="red"/>
   </g>
   <g id="cell711">
  <circle cx="267.129" cy="187.726" r="8.34008" stroke-width="0.5" stroke="black" fill="red"/>
  <circle cx="267.129" cy="187.726" r="4.92977" stroke-width="0.5" stroke="red" fill="red"/>
   </g>
   <g id="cell712">
  <circle cx="264.892" cy="204.173" r="8.36248" stroke-width="0.5" stroke="black" fill="red"/>
  <circle cx="264.892" cy="204.173" r="4.96757" stroke-width="0.5" stroke="red" fill="red"/>
   </g>
   <g id="cell713">
  <circle cx="264.285" cy="219.606" r="8.29316" stroke-width="0.5" stroke="black" fill="red"/>
  <circle cx="264.285" cy="219.606" r="4.84996" stroke-width="0.5" stroke="red" fill="red"/>
   </g>
   <g id="cell715">
  <circle cx="268.406" cy="245.87" r="8.23322" stroke-width="0.5" stroke="black" fill="red"/>
  <circle cx="268.406" cy="245.87" r="4.74675" stroke-width="0.5" stroke="red" fill="red"/>
   </g>
   <g id="cell717">
  <circle cx="263.717" cy="123.924" r="6.90259" stroke-width="0.5" stroke="black" fill="red"/>
  <circle cx="263.717" cy="123.924" r="1.54641" stroke-width="0.5" stroke="red" fill="red"/>
   </g>
   <g id="cell718">
  <circle cx="281.86" cy="151.266" r="7.93848" stroke-width="0.5" stroke="black" fill="red"/>
  <circle cx="281.86" cy="151.266" r="4.21487" stroke-width="0.5" stroke="red" fill="red"/>
   </g>
   <g id="cell719">
  <circle cx="279.929" cy="178.51" r="8.35344" stroke-width="0.5" stroke="black" fill="red"/>
  <circle cx="279.929" cy="178.51" r="4.95234" stroke-width="0.5" stroke="red" fill="red"/>
   </g>
   <g id="cell720">
  <circle cx="280.098" cy="195.474" r="6.74067" stroke-width="0.5" stroke="black" fill="red"/>
  <circle cx="280.098" cy="195.474" r="0.42705" stroke-width="0.5" stroke="red" fill="red"/>
   </g>
   <g id="cell721">
  <circle cx="278.969" cy="211.048" r="8.32553" stroke-width="0.5" stroke="black" fill="red"/>
  <circle cx="278.969" cy="211.048" r="4.90511" stroke-width="0.5" stroke="red" fill="red"/>
   </g>
   <g id="cell722">
  <circle cx="278.413" cy="226.054" r="6.69354" stroke-width="0.5" stroke="black" fill="red"/>
   </g>
   <g id="cell723">
  <circle cx="283.576" cy="251.211" r="8.36106" stroke-width="0.5" stroke="black" fill="red"/>
  <circle cx="283.576" cy="251.211" r="4.96518" stroke-width="0.5" stroke="red" fill="red"/>
   </g>
   <g id="cell724">
  <circle cx="275.503" cy="265.194" r="8.36456" stroke-width="0.5" stroke="black" fill="red"/>
  <circle cx="275.503" cy="265.194" r="4.97108" stroke-width="0.5" stroke="red" fill="red"/>
   </g>
   <g id="cell727">
  <circle cx="293.062" cy="161.222" r="5.52664" stroke-width="0.5" stroke="black" fill="red"/>
   </g>
   <g id="cell728">
  <circle cx="293.289" cy="186.393" r="8.06764" stroke-width="0.5" stroke="black" fill="red"/>
  <circle cx="293.289" cy="186.393" r="4.45337" stroke-width="0.5" stroke="red" fill="red"/>
   </g>
   <g id="cell729">
  <circle cx="293.432" cy="202.619" r="7.78044" stroke-width="0.5" stroke="black" fill="red"/>
  <circle cx="293.432" cy="202.619" r="3.90908" stroke-width="0.5" stroke="red" fill="red"/>
   </g>
   <g id="cell730">
  <circle cx="293.091" cy="219.369" r="8.36024" stroke-width="0.5" stroke="black" fill="red"/>
  <circle cx="293.091" cy="219.369" r="4.9638" stroke-width="0.5" stroke="red" fill="red"/>
   </g>
   <g id="cell731">
  <circle cx="291.093" cy="238.025" r="7.31169" stroke-width="0.5" stroke="black" fill="red"/>
  <circle cx="291.093" cy="238.025" r="2.8647" stroke-width="0.5" stroke="red" fill="red"/>
   </g>
   <g id="cell734">
  <circle cx="297.756" cy="132.124" r="7.90562" stroke-width="0.5" stroke="black" fill="red"/>
  <circle cx="297.756" cy="132.124" r="4.15266" stroke-width="0.5" stroke="red" fill="red"/>
   </g>
   <g id="cell735">
  <circle cx="305.53" cy="161.077" r="7.27545" stroke-width="0.5" stroke="black" fill="red"/>
  <circle cx="305.53" cy="161.077" r="2.77089" stroke-width="0.5" stroke="red" fill="red"/>
   </g>
   <g id="cell736">
  <circle cx="303.755" cy="173.249" r="6.37667" stroke-width="0.5" stroke="black" fill="red"/>
   </g>
   <g id="cell737">
  <circle cx="309.008" cy="187.202" r="8.07324" stroke-width="0.5" stroke="black" fill="red"/>
  <circle cx="309.008" cy="187.202" r="4.46351" stroke-width="0.5" stroke="red" fill="red"/>
   </g>
   <g id="cell738">
  <circle cx="307.315" cy="212.165" r="8.35915" stroke-width="0.5" stroke="black" fill="red"/>
  <circle cx="307.315" cy="212.165" r="4.96196" stroke-width="0.5" stroke="red" fill="red"/>
   </g>
   <g id="cell739">
  <circle cx="304.377" cy="228.688" r="6.64823" stroke-width="0.5" stroke="black" fill="red"/>
   </g>
   <g id="cell740">
  <circle cx="311.937" cy="244.733" r="7.6152" stroke-width="0.5" stroke="black" fill="red"/>
  <circle cx="311.937" cy="244.733" r="3.56889" stroke-width="0.5" stroke="red" fill="red"/>
   </g>
   <g id="cell742">
  <circle cx="319.786" cy="152.759" r="7.6744" stroke-width="0.5" stroke="black" fill="red"/>
  <circle cx="319.786" cy="152.759" r="3.69352" stroke-width="0.5" stroke="red" fill="red"/>
   </g>
   <g id="cell743">
  <circle cx="326.829" cy="170.504" r="8.33996" stroke-width="0.5" stroke="black" fill="red"/>
  <circle cx="326.829" cy="170.504" r="4.92957" stroke-width="0.5" stroke="red" fill="red"/>
   </g>
   <g id="cell744">
  <circle cx="324.37" cy="187.188" r="7.99679" stroke-width="0.5" stroke="black" fill="red"/>
  <circle cx="324.37" cy="187.188" r="4.3237" stroke-width="0.5" stroke="red" fill="red"/>
   </g>
   <g id="cell746">
  <circle cx="326.557" cy="220.724" r="6.04625" stroke-width="0.5" stroke="black" fill="red"/>
   </g>
   <g id="cell747">
  <circle cx="326.716" cy="239.733" r="8.41183" stroke-width="0.5" stroke="black" fill="red"/>
  <circle cx="326.716" cy="239.733" r="5.0502" stroke-width="0.5" stroke="red" fill="red"/>
   </g>
   <g id="cell749">
  <circle cx="343.286" cy="169.994" r="5.9341" stroke-width="0.5" stroke="black" fill="red"/>
   </g>
   <g id="cell751">
  <circle cx="342.715" cy="190.654" r="8.40793" stroke-width="0.5" stroke="black" fill="red"/>
  <circle cx="342.715" cy="190.654" r="5.04371" stroke-width="0.5" stroke="red" fill="red"/>
   </g>
   <g id="cell752">
  <circle cx="340.037" cy="213.925" r="8.17217" stroke-width="0.5" stroke="black" fill="red"/>
  <circle cx="340.037" cy="213.925" r="4.64005" stroke-width="0.5" stroke="red" fill="red"/>
   </g>
   <g id="cell753">
  <circle cx="357.183" cy="218.823" r="7.57655" stroke-width="0.5" stroke="black" fill="red"/>
  <circle cx="357.183" cy="218.823" r="3.48566" stroke-width="0.5" stroke="red" fill="red"/>
   </g>
   <g id="cell754">
  <circle cx="342.319" cy="241.506" r="8.37644" stroke-width="0.5" stroke="black" fill="red"/>
  <circle cx="342.319" cy="241.506" r="4.99103" stroke-width="0.5" stroke="red" fill="red"/>
   </g>
   <g id="cell755">
  <circle cx="352.512" cy="203.46" r="8.20407" stroke-width="0.5" stroke="black" fill="red"/>
  <circle cx="352.512" cy="203.46" r="4.696" stroke-width="0.5" stroke="red" fill="red"/>
   </g>
   <g id="cell757">
  <circle cx="207.127" cy="183.576" r="0.602954" stroke-width="0.5" stroke="black" fill="red"/>
   </g>
   <g id="cell760">
  <circle cx="207.613" cy="233.729" r="6.12304" stroke-width="0.5" stroke="black" fill="red"/>
   </g>
   <g id="cell767">
  <circle cx="230.891" cy="132.109" r="6.89574" stroke-width="0.5" stroke="black" fill="red"/>
  <circle cx="230.891" cy="132.109" r="1.51558" stroke-width="0.5" stroke="red" fill="red"/>
   </g>
   <g id="cell770">
  <circle cx="244.212" cy="183.566" r="2.47011" stroke-width="0.5" stroke="black" fill="red"/>
   </g>
   <g id="cell773">
  <circle cx="233.805" cy="229.503" r="7.09503" stroke-width="0.5" stroke="black" fill="red"/>
  <circle cx="233.805" cy="229.503" r="2.25503" stroke-width="0.5" stroke="red" fill="red"/>
   </g>
   <g id="cell776">
  <circle cx="253.094" cy="149.937" r="6.48994" stroke-width="0.5" stroke="black" fill="red"/>
   </g>
   <g id="cell780">
  <circle cx="250.031" cy="225.334" r="7.08184" stroke-width="0.5" stroke="black" fill="red"/>
  <circle cx="250.031" cy="225.334" r="2.21317" stroke-width="0.5" stroke="red" fill="red"/>
   </g>
   <g id="cell784">
  <circle cx="268.947" cy="149.205" r="5.46221" stroke-width="0.5" stroke="black" fill="red"/>
   </g>
   <g id="cell785">
  <circle cx="277.79" cy="164.049" r="6.68154" stroke-width="0.5" stroke="black" fill="red"/>
   </g>
   <g id="cell792">
  <circle cx="290.756" cy="145.373" r="0.578356" stroke-width="0.5" stroke="black" fill="red"/>
   </g>
   <g id="cell800">
  <circle cx="315.096" cy="91.5506" r="7.07409" stroke-width="0.5" stroke="black" fill="red"/>
  <circle cx="315.096" cy="91.5506" r="2.18825" stroke-width="0.5" stroke="red" fill="red"/>
   </g>
   <g id="cell801">
  <circle cx="304.516" cy="146.713" r="8.21817" stroke-width="0.5" stroke="black" fill="red"/>
  <circle cx="304.516" cy="146.713" r="4.7206" stroke-width="0.5" stroke="red" fill="red"/>
   </g>
   <g id="cell807">
  <circle cx="303.317" cy="259.37" r="8.14237" stroke-width="0.5" stroke="black" fill="red"/>
  <circle cx="303.317" cy="259.37" r="4.58736" stroke-width="0.5" stroke="red" fill="red"/>
   </g>
   <g id="cell813">
  <circle cx="321.63" cy="212.011" r="4.44265" stroke-width="0.5" stroke="black" fill="red"/>
   </g>
   <g id="cell814">
  <circle cx="316.71" cy="227.966" r="5.63812" stroke-width="0.5" stroke="black" fill="red"/>
   </g>
   <g id="cell820">
  <circle cx="337.121" cy="227.422" r="5.6885" stroke-width="0.5" stroke="black" fill="red"/>
   </g>
  </g>
 </g>
  <rect x="190" y="414" width="200" height="4" stroke-width="0.8" stroke="rgb(255,255,255)" fill="rgb(0,0,0)"/>
  <text x="192.5" y="411.5"
   font-family="Arial" font-size="10" fill="black" >
   200 &#956;m
  </text>
  <text x="10" y="418"
   font-family="Arial" font-size="7.5" fill="black" >
   0 days, 0 hours, 4 minutes, and 33.5754 seconds
  </text>
  <rect x="0" y="28" width="400" height="400" stroke-width="0.8" stroke="rgb(0,0,0)" fill="none"/>
</svg>
