<?xml version="1.0" encoding="UTF-8" standalone="no"?>
<!-- Created with PhysiCell (http://PhysiCell.MathCancer.org/) -->
<svg 
 xmlns:dc="http://purl.org/dc/elements/1.1/" 
 xmlns:cc="http://creativecommons.org/ns#" 
 xmlns:rdf="http://www.w3.org/1999/02/22-rdf-syntax-ns#" 
 xmlns:svg="http://www.w3.org/2000/svg" 
 xmlns="http://www.w3.org/2000/svg" 
 version="1.1" 
 width="400" 
 height="428" 
 id="svg2">
  <rect x="0" y="0" width="400" height="428" stroke-width="0.8" stroke="white" fill="white"/>
  <text x="5" y="12"
   font-family="Arial" font-size="10" fill="black" >
   Current time: 2 days, 10 hours, and 0.00 minutes, z = 0.00 &#956;m
  </text>
  <text x="5" y="23"
   font-family="Arial" font-size="9.5" fill="black" >
   978 agents
  </text>
 <g id="tissue" 
    transform="translate(0,428) scale(1,-1)">
  <g id="ECM">
  </g>
  <g id="cells">
   <g id="cell81">
  <circle cx="85.1889" cy="87.2552" r="3.29555" stroke-width="0.5" stroke="black" fill="grey"/>
   </g>
   <g id="cell87">
  <circle cx="146.91" cy="316.162" r="8.05689" stroke-width="0.5" stroke="black" fill="grey"/>
  <circle cx="146.91" cy="316.162" r="4.43386" stroke-width="0.5" stroke="grey" fill="grey"/>
   </g>
   <g id="cell91">
  <circle cx="82.5315" cy="181.51" r="7.73806" stroke-width="0.5" stroke="black" fill="grey"/>
  <circle cx="82.5315" cy="181.51" r="3.82404" stroke-width="0.5" stroke="grey" fill="grey"/>
   </g>
   <g id="cell97">
  <circle cx="145.202" cy="111.386" r="7.47501" stroke-width="0.5" stroke="black" fill="grey"/>
  <circle cx="145.202" cy="111.386" r="3.25906" stroke-width="0.5" stroke="grey" fill="grey"/>
   </g>
   <g id="cell104">
  <circle cx="140.38" cy="148.318" r="5.06221" stroke-width="0.5" stroke="black" fill="grey"/>
   </g>
   <g id="cell126">
  <circle cx="206.417" cy="198.491" r="7.81879" stroke-width="0.5" stroke="black" fill="grey"/>
  <circle cx="206.417" cy="198.491" r="3.98487" stroke-width="0.5" stroke="grey" fill="grey"/>
   </g>
   <g id="cell130">
  <circle cx="32.985" cy="185.126" r="5.25314" stroke-width="0.5" stroke="black" fill="grey"/>
   </g>
   <g id="cell134">
  <circle cx="41.8349" cy="136.876" r="6.41924" stroke-width="0.5" stroke="black" fill="grey"/>
   </g>
   <g id="cell136">
  <circle cx="71.2853" cy="178.432" r="3.66563" stroke-width="0.5" stroke="black" fill="grey"/>
   </g>
   <g id="cell137">
  <circle cx="60.5594" cy="216.711" r="1.36552" stroke-width="0.5" stroke="black" fill="grey"/>
   </g>
   <g id="cell140">
  <circle cx="71.2328" cy="146.413" r="8.38905" stroke-width="0.5" stroke="black" fill="grey"/>
  <circle cx="71.2328" cy="146.413" r="5.01217" stroke-width="0.5" stroke="grey" fill="grey"/>
   </g>
   <g id="cell144">
  <circle cx="78.8254" cy="227.159" r="8.41162" stroke-width="0.5" stroke="black" fill="grey"/>
  <circle cx="78.8254" cy="227.159" r="5.04986" stroke-width="0.5" stroke="grey" fill="grey"/>
   </g>
   <g id="cell146">
  <circle cx="38.0289" cy="256.257" r="1.74335" stroke-width="0.5" stroke="black" fill="grey"/>
   </g>
   <g id="cell147">
  <circle cx="71.5726" cy="125.423" r="5.52727" stroke-width="0.5" stroke="black" fill="grey"/>
   </g>
   <g id="cell149">
  <circle cx="140.351" cy="194.335" r="6.92676" stroke-width="0.5" stroke="black" fill="grey"/>
  <circle cx="140.351" cy="194.335" r="1.65096" stroke-width="0.5" stroke="grey" fill="grey"/>
   </g>
   <g id="cell154">
  <circle cx="82.7225" cy="303.352" r="8.14955" stroke-width="0.5" stroke="black" fill="grey"/>
  <circle cx="82.7225" cy="303.352" r="4.60009" stroke-width="0.5" stroke="grey" fill="grey"/>
   </g>
   <g id="cell162">
  <circle cx="101.599" cy="275.827" r="6.7237" stroke-width="0.5" stroke="black" fill="grey"/>
   </g>
   <g id="cell165">
  <circle cx="132.19" cy="140.529" r="8.23446" stroke-width="0.5" stroke="black" fill="grey"/>
  <circle cx="132.19" cy="140.529" r="4.7489" stroke-width="0.5" stroke="grey" fill="grey"/>
   </g>
   <g id="cell170">
  <circle cx="149.44" cy="290.436" r="8.29061" stroke-width="0.5" stroke="black" fill="grey"/>
  <circle cx="149.44" cy="290.436" r="4.84561" stroke-width="0.5" stroke="grey" fill="grey"/>
   </g>
   <g id="cell175">
  <circle cx="168.059" cy="170.581" r="7.33809" stroke-width="0.5" stroke="black" fill="grey"/>
  <circle cx="168.059" cy="170.581" r="2.93143" stroke-width="0.5" stroke="grey" fill="grey"/>
   </g>
   <g id="cell178">
  <circle cx="151.068" cy="233.649" r="8.15061" stroke-width="0.5" stroke="black" fill="grey"/>
  <circle cx="151.068" cy="233.649" r="4.60197" stroke-width="0.5" stroke="grey" fill="grey"/>
   </g>
   <g id="cell179">
  <circle cx="146.828" cy="275.435" r="8.34749" stroke-width="0.5" stroke="black" fill="grey"/>
  <circle cx="146.828" cy="275.435" r="4.9423" stroke-width="0.5" stroke="grey" fill="grey"/>
   </g>
   <g id="cell181">
  <circle cx="168.252" cy="135.217" r="6.06125" stroke-width="0.5" stroke="black" fill="grey"/>
   </g>
   <g id="cell183">
  <circle cx="209.293" cy="144.25" r="7.8549" stroke-width="0.5" stroke="black" fill="grey"/>
  <circle cx="209.293" cy="144.25" r="4.05526" stroke-width="0.5" stroke="grey" fill="grey"/>
   </g>
   <g id="cell184">
  <circle cx="197.124" cy="245.122" r="4.49453" stroke-width="0.5" stroke="black" fill="grey"/>
   </g>
   <g id="cell185">
  <circle cx="171.664" cy="251.179" r="3.76219" stroke-width="0.5" stroke="black" fill="grey"/>
   </g>
   <g id="cell189">
  <circle cx="172.669" cy="145.427" r="7.20614" stroke-width="0.5" stroke="black" fill="grey"/>
  <circle cx="172.669" cy="145.427" r="2.58344" stroke-width="0.5" stroke="grey" fill="grey"/>
   </g>
   <g id="cell196">
  <circle cx="25.3182" cy="236.246" r="8.25928" stroke-width="0.5" stroke="black" fill="grey"/>
  <circle cx="25.3182" cy="236.246" r="4.79181" stroke-width="0.5" stroke="grey" fill="grey"/>
   </g>
   <g id="cell202">
  <circle cx="49.2253" cy="192.686" r="6.80419" stroke-width="0.5" stroke="black" fill="grey"/>
  <circle cx="49.2253" cy="192.686" r="1.0211" stroke-width="0.5" stroke="grey" fill="grey"/>
   </g>
   <g id="cell207">
  <circle cx="62.5577" cy="200.723" r="7.7125" stroke-width="0.5" stroke="black" fill="grey"/>
  <circle cx="62.5577" cy="200.723" r="3.77206" stroke-width="0.5" stroke="grey" fill="grey"/>
   </g>
   <g id="cell217">
  <circle cx="92.2752" cy="275.766" r="5.72661" stroke-width="0.5" stroke="black" fill="grey"/>
   </g>
   <g id="cell219">
  <circle cx="56.9024" cy="118.789" r="3.37954" stroke-width="0.5" stroke="black" fill="grey"/>
   </g>
   <g id="cell222">
  <circle cx="76.567" cy="195.702" r="4.27474" stroke-width="0.5" stroke="black" fill="grey"/>
   </g>
   <g id="cell224">
  <circle cx="77.7521" cy="242.743" r="7.50032" stroke-width="0.5" stroke="black" fill="grey"/>
  <circle cx="77.7521" cy="242.743" r="3.31669" stroke-width="0.5" stroke="grey" fill="grey"/>
   </g>
   <g id="cell225">
  <circle cx="72.9327" cy="259.278" r="4.15834" stroke-width="0.5" stroke="black" fill="grey"/>
   </g>
   <g id="cell228">
  <circle cx="109.452" cy="112.832" r="7.6408" stroke-width="0.5" stroke="black" fill="grey"/>
  <circle cx="109.452" cy="112.832" r="3.6232" stroke-width="0.5" stroke="grey" fill="grey"/>
   </g>
   <g id="cell230">
  <circle cx="137.661" cy="176.637" r="8.39795" stroke-width="0.5" stroke="black" fill="grey"/>
  <circle cx="137.661" cy="176.637" r="5.02706" stroke-width="0.5" stroke="grey" fill="grey"/>
   </g>
   <g id="cell231">
  <circle cx="143.248" cy="221.872" r="6.80272" stroke-width="0.5" stroke="black" fill="grey"/>
  <circle cx="143.248" cy="221.872" r="1.01125" stroke-width="0.5" stroke="grey" fill="grey"/>
   </g>
   <g id="cell233">
  <circle cx="98.2245" cy="236.611" r="6.03406" stroke-width="0.5" stroke="black" fill="grey"/>
   </g>
   <g id="cell235">
  <circle cx="58.6281" cy="270.857" r="6.82421" stroke-width="0.5" stroke="black" fill="grey"/>
  <circle cx="58.6281" cy="270.857" r="1.14695" stroke-width="0.5" stroke="grey" fill="grey"/>
   </g>
   <g id="cell237">
  <circle cx="157.078" cy="140.31" r="3.88887" stroke-width="0.5" stroke="black" fill="grey"/>
   </g>
   <g id="cell241">
  <circle cx="131.814" cy="213.346" r="8.2171" stroke-width="0.5" stroke="black" fill="grey"/>
  <circle cx="131.814" cy="213.346" r="4.71873" stroke-width="0.5" stroke="grey" fill="grey"/>
   </g>
   <g id="cell254">
  <circle cx="186.262" cy="141.851" r="7.26147" stroke-width="0.5" stroke="black" fill="grey"/>
  <circle cx="186.262" cy="141.851" r="2.73398" stroke-width="0.5" stroke="grey" fill="grey"/>
   </g>
   <g id="cell259">
  <circle cx="194.281" cy="303.725" r="7.0658" stroke-width="0.5" stroke="black" fill="grey"/>
  <circle cx="194.281" cy="303.725" r="2.1613" stroke-width="0.5" stroke="grey" fill="grey"/>
   </g>
   <g id="cell264">
  <circle cx="214.32" cy="276.361" r="5.39287" stroke-width="0.5" stroke="black" fill="grey"/>
   </g>
   <g id="cell267">
  <circle cx="61.1883" cy="80.7093" r="8.38715" stroke-width="0.5" stroke="black" fill="grey"/>
  <circle cx="61.1883" cy="80.7093" r="5.00899" stroke-width="0.5" stroke="grey" fill="grey"/>
   </g>
   <g id="cell270">
  <circle cx="47.7606" cy="234.298" r="7.65645" stroke-width="0.5" stroke="black" fill="grey"/>
  <circle cx="47.7606" cy="234.298" r="3.65609" stroke-width="0.5" stroke="grey" fill="grey"/>
   </g>
   <g id="cell277">
  <circle cx="79.4387" cy="255.335" r="5.81953" stroke-width="0.5" stroke="black" fill="grey"/>
   </g>
   <g id="cell283">
  <circle cx="95.615" cy="204.594" r="8.1244" stroke-width="0.5" stroke="black" fill="grey"/>
  <circle cx="95.615" cy="204.594" r="4.55539" stroke-width="0.5" stroke="grey" fill="grey"/>
   </g>
   <g id="cell286">
  <circle cx="98.9796" cy="132.988" r="8.40499" stroke-width="0.5" stroke="black" fill="grey"/>
  <circle cx="98.9796" cy="132.988" r="5.0388" stroke-width="0.5" stroke="grey" fill="grey"/>
   </g>
   <g id="cell290">
  <circle cx="107.124" cy="250.274" r="8.11601" stroke-width="0.5" stroke="black" fill="grey"/>
  <circle cx="107.124" cy="250.274" r="4.5404" stroke-width="0.5" stroke="grey" fill="grey"/>
   </g>
   <g id="cell292">
  <circle cx="62.1965" cy="239.275" r="8.29444" stroke-width="0.5" stroke="black" fill="grey"/>
  <circle cx="62.1965" cy="239.275" r="4.85216" stroke-width="0.5" stroke="grey" fill="grey"/>
   </g>
   <g id="cell296">
  <circle cx="130.118" cy="159.179" r="7.6823" stroke-width="0.5" stroke="black" fill="grey"/>
  <circle cx="130.118" cy="159.179" r="3.70991" stroke-width="0.5" stroke="grey" fill="grey"/>
   </g>
   <g id="cell299">
  <circle cx="169.584" cy="225.996" r="5.94577" stroke-width="0.5" stroke="black" fill="grey"/>
   </g>
   <g id="cell305">
  <circle cx="163.354" cy="179.843" r="3.27918" stroke-width="0.5" stroke="black" fill="grey"/>
   </g>
   <g id="cell306">
  <circle cx="118.175" cy="207.6" r="7.67593" stroke-width="0.5" stroke="black" fill="grey"/>
  <circle cx="118.175" cy="207.6" r="3.6967" stroke-width="0.5" stroke="grey" fill="grey"/>
   </g>
   <g id="cell314">
  <circle cx="149.265" cy="208.793" r="8.32593" stroke-width="0.5" stroke="black" fill="grey"/>
  <circle cx="149.265" cy="208.793" r="4.90579" stroke-width="0.5" stroke="grey" fill="grey"/>
   </g>
   <g id="cell316">
  <circle cx="183.487" cy="265.492" r="7.99578" stroke-width="0.5" stroke="black" fill="grey"/>
  <circle cx="183.487" cy="265.492" r="4.32183" stroke-width="0.5" stroke="grey" fill="grey"/>
   </g>
   <g id="cell318">
  <circle cx="165.631" cy="301.87" r="7.83914" stroke-width="0.5" stroke="black" fill="grey"/>
  <circle cx="165.631" cy="301.87" r="4.02464" stroke-width="0.5" stroke="grey" fill="grey"/>
   </g>
   <g id="cell324">
  <circle cx="180.579" cy="204.431" r="6.55634" stroke-width="0.5" stroke="black" fill="grey"/>
   </g>
   <g id="cell332">
  <circle cx="210.994" cy="248.081" r="4.475" stroke-width="0.5" stroke="black" fill="grey"/>
   </g>
   <g id="cell334">
  <circle cx="161.817" cy="210.572" r="5.74488" stroke-width="0.5" stroke="black" fill="grey"/>
   </g>
   <g id="cell350">
  <circle cx="90.4008" cy="161.789" r="8.2759" stroke-width="0.5" stroke="black" fill="grey"/>
  <circle cx="90.4008" cy="161.789" r="4.8204" stroke-width="0.5" stroke="grey" fill="grey"/>
   </g>
   <g id="cell382">
  <circle cx="117.07" cy="187.757" r="2.83356" stroke-width="0.5" stroke="black" fill="grey"/>
   </g>
   <g id="cell390">
  <circle cx="184.175" cy="176.968" r="2.27418" stroke-width="0.5" stroke="black" fill="grey"/>
   </g>
   <g id="cell414">
  <circle cx="74.6866" cy="159.081" r="5.99179" stroke-width="0.5" stroke="black" fill="grey"/>
   </g>
   <g id="cell441">
  <circle cx="168.296" cy="265.508" r="8.26292" stroke-width="0.5" stroke="black" fill="grey"/>
  <circle cx="168.296" cy="265.508" r="4.79807" stroke-width="0.5" stroke="grey" fill="grey"/>
   </g>
   <g id="cell569">
  <circle cx="244.665" cy="116.609" r="5.73901" stroke-width="0.5" stroke="black" fill="red"/>
   </g>
   <g id="cell621">
  <circle cx="207.027" cy="215.003" r="6.60281" stroke-width="0.5" stroke="black" fill="red"/>
   </g>
   <g id="cell623">
  <circle cx="221.204" cy="163.743" r="6.37391" stroke-width="0.5" stroke="black" fill="red"/>
   </g>
   <g id="cell629">
  <circle cx="240.885" cy="140.718" r="8.38807" stroke-width="0.5" stroke="black" fill="red"/>
  <circle cx="240.885" cy="140.718" r="5.01053" stroke-width="0.5" stroke="red" fill="red"/>
   </g>
   <g id="cell653">
  <circle cx="280.358" cy="130.988" r="8.41258" stroke-width="0.5" stroke="black" fill="red"/>
  <circle cx="280.358" cy="130.988" r="5.05145" stroke-width="0.5" stroke="red" fill="red"/>
   </g>
   <g id="cell661">
  <circle cx="311.491" cy="119.595" r="7.85928" stroke-width="0.5" stroke="black" fill="red"/>
  <circle cx="311.491" cy="119.595" r="4.06373" stroke-width="0.5" stroke="red" fill="red"/>
   </g>
   <g id="cell671">
  <circle cx="313.069" cy="175.476" r="6.86304" stroke-width="0.5" stroke="black" fill="red"/>
  <circle cx="313.069" cy="175.476" r="1.35906" stroke-width="0.5" stroke="red" fill="red"/>
   </g>
   <g id="cell676">
  <circle cx="322.408" cy="281.154" r="7.98726" stroke-width="0.5" stroke="black" fill="red"/>
  <circle cx="322.408" cy="281.154" r="4.30605" stroke-width="0.5" stroke="red" fill="red"/>
   </g>
   <g id="cell687">
  <circle cx="216.05" cy="153.975" r="5.76897" stroke-width="0.5" stroke="black" fill="red"/>
   </g>
   <g id="cell692">
  <circle cx="229.579" cy="239.847" r="7.6266" stroke-width="0.5" stroke="black" fill="red"/>
  <circle cx="229.579" cy="239.847" r="3.59314" stroke-width="0.5" stroke="red" fill="red"/>
   </g>
   <g id="cell693">
  <circle cx="225.256" cy="141.088" r="8.0216" stroke-width="0.5" stroke="black" fill="red"/>
  <circle cx="225.256" cy="141.088" r="4.36941" stroke-width="0.5" stroke="red" fill="red"/>
   </g>
   <g id="cell694">
  <circle cx="236.924" cy="165.675" r="7.94661" stroke-width="0.5" stroke="black" fill="red"/>
  <circle cx="236.924" cy="165.675" r="4.23017" stroke-width="0.5" stroke="red" fill="red"/>
   </g>
   <g id="cell695">
  <circle cx="230.995" cy="184.961" r="8.22652" stroke-width="0.5" stroke="black" fill="red"/>
  <circle cx="230.995" cy="184.961" r="4.73512" stroke-width="0.5" stroke="red" fill="red"/>
   </g>
   <g id="cell697">
  <circle cx="237.699" cy="215.483" r="7.50991" stroke-width="0.5" stroke="black" fill="red"/>
  <circle cx="237.699" cy="215.483" r="3.33832" stroke-width="0.5" stroke="red" fill="red"/>
   </g>
   <g id="cell700">
  <circle cx="232.709" cy="153.822" r="7.29286" stroke-width="0.5" stroke="black" fill="red"/>
  <circle cx="232.709" cy="153.822" r="2.81628" stroke-width="0.5" stroke="red" fill="red"/>
   </g>
   <g id="cell702">
  <circle cx="254.954" cy="173.569" r="8.32523" stroke-width="0.5" stroke="black" fill="red"/>
  <circle cx="254.954" cy="173.569" r="4.9046" stroke-width="0.5" stroke="red" fill="red"/>
   </g>
   <g id="cell703">
  <circle cx="246.463" cy="194.037" r="7.57161" stroke-width="0.5" stroke="black" fill="red"/>
  <circle cx="246.463" cy="194.037" r="3.4749" stroke-width="0.5" stroke="red" fill="red"/>
   </g>
   <g id="cell704">
  <circle cx="252.096" cy="208.937" r="7.66492" stroke-width="0.5" stroke="black" fill="red"/>
  <circle cx="252.096" cy="208.937" r="3.67379" stroke-width="0.5" stroke="red" fill="red"/>
   </g>
   <g id="cell706">
  <circle cx="249.05" cy="250.855" r="8.40939" stroke-width="0.5" stroke="black" fill="red"/>
  <circle cx="249.05" cy="250.855" r="5.04615" stroke-width="0.5" stroke="red" fill="red"/>
   </g>
   <g id="cell709">
  <circle cx="258.197" cy="141.229" r="6.25864" stroke-width="0.5" stroke="black" fill="red"/>
   </g>
   <g id="cell711">
  <circle cx="268.647" cy="187.775" r="6.3794" stroke-width="0.5" stroke="black" fill="red"/>
   </g>
   <g id="cell712">
  <circle cx="263.233" cy="200.761" r="7.95223" stroke-width="0.5" stroke="black" fill="red"/>
  <circle cx="263.233" cy="200.761" r="4.24072" stroke-width="0.5" stroke="red" fill="red"/>
   </g>
   <g id="cell713">
  <circle cx="265.217" cy="216.071" r="8.39219" stroke-width="0.5" stroke="black" fill="red"/>
  <circle cx="265.217" cy="216.071" r="5.01742" stroke-width="0.5" stroke="red" fill="red"/>
   </g>
   <g id="cell715">
  <circle cx="264.917" cy="243.349" r="7.21287" stroke-width="0.5" stroke="black" fill="red"/>
  <circle cx="264.917" cy="243.349" r="2.60215" stroke-width="0.5" stroke="red" fill="red"/>
   </g>
   <g id="cell717">
  <circle cx="256.591" cy="120.994" r="6.98506" stroke-width="0.5" stroke="black" fill="red"/>
  <circle cx="256.591" cy="120.994" r="1.88062" stroke-width="0.5" stroke="red" fill="red"/>
   </g>
   <g id="cell718">
  <circle cx="285.876" cy="147.014" r="7.84026" stroke-width="0.5" stroke="black" fill="red"/>
  <circle cx="285.876" cy="147.014" r="4.02684" stroke-width="0.5" stroke="red" fill="red"/>
   </g>
   <g id="cell719">
  <circle cx="283.225" cy="183.025" r="8.23683" stroke-width="0.5" stroke="black" fill="red"/>
  <circle cx="283.225" cy="183.025" r="4.75301" stroke-width="0.5" stroke="red" fill="red"/>
   </g>
   <g id="cell720">
  <circle cx="278.415" cy="196.157" r="6.64753" stroke-width="0.5" stroke="black" fill="red"/>
   </g>
   <g id="cell721">
  <circle cx="281.121" cy="211.749" r="8.26323" stroke-width="0.5" stroke="black" fill="red"/>
  <circle cx="281.121" cy="211.749" r="4.79861" stroke-width="0.5" stroke="red" fill="red"/>
   </g>
   <g id="cell722">
  <circle cx="279.388" cy="228.252" r="6.75649" stroke-width="0.5" stroke="black" fill="red"/>
  <circle cx="279.388" cy="228.252" r="0.629154" stroke-width="0.5" stroke="red" fill="red"/>
   </g>
   <g id="cell723">
  <circle cx="281.092" cy="247.445" r="8.41234" stroke-width="0.5" stroke="black" fill="red"/>
  <circle cx="281.092" cy="247.445" r="5.05106" stroke-width="0.5" stroke="red" fill="red"/>
   </g>
   <g id="cell724">
  <circle cx="275.686" cy="264.723" r="8.41036" stroke-width="0.5" stroke="black" fill="red"/>
  <circle cx="275.686" cy="264.723" r="5.04775" stroke-width="0.5" stroke="red" fill="red"/>
   </g>
   <g id="cell727">
  <circle cx="294.058" cy="161.356" r="8.32412" stroke-width="0.5" stroke="black" fill="red"/>
  <circle cx="294.058" cy="161.356" r="4.90272" stroke-width="0.5" stroke="red" fill="red"/>
   </g>
   <g id="cell728">
  <circle cx="297.551" cy="187.906" r="8.40016" stroke-width="0.5" stroke="black" fill="red"/>
  <circle cx="297.551" cy="187.906" r="5.03075" stroke-width="0.5" stroke="red" fill="red"/>
   </g>
   <g id="cell729">
  <circle cx="295.26" cy="203.713" r="8.40179" stroke-width="0.5" stroke="black" fill="red"/>
  <circle cx="295.26" cy="203.713" r="5.03347" stroke-width="0.5" stroke="red" fill="red"/>
   </g>
   <g id="cell730">
  <circle cx="294.09" cy="220.174" r="8.40033" stroke-width="0.5" stroke="black" fill="red"/>
  <circle cx="294.09" cy="220.174" r="5.03103" stroke-width="0.5" stroke="red" fill="red"/>
   </g>
   <g id="cell731">
  <circle cx="293.221" cy="235.775" r="8.13143" stroke-width="0.5" stroke="black" fill="red"/>
  <circle cx="293.221" cy="235.775" r="4.56792" stroke-width="0.5" stroke="red" fill="red"/>
   </g>
   <g id="cell732">
  <circle cx="292.344" cy="255.692" r="6.12743" stroke-width="0.5" stroke="black" fill="red"/>
   </g>
   <g id="cell733">
  <circle cx="291.357" cy="272.047" r="6.915" stroke-width="0.5" stroke="black" fill="red"/>
  <circle cx="291.357" cy="272.047" r="1.6009" stroke-width="0.5" stroke="red" fill="red"/>
   </g>
   <g id="cell734">
  <circle cx="296.75" cy="124.007" r="8.41016" stroke-width="0.5" stroke="black" fill="red"/>
  <circle cx="296.75" cy="124.007" r="5.04743" stroke-width="0.5" stroke="red" fill="red"/>
   </g>
   <g id="cell736">
  <circle cx="303.803" cy="172.256" r="5.21474" stroke-width="0.5" stroke="black" fill="red"/>
   </g>
   <g id="cell737">
  <circle cx="313.55" cy="189.609" r="7.87969" stroke-width="0.5" stroke="black" fill="red"/>
  <circle cx="313.55" cy="189.609" r="4.10306" stroke-width="0.5" stroke="red" fill="red"/>
   </g>
   <g id="cell738">
  <circle cx="307.848" cy="212.771" r="8.27008" stroke-width="0.5" stroke="black" fill="red"/>
  <circle cx="307.848" cy="212.771" r="4.8104" stroke-width="0.5" stroke="red" fill="red"/>
   </g>
   <g id="cell739">
  <circle cx="306.749" cy="228.354" r="6.53254" stroke-width="0.5" stroke="black" fill="red"/>
   </g>
   <g id="cell740">
  <circle cx="309.882" cy="249.033" r="6.13248" stroke-width="0.5" stroke="black" fill="red"/>
   </g>
   <g id="cell741">
  <circle cx="309.656" cy="269.735" r="5.45787" stroke-width="0.5" stroke="black" fill="red"/>
   </g>
   <g id="cell742">
  <circle cx="319.977" cy="152.731" r="8.32193" stroke-width="0.5" stroke="black" fill="red"/>
  <circle cx="319.977" cy="152.731" r="4.899" stroke-width="0.5" stroke="red" fill="red"/>
   </g>
   <g id="cell743">
  <circle cx="330.494" cy="168.297" r="7.75175" stroke-width="0.5" stroke="black" fill="red"/>
  <circle cx="330.494" cy="168.297" r="3.85166" stroke-width="0.5" stroke="red" fill="red"/>
   </g>
   <g id="cell745">
  <circle cx="320.421" cy="202.891" r="7.74475" stroke-width="0.5" stroke="black" fill="red"/>
  <circle cx="320.421" cy="202.891" r="3.83756" stroke-width="0.5" stroke="red" fill="red"/>
   </g>
   <g id="cell746">
  <circle cx="321.076" cy="220.566" r="6.89653" stroke-width="0.5" stroke="black" fill="red"/>
  <circle cx="321.076" cy="220.566" r="1.51913" stroke-width="0.5" stroke="red" fill="red"/>
   </g>
   <g id="cell747">
  <circle cx="325.127" cy="240.077" r="7.92074" stroke-width="0.5" stroke="black" fill="red"/>
  <circle cx="325.127" cy="240.077" r="4.18137" stroke-width="0.5" stroke="red" fill="red"/>
   </g>
   <g id="cell751">
  <circle cx="341.668" cy="193.42" r="8.41147" stroke-width="0.5" stroke="black" fill="red"/>
  <circle cx="341.668" cy="193.42" r="5.04961" stroke-width="0.5" stroke="red" fill="red"/>
   </g>
   <g id="cell752">
  <circle cx="335.526" cy="219.124" r="7.8745" stroke-width="0.5" stroke="black" fill="red"/>
  <circle cx="335.526" cy="219.124" r="4.0931" stroke-width="0.5" stroke="red" fill="red"/>
   </g>
   <g id="cell753">
  <circle cx="361.528" cy="218.209" r="7.45003" stroke-width="0.5" stroke="black" fill="red"/>
  <circle cx="361.528" cy="218.209" r="3.20134" stroke-width="0.5" stroke="red" fill="red"/>
   </g>
   <g id="cell754">
  <circle cx="342.61" cy="240.841" r="7.65106" stroke-width="0.5" stroke="black" fill="red"/>
  <circle cx="342.61" cy="240.841" r="3.64478" stroke-width="0.5" stroke="red" fill="red"/>
   </g>
   <g id="cell760">
  <circle cx="205.107" cy="232.667" r="8.01974" stroke-width="0.5" stroke="black" fill="red"/>
  <circle cx="205.107" cy="232.667" r="4.366" stroke-width="0.5" stroke="red" fill="red"/>
   </g>
   <g id="cell764">
  <circle cx="223.784" cy="215.948" r="8.20038" stroke-width="0.5" stroke="black" fill="red"/>
  <circle cx="223.784" cy="215.948" r="4.68955" stroke-width="0.5" stroke="red" fill="red"/>
   </g>
   <g id="cell767">
  <circle cx="232.275" cy="127.471" r="8.33196" stroke-width="0.5" stroke="black" fill="red"/>
  <circle cx="232.275" cy="127.471" r="4.91601" stroke-width="0.5" stroke="red" fill="red"/>
   </g>
   <g id="cell771">
  <circle cx="239.909" cy="202.544" r="3.6777" stroke-width="0.5" stroke="black" fill="red"/>
   </g>
   <g id="cell777">
  <circle cx="259.915" cy="160.602" r="2.86515" stroke-width="0.5" stroke="black" fill="red"/>
   </g>
   <g id="cell780">
  <circle cx="251.558" cy="224.984" r="8.32527" stroke-width="0.5" stroke="black" fill="red"/>
  <circle cx="251.558" cy="224.984" r="4.90467" stroke-width="0.5" stroke="red" fill="red"/>
   </g>
   <g id="cell782">
  <circle cx="262.633" cy="258.356" r="6.82665" stroke-width="0.5" stroke="black" fill="red"/>
  <circle cx="262.633" cy="258.356" r="1.16142" stroke-width="0.5" stroke="red" fill="red"/>
   </g>
   <g id="cell784">
  <circle cx="269.623" cy="146.794" r="7.94797" stroke-width="0.5" stroke="black" fill="red"/>
  <circle cx="269.623" cy="146.794" r="4.23271" stroke-width="0.5" stroke="red" fill="red"/>
   </g>
   <g id="cell785">
  <circle cx="277.922" cy="164.622" r="7.84534" stroke-width="0.5" stroke="black" fill="red"/>
  <circle cx="277.922" cy="164.622" r="4.03671" stroke-width="0.5" stroke="red" fill="red"/>
   </g>
   <g id="cell800">
  <circle cx="318.817" cy="90.0879" r="7.11998" stroke-width="0.5" stroke="black" fill="red"/>
  <circle cx="318.817" cy="90.0879" r="2.33234" stroke-width="0.5" stroke="red" fill="red"/>
   </g>
   <g id="cell801">
  <circle cx="300.789" cy="145.788" r="3.37091" stroke-width="0.5" stroke="black" fill="red"/>
   </g>
   <g id="cell807">
  <circle cx="300.122" cy="258.506" r="4.46524" stroke-width="0.5" stroke="black" fill="red"/>
   </g>
   <g id="cell814">
  <circle cx="315.042" cy="228.538" r="2.72068" stroke-width="0.5" stroke="black" fill="red"/>
   </g>
   <g id="cell884">
  <circle cx="344.156" cy="161.664" r="7.76688" stroke-width="0.5" stroke="black" fill="red"/>
  <circle cx="344.156" cy="161.664" r="3.88202" stroke-width="0.5" stroke="red" fill="red"/>
   </g>
  </g>
 </g>
  <rect x="190" y="414" width="200" height="4" stroke-width="0.8" stroke="rgb(255,255,255)" fill="rgb(0,0,0)"/>
  <text x="192.5" y="411.5"
   font-family="Arial" font-size="10" fill="black" >
   200 &#956;m
  </text>
  <text x="10" y="418"
   font-family="Arial" font-size="7.5" fill="black" >
   0 days, 0 hours, 5 minutes, and 8.2318 seconds
  </text>
  <rect x="0" y="28" width="400" height="400" stroke-width="0.8" stroke="rgb(0,0,0)" fill="none"/>
</svg>
