<?xml version="1.0" encoding="UTF-8" standalone="no"?>
<!-- Created with PhysiCell (http://PhysiCell.MathCancer.org/) -->
<svg 
 xmlns:dc="http://purl.org/dc/elements/1.1/" 
 xmlns:cc="http://creativecommons.org/ns#" 
 xmlns:rdf="http://www.w3.org/1999/02/22-rdf-syntax-ns#" 
 xmlns:svg="http://www.w3.org/2000/svg" 
 xmlns="http://www.w3.org/2000/svg" 
 version="1.1" 
 width="400" 
 height="428" 
 id="svg2">
  <rect x="0" y="0" width="400" height="428" stroke-width="0.8" stroke="white" fill="white"/>
  <text x="5" y="12"
   font-family="Arial" font-size="10" fill="black" >
   Current time: 0 days, 6 hours, and 0.00 minutes, z = 0.00 &#956;m
  </text>
  <text x="5" y="23"
   font-family="Arial" font-size="9.5" fill="black" >
   978 agents
  </text>
 <g id="tissue" 
    transform="translate(0,428) scale(1,-1)">
  <g id="ECM">
  </g>
  <g id="cells">
   <g id="cell138">
  <circle cx="77.472" cy="229.746" r="7.108" stroke-width="0.5" stroke="black" fill="grey"/>
  <circle cx="77.472" cy="229.746" r="2.29551" stroke-width="0.5" stroke="grey" fill="grey"/>
   </g>
   <g id="cell154">
  <circle cx="106.013" cy="262.487" r="7.71015" stroke-width="0.5" stroke="black" fill="grey"/>
  <circle cx="106.013" cy="262.487" r="3.76724" stroke-width="0.5" stroke="grey" fill="grey"/>
   </g>
   <g id="cell167">
  <circle cx="130.761" cy="185.422" r="5.35267" stroke-width="0.5" stroke="black" fill="grey"/>
   </g>
   <g id="cell199">
  <circle cx="65.208" cy="169.537" r="1.36862" stroke-width="0.5" stroke="black" fill="grey"/>
   </g>
   <g id="cell201">
  <circle cx="68.9333" cy="216.009" r="7.92796" stroke-width="0.5" stroke="black" fill="grey"/>
  <circle cx="68.9333" cy="216.009" r="4.19502" stroke-width="0.5" stroke="grey" fill="grey"/>
   </g>
   <g id="cell202">
  <circle cx="58.6906" cy="230.37" r="8.18827" stroke-width="0.5" stroke="black" fill="grey"/>
  <circle cx="58.6906" cy="230.37" r="4.66834" stroke-width="0.5" stroke="grey" fill="grey"/>
   </g>
   <g id="cell203">
  <circle cx="48.9909" cy="252.813" r="7.94744" stroke-width="0.5" stroke="black" fill="grey"/>
  <circle cx="48.9909" cy="252.813" r="4.23172" stroke-width="0.5" stroke="grey" fill="grey"/>
   </g>
   <g id="cell204">
  <circle cx="70.2486" cy="139.083" r="7.83027" stroke-width="0.5" stroke="black" fill="grey"/>
  <circle cx="70.2486" cy="139.083" r="4.00734" stroke-width="0.5" stroke="grey" fill="grey"/>
   </g>
   <g id="cell205">
  <circle cx="82.7146" cy="169.516" r="8.38914" stroke-width="0.5" stroke="black" fill="grey"/>
  <circle cx="82.7146" cy="169.516" r="5.01232" stroke-width="0.5" stroke="grey" fill="grey"/>
   </g>
   <g id="cell206">
  <circle cx="77.0916" cy="184.025" r="8.39865" stroke-width="0.5" stroke="black" fill="grey"/>
  <circle cx="77.0916" cy="184.025" r="5.02822" stroke-width="0.5" stroke="grey" fill="grey"/>
   </g>
   <g id="cell207">
  <circle cx="72.7468" cy="199.08" r="7.98908" stroke-width="0.5" stroke="black" fill="grey"/>
  <circle cx="72.7468" cy="199.08" r="4.30942" stroke-width="0.5" stroke="grey" fill="grey"/>
   </g>
   <g id="cell208">
  <circle cx="85.4024" cy="214.901" r="7.35311" stroke-width="0.5" stroke="black" fill="grey"/>
  <circle cx="85.4024" cy="214.901" r="2.96883" stroke-width="0.5" stroke="grey" fill="grey"/>
   </g>
   <g id="cell209">
  <circle cx="75.1643" cy="244.273" r="6.28516" stroke-width="0.5" stroke="black" fill="grey"/>
   </g>
   <g id="cell213">
  <circle cx="101.961" cy="169.506" r="8.1243" stroke-width="0.5" stroke="black" fill="grey"/>
  <circle cx="101.961" cy="169.506" r="4.55522" stroke-width="0.5" stroke="grey" fill="grey"/>
   </g>
   <g id="cell214">
  <circle cx="94.4191" cy="189.127" r="7.59961" stroke-width="0.5" stroke="black" fill="grey"/>
  <circle cx="94.4191" cy="189.127" r="3.5355" stroke-width="0.5" stroke="grey" fill="grey"/>
   </g>
   <g id="cell215">
  <circle cx="97.5175" cy="213.273" r="5.35993" stroke-width="0.5" stroke="black" fill="grey"/>
   </g>
   <g id="cell216">
  <circle cx="95.0437" cy="227.699" r="4.06555" stroke-width="0.5" stroke="black" fill="grey"/>
   </g>
   <g id="cell217">
  <circle cx="96.7116" cy="250.363" r="4.18122" stroke-width="0.5" stroke="black" fill="grey"/>
   </g>
   <g id="cell218">
  <circle cx="94.7021" cy="275.076" r="7.89381" stroke-width="0.5" stroke="black" fill="grey"/>
  <circle cx="94.7021" cy="275.076" r="4.13013" stroke-width="0.5" stroke="grey" fill="grey"/>
   </g>
   <g id="cell219">
  <circle cx="102.804" cy="128.114" r="7.04098" stroke-width="0.5" stroke="black" fill="grey"/>
  <circle cx="102.804" cy="128.114" r="2.07873" stroke-width="0.5" stroke="grey" fill="grey"/>
   </g>
   <g id="cell220">
  <circle cx="117.722" cy="144.663" r="8.37818" stroke-width="0.5" stroke="black" fill="grey"/>
  <circle cx="117.722" cy="144.663" r="4.99395" stroke-width="0.5" stroke="grey" fill="grey"/>
   </g>
   <g id="cell221">
  <circle cx="115.136" cy="167.862" r="4.86133" stroke-width="0.5" stroke="black" fill="grey"/>
   </g>
   <g id="cell222">
  <circle cx="109.344" cy="182.871" r="8.23999" stroke-width="0.5" stroke="black" fill="grey"/>
  <circle cx="109.344" cy="182.871" r="4.75849" stroke-width="0.5" stroke="grey" fill="grey"/>
   </g>
   <g id="cell223">
  <circle cx="105.745" cy="200.57" r="7.99457" stroke-width="0.5" stroke="black" fill="grey"/>
  <circle cx="105.745" cy="200.57" r="4.31959" stroke-width="0.5" stroke="grey" fill="grey"/>
   </g>
   <g id="cell225">
  <circle cx="105.564" cy="237.103" r="8.37006" stroke-width="0.5" stroke="black" fill="grey"/>
  <circle cx="105.564" cy="237.103" r="4.98032" stroke-width="0.5" stroke="grey" fill="grey"/>
   </g>
   <g id="cell226">
  <circle cx="110.381" cy="253.027" r="5.30891" stroke-width="0.5" stroke="black" fill="grey"/>
   </g>
   <g id="cell227">
  <circle cx="109.716" cy="280.777" r="8.28454" stroke-width="0.5" stroke="black" fill="grey"/>
  <circle cx="109.716" cy="280.777" r="4.83522" stroke-width="0.5" stroke="grey" fill="grey"/>
   </g>
   <g id="cell228">
  <circle cx="131.403" cy="138.008" r="6.52876" stroke-width="0.5" stroke="black" fill="grey"/>
   </g>
   <g id="cell229">
  <circle cx="128.617" cy="155.734" r="8.12492" stroke-width="0.5" stroke="black" fill="grey"/>
  <circle cx="128.617" cy="155.734" r="4.55632" stroke-width="0.5" stroke="grey" fill="grey"/>
   </g>
   <g id="cell230">
  <circle cx="129.203" cy="170.408" r="8.0184" stroke-width="0.5" stroke="black" fill="grey"/>
  <circle cx="129.203" cy="170.408" r="4.36353" stroke-width="0.5" stroke="grey" fill="grey"/>
   </g>
   <g id="cell231">
  <circle cx="121.594" cy="196.227" r="8.15803" stroke-width="0.5" stroke="black" fill="grey"/>
  <circle cx="121.594" cy="196.227" r="4.6151" stroke-width="0.5" stroke="grey" fill="grey"/>
   </g>
   <g id="cell232">
  <circle cx="117.068" cy="213.657" r="6.90171" stroke-width="0.5" stroke="black" fill="grey"/>
  <circle cx="117.068" cy="213.657" r="1.54249" stroke-width="0.5" stroke="grey" fill="grey"/>
   </g>
   <g id="cell233">
  <circle cx="121.128" cy="228.784" r="6.502" stroke-width="0.5" stroke="black" fill="grey"/>
   </g>
   <g id="cell234">
  <circle cx="128.067" cy="250.082" r="8.13111" stroke-width="0.5" stroke="black" fill="grey"/>
  <circle cx="128.067" cy="250.082" r="4.56735" stroke-width="0.5" stroke="grey" fill="grey"/>
   </g>
   <g id="cell235">
  <circle cx="119.776" cy="263.715" r="8.40181" stroke-width="0.5" stroke="black" fill="grey"/>
  <circle cx="119.776" cy="263.715" r="5.0335" stroke-width="0.5" stroke="grey" fill="grey"/>
   </g>
   <g id="cell236">
  <circle cx="136.52" cy="121.257" r="5.54454" stroke-width="0.5" stroke="black" fill="grey"/>
   </g>
   <g id="cell237">
  <circle cx="143.143" cy="150.886" r="8.3654" stroke-width="0.5" stroke="black" fill="grey"/>
  <circle cx="143.143" cy="150.886" r="4.97249" stroke-width="0.5" stroke="grey" fill="grey"/>
   </g>
   <g id="cell238">
  <circle cx="141.222" cy="164.984" r="2.05997" stroke-width="0.5" stroke="black" fill="grey"/>
   </g>
   <g id="cell239">
  <circle cx="142.797" cy="181.881" r="8.0104" stroke-width="0.5" stroke="black" fill="grey"/>
  <circle cx="142.797" cy="181.881" r="4.34882" stroke-width="0.5" stroke="grey" fill="grey"/>
   </g>
   <g id="cell241">
  <circle cx="132.881" cy="214.562" r="7.09277" stroke-width="0.5" stroke="black" fill="grey"/>
  <circle cx="132.881" cy="214.562" r="2.24791" stroke-width="0.5" stroke="grey" fill="grey"/>
   </g>
   <g id="cell242">
  <circle cx="142.145" cy="229.186" r="4.71501" stroke-width="0.5" stroke="black" fill="grey"/>
   </g>
   <g id="cell243">
  <circle cx="146.421" cy="254.728" r="6.66023" stroke-width="0.5" stroke="black" fill="grey"/>
   </g>
   <g id="cell245">
  <circle cx="151.881" cy="135.314" r="8.40358" stroke-width="0.5" stroke="black" fill="grey"/>
  <circle cx="151.881" cy="135.314" r="5.03645" stroke-width="0.5" stroke="grey" fill="grey"/>
   </g>
   <g id="cell246">
  <circle cx="157.571" cy="153.231" r="1.82942" stroke-width="0.5" stroke="black" fill="grey"/>
   </g>
   <g id="cell247">
  <circle cx="154.882" cy="176.131" r="7.57919" stroke-width="0.5" stroke="black" fill="grey"/>
  <circle cx="154.882" cy="176.131" r="3.49139" stroke-width="0.5" stroke="grey" fill="grey"/>
   </g>
   <g id="cell248">
  <circle cx="159.52" cy="196.269" r="8.28911" stroke-width="0.5" stroke="black" fill="grey"/>
  <circle cx="159.52" cy="196.269" r="4.84304" stroke-width="0.5" stroke="grey" fill="grey"/>
   </g>
   <g id="cell250">
  <circle cx="157.679" cy="231.973" r="8.2316" stroke-width="0.5" stroke="black" fill="grey"/>
  <circle cx="157.679" cy="231.973" r="4.74394" stroke-width="0.5" stroke="grey" fill="grey"/>
   </g>
   <g id="cell252">
  <circle cx="159.458" cy="265.623" r="5.73102" stroke-width="0.5" stroke="black" fill="grey"/>
   </g>
   <g id="cell253">
  <circle cx="173.914" cy="149.575" r="5.69972" stroke-width="0.5" stroke="black" fill="grey"/>
   </g>
   <g id="cell254">
  <circle cx="184.195" cy="162.992" r="6.68411" stroke-width="0.5" stroke="black" fill="grey"/>
   </g>
   <g id="cell255">
  <circle cx="169.767" cy="184.974" r="8.41242" stroke-width="0.5" stroke="black" fill="grey"/>
  <circle cx="169.767" cy="184.974" r="5.05119" stroke-width="0.5" stroke="grey" fill="grey"/>
   </g>
   <g id="cell256">
  <circle cx="171.978" cy="204.034" r="8.277" stroke-width="0.5" stroke="black" fill="grey"/>
  <circle cx="171.978" cy="204.034" r="4.82228" stroke-width="0.5" stroke="grey" fill="grey"/>
   </g>
   <g id="cell257">
  <circle cx="162.873" cy="217.792" r="8.36021" stroke-width="0.5" stroke="black" fill="grey"/>
  <circle cx="162.873" cy="217.792" r="4.96375" stroke-width="0.5" stroke="grey" fill="grey"/>
   </g>
   <g id="cell258">
  <circle cx="174.874" cy="232.032" r="7.0856" stroke-width="0.5" stroke="black" fill="grey"/>
  <circle cx="174.874" cy="232.032" r="2.22518" stroke-width="0.5" stroke="grey" fill="grey"/>
   </g>
   <g id="cell260">
  <circle cx="200.169" cy="147.681" r="5.0769" stroke-width="0.5" stroke="black" fill="grey"/>
   </g>
   <g id="cell261">
  <circle cx="183.246" cy="178.774" r="8.29066" stroke-width="0.5" stroke="black" fill="grey"/>
  <circle cx="183.246" cy="178.774" r="4.84569" stroke-width="0.5" stroke="grey" fill="grey"/>
   </g>
   <g id="cell262">
  <circle cx="183.75" cy="193.045" r="4.77068" stroke-width="0.5" stroke="black" fill="grey"/>
   </g>
   <g id="cell263">
  <circle cx="185.787" cy="215.876" r="7.0593" stroke-width="0.5" stroke="black" fill="grey"/>
  <circle cx="185.787" cy="215.876" r="2.13994" stroke-width="0.5" stroke="grey" fill="grey"/>
   </g>
   <g id="cell268">
  <circle cx="53.2231" cy="179.155" r="3.03036" stroke-width="0.5" stroke="black" fill="grey"/>
   </g>
   <g id="cell269">
  <circle cx="55.2622" cy="194.896" r="3.81757" stroke-width="0.5" stroke="black" fill="grey"/>
   </g>
   <g id="cell278">
  <circle cx="99.6601" cy="141.169" r="8.32237" stroke-width="0.5" stroke="black" fill="grey"/>
  <circle cx="99.6601" cy="141.169" r="4.89975" stroke-width="0.5" stroke="grey" fill="grey"/>
   </g>
   <g id="cell284">
  <circle cx="89.1386" cy="239.88" r="8.20197" stroke-width="0.5" stroke="black" fill="grey"/>
  <circle cx="89.1386" cy="239.88" r="4.69233" stroke-width="0.5" stroke="grey" fill="grey"/>
   </g>
   <g id="cell286">
  <circle cx="116.131" cy="131.313" r="7.09413" stroke-width="0.5" stroke="black" fill="grey"/>
  <circle cx="116.131" cy="131.313" r="2.25219" stroke-width="0.5" stroke="grey" fill="grey"/>
   </g>
   <g id="cell287">
  <circle cx="108.444" cy="154.275" r="7.13234" stroke-width="0.5" stroke="black" fill="grey"/>
  <circle cx="108.444" cy="154.275" r="2.36981" stroke-width="0.5" stroke="grey" fill="grey"/>
   </g>
   <g id="cell290">
  <circle cx="105.35" cy="216.713" r="6.61902" stroke-width="0.5" stroke="black" fill="grey"/>
   </g>
   <g id="cell297">
  <circle cx="124.284" cy="183.33" r="6.62268" stroke-width="0.5" stroke="black" fill="grey"/>
   </g>
   <g id="cell300">
  <circle cx="119.924" cy="239.577" r="5.34276" stroke-width="0.5" stroke="black" fill="grey"/>
   </g>
   <g id="cell303">
  <circle cx="132.313" cy="134.25" r="3.22907" stroke-width="0.5" stroke="black" fill="grey"/>
   </g>
   <g id="cell310">
  <circle cx="137.75" cy="261.251" r="6.85423" stroke-width="0.5" stroke="black" fill="grey"/>
  <circle cx="137.75" cy="261.251" r="1.31382" stroke-width="0.5" stroke="grey" fill="grey"/>
   </g>
   <g id="cell313">
  <circle cx="153.358" cy="166.211" r="4.81123" stroke-width="0.5" stroke="black" fill="grey"/>
   </g>
   <g id="cell315">
  <circle cx="149.23" cy="206.369" r="6.98351" stroke-width="0.5" stroke="black" fill="grey"/>
  <circle cx="149.23" cy="206.369" r="1.87485" stroke-width="0.5" stroke="grey" fill="grey"/>
   </g>
   <g id="cell316">
  <circle cx="150.48" cy="220.693" r="3.89885" stroke-width="0.5" stroke="black" fill="grey"/>
   </g>
   <g id="cell317">
  <circle cx="145.282" cy="237.383" r="3.49488" stroke-width="0.5" stroke="black" fill="grey"/>
   </g>
   <g id="cell318">
  <circle cx="153.382" cy="250.452" r="2.89712" stroke-width="0.5" stroke="black" fill="grey"/>
   </g>
   <g id="cell324">
  <circle cx="177" cy="218.729" r="5.40402" stroke-width="0.5" stroke="black" fill="grey"/>
   </g>
   <g id="cell334">
  <circle cx="192.537" cy="203.019" r="8.02652" stroke-width="0.5" stroke="black" fill="grey"/>
  <circle cx="192.537" cy="203.019" r="4.37845" stroke-width="0.5" stroke="grey" fill="grey"/>
   </g>
   <g id="cell684">
  <circle cx="208.615" cy="179.303" r="8.13768" stroke-width="0.5" stroke="black" fill="red"/>
  <circle cx="208.615" cy="179.303" r="4.57903" stroke-width="0.5" stroke="red" fill="red"/>
   </g>
   <g id="cell685">
  <circle cx="206.245" cy="194.388" r="8.35888" stroke-width="0.5" stroke="black" fill="red"/>
  <circle cx="206.245" cy="194.388" r="4.96151" stroke-width="0.5" stroke="red" fill="red"/>
   </g>
   <g id="cell686">
  <circle cx="205.798" cy="211.197" r="8.1923" stroke-width="0.5" stroke="black" fill="red"/>
  <circle cx="205.798" cy="211.197" r="4.67542" stroke-width="0.5" stroke="red" fill="red"/>
   </g>
   <g id="cell687">
  <circle cx="218.57" cy="157.936" r="7.00842" stroke-width="0.5" stroke="black" fill="red"/>
  <circle cx="218.57" cy="157.936" r="1.96562" stroke-width="0.5" stroke="red" fill="red"/>
   </g>
   <g id="cell688">
  <circle cx="222.198" cy="172.828" r="8.20755" stroke-width="0.5" stroke="black" fill="red"/>
  <circle cx="222.198" cy="172.828" r="4.70208" stroke-width="0.5" stroke="red" fill="red"/>
   </g>
   <g id="cell689">
  <circle cx="221.806" cy="193.6" r="8.39095" stroke-width="0.5" stroke="black" fill="red"/>
  <circle cx="221.806" cy="193.6" r="5.01535" stroke-width="0.5" stroke="red" fill="red"/>
   </g>
   <g id="cell690">
  <circle cx="221.501" cy="209.729" r="4.51914" stroke-width="0.5" stroke="black" fill="red"/>
   </g>
   <g id="cell691">
  <circle cx="223.538" cy="226.545" r="7.16356" stroke-width="0.5" stroke="black" fill="red"/>
  <circle cx="223.538" cy="226.545" r="2.46218" stroke-width="0.5" stroke="red" fill="red"/>
   </g>
   <g id="cell692">
  <circle cx="220.924" cy="244.877" r="8.4127" stroke-width="0.5" stroke="black" fill="red"/>
  <circle cx="220.924" cy="244.877" r="5.05165" stroke-width="0.5" stroke="red" fill="red"/>
   </g>
   <g id="cell693">
  <circle cx="233.855" cy="148.632" r="8.40006" stroke-width="0.5" stroke="black" fill="red"/>
  <circle cx="233.855" cy="148.632" r="5.03057" stroke-width="0.5" stroke="red" fill="red"/>
   </g>
   <g id="cell694">
  <circle cx="234.735" cy="166.288" r="7.0002" stroke-width="0.5" stroke="black" fill="red"/>
  <circle cx="234.735" cy="166.288" r="1.93609" stroke-width="0.5" stroke="red" fill="red"/>
   </g>
   <g id="cell695">
  <circle cx="234.234" cy="184.531" r="7.89902" stroke-width="0.5" stroke="black" fill="red"/>
  <circle cx="234.234" cy="184.531" r="4.14006" stroke-width="0.5" stroke="red" fill="red"/>
   </g>
   <g id="cell696">
  <circle cx="235.79" cy="200.124" r="7.66933" stroke-width="0.5" stroke="black" fill="red"/>
  <circle cx="235.79" cy="200.124" r="3.68298" stroke-width="0.5" stroke="red" fill="red"/>
   </g>
   <g id="cell697">
  <circle cx="236.589" cy="216.351" r="6.82795" stroke-width="0.5" stroke="black" fill="red"/>
  <circle cx="236.589" cy="216.351" r="1.16903" stroke-width="0.5" stroke="red" fill="red"/>
   </g>
   <g id="cell698">
  <circle cx="234.99" cy="236.235" r="8.39456" stroke-width="0.5" stroke="black" fill="red"/>
  <circle cx="234.99" cy="236.235" r="5.02138" stroke-width="0.5" stroke="red" fill="red"/>
   </g>
   <g id="cell699">
  <circle cx="231.973" cy="254.848" r="7.3542" stroke-width="0.5" stroke="black" fill="red"/>
  <circle cx="231.973" cy="254.848" r="2.97151" stroke-width="0.5" stroke="red" fill="red"/>
   </g>
   <g id="cell700">
  <circle cx="247.831" cy="143.685" r="7.17551" stroke-width="0.5" stroke="black" fill="red"/>
  <circle cx="247.831" cy="143.685" r="2.49672" stroke-width="0.5" stroke="red" fill="red"/>
   </g>
   <g id="cell701">
  <circle cx="249.036" cy="160.125" r="8.40064" stroke-width="0.5" stroke="black" fill="red"/>
  <circle cx="249.036" cy="160.125" r="5.03154" stroke-width="0.5" stroke="red" fill="red"/>
   </g>
   <g id="cell702">
  <circle cx="247.985" cy="176.153" r="8.35114" stroke-width="0.5" stroke="black" fill="red"/>
  <circle cx="247.985" cy="176.153" r="4.94845" stroke-width="0.5" stroke="red" fill="red"/>
   </g>
   <g id="cell703">
  <circle cx="248.144" cy="191.89" r="8.37009" stroke-width="0.5" stroke="black" fill="red"/>
  <circle cx="248.144" cy="191.89" r="4.98036" stroke-width="0.5" stroke="red" fill="red"/>
   </g>
   <g id="cell704">
  <circle cx="248.741" cy="207.212" r="8.12694" stroke-width="0.5" stroke="black" fill="red"/>
  <circle cx="248.741" cy="207.212" r="4.55991" stroke-width="0.5" stroke="red" fill="red"/>
   </g>
   <g id="cell705">
  <circle cx="249.645" cy="226.769" r="7.34135" stroke-width="0.5" stroke="black" fill="red"/>
  <circle cx="249.645" cy="226.769" r="2.93957" stroke-width="0.5" stroke="red" fill="red"/>
   </g>
   <g id="cell706">
  <circle cx="249.943" cy="245.456" r="7.77662" stroke-width="0.5" stroke="black" fill="red"/>
  <circle cx="249.943" cy="245.456" r="3.90148" stroke-width="0.5" stroke="red" fill="red"/>
   </g>
   <g id="cell707">
  <circle cx="249.717" cy="261.602" r="7.25666" stroke-width="0.5" stroke="black" fill="red"/>
  <circle cx="249.717" cy="261.602" r="2.72118" stroke-width="0.5" stroke="red" fill="red"/>
   </g>
   <g id="cell708">
  <circle cx="262.823" cy="129.512" r="7.92263" stroke-width="0.5" stroke="black" fill="red"/>
  <circle cx="262.823" cy="129.512" r="4.18495" stroke-width="0.5" stroke="red" fill="red"/>
   </g>
   <g id="cell709">
  <circle cx="262.903" cy="150.085" r="8.36975" stroke-width="0.5" stroke="black" fill="red"/>
  <circle cx="262.903" cy="150.085" r="4.9798" stroke-width="0.5" stroke="red" fill="red"/>
   </g>
   <g id="cell710">
  <circle cx="262.969" cy="167.632" r="8.36516" stroke-width="0.5" stroke="black" fill="red"/>
  <circle cx="262.969" cy="167.632" r="4.97207" stroke-width="0.5" stroke="red" fill="red"/>
   </g>
   <g id="cell711">
  <circle cx="262.175" cy="185.088" r="8.19529" stroke-width="0.5" stroke="black" fill="red"/>
  <circle cx="262.175" cy="185.088" r="4.68064" stroke-width="0.5" stroke="red" fill="red"/>
   </g>
   <g id="cell712">
  <circle cx="262.449" cy="200.743" r="8.34432" stroke-width="0.5" stroke="black" fill="red"/>
  <circle cx="262.449" cy="200.743" r="4.93693" stroke-width="0.5" stroke="red" fill="red"/>
   </g>
   <g id="cell713">
  <circle cx="264.251" cy="219.884" r="7.69649" stroke-width="0.5" stroke="black" fill="red"/>
  <circle cx="264.251" cy="219.884" r="3.73921" stroke-width="0.5" stroke="red" fill="red"/>
   </g>
   <g id="cell714">
  <circle cx="264.331" cy="236.325" r="8.29607" stroke-width="0.5" stroke="black" fill="red"/>
  <circle cx="264.331" cy="236.325" r="4.85494" stroke-width="0.5" stroke="red" fill="red"/>
   </g>
   <g id="cell715">
  <circle cx="265.143" cy="252.109" r="6.5557" stroke-width="0.5" stroke="black" fill="red"/>
   </g>
   <g id="cell716">
  <circle cx="266.063" cy="267.68" r="8.10809" stroke-width="0.5" stroke="black" fill="red"/>
  <circle cx="266.063" cy="267.68" r="4.52623" stroke-width="0.5" stroke="red" fill="red"/>
   </g>
   <g id="cell717">
  <circle cx="277.616" cy="138.316" r="8.09376" stroke-width="0.5" stroke="black" fill="red"/>
  <circle cx="277.616" cy="138.316" r="4.50052" stroke-width="0.5" stroke="red" fill="red"/>
   </g>
   <g id="cell718">
  <circle cx="277.238" cy="158.557" r="8.33842" stroke-width="0.5" stroke="black" fill="red"/>
  <circle cx="277.238" cy="158.557" r="4.92696" stroke-width="0.5" stroke="red" fill="red"/>
   </g>
   <g id="cell719">
  <circle cx="278.702" cy="174.762" r="8.4085" stroke-width="0.5" stroke="black" fill="red"/>
  <circle cx="278.702" cy="174.762" r="5.04466" stroke-width="0.5" stroke="red" fill="red"/>
   </g>
   <g id="cell720">
  <circle cx="276.593" cy="193.253" r="8.33806" stroke-width="0.5" stroke="black" fill="red"/>
  <circle cx="276.593" cy="193.253" r="4.92635" stroke-width="0.5" stroke="red" fill="red"/>
   </g>
   <g id="cell721">
  <circle cx="275.501" cy="208.611" r="8.40407" stroke-width="0.5" stroke="black" fill="red"/>
  <circle cx="275.501" cy="208.611" r="5.03727" stroke-width="0.5" stroke="red" fill="red"/>
   </g>
   <g id="cell722">
  <circle cx="278.77" cy="226.197" r="8.39419" stroke-width="0.5" stroke="black" fill="red"/>
  <circle cx="278.77" cy="226.197" r="5.02076" stroke-width="0.5" stroke="red" fill="red"/>
   </g>
   <g id="cell723">
  <circle cx="278.662" cy="241.979" r="8.28108" stroke-width="0.5" stroke="black" fill="red"/>
  <circle cx="278.662" cy="241.979" r="4.82929" stroke-width="0.5" stroke="red" fill="red"/>
   </g>
   <g id="cell724">
  <circle cx="279.623" cy="258.572" r="8.26571" stroke-width="0.5" stroke="black" fill="red"/>
  <circle cx="279.623" cy="258.572" r="4.80287" stroke-width="0.5" stroke="red" fill="red"/>
   </g>
   <g id="cell725">
  <circle cx="291.728" cy="131.573" r="8.17904" stroke-width="0.5" stroke="black" fill="red"/>
  <circle cx="291.728" cy="131.573" r="4.65213" stroke-width="0.5" stroke="red" fill="red"/>
   </g>
   <g id="cell726">
  <circle cx="291.385" cy="150.26" r="8.26231" stroke-width="0.5" stroke="black" fill="red"/>
  <circle cx="291.385" cy="150.26" r="4.79702" stroke-width="0.5" stroke="red" fill="red"/>
   </g>
   <g id="cell727">
  <circle cx="292.276" cy="168.073" r="8.33393" stroke-width="0.5" stroke="black" fill="red"/>
  <circle cx="292.276" cy="168.073" r="4.91936" stroke-width="0.5" stroke="red" fill="red"/>
   </g>
   <g id="cell728">
  <circle cx="290.577" cy="183.876" r="8.37776" stroke-width="0.5" stroke="black" fill="red"/>
  <circle cx="290.577" cy="183.876" r="4.99325" stroke-width="0.5" stroke="red" fill="red"/>
   </g>
   <g id="cell729">
  <circle cx="291.114" cy="199.533" r="8.40837" stroke-width="0.5" stroke="black" fill="red"/>
  <circle cx="291.114" cy="199.533" r="5.04445" stroke-width="0.5" stroke="red" fill="red"/>
   </g>
   <g id="cell730">
  <circle cx="291.276" cy="215.712" r="8.4108" stroke-width="0.5" stroke="black" fill="red"/>
  <circle cx="291.276" cy="215.712" r="5.04849" stroke-width="0.5" stroke="red" fill="red"/>
   </g>
   <g id="cell731">
  <circle cx="291.908" cy="234.294" r="8.40355" stroke-width="0.5" stroke="black" fill="red"/>
  <circle cx="291.908" cy="234.294" r="5.0364" stroke-width="0.5" stroke="red" fill="red"/>
   </g>
   <g id="cell732">
  <circle cx="292.87" cy="250.132" r="8.18824" stroke-width="0.5" stroke="black" fill="red"/>
  <circle cx="292.87" cy="250.132" r="4.66829" stroke-width="0.5" stroke="red" fill="red"/>
   </g>
   <g id="cell733">
  <circle cx="293.46" cy="267.434" r="8.3413" stroke-width="0.5" stroke="black" fill="red"/>
  <circle cx="293.46" cy="267.434" r="4.93183" stroke-width="0.5" stroke="red" fill="red"/>
   </g>
   <g id="cell734">
  <circle cx="305.586" cy="143.627" r="7.89184" stroke-width="0.5" stroke="black" fill="red"/>
  <circle cx="305.586" cy="143.627" r="4.12636" stroke-width="0.5" stroke="red" fill="red"/>
   </g>
   <g id="cell735">
  <circle cx="304.363" cy="159.136" r="5.12239" stroke-width="0.5" stroke="black" fill="red"/>
   </g>
   <g id="cell736">
  <circle cx="306.418" cy="175.638" r="8.34213" stroke-width="0.5" stroke="black" fill="red"/>
  <circle cx="306.418" cy="175.638" r="4.93324" stroke-width="0.5" stroke="red" fill="red"/>
   </g>
   <g id="cell737">
  <circle cx="305.568" cy="192.362" r="8.37659" stroke-width="0.5" stroke="black" fill="red"/>
  <circle cx="305.568" cy="192.362" r="4.99129" stroke-width="0.5" stroke="red" fill="red"/>
   </g>
   <g id="cell738">
  <circle cx="305.728" cy="207.4" r="8.41032" stroke-width="0.5" stroke="black" fill="red"/>
  <circle cx="305.728" cy="207.4" r="5.04769" stroke-width="0.5" stroke="red" fill="red"/>
   </g>
   <g id="cell739">
  <circle cx="305.716" cy="225.917" r="7.20335" stroke-width="0.5" stroke="black" fill="red"/>
  <circle cx="305.716" cy="225.917" r="2.57565" stroke-width="0.5" stroke="red" fill="red"/>
   </g>
   <g id="cell740">
  <circle cx="306.073" cy="242.943" r="8.33166" stroke-width="0.5" stroke="black" fill="red"/>
  <circle cx="306.073" cy="242.943" r="4.91551" stroke-width="0.5" stroke="red" fill="red"/>
   </g>
   <g id="cell741">
  <circle cx="309.092" cy="257.217" r="6.08208" stroke-width="0.5" stroke="black" fill="red"/>
   </g>
   <g id="cell742">
  <circle cx="318.495" cy="151.503" r="7.6574" stroke-width="0.5" stroke="black" fill="red"/>
  <circle cx="318.495" cy="151.503" r="3.65806" stroke-width="0.5" stroke="red" fill="red"/>
   </g>
   <g id="cell743">
  <circle cx="319.251" cy="167.81" r="8.14547" stroke-width="0.5" stroke="black" fill="red"/>
  <circle cx="319.251" cy="167.81" r="4.59286" stroke-width="0.5" stroke="red" fill="red"/>
   </g>
   <g id="cell744">
  <circle cx="319.902" cy="184.39" r="8.20698" stroke-width="0.5" stroke="black" fill="red"/>
  <circle cx="319.902" cy="184.39" r="4.70109" stroke-width="0.5" stroke="red" fill="red"/>
   </g>
   <g id="cell745">
  <circle cx="319.613" cy="199.971" r="8.30168" stroke-width="0.5" stroke="black" fill="red"/>
  <circle cx="319.613" cy="199.971" r="4.86452" stroke-width="0.5" stroke="red" fill="red"/>
   </g>
   <g id="cell746">
  <circle cx="318.684" cy="217.314" r="7.99785" stroke-width="0.5" stroke="black" fill="red"/>
  <circle cx="318.684" cy="217.314" r="4.32565" stroke-width="0.5" stroke="red" fill="red"/>
   </g>
   <g id="cell747">
  <circle cx="319.576" cy="233.149" r="7.91239" stroke-width="0.5" stroke="black" fill="red"/>
  <circle cx="319.576" cy="233.149" r="4.16553" stroke-width="0.5" stroke="red" fill="red"/>
   </g>
   <g id="cell748">
  <circle cx="322.153" cy="248.566" r="7.42197" stroke-width="0.5" stroke="black" fill="red"/>
  <circle cx="322.153" cy="248.566" r="3.1355" stroke-width="0.5" stroke="red" fill="red"/>
   </g>
   <g id="cell749">
  <circle cx="333.505" cy="157.425" r="7.85576" stroke-width="0.5" stroke="black" fill="red"/>
  <circle cx="333.505" cy="157.425" r="4.05693" stroke-width="0.5" stroke="red" fill="red"/>
   </g>
   <g id="cell750">
  <circle cx="334.79" cy="179.475" r="7.87969" stroke-width="0.5" stroke="black" fill="red"/>
  <circle cx="334.79" cy="179.475" r="4.10307" stroke-width="0.5" stroke="red" fill="red"/>
   </g>
   <g id="cell751">
  <circle cx="340.127" cy="194.019" r="8.31108" stroke-width="0.5" stroke="black" fill="red"/>
  <circle cx="340.127" cy="194.019" r="4.88055" stroke-width="0.5" stroke="red" fill="red"/>
   </g>
   <g id="cell752">
  <circle cx="336.256" cy="212.277" r="8.05639" stroke-width="0.5" stroke="black" fill="red"/>
  <circle cx="336.256" cy="212.277" r="4.43296" stroke-width="0.5" stroke="red" fill="red"/>
   </g>
   <g id="cell753">
  <circle cx="343.135" cy="225.379" r="2.96149" stroke-width="0.5" stroke="black" fill="red"/>
   </g>
   <g id="cell754">
  <circle cx="336.386" cy="243.548" r="8.26575" stroke-width="0.5" stroke="black" fill="red"/>
  <circle cx="336.386" cy="243.548" r="4.80295" stroke-width="0.5" stroke="red" fill="red"/>
   </g>
   <g id="cell759">
  <circle cx="217.062" cy="218.193" r="5.17935" stroke-width="0.5" stroke="black" fill="red"/>
   </g>
   <g id="cell761">
  <circle cx="227.572" cy="160.423" r="3.01255" stroke-width="0.5" stroke="black" fill="red"/>
   </g>
   <g id="cell764">
  <circle cx="229.869" cy="209.325" r="3.77123" stroke-width="0.5" stroke="black" fill="red"/>
   </g>
   <g id="cell800">
  <circle cx="305.847" cy="130.162" r="4.03104" stroke-width="0.5" stroke="black" fill="red"/>
   </g>
  </g>
 </g>
  <rect x="190" y="414" width="200" height="4" stroke-width="0.8" stroke="rgb(255,255,255)" fill="rgb(0,0,0)"/>
  <text x="192.5" y="411.5"
   font-family="Arial" font-size="10" fill="black" >
   200 &#956;m
  </text>
  <text x="10" y="418"
   font-family="Arial" font-size="7.5" fill="black" >
   0 days, 0 hours, 0 minutes, and 26.5899 seconds
  </text>
  <rect x="0" y="28" width="400" height="400" stroke-width="0.8" stroke="rgb(0,0,0)" fill="none"/>
</svg>
