<?xml version="1.0" encoding="UTF-8" standalone="no"?>
<!-- Created with PhysiCell (http://PhysiCell.MathCancer.org/) -->
<svg 
 xmlns:dc="http://purl.org/dc/elements/1.1/" 
 xmlns:cc="http://creativecommons.org/ns#" 
 xmlns:rdf="http://www.w3.org/1999/02/22-rdf-syntax-ns#" 
 xmlns:svg="http://www.w3.org/2000/svg" 
 xmlns="http://www.w3.org/2000/svg" 
 version="1.1" 
 width="400" 
 height="428" 
 id="svg2">
  <rect x="0" y="0" width="400" height="428" stroke-width="0.8" stroke="white" fill="white"/>
  <text x="5" y="12"
   font-family="Arial" font-size="10" fill="black" >
   Current time: 0 days, 19 hours, and 0.00 minutes, z = 0.00 &#956;m
  </text>
  <text x="5" y="23"
   font-family="Arial" font-size="9.5" fill="black" >
   978 agents
  </text>
 <g id="tissue" 
    transform="translate(0,428) scale(1,-1)">
  <g id="ECM">
  </g>
  <g id="cells">
   <g id="cell133">
  <circle cx="40.9979" cy="247.274" r="8.36491" stroke-width="0.5" stroke="black" fill="grey"/>
  <circle cx="40.9979" cy="247.274" r="4.97166" stroke-width="0.5" stroke="grey" fill="grey"/>
   </g>
   <g id="cell136">
  <circle cx="67.0232" cy="193.018" r="4.13118" stroke-width="0.5" stroke="black" fill="grey"/>
   </g>
   <g id="cell140">
  <circle cx="91.5431" cy="145.232" r="6.25456" stroke-width="0.5" stroke="black" fill="grey"/>
   </g>
   <g id="cell144">
  <circle cx="92.2136" cy="219.362" r="6.46521" stroke-width="0.5" stroke="black" fill="grey"/>
   </g>
   <g id="cell146">
  <circle cx="77.6629" cy="253.861" r="5.59928" stroke-width="0.5" stroke="black" fill="grey"/>
   </g>
   <g id="cell150">
  <circle cx="108.127" cy="199.65" r="7.79748" stroke-width="0.5" stroke="black" fill="grey"/>
  <circle cx="108.127" cy="199.65" r="3.9429" stroke-width="0.5" stroke="grey" fill="grey"/>
   </g>
   <g id="cell154">
  <circle cx="87.9896" cy="273.73" r="8.38761" stroke-width="0.5" stroke="black" fill="grey"/>
  <circle cx="87.9896" cy="273.73" r="5.00976" stroke-width="0.5" stroke="grey" fill="grey"/>
   </g>
   <g id="cell170">
  <circle cx="137.156" cy="277.571" r="7.44832" stroke-width="0.5" stroke="black" fill="grey"/>
  <circle cx="137.156" cy="277.571" r="3.19737" stroke-width="0.5" stroke="grey" fill="grey"/>
   </g>
   <g id="cell172">
  <circle cx="155.137" cy="106.889" r="6.93066" stroke-width="0.5" stroke="black" fill="grey"/>
  <circle cx="155.137" cy="106.889" r="1.66725" stroke-width="0.5" stroke="grey" fill="grey"/>
   </g>
   <g id="cell177">
  <circle cx="152.968" cy="221.344" r="8.19122" stroke-width="0.5" stroke="black" fill="grey"/>
  <circle cx="152.968" cy="221.344" r="4.67352" stroke-width="0.5" stroke="grey" fill="grey"/>
   </g>
   <g id="cell199">
  <circle cx="48.1767" cy="164.055" r="7.61778" stroke-width="0.5" stroke="black" fill="grey"/>
  <circle cx="48.1767" cy="164.055" r="3.57439" stroke-width="0.5" stroke="grey" fill="grey"/>
   </g>
   <g id="cell200">
  <circle cx="49.426" cy="182.633" r="3.74161" stroke-width="0.5" stroke="black" fill="grey"/>
   </g>
   <g id="cell202">
  <circle cx="43.5695" cy="225.59" r="5.84538" stroke-width="0.5" stroke="black" fill="grey"/>
   </g>
   <g id="cell207">
  <circle cx="65.6869" cy="186.098" r="2.03996" stroke-width="0.5" stroke="black" fill="grey"/>
   </g>
   <g id="cell208">
  <circle cx="81.2205" cy="227.193" r="8.1632" stroke-width="0.5" stroke="black" fill="grey"/>
  <circle cx="81.2205" cy="227.193" r="4.62423" stroke-width="0.5" stroke="grey" fill="grey"/>
   </g>
   <g id="cell215">
  <circle cx="114.625" cy="216.242" r="3.22309" stroke-width="0.5" stroke="black" fill="grey"/>
   </g>
   <g id="cell222">
  <circle cx="93.2414" cy="178.363" r="7.72955" stroke-width="0.5" stroke="black" fill="grey"/>
  <circle cx="93.2414" cy="178.363" r="3.80679" stroke-width="0.5" stroke="grey" fill="grey"/>
   </g>
   <g id="cell223">
  <circle cx="99.728" cy="188.3" r="6.0178" stroke-width="0.5" stroke="black" fill="grey"/>
   </g>
   <g id="cell229">
  <circle cx="125.443" cy="140.297" r="7.47295" stroke-width="0.5" stroke="black" fill="grey"/>
  <circle cx="125.443" cy="140.297" r="3.25433" stroke-width="0.5" stroke="grey" fill="grey"/>
   </g>
   <g id="cell231">
  <circle cx="124.138" cy="193.603" r="6.99919" stroke-width="0.5" stroke="black" fill="grey"/>
  <circle cx="124.138" cy="193.603" r="1.93246" stroke-width="0.5" stroke="grey" fill="grey"/>
   </g>
   <g id="cell235">
  <circle cx="111.04" cy="268.098" r="7.89443" stroke-width="0.5" stroke="black" fill="grey"/>
  <circle cx="111.04" cy="268.098" r="4.1313" stroke-width="0.5" stroke="grey" fill="grey"/>
   </g>
   <g id="cell237">
  <circle cx="139.065" cy="145.073" r="7.45291" stroke-width="0.5" stroke="black" fill="grey"/>
  <circle cx="139.065" cy="145.073" r="3.20805" stroke-width="0.5" stroke="grey" fill="grey"/>
   </g>
   <g id="cell238">
  <circle cx="146.678" cy="152.994" r="6.39867" stroke-width="0.5" stroke="black" fill="grey"/>
   </g>
   <g id="cell240">
  <circle cx="140.483" cy="200.956" r="8.32536" stroke-width="0.5" stroke="black" fill="grey"/>
  <circle cx="140.483" cy="200.956" r="4.90482" stroke-width="0.5" stroke="grey" fill="grey"/>
   </g>
   <g id="cell241">
  <circle cx="139.616" cy="215.015" r="7.11859" stroke-width="0.5" stroke="black" fill="grey"/>
  <circle cx="139.616" cy="215.015" r="2.3281" stroke-width="0.5" stroke="grey" fill="grey"/>
   </g>
   <g id="cell242">
  <circle cx="142.917" cy="230.95" r="2.5223" stroke-width="0.5" stroke="black" fill="grey"/>
   </g>
   <g id="cell243">
  <circle cx="158.416" cy="261.795" r="7.41631" stroke-width="0.5" stroke="black" fill="grey"/>
  <circle cx="158.416" cy="261.795" r="3.12208" stroke-width="0.5" stroke="grey" fill="grey"/>
   </g>
   <g id="cell247">
  <circle cx="157.617" cy="154.761" r="4.52711" stroke-width="0.5" stroke="black" fill="grey"/>
   </g>
   <g id="cell248">
  <circle cx="162.553" cy="208.94" r="3.18196" stroke-width="0.5" stroke="black" fill="grey"/>
   </g>
   <g id="cell250">
  <circle cx="156.448" cy="248.852" r="3.79571" stroke-width="0.5" stroke="black" fill="grey"/>
   </g>
   <g id="cell252">
  <circle cx="162.918" cy="286.035" r="7.94642" stroke-width="0.5" stroke="black" fill="grey"/>
  <circle cx="162.918" cy="286.035" r="4.22981" stroke-width="0.5" stroke="grey" fill="grey"/>
   </g>
   <g id="cell253">
  <circle cx="162.917" cy="132.254" r="7.66082" stroke-width="0.5" stroke="black" fill="grey"/>
  <circle cx="162.917" cy="132.254" r="3.66521" stroke-width="0.5" stroke="grey" fill="grey"/>
   </g>
   <g id="cell254">
  <circle cx="197.107" cy="168.707" r="6.80235" stroke-width="0.5" stroke="black" fill="grey"/>
  <circle cx="197.107" cy="168.707" r="1.00878" stroke-width="0.5" stroke="grey" fill="grey"/>
   </g>
   <g id="cell255">
  <circle cx="179.994" cy="174.933" r="8.35661" stroke-width="0.5" stroke="black" fill="grey"/>
  <circle cx="179.994" cy="174.933" r="4.95768" stroke-width="0.5" stroke="grey" fill="grey"/>
   </g>
   <g id="cell256">
  <circle cx="167.661" cy="196.661" r="8.35199" stroke-width="0.5" stroke="black" fill="grey"/>
  <circle cx="167.661" cy="196.661" r="4.94989" stroke-width="0.5" stroke="grey" fill="grey"/>
   </g>
   <g id="cell261">
  <circle cx="198.743" cy="187.584" r="6.6736" stroke-width="0.5" stroke="black" fill="grey"/>
   </g>
   <g id="cell264">
  <circle cx="194.535" cy="232.565" r="8.34541" stroke-width="0.5" stroke="black" fill="grey"/>
  <circle cx="194.535" cy="232.565" r="4.93878" stroke-width="0.5" stroke="grey" fill="grey"/>
   </g>
   <g id="cell267">
  <circle cx="46.2792" cy="149.856" r="6.61378" stroke-width="0.5" stroke="black" fill="grey"/>
   </g>
   <g id="cell268">
  <circle cx="63.5667" cy="177.488" r="3.72908" stroke-width="0.5" stroke="black" fill="grey"/>
   </g>
   <g id="cell284">
  <circle cx="62.0206" cy="261.938" r="7.36487" stroke-width="0.5" stroke="black" fill="grey"/>
  <circle cx="62.0206" cy="261.938" r="2.99782" stroke-width="0.5" stroke="grey" fill="grey"/>
   </g>
   <g id="cell285">
  <circle cx="81.5723" cy="260.728" r="4.43187" stroke-width="0.5" stroke="black" fill="grey"/>
   </g>
   <g id="cell287">
  <circle cx="107.752" cy="175.015" r="8.40736" stroke-width="0.5" stroke="black" fill="grey"/>
  <circle cx="107.752" cy="175.015" r="5.04276" stroke-width="0.5" stroke="grey" fill="grey"/>
   </g>
   <g id="cell290">
  <circle cx="109.253" cy="241.033" r="5.93457" stroke-width="0.5" stroke="black" fill="grey"/>
   </g>
   <g id="cell293">
  <circle cx="96.3246" cy="258.053" r="2.93363" stroke-width="0.5" stroke="black" fill="grey"/>
   </g>
   <g id="cell295">
  <circle cx="111.122" cy="147.108" r="8.40194" stroke-width="0.5" stroke="black" fill="grey"/>
  <circle cx="111.122" cy="147.108" r="5.03372" stroke-width="0.5" stroke="grey" fill="grey"/>
   </g>
   <g id="cell296">
  <circle cx="127.624" cy="154.65" r="8.00092" stroke-width="0.5" stroke="black" fill="grey"/>
  <circle cx="127.624" cy="154.65" r="4.33132" stroke-width="0.5" stroke="grey" fill="grey"/>
   </g>
   <g id="cell300">
  <circle cx="129.032" cy="239.481" r="8.40205" stroke-width="0.5" stroke="black" fill="grey"/>
  <circle cx="129.032" cy="239.481" r="5.0339" stroke-width="0.5" stroke="grey" fill="grey"/>
   </g>
   <g id="cell305">
  <circle cx="146.016" cy="172.569" r="7.10837" stroke-width="0.5" stroke="black" fill="grey"/>
  <circle cx="146.016" cy="172.569" r="2.29665" stroke-width="0.5" stroke="grey" fill="grey"/>
   </g>
   <g id="cell310">
  <circle cx="142.735" cy="260.1" r="8.17725" stroke-width="0.5" stroke="black" fill="grey"/>
  <circle cx="142.735" cy="260.1" r="4.64899" stroke-width="0.5" stroke="grey" fill="grey"/>
   </g>
   <g id="cell316">
  <circle cx="147.94" cy="244.609" r="7.64087" stroke-width="0.5" stroke="black" fill="grey"/>
  <circle cx="147.94" cy="244.609" r="3.62334" stroke-width="0.5" stroke="grey" fill="grey"/>
   </g>
   <g id="cell318">
  <circle cx="171.117" cy="254.227" r="5.30803" stroke-width="0.5" stroke="black" fill="grey"/>
   </g>
   <g id="cell322">
  <circle cx="160.153" cy="178.713" r="8.38789" stroke-width="0.5" stroke="black" fill="grey"/>
  <circle cx="160.153" cy="178.713" r="5.01023" stroke-width="0.5" stroke="grey" fill="grey"/>
   </g>
   <g id="cell331">
  <circle cx="177.674" cy="241.271" r="8.40422" stroke-width="0.5" stroke="black" fill="grey"/>
  <circle cx="177.674" cy="241.271" r="5.03752" stroke-width="0.5" stroke="grey" fill="grey"/>
   </g>
   <g id="cell332">
  <circle cx="193.882" cy="269.044" r="5.51545" stroke-width="0.5" stroke="black" fill="grey"/>
   </g>
   <g id="cell334">
  <circle cx="181.2" cy="202.707" r="5.8019" stroke-width="0.5" stroke="black" fill="grey"/>
   </g>
   <g id="cell335">
  <circle cx="75.7565" cy="130.384" r="8.01613" stroke-width="0.5" stroke="black" fill="grey"/>
  <circle cx="75.7565" cy="130.384" r="4.35937" stroke-width="0.5" stroke="grey" fill="grey"/>
   </g>
   <g id="cell355">
  <circle cx="105.626" cy="123.834" r="7.59883" stroke-width="0.5" stroke="black" fill="grey"/>
  <circle cx="105.626" cy="123.834" r="3.53381" stroke-width="0.5" stroke="grey" fill="grey"/>
   </g>
   <g id="cell367">
  <circle cx="134.076" cy="181.923" r="7.6046" stroke-width="0.5" stroke="black" fill="grey"/>
  <circle cx="134.076" cy="181.923" r="3.54621" stroke-width="0.5" stroke="grey" fill="grey"/>
   </g>
   <g id="cell624">
  <circle cx="223.458" cy="180.017" r="4.10988" stroke-width="0.5" stroke="black" fill="red"/>
   </g>
   <g id="cell661">
  <circle cx="310.982" cy="125.599" r="7.82574" stroke-width="0.5" stroke="black" fill="red"/>
  <circle cx="310.982" cy="125.599" r="3.99848" stroke-width="0.5" stroke="red" fill="red"/>
   </g>
   <g id="cell684">
  <circle cx="209.357" cy="185.965" r="2.34728" stroke-width="0.5" stroke="black" fill="red"/>
   </g>
   <g id="cell685">
  <circle cx="205.607" cy="199.433" r="8.34471" stroke-width="0.5" stroke="black" fill="red"/>
  <circle cx="205.607" cy="199.433" r="4.9376" stroke-width="0.5" stroke="red" fill="red"/>
   </g>
   <g id="cell686">
  <circle cx="201.617" cy="214.648" r="6.17287" stroke-width="0.5" stroke="black" fill="red"/>
   </g>
   <g id="cell688">
  <circle cx="215.147" cy="166.857" r="8.0599" stroke-width="0.5" stroke="black" fill="red"/>
  <circle cx="215.147" cy="166.857" r="4.43933" stroke-width="0.5" stroke="red" fill="red"/>
   </g>
   <g id="cell689">
  <circle cx="220.18" cy="194.092" r="8.41262" stroke-width="0.5" stroke="black" fill="red"/>
  <circle cx="220.18" cy="194.092" r="5.05152" stroke-width="0.5" stroke="red" fill="red"/>
   </g>
   <g id="cell690">
  <circle cx="215.872" cy="211.366" r="8.06193" stroke-width="0.5" stroke="black" fill="red"/>
  <circle cx="215.872" cy="211.366" r="4.44302" stroke-width="0.5" stroke="red" fill="red"/>
   </g>
   <g id="cell691">
  <circle cx="220.983" cy="227.999" r="6.30014" stroke-width="0.5" stroke="black" fill="red"/>
   </g>
   <g id="cell692">
  <circle cx="220.1" cy="246.794" r="8.40436" stroke-width="0.5" stroke="black" fill="red"/>
  <circle cx="220.1" cy="246.794" r="5.03776" stroke-width="0.5" stroke="red" fill="red"/>
   </g>
   <g id="cell693">
  <circle cx="235.497" cy="151.754" r="7.42664" stroke-width="0.5" stroke="black" fill="red"/>
  <circle cx="235.497" cy="151.754" r="3.14653" stroke-width="0.5" stroke="red" fill="red"/>
   </g>
   <g id="cell694">
  <circle cx="234.782" cy="167.354" r="7.62707" stroke-width="0.5" stroke="black" fill="red"/>
  <circle cx="234.782" cy="167.354" r="3.59415" stroke-width="0.5" stroke="red" fill="red"/>
   </g>
   <g id="cell695">
  <circle cx="235.292" cy="186.204" r="8.34689" stroke-width="0.5" stroke="black" fill="red"/>
  <circle cx="235.292" cy="186.204" r="4.94128" stroke-width="0.5" stroke="red" fill="red"/>
   </g>
   <g id="cell696">
  <circle cx="234.974" cy="201.09" r="7.81445" stroke-width="0.5" stroke="black" fill="red"/>
  <circle cx="234.974" cy="201.09" r="3.97635" stroke-width="0.5" stroke="red" fill="red"/>
   </g>
   <g id="cell697">
  <circle cx="235.889" cy="218.844" r="7.30643" stroke-width="0.5" stroke="black" fill="red"/>
  <circle cx="235.889" cy="218.844" r="2.85124" stroke-width="0.5" stroke="red" fill="red"/>
   </g>
   <g id="cell698">
  <circle cx="234.744" cy="236.238" r="8.33167" stroke-width="0.5" stroke="black" fill="red"/>
  <circle cx="234.744" cy="236.238" r="4.91554" stroke-width="0.5" stroke="red" fill="red"/>
   </g>
   <g id="cell699">
  <circle cx="234.827" cy="253.854" r="8.40675" stroke-width="0.5" stroke="black" fill="red"/>
  <circle cx="234.827" cy="253.854" r="5.04174" stroke-width="0.5" stroke="red" fill="red"/>
   </g>
   <g id="cell700">
  <circle cx="248.361" cy="143.734" r="8.2389" stroke-width="0.5" stroke="black" fill="red"/>
  <circle cx="248.361" cy="143.734" r="4.7566" stroke-width="0.5" stroke="red" fill="red"/>
   </g>
   <g id="cell701">
  <circle cx="248.498" cy="159.898" r="7.06821" stroke-width="0.5" stroke="black" fill="red"/>
  <circle cx="248.498" cy="159.898" r="2.16915" stroke-width="0.5" stroke="red" fill="red"/>
   </g>
   <g id="cell702">
  <circle cx="248.774" cy="175.376" r="8.20292" stroke-width="0.5" stroke="black" fill="red"/>
  <circle cx="248.774" cy="175.376" r="4.69399" stroke-width="0.5" stroke="red" fill="red"/>
   </g>
   <g id="cell703">
  <circle cx="249.668" cy="192.365" r="8.39625" stroke-width="0.5" stroke="black" fill="red"/>
  <circle cx="249.668" cy="192.365" r="5.02422" stroke-width="0.5" stroke="red" fill="red"/>
   </g>
   <g id="cell704">
  <circle cx="249.08" cy="211.056" r="7.12593" stroke-width="0.5" stroke="black" fill="red"/>
  <circle cx="249.08" cy="211.056" r="2.35043" stroke-width="0.5" stroke="red" fill="red"/>
   </g>
   <g id="cell705">
  <circle cx="248.141" cy="228.531" r="7.56295" stroke-width="0.5" stroke="black" fill="red"/>
  <circle cx="248.141" cy="228.531" r="3.456" stroke-width="0.5" stroke="red" fill="red"/>
   </g>
   <g id="cell706">
  <circle cx="249.99" cy="244.741" r="7.73968" stroke-width="0.5" stroke="black" fill="red"/>
  <circle cx="249.99" cy="244.741" r="3.82731" stroke-width="0.5" stroke="red" fill="red"/>
   </g>
   <g id="cell707">
  <circle cx="248.603" cy="262.322" r="5.92715" stroke-width="0.5" stroke="black" fill="red"/>
   </g>
   <g id="cell708">
  <circle cx="260.769" cy="122.781" r="7.16256" stroke-width="0.5" stroke="black" fill="red"/>
  <circle cx="260.769" cy="122.781" r="2.45925" stroke-width="0.5" stroke="red" fill="red"/>
   </g>
   <g id="cell709">
  <circle cx="262.883" cy="153.299" r="8.41117" stroke-width="0.5" stroke="black" fill="red"/>
  <circle cx="262.883" cy="153.299" r="5.04911" stroke-width="0.5" stroke="red" fill="red"/>
   </g>
   <g id="cell710">
  <circle cx="262.844" cy="168.862" r="7.60949" stroke-width="0.5" stroke="black" fill="red"/>
  <circle cx="262.844" cy="168.862" r="3.55669" stroke-width="0.5" stroke="red" fill="red"/>
   </g>
   <g id="cell711">
  <circle cx="263.823" cy="185.182" r="6.60919" stroke-width="0.5" stroke="black" fill="red"/>
   </g>
   <g id="cell712">
  <circle cx="262.735" cy="201.416" r="8.14894" stroke-width="0.5" stroke="black" fill="red"/>
  <circle cx="262.735" cy="201.416" r="4.599" stroke-width="0.5" stroke="red" fill="red"/>
   </g>
   <g id="cell713">
  <circle cx="263.466" cy="218.659" r="8.34479" stroke-width="0.5" stroke="black" fill="red"/>
  <circle cx="263.466" cy="218.659" r="4.93773" stroke-width="0.5" stroke="red" fill="red"/>
   </g>
   <g id="cell714">
  <circle cx="264.298" cy="234.652" r="8.3491" stroke-width="0.5" stroke="black" fill="red"/>
  <circle cx="264.298" cy="234.652" r="4.94501" stroke-width="0.5" stroke="red" fill="red"/>
   </g>
   <g id="cell715">
  <circle cx="263.261" cy="253.21" r="8.31733" stroke-width="0.5" stroke="black" fill="red"/>
  <circle cx="263.261" cy="253.21" r="4.89119" stroke-width="0.5" stroke="red" fill="red"/>
   </g>
   <g id="cell716">
  <circle cx="258.806" cy="274.861" r="7.61975" stroke-width="0.5" stroke="black" fill="red"/>
  <circle cx="258.806" cy="274.861" r="3.57859" stroke-width="0.5" stroke="red" fill="red"/>
   </g>
   <g id="cell717">
  <circle cx="274.666" cy="138.241" r="8.31247" stroke-width="0.5" stroke="black" fill="red"/>
  <circle cx="274.666" cy="138.241" r="4.88292" stroke-width="0.5" stroke="red" fill="red"/>
   </g>
   <g id="cell718">
  <circle cx="278.919" cy="156.209" r="8.40964" stroke-width="0.5" stroke="black" fill="red"/>
  <circle cx="278.919" cy="156.209" r="5.04656" stroke-width="0.5" stroke="red" fill="red"/>
   </g>
   <g id="cell719">
  <circle cx="276.255" cy="177.654" r="8.22864" stroke-width="0.5" stroke="black" fill="red"/>
  <circle cx="276.255" cy="177.654" r="4.7388" stroke-width="0.5" stroke="red" fill="red"/>
   </g>
   <g id="cell720">
  <circle cx="276.746" cy="193.574" r="8.18033" stroke-width="0.5" stroke="black" fill="red"/>
  <circle cx="276.746" cy="193.574" r="4.6544" stroke-width="0.5" stroke="red" fill="red"/>
   </g>
   <g id="cell721">
  <circle cx="277.571" cy="209.165" r="8.30227" stroke-width="0.5" stroke="black" fill="red"/>
  <circle cx="277.571" cy="209.165" r="4.86554" stroke-width="0.5" stroke="red" fill="red"/>
   </g>
   <g id="cell722">
  <circle cx="278.035" cy="227.351" r="8.11305" stroke-width="0.5" stroke="black" fill="red"/>
  <circle cx="278.035" cy="227.351" r="4.53512" stroke-width="0.5" stroke="red" fill="red"/>
   </g>
   <g id="cell723">
  <circle cx="277.654" cy="244.501" r="8.15011" stroke-width="0.5" stroke="black" fill="red"/>
  <circle cx="277.654" cy="244.501" r="4.60108" stroke-width="0.5" stroke="red" fill="red"/>
   </g>
   <g id="cell724">
  <circle cx="278.177" cy="260.223" r="8.2826" stroke-width="0.5" stroke="black" fill="red"/>
  <circle cx="278.177" cy="260.223" r="4.83189" stroke-width="0.5" stroke="red" fill="red"/>
   </g>
   <g id="cell725">
  <circle cx="295.465" cy="124.264" r="7.74113" stroke-width="0.5" stroke="black" fill="red"/>
  <circle cx="295.465" cy="124.264" r="3.83024" stroke-width="0.5" stroke="red" fill="red"/>
   </g>
   <g id="cell726">
  <circle cx="296.045" cy="154.381" r="8.34315" stroke-width="0.5" stroke="black" fill="red"/>
  <circle cx="296.045" cy="154.381" r="4.93496" stroke-width="0.5" stroke="red" fill="red"/>
   </g>
   <g id="cell727">
  <circle cx="288.479" cy="168.582" r="8.37136" stroke-width="0.5" stroke="black" fill="red"/>
  <circle cx="288.479" cy="168.582" r="4.9825" stroke-width="0.5" stroke="red" fill="red"/>
   </g>
   <g id="cell728">
  <circle cx="294.182" cy="183.238" r="5.96314" stroke-width="0.5" stroke="black" fill="red"/>
   </g>
   <g id="cell729">
  <circle cx="292.545" cy="202.424" r="8.24835" stroke-width="0.5" stroke="black" fill="red"/>
  <circle cx="292.545" cy="202.424" r="4.77294" stroke-width="0.5" stroke="red" fill="red"/>
   </g>
   <g id="cell730">
  <circle cx="291.076" cy="218.744" r="7.93405" stroke-width="0.5" stroke="black" fill="red"/>
  <circle cx="291.076" cy="218.744" r="4.20652" stroke-width="0.5" stroke="red" fill="red"/>
   </g>
   <g id="cell731">
  <circle cx="291.271" cy="234.933" r="6.98461" stroke-width="0.5" stroke="black" fill="red"/>
  <circle cx="291.271" cy="234.933" r="1.87897" stroke-width="0.5" stroke="red" fill="red"/>
   </g>
   <g id="cell732">
  <circle cx="293.349" cy="254.565" r="8.38773" stroke-width="0.5" stroke="black" fill="red"/>
  <circle cx="293.349" cy="254.565" r="5.00996" stroke-width="0.5" stroke="red" fill="red"/>
   </g>
   <g id="cell733">
  <circle cx="289.063" cy="274.35" r="5.76576" stroke-width="0.5" stroke="black" fill="red"/>
   </g>
   <g id="cell734">
  <circle cx="302.349" cy="138.691" r="7.21589" stroke-width="0.5" stroke="black" fill="red"/>
  <circle cx="302.349" cy="138.691" r="2.6105" stroke-width="0.5" stroke="red" fill="red"/>
   </g>
   <g id="cell735">
  <circle cx="301.023" cy="165.984" r="4.37214" stroke-width="0.5" stroke="black" fill="red"/>
   </g>
   <g id="cell736">
  <circle cx="307.376" cy="177.191" r="8.39067" stroke-width="0.5" stroke="black" fill="red"/>
  <circle cx="307.376" cy="177.191" r="5.01489" stroke-width="0.5" stroke="red" fill="red"/>
   </g>
   <g id="cell737">
  <circle cx="305.699" cy="193.263" r="8.30302" stroke-width="0.5" stroke="black" fill="red"/>
  <circle cx="305.699" cy="193.263" r="4.8668" stroke-width="0.5" stroke="red" fill="red"/>
   </g>
   <g id="cell738">
  <circle cx="305.731" cy="211.59" r="8.28251" stroke-width="0.5" stroke="black" fill="red"/>
  <circle cx="305.731" cy="211.59" r="4.83174" stroke-width="0.5" stroke="red" fill="red"/>
   </g>
   <g id="cell739">
  <circle cx="306.045" cy="226.972" r="8.08476" stroke-width="0.5" stroke="black" fill="red"/>
  <circle cx="306.045" cy="226.972" r="4.48431" stroke-width="0.5" stroke="red" fill="red"/>
   </g>
   <g id="cell740">
  <circle cx="304.456" cy="243.114" r="8.33509" stroke-width="0.5" stroke="black" fill="red"/>
  <circle cx="304.456" cy="243.114" r="4.92132" stroke-width="0.5" stroke="red" fill="red"/>
   </g>
   <g id="cell741">
  <circle cx="308.988" cy="259.934" r="8.2585" stroke-width="0.5" stroke="black" fill="red"/>
  <circle cx="308.988" cy="259.934" r="4.79045" stroke-width="0.5" stroke="red" fill="red"/>
   </g>
   <g id="cell742">
  <circle cx="312.482" cy="149.38" r="8.4122" stroke-width="0.5" stroke="black" fill="red"/>
  <circle cx="312.482" cy="149.38" r="5.05082" stroke-width="0.5" stroke="red" fill="red"/>
   </g>
   <g id="cell743">
  <circle cx="321.938" cy="169.579" r="8.27702" stroke-width="0.5" stroke="black" fill="red"/>
  <circle cx="321.938" cy="169.579" r="4.82231" stroke-width="0.5" stroke="red" fill="red"/>
   </g>
   <g id="cell744">
  <circle cx="320.275" cy="185.962" r="6.79461" stroke-width="0.5" stroke="black" fill="red"/>
  <circle cx="320.275" cy="185.962" r="0.955219" stroke-width="0.5" stroke="red" fill="red"/>
   </g>
   <g id="cell745">
  <circle cx="319.472" cy="203.944" r="8.3437" stroke-width="0.5" stroke="black" fill="red"/>
  <circle cx="319.472" cy="203.944" r="4.93589" stroke-width="0.5" stroke="red" fill="red"/>
   </g>
   <g id="cell746">
  <circle cx="321.696" cy="219.729" r="7.4133" stroke-width="0.5" stroke="black" fill="red"/>
  <circle cx="321.696" cy="219.729" r="3.1149" stroke-width="0.5" stroke="red" fill="red"/>
   </g>
   <g id="cell747">
  <circle cx="321.081" cy="235.535" r="7.85932" stroke-width="0.5" stroke="black" fill="red"/>
  <circle cx="321.081" cy="235.535" r="4.06381" stroke-width="0.5" stroke="red" fill="red"/>
   </g>
   <g id="cell749">
  <circle cx="344.744" cy="161.11" r="7.99219" stroke-width="0.5" stroke="black" fill="red"/>
  <circle cx="344.744" cy="161.11" r="4.31519" stroke-width="0.5" stroke="red" fill="red"/>
   </g>
   <g id="cell750">
  <circle cx="337.106" cy="176.201" r="8.41252" stroke-width="0.5" stroke="black" fill="red"/>
  <circle cx="337.106" cy="176.201" r="5.05135" stroke-width="0.5" stroke="red" fill="red"/>
   </g>
   <g id="cell751">
  <circle cx="345.572" cy="188.496" r="7.68373" stroke-width="0.5" stroke="black" fill="red"/>
  <circle cx="345.572" cy="188.496" r="3.71287" stroke-width="0.5" stroke="red" fill="red"/>
   </g>
   <g id="cell752">
  <circle cx="335.755" cy="212.062" r="8.35853" stroke-width="0.5" stroke="black" fill="red"/>
  <circle cx="335.755" cy="212.062" r="4.96091" stroke-width="0.5" stroke="red" fill="red"/>
   </g>
   <g id="cell754">
  <circle cx="331.643" cy="246.131" r="8.40395" stroke-width="0.5" stroke="black" fill="red"/>
  <circle cx="331.643" cy="246.131" r="5.03707" stroke-width="0.5" stroke="red" fill="red"/>
   </g>
   <g id="cell755">
  <circle cx="353.254" cy="208.805" r="6.64802" stroke-width="0.5" stroke="black" fill="red"/>
   </g>
   <g id="cell760">
  <circle cx="209.235" cy="232.218" r="7.47207" stroke-width="0.5" stroke="black" fill="red"/>
  <circle cx="209.235" cy="232.218" r="3.2523" stroke-width="0.5" stroke="red" fill="red"/>
   </g>
   <g id="cell761">
  <circle cx="227.146" cy="159.259" r="3.28875" stroke-width="0.5" stroke="black" fill="red"/>
   </g>
   <g id="cell764">
  <circle cx="228.677" cy="212.475" r="4.39724" stroke-width="0.5" stroke="black" fill="red"/>
   </g>
   <g id="cell767">
  <circle cx="245.942" cy="127.136" r="8.41066" stroke-width="0.5" stroke="black" fill="red"/>
  <circle cx="245.942" cy="127.136" r="5.04825" stroke-width="0.5" stroke="red" fill="red"/>
   </g>
  </g>
 </g>
  <rect x="190" y="414" width="200" height="4" stroke-width="0.8" stroke="rgb(255,255,255)" fill="rgb(0,0,0)"/>
  <text x="192.5" y="411.5"
   font-family="Arial" font-size="10" fill="black" >
   200 &#956;m
  </text>
  <text x="10" y="418"
   font-family="Arial" font-size="7.5" fill="black" >
   0 days, 0 hours, 1 minutes, and 50.1905 seconds
  </text>
  <rect x="0" y="28" width="400" height="400" stroke-width="0.8" stroke="rgb(0,0,0)" fill="none"/>
</svg>
