<?xml version="1.0" encoding="UTF-8" standalone="no"?>
<!-- Created with PhysiCell (http://PhysiCell.MathCancer.org/) -->
<svg 
 xmlns:dc="http://purl.org/dc/elements/1.1/" 
 xmlns:cc="http://creativecommons.org/ns#" 
 xmlns:rdf="http://www.w3.org/1999/02/22-rdf-syntax-ns#" 
 xmlns:svg="http://www.w3.org/2000/svg" 
 xmlns="http://www.w3.org/2000/svg" 
 version="1.1" 
 width="400" 
 height="428" 
 id="svg2">
  <rect x="0" y="0" width="400" height="428" stroke-width="0.8" stroke="white" fill="white"/>
  <text x="5" y="12"
   font-family="Arial" font-size="10" fill="black" >
   Current time: 0 days, 11 hours, and 0.00 minutes, z = 0.00 &#956;m
  </text>
  <text x="5" y="23"
   font-family="Arial" font-size="9.5" fill="black" >
   978 agents
  </text>
 <g id="tissue" 
    transform="translate(0,428) scale(1,-1)">
  <g id="ECM">
  </g>
  <g id="cells">
   <g id="cell131">
  <circle cx="47.3288" cy="197.514" r="2.06899" stroke-width="0.5" stroke="black" fill="grey"/>
   </g>
   <g id="cell133">
  <circle cx="42.6187" cy="249.872" r="8.19225" stroke-width="0.5" stroke="black" fill="grey"/>
  <circle cx="42.6187" cy="249.872" r="4.67532" stroke-width="0.5" stroke="grey" fill="grey"/>
   </g>
   <g id="cell140">
  <circle cx="95.6615" cy="146.387" r="3.88295" stroke-width="0.5" stroke="black" fill="grey"/>
   </g>
   <g id="cell144">
  <circle cx="88.1251" cy="213.198" r="4.44548" stroke-width="0.5" stroke="black" fill="grey"/>
   </g>
   <g id="cell145">
  <circle cx="87.7291" cy="237.188" r="1.40063" stroke-width="0.5" stroke="black" fill="grey"/>
   </g>
   <g id="cell147">
  <circle cx="103.21" cy="132.28" r="7.36319" stroke-width="0.5" stroke="black" fill="grey"/>
  <circle cx="103.21" cy="132.28" r="2.99369" stroke-width="0.5" stroke="grey" fill="grey"/>
   </g>
   <g id="cell167">
  <circle cx="137.636" cy="185.967" r="6.02846" stroke-width="0.5" stroke="black" fill="grey"/>
   </g>
   <g id="cell184">
  <circle cx="171.967" cy="214.733" r="5.81451" stroke-width="0.5" stroke="black" fill="grey"/>
   </g>
   <g id="cell185">
  <circle cx="164.051" cy="228.138" r="3.3449" stroke-width="0.5" stroke="black" fill="grey"/>
   </g>
   <g id="cell187">
  <circle cx="171.357" cy="271.23" r="4.61835" stroke-width="0.5" stroke="black" fill="grey"/>
   </g>
   <g id="cell193">
  <circle cx="197.839" cy="177.096" r="6.13803" stroke-width="0.5" stroke="black" fill="grey"/>
   </g>
   <g id="cell195">
  <circle cx="31.0992" cy="169.677" r="7.61472" stroke-width="0.5" stroke="black" fill="grey"/>
  <circle cx="31.0992" cy="169.677" r="3.56787" stroke-width="0.5" stroke="grey" fill="grey"/>
   </g>
   <g id="cell199">
  <circle cx="51.9202" cy="166.562" r="8.35364" stroke-width="0.5" stroke="black" fill="grey"/>
  <circle cx="51.9202" cy="166.562" r="4.95267" stroke-width="0.5" stroke="grey" fill="grey"/>
   </g>
   <g id="cell201">
  <circle cx="59.8498" cy="213.023" r="1.04349" stroke-width="0.5" stroke="black" fill="grey"/>
   </g>
   <g id="cell204">
  <circle cx="76.9384" cy="137.386" r="3.78832" stroke-width="0.5" stroke="black" fill="grey"/>
   </g>
   <g id="cell205">
  <circle cx="87.7162" cy="167.131" r="2.87383" stroke-width="0.5" stroke="black" fill="grey"/>
   </g>
   <g id="cell207">
  <circle cx="72.5988" cy="194.884" r="8.24341" stroke-width="0.5" stroke="black" fill="grey"/>
  <circle cx="72.5988" cy="194.884" r="4.76439" stroke-width="0.5" stroke="grey" fill="grey"/>
   </g>
   <g id="cell208">
  <circle cx="79.6013" cy="229.863" r="8.2772" stroke-width="0.5" stroke="black" fill="grey"/>
  <circle cx="79.6013" cy="229.863" r="4.82263" stroke-width="0.5" stroke="grey" fill="grey"/>
   </g>
   <g id="cell209">
  <circle cx="77.3847" cy="247.982" r="7.591" stroke-width="0.5" stroke="black" fill="grey"/>
  <circle cx="77.3847" cy="247.982" r="3.51694" stroke-width="0.5" stroke="grey" fill="grey"/>
   </g>
   <g id="cell212">
  <circle cx="96.9281" cy="154.038" r="3.50936" stroke-width="0.5" stroke="black" fill="grey"/>
   </g>
   <g id="cell213">
  <circle cx="95.3682" cy="169.903" r="6.60636" stroke-width="0.5" stroke="black" fill="grey"/>
   </g>
   <g id="cell214">
  <circle cx="91.5321" cy="194.234" r="8.32272" stroke-width="0.5" stroke="black" fill="grey"/>
  <circle cx="91.5321" cy="194.234" r="4.90035" stroke-width="0.5" stroke="grey" fill="grey"/>
   </g>
   <g id="cell215">
  <circle cx="102.106" cy="214.096" r="8.20821" stroke-width="0.5" stroke="black" fill="grey"/>
  <circle cx="102.106" cy="214.096" r="4.70323" stroke-width="0.5" stroke="grey" fill="grey"/>
   </g>
   <g id="cell216">
  <circle cx="92.6582" cy="225.816" r="5.90213" stroke-width="0.5" stroke="black" fill="grey"/>
   </g>
   <g id="cell218">
  <circle cx="87.9149" cy="283.387" r="8.40974" stroke-width="0.5" stroke="black" fill="grey"/>
  <circle cx="87.9149" cy="283.387" r="5.04673" stroke-width="0.5" stroke="grey" fill="grey"/>
   </g>
   <g id="cell220">
  <circle cx="111.705" cy="147.694" r="5.64908" stroke-width="0.5" stroke="black" fill="grey"/>
   </g>
   <g id="cell221">
  <circle cx="109.363" cy="170.209" r="8.27661" stroke-width="0.5" stroke="black" fill="grey"/>
  <circle cx="109.363" cy="170.209" r="4.82161" stroke-width="0.5" stroke="grey" fill="grey"/>
   </g>
   <g id="cell223">
  <circle cx="107.081" cy="195.421" r="8.2988" stroke-width="0.5" stroke="black" fill="grey"/>
  <circle cx="107.081" cy="195.421" r="4.85961" stroke-width="0.5" stroke="grey" fill="grey"/>
   </g>
   <g id="cell225">
  <circle cx="104.291" cy="235.509" r="7.46355" stroke-width="0.5" stroke="black" fill="grey"/>
  <circle cx="104.291" cy="235.509" r="3.23268" stroke-width="0.5" stroke="grey" fill="grey"/>
   </g>
   <g id="cell226">
  <circle cx="114.003" cy="252.82" r="8.36922" stroke-width="0.5" stroke="black" fill="grey"/>
  <circle cx="114.003" cy="252.82" r="4.97892" stroke-width="0.5" stroke="grey" fill="grey"/>
   </g>
   <g id="cell227">
  <circle cx="102.546" cy="286.948" r="5.97374" stroke-width="0.5" stroke="black" fill="grey"/>
   </g>
   <g id="cell228">
  <circle cx="129.635" cy="134.992" r="5.08019" stroke-width="0.5" stroke="black" fill="grey"/>
   </g>
   <g id="cell229">
  <circle cx="126.124" cy="151.356" r="8.38735" stroke-width="0.5" stroke="black" fill="grey"/>
  <circle cx="126.124" cy="151.356" r="5.00932" stroke-width="0.5" stroke="grey" fill="grey"/>
   </g>
   <g id="cell230">
  <circle cx="124.646" cy="173.934" r="8.36224" stroke-width="0.5" stroke="black" fill="grey"/>
  <circle cx="124.646" cy="173.934" r="4.96717" stroke-width="0.5" stroke="grey" fill="grey"/>
   </g>
   <g id="cell231">
  <circle cx="123.97" cy="199.696" r="7.35975" stroke-width="0.5" stroke="black" fill="grey"/>
  <circle cx="123.97" cy="199.696" r="2.98522" stroke-width="0.5" stroke="grey" fill="grey"/>
   </g>
   <g id="cell232">
  <circle cx="115.073" cy="207.179" r="5.16484" stroke-width="0.5" stroke="black" fill="grey"/>
   </g>
   <g id="cell233">
  <circle cx="119.563" cy="230.364" r="6.9735" stroke-width="0.5" stroke="black" fill="grey"/>
  <circle cx="119.563" cy="230.364" r="1.83721" stroke-width="0.5" stroke="grey" fill="grey"/>
   </g>
   <g id="cell234">
  <circle cx="129.951" cy="250.59" r="8.40232" stroke-width="0.5" stroke="black" fill="grey"/>
  <circle cx="129.951" cy="250.59" r="5.03434" stroke-width="0.5" stroke="grey" fill="grey"/>
   </g>
   <g id="cell235">
  <circle cx="112.768" cy="270.832" r="8.01804" stroke-width="0.5" stroke="black" fill="grey"/>
  <circle cx="112.768" cy="270.832" r="4.36288" stroke-width="0.5" stroke="grey" fill="grey"/>
   </g>
   <g id="cell237">
  <circle cx="147.332" cy="149.266" r="7.56332" stroke-width="0.5" stroke="black" fill="grey"/>
  <circle cx="147.332" cy="149.266" r="3.45679" stroke-width="0.5" stroke="grey" fill="grey"/>
   </g>
   <g id="cell239">
  <circle cx="150.433" cy="176.091" r="8.24327" stroke-width="0.5" stroke="black" fill="grey"/>
  <circle cx="150.433" cy="176.091" r="4.76416" stroke-width="0.5" stroke="grey" fill="grey"/>
   </g>
   <g id="cell241">
  <circle cx="129.555" cy="216.496" r="8.16691" stroke-width="0.5" stroke="black" fill="grey"/>
  <circle cx="129.555" cy="216.496" r="4.63078" stroke-width="0.5" stroke="grey" fill="grey"/>
   </g>
   <g id="cell242">
  <circle cx="142.455" cy="213.909" r="7.33037" stroke-width="0.5" stroke="black" fill="grey"/>
  <circle cx="142.455" cy="213.909" r="2.91203" stroke-width="0.5" stroke="grey" fill="grey"/>
   </g>
   <g id="cell243">
  <circle cx="151.994" cy="259.027" r="2.44284" stroke-width="0.5" stroke="black" fill="grey"/>
   </g>
   <g id="cell244">
  <circle cx="137.028" cy="279.507" r="4.39938" stroke-width="0.5" stroke="black" fill="grey"/>
   </g>
   <g id="cell245">
  <circle cx="146.615" cy="131.86" r="6.69152" stroke-width="0.5" stroke="black" fill="grey"/>
   </g>
   <g id="cell247">
  <circle cx="156.315" cy="161.491" r="8.4054" stroke-width="0.5" stroke="black" fill="grey"/>
  <circle cx="156.315" cy="161.491" r="5.03948" stroke-width="0.5" stroke="grey" fill="grey"/>
   </g>
   <g id="cell248">
  <circle cx="161.149" cy="197.775" r="7.26134" stroke-width="0.5" stroke="black" fill="grey"/>
  <circle cx="161.149" cy="197.775" r="2.73364" stroke-width="0.5" stroke="grey" fill="grey"/>
   </g>
   <g id="cell251">
  <circle cx="166.995" cy="252.225" r="5.05081" stroke-width="0.5" stroke="black" fill="grey"/>
   </g>
   <g id="cell252">
  <circle cx="163.984" cy="278.789" r="6.54258" stroke-width="0.5" stroke="black" fill="grey"/>
   </g>
   <g id="cell256">
  <circle cx="176.459" cy="197.237" r="8.41141" stroke-width="0.5" stroke="black" fill="grey"/>
  <circle cx="176.459" cy="197.237" r="5.0495" stroke-width="0.5" stroke="grey" fill="grey"/>
   </g>
   <g id="cell257">
  <circle cx="158.095" cy="216.039" r="7.60984" stroke-width="0.5" stroke="black" fill="grey"/>
  <circle cx="158.095" cy="216.039" r="3.55743" stroke-width="0.5" stroke="grey" fill="grey"/>
   </g>
   <g id="cell258">
  <circle cx="179.813" cy="241.869" r="8.35184" stroke-width="0.5" stroke="black" fill="grey"/>
  <circle cx="179.813" cy="241.869" r="4.94963" stroke-width="0.5" stroke="grey" fill="grey"/>
   </g>
   <g id="cell261">
  <circle cx="183.945" cy="185.273" r="7.1696" stroke-width="0.5" stroke="black" fill="grey"/>
  <circle cx="183.945" cy="185.273" r="2.47967" stroke-width="0.5" stroke="grey" fill="grey"/>
   </g>
   <g id="cell264">
  <circle cx="194.724" cy="231.573" r="8.2479" stroke-width="0.5" stroke="black" fill="grey"/>
  <circle cx="194.724" cy="231.573" r="4.77216" stroke-width="0.5" stroke="grey" fill="grey"/>
   </g>
   <g id="cell265">
  <circle cx="206.566" cy="241.167" r="7.49999" stroke-width="0.5" stroke="black" fill="grey"/>
  <circle cx="206.566" cy="241.167" r="3.31596" stroke-width="0.5" stroke="grey" fill="grey"/>
   </g>
   <g id="cell267">
  <circle cx="43.6546" cy="156.343" r="2.92678" stroke-width="0.5" stroke="black" fill="grey"/>
   </g>
   <g id="cell268">
  <circle cx="67.4897" cy="182.073" r="5.48683" stroke-width="0.5" stroke="black" fill="grey"/>
   </g>
   <g id="cell269">
  <circle cx="43.2491" cy="192.599" r="2.61449" stroke-width="0.5" stroke="black" fill="grey"/>
   </g>
   <g id="cell270">
  <circle cx="52.7667" cy="224.97" r="4.36559" stroke-width="0.5" stroke="black" fill="grey"/>
   </g>
   <g id="cell272">
  <circle cx="61.418" cy="155.123" r="5.68574" stroke-width="0.5" stroke="black" fill="grey"/>
   </g>
   <g id="cell275">
  <circle cx="73.232" cy="213.606" r="7.61331" stroke-width="0.5" stroke="black" fill="grey"/>
  <circle cx="73.232" cy="213.606" r="3.56484" stroke-width="0.5" stroke="grey" fill="grey"/>
   </g>
   <g id="cell276">
  <circle cx="66.2472" cy="231.864" r="3.70033" stroke-width="0.5" stroke="black" fill="grey"/>
   </g>
   <g id="cell278">
  <circle cx="96.1987" cy="138.395" r="5.60884" stroke-width="0.5" stroke="black" fill="grey"/>
   </g>
   <g id="cell287">
  <circle cx="113.678" cy="157.261" r="6.4282" stroke-width="0.5" stroke="black" fill="grey"/>
   </g>
   <g id="cell290">
  <circle cx="110.607" cy="226.662" r="4.60157" stroke-width="0.5" stroke="black" fill="grey"/>
   </g>
   <g id="cell295">
  <circle cx="110.286" cy="142.486" r="5.60101" stroke-width="0.5" stroke="black" fill="grey"/>
   </g>
   <g id="cell297">
  <circle cx="120.271" cy="186.962" r="5.70731" stroke-width="0.5" stroke="black" fill="grey"/>
   </g>
   <g id="cell302">
  <circle cx="127.867" cy="286.215" r="6.68116" stroke-width="0.5" stroke="black" fill="grey"/>
   </g>
   <g id="cell308">
  <circle cx="131.562" cy="228.883" r="1.79102" stroke-width="0.5" stroke="black" fill="grey"/>
   </g>
   <g id="cell310">
  <circle cx="140.57" cy="261.64" r="8.41138" stroke-width="0.5" stroke="black" fill="grey"/>
  <circle cx="140.57" cy="261.64" r="5.04945" stroke-width="0.5" stroke="grey" fill="grey"/>
   </g>
   <g id="cell316">
  <circle cx="148.506" cy="228.841" r="7.14522" stroke-width="0.5" stroke="black" fill="grey"/>
  <circle cx="148.506" cy="228.841" r="2.40829" stroke-width="0.5" stroke="grey" fill="grey"/>
   </g>
   <g id="cell317">
  <circle cx="145.888" cy="245.276" r="8.30559" stroke-width="0.5" stroke="black" fill="grey"/>
  <circle cx="145.888" cy="245.276" r="4.87118" stroke-width="0.5" stroke="grey" fill="grey"/>
   </g>
   <g id="cell320">
  <circle cx="168.151" cy="136.557" r="7.48109" stroke-width="0.5" stroke="black" fill="grey"/>
  <circle cx="168.151" cy="136.557" r="3.27299" stroke-width="0.5" stroke="grey" fill="grey"/>
   </g>
   <g id="cell325">
  <circle cx="173.244" cy="229.606" r="6.04836" stroke-width="0.5" stroke="black" fill="grey"/>
   </g>
   <g id="cell334">
  <circle cx="191.851" cy="194.902" r="7.79186" stroke-width="0.5" stroke="black" fill="grey"/>
  <circle cx="191.851" cy="194.902" r="3.93177" stroke-width="0.5" stroke="grey" fill="grey"/>
   </g>
   <g id="cell684">
  <circle cx="208.502" cy="181.733" r="6.69434" stroke-width="0.5" stroke="black" fill="red"/>
   </g>
   <g id="cell685">
  <circle cx="207.04" cy="198.686" r="8.22658" stroke-width="0.5" stroke="black" fill="red"/>
  <circle cx="207.04" cy="198.686" r="4.73522" stroke-width="0.5" stroke="red" fill="red"/>
   </g>
   <g id="cell687">
  <circle cx="218.309" cy="153.15" r="7.4804" stroke-width="0.5" stroke="black" fill="red"/>
  <circle cx="218.309" cy="153.15" r="3.27141" stroke-width="0.5" stroke="red" fill="red"/>
   </g>
   <g id="cell688">
  <circle cx="218.438" cy="169.94" r="7.97213" stroke-width="0.5" stroke="black" fill="red"/>
  <circle cx="218.438" cy="169.94" r="4.27792" stroke-width="0.5" stroke="red" fill="red"/>
   </g>
   <g id="cell689">
  <circle cx="222.04" cy="191.641" r="8.34024" stroke-width="0.5" stroke="black" fill="red"/>
  <circle cx="222.04" cy="191.641" r="4.93004" stroke-width="0.5" stroke="red" fill="red"/>
   </g>
   <g id="cell690">
  <circle cx="220.385" cy="206.795" r="7.96202" stroke-width="0.5" stroke="black" fill="red"/>
  <circle cx="220.385" cy="206.795" r="4.25905" stroke-width="0.5" stroke="red" fill="red"/>
   </g>
   <g id="cell691">
  <circle cx="220.885" cy="226.498" r="7.44573" stroke-width="0.5" stroke="black" fill="red"/>
  <circle cx="220.885" cy="226.498" r="3.19133" stroke-width="0.5" stroke="red" fill="red"/>
   </g>
   <g id="cell692">
  <circle cx="220.281" cy="244.568" r="8.11924" stroke-width="0.5" stroke="black" fill="red"/>
  <circle cx="220.281" cy="244.568" r="4.54617" stroke-width="0.5" stroke="red" fill="red"/>
   </g>
   <g id="cell693">
  <circle cx="234.64" cy="151.766" r="8.28358" stroke-width="0.5" stroke="black" fill="red"/>
  <circle cx="234.64" cy="151.766" r="4.83356" stroke-width="0.5" stroke="red" fill="red"/>
   </g>
   <g id="cell694">
  <circle cx="235.433" cy="167.41" r="8.20125" stroke-width="0.5" stroke="black" fill="red"/>
  <circle cx="235.433" cy="167.41" r="4.69108" stroke-width="0.5" stroke="red" fill="red"/>
   </g>
   <g id="cell695">
  <circle cx="236.734" cy="185.793" r="8.30068" stroke-width="0.5" stroke="black" fill="red"/>
  <circle cx="236.734" cy="185.793" r="4.86282" stroke-width="0.5" stroke="red" fill="red"/>
   </g>
   <g id="cell696">
  <circle cx="235.6" cy="200.974" r="7.8736" stroke-width="0.5" stroke="black" fill="red"/>
  <circle cx="235.6" cy="200.974" r="4.09135" stroke-width="0.5" stroke="red" fill="red"/>
   </g>
   <g id="cell697">
  <circle cx="233.371" cy="216.56" r="6.80849" stroke-width="0.5" stroke="black" fill="red"/>
  <circle cx="233.371" cy="216.56" r="1.04937" stroke-width="0.5" stroke="red" fill="red"/>
   </g>
   <g id="cell698">
  <circle cx="233.914" cy="237.83" r="8.261" stroke-width="0.5" stroke="black" fill="red"/>
  <circle cx="233.914" cy="237.83" r="4.79478" stroke-width="0.5" stroke="red" fill="red"/>
   </g>
   <g id="cell699">
  <circle cx="236.762" cy="254.423" r="8.39559" stroke-width="0.5" stroke="black" fill="red"/>
  <circle cx="236.762" cy="254.423" r="5.0231" stroke-width="0.5" stroke="red" fill="red"/>
   </g>
   <g id="cell700">
  <circle cx="250.459" cy="144.092" r="8.36281" stroke-width="0.5" stroke="black" fill="red"/>
  <circle cx="250.459" cy="144.092" r="4.96812" stroke-width="0.5" stroke="red" fill="red"/>
   </g>
   <g id="cell701">
  <circle cx="249.74" cy="160.181" r="8.08477" stroke-width="0.5" stroke="black" fill="red"/>
  <circle cx="249.74" cy="160.181" r="4.48432" stroke-width="0.5" stroke="red" fill="red"/>
   </g>
   <g id="cell702">
  <circle cx="248.664" cy="175.338" r="7.97487" stroke-width="0.5" stroke="black" fill="red"/>
  <circle cx="248.664" cy="175.338" r="4.28302" stroke-width="0.5" stroke="red" fill="red"/>
   </g>
   <g id="cell703">
  <circle cx="250.264" cy="194.467" r="8.39362" stroke-width="0.5" stroke="black" fill="red"/>
  <circle cx="250.264" cy="194.467" r="5.01981" stroke-width="0.5" stroke="red" fill="red"/>
   </g>
   <g id="cell704">
  <circle cx="248.534" cy="210.804" r="7.76466" stroke-width="0.5" stroke="black" fill="red"/>
  <circle cx="248.534" cy="210.804" r="3.87758" stroke-width="0.5" stroke="red" fill="red"/>
   </g>
   <g id="cell705">
  <circle cx="245.461" cy="227.734" r="6.99651" stroke-width="0.5" stroke="black" fill="red"/>
  <circle cx="245.461" cy="227.734" r="1.92271" stroke-width="0.5" stroke="red" fill="red"/>
   </g>
   <g id="cell706">
  <circle cx="248.72" cy="242.932" r="6.98393" stroke-width="0.5" stroke="black" fill="red"/>
  <circle cx="248.72" cy="242.932" r="1.87641" stroke-width="0.5" stroke="red" fill="red"/>
   </g>
   <g id="cell707">
  <circle cx="248.379" cy="266.144" r="6.20585" stroke-width="0.5" stroke="black" fill="red"/>
   </g>
   <g id="cell708">
  <circle cx="253.038" cy="126.12" r="8.16186" stroke-width="0.5" stroke="black" fill="red"/>
  <circle cx="253.038" cy="126.12" r="4.62186" stroke-width="0.5" stroke="red" fill="red"/>
   </g>
   <g id="cell709">
  <circle cx="263.722" cy="152.295" r="8.3045" stroke-width="0.5" stroke="black" fill="red"/>
  <circle cx="263.722" cy="152.295" r="4.86933" stroke-width="0.5" stroke="red" fill="red"/>
   </g>
   <g id="cell710">
  <circle cx="264.176" cy="168.479" r="7.99791" stroke-width="0.5" stroke="black" fill="red"/>
  <circle cx="264.176" cy="168.479" r="4.32577" stroke-width="0.5" stroke="red" fill="red"/>
   </g>
   <g id="cell711">
  <circle cx="262.787" cy="184.576" r="8.36852" stroke-width="0.5" stroke="black" fill="red"/>
  <circle cx="262.787" cy="184.576" r="4.97773" stroke-width="0.5" stroke="red" fill="red"/>
   </g>
   <g id="cell712">
  <circle cx="264.356" cy="203.847" r="7.7545" stroke-width="0.5" stroke="black" fill="red"/>
  <circle cx="264.356" cy="203.847" r="3.85719" stroke-width="0.5" stroke="red" fill="red"/>
   </g>
   <g id="cell713">
  <circle cx="262.247" cy="219.854" r="8.26514" stroke-width="0.5" stroke="black" fill="red"/>
  <circle cx="262.247" cy="219.854" r="4.80189" stroke-width="0.5" stroke="red" fill="red"/>
   </g>
   <g id="cell714">
  <circle cx="262.931" cy="236.313" r="8.38269" stroke-width="0.5" stroke="black" fill="red"/>
  <circle cx="262.931" cy="236.313" r="5.00152" stroke-width="0.5" stroke="red" fill="red"/>
   </g>
   <g id="cell715">
  <circle cx="260.245" cy="253.55" r="8.0945" stroke-width="0.5" stroke="black" fill="red"/>
  <circle cx="260.245" cy="253.55" r="4.50185" stroke-width="0.5" stroke="red" fill="red"/>
   </g>
   <g id="cell716">
  <circle cx="264.039" cy="268.934" r="7.66336" stroke-width="0.5" stroke="black" fill="red"/>
  <circle cx="264.039" cy="268.934" r="3.67053" stroke-width="0.5" stroke="red" fill="red"/>
   </g>
   <g id="cell717">
  <circle cx="277.483" cy="134.899" r="8.40899" stroke-width="0.5" stroke="black" fill="red"/>
  <circle cx="277.483" cy="134.899" r="5.04547" stroke-width="0.5" stroke="red" fill="red"/>
   </g>
   <g id="cell718">
  <circle cx="277.579" cy="161.61" r="7.87888" stroke-width="0.5" stroke="black" fill="red"/>
  <circle cx="277.579" cy="161.61" r="4.10151" stroke-width="0.5" stroke="red" fill="red"/>
   </g>
   <g id="cell719">
  <circle cx="277.017" cy="177.393" r="8.38278" stroke-width="0.5" stroke="black" fill="red"/>
  <circle cx="277.017" cy="177.393" r="5.00166" stroke-width="0.5" stroke="red" fill="red"/>
   </g>
   <g id="cell720">
  <circle cx="275.203" cy="193.36" r="8.41213" stroke-width="0.5" stroke="black" fill="red"/>
  <circle cx="275.203" cy="193.36" r="5.0507" stroke-width="0.5" stroke="red" fill="red"/>
   </g>
   <g id="cell721">
  <circle cx="278.936" cy="210.904" r="8.38018" stroke-width="0.5" stroke="black" fill="red"/>
  <circle cx="278.936" cy="210.904" r="4.99731" stroke-width="0.5" stroke="red" fill="red"/>
   </g>
   <g id="cell722">
  <circle cx="276.377" cy="226.487" r="8.34131" stroke-width="0.5" stroke="black" fill="red"/>
  <circle cx="276.377" cy="226.487" r="4.93186" stroke-width="0.5" stroke="red" fill="red"/>
   </g>
   <g id="cell723">
  <circle cx="277.402" cy="243.58" r="8.15201" stroke-width="0.5" stroke="black" fill="red"/>
  <circle cx="277.402" cy="243.58" r="4.60445" stroke-width="0.5" stroke="red" fill="red"/>
   </g>
   <g id="cell724">
  <circle cx="276.367" cy="259.394" r="8.28979" stroke-width="0.5" stroke="black" fill="red"/>
  <circle cx="276.367" cy="259.394" r="4.8442" stroke-width="0.5" stroke="red" fill="red"/>
   </g>
   <g id="cell725">
  <circle cx="291.316" cy="126.483" r="8.36752" stroke-width="0.5" stroke="black" fill="red"/>
  <circle cx="291.316" cy="126.483" r="4.97605" stroke-width="0.5" stroke="red" fill="red"/>
   </g>
   <g id="cell726">
  <circle cx="290.635" cy="152.294" r="8.38613" stroke-width="0.5" stroke="black" fill="red"/>
  <circle cx="290.635" cy="152.294" r="5.00727" stroke-width="0.5" stroke="red" fill="red"/>
   </g>
   <g id="cell727">
  <circle cx="291.214" cy="168.29" r="8.23787" stroke-width="0.5" stroke="black" fill="red"/>
  <circle cx="291.214" cy="168.29" r="4.7548" stroke-width="0.5" stroke="red" fill="red"/>
   </g>
   <g id="cell728">
  <circle cx="292.038" cy="183.896" r="8.39308" stroke-width="0.5" stroke="black" fill="red"/>
  <circle cx="292.038" cy="183.896" r="5.01891" stroke-width="0.5" stroke="red" fill="red"/>
   </g>
   <g id="cell729">
  <circle cx="291.632" cy="199.937" r="8.3574" stroke-width="0.5" stroke="black" fill="red"/>
  <circle cx="291.632" cy="199.937" r="4.95901" stroke-width="0.5" stroke="red" fill="red"/>
   </g>
   <g id="cell730">
  <circle cx="292.94" cy="218.147" r="8.2606" stroke-width="0.5" stroke="black" fill="red"/>
  <circle cx="292.94" cy="218.147" r="4.79407" stroke-width="0.5" stroke="red" fill="red"/>
   </g>
   <g id="cell731">
  <circle cx="292.984" cy="235.898" r="8.4125" stroke-width="0.5" stroke="black" fill="red"/>
  <circle cx="292.984" cy="235.898" r="5.05132" stroke-width="0.5" stroke="red" fill="red"/>
   </g>
   <g id="cell732">
  <circle cx="291.621" cy="252.457" r="8.25861" stroke-width="0.5" stroke="black" fill="red"/>
  <circle cx="291.621" cy="252.457" r="4.79065" stroke-width="0.5" stroke="red" fill="red"/>
   </g>
   <g id="cell733">
  <circle cx="287.81" cy="269.969" r="7.79814" stroke-width="0.5" stroke="black" fill="red"/>
  <circle cx="287.81" cy="269.969" r="3.94419" stroke-width="0.5" stroke="red" fill="red"/>
   </g>
   <g id="cell734">
  <circle cx="300.497" cy="140.339" r="6.56435" stroke-width="0.5" stroke="black" fill="red"/>
   </g>
   <g id="cell736">
  <circle cx="305.44" cy="176.337" r="8.41242" stroke-width="0.5" stroke="black" fill="red"/>
  <circle cx="305.44" cy="176.337" r="5.05118" stroke-width="0.5" stroke="red" fill="red"/>
   </g>
   <g id="cell737">
  <circle cx="305.818" cy="192.882" r="8.24264" stroke-width="0.5" stroke="black" fill="red"/>
  <circle cx="305.818" cy="192.882" r="4.76306" stroke-width="0.5" stroke="red" fill="red"/>
   </g>
   <g id="cell738">
  <circle cx="305.375" cy="209.018" r="8.2966" stroke-width="0.5" stroke="black" fill="red"/>
  <circle cx="305.375" cy="209.018" r="4.85585" stroke-width="0.5" stroke="red" fill="red"/>
   </g>
   <g id="cell739">
  <circle cx="306.955" cy="227.078" r="8.40275" stroke-width="0.5" stroke="black" fill="red"/>
  <circle cx="306.955" cy="227.078" r="5.03507" stroke-width="0.5" stroke="red" fill="red"/>
   </g>
   <g id="cell740">
  <circle cx="306.673" cy="243.043" r="8.33281" stroke-width="0.5" stroke="black" fill="red"/>
  <circle cx="306.673" cy="243.043" r="4.91745" stroke-width="0.5" stroke="red" fill="red"/>
   </g>
   <g id="cell741">
  <circle cx="306.877" cy="257.58" r="6.57736" stroke-width="0.5" stroke="black" fill="red"/>
   </g>
   <g id="cell742">
  <circle cx="313.455" cy="151.214" r="8.04473" stroke-width="0.5" stroke="black" fill="red"/>
  <circle cx="313.455" cy="151.214" r="4.41174" stroke-width="0.5" stroke="red" fill="red"/>
   </g>
   <g id="cell743">
  <circle cx="319.111" cy="168.957" r="8.36399" stroke-width="0.5" stroke="black" fill="red"/>
  <circle cx="319.111" cy="168.957" r="4.97011" stroke-width="0.5" stroke="red" fill="red"/>
   </g>
   <g id="cell744">
  <circle cx="319.643" cy="185.022" r="7.91631" stroke-width="0.5" stroke="black" fill="red"/>
  <circle cx="319.643" cy="185.022" r="4.17297" stroke-width="0.5" stroke="red" fill="red"/>
   </g>
   <g id="cell745">
  <circle cx="319.968" cy="201.186" r="7.84415" stroke-width="0.5" stroke="black" fill="red"/>
  <circle cx="319.968" cy="201.186" r="4.03439" stroke-width="0.5" stroke="red" fill="red"/>
   </g>
   <g id="cell746">
  <circle cx="320.475" cy="219.258" r="8.32552" stroke-width="0.5" stroke="black" fill="red"/>
  <circle cx="320.475" cy="219.258" r="4.9051" stroke-width="0.5" stroke="red" fill="red"/>
   </g>
   <g id="cell747">
  <circle cx="320.789" cy="234.364" r="7.29542" stroke-width="0.5" stroke="black" fill="red"/>
  <circle cx="320.789" cy="234.364" r="2.82291" stroke-width="0.5" stroke="red" fill="red"/>
   </g>
   <g id="cell748">
  <circle cx="321.055" cy="250.496" r="7.38945" stroke-width="0.5" stroke="black" fill="red"/>
  <circle cx="321.055" cy="250.496" r="3.05772" stroke-width="0.5" stroke="red" fill="red"/>
   </g>
   <g id="cell749">
  <circle cx="332.483" cy="158.829" r="7.68115" stroke-width="0.5" stroke="black" fill="red"/>
  <circle cx="332.483" cy="158.829" r="3.70753" stroke-width="0.5" stroke="red" fill="red"/>
   </g>
   <g id="cell750">
  <circle cx="337.92" cy="174.819" r="7.17318" stroke-width="0.5" stroke="black" fill="red"/>
  <circle cx="337.92" cy="174.819" r="2.49002" stroke-width="0.5" stroke="red" fill="red"/>
   </g>
   <g id="cell751">
  <circle cx="344.705" cy="191.96" r="8.38337" stroke-width="0.5" stroke="black" fill="red"/>
  <circle cx="344.705" cy="191.96" r="5.00265" stroke-width="0.5" stroke="red" fill="red"/>
   </g>
   <g id="cell752">
  <circle cx="335.524" cy="211.365" r="8.28686" stroke-width="0.5" stroke="black" fill="red"/>
  <circle cx="335.524" cy="211.365" r="4.83918" stroke-width="0.5" stroke="red" fill="red"/>
   </g>
   <g id="cell753">
  <circle cx="339.318" cy="227.184" r="6.04157" stroke-width="0.5" stroke="black" fill="red"/>
   </g>
   <g id="cell754">
  <circle cx="335.084" cy="240.781" r="8.4123" stroke-width="0.5" stroke="black" fill="red"/>
  <circle cx="335.084" cy="240.781" r="5.05099" stroke-width="0.5" stroke="red" fill="red"/>
   </g>
   <g id="cell755">
  <circle cx="351.807" cy="205.117" r="4.61671" stroke-width="0.5" stroke="black" fill="red"/>
   </g>
   <g id="cell759">
  <circle cx="216.491" cy="217.905" r="3.23477" stroke-width="0.5" stroke="black" fill="red"/>
   </g>
   <g id="cell760">
  <circle cx="212.99" cy="233.071" r="3.69793" stroke-width="0.5" stroke="black" fill="red"/>
   </g>
   <g id="cell808">
  <circle cx="300.457" cy="265.892" r="5.92931" stroke-width="0.5" stroke="black" fill="red"/>
   </g>
   <g id="cell818">
  <circle cx="332.009" cy="184.518" r="5.72469" stroke-width="0.5" stroke="black" fill="red"/>
   </g>
  </g>
 </g>
  <rect x="190" y="414" width="200" height="4" stroke-width="0.8" stroke="rgb(255,255,255)" fill="rgb(0,0,0)"/>
  <text x="192.5" y="411.5"
   font-family="Arial" font-size="10" fill="black" >
   200 &#956;m
  </text>
  <text x="10" y="418"
   font-family="Arial" font-size="7.5" fill="black" >
   0 days, 0 hours, 1 minutes, and 2.8371 seconds
  </text>
  <rect x="0" y="28" width="400" height="400" stroke-width="0.8" stroke="rgb(0,0,0)" fill="none"/>
</svg>
