<?xml version="1.0" encoding="UTF-8" standalone="no"?>
<!-- Created with PhysiCell (http://PhysiCell.MathCancer.org/) -->
<svg 
 xmlns:dc="http://purl.org/dc/elements/1.1/" 
 xmlns:cc="http://creativecommons.org/ns#" 
 xmlns:rdf="http://www.w3.org/1999/02/22-rdf-syntax-ns#" 
 xmlns:svg="http://www.w3.org/2000/svg" 
 xmlns="http://www.w3.org/2000/svg" 
 version="1.1" 
 width="400" 
 height="428" 
 id="svg2">
  <rect x="0" y="0" width="400" height="428" stroke-width="0.8" stroke="white" fill="white"/>
  <text x="5" y="12"
   font-family="Arial" font-size="10" fill="black" >
   Current time: 2 days, 8 hours, and 0.00 minutes, z = 0.00 &#956;m
  </text>
  <text x="5" y="23"
   font-family="Arial" font-size="9.5" fill="black" >
   978 agents
  </text>
 <g id="tissue" 
    transform="translate(0,428) scale(1,-1)">
  <g id="ECM">
  </g>
  <g id="cells">
   <g id="cell60">
  <circle cx="151.069" cy="257.494" r="6.97939" stroke-width="0.5" stroke="black" fill="grey"/>
  <circle cx="151.069" cy="257.494" r="1.85947" stroke-width="0.5" stroke="grey" fill="grey"/>
   </g>
   <g id="cell87">
  <circle cx="146.446" cy="315.461" r="7.81455" stroke-width="0.5" stroke="black" fill="grey"/>
  <circle cx="146.446" cy="315.461" r="3.97654" stroke-width="0.5" stroke="grey" fill="grey"/>
   </g>
   <g id="cell91">
  <circle cx="79.3821" cy="174.955" r="3.99651" stroke-width="0.5" stroke="black" fill="grey"/>
   </g>
   <g id="cell97">
  <circle cx="145.985" cy="111.193" r="4.40845" stroke-width="0.5" stroke="black" fill="grey"/>
   </g>
   <g id="cell130">
  <circle cx="31.2685" cy="179.698" r="8.26109" stroke-width="0.5" stroke="black" fill="grey"/>
  <circle cx="31.2685" cy="179.698" r="4.79492" stroke-width="0.5" stroke="grey" fill="grey"/>
   </g>
   <g id="cell134">
  <circle cx="45.0942" cy="133.16" r="7.88408" stroke-width="0.5" stroke="black" fill="grey"/>
  <circle cx="45.0942" cy="133.16" r="4.11149" stroke-width="0.5" stroke="grey" fill="grey"/>
   </g>
   <g id="cell136">
  <circle cx="61.8568" cy="179.67" r="7.03162" stroke-width="0.5" stroke="black" fill="grey"/>
  <circle cx="61.8568" cy="179.67" r="2.04678" stroke-width="0.5" stroke="grey" fill="grey"/>
   </g>
   <g id="cell137">
  <circle cx="59.9517" cy="219.032" r="6.56108" stroke-width="0.5" stroke="black" fill="grey"/>
   </g>
   <g id="cell140">
  <circle cx="68.9923" cy="144.83" r="7.92207" stroke-width="0.5" stroke="black" fill="grey"/>
  <circle cx="68.9923" cy="144.83" r="4.18388" stroke-width="0.5" stroke="grey" fill="grey"/>
   </g>
   <g id="cell144">
  <circle cx="77.2162" cy="225.233" r="8.23625" stroke-width="0.5" stroke="black" fill="grey"/>
  <circle cx="77.2162" cy="225.233" r="4.752" stroke-width="0.5" stroke="grey" fill="grey"/>
   </g>
   <g id="cell146">
  <circle cx="41.1858" cy="257.484" r="4.78687" stroke-width="0.5" stroke="black" fill="grey"/>
   </g>
   <g id="cell149">
  <circle cx="138.748" cy="189.397" r="5.56819" stroke-width="0.5" stroke="black" fill="grey"/>
   </g>
   <g id="cell154">
  <circle cx="80.8001" cy="302.904" r="8.40239" stroke-width="0.5" stroke="black" fill="grey"/>
  <circle cx="80.8001" cy="302.904" r="5.03446" stroke-width="0.5" stroke="grey" fill="grey"/>
   </g>
   <g id="cell162">
  <circle cx="102.698" cy="275.802" r="2.10764" stroke-width="0.5" stroke="black" fill="grey"/>
   </g>
   <g id="cell165">
  <circle cx="137.625" cy="132.073" r="6.3196" stroke-width="0.5" stroke="black" fill="grey"/>
   </g>
   <g id="cell170">
  <circle cx="151.94" cy="293.165" r="8.41127" stroke-width="0.5" stroke="black" fill="grey"/>
  <circle cx="151.94" cy="293.165" r="5.04928" stroke-width="0.5" stroke="grey" fill="grey"/>
   </g>
   <g id="cell178">
  <circle cx="147.779" cy="238.652" r="8.25901" stroke-width="0.5" stroke="black" fill="grey"/>
  <circle cx="147.779" cy="238.652" r="4.79134" stroke-width="0.5" stroke="grey" fill="grey"/>
   </g>
   <g id="cell179">
  <circle cx="146.98" cy="276.784" r="7.21616" stroke-width="0.5" stroke="black" fill="grey"/>
  <circle cx="146.98" cy="276.784" r="2.61126" stroke-width="0.5" stroke="grey" fill="grey"/>
   </g>
   <g id="cell181">
  <circle cx="165.699" cy="137.022" r="5.87691" stroke-width="0.5" stroke="black" fill="grey"/>
   </g>
   <g id="cell184">
  <circle cx="189.711" cy="238.548" r="2.77365" stroke-width="0.5" stroke="black" fill="grey"/>
   </g>
   <g id="cell185">
  <circle cx="176.6" cy="252.075" r="5.80678" stroke-width="0.5" stroke="black" fill="grey"/>
   </g>
   <g id="cell189">
  <circle cx="170.682" cy="146.77" r="4.059" stroke-width="0.5" stroke="black" fill="grey"/>
   </g>
   <g id="cell196">
  <circle cx="16.8798" cy="232.38" r="6.30276" stroke-width="0.5" stroke="black" fill="grey"/>
   </g>
   <g id="cell202">
  <circle cx="45.8214" cy="197.558" r="5.50635" stroke-width="0.5" stroke="black" fill="grey"/>
   </g>
   <g id="cell204">
  <circle cx="94.2752" cy="88.4898" r="8.20881" stroke-width="0.5" stroke="black" fill="grey"/>
  <circle cx="94.2752" cy="88.4898" r="4.70428" stroke-width="0.5" stroke="grey" fill="grey"/>
   </g>
   <g id="cell206">
  <circle cx="55.3036" cy="145.62" r="0.22587" stroke-width="0.5" stroke="black" fill="grey"/>
   </g>
   <g id="cell207">
  <circle cx="62.4857" cy="201.295" r="7.17392" stroke-width="0.5" stroke="black" fill="grey"/>
  <circle cx="62.4857" cy="201.295" r="2.49215" stroke-width="0.5" stroke="grey" fill="grey"/>
   </g>
   <g id="cell211">
  <circle cx="83.0243" cy="107.807" r="6.6414" stroke-width="0.5" stroke="black" fill="grey"/>
   </g>
   <g id="cell219">
  <circle cx="58.5209" cy="124.78" r="8.18619" stroke-width="0.5" stroke="black" fill="grey"/>
  <circle cx="58.5209" cy="124.78" r="4.66469" stroke-width="0.5" stroke="grey" fill="grey"/>
   </g>
   <g id="cell222">
  <circle cx="71.4461" cy="198.973" r="4.76074" stroke-width="0.5" stroke="black" fill="grey"/>
   </g>
   <g id="cell224">
  <circle cx="73.3041" cy="248.771" r="7.00466" stroke-width="0.5" stroke="black" fill="grey"/>
  <circle cx="73.3041" cy="248.771" r="1.95217" stroke-width="0.5" stroke="grey" fill="grey"/>
   </g>
   <g id="cell230">
  <circle cx="132.872" cy="176.002" r="8.35039" stroke-width="0.5" stroke="black" fill="grey"/>
  <circle cx="132.872" cy="176.002" r="4.9472" stroke-width="0.5" stroke="grey" fill="grey"/>
   </g>
   <g id="cell231">
  <circle cx="146.742" cy="221.938" r="8.01045" stroke-width="0.5" stroke="black" fill="grey"/>
  <circle cx="146.742" cy="221.938" r="4.34891" stroke-width="0.5" stroke="grey" fill="grey"/>
   </g>
   <g id="cell233">
  <circle cx="96.4928" cy="236.33" r="8.34173" stroke-width="0.5" stroke="black" fill="grey"/>
  <circle cx="96.4928" cy="236.33" r="4.93256" stroke-width="0.5" stroke="grey" fill="grey"/>
   </g>
   <g id="cell237">
  <circle cx="153.65" cy="144.114" r="8.09145" stroke-width="0.5" stroke="black" fill="grey"/>
  <circle cx="153.65" cy="144.114" r="4.49636" stroke-width="0.5" stroke="grey" fill="grey"/>
   </g>
   <g id="cell241">
  <circle cx="136.708" cy="210.836" r="7.91004" stroke-width="0.5" stroke="black" fill="grey"/>
  <circle cx="136.708" cy="210.836" r="4.16106" stroke-width="0.5" stroke="grey" fill="grey"/>
   </g>
   <g id="cell244">
  <circle cx="124.97" cy="276.819" r="1.34041" stroke-width="0.5" stroke="black" fill="grey"/>
   </g>
   <g id="cell250">
  <circle cx="111.207" cy="234.33" r="8.27362" stroke-width="0.5" stroke="black" fill="grey"/>
  <circle cx="111.207" cy="234.33" r="4.81648" stroke-width="0.5" stroke="grey" fill="grey"/>
   </g>
   <g id="cell253">
  <circle cx="201.209" cy="113.477" r="7.12916" stroke-width="0.5" stroke="black" fill="grey"/>
  <circle cx="201.209" cy="113.477" r="2.36021" stroke-width="0.5" stroke="grey" fill="grey"/>
   </g>
   <g id="cell254">
  <circle cx="186.284" cy="145.816" r="7.83022" stroke-width="0.5" stroke="black" fill="grey"/>
  <circle cx="186.284" cy="145.816" r="4.00725" stroke-width="0.5" stroke="grey" fill="grey"/>
   </g>
   <g id="cell262">
  <circle cx="191.293" cy="206.958" r="6.80545" stroke-width="0.5" stroke="black" fill="grey"/>
  <circle cx="191.293" cy="206.958" r="1.02947" stroke-width="0.5" stroke="grey" fill="grey"/>
   </g>
   <g id="cell264">
  <circle cx="212.569" cy="275.852" r="7.0916" stroke-width="0.5" stroke="black" fill="grey"/>
  <circle cx="212.569" cy="275.852" r="2.2442" stroke-width="0.5" stroke="grey" fill="grey"/>
   </g>
   <g id="cell267">
  <circle cx="65.0494" cy="79.9248" r="6.21545" stroke-width="0.5" stroke="black" fill="grey"/>
   </g>
   <g id="cell269">
  <circle cx="17.1483" cy="203.715" r="5.93681" stroke-width="0.5" stroke="black" fill="grey"/>
   </g>
   <g id="cell280">
  <circle cx="119.112" cy="140.62" r="4.71367" stroke-width="0.5" stroke="black" fill="grey"/>
   </g>
   <g id="cell283">
  <circle cx="96.6429" cy="202.883" r="6.88993" stroke-width="0.5" stroke="black" fill="grey"/>
  <circle cx="96.6429" cy="202.883" r="1.48889" stroke-width="0.5" stroke="grey" fill="grey"/>
   </g>
   <g id="cell286">
  <circle cx="100.161" cy="133.061" r="7.33305" stroke-width="0.5" stroke="black" fill="grey"/>
  <circle cx="100.161" cy="133.061" r="2.91878" stroke-width="0.5" stroke="grey" fill="grey"/>
   </g>
   <g id="cell290">
  <circle cx="109.399" cy="250.069" r="8.41267" stroke-width="0.5" stroke="black" fill="grey"/>
  <circle cx="109.399" cy="250.069" r="5.0516" stroke-width="0.5" stroke="grey" fill="grey"/>
   </g>
   <g id="cell292">
  <circle cx="62.2767" cy="238.188" r="4.39298" stroke-width="0.5" stroke="black" fill="grey"/>
   </g>
   <g id="cell293">
  <circle cx="125.426" cy="260.425" r="4.78518" stroke-width="0.5" stroke="black" fill="grey"/>
   </g>
   <g id="cell296">
  <circle cx="124.729" cy="155.935" r="8.40675" stroke-width="0.5" stroke="black" fill="grey"/>
  <circle cx="124.729" cy="155.935" r="5.04173" stroke-width="0.5" stroke="grey" fill="grey"/>
   </g>
   <g id="cell299">
  <circle cx="159.513" cy="229.476" r="8.40852" stroke-width="0.5" stroke="black" fill="grey"/>
  <circle cx="159.513" cy="229.476" r="5.04469" stroke-width="0.5" stroke="grey" fill="grey"/>
   </g>
   <g id="cell305">
  <circle cx="162.034" cy="180.854" r="8.40339" stroke-width="0.5" stroke="black" fill="grey"/>
  <circle cx="162.034" cy="180.854" r="5.03614" stroke-width="0.5" stroke="grey" fill="grey"/>
   </g>
   <g id="cell306">
  <circle cx="114.023" cy="210.058" r="7.60866" stroke-width="0.5" stroke="black" fill="grey"/>
  <circle cx="114.023" cy="210.058" r="3.55491" stroke-width="0.5" stroke="grey" fill="grey"/>
   </g>
   <g id="cell314">
  <circle cx="151.49" cy="206.725" r="8.22354" stroke-width="0.5" stroke="black" fill="grey"/>
  <circle cx="151.49" cy="206.725" r="4.72993" stroke-width="0.5" stroke="grey" fill="grey"/>
   </g>
   <g id="cell316">
  <circle cx="181.974" cy="264.04" r="6.27286" stroke-width="0.5" stroke="black" fill="grey"/>
   </g>
   <g id="cell334">
  <circle cx="166.913" cy="212.649" r="7.4941" stroke-width="0.5" stroke="black" fill="grey"/>
  <circle cx="166.913" cy="212.649" r="3.3026" stroke-width="0.5" stroke="grey" fill="grey"/>
   </g>
   <g id="cell350">
  <circle cx="94.3308" cy="164.151" r="6.63805" stroke-width="0.5" stroke="black" fill="grey"/>
   </g>
   <g id="cell362">
  <circle cx="89.5317" cy="263.659" r="6.70543" stroke-width="0.5" stroke="black" fill="grey"/>
   </g>
   <g id="cell382">
  <circle cx="120.394" cy="187.163" r="8.15065" stroke-width="0.5" stroke="black" fill="grey"/>
  <circle cx="120.394" cy="187.163" r="4.60204" stroke-width="0.5" stroke="grey" fill="grey"/>
   </g>
   <g id="cell386">
  <circle cx="160.751" cy="245.598" r="7.77839" stroke-width="0.5" stroke="black" fill="grey"/>
  <circle cx="160.751" cy="245.598" r="3.90501" stroke-width="0.5" stroke="grey" fill="grey"/>
   </g>
   <g id="cell390">
  <circle cx="188.187" cy="176.898" r="7.70199" stroke-width="0.5" stroke="black" fill="grey"/>
  <circle cx="188.187" cy="176.898" r="3.75051" stroke-width="0.5" stroke="grey" fill="grey"/>
   </g>
   <g id="cell403">
  <circle cx="58.4332" cy="225.827" r="2.36898" stroke-width="0.5" stroke="black" fill="grey"/>
   </g>
   <g id="cell414">
  <circle cx="79.9413" cy="155.64" r="8.06266" stroke-width="0.5" stroke="black" fill="grey"/>
  <circle cx="79.9413" cy="155.64" r="4.44434" stroke-width="0.5" stroke="grey" fill="grey"/>
   </g>
   <g id="cell441">
  <circle cx="164.818" cy="269.872" r="6.19453" stroke-width="0.5" stroke="black" fill="grey"/>
   </g>
   <g id="cell569">
  <circle cx="245.921" cy="118.434" r="8.33797" stroke-width="0.5" stroke="black" fill="red"/>
  <circle cx="245.921" cy="118.434" r="4.9262" stroke-width="0.5" stroke="red" fill="red"/>
   </g>
   <g id="cell621">
  <circle cx="205.995" cy="216.025" r="7.62158" stroke-width="0.5" stroke="black" fill="red"/>
  <circle cx="205.995" cy="216.025" r="3.58247" stroke-width="0.5" stroke="red" fill="red"/>
   </g>
   <g id="cell623">
  <circle cx="221.993" cy="164.65" r="6.55958" stroke-width="0.5" stroke="black" fill="red"/>
   </g>
   <g id="cell624">
  <circle cx="222.985" cy="177.019" r="6.542" stroke-width="0.5" stroke="black" fill="red"/>
   </g>
   <g id="cell629">
  <circle cx="240.791" cy="141.705" r="8.41069" stroke-width="0.5" stroke="black" fill="red"/>
  <circle cx="240.791" cy="141.705" r="5.04831" stroke-width="0.5" stroke="red" fill="red"/>
   </g>
   <g id="cell653">
  <circle cx="282.626" cy="131.621" r="8.23181" stroke-width="0.5" stroke="black" fill="red"/>
  <circle cx="282.626" cy="131.621" r="4.74429" stroke-width="0.5" stroke="red" fill="red"/>
   </g>
   <g id="cell661">
  <circle cx="314.628" cy="121.269" r="7.60862" stroke-width="0.5" stroke="black" fill="red"/>
  <circle cx="314.628" cy="121.269" r="3.55483" stroke-width="0.5" stroke="red" fill="red"/>
   </g>
   <g id="cell671">
  <circle cx="314.531" cy="175.986" r="5.68882" stroke-width="0.5" stroke="black" fill="red"/>
   </g>
   <g id="cell676">
  <circle cx="322.007" cy="283.232" r="8.41033" stroke-width="0.5" stroke="black" fill="red"/>
  <circle cx="322.007" cy="283.232" r="5.0477" stroke-width="0.5" stroke="red" fill="red"/>
   </g>
   <g id="cell684">
  <circle cx="215.952" cy="182.695" r="3.78164" stroke-width="0.5" stroke="black" fill="red"/>
   </g>
   <g id="cell686">
  <circle cx="183.238" cy="217.632" r="6.65014" stroke-width="0.5" stroke="black" fill="red"/>
   </g>
   <g id="cell687">
  <circle cx="213.837" cy="154.25" r="7.51491" stroke-width="0.5" stroke="black" fill="red"/>
  <circle cx="213.837" cy="154.25" r="3.34956" stroke-width="0.5" stroke="red" fill="red"/>
   </g>
   <g id="cell693">
  <circle cx="225.181" cy="142.581" r="8.12236" stroke-width="0.5" stroke="black" fill="red"/>
  <circle cx="225.181" cy="142.581" r="4.55176" stroke-width="0.5" stroke="red" fill="red"/>
   </g>
   <g id="cell694">
  <circle cx="236.388" cy="169.839" r="8.10179" stroke-width="0.5" stroke="black" fill="red"/>
  <circle cx="236.388" cy="169.839" r="4.51494" stroke-width="0.5" stroke="red" fill="red"/>
   </g>
   <g id="cell695">
  <circle cx="232.238" cy="184.577" r="7.57005" stroke-width="0.5" stroke="black" fill="red"/>
  <circle cx="232.238" cy="184.577" r="3.47151" stroke-width="0.5" stroke="red" fill="red"/>
   </g>
   <g id="cell697">
  <circle cx="236.839" cy="217.072" r="8.25421" stroke-width="0.5" stroke="black" fill="red"/>
  <circle cx="236.839" cy="217.072" r="4.78306" stroke-width="0.5" stroke="red" fill="red"/>
   </g>
   <g id="cell700">
  <circle cx="233.751" cy="155.333" r="7.97966" stroke-width="0.5" stroke="black" fill="red"/>
  <circle cx="233.751" cy="155.333" r="4.29193" stroke-width="0.5" stroke="red" fill="red"/>
   </g>
   <g id="cell701">
  <circle cx="254.173" cy="155.164" r="3.76516" stroke-width="0.5" stroke="black" fill="red"/>
   </g>
   <g id="cell702">
  <circle cx="253.309" cy="171.64" r="8.14861" stroke-width="0.5" stroke="black" fill="red"/>
  <circle cx="253.309" cy="171.64" r="4.59843" stroke-width="0.5" stroke="red" fill="red"/>
   </g>
   <g id="cell703">
  <circle cx="246.266" cy="192.373" r="7.0388" stroke-width="0.5" stroke="black" fill="red"/>
  <circle cx="246.266" cy="192.373" r="2.07134" stroke-width="0.5" stroke="red" fill="red"/>
   </g>
   <g id="cell704">
  <circle cx="251.054" cy="207.962" r="6.97763" stroke-width="0.5" stroke="black" fill="red"/>
  <circle cx="251.054" cy="207.962" r="1.85283" stroke-width="0.5" stroke="red" fill="red"/>
   </g>
   <g id="cell706">
  <circle cx="250.568" cy="250.261" r="7.60864" stroke-width="0.5" stroke="black" fill="red"/>
  <circle cx="250.568" cy="250.261" r="3.55486" stroke-width="0.5" stroke="red" fill="red"/>
   </g>
   <g id="cell709">
  <circle cx="259.871" cy="140.192" r="6.03207" stroke-width="0.5" stroke="black" fill="red"/>
   </g>
   <g id="cell711">
  <circle cx="268.224" cy="187.097" r="5.76036" stroke-width="0.5" stroke="black" fill="red"/>
   </g>
   <g id="cell712">
  <circle cx="265.28" cy="201.64" r="8.39911" stroke-width="0.5" stroke="black" fill="red"/>
  <circle cx="265.28" cy="201.64" r="5.02899" stroke-width="0.5" stroke="red" fill="red"/>
   </g>
   <g id="cell713">
  <circle cx="262.817" cy="219.75" r="7.69761" stroke-width="0.5" stroke="black" fill="red"/>
  <circle cx="262.817" cy="219.75" r="3.7415" stroke-width="0.5" stroke="red" fill="red"/>
   </g>
   <g id="cell715">
  <circle cx="266.074" cy="243.526" r="7.65289" stroke-width="0.5" stroke="black" fill="red"/>
  <circle cx="266.074" cy="243.526" r="3.64862" stroke-width="0.5" stroke="red" fill="red"/>
   </g>
   <g id="cell717">
  <circle cx="260.067" cy="123.897" r="5.56281" stroke-width="0.5" stroke="black" fill="red"/>
   </g>
   <g id="cell718">
  <circle cx="283.177" cy="147.856" r="8.19878" stroke-width="0.5" stroke="black" fill="red"/>
  <circle cx="283.177" cy="147.856" r="4.68676" stroke-width="0.5" stroke="red" fill="red"/>
   </g>
   <g id="cell719">
  <circle cx="283.134" cy="183.137" r="7.6532" stroke-width="0.5" stroke="black" fill="red"/>
  <circle cx="283.134" cy="183.137" r="3.64927" stroke-width="0.5" stroke="red" fill="red"/>
   </g>
   <g id="cell720">
  <circle cx="280.145" cy="196.716" r="7.6717" stroke-width="0.5" stroke="black" fill="red"/>
  <circle cx="280.145" cy="196.716" r="3.68791" stroke-width="0.5" stroke="red" fill="red"/>
   </g>
   <g id="cell721">
  <circle cx="278.363" cy="211.782" r="8.32248" stroke-width="0.5" stroke="black" fill="red"/>
  <circle cx="278.363" cy="211.782" r="4.89993" stroke-width="0.5" stroke="red" fill="red"/>
   </g>
   <g id="cell722">
  <circle cx="277.092" cy="226.732" r="7.4338" stroke-width="0.5" stroke="black" fill="red"/>
  <circle cx="277.092" cy="226.732" r="3.1634" stroke-width="0.5" stroke="red" fill="red"/>
   </g>
   <g id="cell723">
  <circle cx="281.184" cy="247.044" r="8.34688" stroke-width="0.5" stroke="black" fill="red"/>
  <circle cx="281.184" cy="247.044" r="4.94126" stroke-width="0.5" stroke="red" fill="red"/>
   </g>
   <g id="cell724">
  <circle cx="276.034" cy="266.433" r="8.41129" stroke-width="0.5" stroke="black" fill="red"/>
  <circle cx="276.034" cy="266.433" r="5.04931" stroke-width="0.5" stroke="red" fill="red"/>
   </g>
   <g id="cell727">
  <circle cx="294.33" cy="161.481" r="8.33927" stroke-width="0.5" stroke="black" fill="red"/>
  <circle cx="294.33" cy="161.481" r="4.92841" stroke-width="0.5" stroke="red" fill="red"/>
   </g>
   <g id="cell728">
  <circle cx="296.261" cy="185.988" r="7.26038" stroke-width="0.5" stroke="black" fill="red"/>
  <circle cx="296.261" cy="185.988" r="2.73108" stroke-width="0.5" stroke="red" fill="red"/>
   </g>
   <g id="cell729">
  <circle cx="295.634" cy="201.773" r="8.23796" stroke-width="0.5" stroke="black" fill="red"/>
  <circle cx="295.634" cy="201.773" r="4.75497" stroke-width="0.5" stroke="red" fill="red"/>
   </g>
   <g id="cell730">
  <circle cx="292.573" cy="219.082" r="8.07595" stroke-width="0.5" stroke="black" fill="red"/>
  <circle cx="292.573" cy="219.082" r="4.46841" stroke-width="0.5" stroke="red" fill="red"/>
   </g>
   <g id="cell731">
  <circle cx="290.866" cy="234.929" r="8.09999" stroke-width="0.5" stroke="black" fill="red"/>
  <circle cx="290.866" cy="234.929" r="4.51171" stroke-width="0.5" stroke="red" fill="red"/>
   </g>
   <g id="cell732">
  <circle cx="297.913" cy="253.306" r="3.33682" stroke-width="0.5" stroke="black" fill="red"/>
   </g>
   <g id="cell734">
  <circle cx="295.37" cy="126.353" r="5.64906" stroke-width="0.5" stroke="black" fill="red"/>
   </g>
   <g id="cell735">
  <circle cx="310.067" cy="158.255" r="4.4266" stroke-width="0.5" stroke="black" fill="red"/>
   </g>
   <g id="cell736">
  <circle cx="302.037" cy="171.013" r="4.3422" stroke-width="0.5" stroke="black" fill="red"/>
   </g>
   <g id="cell737">
  <circle cx="312.129" cy="189.331" r="7.27602" stroke-width="0.5" stroke="black" fill="red"/>
  <circle cx="312.129" cy="189.331" r="2.77239" stroke-width="0.5" stroke="red" fill="red"/>
   </g>
   <g id="cell738">
  <circle cx="307.765" cy="213.485" r="8.04412" stroke-width="0.5" stroke="black" fill="red"/>
  <circle cx="307.765" cy="213.485" r="4.41062" stroke-width="0.5" stroke="red" fill="red"/>
   </g>
   <g id="cell739">
  <circle cx="305.022" cy="228.445" r="5.78058" stroke-width="0.5" stroke="black" fill="red"/>
   </g>
   <g id="cell740">
  <circle cx="312.584" cy="245.511" r="4.79073" stroke-width="0.5" stroke="black" fill="red"/>
   </g>
   <g id="cell741">
  <circle cx="308.67" cy="269.362" r="1.13035" stroke-width="0.5" stroke="black" fill="red"/>
   </g>
   <g id="cell742">
  <circle cx="322.963" cy="150.37" r="5.1763" stroke-width="0.5" stroke="black" fill="red"/>
   </g>
   <g id="cell743">
  <circle cx="325.972" cy="165.239" r="8.27378" stroke-width="0.5" stroke="black" fill="red"/>
  <circle cx="325.972" cy="165.239" r="4.81675" stroke-width="0.5" stroke="red" fill="red"/>
   </g>
   <g id="cell744">
  <circle cx="327.508" cy="190.56" r="3.59389" stroke-width="0.5" stroke="black" fill="red"/>
   </g>
   <g id="cell745">
  <circle cx="317.992" cy="201.264" r="5.00145" stroke-width="0.5" stroke="black" fill="red"/>
   </g>
   <g id="cell747">
  <circle cx="325.954" cy="238.996" r="8.15003" stroke-width="0.5" stroke="black" fill="red"/>
  <circle cx="325.954" cy="238.996" r="4.60095" stroke-width="0.5" stroke="red" fill="red"/>
   </g>
   <g id="cell749">
  <circle cx="345.111" cy="164.901" r="7.60159" stroke-width="0.5" stroke="black" fill="red"/>
  <circle cx="345.111" cy="164.901" r="3.53975" stroke-width="0.5" stroke="red" fill="red"/>
   </g>
   <g id="cell751">
  <circle cx="341.283" cy="193.473" r="8.31807" stroke-width="0.5" stroke="black" fill="red"/>
  <circle cx="341.283" cy="193.473" r="4.89245" stroke-width="0.5" stroke="red" fill="red"/>
   </g>
   <g id="cell752">
  <circle cx="336.532" cy="218.959" r="8.41264" stroke-width="0.5" stroke="black" fill="red"/>
  <circle cx="336.532" cy="218.959" r="5.05155" stroke-width="0.5" stroke="red" fill="red"/>
   </g>
   <g id="cell753">
  <circle cx="359.246" cy="219.556" r="8.17624" stroke-width="0.5" stroke="black" fill="red"/>
  <circle cx="359.246" cy="219.556" r="4.64721" stroke-width="0.5" stroke="red" fill="red"/>
   </g>
   <g id="cell754">
  <circle cx="341.706" cy="239.422" r="7.92487" stroke-width="0.5" stroke="black" fill="red"/>
  <circle cx="341.706" cy="239.422" r="4.18919" stroke-width="0.5" stroke="red" fill="red"/>
   </g>
   <g id="cell755">
  <circle cx="347.347" cy="207.632" r="7.57515" stroke-width="0.5" stroke="black" fill="red"/>
  <circle cx="347.347" cy="207.632" r="3.48261" stroke-width="0.5" stroke="red" fill="red"/>
   </g>
   <g id="cell760">
  <circle cx="203.936" cy="234.444" r="5.952" stroke-width="0.5" stroke="black" fill="red"/>
   </g>
   <g id="cell764">
  <circle cx="222.319" cy="214.873" r="7.7553" stroke-width="0.5" stroke="black" fill="red"/>
  <circle cx="222.319" cy="214.873" r="3.8588" stroke-width="0.5" stroke="red" fill="red"/>
   </g>
   <g id="cell767">
  <circle cx="232.648" cy="128.247" r="7.90936" stroke-width="0.5" stroke="black" fill="red"/>
  <circle cx="232.648" cy="128.247" r="4.15976" stroke-width="0.5" stroke="red" fill="red"/>
   </g>
   <g id="cell771">
  <circle cx="243.323" cy="201.975" r="3.71505" stroke-width="0.5" stroke="black" fill="red"/>
   </g>
   <g id="cell773">
  <circle cx="228.76" cy="232.596" r="8.23511" stroke-width="0.5" stroke="black" fill="red"/>
  <circle cx="228.76" cy="232.596" r="4.75001" stroke-width="0.5" stroke="red" fill="red"/>
   </g>
   <g id="cell780">
  <circle cx="249.085" cy="224.499" r="7.68584" stroke-width="0.5" stroke="black" fill="red"/>
  <circle cx="249.085" cy="224.499" r="3.71723" stroke-width="0.5" stroke="red" fill="red"/>
   </g>
   <g id="cell782">
  <circle cx="264.156" cy="258.254" r="5.6497" stroke-width="0.5" stroke="black" fill="red"/>
   </g>
   <g id="cell784">
  <circle cx="268.528" cy="148.442" r="6.69613" stroke-width="0.5" stroke="black" fill="red"/>
   </g>
   <g id="cell785">
  <circle cx="276.751" cy="161.275" r="7.42903" stroke-width="0.5" stroke="black" fill="red"/>
  <circle cx="276.751" cy="161.275" r="3.15217" stroke-width="0.5" stroke="red" fill="red"/>
   </g>
   <g id="cell800">
  <circle cx="317.548" cy="88.8491" r="8.35796" stroke-width="0.5" stroke="black" fill="red"/>
  <circle cx="317.548" cy="88.8491" r="4.95995" stroke-width="0.5" stroke="red" fill="red"/>
   </g>
   <g id="cell801">
  <circle cx="298.85" cy="146.188" r="8.09174" stroke-width="0.5" stroke="black" fill="red"/>
  <circle cx="298.85" cy="146.188" r="4.49689" stroke-width="0.5" stroke="red" fill="red"/>
   </g>
   <g id="cell807">
  <circle cx="301.754" cy="256.657" r="3.46708" stroke-width="0.5" stroke="black" fill="red"/>
   </g>
   <g id="cell813">
  <circle cx="321.233" cy="211.622" r="6.26756" stroke-width="0.5" stroke="black" fill="red"/>
   </g>
   <g id="cell814">
  <circle cx="318.17" cy="227.753" r="6.878" stroke-width="0.5" stroke="black" fill="red"/>
  <circle cx="318.17" cy="227.753" r="1.43269" stroke-width="0.5" stroke="red" fill="red"/>
   </g>
   <g id="cell817">
  <circle cx="339.33" cy="147.199" r="1.21442" stroke-width="0.5" stroke="black" fill="red"/>
   </g>
  </g>
 </g>
  <rect x="190" y="414" width="200" height="4" stroke-width="0.8" stroke="rgb(255,255,255)" fill="rgb(0,0,0)"/>
  <text x="192.5" y="411.5"
   font-family="Arial" font-size="10" fill="black" >
   200 &#956;m
  </text>
  <text x="10" y="418"
   font-family="Arial" font-size="7.5" fill="black" >
   0 days, 0 hours, 4 minutes, and 59.6151 seconds
  </text>
  <rect x="0" y="28" width="400" height="400" stroke-width="0.8" stroke="rgb(0,0,0)" fill="none"/>
</svg>
