<?xml version="1.0" encoding="UTF-8" standalone="no"?>
<!-- Created with PhysiCell (http://PhysiCell.MathCancer.org/) -->
<svg 
 xmlns:dc="http://purl.org/dc/elements/1.1/" 
 xmlns:cc="http://creativecommons.org/ns#" 
 xmlns:rdf="http://www.w3.org/1999/02/22-rdf-syntax-ns#" 
 xmlns:svg="http://www.w3.org/2000/svg" 
 xmlns="http://www.w3.org/2000/svg" 
 version="1.1" 
 width="400" 
 height="428" 
 id="svg2">
  <rect x="0" y="0" width="400" height="428" stroke-width="0.8" stroke="white" fill="white"/>
  <text x="5" y="12"
   font-family="Arial" font-size="10" fill="black" >
   Current time: 1 days, 14 hours, and 0.00 minutes, z = 0.00 &#956;m
  </text>
  <text x="5" y="23"
   font-family="Arial" font-size="9.5" fill="black" >
   978 agents
  </text>
 <g id="tissue" 
    transform="translate(0,428) scale(1,-1)">
  <g id="ECM">
  </g>
  <g id="cells">
   <g id="cell134">
  <circle cx="53.8754" cy="126.657" r="5.46565" stroke-width="0.5" stroke="black" fill="grey"/>
   </g>
   <g id="cell136">
  <circle cx="38.0452" cy="189.038" r="8.39609" stroke-width="0.5" stroke="black" fill="grey"/>
  <circle cx="38.0452" cy="189.038" r="5.02395" stroke-width="0.5" stroke="grey" fill="grey"/>
   </g>
   <g id="cell140">
  <circle cx="74.4488" cy="143.275" r="6.33656" stroke-width="0.5" stroke="black" fill="grey"/>
   </g>
   <g id="cell148">
  <circle cx="118.954" cy="151.422" r="6.63329" stroke-width="0.5" stroke="black" fill="grey"/>
   </g>
   <g id="cell165">
  <circle cx="153.146" cy="136.993" r="6.36379" stroke-width="0.5" stroke="black" fill="grey"/>
   </g>
   <g id="cell175">
  <circle cx="165.043" cy="169.693" r="7.17406" stroke-width="0.5" stroke="black" fill="grey"/>
  <circle cx="165.043" cy="169.693" r="2.49256" stroke-width="0.5" stroke="grey" fill="grey"/>
   </g>
   <g id="cell176">
  <circle cx="139.894" cy="200.266" r="8.4011" stroke-width="0.5" stroke="black" fill="grey"/>
  <circle cx="139.894" cy="200.266" r="5.03232" stroke-width="0.5" stroke="grey" fill="grey"/>
   </g>
   <g id="cell178">
  <circle cx="141.087" cy="234.831" r="0.640073" stroke-width="0.5" stroke="black" fill="grey"/>
   </g>
   <g id="cell181">
  <circle cx="178.08" cy="134.587" r="7.16588" stroke-width="0.5" stroke="black" fill="grey"/>
  <circle cx="178.08" cy="134.587" r="2.4689" stroke-width="0.5" stroke="grey" fill="grey"/>
   </g>
   <g id="cell184">
  <circle cx="191.247" cy="228.331" r="8.27502" stroke-width="0.5" stroke="black" fill="grey"/>
  <circle cx="191.247" cy="228.331" r="4.81889" stroke-width="0.5" stroke="grey" fill="grey"/>
   </g>
   <g id="cell185">
  <circle cx="173.092" cy="239.259" r="6.61443" stroke-width="0.5" stroke="black" fill="grey"/>
   </g>
   <g id="cell187">
  <circle cx="173.741" cy="271.942" r="6.60205" stroke-width="0.5" stroke="black" fill="grey"/>
   </g>
   <g id="cell188">
  <circle cx="207.08" cy="167.089" r="8.36332" stroke-width="0.5" stroke="black" fill="grey"/>
  <circle cx="207.08" cy="167.089" r="4.96898" stroke-width="0.5" stroke="grey" fill="grey"/>
   </g>
   <g id="cell193">
  <circle cx="192.573" cy="171" r="8.30309" stroke-width="0.5" stroke="black" fill="grey"/>
  <circle cx="192.573" cy="171" r="4.86692" stroke-width="0.5" stroke="grey" fill="grey"/>
   </g>
   <g id="cell196">
  <circle cx="15.989" cy="216.55" r="7.00352" stroke-width="0.5" stroke="black" fill="grey"/>
  <circle cx="15.989" cy="216.55" r="1.94807" stroke-width="0.5" stroke="grey" fill="grey"/>
   </g>
   <g id="cell202">
  <circle cx="45.343" cy="218.851" r="8.11094" stroke-width="0.5" stroke="black" fill="grey"/>
  <circle cx="45.343" cy="218.851" r="4.53133" stroke-width="0.5" stroke="grey" fill="grey"/>
   </g>
   <g id="cell207">
  <circle cx="73.5602" cy="211.709" r="3.91807" stroke-width="0.5" stroke="black" fill="grey"/>
   </g>
   <g id="cell211">
  <circle cx="83.2197" cy="114.249" r="6.87002" stroke-width="0.5" stroke="black" fill="grey"/>
  <circle cx="83.2197" cy="114.249" r="1.39385" stroke-width="0.5" stroke="grey" fill="grey"/>
   </g>
   <g id="cell217">
  <circle cx="89.3254" cy="275.233" r="8.41267" stroke-width="0.5" stroke="black" fill="grey"/>
  <circle cx="89.3254" cy="275.233" r="5.0516" stroke-width="0.5" stroke="grey" fill="grey"/>
   </g>
   <g id="cell221">
  <circle cx="102.85" cy="165.005" r="7.62871" stroke-width="0.5" stroke="black" fill="grey"/>
  <circle cx="102.85" cy="165.005" r="3.59763" stroke-width="0.5" stroke="grey" fill="grey"/>
   </g>
   <g id="cell230">
  <circle cx="147.374" cy="167.518" r="7.19101" stroke-width="0.5" stroke="black" fill="grey"/>
  <circle cx="147.374" cy="167.518" r="2.54091" stroke-width="0.5" stroke="grey" fill="grey"/>
   </g>
   <g id="cell231">
  <circle cx="120.35" cy="191.714" r="6.70785" stroke-width="0.5" stroke="black" fill="grey"/>
   </g>
   <g id="cell232">
  <circle cx="106.139" cy="202.352" r="7.41506" stroke-width="0.5" stroke="black" fill="grey"/>
  <circle cx="106.139" cy="202.352" r="3.1191" stroke-width="0.5" stroke="grey" fill="grey"/>
   </g>
   <g id="cell237">
  <circle cx="154.919" cy="150.644" r="8.38039" stroke-width="0.5" stroke="black" fill="grey"/>
  <circle cx="154.919" cy="150.644" r="4.99767" stroke-width="0.5" stroke="grey" fill="grey"/>
   </g>
   <g id="cell238">
  <circle cx="141.171" cy="156.039" r="7.52529" stroke-width="0.5" stroke="black" fill="grey"/>
  <circle cx="141.171" cy="156.039" r="3.37279" stroke-width="0.5" stroke="grey" fill="grey"/>
   </g>
   <g id="cell240">
  <circle cx="135.528" cy="225.612" r="7.10967" stroke-width="0.5" stroke="black" fill="grey"/>
  <circle cx="135.528" cy="225.612" r="2.30067" stroke-width="0.5" stroke="grey" fill="grey"/>
   </g>
   <g id="cell244">
  <circle cx="131.255" cy="279.533" r="8.34961" stroke-width="0.5" stroke="black" fill="grey"/>
  <circle cx="131.255" cy="279.533" r="4.94587" stroke-width="0.5" stroke="grey" fill="grey"/>
   </g>
   <g id="cell247">
  <circle cx="178.351" cy="152.029" r="8.40623" stroke-width="0.5" stroke="black" fill="grey"/>
  <circle cx="178.351" cy="152.029" r="5.04086" stroke-width="0.5" stroke="grey" fill="grey"/>
   </g>
   <g id="cell249">
  <circle cx="152.261" cy="219.711" r="8.38265" stroke-width="0.5" stroke="black" fill="grey"/>
  <circle cx="152.261" cy="219.711" r="5.00144" stroke-width="0.5" stroke="grey" fill="grey"/>
   </g>
   <g id="cell270">
  <circle cx="44.4127" cy="237.392" r="8.36737" stroke-width="0.5" stroke="black" fill="grey"/>
  <circle cx="44.4127" cy="237.392" r="4.97579" stroke-width="0.5" stroke="grey" fill="grey"/>
   </g>
   <g id="cell280">
  <circle cx="113.824" cy="158.115" r="5.15569" stroke-width="0.5" stroke="black" fill="grey"/>
   </g>
   <g id="cell291">
  <circle cx="116.623" cy="236.134" r="8.29334" stroke-width="0.5" stroke="black" fill="grey"/>
  <circle cx="116.623" cy="236.134" r="4.85027" stroke-width="0.5" stroke="grey" fill="grey"/>
   </g>
   <g id="cell293">
  <circle cx="115.462" cy="256.315" r="7.90278" stroke-width="0.5" stroke="black" fill="grey"/>
  <circle cx="115.462" cy="256.315" r="4.14724" stroke-width="0.5" stroke="grey" fill="grey"/>
   </g>
   <g id="cell295">
  <circle cx="94.0688" cy="137.429" r="7.89731" stroke-width="0.5" stroke="black" fill="grey"/>
  <circle cx="94.0688" cy="137.429" r="4.1368" stroke-width="0.5" stroke="grey" fill="grey"/>
   </g>
   <g id="cell300">
  <circle cx="129.345" cy="244.074" r="8.15413" stroke-width="0.5" stroke="black" fill="grey"/>
  <circle cx="129.345" cy="244.074" r="4.60819" stroke-width="0.5" stroke="grey" fill="grey"/>
   </g>
   <g id="cell303">
  <circle cx="126.569" cy="96.0322" r="5.73272" stroke-width="0.5" stroke="black" fill="grey"/>
   </g>
   <g id="cell314">
  <circle cx="155.268" cy="203.401" r="8.33533" stroke-width="0.5" stroke="black" fill="grey"/>
  <circle cx="155.268" cy="203.401" r="4.92173" stroke-width="0.5" stroke="grey" fill="grey"/>
   </g>
   <g id="cell317">
  <circle cx="130.681" cy="257.694" r="7.99503" stroke-width="0.5" stroke="black" fill="grey"/>
  <circle cx="130.681" cy="257.694" r="4.32045" stroke-width="0.5" stroke="grey" fill="grey"/>
   </g>
   <g id="cell322">
  <circle cx="180.152" cy="167.99" r="5.94974" stroke-width="0.5" stroke="black" fill="grey"/>
   </g>
   <g id="cell327">
  <circle cx="179.462" cy="312.073" r="7.15069" stroke-width="0.5" stroke="black" fill="grey"/>
  <circle cx="179.462" cy="312.073" r="2.42447" stroke-width="0.5" stroke="grey" fill="grey"/>
   </g>
   <g id="cell329">
  <circle cx="182.257" cy="185.936" r="5.9258" stroke-width="0.5" stroke="black" fill="grey"/>
   </g>
   <g id="cell334">
  <circle cx="174.462" cy="213.753" r="7.47944" stroke-width="0.5" stroke="black" fill="grey"/>
  <circle cx="174.462" cy="213.753" r="3.26921" stroke-width="0.5" stroke="grey" fill="grey"/>
   </g>
   <g id="cell335">
  <circle cx="74.5264" cy="120.686" r="6.32397" stroke-width="0.5" stroke="black" fill="grey"/>
   </g>
   <g id="cell350">
  <circle cx="82.0685" cy="168.291" r="8.29576" stroke-width="0.5" stroke="black" fill="grey"/>
  <circle cx="82.0685" cy="168.291" r="4.85441" stroke-width="0.5" stroke="grey" fill="grey"/>
   </g>
   <g id="cell352">
  <circle cx="93.9358" cy="210.987" r="7.44868" stroke-width="0.5" stroke="black" fill="grey"/>
  <circle cx="93.9358" cy="210.987" r="3.1982" stroke-width="0.5" stroke="grey" fill="grey"/>
   </g>
   <g id="cell353">
  <circle cx="64.6906" cy="266.467" r="7.94143" stroke-width="0.5" stroke="black" fill="grey"/>
  <circle cx="64.6906" cy="266.467" r="4.22043" stroke-width="0.5" stroke="grey" fill="grey"/>
   </g>
   <g id="cell379">
  <circle cx="156.534" cy="273.002" r="8.3819" stroke-width="0.5" stroke="black" fill="grey"/>
  <circle cx="156.534" cy="273.002" r="5.00019" stroke-width="0.5" stroke="grey" fill="grey"/>
   </g>
   <g id="cell441">
  <circle cx="144.611" cy="245.057" r="8.12662" stroke-width="0.5" stroke="black" fill="grey"/>
  <circle cx="144.611" cy="245.057" r="4.55935" stroke-width="0.5" stroke="grey" fill="grey"/>
   </g>
   <g id="cell569">
  <circle cx="242.478" cy="122.88" r="5.84573" stroke-width="0.5" stroke="black" fill="red"/>
   </g>
   <g id="cell621">
  <circle cx="208.286" cy="218.765" r="7.03513" stroke-width="0.5" stroke="black" fill="red"/>
  <circle cx="208.286" cy="218.765" r="2.05883" stroke-width="0.5" stroke="red" fill="red"/>
   </g>
   <g id="cell624">
  <circle cx="216.86" cy="179.135" r="7.38957" stroke-width="0.5" stroke="black" fill="red"/>
  <circle cx="216.86" cy="179.135" r="3.058" stroke-width="0.5" stroke="red" fill="red"/>
   </g>
   <g id="cell643">
  <circle cx="262.729" cy="264.527" r="5.70641" stroke-width="0.5" stroke="black" fill="red"/>
   </g>
   <g id="cell661">
  <circle cx="312.059" cy="120.964" r="4.31576" stroke-width="0.5" stroke="black" fill="red"/>
   </g>
   <g id="cell676">
  <circle cx="321.819" cy="270.18" r="7.22934" stroke-width="0.5" stroke="black" fill="red"/>
  <circle cx="321.819" cy="270.18" r="2.64747" stroke-width="0.5" stroke="red" fill="red"/>
   </g>
   <g id="cell677">
  <circle cx="335.934" cy="164.273" r="4.59426" stroke-width="0.5" stroke="black" fill="red"/>
   </g>
   <g id="cell681">
  <circle cx="348.067" cy="231.034" r="8.35488" stroke-width="0.5" stroke="black" fill="red"/>
  <circle cx="348.067" cy="231.034" r="4.95477" stroke-width="0.5" stroke="red" fill="red"/>
   </g>
   <g id="cell685">
  <circle cx="207.049" cy="204.418" r="7.37865" stroke-width="0.5" stroke="black" fill="red"/>
  <circle cx="207.049" cy="204.418" r="3.03153" stroke-width="0.5" stroke="red" fill="red"/>
   </g>
   <g id="cell686">
  <circle cx="198.874" cy="218.968" r="5.26155" stroke-width="0.5" stroke="black" fill="red"/>
   </g>
   <g id="cell687">
  <circle cx="211.229" cy="146.099" r="5.32946" stroke-width="0.5" stroke="black" fill="red"/>
   </g>
   <g id="cell688">
  <circle cx="221.544" cy="156.028" r="5.01898" stroke-width="0.5" stroke="black" fill="red"/>
   </g>
   <g id="cell689">
  <circle cx="220.733" cy="197.711" r="7.64079" stroke-width="0.5" stroke="black" fill="red"/>
  <circle cx="220.733" cy="197.711" r="3.62316" stroke-width="0.5" stroke="red" fill="red"/>
   </g>
   <g id="cell690">
  <circle cx="221.132" cy="209.696" r="4.20484" stroke-width="0.5" stroke="black" fill="red"/>
   </g>
   <g id="cell691">
  <circle cx="223.069" cy="225.037" r="6.97347" stroke-width="0.5" stroke="black" fill="red"/>
  <circle cx="223.069" cy="225.037" r="1.8371" stroke-width="0.5" stroke="red" fill="red"/>
   </g>
   <g id="cell692">
  <circle cx="217.627" cy="243.474" r="5.90869" stroke-width="0.5" stroke="black" fill="red"/>
   </g>
   <g id="cell693">
  <circle cx="228.127" cy="144.16" r="4.52347" stroke-width="0.5" stroke="black" fill="red"/>
   </g>
   <g id="cell694">
  <circle cx="237.625" cy="171.912" r="6.96412" stroke-width="0.5" stroke="black" fill="red"/>
  <circle cx="237.625" cy="171.912" r="1.80129" stroke-width="0.5" stroke="red" fill="red"/>
   </g>
   <g id="cell695">
  <circle cx="232.124" cy="187.727" r="8.28084" stroke-width="0.5" stroke="black" fill="red"/>
  <circle cx="232.124" cy="187.727" r="4.82887" stroke-width="0.5" stroke="red" fill="red"/>
   </g>
   <g id="cell696">
  <circle cx="237.302" cy="202.228" r="8.12344" stroke-width="0.5" stroke="black" fill="red"/>
  <circle cx="237.302" cy="202.228" r="4.55368" stroke-width="0.5" stroke="red" fill="red"/>
   </g>
   <g id="cell697">
  <circle cx="236.456" cy="216.777" r="8.09513" stroke-width="0.5" stroke="black" fill="red"/>
  <circle cx="236.456" cy="216.777" r="4.50298" stroke-width="0.5" stroke="red" fill="red"/>
   </g>
   <g id="cell698">
  <circle cx="235.396" cy="235.154" r="3.98864" stroke-width="0.5" stroke="black" fill="red"/>
   </g>
   <g id="cell699">
  <circle cx="234.959" cy="256.104" r="7.48918" stroke-width="0.5" stroke="black" fill="red"/>
  <circle cx="234.959" cy="256.104" r="3.29142" stroke-width="0.5" stroke="red" fill="red"/>
   </g>
   <g id="cell700">
  <circle cx="237.668" cy="156.683" r="7.85981" stroke-width="0.5" stroke="black" fill="red"/>
  <circle cx="237.668" cy="156.683" r="4.06477" stroke-width="0.5" stroke="red" fill="red"/>
   </g>
   <g id="cell701">
  <circle cx="251.628" cy="164.526" r="3.6888" stroke-width="0.5" stroke="black" fill="red"/>
   </g>
   <g id="cell702">
  <circle cx="250.103" cy="179.598" r="8.14943" stroke-width="0.5" stroke="black" fill="red"/>
  <circle cx="250.103" cy="179.598" r="4.59988" stroke-width="0.5" stroke="red" fill="red"/>
   </g>
   <g id="cell703">
  <circle cx="250.288" cy="195.621" r="6.46662" stroke-width="0.5" stroke="black" fill="red"/>
   </g>
   <g id="cell704">
  <circle cx="250.873" cy="210.747" r="8.20344" stroke-width="0.5" stroke="black" fill="red"/>
  <circle cx="250.873" cy="210.747" r="4.6949" stroke-width="0.5" stroke="red" fill="red"/>
   </g>
   <g id="cell705">
  <circle cx="249.401" cy="227.388" r="7.43684" stroke-width="0.5" stroke="black" fill="red"/>
  <circle cx="249.401" cy="227.388" r="3.17054" stroke-width="0.5" stroke="red" fill="red"/>
   </g>
   <g id="cell706">
  <circle cx="247.495" cy="241.922" r="8.17015" stroke-width="0.5" stroke="black" fill="red"/>
  <circle cx="247.495" cy="241.922" r="4.63648" stroke-width="0.5" stroke="red" fill="red"/>
   </g>
   <g id="cell707">
  <circle cx="246.901" cy="266.098" r="3.17308" stroke-width="0.5" stroke="black" fill="red"/>
   </g>
   <g id="cell708">
  <circle cx="255.392" cy="110.472" r="5.59339" stroke-width="0.5" stroke="black" fill="red"/>
   </g>
   <g id="cell710">
  <circle cx="267.356" cy="168.393" r="6.16009" stroke-width="0.5" stroke="black" fill="red"/>
   </g>
   <g id="cell711">
  <circle cx="264.132" cy="185.561" r="6.83333" stroke-width="0.5" stroke="black" fill="red"/>
  <circle cx="264.132" cy="185.561" r="1.20004" stroke-width="0.5" stroke="red" fill="red"/>
   </g>
   <g id="cell712">
  <circle cx="264.188" cy="202.114" r="8.29514" stroke-width="0.5" stroke="black" fill="red"/>
  <circle cx="264.188" cy="202.114" r="4.85336" stroke-width="0.5" stroke="red" fill="red"/>
   </g>
   <g id="cell713">
  <circle cx="264.937" cy="219.666" r="4.46386" stroke-width="0.5" stroke="black" fill="red"/>
   </g>
   <g id="cell714">
  <circle cx="267.063" cy="233.621" r="8.39644" stroke-width="0.5" stroke="black" fill="red"/>
  <circle cx="267.063" cy="233.621" r="5.02453" stroke-width="0.5" stroke="red" fill="red"/>
   </g>
   <g id="cell715">
  <circle cx="261.885" cy="248.857" r="7.60605" stroke-width="0.5" stroke="black" fill="red"/>
  <circle cx="261.885" cy="248.857" r="3.54933" stroke-width="0.5" stroke="red" fill="red"/>
   </g>
   <g id="cell716">
  <circle cx="250.122" cy="278.885" r="8.31423" stroke-width="0.5" stroke="black" fill="red"/>
  <circle cx="250.122" cy="278.885" r="4.88591" stroke-width="0.5" stroke="red" fill="red"/>
   </g>
   <g id="cell718">
  <circle cx="276.03" cy="145.478" r="8.41193" stroke-width="0.5" stroke="black" fill="red"/>
  <circle cx="276.03" cy="145.478" r="5.05036" stroke-width="0.5" stroke="red" fill="red"/>
   </g>
   <g id="cell719">
  <circle cx="281.54" cy="173.566" r="7.63323" stroke-width="0.5" stroke="black" fill="red"/>
  <circle cx="281.54" cy="173.566" r="3.6072" stroke-width="0.5" stroke="red" fill="red"/>
   </g>
   <g id="cell720">
  <circle cx="278.209" cy="193.922" r="8.40662" stroke-width="0.5" stroke="black" fill="red"/>
  <circle cx="278.209" cy="193.922" r="5.04152" stroke-width="0.5" stroke="red" fill="red"/>
   </g>
   <g id="cell721">
  <circle cx="279.137" cy="208.899" r="7.25094" stroke-width="0.5" stroke="black" fill="red"/>
  <circle cx="279.137" cy="208.899" r="2.70588" stroke-width="0.5" stroke="red" fill="red"/>
   </g>
   <g id="cell722">
  <circle cx="280.153" cy="224.037" r="8.40975" stroke-width="0.5" stroke="black" fill="red"/>
  <circle cx="280.153" cy="224.037" r="5.04674" stroke-width="0.5" stroke="red" fill="red"/>
   </g>
   <g id="cell723">
  <circle cx="277.239" cy="246.69" r="8.38353" stroke-width="0.5" stroke="black" fill="red"/>
  <circle cx="277.239" cy="246.69" r="5.00292" stroke-width="0.5" stroke="red" fill="red"/>
   </g>
   <g id="cell724">
  <circle cx="278.358" cy="264.344" r="8.16524" stroke-width="0.5" stroke="black" fill="red"/>
  <circle cx="278.358" cy="264.344" r="4.62782" stroke-width="0.5" stroke="red" fill="red"/>
   </g>
   <g id="cell727">
  <circle cx="291.711" cy="159.599" r="4.53818" stroke-width="0.5" stroke="black" fill="red"/>
   </g>
   <g id="cell728">
  <circle cx="292.478" cy="184.638" r="8.0616" stroke-width="0.5" stroke="black" fill="red"/>
  <circle cx="292.478" cy="184.638" r="4.44241" stroke-width="0.5" stroke="red" fill="red"/>
   </g>
   <g id="cell729">
  <circle cx="292.796" cy="199.944" r="7.68794" stroke-width="0.5" stroke="black" fill="red"/>
  <circle cx="292.796" cy="199.944" r="3.72158" stroke-width="0.5" stroke="red" fill="red"/>
   </g>
   <g id="cell730">
  <circle cx="293.634" cy="215.335" r="8.21144" stroke-width="0.5" stroke="black" fill="red"/>
  <circle cx="293.634" cy="215.335" r="4.70886" stroke-width="0.5" stroke="red" fill="red"/>
   </g>
   <g id="cell731">
  <circle cx="292.006" cy="235.017" r="8.41147" stroke-width="0.5" stroke="black" fill="red"/>
  <circle cx="292.006" cy="235.017" r="5.04961" stroke-width="0.5" stroke="red" fill="red"/>
   </g>
   <g id="cell732">
  <circle cx="292.445" cy="253.511" r="3.84347" stroke-width="0.5" stroke="black" fill="red"/>
   </g>
   <g id="cell733">
  <circle cx="289.081" cy="271.749" r="5.49689" stroke-width="0.5" stroke="black" fill="red"/>
   </g>
   <g id="cell734">
  <circle cx="303.557" cy="133.686" r="8.03837" stroke-width="0.5" stroke="black" fill="red"/>
  <circle cx="303.557" cy="133.686" r="4.40012" stroke-width="0.5" stroke="red" fill="red"/>
   </g>
   <g id="cell735">
  <circle cx="305.334" cy="161.127" r="8.25636" stroke-width="0.5" stroke="black" fill="red"/>
  <circle cx="305.334" cy="161.127" r="4.78676" stroke-width="0.5" stroke="red" fill="red"/>
   </g>
   <g id="cell736">
  <circle cx="307.288" cy="176.36" r="8.193" stroke-width="0.5" stroke="black" fill="red"/>
  <circle cx="307.288" cy="176.36" r="4.67663" stroke-width="0.5" stroke="red" fill="red"/>
   </g>
   <g id="cell737">
  <circle cx="308.02" cy="193.241" r="8.2621" stroke-width="0.5" stroke="black" fill="red"/>
  <circle cx="308.02" cy="193.241" r="4.79667" stroke-width="0.5" stroke="red" fill="red"/>
   </g>
   <g id="cell738">
  <circle cx="307.575" cy="208.309" r="7.53223" stroke-width="0.5" stroke="black" fill="red"/>
  <circle cx="307.575" cy="208.309" r="3.38825" stroke-width="0.5" stroke="red" fill="red"/>
   </g>
   <g id="cell739">
  <circle cx="304.76" cy="226.774" r="6.09545" stroke-width="0.5" stroke="black" fill="red"/>
   </g>
   <g id="cell740">
  <circle cx="315.639" cy="239.781" r="5.87542" stroke-width="0.5" stroke="black" fill="red"/>
   </g>
   <g id="cell742">
  <circle cx="316.432" cy="146.095" r="7.3055" stroke-width="0.5" stroke="black" fill="red"/>
  <circle cx="316.432" cy="146.095" r="2.84885" stroke-width="0.5" stroke="red" fill="red"/>
   </g>
   <g id="cell743">
  <circle cx="320.819" cy="169.092" r="8.02805" stroke-width="0.5" stroke="black" fill="red"/>
  <circle cx="320.819" cy="169.092" r="4.38125" stroke-width="0.5" stroke="red" fill="red"/>
   </g>
   <g id="cell744">
  <circle cx="321.515" cy="185.246" r="8.25106" stroke-width="0.5" stroke="black" fill="red"/>
  <circle cx="321.515" cy="185.246" r="4.77763" stroke-width="0.5" stroke="red" fill="red"/>
   </g>
   <g id="cell745">
  <circle cx="322.369" cy="200.734" r="7.20209" stroke-width="0.5" stroke="black" fill="red"/>
  <circle cx="322.369" cy="200.734" r="2.57211" stroke-width="0.5" stroke="red" fill="red"/>
   </g>
   <g id="cell746">
  <circle cx="321.539" cy="218.8" r="8.40613" stroke-width="0.5" stroke="black" fill="red"/>
  <circle cx="321.539" cy="218.8" r="5.04071" stroke-width="0.5" stroke="red" fill="red"/>
   </g>
   <g id="cell747">
  <circle cx="329.796" cy="233.592" r="4.10163" stroke-width="0.5" stroke="black" fill="red"/>
   </g>
   <g id="cell749">
  <circle cx="347.806" cy="166.476" r="7.55492" stroke-width="0.5" stroke="black" fill="red"/>
  <circle cx="347.806" cy="166.476" r="3.43838" stroke-width="0.5" stroke="red" fill="red"/>
   </g>
   <g id="cell751">
  <circle cx="336.81" cy="194.081" r="8.15821" stroke-width="0.5" stroke="black" fill="red"/>
  <circle cx="336.81" cy="194.081" r="4.61542" stroke-width="0.5" stroke="red" fill="red"/>
   </g>
   <g id="cell752">
  <circle cx="333.411" cy="210.124" r="7.60408" stroke-width="0.5" stroke="black" fill="red"/>
  <circle cx="333.411" cy="210.124" r="3.5451" stroke-width="0.5" stroke="red" fill="red"/>
   </g>
   <g id="cell753">
  <circle cx="345.255" cy="215.956" r="7.62273" stroke-width="0.5" stroke="black" fill="red"/>
  <circle cx="345.255" cy="215.956" r="3.58492" stroke-width="0.5" stroke="red" fill="red"/>
   </g>
   <g id="cell754">
  <circle cx="339.497" cy="251.975" r="8.21825" stroke-width="0.5" stroke="black" fill="red"/>
  <circle cx="339.497" cy="251.975" r="4.72074" stroke-width="0.5" stroke="red" fill="red"/>
   </g>
   <g id="cell755">
  <circle cx="348.639" cy="203.98" r="5.38291" stroke-width="0.5" stroke="black" fill="red"/>
   </g>
   <g id="cell760">
  <circle cx="206.134" cy="232.808" r="8.1" stroke-width="0.5" stroke="black" fill="red"/>
  <circle cx="206.134" cy="232.808" r="4.51173" stroke-width="0.5" stroke="red" fill="red"/>
   </g>
   <g id="cell767">
  <circle cx="237.634" cy="134.734" r="7.31405" stroke-width="0.5" stroke="black" fill="red"/>
  <circle cx="237.634" cy="134.734" r="2.87072" stroke-width="0.5" stroke="red" fill="red"/>
   </g>
   <g id="cell773">
  <circle cx="239.551" cy="227.982" r="0.727192" stroke-width="0.5" stroke="black" fill="red"/>
   </g>
   <g id="cell776">
  <circle cx="252.707" cy="152.307" r="8.20332" stroke-width="0.5" stroke="black" fill="red"/>
  <circle cx="252.707" cy="152.307" r="4.69469" stroke-width="0.5" stroke="red" fill="red"/>
   </g>
   <g id="cell783">
  <circle cx="289.121" cy="122.899" r="6.78064" stroke-width="0.5" stroke="black" fill="red"/>
  <circle cx="289.121" cy="122.899" r="0.850167" stroke-width="0.5" stroke="red" fill="red"/>
   </g>
   <g id="cell785">
  <circle cx="275.472" cy="163.948" r="3.12013" stroke-width="0.5" stroke="black" fill="red"/>
   </g>
   <g id="cell786">
  <circle cx="273.886" cy="180.035" r="2.0241" stroke-width="0.5" stroke="black" fill="red"/>
   </g>
   <g id="cell800">
  <circle cx="315.338" cy="104.715" r="8.25784" stroke-width="0.5" stroke="black" fill="red"/>
  <circle cx="315.338" cy="104.715" r="4.78932" stroke-width="0.5" stroke="red" fill="red"/>
   </g>
   <g id="cell807">
  <circle cx="301.781" cy="253.743" r="6.71262" stroke-width="0.5" stroke="black" fill="red"/>
   </g>
   <g id="cell809">
  <circle cx="317.308" cy="131.606" r="7.68124" stroke-width="0.5" stroke="black" fill="red"/>
  <circle cx="317.308" cy="131.606" r="3.70771" stroke-width="0.5" stroke="red" fill="red"/>
   </g>
   <g id="cell818">
  <circle cx="334.687" cy="176.665" r="2.91816" stroke-width="0.5" stroke="black" fill="red"/>
   </g>
  </g>
 </g>
  <rect x="190" y="414" width="200" height="4" stroke-width="0.8" stroke="rgb(255,255,255)" fill="rgb(0,0,0)"/>
  <text x="192.5" y="411.5"
   font-family="Arial" font-size="10" fill="black" >
   200 &#956;m
  </text>
  <text x="10" y="418"
   font-family="Arial" font-size="7.5" fill="black" >
   0 days, 0 hours, 3 minutes, and 38.0211 seconds
  </text>
  <rect x="0" y="28" width="400" height="400" stroke-width="0.8" stroke="rgb(0,0,0)" fill="none"/>
</svg>
