<?xml version="1.0" encoding="UTF-8" standalone="no"?>
<!-- Created with PhysiCell (http://PhysiCell.MathCancer.org/) -->
<svg 
 xmlns:dc="http://purl.org/dc/elements/1.1/" 
 xmlns:cc="http://creativecommons.org/ns#" 
 xmlns:rdf="http://www.w3.org/1999/02/22-rdf-syntax-ns#" 
 xmlns:svg="http://www.w3.org/2000/svg" 
 xmlns="http://www.w3.org/2000/svg" 
 version="1.1" 
 width="400" 
 height="428" 
 id="svg2">
  <rect x="0" y="0" width="400" height="428" stroke-width="0.8" stroke="white" fill="white"/>
  <text x="5" y="12"
   font-family="Arial" font-size="10" fill="black" >
   Current time: 1 days, 18 hours, and 0.00 minutes, z = 0.00 &#956;m
  </text>
  <text x="5" y="23"
   font-family="Arial" font-size="9.5" fill="black" >
   978 agents
  </text>
 <g id="tissue" 
    transform="translate(0,428) scale(1,-1)">
  <g id="ECM">
  </g>
  <g id="cells">
   <g id="cell63">
  <circle cx="178.593" cy="189.553" r="4.2421" stroke-width="0.5" stroke="black" fill="grey"/>
   </g>
   <g id="cell88">
  <circle cx="114.663" cy="119.247" r="8.10674" stroke-width="0.5" stroke="black" fill="grey"/>
  <circle cx="114.663" cy="119.247" r="4.52381" stroke-width="0.5" stroke="grey" fill="grey"/>
   </g>
   <g id="cell134">
  <circle cx="52.2463" cy="128.714" r="5.30544" stroke-width="0.5" stroke="black" fill="grey"/>
   </g>
   <g id="cell140">
  <circle cx="69.5938" cy="133.381" r="8.41236" stroke-width="0.5" stroke="black" fill="grey"/>
  <circle cx="69.5938" cy="133.381" r="5.05109" stroke-width="0.5" stroke="grey" fill="grey"/>
   </g>
   <g id="cell144">
  <circle cx="91.5106" cy="229.962" r="6.83659" stroke-width="0.5" stroke="black" fill="grey"/>
  <circle cx="91.5106" cy="229.962" r="1.21844" stroke-width="0.5" stroke="grey" fill="grey"/>
   </g>
   <g id="cell148">
  <circle cx="118.219" cy="144.705" r="8.41256" stroke-width="0.5" stroke="black" fill="grey"/>
  <circle cx="118.219" cy="144.705" r="5.05142" stroke-width="0.5" stroke="grey" fill="grey"/>
   </g>
   <g id="cell149">
  <circle cx="133.77" cy="174.358" r="2.97617" stroke-width="0.5" stroke="black" fill="grey"/>
   </g>
   <g id="cell165">
  <circle cx="149.766" cy="131.634" r="6.74228" stroke-width="0.5" stroke="black" fill="grey"/>
  <circle cx="149.766" cy="131.634" r="0.451666" stroke-width="0.5" stroke="grey" fill="grey"/>
   </g>
   <g id="cell176">
  <circle cx="137.325" cy="203.784" r="8.1293" stroke-width="0.5" stroke="black" fill="grey"/>
  <circle cx="137.325" cy="203.784" r="4.56412" stroke-width="0.5" stroke="grey" fill="grey"/>
   </g>
   <g id="cell178">
  <circle cx="142.536" cy="229.443" r="7.36807" stroke-width="0.5" stroke="black" fill="grey"/>
  <circle cx="142.536" cy="229.443" r="3.00569" stroke-width="0.5" stroke="grey" fill="grey"/>
   </g>
   <g id="cell188">
  <circle cx="206.063" cy="162.485" r="7.88215" stroke-width="0.5" stroke="black" fill="grey"/>
  <circle cx="206.063" cy="162.485" r="4.10779" stroke-width="0.5" stroke="grey" fill="grey"/>
   </g>
   <g id="cell196">
  <circle cx="16.0542" cy="214.86" r="8.41239" stroke-width="0.5" stroke="black" fill="grey"/>
  <circle cx="16.0542" cy="214.86" r="5.05113" stroke-width="0.5" stroke="grey" fill="grey"/>
   </g>
   <g id="cell202">
  <circle cx="42.7724" cy="220.306" r="4.04393" stroke-width="0.5" stroke="black" fill="grey"/>
   </g>
   <g id="cell207">
  <circle cx="68.963" cy="206.385" r="6.13127" stroke-width="0.5" stroke="black" fill="grey"/>
   </g>
   <g id="cell210">
  <circle cx="61.1432" cy="289.335" r="7.60645" stroke-width="0.5" stroke="black" fill="grey"/>
  <circle cx="61.1432" cy="289.335" r="3.55018" stroke-width="0.5" stroke="grey" fill="grey"/>
   </g>
   <g id="cell214">
  <circle cx="74.8639" cy="185.028" r="8.26566" stroke-width="0.5" stroke="black" fill="grey"/>
  <circle cx="74.8639" cy="185.028" r="4.8028" stroke-width="0.5" stroke="grey" fill="grey"/>
   </g>
   <g id="cell224">
  <circle cx="79.7457" cy="242.439" r="6.90679" stroke-width="0.5" stroke="black" fill="grey"/>
  <circle cx="79.7457" cy="242.439" r="1.56507" stroke-width="0.5" stroke="grey" fill="grey"/>
   </g>
   <g id="cell231">
  <circle cx="118.176" cy="196.351" r="6.68973" stroke-width="0.5" stroke="black" fill="grey"/>
   </g>
   <g id="cell237">
  <circle cx="151.198" cy="147.973" r="5.02334" stroke-width="0.5" stroke="black" fill="grey"/>
   </g>
   <g id="cell238">
  <circle cx="141.408" cy="157.788" r="8.41103" stroke-width="0.5" stroke="black" fill="grey"/>
  <circle cx="141.408" cy="157.788" r="5.04887" stroke-width="0.5" stroke="grey" fill="grey"/>
   </g>
   <g id="cell244">
  <circle cx="132.866" cy="276.14" r="7.94465" stroke-width="0.5" stroke="black" fill="grey"/>
  <circle cx="132.866" cy="276.14" r="4.22647" stroke-width="0.5" stroke="grey" fill="grey"/>
   </g>
   <g id="cell247">
  <circle cx="183.329" cy="149.674" r="8.29684" stroke-width="0.5" stroke="black" fill="grey"/>
  <circle cx="183.329" cy="149.674" r="4.85626" stroke-width="0.5" stroke="grey" fill="grey"/>
   </g>
   <g id="cell249">
  <circle cx="153.023" cy="225.92" r="2.46316" stroke-width="0.5" stroke="black" fill="grey"/>
   </g>
   <g id="cell253">
  <circle cx="190.651" cy="124.871" r="7.92411" stroke-width="0.5" stroke="black" fill="grey"/>
  <circle cx="190.651" cy="124.871" r="4.18775" stroke-width="0.5" stroke="grey" fill="grey"/>
   </g>
   <g id="cell259">
  <circle cx="180.315" cy="300.678" r="2.00383" stroke-width="0.5" stroke="black" fill="grey"/>
   </g>
   <g id="cell268">
  <circle cx="66.4271" cy="165.484" r="3.51026" stroke-width="0.5" stroke="black" fill="grey"/>
   </g>
   <g id="cell270">
  <circle cx="47.5293" cy="235.696" r="7.97211" stroke-width="0.5" stroke="black" fill="grey"/>
  <circle cx="47.5293" cy="235.696" r="4.27787" stroke-width="0.5" stroke="grey" fill="grey"/>
   </g>
   <g id="cell291">
  <circle cx="112.749" cy="225.993" r="8.40716" stroke-width="0.5" stroke="black" fill="grey"/>
  <circle cx="112.749" cy="225.993" r="5.04243" stroke-width="0.5" stroke="grey" fill="grey"/>
   </g>
   <g id="cell292">
  <circle cx="66.0479" cy="243.666" r="7.51628" stroke-width="0.5" stroke="black" fill="grey"/>
  <circle cx="66.0479" cy="243.666" r="3.35262" stroke-width="0.5" stroke="grey" fill="grey"/>
   </g>
   <g id="cell295">
  <circle cx="88.8471" cy="131.825" r="7.38527" stroke-width="0.5" stroke="black" fill="grey"/>
  <circle cx="88.8471" cy="131.825" r="3.0476" stroke-width="0.5" stroke="grey" fill="grey"/>
   </g>
   <g id="cell296">
  <circle cx="128.322" cy="152.883" r="3.31579" stroke-width="0.5" stroke="black" fill="grey"/>
   </g>
   <g id="cell305">
  <circle cx="158.89" cy="172.988" r="6.75472" stroke-width="0.5" stroke="black" fill="grey"/>
  <circle cx="158.89" cy="172.988" r="0.609887" stroke-width="0.5" stroke="grey" fill="grey"/>
   </g>
   <g id="cell313">
  <circle cx="141.21" cy="121.524" r="7.20713" stroke-width="0.5" stroke="black" fill="grey"/>
  <circle cx="141.21" cy="121.524" r="2.58619" stroke-width="0.5" stroke="grey" fill="grey"/>
   </g>
   <g id="cell314">
  <circle cx="154.127" cy="206.012" r="8.32843" stroke-width="0.5" stroke="black" fill="grey"/>
  <circle cx="154.127" cy="206.012" r="4.91003" stroke-width="0.5" stroke="grey" fill="grey"/>
   </g>
   <g id="cell317">
  <circle cx="120.201" cy="250.694" r="2.04224" stroke-width="0.5" stroke="black" fill="grey"/>
   </g>
   <g id="cell325">
  <circle cx="178.797" cy="225.966" r="3.68547" stroke-width="0.5" stroke="black" fill="grey"/>
   </g>
   <g id="cell327">
  <circle cx="188.378" cy="320.282" r="7.02692" stroke-width="0.5" stroke="black" fill="grey"/>
  <circle cx="188.378" cy="320.282" r="2.03058" stroke-width="0.5" stroke="grey" fill="grey"/>
   </g>
   <g id="cell329">
  <circle cx="182.483" cy="183.784" r="3.95771" stroke-width="0.5" stroke="black" fill="grey"/>
   </g>
   <g id="cell332">
  <circle cx="213.198" cy="263.284" r="8.05251" stroke-width="0.5" stroke="black" fill="grey"/>
  <circle cx="213.198" cy="263.284" r="4.4259" stroke-width="0.5" stroke="grey" fill="grey"/>
   </g>
   <g id="cell334">
  <circle cx="170.33" cy="211.437" r="8.41032" stroke-width="0.5" stroke="black" fill="grey"/>
  <circle cx="170.33" cy="211.437" r="5.04768" stroke-width="0.5" stroke="grey" fill="grey"/>
   </g>
   <g id="cell350">
  <circle cx="82.837" cy="161.947" r="8.25805" stroke-width="0.5" stroke="black" fill="grey"/>
  <circle cx="82.837" cy="161.947" r="4.78969" stroke-width="0.5" stroke="grey" fill="grey"/>
   </g>
   <g id="cell352">
  <circle cx="96.3002" cy="204.564" r="7.89589" stroke-width="0.5" stroke="black" fill="grey"/>
  <circle cx="96.3002" cy="204.564" r="4.1341" stroke-width="0.5" stroke="grey" fill="grey"/>
   </g>
   <g id="cell356">
  <circle cx="103.128" cy="149.838" r="7.78478" stroke-width="0.5" stroke="black" fill="grey"/>
  <circle cx="103.128" cy="149.838" r="3.91771" stroke-width="0.5" stroke="grey" fill="grey"/>
   </g>
   <g id="cell362">
  <circle cx="105.435" cy="264.975" r="8.40947" stroke-width="0.5" stroke="black" fill="grey"/>
  <circle cx="105.435" cy="264.975" r="5.04628" stroke-width="0.5" stroke="grey" fill="grey"/>
   </g>
   <g id="cell379">
  <circle cx="149.566" cy="269.485" r="4.35214" stroke-width="0.5" stroke="black" fill="grey"/>
   </g>
   <g id="cell382">
  <circle cx="129.347" cy="188.229" r="8.20783" stroke-width="0.5" stroke="black" fill="grey"/>
  <circle cx="129.347" cy="188.229" r="4.70256" stroke-width="0.5" stroke="grey" fill="grey"/>
   </g>
   <g id="cell390">
  <circle cx="175.926" cy="163.415" r="4.48407" stroke-width="0.5" stroke="black" fill="grey"/>
   </g>
   <g id="cell569">
  <circle cx="242.443" cy="125.079" r="8.41011" stroke-width="0.5" stroke="black" fill="red"/>
  <circle cx="242.443" cy="125.079" r="5.04735" stroke-width="0.5" stroke="red" fill="red"/>
   </g>
   <g id="cell621">
  <circle cx="209.397" cy="218.091" r="6.22454" stroke-width="0.5" stroke="black" fill="red"/>
   </g>
   <g id="cell624">
  <circle cx="217.979" cy="175.365" r="6.73601" stroke-width="0.5" stroke="black" fill="red"/>
  <circle cx="217.979" cy="175.365" r="0.345724" stroke-width="0.5" stroke="red" fill="red"/>
   </g>
   <g id="cell661">
  <circle cx="313.562" cy="119.606" r="7.89589" stroke-width="0.5" stroke="black" fill="red"/>
  <circle cx="313.562" cy="119.606" r="4.13409" stroke-width="0.5" stroke="red" fill="red"/>
   </g>
   <g id="cell676">
  <circle cx="322.551" cy="269.292" r="5.76984" stroke-width="0.5" stroke="black" fill="red"/>
   </g>
   <g id="cell681">
  <circle cx="347.555" cy="232.072" r="8.41163" stroke-width="0.5" stroke="black" fill="red"/>
  <circle cx="347.555" cy="232.072" r="5.04986" stroke-width="0.5" stroke="red" fill="red"/>
   </g>
   <g id="cell686">
  <circle cx="197.368" cy="214.353" r="6.31484" stroke-width="0.5" stroke="black" fill="red"/>
   </g>
   <g id="cell687">
  <circle cx="211.857" cy="147.745" r="8.32693" stroke-width="0.5" stroke="black" fill="red"/>
  <circle cx="211.857" cy="147.745" r="4.9075" stroke-width="0.5" stroke="red" fill="red"/>
   </g>
   <g id="cell689">
  <circle cx="221.615" cy="197.858" r="7.71751" stroke-width="0.5" stroke="black" fill="red"/>
  <circle cx="221.615" cy="197.858" r="3.78229" stroke-width="0.5" stroke="red" fill="red"/>
   </g>
   <g id="cell690">
  <circle cx="221.967" cy="208.903" r="4.43705" stroke-width="0.5" stroke="black" fill="red"/>
   </g>
   <g id="cell691">
  <circle cx="223.462" cy="228.231" r="2.72584" stroke-width="0.5" stroke="black" fill="red"/>
   </g>
   <g id="cell692">
  <circle cx="220.088" cy="243.047" r="6.39613" stroke-width="0.5" stroke="black" fill="red"/>
   </g>
   <g id="cell693">
  <circle cx="227.691" cy="147.769" r="7.40456" stroke-width="0.5" stroke="black" fill="red"/>
  <circle cx="227.691" cy="147.769" r="3.09406" stroke-width="0.5" stroke="red" fill="red"/>
   </g>
   <g id="cell695">
  <circle cx="231.079" cy="184.761" r="7.94528" stroke-width="0.5" stroke="black" fill="red"/>
  <circle cx="231.079" cy="184.761" r="4.22766" stroke-width="0.5" stroke="red" fill="red"/>
   </g>
   <g id="cell696">
  <circle cx="236.082" cy="201.73" r="7.93" stroke-width="0.5" stroke="black" fill="red"/>
  <circle cx="236.082" cy="201.73" r="4.19889" stroke-width="0.5" stroke="red" fill="red"/>
   </g>
   <g id="cell697">
  <circle cx="235.329" cy="217.526" r="7.16771" stroke-width="0.5" stroke="black" fill="red"/>
  <circle cx="235.329" cy="217.526" r="2.47422" stroke-width="0.5" stroke="red" fill="red"/>
   </g>
   <g id="cell699">
  <circle cx="229.427" cy="255.045" r="8.37818" stroke-width="0.5" stroke="black" fill="red"/>
  <circle cx="229.427" cy="255.045" r="4.99395" stroke-width="0.5" stroke="red" fill="red"/>
   </g>
   <g id="cell700">
  <circle cx="237.889" cy="157.912" r="8.19682" stroke-width="0.5" stroke="black" fill="red"/>
  <circle cx="237.889" cy="157.912" r="4.68332" stroke-width="0.5" stroke="red" fill="red"/>
   </g>
   <g id="cell702">
  <circle cx="253.094" cy="175.119" r="8.19471" stroke-width="0.5" stroke="black" fill="red"/>
  <circle cx="253.094" cy="175.119" r="4.67963" stroke-width="0.5" stroke="red" fill="red"/>
   </g>
   <g id="cell703">
  <circle cx="250.837" cy="192.198" r="4.95291" stroke-width="0.5" stroke="black" fill="red"/>
   </g>
   <g id="cell704">
  <circle cx="250.396" cy="210.635" r="8.4122" stroke-width="0.5" stroke="black" fill="red"/>
  <circle cx="250.396" cy="210.635" r="5.05082" stroke-width="0.5" stroke="red" fill="red"/>
   </g>
   <g id="cell706">
  <circle cx="248.154" cy="241.077" r="8.3621" stroke-width="0.5" stroke="black" fill="red"/>
  <circle cx="248.154" cy="241.077" r="4.96692" stroke-width="0.5" stroke="red" fill="red"/>
   </g>
   <g id="cell709">
  <circle cx="262.502" cy="138.763" r="4.70331" stroke-width="0.5" stroke="black" fill="red"/>
   </g>
   <g id="cell710">
  <circle cx="267.796" cy="171.41" r="4.33366" stroke-width="0.5" stroke="black" fill="red"/>
   </g>
   <g id="cell711">
  <circle cx="263.822" cy="186.409" r="8.26076" stroke-width="0.5" stroke="black" fill="red"/>
  <circle cx="263.822" cy="186.409" r="4.79435" stroke-width="0.5" stroke="red" fill="red"/>
   </g>
   <g id="cell712">
  <circle cx="263.505" cy="201.905" r="7.89599" stroke-width="0.5" stroke="black" fill="red"/>
  <circle cx="263.505" cy="201.905" r="4.13428" stroke-width="0.5" stroke="red" fill="red"/>
   </g>
   <g id="cell713">
  <circle cx="264.923" cy="217.254" r="6.19173" stroke-width="0.5" stroke="black" fill="red"/>
   </g>
   <g id="cell714">
  <circle cx="265.928" cy="233.569" r="5.10865" stroke-width="0.5" stroke="black" fill="red"/>
   </g>
   <g id="cell715">
  <circle cx="262.302" cy="248.095" r="8.30576" stroke-width="0.5" stroke="black" fill="red"/>
  <circle cx="262.302" cy="248.095" r="4.87148" stroke-width="0.5" stroke="red" fill="red"/>
   </g>
   <g id="cell716">
  <circle cx="243.299" cy="277.564" r="7.63268" stroke-width="0.5" stroke="black" fill="red"/>
  <circle cx="243.299" cy="277.564" r="3.60604" stroke-width="0.5" stroke="red" fill="red"/>
   </g>
   <g id="cell718">
  <circle cx="279.312" cy="150.21" r="8.08291" stroke-width="0.5" stroke="black" fill="red"/>
  <circle cx="279.312" cy="150.21" r="4.48098" stroke-width="0.5" stroke="red" fill="red"/>
   </g>
   <g id="cell719">
  <circle cx="281.668" cy="177.542" r="6.5569" stroke-width="0.5" stroke="black" fill="red"/>
   </g>
   <g id="cell720">
  <circle cx="279.809" cy="192.231" r="7.86766" stroke-width="0.5" stroke="black" fill="red"/>
  <circle cx="279.809" cy="192.231" r="4.07992" stroke-width="0.5" stroke="red" fill="red"/>
   </g>
   <g id="cell721">
  <circle cx="278.321" cy="207.673" r="8.36796" stroke-width="0.5" stroke="black" fill="red"/>
  <circle cx="278.321" cy="207.673" r="4.9768" stroke-width="0.5" stroke="red" fill="red"/>
   </g>
   <g id="cell722">
  <circle cx="278.88" cy="223.953" r="6.0126" stroke-width="0.5" stroke="black" fill="red"/>
   </g>
   <g id="cell723">
  <circle cx="278.482" cy="247.249" r="8.41233" stroke-width="0.5" stroke="black" fill="red"/>
  <circle cx="278.482" cy="247.249" r="5.05104" stroke-width="0.5" stroke="red" fill="red"/>
   </g>
   <g id="cell724">
  <circle cx="278.5" cy="264.79" r="8.30289" stroke-width="0.5" stroke="black" fill="red"/>
  <circle cx="278.5" cy="264.79" r="4.86659" stroke-width="0.5" stroke="red" fill="red"/>
   </g>
   <g id="cell727">
  <circle cx="295.278" cy="159.428" r="6.52414" stroke-width="0.5" stroke="black" fill="red"/>
   </g>
   <g id="cell728">
  <circle cx="293.788" cy="186.608" r="8.39737" stroke-width="0.5" stroke="black" fill="red"/>
  <circle cx="293.788" cy="186.608" r="5.02608" stroke-width="0.5" stroke="red" fill="red"/>
   </g>
   <g id="cell729">
  <circle cx="293.324" cy="201.815" r="7.95784" stroke-width="0.5" stroke="black" fill="red"/>
  <circle cx="293.324" cy="201.815" r="4.25122" stroke-width="0.5" stroke="red" fill="red"/>
   </g>
   <g id="cell730">
  <circle cx="292.693" cy="217.189" r="8.00129" stroke-width="0.5" stroke="black" fill="red"/>
  <circle cx="292.693" cy="217.189" r="4.33202" stroke-width="0.5" stroke="red" fill="red"/>
   </g>
   <g id="cell731">
  <circle cx="290.397" cy="234.671" r="8.34079" stroke-width="0.5" stroke="black" fill="red"/>
  <circle cx="290.397" cy="234.671" r="4.93097" stroke-width="0.5" stroke="red" fill="red"/>
   </g>
   <g id="cell732">
  <circle cx="294.636" cy="250.955" r="5.4598" stroke-width="0.5" stroke="black" fill="red"/>
   </g>
   <g id="cell733">
  <circle cx="288.974" cy="276.899" r="7.67532" stroke-width="0.5" stroke="black" fill="red"/>
  <circle cx="288.974" cy="276.899" r="3.69543" stroke-width="0.5" stroke="red" fill="red"/>
   </g>
   <g id="cell734">
  <circle cx="303.738" cy="132.278" r="8.39874" stroke-width="0.5" stroke="black" fill="red"/>
  <circle cx="303.738" cy="132.278" r="5.02837" stroke-width="0.5" stroke="red" fill="red"/>
   </g>
   <g id="cell735">
  <circle cx="306.931" cy="160.969" r="7.00917" stroke-width="0.5" stroke="black" fill="red"/>
  <circle cx="306.931" cy="160.969" r="1.96828" stroke-width="0.5" stroke="red" fill="red"/>
   </g>
   <g id="cell736">
  <circle cx="305.563" cy="175.975" r="8.15246" stroke-width="0.5" stroke="black" fill="red"/>
  <circle cx="305.563" cy="175.975" r="4.60525" stroke-width="0.5" stroke="red" fill="red"/>
   </g>
   <g id="cell737">
  <circle cx="307.455" cy="194.642" r="8.38789" stroke-width="0.5" stroke="black" fill="red"/>
  <circle cx="307.455" cy="194.642" r="5.01023" stroke-width="0.5" stroke="red" fill="red"/>
   </g>
   <g id="cell738">
  <circle cx="306.584" cy="209.833" r="8.34475" stroke-width="0.5" stroke="black" fill="red"/>
  <circle cx="306.584" cy="209.833" r="4.93766" stroke-width="0.5" stroke="red" fill="red"/>
   </g>
   <g id="cell739">
  <circle cx="306.106" cy="226.068" r="8.29096" stroke-width="0.5" stroke="black" fill="red"/>
  <circle cx="306.106" cy="226.068" r="4.8462" stroke-width="0.5" stroke="red" fill="red"/>
   </g>
   <g id="cell740">
  <circle cx="313.249" cy="242.036" r="6.02578" stroke-width="0.5" stroke="black" fill="red"/>
   </g>
   <g id="cell742">
  <circle cx="319.513" cy="151.41" r="6.00568" stroke-width="0.5" stroke="black" fill="red"/>
   </g>
   <g id="cell743">
  <circle cx="320.98" cy="169.935" r="8.27502" stroke-width="0.5" stroke="black" fill="red"/>
  <circle cx="320.98" cy="169.935" r="4.81888" stroke-width="0.5" stroke="red" fill="red"/>
   </g>
   <g id="cell744">
  <circle cx="323.179" cy="185.597" r="8.24664" stroke-width="0.5" stroke="black" fill="red"/>
  <circle cx="323.179" cy="185.597" r="4.76999" stroke-width="0.5" stroke="red" fill="red"/>
   </g>
   <g id="cell745">
  <circle cx="322.685" cy="199.438" r="6.82337" stroke-width="0.5" stroke="black" fill="red"/>
  <circle cx="322.685" cy="199.438" r="1.14194" stroke-width="0.5" stroke="red" fill="red"/>
   </g>
   <g id="cell746">
  <circle cx="321.662" cy="215.737" r="7.99041" stroke-width="0.5" stroke="black" fill="red"/>
  <circle cx="321.662" cy="215.737" r="4.31188" stroke-width="0.5" stroke="red" fill="red"/>
   </g>
   <g id="cell747">
  <circle cx="328.718" cy="240.243" r="4.95635" stroke-width="0.5" stroke="black" fill="red"/>
   </g>
   <g id="cell749">
  <circle cx="346.918" cy="164.596" r="8.34409" stroke-width="0.5" stroke="black" fill="red"/>
  <circle cx="346.918" cy="164.596" r="4.93655" stroke-width="0.5" stroke="red" fill="red"/>
   </g>
   <g id="cell751">
  <circle cx="338.042" cy="191.481" r="7.83076" stroke-width="0.5" stroke="black" fill="red"/>
  <circle cx="338.042" cy="191.481" r="4.0083" stroke-width="0.5" stroke="red" fill="red"/>
   </g>
   <g id="cell752">
  <circle cx="335.391" cy="208.132" r="8.39797" stroke-width="0.5" stroke="black" fill="red"/>
  <circle cx="335.391" cy="208.132" r="5.02708" stroke-width="0.5" stroke="red" fill="red"/>
   </g>
   <g id="cell753">
  <circle cx="349.433" cy="216.467" r="8.10423" stroke-width="0.5" stroke="black" fill="red"/>
  <circle cx="349.433" cy="216.467" r="4.51932" stroke-width="0.5" stroke="red" fill="red"/>
   </g>
   <g id="cell754">
  <circle cx="339.468" cy="250.08" r="8.38505" stroke-width="0.5" stroke="black" fill="red"/>
  <circle cx="339.468" cy="250.08" r="5.00548" stroke-width="0.5" stroke="red" fill="red"/>
   </g>
   <g id="cell755">
  <circle cx="351.418" cy="203.363" r="5.88489" stroke-width="0.5" stroke="black" fill="red"/>
   </g>
   <g id="cell760">
  <circle cx="211.236" cy="233.243" r="7.23821" stroke-width="0.5" stroke="black" fill="red"/>
  <circle cx="211.236" cy="233.243" r="2.6716" stroke-width="0.5" stroke="red" fill="red"/>
   </g>
   <g id="cell767">
  <circle cx="233.671" cy="136.109" r="5.95643" stroke-width="0.5" stroke="black" fill="red"/>
   </g>
   <g id="cell773">
  <circle cx="237.31" cy="228.2" r="4.75827" stroke-width="0.5" stroke="black" fill="red"/>
   </g>
   <g id="cell776">
  <circle cx="252.838" cy="149.487" r="8.32147" stroke-width="0.5" stroke="black" fill="red"/>
  <circle cx="252.838" cy="149.487" r="4.89821" stroke-width="0.5" stroke="red" fill="red"/>
   </g>
   <g id="cell777">
  <circle cx="261.488" cy="163.41" r="7.26966" stroke-width="0.5" stroke="black" fill="red"/>
  <circle cx="261.488" cy="163.41" r="2.75565" stroke-width="0.5" stroke="red" fill="red"/>
   </g>
   <g id="cell780">
  <circle cx="253.371" cy="227.703" r="4.57514" stroke-width="0.5" stroke="black" fill="red"/>
   </g>
   <g id="cell785">
  <circle cx="277.436" cy="163.899" r="6.68071" stroke-width="0.5" stroke="black" fill="red"/>
   </g>
   <g id="cell800">
  <circle cx="315.89" cy="103.176" r="7.34715" stroke-width="0.5" stroke="black" fill="red"/>
  <circle cx="315.89" cy="103.176" r="2.95402" stroke-width="0.5" stroke="red" fill="red"/>
   </g>
   <g id="cell801">
  <circle cx="309.517" cy="146.259" r="6.9993" stroke-width="0.5" stroke="black" fill="red"/>
  <circle cx="309.517" cy="146.259" r="1.93284" stroke-width="0.5" stroke="red" fill="red"/>
   </g>
   <g id="cell807">
  <circle cx="306.123" cy="253.613" r="7.62486" stroke-width="0.5" stroke="black" fill="red"/>
  <circle cx="306.123" cy="253.613" r="3.58945" stroke-width="0.5" stroke="red" fill="red"/>
   </g>
   <g id="cell809">
  <circle cx="321.51" cy="134.969" r="8.40996" stroke-width="0.5" stroke="black" fill="red"/>
  <circle cx="321.51" cy="134.969" r="5.04709" stroke-width="0.5" stroke="red" fill="red"/>
   </g>
   <g id="cell820">
  <circle cx="335.431" cy="222.82" r="4.32365" stroke-width="0.5" stroke="black" fill="red"/>
   </g>
  </g>
 </g>
  <rect x="190" y="414" width="200" height="4" stroke-width="0.8" stroke="rgb(255,255,255)" fill="rgb(0,0,0)"/>
  <text x="192.5" y="411.5"
   font-family="Arial" font-size="10" fill="black" >
   200 &#956;m
  </text>
  <text x="10" y="418"
   font-family="Arial" font-size="7.5" fill="black" >
   0 days, 0 hours, 3 minutes, and 56.1869 seconds
  </text>
  <rect x="0" y="28" width="400" height="400" stroke-width="0.8" stroke="rgb(0,0,0)" fill="none"/>
</svg>
