<?xml version="1.0" encoding="UTF-8" standalone="no"?>
<!-- Created with PhysiCell (http://PhysiCell.MathCancer.org/) -->
<svg 
 xmlns:dc="http://purl.org/dc/elements/1.1/" 
 xmlns:cc="http://creativecommons.org/ns#" 
 xmlns:rdf="http://www.w3.org/1999/02/22-rdf-syntax-ns#" 
 xmlns:svg="http://www.w3.org/2000/svg" 
 xmlns="http://www.w3.org/2000/svg" 
 version="1.1" 
 width="400" 
 height="428" 
 id="svg2">
  <rect x="0" y="0" width="400" height="428" stroke-width="0.8" stroke="white" fill="white"/>
  <text x="5" y="12"
   font-family="Arial" font-size="10" fill="black" >
   Current time: 0 days, 16 hours, and 0.00 minutes, z = 0.00 &#956;m
  </text>
  <text x="5" y="23"
   font-family="Arial" font-size="9.5" fill="black" >
   978 agents
  </text>
 <g id="tissue" 
    transform="translate(0,428) scale(1,-1)">
  <g id="ECM">
  </g>
  <g id="cells">
   <g id="cell133">
  <circle cx="41.9383" cy="245.045" r="8.4048" stroke-width="0.5" stroke="black" fill="grey"/>
  <circle cx="41.9383" cy="245.045" r="5.03849" stroke-width="0.5" stroke="grey" fill="grey"/>
   </g>
   <g id="cell140">
  <circle cx="95.7766" cy="144.831" r="1.71078" stroke-width="0.5" stroke="black" fill="grey"/>
   </g>
   <g id="cell144">
  <circle cx="94.2183" cy="214.883" r="6.79925" stroke-width="0.5" stroke="black" fill="grey"/>
  <circle cx="94.2183" cy="214.883" r="0.987676" stroke-width="0.5" stroke="grey" fill="grey"/>
   </g>
   <g id="cell145">
  <circle cx="78.141" cy="239.737" r="5.27818" stroke-width="0.5" stroke="black" fill="grey"/>
   </g>
   <g id="cell148">
  <circle cx="107.517" cy="153.491" r="5.14712" stroke-width="0.5" stroke="black" fill="grey"/>
   </g>
   <g id="cell150">
  <circle cx="109.165" cy="193.03" r="5.05159" stroke-width="0.5" stroke="black" fill="grey"/>
   </g>
   <g id="cell154">
  <circle cx="94.4027" cy="273.53" r="8.04898" stroke-width="0.5" stroke="black" fill="grey"/>
  <circle cx="94.4027" cy="273.53" r="4.41947" stroke-width="0.5" stroke="grey" fill="grey"/>
   </g>
   <g id="cell167">
  <circle cx="148.186" cy="182.835" r="4.93345" stroke-width="0.5" stroke="black" fill="grey"/>
   </g>
   <g id="cell180">
  <circle cx="173.179" cy="124.81" r="3.29659" stroke-width="0.5" stroke="black" fill="grey"/>
   </g>
   <g id="cell184">
  <circle cx="181.157" cy="210.572" r="7.094" stroke-width="0.5" stroke="black" fill="grey"/>
  <circle cx="181.157" cy="210.572" r="2.25177" stroke-width="0.5" stroke="grey" fill="grey"/>
   </g>
   <g id="cell193">
  <circle cx="204.731" cy="166.218" r="5.44568" stroke-width="0.5" stroke="black" fill="grey"/>
   </g>
   <g id="cell195">
  <circle cx="26.6054" cy="167.313" r="5.54168" stroke-width="0.5" stroke="black" fill="grey"/>
   </g>
   <g id="cell199">
  <circle cx="50.7109" cy="162.021" r="8.25824" stroke-width="0.5" stroke="black" fill="grey"/>
  <circle cx="50.7109" cy="162.021" r="4.79001" stroke-width="0.5" stroke="grey" fill="grey"/>
   </g>
   <g id="cell207">
  <circle cx="66.0655" cy="189.182" r="3.4157" stroke-width="0.5" stroke="black" fill="grey"/>
   </g>
   <g id="cell208">
  <circle cx="81.3731" cy="220.197" r="8.33607" stroke-width="0.5" stroke="black" fill="grey"/>
  <circle cx="81.3731" cy="220.197" r="4.92298" stroke-width="0.5" stroke="grey" fill="grey"/>
   </g>
   <g id="cell213">
  <circle cx="82.5788" cy="166.712" r="8.09355" stroke-width="0.5" stroke="black" fill="grey"/>
  <circle cx="82.5788" cy="166.712" r="4.50013" stroke-width="0.5" stroke="grey" fill="grey"/>
   </g>
   <g id="cell215">
  <circle cx="108.944" cy="218.586" r="6.6379" stroke-width="0.5" stroke="black" fill="grey"/>
   </g>
   <g id="cell218">
  <circle cx="88.8529" cy="286.196" r="3.81689" stroke-width="0.5" stroke="black" fill="grey"/>
   </g>
   <g id="cell221">
  <circle cx="107.61" cy="177.179" r="4.62668" stroke-width="0.5" stroke="black" fill="grey"/>
   </g>
   <g id="cell222">
  <circle cx="97.9287" cy="183.794" r="6.60936" stroke-width="0.5" stroke="black" fill="grey"/>
   </g>
   <g id="cell224">
  <circle cx="90.9734" cy="230.349" r="6.34862" stroke-width="0.5" stroke="black" fill="grey"/>
   </g>
   <g id="cell227">
  <circle cx="101.014" cy="296.868" r="6.391" stroke-width="0.5" stroke="black" fill="grey"/>
   </g>
   <g id="cell228">
  <circle cx="125.884" cy="125.938" r="7.66075" stroke-width="0.5" stroke="black" fill="grey"/>
  <circle cx="125.884" cy="125.938" r="3.66508" stroke-width="0.5" stroke="grey" fill="grey"/>
   </g>
   <g id="cell229">
  <circle cx="128.149" cy="139.404" r="7.82446" stroke-width="0.5" stroke="black" fill="grey"/>
  <circle cx="128.149" cy="139.404" r="3.99597" stroke-width="0.5" stroke="grey" fill="grey"/>
   </g>
   <g id="cell230">
  <circle cx="124.485" cy="176.294" r="6.95398" stroke-width="0.5" stroke="black" fill="grey"/>
  <circle cx="124.485" cy="176.294" r="1.76166" stroke-width="0.5" stroke="grey" fill="grey"/>
   </g>
   <g id="cell231">
  <circle cx="121.061" cy="198.644" r="7.41791" stroke-width="0.5" stroke="black" fill="grey"/>
  <circle cx="121.061" cy="198.644" r="3.12587" stroke-width="0.5" stroke="grey" fill="grey"/>
   </g>
   <g id="cell233">
  <circle cx="121.272" cy="238.917" r="5.54227" stroke-width="0.5" stroke="black" fill="grey"/>
   </g>
   <g id="cell234">
  <circle cx="132.997" cy="250.852" r="7.42471" stroke-width="0.5" stroke="black" fill="grey"/>
  <circle cx="132.997" cy="250.852" r="3.14198" stroke-width="0.5" stroke="grey" fill="grey"/>
   </g>
   <g id="cell235">
  <circle cx="116.16" cy="268.322" r="8.3752" stroke-width="0.5" stroke="black" fill="grey"/>
  <circle cx="116.16" cy="268.322" r="4.98895" stroke-width="0.5" stroke="grey" fill="grey"/>
   </g>
   <g id="cell237">
  <circle cx="144.985" cy="144.022" r="6.8885" stroke-width="0.5" stroke="black" fill="grey"/>
  <circle cx="144.985" cy="144.022" r="1.48229" stroke-width="0.5" stroke="grey" fill="grey"/>
   </g>
   <g id="cell238">
  <circle cx="149.83" cy="155.153" r="7.63585" stroke-width="0.5" stroke="black" fill="grey"/>
  <circle cx="149.83" cy="155.153" r="3.61274" stroke-width="0.5" stroke="grey" fill="grey"/>
   </g>
   <g id="cell239">
  <circle cx="159.156" cy="171.017" r="7.67548" stroke-width="0.5" stroke="black" fill="grey"/>
  <circle cx="159.156" cy="171.017" r="3.69577" stroke-width="0.5" stroke="grey" fill="grey"/>
   </g>
   <g id="cell240">
  <circle cx="139.923" cy="206.372" r="7.65353" stroke-width="0.5" stroke="black" fill="grey"/>
  <circle cx="139.923" cy="206.372" r="3.64995" stroke-width="0.5" stroke="grey" fill="grey"/>
   </g>
   <g id="cell241">
  <circle cx="127.439" cy="219.425" r="8.3648" stroke-width="0.5" stroke="black" fill="grey"/>
  <circle cx="127.439" cy="219.425" r="4.97147" stroke-width="0.5" stroke="grey" fill="grey"/>
   </g>
   <g id="cell242">
  <circle cx="140.377" cy="226.697" r="8.40761" stroke-width="0.5" stroke="black" fill="grey"/>
  <circle cx="140.377" cy="226.697" r="5.04317" stroke-width="0.5" stroke="grey" fill="grey"/>
   </g>
   <g id="cell244">
  <circle cx="132.437" cy="288.962" r="5.12986" stroke-width="0.5" stroke="black" fill="grey"/>
   </g>
   <g id="cell245">
  <circle cx="141.149" cy="130.403" r="7.80632" stroke-width="0.5" stroke="black" fill="grey"/>
  <circle cx="141.149" cy="130.403" r="3.96033" stroke-width="0.5" stroke="grey" fill="grey"/>
   </g>
   <g id="cell248">
  <circle cx="163.967" cy="208.213" r="4.65348" stroke-width="0.5" stroke="black" fill="grey"/>
   </g>
   <g id="cell252">
  <circle cx="161.403" cy="284.984" r="4.27078" stroke-width="0.5" stroke="black" fill="grey"/>
   </g>
   <g id="cell254">
  <circle cx="192.091" cy="165.587" r="3.05691" stroke-width="0.5" stroke="black" fill="grey"/>
   </g>
   <g id="cell255">
  <circle cx="180.137" cy="177.276" r="5.43901" stroke-width="0.5" stroke="black" fill="grey"/>
   </g>
   <g id="cell256">
  <circle cx="173.513" cy="198.2" r="8.40218" stroke-width="0.5" stroke="black" fill="grey"/>
  <circle cx="173.513" cy="198.2" r="5.03412" stroke-width="0.5" stroke="grey" fill="grey"/>
   </g>
   <g id="cell257">
  <circle cx="159.162" cy="223.015" r="1.81527" stroke-width="0.5" stroke="black" fill="grey"/>
   </g>
   <g id="cell258">
  <circle cx="172.513" cy="247.88" r="8.07774" stroke-width="0.5" stroke="black" fill="grey"/>
  <circle cx="172.513" cy="247.88" r="4.47163" stroke-width="0.5" stroke="grey" fill="grey"/>
   </g>
   <g id="cell259">
  <circle cx="185.727" cy="267.304" r="8.38804" stroke-width="0.5" stroke="black" fill="grey"/>
  <circle cx="185.727" cy="267.304" r="5.01048" stroke-width="0.5" stroke="grey" fill="grey"/>
   </g>
   <g id="cell261">
  <circle cx="194.825" cy="184.53" r="7.41725" stroke-width="0.5" stroke="black" fill="grey"/>
  <circle cx="194.825" cy="184.53" r="3.12431" stroke-width="0.5" stroke="grey" fill="grey"/>
   </g>
   <g id="cell264">
  <circle cx="187.198" cy="225.482" r="5.46936" stroke-width="0.5" stroke="black" fill="grey"/>
   </g>
   <g id="cell268">
  <circle cx="71.2188" cy="176.73" r="7.63352" stroke-width="0.5" stroke="black" fill="grey"/>
  <circle cx="71.2188" cy="176.73" r="3.60781" stroke-width="0.5" stroke="grey" fill="grey"/>
   </g>
   <g id="cell269">
  <circle cx="40.8427" cy="195.558" r="7.60437" stroke-width="0.5" stroke="black" fill="grey"/>
  <circle cx="40.8427" cy="195.558" r="3.54573" stroke-width="0.5" stroke="grey" fill="grey"/>
   </g>
   <g id="cell275">
  <circle cx="72.4925" cy="203.754" r="7.29257" stroke-width="0.5" stroke="black" fill="grey"/>
  <circle cx="72.4925" cy="203.754" r="2.81555" stroke-width="0.5" stroke="grey" fill="grey"/>
   </g>
   <g id="cell276">
  <circle cx="51.7021" cy="233.246" r="8.36574" stroke-width="0.5" stroke="black" fill="grey"/>
  <circle cx="51.7021" cy="233.246" r="4.97306" stroke-width="0.5" stroke="grey" fill="grey"/>
   </g>
   <g id="cell287">
  <circle cx="112.293" cy="166.323" r="4.3782" stroke-width="0.5" stroke="black" fill="grey"/>
   </g>
   <g id="cell290">
  <circle cx="106.483" cy="233.085" r="8.21902" stroke-width="0.5" stroke="black" fill="grey"/>
  <circle cx="106.483" cy="233.085" r="4.72207" stroke-width="0.5" stroke="grey" fill="grey"/>
   </g>
   <g id="cell295">
  <circle cx="109.174" cy="137.317" r="6.7474" stroke-width="0.5" stroke="black" fill="grey"/>
  <circle cx="109.174" cy="137.317" r="0.522523" stroke-width="0.5" stroke="grey" fill="grey"/>
   </g>
   <g id="cell296">
  <circle cx="129.169" cy="162.1" r="5.70592" stroke-width="0.5" stroke="black" fill="grey"/>
   </g>
   <g id="cell297">
  <circle cx="113.742" cy="183.956" r="6.41744" stroke-width="0.5" stroke="black" fill="grey"/>
   </g>
   <g id="cell305">
  <circle cx="141.17" cy="173.008" r="7.01464" stroke-width="0.5" stroke="black" fill="grey"/>
  <circle cx="141.17" cy="173.008" r="1.98767" stroke-width="0.5" stroke="grey" fill="grey"/>
   </g>
   <g id="cell310">
  <circle cx="145.623" cy="262.383" r="8.36407" stroke-width="0.5" stroke="black" fill="grey"/>
  <circle cx="145.623" cy="262.383" r="4.97025" stroke-width="0.5" stroke="grey" fill="grey"/>
   </g>
   <g id="cell315">
  <circle cx="150.888" cy="207.426" r="6.51467" stroke-width="0.5" stroke="black" fill="grey"/>
   </g>
   <g id="cell316">
  <circle cx="146.442" cy="245.256" r="7.79926" stroke-width="0.5" stroke="black" fill="grey"/>
  <circle cx="146.442" cy="245.256" r="3.9464" stroke-width="0.5" stroke="grey" fill="grey"/>
   </g>
   <g id="cell322">
  <circle cx="163.972" cy="182.678" r="6.5352" stroke-width="0.5" stroke="black" fill="grey"/>
   </g>
   <g id="cell331">
  <circle cx="180.194" cy="235.496" r="7.16357" stroke-width="0.5" stroke="black" fill="grey"/>
  <circle cx="180.194" cy="235.496" r="2.46221" stroke-width="0.5" stroke="grey" fill="grey"/>
   </g>
   <g id="cell335">
  <circle cx="77.0837" cy="136.86" r="8.37159" stroke-width="0.5" stroke="black" fill="grey"/>
  <circle cx="77.0837" cy="136.86" r="4.98289" stroke-width="0.5" stroke="grey" fill="grey"/>
   </g>
   <g id="cell684">
  <circle cx="209.463" cy="182.683" r="6.76305" stroke-width="0.5" stroke="black" fill="red"/>
  <circle cx="209.463" cy="182.683" r="0.696071" stroke-width="0.5" stroke="red" fill="red"/>
   </g>
   <g id="cell685">
  <circle cx="204.777" cy="200.344" r="7.80663" stroke-width="0.5" stroke="black" fill="red"/>
  <circle cx="204.777" cy="200.344" r="3.96095" stroke-width="0.5" stroke="red" fill="red"/>
   </g>
   <g id="cell688">
  <circle cx="218.291" cy="166.5" r="8.16318" stroke-width="0.5" stroke="black" fill="red"/>
  <circle cx="218.291" cy="166.5" r="4.6242" stroke-width="0.5" stroke="red" fill="red"/>
   </g>
   <g id="cell689">
  <circle cx="221.11" cy="195.473" r="8.36155" stroke-width="0.5" stroke="black" fill="red"/>
  <circle cx="221.11" cy="195.473" r="4.96601" stroke-width="0.5" stroke="red" fill="red"/>
   </g>
   <g id="cell690">
  <circle cx="219.954" cy="212.177" r="8.11583" stroke-width="0.5" stroke="black" fill="red"/>
  <circle cx="219.954" cy="212.177" r="4.54008" stroke-width="0.5" stroke="red" fill="red"/>
   </g>
   <g id="cell691">
  <circle cx="219.489" cy="229.803" r="6.46552" stroke-width="0.5" stroke="black" fill="red"/>
   </g>
   <g id="cell692">
  <circle cx="220.139" cy="245.351" r="8.37415" stroke-width="0.5" stroke="black" fill="red"/>
  <circle cx="220.139" cy="245.351" r="4.98719" stroke-width="0.5" stroke="red" fill="red"/>
   </g>
   <g id="cell693">
  <circle cx="236.28" cy="153.734" r="8.39985" stroke-width="0.5" stroke="black" fill="red"/>
  <circle cx="236.28" cy="153.734" r="5.03022" stroke-width="0.5" stroke="red" fill="red"/>
   </g>
   <g id="cell694">
  <circle cx="232.979" cy="169.769" r="7.80757" stroke-width="0.5" stroke="black" fill="red"/>
  <circle cx="232.979" cy="169.769" r="3.96281" stroke-width="0.5" stroke="red" fill="red"/>
   </g>
   <g id="cell695">
  <circle cx="234.378" cy="186.715" r="8.41235" stroke-width="0.5" stroke="black" fill="red"/>
  <circle cx="234.378" cy="186.715" r="5.05107" stroke-width="0.5" stroke="red" fill="red"/>
   </g>
   <g id="cell696">
  <circle cx="234.858" cy="201.799" r="7.26666" stroke-width="0.5" stroke="black" fill="red"/>
  <circle cx="234.858" cy="201.799" r="2.74772" stroke-width="0.5" stroke="red" fill="red"/>
   </g>
   <g id="cell697">
  <circle cx="234.647" cy="218.196" r="7.05337" stroke-width="0.5" stroke="black" fill="red"/>
  <circle cx="234.647" cy="218.196" r="2.12033" stroke-width="0.5" stroke="red" fill="red"/>
   </g>
   <g id="cell698">
  <circle cx="233.562" cy="233.795" r="8.3295" stroke-width="0.5" stroke="black" fill="red"/>
  <circle cx="233.562" cy="233.795" r="4.91184" stroke-width="0.5" stroke="red" fill="red"/>
   </g>
   <g id="cell699">
  <circle cx="235.774" cy="252.048" r="8.34255" stroke-width="0.5" stroke="black" fill="red"/>
  <circle cx="235.774" cy="252.048" r="4.93395" stroke-width="0.5" stroke="red" fill="red"/>
   </g>
   <g id="cell700">
  <circle cx="249.807" cy="146.588" r="8.3971" stroke-width="0.5" stroke="black" fill="red"/>
  <circle cx="249.807" cy="146.588" r="5.02563" stroke-width="0.5" stroke="red" fill="red"/>
   </g>
   <g id="cell701">
  <circle cx="248.74" cy="162.467" r="7.40083" stroke-width="0.5" stroke="black" fill="red"/>
  <circle cx="248.74" cy="162.467" r="3.08513" stroke-width="0.5" stroke="red" fill="red"/>
   </g>
   <g id="cell702">
  <circle cx="247.404" cy="177.948" r="5.451" stroke-width="0.5" stroke="black" fill="red"/>
   </g>
   <g id="cell703">
  <circle cx="248.53" cy="193.027" r="7.79059" stroke-width="0.5" stroke="black" fill="red"/>
  <circle cx="248.53" cy="193.027" r="3.92925" stroke-width="0.5" stroke="red" fill="red"/>
   </g>
   <g id="cell704">
  <circle cx="248.995" cy="209.62" r="8.25803" stroke-width="0.5" stroke="black" fill="red"/>
  <circle cx="248.995" cy="209.62" r="4.78966" stroke-width="0.5" stroke="red" fill="red"/>
   </g>
   <g id="cell705">
  <circle cx="250.478" cy="225.925" r="7.95104" stroke-width="0.5" stroke="black" fill="red"/>
  <circle cx="250.478" cy="225.925" r="4.23849" stroke-width="0.5" stroke="red" fill="red"/>
   </g>
   <g id="cell706">
  <circle cx="248.719" cy="243.018" r="8.19682" stroke-width="0.5" stroke="black" fill="red"/>
  <circle cx="248.719" cy="243.018" r="4.68333" stroke-width="0.5" stroke="red" fill="red"/>
   </g>
   <g id="cell707">
  <circle cx="245.972" cy="264.115" r="0.831408" stroke-width="0.5" stroke="black" fill="red"/>
   </g>
   <g id="cell708">
  <circle cx="259.526" cy="123.903" r="8.26637" stroke-width="0.5" stroke="black" fill="red"/>
  <circle cx="259.526" cy="123.903" r="4.80401" stroke-width="0.5" stroke="red" fill="red"/>
   </g>
   <g id="cell709">
  <circle cx="264.2" cy="152.198" r="8.39904" stroke-width="0.5" stroke="black" fill="red"/>
  <circle cx="264.2" cy="152.198" r="5.02887" stroke-width="0.5" stroke="red" fill="red"/>
   </g>
   <g id="cell710">
  <circle cx="263.241" cy="168.346" r="7.66225" stroke-width="0.5" stroke="black" fill="red"/>
  <circle cx="263.241" cy="168.346" r="3.66822" stroke-width="0.5" stroke="red" fill="red"/>
   </g>
   <g id="cell711">
  <circle cx="262.673" cy="185.377" r="7.90379" stroke-width="0.5" stroke="black" fill="red"/>
  <circle cx="262.673" cy="185.377" r="4.14916" stroke-width="0.5" stroke="red" fill="red"/>
   </g>
   <g id="cell712">
  <circle cx="261.857" cy="201.542" r="8.07001" stroke-width="0.5" stroke="black" fill="red"/>
  <circle cx="261.857" cy="201.542" r="4.45767" stroke-width="0.5" stroke="red" fill="red"/>
   </g>
   <g id="cell713">
  <circle cx="263.964" cy="218.114" r="8.22172" stroke-width="0.5" stroke="black" fill="red"/>
  <circle cx="263.964" cy="218.114" r="4.72678" stroke-width="0.5" stroke="red" fill="red"/>
   </g>
   <g id="cell714">
  <circle cx="262.764" cy="234.465" r="8.29917" stroke-width="0.5" stroke="black" fill="red"/>
  <circle cx="262.764" cy="234.465" r="4.86024" stroke-width="0.5" stroke="red" fill="red"/>
   </g>
   <g id="cell715">
  <circle cx="263.468" cy="250.906" r="7.67975" stroke-width="0.5" stroke="black" fill="red"/>
  <circle cx="263.468" cy="250.906" r="3.70462" stroke-width="0.5" stroke="red" fill="red"/>
   </g>
   <g id="cell716">
  <circle cx="259.834" cy="274.349" r="7.22817" stroke-width="0.5" stroke="black" fill="red"/>
  <circle cx="259.834" cy="274.349" r="2.64425" stroke-width="0.5" stroke="red" fill="red"/>
   </g>
   <g id="cell717">
  <circle cx="274.327" cy="140.489" r="7.09486" stroke-width="0.5" stroke="black" fill="red"/>
  <circle cx="274.327" cy="140.489" r="2.25449" stroke-width="0.5" stroke="red" fill="red"/>
   </g>
   <g id="cell718">
  <circle cx="279.233" cy="155.263" r="8.30559" stroke-width="0.5" stroke="black" fill="red"/>
  <circle cx="279.233" cy="155.263" r="4.8712" stroke-width="0.5" stroke="red" fill="red"/>
   </g>
   <g id="cell719">
  <circle cx="276.543" cy="176.569" r="7.97032" stroke-width="0.5" stroke="black" fill="red"/>
  <circle cx="276.543" cy="176.569" r="4.27455" stroke-width="0.5" stroke="red" fill="red"/>
   </g>
   <g id="cell720">
  <circle cx="277.585" cy="192.702" r="8.15248" stroke-width="0.5" stroke="black" fill="red"/>
  <circle cx="277.585" cy="192.702" r="4.60529" stroke-width="0.5" stroke="red" fill="red"/>
   </g>
   <g id="cell721">
  <circle cx="278.081" cy="209.538" r="8.09244" stroke-width="0.5" stroke="black" fill="red"/>
  <circle cx="278.081" cy="209.538" r="4.49815" stroke-width="0.5" stroke="red" fill="red"/>
   </g>
   <g id="cell722">
  <circle cx="277.956" cy="226.009" r="8.22263" stroke-width="0.5" stroke="black" fill="red"/>
  <circle cx="277.956" cy="226.009" r="4.72836" stroke-width="0.5" stroke="red" fill="red"/>
   </g>
   <g id="cell723">
  <circle cx="277.22" cy="242.059" r="8.39594" stroke-width="0.5" stroke="black" fill="red"/>
  <circle cx="277.22" cy="242.059" r="5.02369" stroke-width="0.5" stroke="red" fill="red"/>
   </g>
   <g id="cell724">
  <circle cx="277.763" cy="257.623" r="8.41144" stroke-width="0.5" stroke="black" fill="red"/>
  <circle cx="277.763" cy="257.623" r="5.04955" stroke-width="0.5" stroke="red" fill="red"/>
   </g>
   <g id="cell726">
  <circle cx="294.662" cy="152.84" r="8.35162" stroke-width="0.5" stroke="black" fill="red"/>
  <circle cx="294.662" cy="152.84" r="4.94926" stroke-width="0.5" stroke="red" fill="red"/>
   </g>
   <g id="cell727">
  <circle cx="290.687" cy="168.963" r="8.35909" stroke-width="0.5" stroke="black" fill="red"/>
  <circle cx="290.687" cy="168.963" r="4.96186" stroke-width="0.5" stroke="red" fill="red"/>
   </g>
   <g id="cell728">
  <circle cx="290.562" cy="184.438" r="8.40324" stroke-width="0.5" stroke="black" fill="red"/>
  <circle cx="290.562" cy="184.438" r="5.03588" stroke-width="0.5" stroke="red" fill="red"/>
   </g>
   <g id="cell729">
  <circle cx="293.38" cy="200.824" r="8.40363" stroke-width="0.5" stroke="black" fill="red"/>
  <circle cx="293.38" cy="200.824" r="5.03654" stroke-width="0.5" stroke="red" fill="red"/>
   </g>
   <g id="cell730">
  <circle cx="291.98" cy="218.57" r="8.16628" stroke-width="0.5" stroke="black" fill="red"/>
  <circle cx="291.98" cy="218.57" r="4.62967" stroke-width="0.5" stroke="red" fill="red"/>
   </g>
   <g id="cell731">
  <circle cx="291.71" cy="234.678" r="8.02749" stroke-width="0.5" stroke="black" fill="red"/>
  <circle cx="291.71" cy="234.678" r="4.38021" stroke-width="0.5" stroke="red" fill="red"/>
   </g>
   <g id="cell732">
  <circle cx="291.2" cy="250.227" r="8.39732" stroke-width="0.5" stroke="black" fill="red"/>
  <circle cx="291.2" cy="250.227" r="5.026" stroke-width="0.5" stroke="red" fill="red"/>
   </g>
   <g id="cell733">
  <circle cx="286.33" cy="271.943" r="6.13172" stroke-width="0.5" stroke="black" fill="red"/>
   </g>
   <g id="cell734">
  <circle cx="300.836" cy="140.449" r="5.49627" stroke-width="0.5" stroke="black" fill="red"/>
   </g>
   <g id="cell736">
  <circle cx="304.98" cy="175.65" r="8.21271" stroke-width="0.5" stroke="black" fill="red"/>
  <circle cx="304.98" cy="175.65" r="4.71108" stroke-width="0.5" stroke="red" fill="red"/>
   </g>
   <g id="cell737">
  <circle cx="307.912" cy="193.614" r="7.87996" stroke-width="0.5" stroke="black" fill="red"/>
  <circle cx="307.912" cy="193.614" r="4.1036" stroke-width="0.5" stroke="red" fill="red"/>
   </g>
   <g id="cell738">
  <circle cx="306.203" cy="211.268" r="8.29264" stroke-width="0.5" stroke="black" fill="red"/>
  <circle cx="306.203" cy="211.268" r="4.84908" stroke-width="0.5" stroke="red" fill="red"/>
   </g>
   <g id="cell739">
  <circle cx="305.901" cy="228.676" r="6.18145" stroke-width="0.5" stroke="black" fill="red"/>
   </g>
   <g id="cell740">
  <circle cx="305.463" cy="245.177" r="8.41242" stroke-width="0.5" stroke="black" fill="red"/>
  <circle cx="305.463" cy="245.177" r="5.05119" stroke-width="0.5" stroke="red" fill="red"/>
   </g>
   <g id="cell741">
  <circle cx="305.149" cy="260.043" r="6.5195" stroke-width="0.5" stroke="black" fill="red"/>
   </g>
   <g id="cell742">
  <circle cx="310.833" cy="151.322" r="8.40492" stroke-width="0.5" stroke="black" fill="red"/>
  <circle cx="310.833" cy="151.322" r="5.03868" stroke-width="0.5" stroke="red" fill="red"/>
   </g>
   <g id="cell743">
  <circle cx="319.919" cy="165.631" r="7.98953" stroke-width="0.5" stroke="black" fill="red"/>
  <circle cx="319.919" cy="165.631" r="4.31025" stroke-width="0.5" stroke="red" fill="red"/>
   </g>
   <g id="cell744">
  <circle cx="319.364" cy="182.606" r="7.80116" stroke-width="0.5" stroke="black" fill="red"/>
  <circle cx="319.364" cy="182.606" r="3.95016" stroke-width="0.5" stroke="red" fill="red"/>
   </g>
   <g id="cell745">
  <circle cx="320.773" cy="202.757" r="8.38999" stroke-width="0.5" stroke="black" fill="red"/>
  <circle cx="320.773" cy="202.757" r="5.01374" stroke-width="0.5" stroke="red" fill="red"/>
   </g>
   <g id="cell746">
  <circle cx="320.318" cy="219.736" r="8.08202" stroke-width="0.5" stroke="black" fill="red"/>
  <circle cx="320.318" cy="219.736" r="4.47937" stroke-width="0.5" stroke="red" fill="red"/>
   </g>
   <g id="cell747">
  <circle cx="320.053" cy="237.803" r="7.74094" stroke-width="0.5" stroke="black" fill="red"/>
  <circle cx="320.053" cy="237.803" r="3.82987" stroke-width="0.5" stroke="red" fill="red"/>
   </g>
   <g id="cell748">
  <circle cx="320.704" cy="253.829" r="4.30056" stroke-width="0.5" stroke="black" fill="red"/>
   </g>
   <g id="cell749">
  <circle cx="343.85" cy="160.493" r="8.30413" stroke-width="0.5" stroke="black" fill="red"/>
  <circle cx="343.85" cy="160.493" r="4.86869" stroke-width="0.5" stroke="red" fill="red"/>
   </g>
   <g id="cell750">
  <circle cx="335.465" cy="173.155" r="7.36603" stroke-width="0.5" stroke="black" fill="red"/>
  <circle cx="335.465" cy="173.155" r="3.00068" stroke-width="0.5" stroke="red" fill="red"/>
   </g>
   <g id="cell751">
  <circle cx="348.874" cy="189.42" r="8.12386" stroke-width="0.5" stroke="black" fill="red"/>
  <circle cx="348.874" cy="189.42" r="4.55442" stroke-width="0.5" stroke="red" fill="red"/>
   </g>
   <g id="cell752">
  <circle cx="334.151" cy="211.713" r="8.37523" stroke-width="0.5" stroke="black" fill="red"/>
  <circle cx="334.151" cy="211.713" r="4.98901" stroke-width="0.5" stroke="red" fill="red"/>
   </g>
   <g id="cell754">
  <circle cx="334.112" cy="244.504" r="7.95639" stroke-width="0.5" stroke="black" fill="red"/>
  <circle cx="334.112" cy="244.504" r="4.24852" stroke-width="0.5" stroke="red" fill="red"/>
   </g>
   <g id="cell755">
  <circle cx="349.429" cy="204.408" r="5.63651" stroke-width="0.5" stroke="black" fill="red"/>
   </g>
   <g id="cell767">
  <circle cx="246.553" cy="130.192" r="8.17921" stroke-width="0.5" stroke="black" fill="red"/>
  <circle cx="246.553" cy="130.192" r="4.65244" stroke-width="0.5" stroke="red" fill="red"/>
   </g>
   <g id="cell818">
  <circle cx="332.287" cy="185.699" r="3.14915" stroke-width="0.5" stroke="black" fill="red"/>
   </g>
  </g>
 </g>
  <rect x="190" y="414" width="200" height="4" stroke-width="0.8" stroke="rgb(255,255,255)" fill="rgb(0,0,0)"/>
  <text x="192.5" y="411.5"
   font-family="Arial" font-size="10" fill="black" >
   200 &#956;m
  </text>
  <text x="10" y="418"
   font-family="Arial" font-size="7.5" fill="black" >
   0 days, 0 hours, 1 minutes, and 33.0808 seconds
  </text>
  <rect x="0" y="28" width="400" height="400" stroke-width="0.8" stroke="rgb(0,0,0)" fill="none"/>
</svg>
