<?xml version="1.0" encoding="UTF-8" standalone="no"?>
<!-- Created with PhysiCell (http://PhysiCell.MathCancer.org/) -->
<svg 
 xmlns:dc="http://purl.org/dc/elements/1.1/" 
 xmlns:cc="http://creativecommons.org/ns#" 
 xmlns:rdf="http://www.w3.org/1999/02/22-rdf-syntax-ns#" 
 xmlns:svg="http://www.w3.org/2000/svg" 
 xmlns="http://www.w3.org/2000/svg" 
 version="1.1" 
 width="400" 
 height="428" 
 id="svg2">
  <rect x="0" y="0" width="400" height="428" stroke-width="0.8" stroke="white" fill="white"/>
  <text x="5" y="12"
   font-family="Arial" font-size="10" fill="black" >
   Current time: 1 days, 17 hours, and 0.00 minutes, z = 0.00 &#956;m
  </text>
  <text x="5" y="23"
   font-family="Arial" font-size="9.5" fill="black" >
   978 agents
  </text>
 <g id="tissue" 
    transform="translate(0,428) scale(1,-1)">
  <g id="ECM">
  </g>
  <g id="cells">
   <g id="cell88">
  <circle cx="110.637" cy="113.569" r="8.39493" stroke-width="0.5" stroke="black" fill="grey"/>
  <circle cx="110.637" cy="113.569" r="5.022" stroke-width="0.5" stroke="grey" fill="grey"/>
   </g>
   <g id="cell134">
  <circle cx="51.5753" cy="128.563" r="8.40058" stroke-width="0.5" stroke="black" fill="grey"/>
  <circle cx="51.5753" cy="128.563" r="5.03145" stroke-width="0.5" stroke="grey" fill="grey"/>
   </g>
   <g id="cell140">
  <circle cx="71.0195" cy="134.668" r="5.74868" stroke-width="0.5" stroke="black" fill="grey"/>
   </g>
   <g id="cell143">
  <circle cx="89.8293" cy="195.193" r="2.67489" stroke-width="0.5" stroke="black" fill="grey"/>
   </g>
   <g id="cell148">
  <circle cx="122.714" cy="147.238" r="8.3526" stroke-width="0.5" stroke="black" fill="grey"/>
  <circle cx="122.714" cy="147.238" r="4.95091" stroke-width="0.5" stroke="grey" fill="grey"/>
   </g>
   <g id="cell165">
  <circle cx="150.272" cy="129.976" r="6.28862" stroke-width="0.5" stroke="black" fill="grey"/>
   </g>
   <g id="cell176">
  <circle cx="133.904" cy="198.401" r="6.7718" stroke-width="0.5" stroke="black" fill="grey"/>
  <circle cx="133.904" cy="198.401" r="0.77651" stroke-width="0.5" stroke="grey" fill="grey"/>
   </g>
   <g id="cell178">
  <circle cx="142.879" cy="230.556" r="6.86737" stroke-width="0.5" stroke="black" fill="grey"/>
  <circle cx="142.879" cy="230.556" r="1.38074" stroke-width="0.5" stroke="grey" fill="grey"/>
   </g>
   <g id="cell184">
  <circle cx="195.582" cy="230.484" r="8.1093" stroke-width="0.5" stroke="black" fill="grey"/>
  <circle cx="195.582" cy="230.484" r="4.5284" stroke-width="0.5" stroke="grey" fill="grey"/>
   </g>
   <g id="cell185">
  <circle cx="171.672" cy="239.585" r="2.3883" stroke-width="0.5" stroke="black" fill="grey"/>
   </g>
   <g id="cell193">
  <circle cx="189.309" cy="168.346" r="2.67758" stroke-width="0.5" stroke="black" fill="grey"/>
   </g>
   <g id="cell196">
  <circle cx="15.2737" cy="217.013" r="8.41265" stroke-width="0.5" stroke="black" fill="grey"/>
  <circle cx="15.2737" cy="217.013" r="5.05158" stroke-width="0.5" stroke="grey" fill="grey"/>
   </g>
   <g id="cell202">
  <circle cx="41.3015" cy="221.306" r="8.29773" stroke-width="0.5" stroke="black" fill="grey"/>
  <circle cx="41.3015" cy="221.306" r="4.85778" stroke-width="0.5" stroke="grey" fill="grey"/>
   </g>
   <g id="cell207">
  <circle cx="67.6666" cy="209.726" r="5.05574" stroke-width="0.5" stroke="black" fill="grey"/>
   </g>
   <g id="cell210">
  <circle cx="56.0709" cy="288.463" r="8.40521" stroke-width="0.5" stroke="black" fill="grey"/>
  <circle cx="56.0709" cy="288.463" r="5.03918" stroke-width="0.5" stroke="grey" fill="grey"/>
   </g>
   <g id="cell211">
  <circle cx="82.9748" cy="118.551" r="5.1699" stroke-width="0.5" stroke="black" fill="grey"/>
   </g>
   <g id="cell214">
  <circle cx="82.7989" cy="183.592" r="8.3894" stroke-width="0.5" stroke="black" fill="grey"/>
  <circle cx="82.7989" cy="183.592" r="5.01275" stroke-width="0.5" stroke="grey" fill="grey"/>
   </g>
   <g id="cell221">
  <circle cx="102.342" cy="163.327" r="7.02037" stroke-width="0.5" stroke="black" fill="grey"/>
  <circle cx="102.342" cy="163.327" r="2.00781" stroke-width="0.5" stroke="grey" fill="grey"/>
   </g>
   <g id="cell224">
  <circle cx="82.3205" cy="239.088" r="4.21087" stroke-width="0.5" stroke="black" fill="grey"/>
   </g>
   <g id="cell231">
  <circle cx="116.33" cy="198.052" r="8.33439" stroke-width="0.5" stroke="black" fill="grey"/>
  <circle cx="116.33" cy="198.052" r="4.92014" stroke-width="0.5" stroke="grey" fill="grey"/>
   </g>
   <g id="cell237">
  <circle cx="153.53" cy="146.643" r="7.70889" stroke-width="0.5" stroke="black" fill="grey"/>
  <circle cx="153.53" cy="146.643" r="3.76466" stroke-width="0.5" stroke="grey" fill="grey"/>
   </g>
   <g id="cell238">
  <circle cx="138.063" cy="160.216" r="7.56162" stroke-width="0.5" stroke="black" fill="grey"/>
  <circle cx="138.063" cy="160.216" r="3.45307" stroke-width="0.5" stroke="grey" fill="grey"/>
   </g>
   <g id="cell244">
  <circle cx="129.984" cy="275.927" r="6.93563" stroke-width="0.5" stroke="black" fill="grey"/>
  <circle cx="129.984" cy="275.927" r="1.6878" stroke-width="0.5" stroke="grey" fill="grey"/>
   </g>
   <g id="cell247">
  <circle cx="183.996" cy="153.01" r="8.06067" stroke-width="0.5" stroke="black" fill="grey"/>
  <circle cx="183.996" cy="153.01" r="4.44073" stroke-width="0.5" stroke="grey" fill="grey"/>
   </g>
   <g id="cell249">
  <circle cx="152.801" cy="221.023" r="6.19054" stroke-width="0.5" stroke="black" fill="grey"/>
   </g>
   <g id="cell259">
  <circle cx="179.256" cy="301.602" r="5.87557" stroke-width="0.5" stroke="black" fill="grey"/>
   </g>
   <g id="cell270">
  <circle cx="47.3864" cy="236.427" r="6.59502" stroke-width="0.5" stroke="black" fill="grey"/>
   </g>
   <g id="cell286">
  <circle cx="104.626" cy="126.302" r="4.18371" stroke-width="0.5" stroke="black" fill="grey"/>
   </g>
   <g id="cell291">
  <circle cx="114.985" cy="222.13" r="7.95531" stroke-width="0.5" stroke="black" fill="grey"/>
  <circle cx="114.985" cy="222.13" r="4.24649" stroke-width="0.5" stroke="grey" fill="grey"/>
   </g>
   <g id="cell292">
  <circle cx="66.4015" cy="240.912" r="3.58073" stroke-width="0.5" stroke="black" fill="grey"/>
   </g>
   <g id="cell295">
  <circle cx="92.657" cy="136.574" r="8.33639" stroke-width="0.5" stroke="black" fill="grey"/>
  <circle cx="92.657" cy="136.574" r="4.92353" stroke-width="0.5" stroke="grey" fill="grey"/>
   </g>
   <g id="cell300">
  <circle cx="131.969" cy="237.483" r="4.79914" stroke-width="0.5" stroke="black" fill="grey"/>
   </g>
   <g id="cell305">
  <circle cx="157.668" cy="173.83" r="6.44001" stroke-width="0.5" stroke="black" fill="grey"/>
   </g>
   <g id="cell313">
  <circle cx="145.656" cy="121.84" r="3.0219" stroke-width="0.5" stroke="black" fill="grey"/>
   </g>
   <g id="cell314">
  <circle cx="148.932" cy="205.476" r="8.40231" stroke-width="0.5" stroke="black" fill="grey"/>
  <circle cx="148.932" cy="205.476" r="5.03434" stroke-width="0.5" stroke="grey" fill="grey"/>
   </g>
   <g id="cell317">
  <circle cx="117.918" cy="253.871" r="3.74711" stroke-width="0.5" stroke="black" fill="grey"/>
   </g>
   <g id="cell325">
  <circle cx="178.768" cy="225.846" r="5.60559" stroke-width="0.5" stroke="black" fill="grey"/>
   </g>
   <g id="cell327">
  <circle cx="188.474" cy="318.344" r="8.24381" stroke-width="0.5" stroke="black" fill="grey"/>
  <circle cx="188.474" cy="318.344" r="4.7651" stroke-width="0.5" stroke="grey" fill="grey"/>
   </g>
   <g id="cell329">
  <circle cx="183.013" cy="185.439" r="5.46874" stroke-width="0.5" stroke="black" fill="grey"/>
   </g>
   <g id="cell334">
  <circle cx="168.331" cy="214.27" r="7.66543" stroke-width="0.5" stroke="black" fill="grey"/>
  <circle cx="168.331" cy="214.27" r="3.67485" stroke-width="0.5" stroke="grey" fill="grey"/>
   </g>
   <g id="cell350">
  <circle cx="80.707" cy="157.244" r="5.2457" stroke-width="0.5" stroke="black" fill="grey"/>
   </g>
   <g id="cell352">
  <circle cx="93.9415" cy="207.542" r="8.39748" stroke-width="0.5" stroke="black" fill="grey"/>
  <circle cx="93.9415" cy="207.542" r="5.02627" stroke-width="0.5" stroke="grey" fill="grey"/>
   </g>
   <g id="cell356">
  <circle cx="100.192" cy="147.748" r="5.18493" stroke-width="0.5" stroke="black" fill="grey"/>
   </g>
   <g id="cell379">
  <circle cx="151.623" cy="271.762" r="4.5831" stroke-width="0.5" stroke="black" fill="grey"/>
   </g>
   <g id="cell382">
  <circle cx="128.682" cy="186.245" r="8.0944" stroke-width="0.5" stroke="black" fill="grey"/>
  <circle cx="128.682" cy="186.245" r="4.50166" stroke-width="0.5" stroke="grey" fill="grey"/>
   </g>
   <g id="cell569">
  <circle cx="241.228" cy="124.917" r="7.72313" stroke-width="0.5" stroke="black" fill="red"/>
  <circle cx="241.228" cy="124.917" r="3.79374" stroke-width="0.5" stroke="red" fill="red"/>
   </g>
   <g id="cell621">
  <circle cx="208.599" cy="217.963" r="5.49851" stroke-width="0.5" stroke="black" fill="red"/>
   </g>
   <g id="cell661">
  <circle cx="312.001" cy="119.138" r="8.39056" stroke-width="0.5" stroke="black" fill="red"/>
  <circle cx="312.001" cy="119.138" r="5.0147" stroke-width="0.5" stroke="red" fill="red"/>
   </g>
   <g id="cell676">
  <circle cx="320.423" cy="269.295" r="7.18846" stroke-width="0.5" stroke="black" fill="red"/>
  <circle cx="320.423" cy="269.295" r="2.5337" stroke-width="0.5" stroke="red" fill="red"/>
   </g>
   <g id="cell681">
  <circle cx="349.169" cy="234.501" r="8.39375" stroke-width="0.5" stroke="black" fill="red"/>
  <circle cx="349.169" cy="234.501" r="5.02004" stroke-width="0.5" stroke="red" fill="red"/>
   </g>
   <g id="cell685">
  <circle cx="206.045" cy="203.115" r="4.60422" stroke-width="0.5" stroke="black" fill="red"/>
   </g>
   <g id="cell686">
  <circle cx="197.028" cy="216.057" r="5.99377" stroke-width="0.5" stroke="black" fill="red"/>
   </g>
   <g id="cell687">
  <circle cx="212.299" cy="146.139" r="7.53761" stroke-width="0.5" stroke="black" fill="red"/>
  <circle cx="212.299" cy="146.139" r="3.40019" stroke-width="0.5" stroke="red" fill="red"/>
   </g>
   <g id="cell689">
  <circle cx="221.305" cy="197.833" r="7.24816" stroke-width="0.5" stroke="black" fill="red"/>
  <circle cx="221.305" cy="197.833" r="2.69843" stroke-width="0.5" stroke="red" fill="red"/>
   </g>
   <g id="cell690">
  <circle cx="222.165" cy="209.863" r="5.22223" stroke-width="0.5" stroke="black" fill="red"/>
   </g>
   <g id="cell691">
  <circle cx="224.389" cy="227.103" r="5.5235" stroke-width="0.5" stroke="black" fill="red"/>
   </g>
   <g id="cell692">
  <circle cx="220.293" cy="242.869" r="5.50088" stroke-width="0.5" stroke="black" fill="red"/>
   </g>
   <g id="cell693">
  <circle cx="228.175" cy="148.443" r="7.67855" stroke-width="0.5" stroke="black" fill="red"/>
  <circle cx="228.175" cy="148.443" r="3.70214" stroke-width="0.5" stroke="red" fill="red"/>
   </g>
   <g id="cell694">
  <circle cx="238.23" cy="171.854" r="6.00923" stroke-width="0.5" stroke="black" fill="red"/>
   </g>
   <g id="cell695">
  <circle cx="230.633" cy="186.373" r="7.05782" stroke-width="0.5" stroke="black" fill="red"/>
  <circle cx="230.633" cy="186.373" r="2.13506" stroke-width="0.5" stroke="red" fill="red"/>
   </g>
   <g id="cell696">
  <circle cx="234.919" cy="203.377" r="8.41261" stroke-width="0.5" stroke="black" fill="red"/>
  <circle cx="234.919" cy="203.377" r="5.0515" stroke-width="0.5" stroke="red" fill="red"/>
   </g>
   <g id="cell697">
  <circle cx="236.81" cy="217.924" r="5.62545" stroke-width="0.5" stroke="black" fill="red"/>
   </g>
   <g id="cell699">
  <circle cx="230.787" cy="256.319" r="7.63254" stroke-width="0.5" stroke="black" fill="red"/>
  <circle cx="230.787" cy="256.319" r="3.60573" stroke-width="0.5" stroke="red" fill="red"/>
   </g>
   <g id="cell700">
  <circle cx="238.76" cy="157.968" r="8.20821" stroke-width="0.5" stroke="black" fill="red"/>
  <circle cx="238.76" cy="157.968" r="4.70323" stroke-width="0.5" stroke="red" fill="red"/>
   </g>
   <g id="cell702">
  <circle cx="253.307" cy="177.012" r="8.22912" stroke-width="0.5" stroke="black" fill="red"/>
  <circle cx="253.307" cy="177.012" r="4.73964" stroke-width="0.5" stroke="red" fill="red"/>
   </g>
   <g id="cell703">
  <circle cx="251.512" cy="192.452" r="5.30551" stroke-width="0.5" stroke="black" fill="red"/>
   </g>
   <g id="cell704">
  <circle cx="250.967" cy="212.338" r="8.34204" stroke-width="0.5" stroke="black" fill="red"/>
  <circle cx="250.967" cy="212.338" r="4.93308" stroke-width="0.5" stroke="red" fill="red"/>
   </g>
   <g id="cell705">
  <circle cx="251.806" cy="227.011" r="5.40685" stroke-width="0.5" stroke="black" fill="red"/>
   </g>
   <g id="cell706">
  <circle cx="245.619" cy="240.151" r="8.39963" stroke-width="0.5" stroke="black" fill="red"/>
  <circle cx="245.619" cy="240.151" r="5.02985" stroke-width="0.5" stroke="red" fill="red"/>
   </g>
   <g id="cell711">
  <circle cx="264.827" cy="187.589" r="8.40641" stroke-width="0.5" stroke="black" fill="red"/>
  <circle cx="264.827" cy="187.589" r="5.04117" stroke-width="0.5" stroke="red" fill="red"/>
   </g>
   <g id="cell712">
  <circle cx="262.847" cy="202.893" r="7.33428" stroke-width="0.5" stroke="black" fill="red"/>
  <circle cx="262.847" cy="202.893" r="2.92187" stroke-width="0.5" stroke="red" fill="red"/>
   </g>
   <g id="cell713">
  <circle cx="265.464" cy="217.835" r="3.67378" stroke-width="0.5" stroke="black" fill="red"/>
   </g>
   <g id="cell714">
  <circle cx="266.371" cy="233.645" r="6.85823" stroke-width="0.5" stroke="black" fill="red"/>
  <circle cx="266.371" cy="233.645" r="1.33453" stroke-width="0.5" stroke="red" fill="red"/>
   </g>
   <g id="cell715">
  <circle cx="261.737" cy="247.665" r="6.96703" stroke-width="0.5" stroke="black" fill="red"/>
  <circle cx="261.737" cy="247.665" r="1.81251" stroke-width="0.5" stroke="red" fill="red"/>
   </g>
   <g id="cell716">
  <circle cx="245.049" cy="277.567" r="8.09567" stroke-width="0.5" stroke="black" fill="red"/>
  <circle cx="245.049" cy="277.567" r="4.50396" stroke-width="0.5" stroke="red" fill="red"/>
   </g>
   <g id="cell718">
  <circle cx="278.038" cy="148.699" r="8.41008" stroke-width="0.5" stroke="black" fill="red"/>
  <circle cx="278.038" cy="148.699" r="5.0473" stroke-width="0.5" stroke="red" fill="red"/>
   </g>
   <g id="cell719">
  <circle cx="283.113" cy="176.061" r="7.73468" stroke-width="0.5" stroke="black" fill="red"/>
  <circle cx="283.113" cy="176.061" r="3.81719" stroke-width="0.5" stroke="red" fill="red"/>
   </g>
   <g id="cell720">
  <circle cx="278.176" cy="193.603" r="7.87776" stroke-width="0.5" stroke="black" fill="red"/>
  <circle cx="278.176" cy="193.603" r="4.09937" stroke-width="0.5" stroke="red" fill="red"/>
   </g>
   <g id="cell721">
  <circle cx="278.838" cy="208.777" r="7.87619" stroke-width="0.5" stroke="black" fill="red"/>
  <circle cx="278.838" cy="208.777" r="4.09635" stroke-width="0.5" stroke="red" fill="red"/>
   </g>
   <g id="cell722">
  <circle cx="279.488" cy="224.782" r="7.68358" stroke-width="0.5" stroke="black" fill="red"/>
  <circle cx="279.488" cy="224.782" r="3.71256" stroke-width="0.5" stroke="red" fill="red"/>
   </g>
   <g id="cell723">
  <circle cx="277.405" cy="247.871" r="8.39872" stroke-width="0.5" stroke="black" fill="red"/>
  <circle cx="277.405" cy="247.871" r="5.02834" stroke-width="0.5" stroke="red" fill="red"/>
   </g>
   <g id="cell724">
  <circle cx="279.282" cy="264.883" r="8.41271" stroke-width="0.5" stroke="black" fill="red"/>
  <circle cx="279.282" cy="264.883" r="5.05167" stroke-width="0.5" stroke="red" fill="red"/>
   </g>
   <g id="cell727">
  <circle cx="292.978" cy="159.609" r="5.32609" stroke-width="0.5" stroke="black" fill="red"/>
   </g>
   <g id="cell728">
  <circle cx="294.882" cy="185.537" r="8.30178" stroke-width="0.5" stroke="black" fill="red"/>
  <circle cx="294.882" cy="185.537" r="4.86469" stroke-width="0.5" stroke="red" fill="red"/>
   </g>
   <g id="cell729">
  <circle cx="292.96" cy="200.329" r="7.64944" stroke-width="0.5" stroke="black" fill="red"/>
  <circle cx="292.96" cy="200.329" r="3.64138" stroke-width="0.5" stroke="red" fill="red"/>
   </g>
   <g id="cell730">
  <circle cx="292.808" cy="216.628" r="8.18028" stroke-width="0.5" stroke="black" fill="red"/>
  <circle cx="292.808" cy="216.628" r="4.65432" stroke-width="0.5" stroke="red" fill="red"/>
   </g>
   <g id="cell731">
  <circle cx="292.875" cy="234.382" r="8.33519" stroke-width="0.5" stroke="black" fill="red"/>
  <circle cx="292.875" cy="234.382" r="4.92149" stroke-width="0.5" stroke="red" fill="red"/>
   </g>
   <g id="cell732">
  <circle cx="292.664" cy="252.339" r="2.67332" stroke-width="0.5" stroke="black" fill="red"/>
   </g>
   <g id="cell733">
  <circle cx="289.218" cy="276.532" r="6.98838" stroke-width="0.5" stroke="black" fill="red"/>
  <circle cx="289.218" cy="276.532" r="1.89293" stroke-width="0.5" stroke="red" fill="red"/>
   </g>
   <g id="cell734">
  <circle cx="303.416" cy="132.307" r="8.40964" stroke-width="0.5" stroke="black" fill="red"/>
  <circle cx="303.416" cy="132.307" r="5.04656" stroke-width="0.5" stroke="red" fill="red"/>
   </g>
   <g id="cell735">
  <circle cx="307.144" cy="161.141" r="5.90478" stroke-width="0.5" stroke="black" fill="red"/>
   </g>
   <g id="cell736">
  <circle cx="306.811" cy="175.345" r="8.37193" stroke-width="0.5" stroke="black" fill="red"/>
  <circle cx="306.811" cy="175.345" r="4.98346" stroke-width="0.5" stroke="red" fill="red"/>
   </g>
   <g id="cell737">
  <circle cx="308.865" cy="193.753" r="8.40615" stroke-width="0.5" stroke="black" fill="red"/>
  <circle cx="308.865" cy="193.753" r="5.04074" stroke-width="0.5" stroke="red" fill="red"/>
   </g>
   <g id="cell738">
  <circle cx="307.622" cy="209.72" r="8.11605" stroke-width="0.5" stroke="black" fill="red"/>
  <circle cx="307.622" cy="209.72" r="4.54048" stroke-width="0.5" stroke="red" fill="red"/>
   </g>
   <g id="cell739">
  <circle cx="306.806" cy="226.163" r="8.38386" stroke-width="0.5" stroke="black" fill="red"/>
  <circle cx="306.806" cy="226.163" r="5.00349" stroke-width="0.5" stroke="red" fill="red"/>
   </g>
   <g id="cell740">
  <circle cx="314.149" cy="240.012" r="5.93672" stroke-width="0.5" stroke="black" fill="red"/>
   </g>
   <g id="cell742">
  <circle cx="318.608" cy="149.77" r="5.76034" stroke-width="0.5" stroke="black" fill="red"/>
   </g>
   <g id="cell743">
  <circle cx="320.809" cy="166.44" r="8.40877" stroke-width="0.5" stroke="black" fill="red"/>
  <circle cx="320.809" cy="166.44" r="5.04511" stroke-width="0.5" stroke="red" fill="red"/>
   </g>
   <g id="cell744">
  <circle cx="322.848" cy="185.67" r="8.17899" stroke-width="0.5" stroke="black" fill="red"/>
  <circle cx="322.848" cy="185.67" r="4.65206" stroke-width="0.5" stroke="red" fill="red"/>
   </g>
   <g id="cell745">
  <circle cx="322.993" cy="200.267" r="7.13428" stroke-width="0.5" stroke="black" fill="red"/>
  <circle cx="322.993" cy="200.267" r="2.37564" stroke-width="0.5" stroke="red" fill="red"/>
   </g>
   <g id="cell746">
  <circle cx="321.315" cy="215.531" r="7.96518" stroke-width="0.5" stroke="black" fill="red"/>
  <circle cx="321.315" cy="215.531" r="4.26495" stroke-width="0.5" stroke="red" fill="red"/>
   </g>
   <g id="cell747">
  <circle cx="330.093" cy="238.932" r="3.38501" stroke-width="0.5" stroke="black" fill="red"/>
   </g>
   <g id="cell749">
  <circle cx="346.559" cy="164.937" r="8.3255" stroke-width="0.5" stroke="black" fill="red"/>
  <circle cx="346.559" cy="164.937" r="4.90506" stroke-width="0.5" stroke="red" fill="red"/>
   </g>
   <g id="cell751">
  <circle cx="337.344" cy="190.55" r="8.07505" stroke-width="0.5" stroke="black" fill="red"/>
  <circle cx="337.344" cy="190.55" r="4.46677" stroke-width="0.5" stroke="red" fill="red"/>
   </g>
   <g id="cell752">
  <circle cx="335.225" cy="206.727" r="8.36912" stroke-width="0.5" stroke="black" fill="red"/>
  <circle cx="335.225" cy="206.727" r="4.97874" stroke-width="0.5" stroke="red" fill="red"/>
   </g>
   <g id="cell753">
  <circle cx="346.392" cy="218.469" r="8.24321" stroke-width="0.5" stroke="black" fill="red"/>
  <circle cx="346.392" cy="218.469" r="4.76405" stroke-width="0.5" stroke="red" fill="red"/>
   </g>
   <g id="cell754">
  <circle cx="340.436" cy="248.902" r="8.39056" stroke-width="0.5" stroke="black" fill="red"/>
  <circle cx="340.436" cy="248.902" r="5.01469" stroke-width="0.5" stroke="red" fill="red"/>
   </g>
   <g id="cell755">
  <circle cx="350.795" cy="204.383" r="6.62726" stroke-width="0.5" stroke="black" fill="red"/>
   </g>
   <g id="cell757">
  <circle cx="217.033" cy="183.086" r="5.51152" stroke-width="0.5" stroke="black" fill="red"/>
   </g>
   <g id="cell760">
  <circle cx="211.426" cy="232.453" r="7.83653" stroke-width="0.5" stroke="black" fill="red"/>
  <circle cx="211.426" cy="232.453" r="4.01956" stroke-width="0.5" stroke="red" fill="red"/>
   </g>
   <g id="cell766">
  <circle cx="217.125" cy="250.012" r="3.50916" stroke-width="0.5" stroke="black" fill="red"/>
   </g>
   <g id="cell767">
  <circle cx="232.421" cy="136.661" r="4.58645" stroke-width="0.5" stroke="black" fill="red"/>
   </g>
   <g id="cell773">
  <circle cx="238.147" cy="227.8" r="4.65565" stroke-width="0.5" stroke="black" fill="red"/>
   </g>
   <g id="cell775">
  <circle cx="258.429" cy="137.223" r="5.76836" stroke-width="0.5" stroke="black" fill="red"/>
   </g>
   <g id="cell776">
  <circle cx="252.581" cy="151.085" r="8.4005" stroke-width="0.5" stroke="black" fill="red"/>
  <circle cx="252.581" cy="151.085" r="5.03132" stroke-width="0.5" stroke="red" fill="red"/>
   </g>
   <g id="cell777">
  <circle cx="261.843" cy="163.78" r="7.78495" stroke-width="0.5" stroke="black" fill="red"/>
  <circle cx="261.843" cy="163.78" r="3.91806" stroke-width="0.5" stroke="red" fill="red"/>
   </g>
   <g id="cell785">
  <circle cx="277.888" cy="163.681" r="6.27302" stroke-width="0.5" stroke="black" fill="red"/>
   </g>
   <g id="cell800">
  <circle cx="316.152" cy="102.712" r="6.86635" stroke-width="0.5" stroke="black" fill="red"/>
  <circle cx="316.152" cy="102.712" r="1.37567" stroke-width="0.5" stroke="red" fill="red"/>
   </g>
   <g id="cell801">
  <circle cx="308.534" cy="146.928" r="5.61518" stroke-width="0.5" stroke="black" fill="red"/>
   </g>
   <g id="cell807">
  <circle cx="304.889" cy="253.234" r="7.5856" stroke-width="0.5" stroke="black" fill="red"/>
  <circle cx="304.889" cy="253.234" r="3.50529" stroke-width="0.5" stroke="red" fill="red"/>
   </g>
   <g id="cell809">
  <circle cx="319.326" cy="134.288" r="8.408" stroke-width="0.5" stroke="black" fill="red"/>
  <circle cx="319.326" cy="134.288" r="5.04382" stroke-width="0.5" stroke="red" fill="red"/>
   </g>
   <g id="cell820">
  <circle cx="333.769" cy="220.827" r="4.37042" stroke-width="0.5" stroke="black" fill="red"/>
   </g>
  </g>
 </g>
  <rect x="190" y="414" width="200" height="4" stroke-width="0.8" stroke="rgb(255,255,255)" fill="rgb(0,0,0)"/>
  <text x="192.5" y="411.5"
   font-family="Arial" font-size="10" fill="black" >
   200 &#956;m
  </text>
  <text x="10" y="418"
   font-family="Arial" font-size="7.5" fill="black" >
   0 days, 0 hours, 3 minutes, and 51.4459 seconds
  </text>
  <rect x="0" y="28" width="400" height="400" stroke-width="0.8" stroke="rgb(0,0,0)" fill="none"/>
</svg>
