<?xml version="1.0" encoding="UTF-8" standalone="no"?>
<!-- Created with PhysiCell (http://PhysiCell.MathCancer.org/) -->
<svg 
 xmlns:dc="http://purl.org/dc/elements/1.1/" 
 xmlns:cc="http://creativecommons.org/ns#" 
 xmlns:rdf="http://www.w3.org/1999/02/22-rdf-syntax-ns#" 
 xmlns:svg="http://www.w3.org/2000/svg" 
 xmlns="http://www.w3.org/2000/svg" 
 version="1.1" 
 width="400" 
 height="428" 
 id="svg2">
  <rect x="0" y="0" width="400" height="428" stroke-width="0.8" stroke="white" fill="white"/>
  <text x="5" y="12"
   font-family="Arial" font-size="10" fill="black" >
   Current time: 0 days, 14 hours, and 0.00 minutes, z = 0.00 &#956;m
  </text>
  <text x="5" y="23"
   font-family="Arial" font-size="9.5" fill="black" >
   978 agents
  </text>
 <g id="tissue" 
    transform="translate(0,428) scale(1,-1)">
  <g id="ECM">
  </g>
  <g id="cells">
   <g id="cell133">
  <circle cx="48.8286" cy="249.139" r="8.2272" stroke-width="0.5" stroke="black" fill="grey"/>
  <circle cx="48.8286" cy="249.139" r="4.7363" stroke-width="0.5" stroke="grey" fill="grey"/>
   </g>
   <g id="cell137">
  <circle cx="73.8185" cy="204.779" r="6.59648" stroke-width="0.5" stroke="black" fill="grey"/>
   </g>
   <g id="cell144">
  <circle cx="88.2332" cy="212.663" r="4.22121" stroke-width="0.5" stroke="black" fill="grey"/>
   </g>
   <g id="cell145">
  <circle cx="83.5133" cy="239.082" r="7.81021" stroke-width="0.5" stroke="black" fill="grey"/>
  <circle cx="83.5133" cy="239.082" r="3.968" stroke-width="0.5" stroke="grey" fill="grey"/>
   </g>
   <g id="cell154">
  <circle cx="102.722" cy="276.962" r="7.74468" stroke-width="0.5" stroke="black" fill="grey"/>
  <circle cx="102.722" cy="276.962" r="3.83741" stroke-width="0.5" stroke="grey" fill="grey"/>
   </g>
   <g id="cell167">
  <circle cx="143.881" cy="183.941" r="7.44474" stroke-width="0.5" stroke="black" fill="grey"/>
  <circle cx="143.881" cy="183.941" r="3.18902" stroke-width="0.5" stroke="grey" fill="grey"/>
   </g>
   <g id="cell172">
  <circle cx="165.42" cy="109.292" r="8.21511" stroke-width="0.5" stroke="black" fill="grey"/>
  <circle cx="165.42" cy="109.292" r="4.71527" stroke-width="0.5" stroke="grey" fill="grey"/>
   </g>
   <g id="cell180">
  <circle cx="171.421" cy="126.691" r="6.02377" stroke-width="0.5" stroke="black" fill="grey"/>
   </g>
   <g id="cell184">
  <circle cx="180.345" cy="213.242" r="4.30513" stroke-width="0.5" stroke="black" fill="grey"/>
   </g>
   <g id="cell185">
  <circle cx="165.356" cy="232.441" r="3.16642" stroke-width="0.5" stroke="black" fill="grey"/>
   </g>
   <g id="cell193">
  <circle cx="199.483" cy="171.426" r="7.73758" stroke-width="0.5" stroke="black" fill="grey"/>
  <circle cx="199.483" cy="171.426" r="3.82306" stroke-width="0.5" stroke="grey" fill="grey"/>
   </g>
   <g id="cell195">
  <circle cx="26.1388" cy="169.718" r="7.78667" stroke-width="0.5" stroke="black" fill="grey"/>
  <circle cx="26.1388" cy="169.718" r="3.92147" stroke-width="0.5" stroke="grey" fill="grey"/>
   </g>
   <g id="cell199">
  <circle cx="48.7167" cy="159.98" r="8.36562" stroke-width="0.5" stroke="black" fill="grey"/>
  <circle cx="48.7167" cy="159.98" r="4.97285" stroke-width="0.5" stroke="grey" fill="grey"/>
   </g>
   <g id="cell200">
  <circle cx="41.9313" cy="177.175" r="8.22588" stroke-width="0.5" stroke="black" fill="grey"/>
  <circle cx="41.9313" cy="177.175" r="4.73401" stroke-width="0.5" stroke="grey" fill="grey"/>
   </g>
   <g id="cell201">
  <circle cx="58.9344" cy="212.222" r="5.82127" stroke-width="0.5" stroke="black" fill="grey"/>
   </g>
   <g id="cell204">
  <circle cx="75.1129" cy="132.665" r="8.0115" stroke-width="0.5" stroke="black" fill="grey"/>
  <circle cx="75.1129" cy="132.665" r="4.35083" stroke-width="0.5" stroke="grey" fill="grey"/>
   </g>
   <g id="cell208">
  <circle cx="81.5011" cy="224.425" r="7.43658" stroke-width="0.5" stroke="black" fill="grey"/>
  <circle cx="81.5011" cy="224.425" r="3.16991" stroke-width="0.5" stroke="grey" fill="grey"/>
   </g>
   <g id="cell209">
  <circle cx="69.5096" cy="246.389" r="7.94701" stroke-width="0.5" stroke="black" fill="grey"/>
  <circle cx="69.5096" cy="246.389" r="4.23091" stroke-width="0.5" stroke="grey" fill="grey"/>
   </g>
   <g id="cell212">
  <circle cx="98.2384" cy="150.575" r="5.035" stroke-width="0.5" stroke="black" fill="grey"/>
   </g>
   <g id="cell213">
  <circle cx="87.3936" cy="166.22" r="7.47181" stroke-width="0.5" stroke="black" fill="grey"/>
  <circle cx="87.3936" cy="166.22" r="3.25172" stroke-width="0.5" stroke="grey" fill="grey"/>
   </g>
   <g id="cell215">
  <circle cx="102.238" cy="213.032" r="7.88964" stroke-width="0.5" stroke="black" fill="grey"/>
  <circle cx="102.238" cy="213.032" r="4.12215" stroke-width="0.5" stroke="grey" fill="grey"/>
   </g>
   <g id="cell218">
  <circle cx="89.6629" cy="287.781" r="8.41053" stroke-width="0.5" stroke="black" fill="grey"/>
  <circle cx="89.6629" cy="287.781" r="5.04804" stroke-width="0.5" stroke="grey" fill="grey"/>
   </g>
   <g id="cell221">
  <circle cx="104.351" cy="170.829" r="8.22366" stroke-width="0.5" stroke="black" fill="grey"/>
  <circle cx="104.351" cy="170.829" r="4.73014" stroke-width="0.5" stroke="grey" fill="grey"/>
   </g>
   <g id="cell223">
  <circle cx="103.575" cy="197.933" r="7.53204" stroke-width="0.5" stroke="black" fill="grey"/>
  <circle cx="103.575" cy="197.933" r="3.38783" stroke-width="0.5" stroke="grey" fill="grey"/>
   </g>
   <g id="cell226">
  <circle cx="115.955" cy="257.9" r="4.85776" stroke-width="0.5" stroke="black" fill="grey"/>
   </g>
   <g id="cell228">
  <circle cx="129.455" cy="126.167" r="3.40745" stroke-width="0.5" stroke="black" fill="grey"/>
   </g>
   <g id="cell229">
  <circle cx="132.311" cy="145.621" r="8.39197" stroke-width="0.5" stroke="black" fill="grey"/>
  <circle cx="132.311" cy="145.621" r="5.01706" stroke-width="0.5" stroke="grey" fill="grey"/>
   </g>
   <g id="cell230">
  <circle cx="124.128" cy="172.148" r="8.06656" stroke-width="0.5" stroke="black" fill="grey"/>
  <circle cx="124.128" cy="172.148" r="4.45141" stroke-width="0.5" stroke="grey" fill="grey"/>
   </g>
   <g id="cell231">
  <circle cx="122.226" cy="199.558" r="8.33712" stroke-width="0.5" stroke="black" fill="grey"/>
  <circle cx="122.226" cy="199.558" r="4.92475" stroke-width="0.5" stroke="grey" fill="grey"/>
   </g>
   <g id="cell234">
  <circle cx="129.661" cy="247.556" r="7.74618" stroke-width="0.5" stroke="black" fill="grey"/>
  <circle cx="129.661" cy="247.556" r="3.84044" stroke-width="0.5" stroke="grey" fill="grey"/>
   </g>
   <g id="cell235">
  <circle cx="122.116" cy="272.424" r="7.86563" stroke-width="0.5" stroke="black" fill="grey"/>
  <circle cx="122.116" cy="272.424" r="4.076" stroke-width="0.5" stroke="grey" fill="grey"/>
   </g>
   <g id="cell237">
  <circle cx="152.281" cy="144.956" r="7.33209" stroke-width="0.5" stroke="black" fill="grey"/>
  <circle cx="152.281" cy="144.956" r="2.91637" stroke-width="0.5" stroke="grey" fill="grey"/>
   </g>
   <g id="cell239">
  <circle cx="153.644" cy="174.033" r="8.12906" stroke-width="0.5" stroke="black" fill="grey"/>
  <circle cx="153.644" cy="174.033" r="4.5637" stroke-width="0.5" stroke="grey" fill="grey"/>
   </g>
   <g id="cell240">
  <circle cx="138.118" cy="202.644" r="3.49961" stroke-width="0.5" stroke="black" fill="grey"/>
   </g>
   <g id="cell241">
  <circle cx="120.439" cy="219.338" r="8.30301" stroke-width="0.5" stroke="black" fill="grey"/>
  <circle cx="120.439" cy="219.338" r="4.86679" stroke-width="0.5" stroke="grey" fill="grey"/>
   </g>
   <g id="cell242">
  <circle cx="138.789" cy="223.276" r="7.75771" stroke-width="0.5" stroke="black" fill="grey"/>
  <circle cx="138.789" cy="223.276" r="3.86365" stroke-width="0.5" stroke="grey" fill="grey"/>
   </g>
   <g id="cell243">
  <circle cx="160.925" cy="259.267" r="2.32472" stroke-width="0.5" stroke="black" fill="grey"/>
   </g>
   <g id="cell245">
  <circle cx="143.116" cy="133.142" r="7.78753" stroke-width="0.5" stroke="black" fill="grey"/>
  <circle cx="143.116" cy="133.142" r="3.92318" stroke-width="0.5" stroke="grey" fill="grey"/>
   </g>
   <g id="cell247">
  <circle cx="156.667" cy="157.712" r="0.900132" stroke-width="0.5" stroke="black" fill="grey"/>
   </g>
   <g id="cell248">
  <circle cx="167.386" cy="205.38" r="7.71417" stroke-width="0.5" stroke="black" fill="grey"/>
  <circle cx="167.386" cy="205.38" r="3.77545" stroke-width="0.5" stroke="grey" fill="grey"/>
   </g>
   <g id="cell252">
  <circle cx="160.507" cy="282.025" r="7.65075" stroke-width="0.5" stroke="black" fill="grey"/>
  <circle cx="160.507" cy="282.025" r="3.64413" stroke-width="0.5" stroke="grey" fill="grey"/>
   </g>
   <g id="cell255">
  <circle cx="180" cy="179.419" r="1.74631" stroke-width="0.5" stroke="black" fill="grey"/>
   </g>
   <g id="cell256">
  <circle cx="178.814" cy="194.421" r="7.52084" stroke-width="0.5" stroke="black" fill="grey"/>
  <circle cx="178.814" cy="194.421" r="3.36285" stroke-width="0.5" stroke="grey" fill="grey"/>
   </g>
   <g id="cell257">
  <circle cx="161.434" cy="220.209" r="7.12623" stroke-width="0.5" stroke="black" fill="grey"/>
  <circle cx="161.434" cy="220.209" r="2.35134" stroke-width="0.5" stroke="grey" fill="grey"/>
   </g>
   <g id="cell258">
  <circle cx="177.927" cy="248.018" r="8.38514" stroke-width="0.5" stroke="black" fill="grey"/>
  <circle cx="177.927" cy="248.018" r="5.00562" stroke-width="0.5" stroke="grey" fill="grey"/>
   </g>
   <g id="cell259">
  <circle cx="186.23" cy="261.203" r="7.86698" stroke-width="0.5" stroke="black" fill="grey"/>
  <circle cx="186.23" cy="261.203" r="4.07861" stroke-width="0.5" stroke="grey" fill="grey"/>
   </g>
   <g id="cell260">
  <circle cx="199.552" cy="147.869" r="5.72427" stroke-width="0.5" stroke="black" fill="grey"/>
   </g>
   <g id="cell261">
  <circle cx="189.857" cy="181.213" r="8.11341" stroke-width="0.5" stroke="black" fill="grey"/>
  <circle cx="189.857" cy="181.213" r="4.53576" stroke-width="0.5" stroke="grey" fill="grey"/>
   </g>
   <g id="cell264">
  <circle cx="192.128" cy="226.645" r="8.41232" stroke-width="0.5" stroke="black" fill="grey"/>
  <circle cx="192.128" cy="226.645" r="5.05103" stroke-width="0.5" stroke="grey" fill="grey"/>
   </g>
   <g id="cell265">
  <circle cx="207.644" cy="240.161" r="3.69594" stroke-width="0.5" stroke="black" fill="grey"/>
   </g>
   <g id="cell268">
  <circle cx="72.4428" cy="179.678" r="6.88352" stroke-width="0.5" stroke="black" fill="grey"/>
  <circle cx="72.4428" cy="179.678" r="1.45894" stroke-width="0.5" stroke="grey" fill="grey"/>
   </g>
   <g id="cell269">
  <circle cx="45.0237" cy="193.716" r="8.08896" stroke-width="0.5" stroke="black" fill="grey"/>
  <circle cx="45.0237" cy="193.716" r="4.49187" stroke-width="0.5" stroke="grey" fill="grey"/>
   </g>
   <g id="cell276">
  <circle cx="56.8359" cy="231.183" r="8.01913" stroke-width="0.5" stroke="black" fill="grey"/>
  <circle cx="56.8359" cy="231.183" r="4.36487" stroke-width="0.5" stroke="grey" fill="grey"/>
   </g>
   <g id="cell287">
  <circle cx="113.333" cy="162.809" r="5.22951" stroke-width="0.5" stroke="black" fill="grey"/>
   </g>
   <g id="cell290">
  <circle cx="107.149" cy="227.989" r="8.37888" stroke-width="0.5" stroke="black" fill="grey"/>
  <circle cx="107.149" cy="227.989" r="4.99513" stroke-width="0.5" stroke="grey" fill="grey"/>
   </g>
   <g id="cell293">
  <circle cx="108.242" cy="265.226" r="7.30612" stroke-width="0.5" stroke="black" fill="grey"/>
  <circle cx="108.242" cy="265.226" r="2.85044" stroke-width="0.5" stroke="grey" fill="grey"/>
   </g>
   <g id="cell295">
  <circle cx="111.526" cy="141.138" r="7.64198" stroke-width="0.5" stroke="black" fill="grey"/>
  <circle cx="111.526" cy="141.138" r="3.62569" stroke-width="0.5" stroke="grey" fill="grey"/>
   </g>
   <g id="cell297">
  <circle cx="115.035" cy="185.297" r="7.40112" stroke-width="0.5" stroke="black" fill="grey"/>
  <circle cx="115.035" cy="185.297" r="3.08582" stroke-width="0.5" stroke="grey" fill="grey"/>
   </g>
   <g id="cell300">
  <circle cx="118.803" cy="241.063" r="2.79757" stroke-width="0.5" stroke="black" fill="grey"/>
   </g>
   <g id="cell305">
  <circle cx="137.317" cy="173.595" r="4.82461" stroke-width="0.5" stroke="black" fill="grey"/>
   </g>
   <g id="cell310">
  <circle cx="145.555" cy="261.815" r="6.91755" stroke-width="0.5" stroke="black" fill="grey"/>
  <circle cx="145.555" cy="261.815" r="1.6119" stroke-width="0.5" stroke="grey" fill="grey"/>
   </g>
   <g id="cell315">
  <circle cx="147.025" cy="209.045" r="4.5758" stroke-width="0.5" stroke="black" fill="grey"/>
   </g>
   <g id="cell316">
  <circle cx="147.756" cy="234.994" r="6.92315" stroke-width="0.5" stroke="black" fill="grey"/>
  <circle cx="147.756" cy="234.994" r="1.63576" stroke-width="0.5" stroke="grey" fill="grey"/>
   </g>
   <g id="cell321">
  <circle cx="174.382" cy="163.776" r="8.11792" stroke-width="0.5" stroke="black" fill="grey"/>
  <circle cx="174.382" cy="163.776" r="4.54383" stroke-width="0.5" stroke="grey" fill="grey"/>
   </g>
   <g id="cell322">
  <circle cx="166.857" cy="184.795" r="2.1915" stroke-width="0.5" stroke="black" fill="grey"/>
   </g>
   <g id="cell334">
  <circle cx="191.753" cy="196.28" r="7.30388" stroke-width="0.5" stroke="black" fill="grey"/>
  <circle cx="191.753" cy="196.28" r="2.8447" stroke-width="0.5" stroke="grey" fill="grey"/>
   </g>
   <g id="cell335">
  <circle cx="69.4541" cy="142.703" r="4.54668" stroke-width="0.5" stroke="black" fill="grey"/>
   </g>
   <g id="cell684">
  <circle cx="209.726" cy="182.703" r="6.99861" stroke-width="0.5" stroke="black" fill="red"/>
  <circle cx="209.726" cy="182.703" r="1.93034" stroke-width="0.5" stroke="red" fill="red"/>
   </g>
   <g id="cell685">
  <circle cx="206.883" cy="200.126" r="8.33676" stroke-width="0.5" stroke="black" fill="red"/>
  <circle cx="206.883" cy="200.126" r="4.92415" stroke-width="0.5" stroke="red" fill="red"/>
   </g>
   <g id="cell687">
  <circle cx="215.286" cy="153.375" r="2.55863" stroke-width="0.5" stroke="black" fill="red"/>
   </g>
   <g id="cell688">
  <circle cx="218.298" cy="167.161" r="8.27794" stroke-width="0.5" stroke="black" fill="red"/>
  <circle cx="218.298" cy="167.161" r="4.8239" stroke-width="0.5" stroke="red" fill="red"/>
   </g>
   <g id="cell689">
  <circle cx="220.829" cy="193.791" r="8.38496" stroke-width="0.5" stroke="black" fill="red"/>
  <circle cx="220.829" cy="193.791" r="5.00532" stroke-width="0.5" stroke="red" fill="red"/>
   </g>
   <g id="cell690">
  <circle cx="219.575" cy="209.759" r="8.04536" stroke-width="0.5" stroke="black" fill="red"/>
  <circle cx="219.575" cy="209.759" r="4.41289" stroke-width="0.5" stroke="red" fill="red"/>
   </g>
   <g id="cell691">
  <circle cx="217.519" cy="227.623" r="5.43428" stroke-width="0.5" stroke="black" fill="red"/>
   </g>
   <g id="cell692">
  <circle cx="221.768" cy="245.774" r="7.61701" stroke-width="0.5" stroke="black" fill="red"/>
  <circle cx="221.768" cy="245.774" r="3.57275" stroke-width="0.5" stroke="red" fill="red"/>
   </g>
   <g id="cell693">
  <circle cx="233.332" cy="152.944" r="8.38338" stroke-width="0.5" stroke="black" fill="red"/>
  <circle cx="233.332" cy="152.944" r="5.00267" stroke-width="0.5" stroke="red" fill="red"/>
   </g>
   <g id="cell694">
  <circle cx="234.636" cy="168.172" r="7.97615" stroke-width="0.5" stroke="black" fill="red"/>
  <circle cx="234.636" cy="168.172" r="4.2854" stroke-width="0.5" stroke="red" fill="red"/>
   </g>
   <g id="cell695">
  <circle cx="234.591" cy="187.39" r="8.36985" stroke-width="0.5" stroke="black" fill="red"/>
  <circle cx="234.591" cy="187.39" r="4.97996" stroke-width="0.5" stroke="red" fill="red"/>
   </g>
   <g id="cell696">
  <circle cx="234.659" cy="202.827" r="6.87565" stroke-width="0.5" stroke="black" fill="red"/>
  <circle cx="234.659" cy="202.827" r="1.42135" stroke-width="0.5" stroke="red" fill="red"/>
   </g>
   <g id="cell697">
  <circle cx="234.197" cy="217.836" r="8.37128" stroke-width="0.5" stroke="black" fill="red"/>
  <circle cx="234.197" cy="217.836" r="4.98238" stroke-width="0.5" stroke="red" fill="red"/>
   </g>
   <g id="cell698">
  <circle cx="235.914" cy="235.413" r="7.73591" stroke-width="0.5" stroke="black" fill="red"/>
  <circle cx="235.914" cy="235.413" r="3.81968" stroke-width="0.5" stroke="red" fill="red"/>
   </g>
   <g id="cell699">
  <circle cx="236.176" cy="251.475" r="7.35394" stroke-width="0.5" stroke="black" fill="red"/>
  <circle cx="236.176" cy="251.475" r="2.97089" stroke-width="0.5" stroke="red" fill="red"/>
   </g>
   <g id="cell700">
  <circle cx="248.513" cy="146.541" r="8.41119" stroke-width="0.5" stroke="black" fill="red"/>
  <circle cx="248.513" cy="146.541" r="5.04915" stroke-width="0.5" stroke="red" fill="red"/>
   </g>
   <g id="cell701">
  <circle cx="249.412" cy="162.185" r="7.19228" stroke-width="0.5" stroke="black" fill="red"/>
  <circle cx="249.412" cy="162.185" r="2.54452" stroke-width="0.5" stroke="red" fill="red"/>
   </g>
   <g id="cell702">
  <circle cx="246.884" cy="177.733" r="6.81008" stroke-width="0.5" stroke="black" fill="red"/>
  <circle cx="246.884" cy="177.733" r="1.05967" stroke-width="0.5" stroke="red" fill="red"/>
   </g>
   <g id="cell703">
  <circle cx="247.602" cy="194.489" r="7.83164" stroke-width="0.5" stroke="black" fill="red"/>
  <circle cx="247.602" cy="194.489" r="4.01001" stroke-width="0.5" stroke="red" fill="red"/>
   </g>
   <g id="cell704">
  <circle cx="248.061" cy="210.425" r="8.03475" stroke-width="0.5" stroke="black" fill="red"/>
  <circle cx="248.061" cy="210.425" r="4.3935" stroke-width="0.5" stroke="red" fill="red"/>
   </g>
   <g id="cell705">
  <circle cx="248.583" cy="225.701" r="8.27742" stroke-width="0.5" stroke="black" fill="red"/>
  <circle cx="248.583" cy="225.701" r="4.82301" stroke-width="0.5" stroke="red" fill="red"/>
   </g>
   <g id="cell706">
  <circle cx="249.461" cy="242.291" r="8.27091" stroke-width="0.5" stroke="black" fill="red"/>
  <circle cx="249.461" cy="242.291" r="4.81182" stroke-width="0.5" stroke="red" fill="red"/>
   </g>
   <g id="cell708">
  <circle cx="260.126" cy="127.517" r="8.40479" stroke-width="0.5" stroke="black" fill="red"/>
  <circle cx="260.126" cy="127.517" r="5.03847" stroke-width="0.5" stroke="red" fill="red"/>
   </g>
   <g id="cell709">
  <circle cx="262.879" cy="153.261" r="7.92328" stroke-width="0.5" stroke="black" fill="red"/>
  <circle cx="262.879" cy="153.261" r="4.18617" stroke-width="0.5" stroke="red" fill="red"/>
   </g>
   <g id="cell710">
  <circle cx="263.826" cy="170.017" r="6.66733" stroke-width="0.5" stroke="black" fill="red"/>
   </g>
   <g id="cell711">
  <circle cx="260.853" cy="185.141" r="7.9604" stroke-width="0.5" stroke="black" fill="red"/>
  <circle cx="260.853" cy="185.141" r="4.25601" stroke-width="0.5" stroke="red" fill="red"/>
   </g>
   <g id="cell712">
  <circle cx="263.024" cy="201.392" r="8.1188" stroke-width="0.5" stroke="black" fill="red"/>
  <circle cx="263.024" cy="201.392" r="4.54538" stroke-width="0.5" stroke="red" fill="red"/>
   </g>
   <g id="cell713">
  <circle cx="262.894" cy="217.753" r="8.40415" stroke-width="0.5" stroke="black" fill="red"/>
  <circle cx="262.894" cy="217.753" r="5.0374" stroke-width="0.5" stroke="red" fill="red"/>
   </g>
   <g id="cell714">
  <circle cx="263.766" cy="235.347" r="8.17616" stroke-width="0.5" stroke="black" fill="red"/>
  <circle cx="263.766" cy="235.347" r="4.64707" stroke-width="0.5" stroke="red" fill="red"/>
   </g>
   <g id="cell715">
  <circle cx="262.638" cy="251.287" r="7.08863" stroke-width="0.5" stroke="black" fill="red"/>
  <circle cx="262.638" cy="251.287" r="2.23481" stroke-width="0.5" stroke="red" fill="red"/>
   </g>
   <g id="cell716">
  <circle cx="261.132" cy="269.478" r="6.83252" stroke-width="0.5" stroke="black" fill="red"/>
  <circle cx="261.132" cy="269.478" r="1.19539" stroke-width="0.5" stroke="red" fill="red"/>
   </g>
   <g id="cell717">
  <circle cx="278.385" cy="139.609" r="7.90728" stroke-width="0.5" stroke="black" fill="red"/>
  <circle cx="278.385" cy="139.609" r="4.15582" stroke-width="0.5" stroke="red" fill="red"/>
   </g>
   <g id="cell718">
  <circle cx="277.863" cy="158.206" r="8.28221" stroke-width="0.5" stroke="black" fill="red"/>
  <circle cx="277.863" cy="158.206" r="4.83121" stroke-width="0.5" stroke="red" fill="red"/>
   </g>
   <g id="cell719">
  <circle cx="277.177" cy="176.7" r="8.00907" stroke-width="0.5" stroke="black" fill="red"/>
  <circle cx="277.177" cy="176.7" r="4.34636" stroke-width="0.5" stroke="red" fill="red"/>
   </g>
   <g id="cell720">
  <circle cx="276.959" cy="192.086" r="8.40495" stroke-width="0.5" stroke="black" fill="red"/>
  <circle cx="276.959" cy="192.086" r="5.03874" stroke-width="0.5" stroke="red" fill="red"/>
   </g>
   <g id="cell721">
  <circle cx="277.487" cy="210.454" r="8.21793" stroke-width="0.5" stroke="black" fill="red"/>
  <circle cx="277.487" cy="210.454" r="4.72018" stroke-width="0.5" stroke="red" fill="red"/>
   </g>
   <g id="cell722">
  <circle cx="277.465" cy="226.102" r="8.2919" stroke-width="0.5" stroke="black" fill="red"/>
  <circle cx="277.465" cy="226.102" r="4.84781" stroke-width="0.5" stroke="red" fill="red"/>
   </g>
   <g id="cell723">
  <circle cx="277.824" cy="242.796" r="8.29191" stroke-width="0.5" stroke="black" fill="red"/>
  <circle cx="277.824" cy="242.796" r="4.84783" stroke-width="0.5" stroke="red" fill="red"/>
   </g>
   <g id="cell724">
  <circle cx="276.61" cy="259.388" r="8.34532" stroke-width="0.5" stroke="black" fill="red"/>
  <circle cx="276.61" cy="259.388" r="4.93863" stroke-width="0.5" stroke="red" fill="red"/>
   </g>
   <g id="cell725">
  <circle cx="291.873" cy="127.557" r="7.6477" stroke-width="0.5" stroke="black" fill="red"/>
  <circle cx="291.873" cy="127.557" r="3.63772" stroke-width="0.5" stroke="red" fill="red"/>
   </g>
   <g id="cell726">
  <circle cx="291.525" cy="152.095" r="8.22397" stroke-width="0.5" stroke="black" fill="red"/>
  <circle cx="291.525" cy="152.095" r="4.73068" stroke-width="0.5" stroke="red" fill="red"/>
   </g>
   <g id="cell727">
  <circle cx="290.456" cy="168.282" r="8.40659" stroke-width="0.5" stroke="black" fill="red"/>
  <circle cx="290.456" cy="168.282" r="5.04147" stroke-width="0.5" stroke="red" fill="red"/>
   </g>
   <g id="cell728">
  <circle cx="291.457" cy="185.168" r="8.34056" stroke-width="0.5" stroke="black" fill="red"/>
  <circle cx="291.457" cy="185.168" r="4.93058" stroke-width="0.5" stroke="red" fill="red"/>
   </g>
   <g id="cell729">
  <circle cx="292.565" cy="203.082" r="8.4088" stroke-width="0.5" stroke="black" fill="red"/>
  <circle cx="292.565" cy="203.082" r="5.04516" stroke-width="0.5" stroke="red" fill="red"/>
   </g>
   <g id="cell730">
  <circle cx="291.482" cy="218.9" r="8.20282" stroke-width="0.5" stroke="black" fill="red"/>
  <circle cx="291.482" cy="218.9" r="4.69382" stroke-width="0.5" stroke="red" fill="red"/>
   </g>
   <g id="cell731">
  <circle cx="293.632" cy="236.05" r="8.04195" stroke-width="0.5" stroke="black" fill="red"/>
  <circle cx="293.632" cy="236.05" r="4.40666" stroke-width="0.5" stroke="red" fill="red"/>
   </g>
   <g id="cell732">
  <circle cx="290.922" cy="251.536" r="8.3113" stroke-width="0.5" stroke="black" fill="red"/>
  <circle cx="290.922" cy="251.536" r="4.88092" stroke-width="0.5" stroke="red" fill="red"/>
   </g>
   <g id="cell733">
  <circle cx="287.111" cy="272.599" r="2.6142" stroke-width="0.5" stroke="black" fill="red"/>
   </g>
   <g id="cell734">
  <circle cx="301.8" cy="141.735" r="2.17674" stroke-width="0.5" stroke="black" fill="red"/>
   </g>
   <g id="cell735">
  <circle cx="303.234" cy="161.198" r="6.58714" stroke-width="0.5" stroke="black" fill="red"/>
   </g>
   <g id="cell736">
  <circle cx="304.749" cy="175.693" r="8.37111" stroke-width="0.5" stroke="black" fill="red"/>
  <circle cx="304.749" cy="175.693" r="4.98208" stroke-width="0.5" stroke="red" fill="red"/>
   </g>
   <g id="cell737">
  <circle cx="305.374" cy="193.804" r="8.29664" stroke-width="0.5" stroke="black" fill="red"/>
  <circle cx="305.374" cy="193.804" r="4.85591" stroke-width="0.5" stroke="red" fill="red"/>
   </g>
   <g id="cell738">
  <circle cx="306.927" cy="210.879" r="8.35802" stroke-width="0.5" stroke="black" fill="red"/>
  <circle cx="306.927" cy="210.879" r="4.96006" stroke-width="0.5" stroke="red" fill="red"/>
   </g>
   <g id="cell739">
  <circle cx="306.212" cy="226.937" r="8.39056" stroke-width="0.5" stroke="black" fill="red"/>
  <circle cx="306.212" cy="226.937" r="5.0147" stroke-width="0.5" stroke="red" fill="red"/>
   </g>
   <g id="cell740">
  <circle cx="307.391" cy="243.466" r="8.35661" stroke-width="0.5" stroke="black" fill="red"/>
  <circle cx="307.391" cy="243.466" r="4.95769" stroke-width="0.5" stroke="red" fill="red"/>
   </g>
   <g id="cell741">
  <circle cx="305.939" cy="259.115" r="8.10057" stroke-width="0.5" stroke="black" fill="red"/>
  <circle cx="305.939" cy="259.115" r="4.51275" stroke-width="0.5" stroke="red" fill="red"/>
   </g>
   <g id="cell742">
  <circle cx="314.527" cy="150.111" r="8.30981" stroke-width="0.5" stroke="black" fill="red"/>
  <circle cx="314.527" cy="150.111" r="4.87838" stroke-width="0.5" stroke="red" fill="red"/>
   </g>
   <g id="cell743">
  <circle cx="320.607" cy="169.792" r="8.04947" stroke-width="0.5" stroke="black" fill="red"/>
  <circle cx="320.607" cy="169.792" r="4.42037" stroke-width="0.5" stroke="red" fill="red"/>
   </g>
   <g id="cell744">
  <circle cx="319.214" cy="185.808" r="8.3197" stroke-width="0.5" stroke="black" fill="red"/>
  <circle cx="319.214" cy="185.808" r="4.89521" stroke-width="0.5" stroke="red" fill="red"/>
   </g>
   <g id="cell745">
  <circle cx="320.858" cy="202.025" r="8.19906" stroke-width="0.5" stroke="black" fill="red"/>
  <circle cx="320.858" cy="202.025" r="4.68724" stroke-width="0.5" stroke="red" fill="red"/>
   </g>
   <g id="cell746">
  <circle cx="320.651" cy="219.099" r="8.30632" stroke-width="0.5" stroke="black" fill="red"/>
  <circle cx="320.651" cy="219.099" r="4.87243" stroke-width="0.5" stroke="red" fill="red"/>
   </g>
   <g id="cell747">
  <circle cx="320.342" cy="234.755" r="7.53684" stroke-width="0.5" stroke="black" fill="red"/>
  <circle cx="320.342" cy="234.755" r="3.39847" stroke-width="0.5" stroke="red" fill="red"/>
   </g>
   <g id="cell748">
  <circle cx="320.958" cy="252.403" r="7.90939" stroke-width="0.5" stroke="black" fill="red"/>
  <circle cx="320.958" cy="252.403" r="4.15983" stroke-width="0.5" stroke="red" fill="red"/>
   </g>
   <g id="cell749">
  <circle cx="337.357" cy="159.282" r="8.31308" stroke-width="0.5" stroke="black" fill="red"/>
  <circle cx="337.357" cy="159.282" r="4.88395" stroke-width="0.5" stroke="red" fill="red"/>
   </g>
   <g id="cell750">
  <circle cx="335.358" cy="174.81" r="7.89301" stroke-width="0.5" stroke="black" fill="red"/>
  <circle cx="335.358" cy="174.81" r="4.1286" stroke-width="0.5" stroke="red" fill="red"/>
   </g>
   <g id="cell751">
  <circle cx="347.572" cy="189.107" r="8.04484" stroke-width="0.5" stroke="black" fill="red"/>
  <circle cx="347.572" cy="189.107" r="4.41193" stroke-width="0.5" stroke="red" fill="red"/>
   </g>
   <g id="cell752">
  <circle cx="336.969" cy="211.729" r="8.39245" stroke-width="0.5" stroke="black" fill="red"/>
  <circle cx="336.969" cy="211.729" r="5.01786" stroke-width="0.5" stroke="red" fill="red"/>
   </g>
   <g id="cell754">
  <circle cx="333.599" cy="243.05" r="8.41264" stroke-width="0.5" stroke="black" fill="red"/>
  <circle cx="333.599" cy="243.05" r="5.05156" stroke-width="0.5" stroke="red" fill="red"/>
   </g>
   <g id="cell755">
  <circle cx="350.432" cy="206.783" r="4.21436" stroke-width="0.5" stroke="black" fill="red"/>
   </g>
   <g id="cell760">
  <circle cx="212.435" cy="232.599" r="3.48043" stroke-width="0.5" stroke="black" fill="red"/>
   </g>
   <g id="cell767">
  <circle cx="245.316" cy="132.441" r="5.90548" stroke-width="0.5" stroke="black" fill="red"/>
   </g>
   <g id="cell809">
  <circle cx="317.41" cy="137.406" r="3.70871" stroke-width="0.5" stroke="black" fill="red"/>
   </g>
   <g id="cell818">
  <circle cx="332.597" cy="186.723" r="4.63269" stroke-width="0.5" stroke="black" fill="red"/>
   </g>
  </g>
 </g>
  <rect x="190" y="414" width="200" height="4" stroke-width="0.8" stroke="rgb(255,255,255)" fill="rgb(0,0,0)"/>
  <text x="192.5" y="411.5"
   font-family="Arial" font-size="10" fill="black" >
   200 &#956;m
  </text>
  <text x="10" y="418"
   font-family="Arial" font-size="7.5" fill="black" >
   0 days, 0 hours, 1 minutes, and 21.7600 seconds
  </text>
  <rect x="0" y="28" width="400" height="400" stroke-width="0.8" stroke="rgb(0,0,0)" fill="none"/>
</svg>
