<?xml version="1.0" encoding="UTF-8" standalone="no"?>
<!-- Created with PhysiCell (http://PhysiCell.MathCancer.org/) -->
<svg 
 xmlns:dc="http://purl.org/dc/elements/1.1/" 
 xmlns:cc="http://creativecommons.org/ns#" 
 xmlns:rdf="http://www.w3.org/1999/02/22-rdf-syntax-ns#" 
 xmlns:svg="http://www.w3.org/2000/svg" 
 xmlns="http://www.w3.org/2000/svg" 
 version="1.1" 
 width="400" 
 height="428" 
 id="svg2">
  <rect x="0" y="0" width="400" height="428" stroke-width="0.8" stroke="white" fill="white"/>
  <text x="5" y="12"
   font-family="Arial" font-size="10" fill="black" >
   Current time: 0 days, 3 hours, and 0.00 minutes, z = 0.00 &#956;m
  </text>
  <text x="5" y="23"
   font-family="Arial" font-size="9.5" fill="black" >
   978 agents
  </text>
 <g id="tissue" 
    transform="translate(0,428) scale(1,-1)">
  <g id="ECM">
  </g>
  <g id="cells">
   <g id="cell195">
  <circle cx="48.5945" cy="180.853" r="3.72821" stroke-width="0.5" stroke="black" fill="grey"/>
   </g>
   <g id="cell196">
  <circle cx="38.2961" cy="200.615" r="7.23233" stroke-width="0.5" stroke="black" fill="grey"/>
  <circle cx="38.2961" cy="200.615" r="2.65562" stroke-width="0.5" stroke="grey" fill="grey"/>
   </g>
   <g id="cell197">
  <circle cx="51.0214" cy="217.35" r="6.0314" stroke-width="0.5" stroke="black" fill="grey"/>
   </g>
   <g id="cell198">
  <circle cx="59.3247" cy="156.117" r="1.49201" stroke-width="0.5" stroke="black" fill="grey"/>
   </g>
   <g id="cell200">
  <circle cx="65.2824" cy="188.051" r="6.69315" stroke-width="0.5" stroke="black" fill="grey"/>
   </g>
   <g id="cell201">
  <circle cx="67.1323" cy="214.252" r="5.33567" stroke-width="0.5" stroke="black" fill="grey"/>
   </g>
   <g id="cell202">
  <circle cx="61.0116" cy="227.781" r="8.0916" stroke-width="0.5" stroke="black" fill="grey"/>
  <circle cx="61.0116" cy="227.781" r="4.49663" stroke-width="0.5" stroke="grey" fill="grey"/>
   </g>
   <g id="cell203">
  <circle cx="54.2236" cy="254.773" r="7.68465" stroke-width="0.5" stroke="black" fill="grey"/>
  <circle cx="54.2236" cy="254.773" r="3.71477" stroke-width="0.5" stroke="grey" fill="grey"/>
   </g>
   <g id="cell204">
  <circle cx="75.6413" cy="143.273" r="8.41118" stroke-width="0.5" stroke="black" fill="grey"/>
  <circle cx="75.6413" cy="143.273" r="5.04912" stroke-width="0.5" stroke="grey" fill="grey"/>
   </g>
   <g id="cell205">
  <circle cx="81.1846" cy="169.74" r="8.39677" stroke-width="0.5" stroke="black" fill="grey"/>
  <circle cx="81.1846" cy="169.74" r="5.02509" stroke-width="0.5" stroke="grey" fill="grey"/>
   </g>
   <g id="cell206">
  <circle cx="77.9685" cy="182.029" r="4.52556" stroke-width="0.5" stroke="black" fill="grey"/>
   </g>
   <g id="cell207">
  <circle cx="76.9336" cy="202.893" r="7.97428" stroke-width="0.5" stroke="black" fill="grey"/>
  <circle cx="76.9336" cy="202.893" r="4.28192" stroke-width="0.5" stroke="grey" fill="grey"/>
   </g>
   <g id="cell208">
  <circle cx="86.7379" cy="219.719" r="7.07794" stroke-width="0.5" stroke="black" fill="grey"/>
  <circle cx="86.7379" cy="219.719" r="2.20065" stroke-width="0.5" stroke="grey" fill="grey"/>
   </g>
   <g id="cell209">
  <circle cx="79.1271" cy="236.501" r="7.51817" stroke-width="0.5" stroke="black" fill="grey"/>
  <circle cx="79.1271" cy="236.501" r="3.35686" stroke-width="0.5" stroke="grey" fill="grey"/>
   </g>
   <g id="cell210">
  <circle cx="77.9032" cy="251.474" r="8.30819" stroke-width="0.5" stroke="black" fill="grey"/>
  <circle cx="77.9032" cy="251.474" r="4.87563" stroke-width="0.5" stroke="grey" fill="grey"/>
   </g>
   <g id="cell211">
  <circle cx="89.4803" cy="137.66" r="8.40829" stroke-width="0.5" stroke="black" fill="grey"/>
  <circle cx="89.4803" cy="137.66" r="5.04431" stroke-width="0.5" stroke="grey" fill="grey"/>
   </g>
   <g id="cell212">
  <circle cx="95.0854" cy="158.917" r="8.15854" stroke-width="0.5" stroke="black" fill="grey"/>
  <circle cx="95.0854" cy="158.917" r="4.616" stroke-width="0.5" stroke="grey" fill="grey"/>
   </g>
   <g id="cell213">
  <circle cx="96.5666" cy="174.015" r="8.02923" stroke-width="0.5" stroke="black" fill="grey"/>
  <circle cx="96.5666" cy="174.015" r="4.38341" stroke-width="0.5" stroke="grey" fill="grey"/>
   </g>
   <g id="cell214">
  <circle cx="97.7681" cy="191.969" r="6.58506" stroke-width="0.5" stroke="black" fill="grey"/>
   </g>
   <g id="cell215">
  <circle cx="98.0174" cy="211.402" r="8.20024" stroke-width="0.5" stroke="black" fill="grey"/>
  <circle cx="98.0174" cy="211.402" r="4.6893" stroke-width="0.5" stroke="grey" fill="grey"/>
   </g>
   <g id="cell216">
  <circle cx="96.5061" cy="230.782" r="7.92261" stroke-width="0.5" stroke="black" fill="grey"/>
  <circle cx="96.5061" cy="230.782" r="4.1849" stroke-width="0.5" stroke="grey" fill="grey"/>
   </g>
   <g id="cell217">
  <circle cx="94.3327" cy="247.816" r="8.41185" stroke-width="0.5" stroke="black" fill="grey"/>
  <circle cx="94.3327" cy="247.816" r="5.05023" stroke-width="0.5" stroke="grey" fill="grey"/>
   </g>
   <g id="cell218">
  <circle cx="90.4607" cy="267.428" r="7.26218" stroke-width="0.5" stroke="black" fill="grey"/>
  <circle cx="90.4607" cy="267.428" r="2.73586" stroke-width="0.5" stroke="grey" fill="grey"/>
   </g>
   <g id="cell220">
  <circle cx="113.444" cy="146.681" r="8.25028" stroke-width="0.5" stroke="black" fill="grey"/>
  <circle cx="113.444" cy="146.681" r="4.77628" stroke-width="0.5" stroke="grey" fill="grey"/>
   </g>
   <g id="cell221">
  <circle cx="110.101" cy="166.6" r="8.21903" stroke-width="0.5" stroke="black" fill="grey"/>
  <circle cx="110.101" cy="166.6" r="4.72209" stroke-width="0.5" stroke="grey" fill="grey"/>
   </g>
   <g id="cell222">
  <circle cx="109.46" cy="182.574" r="8.37674" stroke-width="0.5" stroke="black" fill="grey"/>
  <circle cx="109.46" cy="182.574" r="4.99153" stroke-width="0.5" stroke="grey" fill="grey"/>
   </g>
   <g id="cell223">
  <circle cx="110.598" cy="200.999" r="8.01537" stroke-width="0.5" stroke="black" fill="grey"/>
  <circle cx="110.598" cy="200.999" r="4.35796" stroke-width="0.5" stroke="grey" fill="grey"/>
   </g>
   <g id="cell225">
  <circle cx="109.998" cy="232.924" r="8.40751" stroke-width="0.5" stroke="black" fill="grey"/>
  <circle cx="109.998" cy="232.924" r="5.043" stroke-width="0.5" stroke="grey" fill="grey"/>
   </g>
   <g id="cell226">
  <circle cx="104.109" cy="259.45" r="8.3821" stroke-width="0.5" stroke="black" fill="grey"/>
  <circle cx="104.109" cy="259.45" r="5.00053" stroke-width="0.5" stroke="grey" fill="grey"/>
   </g>
   <g id="cell227">
  <circle cx="112.098" cy="287.265" r="4.5805" stroke-width="0.5" stroke="black" fill="grey"/>
   </g>
   <g id="cell228">
  <circle cx="129.549" cy="142.078" r="8.15561" stroke-width="0.5" stroke="black" fill="grey"/>
  <circle cx="129.549" cy="142.078" r="4.61082" stroke-width="0.5" stroke="grey" fill="grey"/>
   </g>
   <g id="cell229">
  <circle cx="125.608" cy="162.081" r="8.41023" stroke-width="0.5" stroke="black" fill="grey"/>
  <circle cx="125.608" cy="162.081" r="5.04753" stroke-width="0.5" stroke="grey" fill="grey"/>
   </g>
   <g id="cell230">
  <circle cx="129.698" cy="176.964" r="8.39102" stroke-width="0.5" stroke="black" fill="grey"/>
  <circle cx="129.698" cy="176.964" r="5.01547" stroke-width="0.5" stroke="grey" fill="grey"/>
   </g>
   <g id="cell231">
  <circle cx="125.152" cy="200.998" r="8.37513" stroke-width="0.5" stroke="black" fill="grey"/>
  <circle cx="125.152" cy="200.998" r="4.98883" stroke-width="0.5" stroke="grey" fill="grey"/>
   </g>
   <g id="cell232">
  <circle cx="121.096" cy="214.671" r="7.60213" stroke-width="0.5" stroke="black" fill="grey"/>
  <circle cx="121.096" cy="214.671" r="3.54092" stroke-width="0.5" stroke="grey" fill="grey"/>
   </g>
   <g id="cell233">
  <circle cx="124.197" cy="228.529" r="8.38057" stroke-width="0.5" stroke="black" fill="grey"/>
  <circle cx="124.197" cy="228.529" r="4.99796" stroke-width="0.5" stroke="grey" fill="grey"/>
   </g>
   <g id="cell234">
  <circle cx="123.983" cy="244.754" r="7.83397" stroke-width="0.5" stroke="black" fill="grey"/>
  <circle cx="123.983" cy="244.754" r="4.01456" stroke-width="0.5" stroke="grey" fill="grey"/>
   </g>
   <g id="cell235">
  <circle cx="120.737" cy="259.915" r="8.25659" stroke-width="0.5" stroke="black" fill="grey"/>
  <circle cx="120.737" cy="259.915" r="4.78717" stroke-width="0.5" stroke="grey" fill="grey"/>
   </g>
   <g id="cell236">
  <circle cx="143.554" cy="131.348" r="7.84762" stroke-width="0.5" stroke="black" fill="grey"/>
  <circle cx="143.554" cy="131.348" r="4.04114" stroke-width="0.5" stroke="grey" fill="grey"/>
   </g>
   <g id="cell237">
  <circle cx="147.425" cy="152.297" r="2.42629" stroke-width="0.5" stroke="black" fill="grey"/>
   </g>
   <g id="cell238">
  <circle cx="139.659" cy="165.903" r="7.83395" stroke-width="0.5" stroke="black" fill="grey"/>
  <circle cx="139.659" cy="165.903" r="4.01453" stroke-width="0.5" stroke="grey" fill="grey"/>
   </g>
   <g id="cell239">
  <circle cx="144.787" cy="181.267" r="6.8193" stroke-width="0.5" stroke="black" fill="grey"/>
  <circle cx="144.787" cy="181.267" r="1.11739" stroke-width="0.5" stroke="grey" fill="grey"/>
   </g>
   <g id="cell240">
  <circle cx="141.048" cy="200.887" r="7.44506" stroke-width="0.5" stroke="black" fill="grey"/>
  <circle cx="141.048" cy="200.887" r="3.18976" stroke-width="0.5" stroke="grey" fill="grey"/>
   </g>
   <g id="cell241">
  <circle cx="135.846" cy="214.509" r="6.69866" stroke-width="0.5" stroke="black" fill="grey"/>
   </g>
   <g id="cell242">
  <circle cx="136.278" cy="235.075" r="6.24953" stroke-width="0.5" stroke="black" fill="grey"/>
   </g>
   <g id="cell243">
  <circle cx="139.509" cy="249.782" r="7.67978" stroke-width="0.5" stroke="black" fill="grey"/>
  <circle cx="139.509" cy="249.782" r="3.70468" stroke-width="0.5" stroke="grey" fill="grey"/>
   </g>
   <g id="cell245">
  <circle cx="157.2" cy="138.808" r="8.23859" stroke-width="0.5" stroke="black" fill="grey"/>
  <circle cx="157.2" cy="138.808" r="4.75605" stroke-width="0.5" stroke="grey" fill="grey"/>
   </g>
   <g id="cell246">
  <circle cx="157.893" cy="158.264" r="7.58368" stroke-width="0.5" stroke="black" fill="grey"/>
  <circle cx="157.893" cy="158.264" r="3.50113" stroke-width="0.5" stroke="grey" fill="grey"/>
   </g>
   <g id="cell247">
  <circle cx="158.312" cy="176.406" r="4.84976" stroke-width="0.5" stroke="black" fill="grey"/>
   </g>
   <g id="cell248">
  <circle cx="157.593" cy="191.047" r="7.994" stroke-width="0.5" stroke="black" fill="grey"/>
  <circle cx="157.593" cy="191.047" r="4.31853" stroke-width="0.5" stroke="grey" fill="grey"/>
   </g>
   <g id="cell249">
  <circle cx="157.872" cy="206.71" r="8.10263" stroke-width="0.5" stroke="black" fill="grey"/>
  <circle cx="157.872" cy="206.71" r="4.51645" stroke-width="0.5" stroke="grey" fill="grey"/>
   </g>
   <g id="cell250">
  <circle cx="151.232" cy="228.454" r="6.09696" stroke-width="0.5" stroke="black" fill="grey"/>
   </g>
   <g id="cell251">
  <circle cx="153.649" cy="247.245" r="6.50514" stroke-width="0.5" stroke="black" fill="grey"/>
   </g>
   <g id="cell252">
  <circle cx="155.527" cy="264.118" r="5.21308" stroke-width="0.5" stroke="black" fill="grey"/>
   </g>
   <g id="cell253">
  <circle cx="174.099" cy="150.766" r="7.96165" stroke-width="0.5" stroke="black" fill="grey"/>
  <circle cx="174.099" cy="150.766" r="4.25834" stroke-width="0.5" stroke="grey" fill="grey"/>
   </g>
   <g id="cell254">
  <circle cx="170.961" cy="166.592" r="8.07242" stroke-width="0.5" stroke="black" fill="grey"/>
  <circle cx="170.961" cy="166.592" r="4.46203" stroke-width="0.5" stroke="grey" fill="grey"/>
   </g>
   <g id="cell255">
  <circle cx="170.557" cy="183.449" r="7.84679" stroke-width="0.5" stroke="black" fill="grey"/>
  <circle cx="170.557" cy="183.449" r="4.03952" stroke-width="0.5" stroke="grey" fill="grey"/>
   </g>
   <g id="cell256">
  <circle cx="170.05" cy="199.54" r="8.20528" stroke-width="0.5" stroke="black" fill="grey"/>
  <circle cx="170.05" cy="199.54" r="4.69811" stroke-width="0.5" stroke="grey" fill="grey"/>
   </g>
   <g id="cell257">
  <circle cx="167.853" cy="220.069" r="7.27581" stroke-width="0.5" stroke="black" fill="grey"/>
  <circle cx="167.853" cy="220.069" r="2.77184" stroke-width="0.5" stroke="grey" fill="grey"/>
   </g>
   <g id="cell258">
  <circle cx="175.339" cy="232.804" r="5.94923" stroke-width="0.5" stroke="black" fill="grey"/>
   </g>
   <g id="cell259">
  <circle cx="173.424" cy="250.9" r="4.14644" stroke-width="0.5" stroke="black" fill="grey"/>
   </g>
   <g id="cell260">
  <circle cx="192.888" cy="151.461" r="0.518738" stroke-width="0.5" stroke="black" fill="grey"/>
   </g>
   <g id="cell261">
  <circle cx="185.358" cy="172.253" r="8.35297" stroke-width="0.5" stroke="black" fill="grey"/>
  <circle cx="185.358" cy="172.253" r="4.95154" stroke-width="0.5" stroke="grey" fill="grey"/>
   </g>
   <g id="cell262">
  <circle cx="183.116" cy="191.492" r="7.85885" stroke-width="0.5" stroke="black" fill="grey"/>
  <circle cx="183.116" cy="191.492" r="4.06291" stroke-width="0.5" stroke="grey" fill="grey"/>
   </g>
   <g id="cell263">
  <circle cx="182.881" cy="208.312" r="8.26155" stroke-width="0.5" stroke="black" fill="grey"/>
  <circle cx="182.881" cy="208.312" r="4.79572" stroke-width="0.5" stroke="grey" fill="grey"/>
   </g>
   <g id="cell268">
  <circle cx="61.4482" cy="178.011" r="6.12795" stroke-width="0.5" stroke="black" fill="grey"/>
   </g>
   <g id="cell269">
  <circle cx="56.8542" cy="205.803" r="8.13043" stroke-width="0.5" stroke="black" fill="grey"/>
  <circle cx="56.8542" cy="205.803" r="4.56614" stroke-width="0.5" stroke="grey" fill="grey"/>
   </g>
   <g id="cell272">
  <circle cx="71.8824" cy="157.676" r="4.98083" stroke-width="0.5" stroke="black" fill="grey"/>
   </g>
   <g id="cell282">
  <circle cx="90.79" cy="204.046" r="3.05358" stroke-width="0.5" stroke="black" fill="grey"/>
   </g>
   <g id="cell286">
  <circle cx="113.586" cy="132.541" r="6.56099" stroke-width="0.5" stroke="black" fill="grey"/>
   </g>
   <g id="cell294">
  <circle cx="129.664" cy="129.39" r="5.36615" stroke-width="0.5" stroke="black" fill="grey"/>
   </g>
   <g id="cell306">
  <circle cx="136.378" cy="193.064" r="2.82672" stroke-width="0.5" stroke="black" fill="grey"/>
   </g>
   <g id="cell310">
  <circle cx="137.907" cy="264.254" r="8.22892" stroke-width="0.5" stroke="black" fill="grey"/>
  <circle cx="137.907" cy="264.254" r="4.73929" stroke-width="0.5" stroke="grey" fill="grey"/>
   </g>
   <g id="cell313">
  <circle cx="149.132" cy="170.644" r="5.48227" stroke-width="0.5" stroke="black" fill="grey"/>
   </g>
   <g id="cell316">
  <circle cx="150.754" cy="219.675" r="5.83652" stroke-width="0.5" stroke="black" fill="grey"/>
   </g>
   <g id="cell317">
  <circle cx="147.921" cy="238.349" r="7.44872" stroke-width="0.5" stroke="black" fill="grey"/>
  <circle cx="147.921" cy="238.349" r="3.19829" stroke-width="0.5" stroke="grey" fill="grey"/>
   </g>
   <g id="cell320">
  <circle cx="171.478" cy="136.532" r="6.75058" stroke-width="0.5" stroke="black" fill="grey"/>
  <circle cx="171.478" cy="136.532" r="0.562155" stroke-width="0.5" stroke="grey" fill="grey"/>
   </g>
   <g id="cell684">
  <circle cx="204.29" cy="181.503" r="8.41271" stroke-width="0.5" stroke="black" fill="red"/>
  <circle cx="204.29" cy="181.503" r="5.05167" stroke-width="0.5" stroke="red" fill="red"/>
   </g>
   <g id="cell685">
  <circle cx="206.041" cy="199.156" r="8.36855" stroke-width="0.5" stroke="black" fill="red"/>
  <circle cx="206.041" cy="199.156" r="4.97779" stroke-width="0.5" stroke="red" fill="red"/>
   </g>
   <g id="cell686">
  <circle cx="204.22" cy="215.839" r="8.31764" stroke-width="0.5" stroke="black" fill="red"/>
  <circle cx="204.22" cy="215.839" r="4.89171" stroke-width="0.5" stroke="red" fill="red"/>
   </g>
   <g id="cell687">
  <circle cx="218.638" cy="158.455" r="8.26017" stroke-width="0.5" stroke="black" fill="red"/>
  <circle cx="218.638" cy="158.455" r="4.79334" stroke-width="0.5" stroke="red" fill="red"/>
   </g>
   <g id="cell688">
  <circle cx="218.388" cy="174.513" r="8.09901" stroke-width="0.5" stroke="black" fill="red"/>
  <circle cx="218.388" cy="174.513" r="4.50995" stroke-width="0.5" stroke="red" fill="red"/>
   </g>
   <g id="cell689">
  <circle cx="222.009" cy="189.95" r="8.40195" stroke-width="0.5" stroke="black" fill="red"/>
  <circle cx="222.009" cy="189.95" r="5.03372" stroke-width="0.5" stroke="red" fill="red"/>
   </g>
   <g id="cell690">
  <circle cx="218.893" cy="210.184" r="7.63665" stroke-width="0.5" stroke="black" fill="red"/>
  <circle cx="218.893" cy="210.184" r="3.61443" stroke-width="0.5" stroke="red" fill="red"/>
   </g>
   <g id="cell691">
  <circle cx="219.865" cy="227.049" r="7.54938" stroke-width="0.5" stroke="black" fill="red"/>
  <circle cx="219.865" cy="227.049" r="3.4262" stroke-width="0.5" stroke="red" fill="red"/>
   </g>
   <g id="cell692">
  <circle cx="220.551" cy="245.711" r="7.60572" stroke-width="0.5" stroke="black" fill="red"/>
  <circle cx="220.551" cy="245.711" r="3.54862" stroke-width="0.5" stroke="red" fill="red"/>
   </g>
   <g id="cell693">
  <circle cx="233.058" cy="147.817" r="8.4121" stroke-width="0.5" stroke="black" fill="red"/>
  <circle cx="233.058" cy="147.817" r="5.05065" stroke-width="0.5" stroke="red" fill="red"/>
   </g>
   <g id="cell694">
  <circle cx="232.911" cy="166.782" r="7.93644" stroke-width="0.5" stroke="black" fill="red"/>
  <circle cx="232.911" cy="166.782" r="4.21103" stroke-width="0.5" stroke="red" fill="red"/>
   </g>
   <g id="cell695">
  <circle cx="236.442" cy="182.294" r="8.34886" stroke-width="0.5" stroke="black" fill="red"/>
  <circle cx="236.442" cy="182.294" r="4.94461" stroke-width="0.5" stroke="red" fill="red"/>
   </g>
   <g id="cell696">
  <circle cx="231.978" cy="201.375" r="8.40459" stroke-width="0.5" stroke="black" fill="red"/>
  <circle cx="231.978" cy="201.375" r="5.03813" stroke-width="0.5" stroke="red" fill="red"/>
   </g>
   <g id="cell697">
  <circle cx="232.885" cy="217.193" r="8.3117" stroke-width="0.5" stroke="black" fill="red"/>
  <circle cx="232.885" cy="217.193" r="4.88159" stroke-width="0.5" stroke="red" fill="red"/>
   </g>
   <g id="cell698">
  <circle cx="233.994" cy="234.857" r="8.32957" stroke-width="0.5" stroke="black" fill="red"/>
  <circle cx="233.994" cy="234.857" r="4.91197" stroke-width="0.5" stroke="red" fill="red"/>
   </g>
   <g id="cell699">
  <circle cx="234.564" cy="251.755" r="8.30423" stroke-width="0.5" stroke="black" fill="red"/>
  <circle cx="234.564" cy="251.755" r="4.86888" stroke-width="0.5" stroke="red" fill="red"/>
   </g>
   <g id="cell700">
  <circle cx="250.297" cy="142.383" r="7.45763" stroke-width="0.5" stroke="black" fill="red"/>
  <circle cx="250.297" cy="142.383" r="3.219" stroke-width="0.5" stroke="red" fill="red"/>
   </g>
   <g id="cell701">
  <circle cx="247.694" cy="157.86" r="8.41265" stroke-width="0.5" stroke="black" fill="red"/>
  <circle cx="247.694" cy="157.86" r="5.05158" stroke-width="0.5" stroke="red" fill="red"/>
   </g>
   <g id="cell702">
  <circle cx="250.775" cy="176.275" r="7.75096" stroke-width="0.5" stroke="black" fill="red"/>
  <circle cx="250.775" cy="176.275" r="3.85008" stroke-width="0.5" stroke="red" fill="red"/>
   </g>
   <g id="cell703">
  <circle cx="248.107" cy="192.463" r="8.0736" stroke-width="0.5" stroke="black" fill="red"/>
  <circle cx="248.107" cy="192.463" r="4.46415" stroke-width="0.5" stroke="red" fill="red"/>
   </g>
   <g id="cell704">
  <circle cx="247.612" cy="210.608" r="8.40593" stroke-width="0.5" stroke="black" fill="red"/>
  <circle cx="247.612" cy="210.608" r="5.04038" stroke-width="0.5" stroke="red" fill="red"/>
   </g>
   <g id="cell705">
  <circle cx="249.139" cy="227.079" r="6.99047" stroke-width="0.5" stroke="black" fill="red"/>
  <circle cx="249.139" cy="227.079" r="1.9006" stroke-width="0.5" stroke="red" fill="red"/>
   </g>
   <g id="cell706">
  <circle cx="248.198" cy="243.146" r="8.12674" stroke-width="0.5" stroke="black" fill="red"/>
  <circle cx="248.198" cy="243.146" r="4.55956" stroke-width="0.5" stroke="red" fill="red"/>
   </g>
   <g id="cell707">
  <circle cx="246.901" cy="261.041" r="7.39932" stroke-width="0.5" stroke="black" fill="red"/>
  <circle cx="246.901" cy="261.041" r="3.08149" stroke-width="0.5" stroke="red" fill="red"/>
   </g>
   <g id="cell708">
  <circle cx="263.063" cy="131.749" r="6.53838" stroke-width="0.5" stroke="black" fill="red"/>
   </g>
   <g id="cell709">
  <circle cx="263.057" cy="151.368" r="7.99791" stroke-width="0.5" stroke="black" fill="red"/>
  <circle cx="263.057" cy="151.368" r="4.32576" stroke-width="0.5" stroke="red" fill="red"/>
   </g>
   <g id="cell710">
  <circle cx="263.616" cy="167.386" r="8.41256" stroke-width="0.5" stroke="black" fill="red"/>
  <circle cx="263.616" cy="167.386" r="5.05142" stroke-width="0.5" stroke="red" fill="red"/>
   </g>
   <g id="cell711">
  <circle cx="263.072" cy="184.348" r="8.41063" stroke-width="0.5" stroke="black" fill="red"/>
  <circle cx="263.072" cy="184.348" r="5.0482" stroke-width="0.5" stroke="red" fill="red"/>
   </g>
   <g id="cell712">
  <circle cx="263.952" cy="200.511" r="8.05497" stroke-width="0.5" stroke="black" fill="red"/>
  <circle cx="263.952" cy="200.511" r="4.43038" stroke-width="0.5" stroke="red" fill="red"/>
   </g>
   <g id="cell713">
  <circle cx="262.008" cy="217.873" r="7.86266" stroke-width="0.5" stroke="black" fill="red"/>
  <circle cx="262.008" cy="217.873" r="4.07027" stroke-width="0.5" stroke="red" fill="red"/>
   </g>
   <g id="cell714">
  <circle cx="263.335" cy="234.642" r="7.58592" stroke-width="0.5" stroke="black" fill="red"/>
  <circle cx="263.335" cy="234.642" r="3.50598" stroke-width="0.5" stroke="red" fill="red"/>
   </g>
   <g id="cell715">
  <circle cx="264.226" cy="251.381" r="8.3782" stroke-width="0.5" stroke="black" fill="red"/>
  <circle cx="264.226" cy="251.381" r="4.99398" stroke-width="0.5" stroke="red" fill="red"/>
   </g>
   <g id="cell716">
  <circle cx="265.003" cy="267.079" r="7.84613" stroke-width="0.5" stroke="black" fill="red"/>
  <circle cx="265.003" cy="267.079" r="4.03824" stroke-width="0.5" stroke="red" fill="red"/>
   </g>
   <g id="cell717">
  <circle cx="276.767" cy="143.065" r="8.38276" stroke-width="0.5" stroke="black" fill="red"/>
  <circle cx="276.767" cy="143.065" r="5.00163" stroke-width="0.5" stroke="red" fill="red"/>
   </g>
   <g id="cell718">
  <circle cx="276.895" cy="159.504" r="8.16545" stroke-width="0.5" stroke="black" fill="red"/>
  <circle cx="276.895" cy="159.504" r="4.62821" stroke-width="0.5" stroke="red" fill="red"/>
   </g>
   <g id="cell719">
  <circle cx="276.864" cy="175.433" r="8.3666" stroke-width="0.5" stroke="black" fill="red"/>
  <circle cx="276.864" cy="175.433" r="4.9745" stroke-width="0.5" stroke="red" fill="red"/>
   </g>
   <g id="cell720">
  <circle cx="276.649" cy="191.858" r="8.26781" stroke-width="0.5" stroke="black" fill="red"/>
  <circle cx="276.649" cy="191.858" r="4.80649" stroke-width="0.5" stroke="red" fill="red"/>
   </g>
   <g id="cell721">
  <circle cx="278.911" cy="208.837" r="7.95953" stroke-width="0.5" stroke="black" fill="red"/>
  <circle cx="278.911" cy="208.837" r="4.25438" stroke-width="0.5" stroke="red" fill="red"/>
   </g>
   <g id="cell722">
  <circle cx="278.655" cy="224.912" r="7.84568" stroke-width="0.5" stroke="black" fill="red"/>
  <circle cx="278.655" cy="224.912" r="4.03737" stroke-width="0.5" stroke="red" fill="red"/>
   </g>
   <g id="cell723">
  <circle cx="277.464" cy="242.873" r="7.38153" stroke-width="0.5" stroke="black" fill="red"/>
  <circle cx="277.464" cy="242.873" r="3.03853" stroke-width="0.5" stroke="red" fill="red"/>
   </g>
   <g id="cell724">
  <circle cx="278.544" cy="258.42" r="8.27348" stroke-width="0.5" stroke="black" fill="red"/>
  <circle cx="278.544" cy="258.42" r="4.81624" stroke-width="0.5" stroke="red" fill="red"/>
   </g>
   <g id="cell725">
  <circle cx="293.068" cy="134.631" r="8.11192" stroke-width="0.5" stroke="black" fill="red"/>
  <circle cx="293.068" cy="134.631" r="4.5331" stroke-width="0.5" stroke="red" fill="red"/>
   </g>
   <g id="cell726">
  <circle cx="290.503" cy="150.007" r="8.41079" stroke-width="0.5" stroke="black" fill="red"/>
  <circle cx="290.503" cy="150.007" r="5.04848" stroke-width="0.5" stroke="red" fill="red"/>
   </g>
   <g id="cell727">
  <circle cx="290.782" cy="166.974" r="8.23495" stroke-width="0.5" stroke="black" fill="red"/>
  <circle cx="290.782" cy="166.974" r="4.74974" stroke-width="0.5" stroke="red" fill="red"/>
   </g>
   <g id="cell728">
  <circle cx="290.26" cy="182.862" r="8.1357" stroke-width="0.5" stroke="black" fill="red"/>
  <circle cx="290.26" cy="182.862" r="4.57551" stroke-width="0.5" stroke="red" fill="red"/>
   </g>
   <g id="cell729">
  <circle cx="290.449" cy="198.947" r="8.40501" stroke-width="0.5" stroke="black" fill="red"/>
  <circle cx="290.449" cy="198.947" r="5.03884" stroke-width="0.5" stroke="red" fill="red"/>
   </g>
   <g id="cell730">
  <circle cx="291.67" cy="215.863" r="8.0689" stroke-width="0.5" stroke="black" fill="red"/>
  <circle cx="291.67" cy="215.863" r="4.45566" stroke-width="0.5" stroke="red" fill="red"/>
   </g>
   <g id="cell731">
  <circle cx="291.929" cy="234.423" r="7.97744" stroke-width="0.5" stroke="black" fill="red"/>
  <circle cx="291.929" cy="234.423" r="4.2878" stroke-width="0.5" stroke="red" fill="red"/>
   </g>
   <g id="cell732">
  <circle cx="291.978" cy="250.317" r="7.43075" stroke-width="0.5" stroke="black" fill="red"/>
  <circle cx="291.978" cy="250.317" r="3.15622" stroke-width="0.5" stroke="red" fill="red"/>
   </g>
   <g id="cell733">
  <circle cx="291.636" cy="266.881" r="8.06703" stroke-width="0.5" stroke="black" fill="red"/>
  <circle cx="291.636" cy="266.881" r="4.45226" stroke-width="0.5" stroke="red" fill="red"/>
   </g>
   <g id="cell734">
  <circle cx="308.239" cy="142.442" r="7.43487" stroke-width="0.5" stroke="black" fill="red"/>
  <circle cx="308.239" cy="142.442" r="3.1659" stroke-width="0.5" stroke="red" fill="red"/>
   </g>
   <g id="cell735">
  <circle cx="305.849" cy="160.003" r="5.9681" stroke-width="0.5" stroke="black" fill="red"/>
   </g>
   <g id="cell736">
  <circle cx="305.926" cy="176.624" r="7.89646" stroke-width="0.5" stroke="black" fill="red"/>
  <circle cx="305.926" cy="176.624" r="4.13519" stroke-width="0.5" stroke="red" fill="red"/>
   </g>
   <g id="cell737">
  <circle cx="305.937" cy="192.354" r="8.34688" stroke-width="0.5" stroke="black" fill="red"/>
  <circle cx="305.937" cy="192.354" r="4.94127" stroke-width="0.5" stroke="red" fill="red"/>
   </g>
   <g id="cell738">
  <circle cx="306.05" cy="207.775" r="8.41267" stroke-width="0.5" stroke="black" fill="red"/>
  <circle cx="306.05" cy="207.775" r="5.05161" stroke-width="0.5" stroke="red" fill="red"/>
   </g>
   <g id="cell739">
  <circle cx="305.513" cy="224.896" r="8.23301" stroke-width="0.5" stroke="black" fill="red"/>
  <circle cx="305.513" cy="224.896" r="4.74638" stroke-width="0.5" stroke="red" fill="red"/>
   </g>
   <g id="cell740">
  <circle cx="305.908" cy="241.009" r="8.15584" stroke-width="0.5" stroke="black" fill="red"/>
  <circle cx="305.908" cy="241.009" r="4.61123" stroke-width="0.5" stroke="red" fill="red"/>
   </g>
   <g id="cell741">
  <circle cx="307.502" cy="257.492" r="7.91045" stroke-width="0.5" stroke="black" fill="red"/>
  <circle cx="307.502" cy="257.492" r="4.16183" stroke-width="0.5" stroke="red" fill="red"/>
   </g>
   <g id="cell742">
  <circle cx="320.397" cy="152.16" r="7.28856" stroke-width="0.5" stroke="black" fill="red"/>
  <circle cx="320.397" cy="152.16" r="2.80514" stroke-width="0.5" stroke="red" fill="red"/>
   </g>
   <g id="cell743">
  <circle cx="319.93" cy="168.371" r="7.87954" stroke-width="0.5" stroke="black" fill="red"/>
  <circle cx="319.93" cy="168.371" r="4.10278" stroke-width="0.5" stroke="red" fill="red"/>
   </g>
   <g id="cell744">
  <circle cx="320.087" cy="184.698" r="7.64981" stroke-width="0.5" stroke="black" fill="red"/>
  <circle cx="320.087" cy="184.698" r="3.64215" stroke-width="0.5" stroke="red" fill="red"/>
   </g>
   <g id="cell745">
  <circle cx="323.08" cy="200.459" r="8.30981" stroke-width="0.5" stroke="black" fill="red"/>
  <circle cx="323.08" cy="200.459" r="4.87838" stroke-width="0.5" stroke="red" fill="red"/>
   </g>
   <g id="cell746">
  <circle cx="320.383" cy="218.877" r="7.98708" stroke-width="0.5" stroke="black" fill="red"/>
  <circle cx="320.383" cy="218.877" r="4.30571" stroke-width="0.5" stroke="red" fill="red"/>
   </g>
   <g id="cell747">
  <circle cx="322.247" cy="233.943" r="7.71597" stroke-width="0.5" stroke="black" fill="red"/>
  <circle cx="322.247" cy="233.943" r="3.77914" stroke-width="0.5" stroke="red" fill="red"/>
   </g>
   <g id="cell748">
  <circle cx="321.522" cy="250.348" r="8.28237" stroke-width="0.5" stroke="black" fill="red"/>
  <circle cx="321.522" cy="250.348" r="4.83149" stroke-width="0.5" stroke="red" fill="red"/>
   </g>
   <g id="cell749">
  <circle cx="334.056" cy="159.97" r="7.77988" stroke-width="0.5" stroke="black" fill="red"/>
  <circle cx="334.056" cy="159.97" r="3.90797" stroke-width="0.5" stroke="red" fill="red"/>
   </g>
   <g id="cell750">
  <circle cx="339.39" cy="175.027" r="7.93199" stroke-width="0.5" stroke="black" fill="red"/>
  <circle cx="339.39" cy="175.027" r="4.20263" stroke-width="0.5" stroke="red" fill="red"/>
   </g>
   <g id="cell751">
  <circle cx="338.179" cy="192.786" r="8.39434" stroke-width="0.5" stroke="black" fill="red"/>
  <circle cx="338.179" cy="192.786" r="5.02102" stroke-width="0.5" stroke="red" fill="red"/>
   </g>
   <g id="cell752">
  <circle cx="338.21" cy="208.027" r="8.39619" stroke-width="0.5" stroke="black" fill="red"/>
  <circle cx="338.21" cy="208.027" r="5.02411" stroke-width="0.5" stroke="red" fill="red"/>
   </g>
   <g id="cell753">
  <circle cx="336.42" cy="226.382" r="7.01611" stroke-width="0.5" stroke="black" fill="red"/>
  <circle cx="336.42" cy="226.382" r="1.99287" stroke-width="0.5" stroke="red" fill="red"/>
   </g>
   <g id="cell754">
  <circle cx="335.893" cy="242.302" r="8.40692" stroke-width="0.5" stroke="black" fill="red"/>
  <circle cx="335.893" cy="242.302" r="5.04203" stroke-width="0.5" stroke="red" fill="red"/>
   </g>
   <g id="cell755">
  <circle cx="351.367" cy="200.35" r="6.47307" stroke-width="0.5" stroke="black" fill="red"/>
   </g>
   <g id="cell767">
  <circle cx="241.796" cy="135.157" r="4.32758" stroke-width="0.5" stroke="black" fill="red"/>
   </g>
   <g id="cell800">
  <circle cx="303.765" cy="133.038" r="1.53191" stroke-width="0.5" stroke="black" fill="red"/>
   </g>
  </g>
 </g>
  <rect x="190" y="414" width="200" height="4" stroke-width="0.8" stroke="rgb(255,255,255)" fill="rgb(0,0,0)"/>
  <text x="192.5" y="411.5"
   font-family="Arial" font-size="10" fill="black" >
   200 &#956;m
  </text>
  <text x="10" y="418"
   font-family="Arial" font-size="7.5" fill="black" >
   0 days, 0 hours, 0 minutes, and 13.0138 seconds
  </text>
  <rect x="0" y="28" width="400" height="400" stroke-width="0.8" stroke="rgb(0,0,0)" fill="none"/>
</svg>
